<?xml version="1.0" encoding="UTF-8" standalone="no"?>
<!DOCTYPE svg PUBLIC "-//W3C//DTD SVG 1.1//EN"
 "http://www.w3.org/Graphics/SVG/1.1/DTD/svg11.dtd">
<!-- Generated by graphviz version 2.38.0 (20140413.2041)
 -->
<!-- Title: beseenium.controller.ActionFactory.ActionFactory.ActionFactory Pages: 1 -->
<svg width="447pt" height="39pt"
 viewBox="0.00 0.00 447.00 39.00" xmlns="http://www.w3.org/2000/svg" xmlns:xlink="http://www.w3.org/1999/xlink">
<g id="graph0" class="graph" transform="scale(1 1) rotate(0) translate(4 35)">
<title>beseenium.controller.ActionFactory.ActionFactory.ActionFactory</title>
<polygon fill="white" stroke="none" points="-4,4 -4,-35 443,-35 443,4 -4,4"/>
<!-- Node1 -->
<g id="node1" class="node"><title>Node1</title>
<polygon fill="#bfbfbf" stroke="black" points="0,-0.5 0,-30.5 188,-30.5 188,-0.5 0,-0.5"/>
<text text-anchor="start" x="8" y="-18.5" font-family="Helvetica,sans-Serif" font-size="10.00">beseenium.controller.Action</text>
<text text-anchor="middle" x="94" y="-7.5" font-family="Helvetica,sans-Serif" font-size="10.00">Factory.ActionFactory.ActionFactory</text>
</g>
<!-- Node2 -->
<g id="node2" class="node"><title>Node2</title>
<g id="a_node2"><a xlink:href="a00018.html#ac20e4e9e93ccef2376c0b4c36dcc9d0e" target="_top" xlink:title="creates all possible actions and populates the map with them. ">
<polygon fill="white" stroke="black" points="224,-0.5 224,-30.5 439,-30.5 439,-0.5 224,-0.5"/>
<text text-anchor="start" x="232" y="-18.5" font-family="Helvetica,sans-Serif" font-size="10.00">beseenium.controller.Action</text>
<text text-anchor="middle" x="331.5" y="-7.5" font-family="Helvetica,sans-Serif" font-size="10.00">Factory.ActionFactory.populateActionMap</text>
</a>
</g>
</g>
<!-- Node1&#45;&gt;Node2 -->
<g id="edge1" class="edge"><title>Node1&#45;&gt;Node2</title>
<path fill="none" stroke="midnightblue" d="M188.076,-15.5C196.485,-15.5 205.07,-15.5 213.648,-15.5"/>
<polygon fill="midnightblue" stroke="midnightblue" points="213.705,-19.0001 223.705,-15.5 213.705,-12.0001 213.705,-19.0001"/>
</g>
</g>
</svg>
