<?xml version="1.0" encoding="UTF-8" standalone="no"?>
<!DOCTYPE svg PUBLIC "-//W3C//DTD SVG 1.1//EN"
 "http://www.w3.org/Graphics/SVG/1.1/DTD/svg11.dtd">
<!-- Generated by graphviz version 2.38.0 (20140413.2041)
 -->
<!-- Title: beseenium.view.outputHandlers.requestHandlers.addActionHandlers.AddActionDataHandler.handleRequest Pages: 1 -->
<svg width="483pt" height="50pt"
 viewBox="0.00 0.00 483.00 50.00" xmlns="http://www.w3.org/2000/svg" xmlns:xlink="http://www.w3.org/1999/xlink">
<g id="graph0" class="graph" transform="scale(1 1) rotate(0) translate(4 46)">
<title>beseenium.view.outputHandlers.requestHandlers.addActionHandlers.AddActionDataHandler.handleRequest</title>
<polygon fill="white" stroke="none" points="-4,4 -4,-46 479,-46 479,4 -4,4"/>
<!-- Node1 -->
<g id="node1" class="node"><title>Node1</title>
<polygon fill="#bfbfbf" stroke="black" points="0,-0.5 0,-41.5 228,-41.5 228,-0.5 0,-0.5"/>
<text text-anchor="start" x="8" y="-29.5" font-family="Helvetica,sans-Serif" font-size="10.00">beseenium.view.outputHandlers.request</text>
<text text-anchor="start" x="8" y="-18.5" font-family="Helvetica,sans-Serif" font-size="10.00">Handlers.addActionHandlers.AddActionData</text>
<text text-anchor="middle" x="114" y="-7.5" font-family="Helvetica,sans-Serif" font-size="10.00">Handler.handleRequest</text>
</g>
<!-- Node2 -->
<g id="node2" class="node"><title>Node2</title>
<g id="a_node2"><a xlink:href="a00013.html#aa69c65e2b1e435f9130ffa7dfde78069" target="_top" xlink:title="Contains the implementation of the request. ">
<polygon fill="white" stroke="black" points="264,-6 264,-36 475,-36 475,-6 264,-6"/>
<text text-anchor="start" x="272" y="-24" font-family="Helvetica,sans-Serif" font-size="10.00">beseenium.view.inputHandlers.requests.</text>
<text text-anchor="middle" x="369.5" y="-13" font-family="Helvetica,sans-Serif" font-size="10.00">AbstractTestRequest.executeRequest</text>
</a>
</g>
</g>
<!-- Node1&#45;&gt;Node2 -->
<g id="edge1" class="edge"><title>Node1&#45;&gt;Node2</title>
<path fill="none" stroke="midnightblue" d="M228.034,-21C236.482,-21 245.013,-21 253.472,-21"/>
<polygon fill="midnightblue" stroke="midnightblue" points="253.747,-24.5001 263.747,-21 253.747,-17.5001 253.747,-24.5001"/>
</g>
</g>
</svg>
