<?xml version="1.0" encoding="UTF-8" standalone="no"?>
<!DOCTYPE svg PUBLIC "-//W3C//DTD SVG 1.1//EN"
 "http://www.w3.org/Graphics/SVG/1.1/DTD/svg11.dtd">
<!-- Generated by graphviz version 2.38.0 (20140413.2041)
 -->
<!-- Title: beseenium.view.outputHandlers.requestHandlers.AbstractRequestHandler.setSuccessor Pages: 1 -->
<svg width="570pt" height="230pt"
 viewBox="0.00 0.00 570.00 230.00" xmlns="http://www.w3.org/2000/svg" xmlns:xlink="http://www.w3.org/1999/xlink">
<g id="graph0" class="graph" transform="scale(1 1) rotate(0) translate(4 226)">
<title>beseenium.view.outputHandlers.requestHandlers.AbstractRequestHandler.setSuccessor</title>
<polygon fill="white" stroke="none" points="-4,4 -4,-226 566,-226 566,4 -4,4"/>
<!-- Node1 -->
<g id="node1" class="node"><title>Node1</title>
<polygon fill="#bfbfbf" stroke="black" points="0,-96 0,-126 247,-126 247,-96 0,-96"/>
<text text-anchor="start" x="8" y="-114" font-family="Helvetica,sans-Serif" font-size="10.00">beseenium.view.outputHandlers.request</text>
<text text-anchor="middle" x="123.5" y="-103" font-family="Helvetica,sans-Serif" font-size="10.00">Handlers.AbstractRequestHandler.setSuccessor</text>
</g>
<!-- Node2 -->
<g id="node2" class="node"><title>Node2</title>
<g id="a_node2"><a xlink:href="a00120.html#a537d1204c72fa2f5ebe87df895710427" target="_top" xlink:title="beseenium.view.outputHandlers.request\lHandlers.browserHandlers.RootBrowserHandler.handle\lRequest">
<polygon fill="white" stroke="black" points="283.5,-180.5 283.5,-221.5 561.5,-221.5 561.5,-180.5 283.5,-180.5"/>
<text text-anchor="start" x="291.5" y="-209.5" font-family="Helvetica,sans-Serif" font-size="10.00">beseenium.view.outputHandlers.request</text>
<text text-anchor="start" x="291.5" y="-198.5" font-family="Helvetica,sans-Serif" font-size="10.00">Handlers.browserHandlers.RootBrowserHandler.handle</text>
<text text-anchor="middle" x="422.5" y="-187.5" font-family="Helvetica,sans-Serif" font-size="10.00">Request</text>
</a>
</g>
</g>
<!-- Node1&#45;&gt;Node2 -->
<g id="edge1" class="edge"><title>Node1&#45;&gt;Node2</title>
<path fill="none" stroke="midnightblue" d="M169.217,-129.968C200.638,-142.79 243.879,-159.428 283,-171 294.442,-174.385 306.52,-177.563 318.582,-180.493"/>
<polygon fill="midnightblue" stroke="midnightblue" points="170.443,-126.688 159.863,-126.122 167.78,-133.162 170.443,-126.688"/>
</g>
<!-- Node3 -->
<g id="node3" class="node"><title>Node3</title>
<g id="a_node3"><a xlink:href="a00119.html#a24658ebd56efcdec6f8928a733235c2b" target="_top" xlink:title="beseenium.view.outputHandlers.request\lHandlers.addActionHandlers.RootAddActions\lHandler.handleRequest">
<polygon fill="white" stroke="black" points="306.5,-120.5 306.5,-161.5 538.5,-161.5 538.5,-120.5 306.5,-120.5"/>
<text text-anchor="start" x="314.5" y="-149.5" font-family="Helvetica,sans-Serif" font-size="10.00">beseenium.view.outputHandlers.request</text>
<text text-anchor="start" x="314.5" y="-138.5" font-family="Helvetica,sans-Serif" font-size="10.00">Handlers.addActionHandlers.RootAddActions</text>
<text text-anchor="middle" x="422.5" y="-127.5" font-family="Helvetica,sans-Serif" font-size="10.00">Handler.handleRequest</text>
</a>
</g>
</g>
<!-- Node1&#45;&gt;Node3 -->
<g id="edge2" class="edge"><title>Node1&#45;&gt;Node3</title>
<path fill="none" stroke="midnightblue" d="M257.198,-124.404C273.618,-126.062 290.298,-127.747 306.423,-129.376"/>
<polygon fill="midnightblue" stroke="midnightblue" points="257.317,-120.898 247.016,-123.375 256.614,-127.863 257.317,-120.898"/>
</g>
<!-- Node4 -->
<g id="node4" class="node"><title>Node4</title>
<g id="a_node4"><a xlink:href="a00123.html#ade06e27882a65a5fc8e93a3292cd12b6" target="_top" xlink:title="beseenium.view.outputHandlers.request\lHandlers.executeHandlers.RootExecuteHandler.handle\lRequest">
<polygon fill="white" stroke="black" points="283,-60.5 283,-101.5 562,-101.5 562,-60.5 283,-60.5"/>
<text text-anchor="start" x="291" y="-89.5" font-family="Helvetica,sans-Serif" font-size="10.00">beseenium.view.outputHandlers.request</text>
<text text-anchor="start" x="291" y="-78.5" font-family="Helvetica,sans-Serif" font-size="10.00">Handlers.executeHandlers.RootExecuteHandler.handle</text>
<text text-anchor="middle" x="422.5" y="-67.5" font-family="Helvetica,sans-Serif" font-size="10.00">Request</text>
</a>
</g>
</g>
<!-- Node1&#45;&gt;Node4 -->
<g id="edge3" class="edge"><title>Node1&#45;&gt;Node4</title>
<path fill="none" stroke="midnightblue" d="M257.04,-97.6122C265.612,-96.7462 274.257,-95.873 282.857,-95.0043"/>
<polygon fill="midnightblue" stroke="midnightblue" points="256.614,-94.1373 247.016,-98.6246 257.317,-101.102 256.614,-94.1373"/>
</g>
<!-- Node5 -->
<g id="node5" class="node"><title>Node5</title>
<g id="a_node5"><a xlink:href="a00121.html#a9be285cdc69f6c0b03c55c913b76b8fe" target="_top" xlink:title="beseenium.view.outputHandlers.request\lHandlers.capabilitiesHandlers.RootCapabilities\lHandler.handleRequest">
<polygon fill="white" stroke="black" points="303.5,-0.5 303.5,-41.5 541.5,-41.5 541.5,-0.5 303.5,-0.5"/>
<text text-anchor="start" x="311.5" y="-29.5" font-family="Helvetica,sans-Serif" font-size="10.00">beseenium.view.outputHandlers.request</text>
<text text-anchor="start" x="311.5" y="-18.5" font-family="Helvetica,sans-Serif" font-size="10.00">Handlers.capabilitiesHandlers.RootCapabilities</text>
<text text-anchor="middle" x="422.5" y="-7.5" font-family="Helvetica,sans-Serif" font-size="10.00">Handler.handleRequest</text>
</a>
</g>
</g>
<!-- Node1&#45;&gt;Node5 -->
<g id="edge4" class="edge"><title>Node1&#45;&gt;Node5</title>
<path fill="none" stroke="midnightblue" d="M169.217,-92.0317C200.638,-79.21 243.879,-62.5719 283,-51 294.442,-47.6154 306.52,-44.4365 318.582,-41.5068"/>
<polygon fill="midnightblue" stroke="midnightblue" points="167.78,-88.8381 159.863,-95.8784 170.443,-95.3121 167.78,-88.8381"/>
</g>
</g>
</svg>
