<?xml version="1.0" encoding="UTF-8" standalone="no"?>
<!DOCTYPE svg PUBLIC "-//W3C//DTD SVG 1.1//EN"
 "http://www.w3.org/Graphics/SVG/1.1/DTD/svg11.dtd">
<!-- Generated by graphviz version 2.38.0 (20140413.2041)
 -->
<!-- Title: beseenium.controller.ActionDataFactory.ActionDataFactory.makeActionData Pages: 1 -->
<svg width="866pt" height="50pt"
 viewBox="0.00 0.00 866.00 50.00" xmlns="http://www.w3.org/2000/svg" xmlns:xlink="http://www.w3.org/1999/xlink">
<g id="graph0" class="graph" transform="scale(1 1) rotate(0) translate(4 46)">
<title>beseenium.controller.ActionDataFactory.ActionDataFactory.makeActionData</title>
<polygon fill="white" stroke="none" points="-4,4 -4,-46 862,-46 862,4 -4,4"/>
<!-- Node1 -->
<g id="node1" class="node"><title>Node1</title>
<polygon fill="#bfbfbf" stroke="black" points="0,-0.5 0,-41.5 197,-41.5 197,-0.5 0,-0.5"/>
<text text-anchor="start" x="8" y="-29.5" font-family="Helvetica,sans-Serif" font-size="10.00">beseenium.controller.Action</text>
<text text-anchor="start" x="8" y="-18.5" font-family="Helvetica,sans-Serif" font-size="10.00">DataFactory.ActionDataFactory.make</text>
<text text-anchor="middle" x="98.5" y="-7.5" font-family="Helvetica,sans-Serif" font-size="10.00">ActionData</text>
</g>
<!-- Node2 -->
<g id="node2" class="node"><title>Node2</title>
<g id="a_node2"><a xlink:href="a00124.html#af02c624fce3af866729a032349e764c9" target="_top" xlink:title="Set the browser that you want this test to run on. ">
<polygon fill="white" stroke="black" points="233,-6 233,-36 392,-36 392,-6 233,-6"/>
<text text-anchor="start" x="241" y="-24" font-family="Helvetica,sans-Serif" font-size="10.00">beseenium.controller.Test.set</text>
<text text-anchor="middle" x="312.5" y="-13" font-family="Helvetica,sans-Serif" font-size="10.00">Browser</text>
</a>
</g>
</g>
<!-- Node1&#45;&gt;Node2 -->
<g id="edge1" class="edge"><title>Node1&#45;&gt;Node2</title>
<path fill="none" stroke="midnightblue" d="M207.229,-21C215.844,-21 224.444,-21 232.8,-21"/>
<polygon fill="midnightblue" stroke="midnightblue" points="207.123,-17.5001 197.123,-21 207.123,-24.5001 207.123,-17.5001"/>
</g>
<!-- Node3 -->
<g id="node3" class="node"><title>Node3</title>
<g id="a_node3"><a xlink:href="a00126.html#a7696fb55c864a910283e742115b7ed15" target="_top" xlink:title="takes an input from servlet(via handleURL method) in the form of string &#39;get&#39; URL parameter &#39;browser&#39;...">
<polygon fill="white" stroke="black" points="428,-6 428,-36 616,-36 616,-6 428,-6"/>
<text text-anchor="start" x="436" y="-24" font-family="Helvetica,sans-Serif" font-size="10.00">beseenium.view.URLHandler.handle</text>
<text text-anchor="middle" x="522" y="-13" font-family="Helvetica,sans-Serif" font-size="10.00">Browser</text>
</a>
</g>
</g>
<!-- Node2&#45;&gt;Node3 -->
<g id="edge2" class="edge"><title>Node2&#45;&gt;Node3</title>
<path fill="none" stroke="midnightblue" d="M402.38,-21C410.757,-21 419.266,-21 427.682,-21"/>
<polygon fill="midnightblue" stroke="midnightblue" points="402.243,-17.5001 392.243,-21 402.243,-24.5001 402.243,-17.5001"/>
</g>
<!-- Node4 -->
<g id="node4" class="node"><title>Node4</title>
<g id="a_node4"><a xlink:href="a00126.html#a5d57a46df8465d2c40f22fd8cb037c9c" target="_top" xlink:title="takes the URL parameters passed to it from the BeSeeniumServlet and uses it to populate and run a Tes...">
<polygon fill="white" stroke="black" points="652,-11.5 652,-30.5 858,-30.5 858,-11.5 652,-11.5"/>
<text text-anchor="middle" x="755" y="-18.5" font-family="Helvetica,sans-Serif" font-size="10.00">beseenium.view.URLHandler.handleURL</text>
</a>
</g>
</g>
<!-- Node3&#45;&gt;Node4 -->
<g id="edge3" class="edge"><title>Node3&#45;&gt;Node4</title>
<path fill="none" stroke="midnightblue" d="M626.456,-21C634.834,-21 643.297,-21 651.667,-21"/>
<polygon fill="midnightblue" stroke="midnightblue" points="626.291,-17.5001 616.291,-21 626.291,-24.5001 626.291,-17.5001"/>
</g>
</g>
</svg>
