<?xml version="1.0" encoding="UTF-8" standalone="no"?>
<!DOCTYPE svg PUBLIC "-//W3C//DTD SVG 1.1//EN"
 "http://www.w3.org/Graphics/SVG/1.1/DTD/svg11.dtd">
<!-- Generated by graphviz version 2.38.0 (20140413.2041)
 -->
<!-- Title: beseenium.controller.ActionFactory.ActionFactory.makeAction Pages: 1 -->
<svg width="1216pt" height="235pt"
 viewBox="0.00 0.00 1216.00 235.50" xmlns="http://www.w3.org/2000/svg" xmlns:xlink="http://www.w3.org/1999/xlink">
<g id="graph0" class="graph" transform="scale(1 1) rotate(0) translate(4 231.5)">
<title>beseenium.controller.ActionFactory.ActionFactory.makeAction</title>
<polygon fill="white" stroke="none" points="-4,4 -4,-231.5 1212,-231.5 1212,4 -4,4"/>
<!-- Node1 -->
<g id="node1" class="node"><title>Node1</title>
<polygon fill="#bfbfbf" stroke="black" points="0,-150 0,-180 180,-180 180,-150 0,-150"/>
<text text-anchor="start" x="8" y="-168" font-family="Helvetica,sans-Serif" font-size="10.00">beseenium.controller.Action</text>
<text text-anchor="middle" x="90" y="-157" font-family="Helvetica,sans-Serif" font-size="10.00">Factory.ActionFactory.makeAction</text>
</g>
<!-- Node2 -->
<g id="node2" class="node"><title>Node2</title>
<g id="a_node2"><a xlink:href="a00121.html#a47938d96708f66fa5342e9377c8b5171" target="_top" xlink:title="Add an action to this test. ">
<polygon fill="white" stroke="black" points="234,-178 234,-208 396,-208 396,-178 234,-178"/>
<text text-anchor="start" x="242" y="-196" font-family="Helvetica,sans-Serif" font-size="10.00">beseenium.controller.Test.add</text>
<text text-anchor="middle" x="315" y="-185" font-family="Helvetica,sans-Serif" font-size="10.00">Action</text>
</a>
</g>
</g>
<!-- Node1&#45;&gt;Node2 -->
<g id="edge1" class="edge"><title>Node1&#45;&gt;Node2</title>
<path fill="none" stroke="midnightblue" d="M190.131,-177.447C204.708,-179.277 219.57,-181.143 233.705,-182.918"/>
<polygon fill="midnightblue" stroke="midnightblue" points="190.455,-173.96 180.097,-176.187 189.583,-180.906 190.455,-173.96"/>
</g>
<!-- Node5 -->
<g id="node5" class="node"><title>Node5</title>
<g id="a_node5"><a xlink:href="a00121.html#a30550c4174a00b79dcb3c09b37eb925f" target="_top" xlink:title="remove all actions from this test and close the browser instance associated with it. ">
<polygon fill="white" stroke="black" points="216,-123 216,-153 414,-153 414,-123 216,-123"/>
<text text-anchor="start" x="224" y="-141" font-family="Helvetica,sans-Serif" font-size="10.00">beseenium.controller.Test.emergency</text>
<text text-anchor="middle" x="315" y="-130" font-family="Helvetica,sans-Serif" font-size="10.00">Shutdown</text>
</a>
</g>
</g>
<!-- Node1&#45;&gt;Node5 -->
<g id="edge4" class="edge"><title>Node1&#45;&gt;Node5</title>
<path fill="none" stroke="midnightblue" d="M190.096,-153.002C198.663,-151.965 207.329,-150.915 215.888,-149.879"/>
<polygon fill="midnightblue" stroke="midnightblue" points="189.604,-149.536 180.097,-154.212 190.445,-156.485 189.604,-149.536"/>
</g>
<!-- Node3 -->
<g id="node3" class="node"><title>Node3</title>
<g id="a_node3"><a xlink:href="a00123.html#aa2ec4a8ab58fee50c2a0a4ace58fd981" target="_top" xlink:title="takes an input from servlet(via handleURL method) in the form of string &#39;get&#39; URL parameter &#39;addActio...">
<polygon fill="white" stroke="black" points="732.5,-197 732.5,-227 920.5,-227 920.5,-197 732.5,-197"/>
<text text-anchor="start" x="740.5" y="-215" font-family="Helvetica,sans-Serif" font-size="10.00">beseenium.view.URLHandler.handle</text>
<text text-anchor="middle" x="826.5" y="-204" font-family="Helvetica,sans-Serif" font-size="10.00">AddActions</text>
</a>
</g>
</g>
<!-- Node2&#45;&gt;Node3 -->
<g id="edge2" class="edge"><title>Node2&#45;&gt;Node3</title>
<path fill="none" stroke="midnightblue" d="M406.278,-196.367C498.069,-199.79 639.623,-205.068 732.414,-208.529"/>
<polygon fill="midnightblue" stroke="midnightblue" points="406.293,-192.865 396.17,-195.99 406.032,-199.86 406.293,-192.865"/>
</g>
<!-- Node4 -->
<g id="node4" class="node"><title>Node4</title>
<g id="a_node4"><a xlink:href="a00123.html#a5d57a46df8465d2c40f22fd8cb037c9c" target="_top" xlink:title="takes the URL parameters passed to it from the BeSeeniumServlet and uses it to populate and run a Tes...">
<polygon fill="white" stroke="black" points="1002,-128.5 1002,-147.5 1208,-147.5 1208,-128.5 1002,-128.5"/>
<text text-anchor="middle" x="1105" y="-135.5" font-family="Helvetica,sans-Serif" font-size="10.00">beseenium.view.URLHandler.handleURL</text>
</a>
</g>
</g>
<!-- Node3&#45;&gt;Node4 -->
<g id="edge3" class="edge"><title>Node3&#45;&gt;Node4</title>
<path fill="none" stroke="midnightblue" d="M930.736,-195.283C942.689,-192.782 954.655,-190.017 966,-187 1007.03,-176.09 1053.26,-158.562 1080.44,-147.693"/>
<polygon fill="midnightblue" stroke="midnightblue" points="929.814,-191.899 920.712,-197.322 931.209,-198.758 929.814,-191.899"/>
</g>
<!-- Node6 -->
<g id="node6" class="node"><title>Node6</title>
<g id="a_node6"><a xlink:href="a00037.html#a2413846626263a20383c8341d7dd2e47" target="_top" xlink:title="in case something goes wrong the test should be able to shut down the current browser instance...">
<polygon fill="white" stroke="black" points="456.5,-55 456.5,-85 644.5,-85 644.5,-55 456.5,-55"/>
<text text-anchor="start" x="464.5" y="-73" font-family="Helvetica,sans-Serif" font-size="10.00">beseenium.view.helpers.Emergency</text>
<text text-anchor="middle" x="550.5" y="-62" font-family="Helvetica,sans-Serif" font-size="10.00">Shutdown.execute</text>
</a>
</g>
</g>
<!-- Node5&#45;&gt;Node6 -->
<g id="edge5" class="edge"><title>Node5&#45;&gt;Node6</title>
<path fill="none" stroke="midnightblue" d="M377.319,-120.143C414.77,-109.236 462.13,-95.4439 497.697,-85.0861"/>
<polygon fill="midnightblue" stroke="midnightblue" points="376.154,-116.836 367.532,-122.993 378.111,-123.557 376.154,-116.836"/>
</g>
<!-- Node8 -->
<g id="node8" class="node"><title>Node8</title>
<g id="a_node8"><a xlink:href="a00123.html#ab3a029a7ca30c5f8a0344c4634b9daf0" target="_top" xlink:title="in case something goes wrong the test should be able to shut down the current browser instance...">
<polygon fill="white" stroke="black" points="450,-128.5 450,-147.5 651,-147.5 651,-128.5 450,-128.5"/>
<text text-anchor="middle" x="550.5" y="-135.5" font-family="Helvetica,sans-Serif" font-size="10.00">beseenium.view.URLHandler.shutdown</text>
</a>
</g>
</g>
<!-- Node5&#45;&gt;Node8 -->
<g id="edge7" class="edge"><title>Node5&#45;&gt;Node8</title>
<path fill="none" stroke="midnightblue" d="M424.066,-138C432.666,-138 441.329,-138 449.867,-138"/>
<polygon fill="midnightblue" stroke="midnightblue" points="424.01,-134.5 414.01,-138 424.01,-141.5 424.01,-134.5"/>
</g>
<!-- Node7 -->
<g id="node7" class="node"><title>Node7</title>
<g id="a_node7"><a xlink:href="a00114.html#ade06e27882a65a5fc8e93a3292cd12b6" target="_top" xlink:title="beseenium.view.outputHandlers.request\lHandlers.executeHandlers.RootExecuteHandler.handle\lRequest">
<polygon fill="white" stroke="black" points="687,-0.5 687,-41.5 966,-41.5 966,-0.5 687,-0.5"/>
<text text-anchor="start" x="695" y="-29.5" font-family="Helvetica,sans-Serif" font-size="10.00">beseenium.view.outputHandlers.request</text>
<text text-anchor="start" x="695" y="-18.5" font-family="Helvetica,sans-Serif" font-size="10.00">Handlers.executeHandlers.RootExecuteHandler.handle</text>
<text text-anchor="middle" x="826.5" y="-7.5" font-family="Helvetica,sans-Serif" font-size="10.00">Request</text>
</a>
</g>
</g>
<!-- Node6&#45;&gt;Node7 -->
<g id="edge6" class="edge"><title>Node6&#45;&gt;Node7</title>
<path fill="none" stroke="midnightblue" d="M645.446,-53.1995C666.487,-49.4366 689.037,-45.404 710.813,-41.5097"/>
<polygon fill="midnightblue" stroke="midnightblue" points="644.799,-49.7596 635.571,-54.9654 646.031,-56.6503 644.799,-49.7596"/>
</g>
<!-- Node8&#45;&gt;Node3 -->
<g id="edge13" class="edge"><title>Node8&#45;&gt;Node3</title>
<path fill="none" stroke="midnightblue" d="M583.522,-151.314C610.674,-162.181 650.856,-177.277 687,-187 701.511,-190.904 717.043,-194.374 732.268,-197.395"/>
<polygon fill="midnightblue" stroke="midnightblue" points="584.722,-148.024 574.14,-147.519 582.098,-154.513 584.722,-148.024"/>
</g>
<!-- Node8&#45;&gt;Node4 -->
<g id="edge8" class="edge"><title>Node8&#45;&gt;Node4</title>
<path fill="none" stroke="midnightblue" d="M580.811,-124.331C607.74,-112.575 649.103,-96.5141 687,-90 809.208,-68.9939 843.733,-69.3431 966,-90 1009.27,-97.3105 1057.08,-116.661 1083.53,-128.44"/>
<polygon fill="midnightblue" stroke="midnightblue" points="579.288,-121.177 571.576,-128.441 582.135,-127.572 579.288,-121.177"/>
</g>
<!-- Node9 -->
<g id="node9" class="node"><title>Node9</title>
<g id="a_node9"><a xlink:href="a00123.html#ae0ec35bbb8622775c22687d68a8a830d" target="_top" xlink:title="takes an input from servlet(via handleURL method) in the form of string &#39;get&#39; URL parameter &#39;capabili...">
<polygon fill="white" stroke="black" points="732.5,-148 732.5,-178 920.5,-178 920.5,-148 732.5,-148"/>
<text text-anchor="start" x="740.5" y="-166" font-family="Helvetica,sans-Serif" font-size="10.00">beseenium.view.URLHandler.handle</text>
<text text-anchor="middle" x="826.5" y="-155" font-family="Helvetica,sans-Serif" font-size="10.00">Capabilities</text>
</a>
</g>
</g>
<!-- Node8&#45;&gt;Node9 -->
<g id="edge9" class="edge"><title>Node8&#45;&gt;Node9</title>
<path fill="none" stroke="midnightblue" d="M661.208,-148.01C684.751,-150.158 709.414,-152.408 732.263,-154.493"/>
<polygon fill="midnightblue" stroke="midnightblue" points="661.472,-144.519 651.195,-147.096 660.836,-151.491 661.472,-144.519"/>
</g>
<!-- Node10 -->
<g id="node10" class="node"><title>Node10</title>
<g id="a_node10"><a xlink:href="a00123.html#a7696fb55c864a910283e742115b7ed15" target="_top" xlink:title="takes an input from servlet(via handleURL method) in the form of string &#39;get&#39; URL parameter &#39;browser&#39;...">
<polygon fill="white" stroke="black" points="732.5,-99 732.5,-129 920.5,-129 920.5,-99 732.5,-99"/>
<text text-anchor="start" x="740.5" y="-117" font-family="Helvetica,sans-Serif" font-size="10.00">beseenium.view.URLHandler.handle</text>
<text text-anchor="middle" x="826.5" y="-106" font-family="Helvetica,sans-Serif" font-size="10.00">Browser</text>
</a>
</g>
</g>
<!-- Node8&#45;&gt;Node10 -->
<g id="edge11" class="edge"><title>Node8&#45;&gt;Node10</title>
<path fill="none" stroke="midnightblue" d="M661.208,-128.391C684.751,-126.328 709.414,-124.168 732.263,-122.167"/>
<polygon fill="midnightblue" stroke="midnightblue" points="660.852,-124.908 651.195,-129.268 661.463,-131.882 660.852,-124.908"/>
</g>
<!-- Node9&#45;&gt;Node4 -->
<g id="edge10" class="edge"><title>Node9&#45;&gt;Node4</title>
<path fill="none" stroke="midnightblue" d="M930.899,-153.651C954.044,-151.558 978.584,-149.34 1001.68,-147.251"/>
<polygon fill="midnightblue" stroke="midnightblue" points="930.369,-150.185 920.725,-154.571 930.999,-157.156 930.369,-150.185"/>
</g>
<!-- Node10&#45;&gt;Node4 -->
<g id="edge12" class="edge"><title>Node10&#45;&gt;Node4</title>
<path fill="none" stroke="midnightblue" d="M930.899,-122.975C954.044,-124.984 978.584,-127.114 1001.68,-129.119"/>
<polygon fill="midnightblue" stroke="midnightblue" points="930.99,-119.47 920.725,-122.092 930.385,-126.444 930.99,-119.47"/>
</g>
</g>
</svg>
