<?xml version="1.0" encoding="UTF-8" standalone="no"?>
<!DOCTYPE svg PUBLIC "-//W3C//DTD SVG 1.1//EN"
 "http://www.w3.org/Graphics/SVG/1.1/DTD/svg11.dtd">
<!-- Generated by graphviz version 2.38.0 (20140413.2041)
 -->
<!-- Title: beseenium.view.inputHandlers.InputHandler.handleExecuteRequest Pages: 1 -->
<svg width="589pt" height="39pt"
 viewBox="0.00 0.00 589.00 39.00" xmlns="http://www.w3.org/2000/svg" xmlns:xlink="http://www.w3.org/1999/xlink">
<g id="graph0" class="graph" transform="scale(1 1) rotate(0) translate(4 35)">
<title>beseenium.view.inputHandlers.InputHandler.handleExecuteRequest</title>
<polygon fill="white" stroke="none" points="-4,4 -4,-35 585,-35 585,4 -4,4"/>
<!-- Node1 -->
<g id="node1" class="node"><title>Node1</title>
<polygon fill="#bfbfbf" stroke="black" points="0,-0.5 0,-30.5 191,-30.5 191,-0.5 0,-0.5"/>
<text text-anchor="start" x="8" y="-18.5" font-family="Helvetica,sans-Serif" font-size="10.00">beseenium.view.inputHandlers.</text>
<text text-anchor="middle" x="95.5" y="-7.5" font-family="Helvetica,sans-Serif" font-size="10.00">InputHandler.handleExecuteRequest</text>
</g>
<!-- Node2 -->
<g id="node2" class="node"><title>Node2</title>
<g id="a_node2"><a xlink:href="a00064.html#aa848fb1b618af2cdb2e61d296ba55dad" target="_top" xlink:title="Generates a map of string descriptors to requests from the given parameters, ending with a request to...">
<polygon fill="white" stroke="black" points="227,-0.5 227,-30.5 393,-30.5 393,-0.5 227,-0.5"/>
<text text-anchor="start" x="235" y="-18.5" font-family="Helvetica,sans-Serif" font-size="10.00">beseenium.view.inputHandlers.</text>
<text text-anchor="middle" x="310" y="-7.5" font-family="Helvetica,sans-Serif" font-size="10.00">InputHandler.handleInput</text>
</a>
</g>
</g>
<!-- Node1&#45;&gt;Node2 -->
<g id="edge1" class="edge"><title>Node1&#45;&gt;Node2</title>
<path fill="none" stroke="midnightblue" d="M201.277,-15.5C209.833,-15.5 218.401,-15.5 226.761,-15.5"/>
<polygon fill="midnightblue" stroke="midnightblue" points="201.253,-12.0001 191.253,-15.5 201.253,-19.0001 201.253,-12.0001"/>
</g>
<!-- Node3 -->
<g id="node3" class="node"><title>Node3</title>
<g id="a_node3"><a xlink:href="a00033.html#abfe1e13814420a006f1dc1d230260ed6" target="_top" xlink:title="Logger. ">
<polygon fill="white" stroke="black" points="429,-0.5 429,-30.5 581,-30.5 581,-0.5 429,-0.5"/>
<text text-anchor="start" x="437" y="-18.5" font-family="Helvetica,sans-Serif" font-size="10.00">beseenium.view.BeSeenium</text>
<text text-anchor="middle" x="505" y="-7.5" font-family="Helvetica,sans-Serif" font-size="10.00">Servlet.doGet</text>
</a>
</g>
</g>
<!-- Node2&#45;&gt;Node3 -->
<g id="edge2" class="edge"><title>Node2&#45;&gt;Node3</title>
<path fill="none" stroke="midnightblue" d="M403.225,-15.5C411.857,-15.5 420.535,-15.5 428.982,-15.5"/>
<polygon fill="midnightblue" stroke="midnightblue" points="403.129,-12.0001 393.129,-15.5 403.129,-19.0001 403.129,-12.0001"/>
</g>
</g>
</svg>
