<?xml version="1.0" encoding="UTF-8" standalone="no"?>
<!DOCTYPE svg PUBLIC "-//W3C//DTD SVG 1.1//EN"
 "http://www.w3.org/Graphics/SVG/1.1/DTD/svg11.dtd">
<!-- Generated by graphviz version 2.38.0 (20140413.2041)
 -->
<!-- Title: beseenium.model.action.AbstractAction.getActionData Pages: 1 -->
<svg width="1463pt" height="269pt"
 viewBox="0.00 0.00 1463.00 269.44" xmlns="http://www.w3.org/2000/svg" xmlns:xlink="http://www.w3.org/1999/xlink">
<g id="graph0" class="graph" transform="scale(1 1) rotate(0) translate(4 265.436)">
<title>beseenium.model.action.AbstractAction.getActionData</title>
<polygon fill="white" stroke="none" points="-4,4 -4,-265.436 1459,-265.436 1459,4 -4,4"/>
<!-- Node1 -->
<g id="node1" class="node"><title>Node1</title>
<polygon fill="#bfbfbf" stroke="black" points="0,-71.4362 0,-101.436 179,-101.436 179,-71.4362 0,-71.4362"/>
<text text-anchor="start" x="8" y="-89.4362" font-family="Helvetica,sans-Serif" font-size="10.00">beseenium.model.action.Abstract</text>
<text text-anchor="middle" x="89.5" y="-78.4362" font-family="Helvetica,sans-Serif" font-size="10.00">Action.getActionData</text>
</g>
<!-- Node2 -->
<g id="node2" class="node"><title>Node2</title>
<g id="a_node2"><a xlink:href="a00024.html#abd8f9cf7dc1cf8d14b0334d7b0fe633f" target="_top" xlink:title="iterates through the commands stored in the list and executes ">
<polygon fill="white" stroke="black" points="215,-76.9362 215,-95.9362 427,-95.9362 427,-76.9362 215,-76.9362"/>
<text text-anchor="middle" x="321" y="-83.9362" font-family="Helvetica,sans-Serif" font-size="10.00">beseenium.model.ActionInvoker.execute</text>
</a>
</g>
</g>
<!-- Node1&#45;&gt;Node2 -->
<g id="edge1" class="edge"><title>Node1&#45;&gt;Node2</title>
<path fill="none" stroke="midnightblue" d="M189.376,-86.4362C197.749,-86.4362 206.238,-86.4362 214.659,-86.4362"/>
<polygon fill="midnightblue" stroke="midnightblue" points="189.231,-82.9363 179.231,-86.4362 189.231,-89.9363 189.231,-82.9363"/>
</g>
<!-- Node3 -->
<g id="node3" class="node"><title>Node3</title>
<g id="a_node3"><a xlink:href="a00124.html#a30550c4174a00b79dcb3c09b37eb925f" target="_top" xlink:title="remove all actions from this test and close the browser instance associated with it. ">
<polygon fill="white" stroke="black" points="463,-107.436 463,-137.436 661,-137.436 661,-107.436 463,-107.436"/>
<text text-anchor="start" x="471" y="-125.436" font-family="Helvetica,sans-Serif" font-size="10.00">beseenium.controller.Test.emergency</text>
<text text-anchor="middle" x="562" y="-114.436" font-family="Helvetica,sans-Serif" font-size="10.00">Shutdown</text>
</a>
</g>
</g>
<!-- Node2&#45;&gt;Node3 -->
<g id="edge2" class="edge"><title>Node2&#45;&gt;Node3</title>
<path fill="none" stroke="midnightblue" d="M395.067,-97.4421C416.43,-100.66 440.137,-104.231 462.79,-107.643"/>
<polygon fill="midnightblue" stroke="midnightblue" points="395.517,-93.9704 385.107,-95.9418 394.474,-100.892 395.517,-93.9704"/>
</g>
<!-- Node11 -->
<g id="node11" class="node"><title>Node11</title>
<g id="a_node11"><a xlink:href="a00124.html#a314a83d197e751b5927b1e060f111e0d" target="_top" xlink:title="executes all actions in this test, in the sequence they were added ">
<polygon fill="white" stroke="black" points="471,-36.4362 471,-66.4362 653,-66.4362 653,-36.4362 471,-36.4362"/>
<text text-anchor="start" x="479" y="-54.4362" font-family="Helvetica,sans-Serif" font-size="10.00">beseenium.controller.Test.execute</text>
<text text-anchor="middle" x="562" y="-43.4362" font-family="Helvetica,sans-Serif" font-size="10.00">Actions</text>
</a>
</g>
</g>
<!-- Node2&#45;&gt;Node11 -->
<g id="edge13" class="edge"><title>Node2&#45;&gt;Node11</title>
<path fill="none" stroke="midnightblue" d="M397.19,-75.4251C420.583,-71.9993 446.616,-68.187 470.918,-64.6281"/>
<polygon fill="midnightblue" stroke="midnightblue" points="396.379,-72.0064 386.992,-76.9185 397.394,-78.9325 396.379,-72.0064"/>
</g>
<!-- Node4 -->
<g id="node4" class="node"><title>Node4</title>
<g id="a_node4"><a xlink:href="a00040.html#a2413846626263a20383c8341d7dd2e47" target="_top" xlink:title="in case something goes wrong the test should be able to shut down the current browser instance...">
<polygon fill="white" stroke="black" points="703.5,-200.436 703.5,-230.436 891.5,-230.436 891.5,-200.436 703.5,-200.436"/>
<text text-anchor="start" x="711.5" y="-218.436" font-family="Helvetica,sans-Serif" font-size="10.00">beseenium.view.helpers.Emergency</text>
<text text-anchor="middle" x="797.5" y="-207.436" font-family="Helvetica,sans-Serif" font-size="10.00">Shutdown.execute</text>
</a>
</g>
</g>
<!-- Node3&#45;&gt;Node4 -->
<g id="edge3" class="edge"><title>Node3&#45;&gt;Node4</title>
<path fill="none" stroke="midnightblue" d="M610.34,-141.291C654.126,-158.73 718.361,-184.314 758.779,-200.412"/>
<polygon fill="midnightblue" stroke="midnightblue" points="611.361,-137.93 600.775,-137.482 608.77,-144.433 611.361,-137.93"/>
</g>
<!-- Node6 -->
<g id="node6" class="node"><title>Node6</title>
<g id="a_node6"><a xlink:href="a00126.html#ab3a029a7ca30c5f8a0344c4634b9daf0" target="_top" xlink:title="in case something goes wrong the test should be able to shut down the current browser instance...">
<polygon fill="white" stroke="black" points="697,-112.936 697,-131.936 898,-131.936 898,-112.936 697,-112.936"/>
<text text-anchor="middle" x="797.5" y="-119.936" font-family="Helvetica,sans-Serif" font-size="10.00">beseenium.view.URLHandler.shutdown</text>
</a>
</g>
</g>
<!-- Node3&#45;&gt;Node6 -->
<g id="edge5" class="edge"><title>Node3&#45;&gt;Node6</title>
<path fill="none" stroke="midnightblue" d="M671.066,-122.436C679.666,-122.436 688.329,-122.436 696.867,-122.436"/>
<polygon fill="midnightblue" stroke="midnightblue" points="671.01,-118.936 661.01,-122.436 671.01,-125.936 671.01,-118.936"/>
</g>
<!-- Node5 -->
<g id="node5" class="node"><title>Node5</title>
<g id="a_node5"><a xlink:href="a00117.html#ade06e27882a65a5fc8e93a3292cd12b6" target="_top" xlink:title="beseenium.view.outputHandlers.request\lHandlers.executeHandlers.RootExecuteHandler.handle\lRequest">
<polygon fill="white" stroke="black" points="934,-219.936 934,-260.936 1213,-260.936 1213,-219.936 934,-219.936"/>
<text text-anchor="start" x="942" y="-248.936" font-family="Helvetica,sans-Serif" font-size="10.00">beseenium.view.outputHandlers.request</text>
<text text-anchor="start" x="942" y="-237.936" font-family="Helvetica,sans-Serif" font-size="10.00">Handlers.executeHandlers.RootExecuteHandler.handle</text>
<text text-anchor="middle" x="1073.5" y="-226.936" font-family="Helvetica,sans-Serif" font-size="10.00">Request</text>
</a>
</g>
</g>
<!-- Node4&#45;&gt;Node5 -->
<g id="edge4" class="edge"><title>Node4&#45;&gt;Node5</title>
<path fill="none" stroke="midnightblue" d="M901.671,-224.85C912.228,-225.813 923.07,-226.802 933.926,-227.793"/>
<polygon fill="midnightblue" stroke="midnightblue" points="901.923,-221.358 891.646,-223.935 901.287,-228.329 901.923,-221.358"/>
</g>
<!-- Node7 -->
<g id="node7" class="node"><title>Node7</title>
<g id="a_node7"><a xlink:href="a00126.html#a5d57a46df8465d2c40f22fd8cb037c9c" target="_top" xlink:title="takes the URL parameters passed to it from the BeSeeniumServlet and uses it to populate and run a Tes...">
<polygon fill="white" stroke="black" points="1249,-88.9362 1249,-107.936 1455,-107.936 1455,-88.9362 1249,-88.9362"/>
<text text-anchor="middle" x="1352" y="-95.9362" font-family="Helvetica,sans-Serif" font-size="10.00">beseenium.view.URLHandler.handleURL</text>
</a>
</g>
</g>
<!-- Node6&#45;&gt;Node7 -->
<g id="edge6" class="edge"><title>Node6&#45;&gt;Node7</title>
<path fill="none" stroke="midnightblue" d="M827.314,-136.181C854.208,-148.198 895.816,-164.744 934,-171.436 1056.14,-192.842 1092.65,-201.307 1213,-171.436 1262.98,-159.031 1314.79,-124.828 1338.18,-108.017"/>
<polygon fill="midnightblue" stroke="midnightblue" points="828.656,-132.946 818.104,-131.985 825.753,-139.316 828.656,-132.946"/>
</g>
<!-- Node8 -->
<g id="node8" class="node"><title>Node8</title>
<g id="a_node8"><a xlink:href="a00126.html#ae0ec35bbb8622775c22687d68a8a830d" target="_top" xlink:title="takes an input from servlet(via handleURL method) in the form of string &#39;get&#39; URL parameter &#39;capabili...">
<polygon fill="white" stroke="black" points="979.5,-132.436 979.5,-162.436 1167.5,-162.436 1167.5,-132.436 979.5,-132.436"/>
<text text-anchor="start" x="987.5" y="-150.436" font-family="Helvetica,sans-Serif" font-size="10.00">beseenium.view.URLHandler.handle</text>
<text text-anchor="middle" x="1073.5" y="-139.436" font-family="Helvetica,sans-Serif" font-size="10.00">Capabilities</text>
</a>
</g>
</g>
<!-- Node6&#45;&gt;Node8 -->
<g id="edge7" class="edge"><title>Node6&#45;&gt;Node8</title>
<path fill="none" stroke="midnightblue" d="M908.208,-132.446C931.751,-134.594 956.414,-136.844 979.263,-138.929"/>
<polygon fill="midnightblue" stroke="midnightblue" points="908.472,-128.956 898.195,-131.532 907.836,-135.927 908.472,-128.956"/>
</g>
<!-- Node9 -->
<g id="node9" class="node"><title>Node9</title>
<g id="a_node9"><a xlink:href="a00126.html#a7696fb55c864a910283e742115b7ed15" target="_top" xlink:title="takes an input from servlet(via handleURL method) in the form of string &#39;get&#39; URL parameter &#39;browser&#39;...">
<polygon fill="white" stroke="black" points="979.5,-83.4362 979.5,-113.436 1167.5,-113.436 1167.5,-83.4362 979.5,-83.4362"/>
<text text-anchor="start" x="987.5" y="-101.436" font-family="Helvetica,sans-Serif" font-size="10.00">beseenium.view.URLHandler.handle</text>
<text text-anchor="middle" x="1073.5" y="-90.4362" font-family="Helvetica,sans-Serif" font-size="10.00">Browser</text>
</a>
</g>
</g>
<!-- Node6&#45;&gt;Node9 -->
<g id="edge9" class="edge"><title>Node6&#45;&gt;Node9</title>
<path fill="none" stroke="midnightblue" d="M908.208,-112.827C931.751,-110.765 956.414,-108.604 979.263,-106.603"/>
<polygon fill="midnightblue" stroke="midnightblue" points="907.852,-109.344 898.195,-113.704 908.463,-116.318 907.852,-109.344"/>
</g>
<!-- Node10 -->
<g id="node10" class="node"><title>Node10</title>
<g id="a_node10"><a xlink:href="a00126.html#aa2ec4a8ab58fee50c2a0a4ace58fd981" target="_top" xlink:title="takes an input from servlet(via handleURL method) in the form of string &#39;get&#39; URL parameter &#39;addActio...">
<polygon fill="white" stroke="black" points="979.5,-34.4362 979.5,-64.4362 1167.5,-64.4362 1167.5,-34.4362 979.5,-34.4362"/>
<text text-anchor="start" x="987.5" y="-52.4362" font-family="Helvetica,sans-Serif" font-size="10.00">beseenium.view.URLHandler.handle</text>
<text text-anchor="middle" x="1073.5" y="-41.4362" font-family="Helvetica,sans-Serif" font-size="10.00">AddActions</text>
</a>
</g>
</g>
<!-- Node6&#45;&gt;Node10 -->
<g id="edge11" class="edge"><title>Node6&#45;&gt;Node10</title>
<path fill="none" stroke="midnightblue" d="M831.525,-109.043C858.675,-98.4457 898.339,-83.9044 934,-74.4362 948.524,-70.5801 964.062,-67.134 979.29,-64.1233"/>
<polygon fill="midnightblue" stroke="midnightblue" points="830.139,-105.827 822.12,-112.752 832.707,-112.339 830.139,-105.827"/>
</g>
<!-- Node8&#45;&gt;Node7 -->
<g id="edge8" class="edge"><title>Node8&#45;&gt;Node7</title>
<path fill="none" stroke="midnightblue" d="M1169.21,-130.652C1211.97,-123.075 1260.91,-114.401 1297.24,-107.964"/>
<polygon fill="midnightblue" stroke="midnightblue" points="1168.57,-127.21 1159.34,-132.402 1169.8,-134.103 1168.57,-127.21"/>
</g>
<!-- Node9&#45;&gt;Node7 -->
<g id="edge10" class="edge"><title>Node9&#45;&gt;Node7</title>
<path fill="none" stroke="midnightblue" d="M1177.9,-98.4362C1201.04,-98.4362 1225.58,-98.4362 1248.68,-98.4362"/>
<polygon fill="midnightblue" stroke="midnightblue" points="1177.72,-94.9363 1167.72,-98.4362 1177.72,-101.936 1177.72,-94.9363"/>
</g>
<!-- Node10&#45;&gt;Node7 -->
<g id="edge12" class="edge"><title>Node10&#45;&gt;Node7</title>
<path fill="none" stroke="midnightblue" d="M1169.21,-66.2199C1211.97,-73.7971 1260.91,-82.4709 1297.24,-88.9082"/>
<polygon fill="midnightblue" stroke="midnightblue" points="1169.8,-62.7695 1159.34,-64.4708 1168.57,-69.6621 1169.8,-62.7695"/>
</g>
<!-- Node11&#45;&gt;Node7 -->
<g id="edge14" class="edge"><title>Node11&#45;&gt;Node7</title>
<path fill="none" stroke="midnightblue" d="M641.294,-34.3841C764.867,-10.5526 1011.77,24.5102 1213,-25.4362 1262.98,-37.8414 1314.79,-72.0441 1338.18,-88.8553"/>
<polygon fill="midnightblue" stroke="midnightblue" points="640.31,-31.0102 631.168,-36.3653 641.654,-37.8799 640.31,-31.0102"/>
</g>
</g>
</svg>
