<?xml version="1.0" encoding="UTF-8" standalone="no"?>
<!DOCTYPE svg PUBLIC "-//W3C//DTD SVG 1.1//EN"
 "http://www.w3.org/Graphics/SVG/1.1/DTD/svg11.dtd">
<!-- Generated by graphviz version 2.38.0 (20140413.2041)
 -->
<!-- Title: beseenium.view.inputHandlers.requests.AbstractTestRequest.executeRequest Pages: 1 -->
<!--zoomable 995 -->
<svg id="main" version="1.1" xmlns="http://www.w3.org/2000/svg" xmlns:xlink="http://www.w3.org/1999/xlink" xml:space="preserve" onload="init(evt)">
<style type="text/css"><![CDATA[
.edge:hover path { stroke: red; }
.edge:hover polygon { stroke: red; fill: red; }
]]></style>
<script type="text/javascript"><![CDATA[
var edges = document.getElementsByTagName('g');
if (edges && edges.length) {
  for (var i=0;i<edges.length;i++) {
    if (edges[i].id.substr(0,4)=='edge') {
      edges[i].setAttribute('class','edge');
    }
  }
}
]]></script>
        <defs>
                <circle id="rim" cx="0" cy="0" r="7"/>
                <circle id="rim2" cx="0" cy="0" r="3.5"/>
                <g id="zoomPlus">
                        <use xlink:href="#rim" fill="#404040">
                                <set attributeName="fill" to="#808080" begin="zoomplus.mouseover" end="zoomplus.mouseout"/>
                        </use>
                        <path d="M-4,0h8M0,-4v8" fill="none" stroke="white" stroke-width="1.5" pointer-events="none"/>
                </g>
                <g id="zoomMin">
                        <use xlink:href="#rim" fill="#404040">
                                <set attributeName="fill" to="#808080" begin="zoomminus.mouseover" end="zoomminus.mouseout"/>
                        </use>
                        <path d="M-4,0h8" fill="none" stroke="white" stroke-width="1.5" pointer-events="none"/>
                </g>
                <g id="dirArrow">
                        <path fill="none" stroke="white" stroke-width="1.5" d="M0,-3.0v7 M-2.5,-0.5L0,-3.0L2.5,-0.5"/>
                </g>
               <g id="resetDef">
                       <use xlink:href="#rim2" fill="#404040">
                               <set attributeName="fill" to="#808080" begin="reset.mouseover" end="reset.mouseout"/>
                       </use>
               </g>
        </defs>

<script type="text/javascript">
var viewWidth = 816;
var viewHeight = 995;
var sectionId = 'dynsection-2';
</script>
<script xlink:href="svgpan.js"/>
<svg id="graph" class="graph">
<g id="viewport">
<title>beseenium.view.inputHandlers.requests.AbstractTestRequest.executeRequest</title>
<polygon fill="white" stroke="none" points="-4,4 -4,-990.889 812,-990.889 812,4 -4,4"/>
<!-- Node1 -->
<g id="node1" class="node"><title>Node1</title>
<polygon fill="#bfbfbf" stroke="black" points="0,-472 0,-502 211,-502 211,-472 0,-472"/>
<text text-anchor="start" x="8" y="-490" font-family="Helvetica,sans-Serif" font-size="10.00">beseenium.view.inputHandlers.requests.</text>
<text text-anchor="middle" x="105.5" y="-479" font-family="Helvetica,sans-Serif" font-size="10.00">AbstractTestRequest.executeRequest</text>
</g>
<!-- Node2 -->
<g id="node2" class="node"><title>Node2</title>
<g id="a_node2"><a xlink:href="a00109.html#a537d1204c72fa2f5ebe87df895710427" target="_top" xlink:title="beseenium.view.outputHandlers.request\lHandlers.browserHandlers.RootBrowserHandler.handle\lRequest">
<polygon fill="white" stroke="black" points="529.5,-888.5 529.5,-929.5 807.5,-929.5 807.5,-888.5 529.5,-888.5"/>
<text text-anchor="start" x="537.5" y="-917.5" font-family="Helvetica,sans-Serif" font-size="10.00">beseenium.view.outputHandlers.request</text>
<text text-anchor="start" x="537.5" y="-906.5" font-family="Helvetica,sans-Serif" font-size="10.00">Handlers.browserHandlers.RootBrowserHandler.handle</text>
<text text-anchor="middle" x="668.5" y="-895.5" font-family="Helvetica,sans-Serif" font-size="10.00">Request</text>
</a>
</g>
</g>
<!-- Node1&#45;&gt;Node2 -->
<g id="edge1" class="edge"><title>Node1&#45;&gt;Node2</title>
<path fill="none" stroke="midnightblue" d="M110.288,-512.243C124.063,-600.298 174.524,-891.424 247,-945 360.862,-1029.17 542.44,-965.749 624.615,-929.6"/>
<polygon fill="midnightblue" stroke="midnightblue" points="113.706,-511.443 108.723,-502.093 106.788,-512.51 113.706,-511.443"/>
</g>
<!-- Node3 -->
<g id="node3" class="node"><title>Node3</title>
<g id="a_node3"><a xlink:href="a00019.html#aa27f7e51a6430555eb7e50f0245d45e6" target="_top" xlink:title="beseenium.view.outputHandlers.request\lHandlers.addActionHandlers.ActionNumber\lFormatHandler.handleRequest">
<polygon fill="white" stroke="black" points="257.5,-894.5 257.5,-935.5 482.5,-935.5 482.5,-894.5 257.5,-894.5"/>
<text text-anchor="start" x="265.5" y="-923.5" font-family="Helvetica,sans-Serif" font-size="10.00">beseenium.view.outputHandlers.request</text>
<text text-anchor="start" x="265.5" y="-912.5" font-family="Helvetica,sans-Serif" font-size="10.00">Handlers.addActionHandlers.ActionNumber</text>
<text text-anchor="middle" x="370" y="-901.5" font-family="Helvetica,sans-Serif" font-size="10.00">FormatHandler.handleRequest</text>
</a>
</g>
</g>
<!-- Node1&#45;&gt;Node3 -->
<g id="edge2" class="edge"><title>Node1&#45;&gt;Node3</title>
<path fill="none" stroke="midnightblue" d="M107.533,-512.574C111.822,-583.2 133.873,-782.474 247,-885 250.879,-888.515 255.103,-891.635 259.573,-894.403"/>
<polygon fill="midnightblue" stroke="midnightblue" points="111.017,-512.176 106.986,-502.378 104.027,-512.551 111.017,-512.176"/>
</g>
<!-- Node4 -->
<g id="node4" class="node"><title>Node4</title>
<g id="a_node4"><a xlink:href="a00108.html#a24658ebd56efcdec6f8928a733235c2b" target="_top" xlink:title="beseenium.view.outputHandlers.request\lHandlers.addActionHandlers.RootAddActions\lHandler.handleRequest">
<polygon fill="white" stroke="black" points="552.5,-689.5 552.5,-730.5 784.5,-730.5 784.5,-689.5 552.5,-689.5"/>
<text text-anchor="start" x="560.5" y="-718.5" font-family="Helvetica,sans-Serif" font-size="10.00">beseenium.view.outputHandlers.request</text>
<text text-anchor="start" x="560.5" y="-707.5" font-family="Helvetica,sans-Serif" font-size="10.00">Handlers.addActionHandlers.RootAddActions</text>
<text text-anchor="middle" x="668.5" y="-696.5" font-family="Helvetica,sans-Serif" font-size="10.00">Handler.handleRequest</text>
</a>
</g>
</g>
<!-- Node1&#45;&gt;Node4 -->
<g id="edge3" class="edge"><title>Node1&#45;&gt;Node4</title>
<path fill="none" stroke="midnightblue" d="M117.455,-511.316C137.021,-551.558 182.094,-631.122 247,-667 273.232,-681.5 437.243,-695.006 552.492,-702.881"/>
<polygon fill="midnightblue" stroke="midnightblue" points="120.585,-509.747 113.139,-502.21 114.259,-512.745 120.585,-509.747"/>
</g>
<!-- Node5 -->
<g id="node5" class="node"><title>Node5</title>
<g id="a_node5"><a xlink:href="a00099.html#aca31daa372b63af3d1a0f94b034c8d07" target="_top" xlink:title="beseenium.view.outputHandlers.request\lHandlers.addActionHandlers.NoActionParam\lHandler.handleRequest">
<polygon fill="white" stroke="black" points="254.5,-774.5 254.5,-815.5 485.5,-815.5 485.5,-774.5 254.5,-774.5"/>
<text text-anchor="start" x="262.5" y="-803.5" font-family="Helvetica,sans-Serif" font-size="10.00">beseenium.view.outputHandlers.request</text>
<text text-anchor="start" x="262.5" y="-792.5" font-family="Helvetica,sans-Serif" font-size="10.00">Handlers.addActionHandlers.NoActionParam</text>
<text text-anchor="middle" x="370" y="-781.5" font-family="Helvetica,sans-Serif" font-size="10.00">Handler.handleRequest</text>
</a>
</g>
</g>
<!-- Node1&#45;&gt;Node5 -->
<g id="edge4" class="edge"><title>Node1&#45;&gt;Node5</title>
<path fill="none" stroke="midnightblue" d="M111.727,-512.064C124.514,-566.894 162.689,-697.932 247,-765 251.438,-768.53 256.233,-771.653 261.267,-774.415"/>
<polygon fill="midnightblue" stroke="midnightblue" points="115.108,-511.146 109.502,-502.156 108.278,-512.68 115.108,-511.146"/>
</g>
<!-- Node6 -->
<g id="node6" class="node"><title>Node6</title>
<g id="a_node6"><a xlink:href="a00111.html#ade06e27882a65a5fc8e93a3292cd12b6" target="_top" xlink:title="beseenium.view.outputHandlers.request\lHandlers.executeHandlers.RootExecuteHandler.handle\lRequest">
<polygon fill="white" stroke="black" points="529,-321.5 529,-362.5 808,-362.5 808,-321.5 529,-321.5"/>
<text text-anchor="start" x="537" y="-350.5" font-family="Helvetica,sans-Serif" font-size="10.00">beseenium.view.outputHandlers.request</text>
<text text-anchor="start" x="537" y="-339.5" font-family="Helvetica,sans-Serif" font-size="10.00">Handlers.executeHandlers.RootExecuteHandler.handle</text>
<text text-anchor="middle" x="668.5" y="-328.5" font-family="Helvetica,sans-Serif" font-size="10.00">Request</text>
</a>
</g>
</g>
<!-- Node1&#45;&gt;Node6 -->
<g id="edge5" class="edge"><title>Node1&#45;&gt;Node6</title>
<path fill="none" stroke="midnightblue" d="M116.796,-462.564C135.646,-421.439 180.022,-339.686 247,-307 368.465,-247.723 533.263,-292.068 615.843,-321.462"/>
<polygon fill="midnightblue" stroke="midnightblue" points="113.528,-461.299 112.656,-471.858 119.922,-464.148 113.528,-461.299"/>
</g>
<!-- Node7 -->
<g id="node7" class="node"><title>Node7</title>
<g id="a_node7"><a xlink:href="a00100.html#aca98da68efc1fd2391c77ec992841e37" target="_top" xlink:title="beseenium.view.outputHandlers.request\lHandlers.browserHandlers.NoBrowserParam\lHandler.handleRequest">
<polygon fill="white" stroke="black" points="255.5,-834.5 255.5,-875.5 484.5,-875.5 484.5,-834.5 255.5,-834.5"/>
<text text-anchor="start" x="263.5" y="-863.5" font-family="Helvetica,sans-Serif" font-size="10.00">beseenium.view.outputHandlers.request</text>
<text text-anchor="start" x="263.5" y="-852.5" font-family="Helvetica,sans-Serif" font-size="10.00">Handlers.browserHandlers.NoBrowserParam</text>
<text text-anchor="middle" x="370" y="-841.5" font-family="Helvetica,sans-Serif" font-size="10.00">Handler.handleRequest</text>
</a>
</g>
</g>
<!-- Node1&#45;&gt;Node7 -->
<g id="edge6" class="edge"><title>Node1&#45;&gt;Node7</title>
<path fill="none" stroke="midnightblue" d="M109.327,-512.504C117.735,-575.695 148.487,-740.499 247,-825 251.139,-828.55 255.633,-831.693 260.373,-834.474"/>
<polygon fill="midnightblue" stroke="midnightblue" points="112.76,-511.748 108.044,-502.26 105.814,-512.617 112.76,-511.748"/>
</g>
<!-- Node8 -->
<g id="node8" class="node"><title>Node8</title>
<g id="a_node8"><a xlink:href="a00011.html#a362a54f6b9675140da41b0a487befa65" target="_top" xlink:title="beseenium.view.outputHandlers.request\lHandlers.executeHandlers.ActionDataException\lHandler.handleRequest">
<polygon fill="white" stroke="black" points="247,-616.5 247,-657.5 493,-657.5 493,-616.5 247,-616.5"/>
<text text-anchor="start" x="255" y="-645.5" font-family="Helvetica,sans-Serif" font-size="10.00">beseenium.view.outputHandlers.request</text>
<text text-anchor="start" x="255" y="-634.5" font-family="Helvetica,sans-Serif" font-size="10.00">Handlers.executeHandlers.ActionDataException</text>
<text text-anchor="middle" x="370" y="-623.5" font-family="Helvetica,sans-Serif" font-size="10.00">Handler.handleRequest</text>
</a>
</g>
</g>
<!-- Node1&#45;&gt;Node8 -->
<g id="edge8" class="edge"><title>Node1&#45;&gt;Node8</title>
<path fill="none" stroke="midnightblue" d="M126.492,-509.57C151.842,-536.774 198.162,-581.946 247,-607 253.889,-610.534 261.214,-613.665 268.721,-616.437"/>
<polygon fill="midnightblue" stroke="midnightblue" points="128.955,-507.078 119.615,-502.076 123.797,-511.81 128.955,-507.078"/>
</g>
<!-- Node9 -->
<g id="node9" class="node"><title>Node9</title>
<g id="a_node9"><a xlink:href="a00030.html#a2b4802efff90518f2b18c9e5f9df80ab" target="_top" xlink:title="beseenium.view.outputHandlers.request\lHandlers.capabilitiesHandlers.CapsAction\lDataHandler.handleRequest">
<polygon fill="white" stroke="black" points="262.5,-556.5 262.5,-597.5 477.5,-597.5 477.5,-556.5 262.5,-556.5"/>
<text text-anchor="start" x="270.5" y="-585.5" font-family="Helvetica,sans-Serif" font-size="10.00">beseenium.view.outputHandlers.request</text>
<text text-anchor="start" x="270.5" y="-574.5" font-family="Helvetica,sans-Serif" font-size="10.00">Handlers.capabilitiesHandlers.CapsAction</text>
<text text-anchor="middle" x="370" y="-563.5" font-family="Helvetica,sans-Serif" font-size="10.00">DataHandler.handleRequest</text>
</a>
</g>
</g>
<!-- Node1&#45;&gt;Node9 -->
<g id="edge9" class="edge"><title>Node1&#45;&gt;Node9</title>
<path fill="none" stroke="midnightblue" d="M147.094,-506.417C174.795,-519.147 212.569,-535.5 247,-547 257.034,-550.351 267.644,-553.51 278.253,-556.428"/>
<polygon fill="midnightblue" stroke="midnightblue" points="148.283,-503.11 137.738,-502.079 145.338,-509.461 148.283,-503.11"/>
</g>
<!-- Node10 -->
<g id="node10" class="node"><title>Node10</title>
<g id="a_node10"><a xlink:href="a00023.html#a458a7b0bcb9874187aa08928925d4dca" target="_top" xlink:title="beseenium.view.outputHandlers.request\lHandlers.capabilitiesHandlers.BadlyFormed\lCapsStringHandler.handleRequest">
<polygon fill="white" stroke="black" points="258,-496.5 258,-537.5 482,-537.5 482,-496.5 258,-496.5"/>
<text text-anchor="start" x="266" y="-525.5" font-family="Helvetica,sans-Serif" font-size="10.00">beseenium.view.outputHandlers.request</text>
<text text-anchor="start" x="266" y="-514.5" font-family="Helvetica,sans-Serif" font-size="10.00">Handlers.capabilitiesHandlers.BadlyFormed</text>
<text text-anchor="middle" x="370" y="-503.5" font-family="Helvetica,sans-Serif" font-size="10.00">CapsStringHandler.handleRequest</text>
</a>
</g>
</g>
<!-- Node1&#45;&gt;Node10 -->
<g id="edge10" class="edge"><title>Node1&#45;&gt;Node10</title>
<path fill="none" stroke="midnightblue" d="M221.199,-500.108C233.405,-501.503 245.805,-502.921 257.968,-504.311"/>
<polygon fill="midnightblue" stroke="midnightblue" points="221.334,-496.601 211.001,-498.943 220.539,-503.556 221.334,-496.601"/>
</g>
<!-- Node11 -->
<g id="node11" class="node"><title>Node11</title>
<g id="a_node11"><a xlink:href="a00026.html#a7572603b3cb45d35a24b85824726966a" target="_top" xlink:title="beseenium.view.outputHandlers.request\lHandlers.browserHandlers.BrowserAction\lDataHandler.handleRequest">
<polygon fill="white" stroke="black" points="263,-436.5 263,-477.5 477,-477.5 477,-436.5 263,-436.5"/>
<text text-anchor="start" x="271" y="-465.5" font-family="Helvetica,sans-Serif" font-size="10.00">beseenium.view.outputHandlers.request</text>
<text text-anchor="start" x="271" y="-454.5" font-family="Helvetica,sans-Serif" font-size="10.00">Handlers.browserHandlers.BrowserAction</text>
<text text-anchor="middle" x="370" y="-443.5" font-family="Helvetica,sans-Serif" font-size="10.00">DataHandler.handleRequest</text>
</a>
</g>
</g>
<!-- Node1&#45;&gt;Node11 -->
<g id="edge11" class="edge"><title>Node1&#45;&gt;Node11</title>
<path fill="none" stroke="midnightblue" d="M221.033,-473.911C234.884,-472.328 248.987,-470.716 262.712,-469.147"/>
<polygon fill="midnightblue" stroke="midnightblue" points="220.539,-470.444 211.001,-475.057 221.334,-477.399 220.539,-470.444"/>
</g>
<!-- Node12 -->
<g id="node12" class="node"><title>Node12</title>
<g id="a_node12"><a xlink:href="a00022.html#af25be46f6b92935883af21a1153c388d" target="_top" xlink:title="beseenium.view.outputHandlers.request\lHandlers.addActionHandlers.BadlyFormatted\lActionHandler.handleRequest">
<polygon fill="white" stroke="black" points="253.5,-714.5 253.5,-755.5 486.5,-755.5 486.5,-714.5 253.5,-714.5"/>
<text text-anchor="start" x="261.5" y="-743.5" font-family="Helvetica,sans-Serif" font-size="10.00">beseenium.view.outputHandlers.request</text>
<text text-anchor="start" x="261.5" y="-732.5" font-family="Helvetica,sans-Serif" font-size="10.00">Handlers.addActionHandlers.BadlyFormatted</text>
<text text-anchor="middle" x="370" y="-721.5" font-family="Helvetica,sans-Serif" font-size="10.00">ActionHandler.handleRequest</text>
</a>
</g>
</g>
<!-- Node1&#45;&gt;Node12 -->
<g id="edge12" class="edge"><title>Node1&#45;&gt;Node12</title>
<path fill="none" stroke="midnightblue" d="M115.853,-511.455C134.108,-555.885 178.767,-649.88 247,-700 254.725,-705.674 263.347,-710.431 272.339,-714.418"/>
<polygon fill="midnightblue" stroke="midnightblue" points="119.039,-509.998 112.068,-502.019 112.542,-512.604 119.039,-509.998"/>
</g>
<!-- Node13 -->
<g id="node13" class="node"><title>Node13</title>
<g id="a_node13"><a xlink:href="a00121.html#aa9fff98c66a73cc60b278efb284873e3" target="_top" xlink:title="beseenium.view.outputHandlers.request\lHandlers.browserHandlers.WrongBrowserParam\lHandler.handleRequest">
<polygon fill="white" stroke="black" points="247.5,-316.5 247.5,-357.5 492.5,-357.5 492.5,-316.5 247.5,-316.5"/>
<text text-anchor="start" x="255.5" y="-345.5" font-family="Helvetica,sans-Serif" font-size="10.00">beseenium.view.outputHandlers.request</text>
<text text-anchor="start" x="255.5" y="-334.5" font-family="Helvetica,sans-Serif" font-size="10.00">Handlers.browserHandlers.WrongBrowserParam</text>
<text text-anchor="middle" x="370" y="-323.5" font-family="Helvetica,sans-Serif" font-size="10.00">Handler.handleRequest</text>
</a>
</g>
</g>
<!-- Node1&#45;&gt;Node13 -->
<g id="edge14" class="edge"><title>Node1&#45;&gt;Node13</title>
<path fill="none" stroke="midnightblue" d="M126.492,-464.43C151.842,-437.226 198.162,-392.054 247,-367 253.889,-363.466 261.214,-360.335 268.721,-357.563"/>
<polygon fill="midnightblue" stroke="midnightblue" points="123.797,-462.19 119.615,-471.924 128.955,-466.922 123.797,-462.19"/>
</g>
<!-- Node14 -->
<g id="node14" class="node"><title>Node14</title>
<g id="a_node14"><a xlink:href="a00110.html#a9be285cdc69f6c0b03c55c913b76b8fe" target="_top" xlink:title="beseenium.view.outputHandlers.request\lHandlers.capabilitiesHandlers.RootCapabilities\lHandler.handleRequest">
<polygon fill="white" stroke="black" points="549.5,-73.5 549.5,-114.5 787.5,-114.5 787.5,-73.5 549.5,-73.5"/>
<text text-anchor="start" x="557.5" y="-102.5" font-family="Helvetica,sans-Serif" font-size="10.00">beseenium.view.outputHandlers.request</text>
<text text-anchor="start" x="557.5" y="-91.5" font-family="Helvetica,sans-Serif" font-size="10.00">Handlers.capabilitiesHandlers.RootCapabilities</text>
<text text-anchor="middle" x="668.5" y="-80.5" font-family="Helvetica,sans-Serif" font-size="10.00">Handler.handleRequest</text>
</a>
</g>
</g>
<!-- Node1&#45;&gt;Node14 -->
<g id="edge15" class="edge"><title>Node1&#45;&gt;Node14</title>
<path fill="none" stroke="midnightblue" d="M106.308,-461.892C107.283,-389.178 121.254,-177.961 247,-89 293.936,-55.7944 442.284,-65.3398 549.493,-77.6012"/>
<polygon fill="midnightblue" stroke="midnightblue" points="102.808,-461.94 106.247,-471.961 109.808,-461.982 102.808,-461.94"/>
</g>
<!-- Node15 -->
<g id="node15" class="node"><title>Node15</title>
<g id="a_node15"><a xlink:href="a00020.html#a4bd1930e09983515d99e66900e11e3eb" target="_top" xlink:title="beseenium.view.outputHandlers.request\lHandlers.addActionHandlers.AddActionData\lHandler.handleRequest">
<polygon fill="white" stroke="black" points="256,-218.5 256,-259.5 484,-259.5 484,-218.5 256,-218.5"/>
<text text-anchor="start" x="264" y="-247.5" font-family="Helvetica,sans-Serif" font-size="10.00">beseenium.view.outputHandlers.request</text>
<text text-anchor="start" x="264" y="-236.5" font-family="Helvetica,sans-Serif" font-size="10.00">Handlers.addActionHandlers.AddActionData</text>
<text text-anchor="middle" x="370" y="-225.5" font-family="Helvetica,sans-Serif" font-size="10.00">Handler.handleRequest</text>
</a>
</g>
</g>
<!-- Node1&#45;&gt;Node15 -->
<g id="edge16" class="edge"><title>Node1&#45;&gt;Node15</title>
<path fill="none" stroke="midnightblue" d="M115.853,-462.545C134.108,-418.115 178.767,-324.12 247,-274 254.725,-268.326 263.347,-263.569 272.339,-259.582"/>
<polygon fill="midnightblue" stroke="midnightblue" points="112.542,-461.396 112.068,-471.981 119.039,-464.002 112.542,-461.396"/>
</g>
<!-- Node16 -->
<g id="node16" class="node"><title>Node16</title>
<g id="a_node16"><a xlink:href="a00101.html#a7f0e91d95a8cced83a1bd48ca501cc4c" target="_top" xlink:title="beseenium.view.outputHandlers.request\lHandlers.addActionHandlers.NonExistant\lActionHandler.handleRequest">
<polygon fill="white" stroke="black" points="263,-158.5 263,-199.5 477,-199.5 477,-158.5 263,-158.5"/>
<text text-anchor="start" x="271" y="-187.5" font-family="Helvetica,sans-Serif" font-size="10.00">beseenium.view.outputHandlers.request</text>
<text text-anchor="start" x="271" y="-176.5" font-family="Helvetica,sans-Serif" font-size="10.00">Handlers.addActionHandlers.NonExistant</text>
<text text-anchor="middle" x="370" y="-165.5" font-family="Helvetica,sans-Serif" font-size="10.00">ActionHandler.handleRequest</text>
</a>
</g>
</g>
<!-- Node1&#45;&gt;Node16 -->
<g id="edge17" class="edge"><title>Node1&#45;&gt;Node16</title>
<path fill="none" stroke="midnightblue" d="M111.727,-461.936C124.514,-407.106 162.689,-276.068 247,-209 251.865,-205.13 257.158,-201.75 262.725,-198.799"/>
<polygon fill="midnightblue" stroke="midnightblue" points="108.278,-461.32 109.502,-471.844 115.108,-462.854 108.278,-461.32"/>
</g>
<!-- Node17 -->
<g id="node17" class="node"><title>Node17</title>
<g id="a_node17"><a xlink:href="a00015.html#a78c78e335d49ee660b9e9f16324b8a05" target="_top" xlink:title="beseenium.view.outputHandlers.request\lHandlers.executeHandlers.ActionException\lHandler.handleRequest">
<polygon fill="white" stroke="black" points="258.5,-376.5 258.5,-417.5 481.5,-417.5 481.5,-376.5 258.5,-376.5"/>
<text text-anchor="start" x="266.5" y="-405.5" font-family="Helvetica,sans-Serif" font-size="10.00">beseenium.view.outputHandlers.request</text>
<text text-anchor="start" x="266.5" y="-394.5" font-family="Helvetica,sans-Serif" font-size="10.00">Handlers.executeHandlers.ActionException</text>
<text text-anchor="middle" x="370" y="-383.5" font-family="Helvetica,sans-Serif" font-size="10.00">Handler.handleRequest</text>
</a>
</g>
</g>
<!-- Node1&#45;&gt;Node17 -->
<g id="edge18" class="edge"><title>Node1&#45;&gt;Node17</title>
<path fill="none" stroke="midnightblue" d="M147.094,-467.583C174.795,-454.853 212.569,-438.5 247,-427 257.034,-423.649 267.644,-420.49 278.253,-417.572"/>
<polygon fill="midnightblue" stroke="midnightblue" points="145.338,-464.539 137.738,-471.921 148.283,-470.89 145.338,-464.539"/>
</g>
<!-- Node18 -->
<g id="node18" class="node"><title>Node18</title>
<g id="a_node18"><a xlink:href="a00035.html#a9e9792c8e613f1ce45deab1f1d2c5489" target="_top" xlink:title="beseenium.view.outputHandlers.request\lHandlers.capabilitiesHandlers.EmptyCaps\lParamHandler.handleRequest">
<polygon fill="white" stroke="black" points="262,-98.5 262,-139.5 478,-139.5 478,-98.5 262,-98.5"/>
<text text-anchor="start" x="270" y="-127.5" font-family="Helvetica,sans-Serif" font-size="10.00">beseenium.view.outputHandlers.request</text>
<text text-anchor="start" x="270" y="-116.5" font-family="Helvetica,sans-Serif" font-size="10.00">Handlers.capabilitiesHandlers.EmptyCaps</text>
<text text-anchor="middle" x="370" y="-105.5" font-family="Helvetica,sans-Serif" font-size="10.00">ParamHandler.handleRequest</text>
</a>
</g>
</g>
<!-- Node1&#45;&gt;Node18 -->
<g id="edge20" class="edge"><title>Node1&#45;&gt;Node18</title>
<path fill="none" stroke="midnightblue" d="M109.327,-461.496C117.735,-398.305 148.487,-233.501 247,-149 251.553,-145.095 256.535,-141.682 261.802,-138.702"/>
<polygon fill="midnightblue" stroke="midnightblue" points="105.814,-461.383 108.044,-471.74 112.76,-462.252 105.814,-461.383"/>
</g>
<!-- Node19 -->
<g id="node19" class="node"><title>Node19</title>
<g id="a_node19"><a xlink:href="a00096.html#a48c503ff1b0f42d419857d5fcb45050d" target="_top" xlink:title="beseenium.view.outputHandlers.request\lHandlers.capabilitiesHandlers.Malformed\lURLHandler.handleRequest">
<polygon fill="white" stroke="black" points="264,-0.5 264,-41.5 476,-41.5 476,-0.5 264,-0.5"/>
<text text-anchor="start" x="272" y="-29.5" font-family="Helvetica,sans-Serif" font-size="10.00">beseenium.view.outputHandlers.request</text>
<text text-anchor="start" x="272" y="-18.5" font-family="Helvetica,sans-Serif" font-size="10.00">Handlers.capabilitiesHandlers.Malformed</text>
<text text-anchor="middle" x="370" y="-7.5" font-family="Helvetica,sans-Serif" font-size="10.00">URLHandler.handleRequest</text>
</a>
</g>
</g>
<!-- Node1&#45;&gt;Node19 -->
<g id="edge22" class="edge"><title>Node1&#45;&gt;Node19</title>
<path fill="none" stroke="midnightblue" d="M106.95,-461.59C109.677,-387.698 127.946,-170.873 247,-56 252.867,-50.339 259.587,-45.5832 266.79,-41.5892"/>
<polygon fill="midnightblue" stroke="midnightblue" points="103.445,-461.705 106.642,-471.806 110.442,-461.917 103.445,-461.705"/>
</g>
<!-- Node7&#45;&gt;Node2 -->
<g id="edge7" class="edge"><title>Node7&#45;&gt;Node2</title>
<path fill="none" stroke="midnightblue" d="M493.81,-877.367C514.036,-881.05 534.913,-884.853 554.874,-888.488"/>
<polygon fill="midnightblue" stroke="midnightblue" points="494.405,-873.918 483.94,-875.569 493.151,-880.804 494.405,-873.918"/>
</g>
<!-- Node12&#45;&gt;Node4 -->
<g id="edge13" class="edge"><title>Node12&#45;&gt;Node4</title>
<path fill="none" stroke="midnightblue" d="M497.021,-724.374C515.321,-722.831 534.084,-721.249 552.159,-719.725"/>
<polygon fill="midnightblue" stroke="midnightblue" points="496.579,-720.899 486.909,-725.227 497.167,-727.874 496.579,-720.899"/>
</g>
<!-- Node17&#45;&gt;Node6 -->
<g id="edge19" class="edge"><title>Node17&#45;&gt;Node6</title>
<path fill="none" stroke="midnightblue" d="M491.663,-374.617C513.208,-370.621 535.558,-366.475 556.807,-362.533"/>
<polygon fill="midnightblue" stroke="midnightblue" points="491.021,-371.177 481.827,-376.442 492.298,-378.059 491.021,-371.177"/>
</g>
<!-- Node18&#45;&gt;Node14 -->
<g id="edge21" class="edge"><title>Node18&#45;&gt;Node14</title>
<path fill="none" stroke="midnightblue" d="M488.16,-109.121C508.27,-107.426 529.18,-105.663 549.317,-103.965"/>
<polygon fill="midnightblue" stroke="midnightblue" points="487.714,-105.647 478.043,-109.974 488.302,-112.622 487.714,-105.647"/>
</g>
</g>
</svg>
        <g id="navigator" transform="translate(0 0)" fill="#404254">
                <rect fill="#f2f5e9" fill-opacity="0.5" stroke="#606060" stroke-width=".5" x="0" y="0" width="60" height="60"/>
                <use id="zoomplus" xlink:href="#zoomPlus" x="17" y="9" onmousedown="handleZoom(evt,'in')"/>
                <use id="zoomminus" xlink:href="#zoomMin" x="42" y="9" onmousedown="handleZoom(evt,'out')"/>
                <use id="reset" xlink:href="#resetDef" x="30" y="36" onmousedown="handleReset()"/>
                <g id="arrowUp" xlink:href="#dirArrow" transform="translate(30 24)" onmousedown="handlePan(0,-1)">
                  <use xlink:href="#rim" fill="#404040">
                        <set attributeName="fill" to="#808080" begin="arrowUp.mouseover" end="arrowUp.mouseout"/>
                  </use>
                  <path fill="none" stroke="white" stroke-width="1.5" d="M0,-3.0v7 M-2.5,-0.5L0,-3.0L2.5,-0.5"/>
                </g>
                <g id="arrowRight" xlink:href="#dirArrow" transform="rotate(90) translate(36 -43)" onmousedown="handlePan(1,0)">
                  <use xlink:href="#rim" fill="#404040">
                        <set attributeName="fill" to="#808080" begin="arrowRight.mouseover" end="arrowRight.mouseout"/>
                  </use>
                  <path fill="none" stroke="white" stroke-width="1.5" d="M0,-3.0v7 M-2.5,-0.5L0,-3.0L2.5,-0.5"/>
                </g>
                <g id="arrowDown" xlink:href="#dirArrow" transform="rotate(180) translate(-30 -48)" onmousedown="handlePan(0,1)">
                  <use xlink:href="#rim" fill="#404040">
                        <set attributeName="fill" to="#808080" begin="arrowDown.mouseover" end="arrowDown.mouseout"/>
                  </use>
                  <path fill="none" stroke="white" stroke-width="1.5" d="M0,-3.0v7 M-2.5,-0.5L0,-3.0L2.5,-0.5"/>
                </g>
                <g id="arrowLeft" xlink:href="#dirArrow" transform="rotate(270) translate(-36 17)" onmousedown="handlePan(-1,0)">
                  <use xlink:href="#rim" fill="#404040">
                        <set attributeName="fill" to="#808080" begin="arrowLeft.mouseover" end="arrowLeft.mouseout"/>
                  </use>
                  <path fill="none" stroke="white" stroke-width="1.5" d="M0,-3.0v7 M-2.5,-0.5L0,-3.0L2.5,-0.5"/>
                </g>
        </g>
        <svg viewBox="0 0 15 15" width="100%" height="30px" preserveAspectRatio="xMaxYMin meet">
         <g id="arrow_out" transform="scale(0.3 0.3)">
          <a xlink:href="a00008_aa69c65e2b1e435f9130ffa7dfde78069_icgraph_org.svg" target="_base">
           <rect id="button" ry="5" rx="5" y="6" x="6" height="38" width="38"
                fill="#f2f5e9" fill-opacity="0.5" stroke="#606060" stroke-width="1.0"/>
           <path id="arrow"
             d="M 11.500037,31.436501 C 11.940474,20.09759 22.043105,11.32322 32.158766,21.979434 L 37.068811,17.246167 C 37.068811,17.246167 37.088388,32 37.088388,32 L 22.160133,31.978069 C 22.160133,31.978069 26.997745,27.140456 26.997745,27.140456 C 18.528582,18.264221 13.291696,25.230495 11.500037,31.436501 z"
             style="fill:#404040;"/>
          </a>
         </g>
        </svg>
</svg>
