<?xml version="1.0" encoding="UTF-8" standalone="no"?>
<!DOCTYPE svg PUBLIC "-//W3C//DTD SVG 1.1//EN"
 "http://www.w3.org/Graphics/SVG/1.1/DTD/svg11.dtd">
<!-- Generated by graphviz version 2.38.0 (20140413.2041)
 -->
<!-- Title: beseenium.view.outputHandlers.compositors.CapabilitiesCompositor.composite Pages: 1 -->
<svg width="779pt" height="186pt"
 viewBox="0.00 0.00 779.00 186.00" xmlns="http://www.w3.org/2000/svg" xmlns:xlink="http://www.w3.org/1999/xlink">
<g id="graph0" class="graph" transform="scale(1 1) rotate(0) translate(4 182)">
<title>beseenium.view.outputHandlers.compositors.CapabilitiesCompositor.composite</title>
<polygon fill="white" stroke="none" points="-4,4 -4,-182 775,-182 775,4 -4,4"/>
<!-- Node1 -->
<g id="node1" class="node"><title>Node1</title>
<polygon fill="#bfbfbf" stroke="black" points="0,-49.5 0,-79.5 236,-79.5 236,-49.5 0,-49.5"/>
<text text-anchor="start" x="8" y="-67.5" font-family="Helvetica,sans-Serif" font-size="10.00">beseenium.view.outputHandlers.compositors.</text>
<text text-anchor="middle" x="118" y="-56.5" font-family="Helvetica,sans-Serif" font-size="10.00">CapabilitiesCompositor.composite</text>
</g>
<!-- Node2 -->
<g id="node2" class="node"><title>Node2</title>
<g id="a_node2"><a xlink:href="a00037.html#add3be82b7aa9c8961f27fc39ea5ba1ba" target="_top" xlink:title="does the final formatting of the JSON object ">
<polygon fill="white" stroke="black" points="272,-98.5 272,-128.5 508,-128.5 508,-98.5 272,-98.5"/>
<text text-anchor="start" x="280" y="-116.5" font-family="Helvetica,sans-Serif" font-size="10.00">beseenium.view.outputHandlers.compositors.</text>
<text text-anchor="middle" x="390" y="-105.5" font-family="Helvetica,sans-Serif" font-size="10.00">CapabilitiesCompositor.finalFormat</text>
</a>
</g>
</g>
<!-- Node1&#45;&gt;Node2 -->
<g id="edge1" class="edge"><title>Node1&#45;&gt;Node2</title>
<path fill="none" stroke="midnightblue" d="M201.844,-79.5346C231.777,-84.967 265.754,-91.1331 296.465,-96.7067"/>
<polygon fill="midnightblue" stroke="midnightblue" points="295.849,-100.152 306.313,-98.4938 297.099,-93.2643 295.849,-100.152"/>
</g>
<!-- Node5 -->
<g id="node5" class="node"><title>Node5</title>
<g id="a_node5"><a xlink:href="a00037.html#acdfc9290d8df3d2e589f94a2f6a9f72b" target="_top" xlink:title="does the formatting of the keyVal and KVset ">
<polygon fill="white" stroke="black" points="272,-49.5 272,-79.5 508,-79.5 508,-49.5 272,-49.5"/>
<text text-anchor="start" x="280" y="-67.5" font-family="Helvetica,sans-Serif" font-size="10.00">beseenium.view.outputHandlers.compositors.</text>
<text text-anchor="middle" x="390" y="-56.5" font-family="Helvetica,sans-Serif" font-size="10.00">CapabilitiesCompositor.format</text>
</a>
</g>
</g>
<!-- Node1&#45;&gt;Node5 -->
<g id="edge4" class="edge"><title>Node1&#45;&gt;Node5</title>
<path fill="none" stroke="midnightblue" d="M236.248,-64.5C244.738,-64.5 253.323,-64.5 261.866,-64.5"/>
<polygon fill="midnightblue" stroke="midnightblue" points="261.868,-68.0001 271.868,-64.5 261.868,-61.0001 261.868,-68.0001"/>
</g>
<!-- Node8 -->
<g id="node8" class="node"><title>Node8</title>
<g id="a_node8"><a xlink:href="a00125.html#a243e23fc0af55c6b9040a614cbac7794" target="_top" xlink:title="split a string according to 2 delimiters, produces a 2d array ">
<polygon fill="white" stroke="black" points="308.5,-0.5 308.5,-30.5 471.5,-30.5 471.5,-0.5 308.5,-0.5"/>
<text text-anchor="start" x="316.5" y="-18.5" font-family="Helvetica,sans-Serif" font-size="10.00">beseenium.view.helpers.String</text>
<text text-anchor="middle" x="390" y="-7.5" font-family="Helvetica,sans-Serif" font-size="10.00">Split.generic2d</text>
</a>
</g>
</g>
<!-- Node1&#45;&gt;Node8 -->
<g id="edge7" class="edge"><title>Node1&#45;&gt;Node8</title>
<path fill="none" stroke="midnightblue" d="M201.844,-49.4654C232.337,-43.9314 267.025,-37.6361 298.184,-31.9814"/>
<polygon fill="midnightblue" stroke="midnightblue" points="298.953,-35.3992 308.167,-30.1697 297.703,-28.5117 298.953,-35.3992"/>
</g>
<!-- Node3 -->
<g id="node3" class="node"><title>Node3</title>
<g id="a_node3"><a xlink:href="a00011.html#a69bd6433e55b37fe94f24089aacec5bf" target="_top" xlink:title="do some final formatting on the given string to put it in the final form specific to the derived type...">
<polygon fill="white" stroke="black" points="544,-147.5 544,-177.5 771,-177.5 771,-147.5 544,-147.5"/>
<text text-anchor="start" x="552" y="-165.5" font-family="Helvetica,sans-Serif" font-size="10.00">beseenium.view.outputHandlers.formatters.</text>
<text text-anchor="middle" x="657.5" y="-154.5" font-family="Helvetica,sans-Serif" font-size="10.00">AbstractOutputFormatter.finalForm</text>
</a>
</g>
</g>
<!-- Node2&#45;&gt;Node3 -->
<g id="edge2" class="edge"><title>Node2&#45;&gt;Node3</title>
<path fill="none" stroke="midnightblue" d="M472.463,-128.535C501.77,-133.944 535.019,-140.08 565.115,-145.634"/>
<polygon fill="midnightblue" stroke="midnightblue" points="564.722,-149.121 575.191,-147.494 565.992,-142.237 564.722,-149.121"/>
</g>
<!-- Node4 -->
<g id="node4" class="node"><title>Node4</title>
<g id="a_node4"><a xlink:href="a00011.html#a8af12cce044f1652ef0135bd5712fb6d" target="_top" xlink:title="format the given string as a key value super set specific to the derived type. ">
<polygon fill="white" stroke="black" points="544,-98.5 544,-128.5 771,-128.5 771,-98.5 544,-98.5"/>
<text text-anchor="start" x="552" y="-116.5" font-family="Helvetica,sans-Serif" font-size="10.00">beseenium.view.outputHandlers.formatters.</text>
<text text-anchor="middle" x="657.5" y="-105.5" font-family="Helvetica,sans-Serif" font-size="10.00">AbstractOutputFormatter.asKVsuperSet</text>
</a>
</g>
</g>
<!-- Node2&#45;&gt;Node4 -->
<g id="edge3" class="edge"><title>Node2&#45;&gt;Node4</title>
<path fill="none" stroke="midnightblue" d="M508.225,-113.5C516.62,-113.5 525.098,-113.5 533.524,-113.5"/>
<polygon fill="midnightblue" stroke="midnightblue" points="533.766,-117 543.766,-113.5 533.766,-110 533.766,-117"/>
</g>
<!-- Node6 -->
<g id="node6" class="node"><title>Node6</title>
<g id="a_node6"><a xlink:href="a00011.html#a35e8f2c147167e6a35c846eddfc3a5e5" target="_top" xlink:title="format the given string as a key value set specific to the derived type. ">
<polygon fill="white" stroke="black" points="544,-49.5 544,-79.5 771,-79.5 771,-49.5 544,-49.5"/>
<text text-anchor="start" x="552" y="-67.5" font-family="Helvetica,sans-Serif" font-size="10.00">beseenium.view.outputHandlers.formatters.</text>
<text text-anchor="middle" x="657.5" y="-56.5" font-family="Helvetica,sans-Serif" font-size="10.00">AbstractOutputFormatter.asKVset</text>
</a>
</g>
</g>
<!-- Node5&#45;&gt;Node6 -->
<g id="edge5" class="edge"><title>Node5&#45;&gt;Node6</title>
<path fill="none" stroke="midnightblue" d="M508.225,-64.5C516.62,-64.5 525.098,-64.5 533.524,-64.5"/>
<polygon fill="midnightblue" stroke="midnightblue" points="533.766,-68.0001 543.766,-64.5 533.766,-61.0001 533.766,-68.0001"/>
</g>
<!-- Node7 -->
<g id="node7" class="node"><title>Node7</title>
<g id="a_node7"><a xlink:href="a00011.html#a679fc9504f717af5057aff716c39d837" target="_top" xlink:title="format the given string as a key value pair specific to the derived type. ">
<polygon fill="white" stroke="black" points="544,-0.5 544,-30.5 771,-30.5 771,-0.5 544,-0.5"/>
<text text-anchor="start" x="552" y="-18.5" font-family="Helvetica,sans-Serif" font-size="10.00">beseenium.view.outputHandlers.formatters.</text>
<text text-anchor="middle" x="657.5" y="-7.5" font-family="Helvetica,sans-Serif" font-size="10.00">AbstractOutputFormatter.asKeyVal</text>
</a>
</g>
</g>
<!-- Node5&#45;&gt;Node7 -->
<g id="edge6" class="edge"><title>Node5&#45;&gt;Node7</title>
<path fill="none" stroke="midnightblue" d="M472.463,-49.4654C501.77,-44.0565 535.019,-37.9203 565.115,-32.3657"/>
<polygon fill="midnightblue" stroke="midnightblue" points="565.992,-35.7631 575.191,-30.5062 564.722,-28.8793 565.992,-35.7631"/>
</g>
</g>
</svg>
