<?xml version="1.0" encoding="UTF-8" standalone="no"?>
<!DOCTYPE svg PUBLIC "-//W3C//DTD SVG 1.1//EN"
 "http://www.w3.org/Graphics/SVG/1.1/DTD/svg11.dtd">
<!-- Generated by graphviz version 2.38.0 (20140413.2041)
 -->
<!-- Title: beseenium.view.outputHandlers.formatters.AbstractOutputFormatter.asKeyVal Pages: 1 -->
<svg width="779pt" height="137pt"
 viewBox="0.00 0.00 779.00 137.00" xmlns="http://www.w3.org/2000/svg" xmlns:xlink="http://www.w3.org/1999/xlink">
<g id="graph0" class="graph" transform="scale(1 1) rotate(0) translate(4 133)">
<title>beseenium.view.outputHandlers.formatters.AbstractOutputFormatter.asKeyVal</title>
<polygon fill="white" stroke="none" points="-4,4 -4,-133 775,-133 775,4 -4,4"/>
<!-- Node1 -->
<g id="node1" class="node"><title>Node1</title>
<polygon fill="#bfbfbf" stroke="black" points="0,-49.5 0,-79.5 227,-79.5 227,-49.5 0,-49.5"/>
<text text-anchor="start" x="8" y="-67.5" font-family="Helvetica,sans-Serif" font-size="10.00">beseenium.view.outputHandlers.formatters.</text>
<text text-anchor="middle" x="113.5" y="-56.5" font-family="Helvetica,sans-Serif" font-size="10.00">AbstractOutputFormatter.asKeyVal</text>
</g>
<!-- Node2 -->
<g id="node2" class="node"><title>Node2</title>
<g id="a_node2"><a xlink:href="a00025.html#a5421cc127aabec459968b9c8ba7d419c" target="_top" xlink:title="does the formatting of the keyVal and KVset ">
<polygon fill="white" stroke="black" points="263,-98.5 263,-128.5 499,-128.5 499,-98.5 263,-98.5"/>
<text text-anchor="start" x="271" y="-116.5" font-family="Helvetica,sans-Serif" font-size="10.00">beseenium.view.outputHandlers.compositors.</text>
<text text-anchor="middle" x="381" y="-105.5" font-family="Helvetica,sans-Serif" font-size="10.00">AddActionCompositor.format</text>
</a>
</g>
</g>
<!-- Node1&#45;&gt;Node2 -->
<g id="edge1" class="edge"><title>Node1&#45;&gt;Node2</title>
<path fill="none" stroke="midnightblue" d="M206.043,-81.3949C236.151,-86.9515 269.397,-93.0875 298.691,-98.4938"/>
<polygon fill="midnightblue" stroke="midnightblue" points="206.432,-77.9077 195.963,-79.5346 205.162,-84.7915 206.432,-77.9077"/>
</g>
<!-- Node4 -->
<g id="node4" class="node"><title>Node4</title>
<g id="a_node4"><a xlink:href="a00046.html#aaf9b32fe78eec0e867a5c8ebdb64da93" target="_top" xlink:title="does the formatting of the keyVal and KVset ">
<polygon fill="white" stroke="black" points="263,-49.5 263,-79.5 499,-79.5 499,-49.5 263,-49.5"/>
<text text-anchor="start" x="271" y="-67.5" font-family="Helvetica,sans-Serif" font-size="10.00">beseenium.view.outputHandlers.compositors.</text>
<text text-anchor="middle" x="381" y="-56.5" font-family="Helvetica,sans-Serif" font-size="10.00">ExecuteCompositor.format</text>
</a>
</g>
</g>
<!-- Node1&#45;&gt;Node4 -->
<g id="edge3" class="edge"><title>Node1&#45;&gt;Node4</title>
<path fill="none" stroke="midnightblue" d="M237.156,-64.5C245.756,-64.5 254.412,-64.5 262.98,-64.5"/>
<polygon fill="midnightblue" stroke="midnightblue" points="237.096,-61.0001 227.096,-64.5 237.096,-68.0001 237.096,-61.0001"/>
</g>
<!-- Node6 -->
<g id="node6" class="node"><title>Node6</title>
<g id="a_node6"><a xlink:href="a00037.html#acdfc9290d8df3d2e589f94a2f6a9f72b" target="_top" xlink:title="does the formatting of the keyVal and KVset ">
<polygon fill="white" stroke="black" points="263,-0.5 263,-30.5 499,-30.5 499,-0.5 263,-0.5"/>
<text text-anchor="start" x="271" y="-18.5" font-family="Helvetica,sans-Serif" font-size="10.00">beseenium.view.outputHandlers.compositors.</text>
<text text-anchor="middle" x="381" y="-7.5" font-family="Helvetica,sans-Serif" font-size="10.00">CapabilitiesCompositor.format</text>
</a>
</g>
</g>
<!-- Node1&#45;&gt;Node6 -->
<g id="edge5" class="edge"><title>Node1&#45;&gt;Node6</title>
<path fill="none" stroke="midnightblue" d="M206.043,-47.6051C236.151,-42.0485 269.397,-35.9125 298.691,-30.5062"/>
<polygon fill="midnightblue" stroke="midnightblue" points="205.162,-44.2085 195.963,-49.4654 206.432,-51.0923 205.162,-44.2085"/>
</g>
<!-- Node3 -->
<g id="node3" class="node"><title>Node3</title>
<g id="a_node3"><a xlink:href="a00025.html#aacce95873e64fe9ef6890dec6b915cc3" target="_top" xlink:title="This method provides functionality to composite the string into the format specified by the user on c...">
<polygon fill="white" stroke="black" points="535,-98.5 535,-128.5 771,-128.5 771,-98.5 535,-98.5"/>
<text text-anchor="start" x="543" y="-116.5" font-family="Helvetica,sans-Serif" font-size="10.00">beseenium.view.outputHandlers.compositors.</text>
<text text-anchor="middle" x="653" y="-105.5" font-family="Helvetica,sans-Serif" font-size="10.00">AddActionCompositor.composite</text>
</a>
</g>
</g>
<!-- Node2&#45;&gt;Node3 -->
<g id="edge2" class="edge"><title>Node2&#45;&gt;Node3</title>
<path fill="none" stroke="midnightblue" d="M509.25,-113.5C517.794,-113.5 526.379,-113.5 534.868,-113.5"/>
<polygon fill="midnightblue" stroke="midnightblue" points="509.248,-110 499.248,-113.5 509.248,-117 509.248,-110"/>
</g>
<!-- Node5 -->
<g id="node5" class="node"><title>Node5</title>
<g id="a_node5"><a xlink:href="a00046.html#a3d0a899c957057d795c7b69889263b3b" target="_top" xlink:title="This method provides functionality to composite the string into the format specified by the user on c...">
<polygon fill="white" stroke="black" points="535,-49.5 535,-79.5 771,-79.5 771,-49.5 535,-49.5"/>
<text text-anchor="start" x="543" y="-67.5" font-family="Helvetica,sans-Serif" font-size="10.00">beseenium.view.outputHandlers.compositors.</text>
<text text-anchor="middle" x="653" y="-56.5" font-family="Helvetica,sans-Serif" font-size="10.00">ExecuteCompositor.composite</text>
</a>
</g>
</g>
<!-- Node4&#45;&gt;Node5 -->
<g id="edge4" class="edge"><title>Node4&#45;&gt;Node5</title>
<path fill="none" stroke="midnightblue" d="M509.25,-64.5C517.794,-64.5 526.379,-64.5 534.868,-64.5"/>
<polygon fill="midnightblue" stroke="midnightblue" points="509.248,-61.0001 499.248,-64.5 509.248,-68.0001 509.248,-61.0001"/>
</g>
<!-- Node7 -->
<g id="node7" class="node"><title>Node7</title>
<g id="a_node7"><a xlink:href="a00037.html#a5f744be16476a921041fe1f611ac62d4" target="_top" xlink:title="This method provides functionality to composite the string into the format specified by the user on c...">
<polygon fill="white" stroke="black" points="535,-0.5 535,-30.5 771,-30.5 771,-0.5 535,-0.5"/>
<text text-anchor="start" x="543" y="-18.5" font-family="Helvetica,sans-Serif" font-size="10.00">beseenium.view.outputHandlers.compositors.</text>
<text text-anchor="middle" x="653" y="-7.5" font-family="Helvetica,sans-Serif" font-size="10.00">CapabilitiesCompositor.composite</text>
</a>
</g>
</g>
<!-- Node6&#45;&gt;Node7 -->
<g id="edge6" class="edge"><title>Node6&#45;&gt;Node7</title>
<path fill="none" stroke="midnightblue" d="M509.25,-15.5C517.794,-15.5 526.379,-15.5 534.868,-15.5"/>
<polygon fill="midnightblue" stroke="midnightblue" points="509.248,-12.0001 499.248,-15.5 509.248,-19.0001 509.248,-12.0001"/>
</g>
</g>
</svg>
