<?xml version="1.0" encoding="UTF-8" standalone="no"?>
<!DOCTYPE svg PUBLIC "-//W3C//DTD SVG 1.1//EN"
 "http://www.w3.org/Graphics/SVG/1.1/DTD/svg11.dtd">
<!-- Generated by graphviz version 2.38.0 (20140413.2041)
 -->
<!-- Title: beseenium.view.outputHandlers.requestHandlers.capabilitiesHandlers.EmptyCapsParamHandler.handleRequest Pages: 1 -->
<svg width="498pt" height="50pt"
 viewBox="0.00 0.00 498.00 50.00" xmlns="http://www.w3.org/2000/svg" xmlns:xlink="http://www.w3.org/1999/xlink">
<g id="graph0" class="graph" transform="scale(1 1) rotate(0) translate(4 46)">
<title>beseenium.view.outputHandlers.requestHandlers.capabilitiesHandlers.EmptyCapsParamHandler.handleRequest</title>
<polygon fill="white" stroke="none" points="-4,4 -4,-46 494,-46 494,4 -4,4"/>
<!-- Node1 -->
<g id="node1" class="node"><title>Node1</title>
<polygon fill="#bfbfbf" stroke="black" points="0,-0.5 0,-41.5 216,-41.5 216,-0.5 0,-0.5"/>
<text text-anchor="start" x="8" y="-29.5" font-family="Helvetica,sans-Serif" font-size="10.00">beseenium.view.outputHandlers.request</text>
<text text-anchor="start" x="8" y="-18.5" font-family="Helvetica,sans-Serif" font-size="10.00">Handlers.capabilitiesHandlers.EmptyCaps</text>
<text text-anchor="middle" x="108" y="-7.5" font-family="Helvetica,sans-Serif" font-size="10.00">ParamHandler.handleRequest</text>
</g>
<!-- Node2 -->
<g id="node2" class="node"><title>Node2</title>
<g id="a_node2"><a xlink:href="a00113.html#a9be285cdc69f6c0b03c55c913b76b8fe" target="_top" xlink:title="beseenium.view.outputHandlers.request\lHandlers.capabilitiesHandlers.RootCapabilities\lHandler.handleRequest">
<polygon fill="white" stroke="black" points="252,-0.5 252,-41.5 490,-41.5 490,-0.5 252,-0.5"/>
<text text-anchor="start" x="260" y="-29.5" font-family="Helvetica,sans-Serif" font-size="10.00">beseenium.view.outputHandlers.request</text>
<text text-anchor="start" x="260" y="-18.5" font-family="Helvetica,sans-Serif" font-size="10.00">Handlers.capabilitiesHandlers.RootCapabilities</text>
<text text-anchor="middle" x="371" y="-7.5" font-family="Helvetica,sans-Serif" font-size="10.00">Handler.handleRequest</text>
</a>
</g>
</g>
<!-- Node1&#45;&gt;Node2 -->
<g id="edge1" class="edge"><title>Node1&#45;&gt;Node2</title>
<path fill="none" stroke="midnightblue" d="M226.463,-21C234.842,-21 243.293,-21 251.676,-21"/>
<polygon fill="midnightblue" stroke="midnightblue" points="226.289,-17.5001 216.289,-21 226.289,-24.5001 226.289,-17.5001"/>
</g>
</g>
</svg>
