<?xml version="1.0" encoding="UTF-8" standalone="no"?>
<!DOCTYPE svg PUBLIC "-//W3C//DTD SVG 1.1//EN"
 "http://www.w3.org/Graphics/SVG/1.1/DTD/svg11.dtd">
<!-- Generated by graphviz version 2.38.0 (20140413.2041)
 -->
<!-- Title: beseenium.view.outputHandlers.requestHandlers.addActionHandlers.BadlyFormattedActionHandler.handleRequest Pages: 1 -->
<svg width="509pt" height="50pt"
 viewBox="0.00 0.00 509.00 50.00" xmlns="http://www.w3.org/2000/svg" xmlns:xlink="http://www.w3.org/1999/xlink">
<g id="graph0" class="graph" transform="scale(1 1) rotate(0) translate(4 46)">
<title>beseenium.view.outputHandlers.requestHandlers.addActionHandlers.BadlyFormattedActionHandler.handleRequest</title>
<polygon fill="white" stroke="none" points="-4,4 -4,-46 505,-46 505,4 -4,4"/>
<!-- Node1 -->
<g id="node1" class="node"><title>Node1</title>
<polygon fill="#bfbfbf" stroke="black" points="0,-0.5 0,-41.5 233,-41.5 233,-0.5 0,-0.5"/>
<text text-anchor="start" x="8" y="-29.5" font-family="Helvetica,sans-Serif" font-size="10.00">beseenium.view.outputHandlers.request</text>
<text text-anchor="start" x="8" y="-18.5" font-family="Helvetica,sans-Serif" font-size="10.00">Handlers.addActionHandlers.BadlyFormatted</text>
<text text-anchor="middle" x="116.5" y="-7.5" font-family="Helvetica,sans-Serif" font-size="10.00">ActionHandler.handleRequest</text>
</g>
<!-- Node2 -->
<g id="node2" class="node"><title>Node2</title>
<g id="a_node2"><a xlink:href="a00111.html#a24658ebd56efcdec6f8928a733235c2b" target="_top" xlink:title="beseenium.view.outputHandlers.request\lHandlers.addActionHandlers.RootAddActions\lHandler.handleRequest">
<polygon fill="white" stroke="black" points="269,-0.5 269,-41.5 501,-41.5 501,-0.5 269,-0.5"/>
<text text-anchor="start" x="277" y="-29.5" font-family="Helvetica,sans-Serif" font-size="10.00">beseenium.view.outputHandlers.request</text>
<text text-anchor="start" x="277" y="-18.5" font-family="Helvetica,sans-Serif" font-size="10.00">Handlers.addActionHandlers.RootAddActions</text>
<text text-anchor="middle" x="385" y="-7.5" font-family="Helvetica,sans-Serif" font-size="10.00">Handler.handleRequest</text>
</a>
</g>
</g>
<!-- Node1&#45;&gt;Node2 -->
<g id="edge1" class="edge"><title>Node1&#45;&gt;Node2</title>
<path fill="none" stroke="midnightblue" d="M243.498,-21C251.941,-21 260.423,-21 268.807,-21"/>
<polygon fill="midnightblue" stroke="midnightblue" points="243.228,-17.5001 233.228,-21 243.228,-24.5001 243.228,-17.5001"/>
</g>
</g>
</svg>
