<?xml version="1.0" encoding="UTF-8" standalone="no"?>
<!DOCTYPE svg PUBLIC "-//W3C//DTD SVG 1.1//EN"
 "http://www.w3.org/Graphics/SVG/1.1/DTD/svg11.dtd">
<!-- Generated by graphviz version 2.38.0 (20140413.2041)
 -->
<!-- Title: beseenium.model.helpers.FormatOutput.formatFindElementOutput Pages: 1 -->
<svg width="464pt" height="392pt"
 viewBox="0.00 0.00 464.00 392.50" xmlns="http://www.w3.org/2000/svg" xmlns:xlink="http://www.w3.org/1999/xlink">
<g id="graph0" class="graph" transform="scale(1 1) rotate(0) translate(4 388.5)">
<title>beseenium.model.helpers.FormatOutput.formatFindElementOutput</title>
<polygon fill="white" stroke="none" points="-4,4 -4,-388.5 460,-388.5 460,4 -4,4"/>
<!-- Node1 -->
<g id="node1" class="node"><title>Node1</title>
<polygon fill="#bfbfbf" stroke="black" points="0,-176.5 0,-217.5 179,-217.5 179,-176.5 0,-176.5"/>
<text text-anchor="start" x="8" y="-205.5" font-family="Helvetica,sans-Serif" font-size="10.00">beseenium.model.helpers.</text>
<text text-anchor="start" x="8" y="-194.5" font-family="Helvetica,sans-Serif" font-size="10.00">FormatOutput.formatFindElement</text>
<text text-anchor="middle" x="89.5" y="-183.5" font-family="Helvetica,sans-Serif" font-size="10.00">Output</text>
</g>
<!-- Node2 -->
<g id="node2" class="node"><title>Node2</title>
<g id="a_node2"><a xlink:href="a00037.html#af71d3817a8db3c5b84db25a324203b72" target="_top" xlink:title="performs the find elements by class action. ">
<polygon fill="white" stroke="black" points="225.5,-354 225.5,-384 445.5,-384 445.5,-354 225.5,-354"/>
<text text-anchor="start" x="233.5" y="-372" font-family="Helvetica,sans-Serif" font-size="10.00">beseenium.model.action.find</text>
<text text-anchor="middle" x="335.5" y="-361" font-family="Helvetica,sans-Serif" font-size="10.00">ElementsBy.FindElementsByClass.execute</text>
</a>
</g>
</g>
<!-- Node1&#45;&gt;Node2 -->
<g id="edge1" class="edge"><title>Node1&#45;&gt;Node2</title>
<path fill="none" stroke="midnightblue" d="M107.169,-226.587C127.899,-260.51 166.542,-315.14 215,-344 221.556,-347.904 228.631,-351.205 235.95,-353.995"/>
<polygon fill="midnightblue" stroke="midnightblue" points="109.938,-224.396 101.804,-217.607 103.928,-227.986 109.938,-224.396"/>
</g>
<!-- Node3 -->
<g id="node3" class="node"><title>Node3</title>
<g id="a_node3"><a xlink:href="a00038.html#a6e49bf77c9ae6046a0225603c11e4fa0" target="_top" xlink:title="performs the find elements by css action. ">
<polygon fill="white" stroke="black" points="229.5,-305 229.5,-335 441.5,-335 441.5,-305 229.5,-305"/>
<text text-anchor="start" x="237.5" y="-323" font-family="Helvetica,sans-Serif" font-size="10.00">beseenium.model.action.find</text>
<text text-anchor="middle" x="335.5" y="-312" font-family="Helvetica,sans-Serif" font-size="10.00">ElementsBy.FindElementsByCss.execute</text>
</a>
</g>
</g>
<!-- Node1&#45;&gt;Node3 -->
<g id="edge2" class="edge"><title>Node1&#45;&gt;Node3</title>
<path fill="none" stroke="midnightblue" d="M117.727,-224.613C141.393,-246.993 177.661,-277.579 215,-295 223.355,-298.898 232.322,-302.194 241.45,-304.978"/>
<polygon fill="midnightblue" stroke="midnightblue" points="120.134,-222.072 110.5,-217.662 115.281,-227.117 120.134,-222.072"/>
</g>
<!-- Node4 -->
<g id="node4" class="node"><title>Node4</title>
<g id="a_node4"><a xlink:href="a00041.html#a99b86ab3620d64f0d59949a263c27f69" target="_top" xlink:title="this performs the find elements by name action ">
<polygon fill="white" stroke="black" points="223.5,-256 223.5,-286 447.5,-286 447.5,-256 223.5,-256"/>
<text text-anchor="start" x="231.5" y="-274" font-family="Helvetica,sans-Serif" font-size="10.00">beseenium.model.action.find</text>
<text text-anchor="middle" x="335.5" y="-263" font-family="Helvetica,sans-Serif" font-size="10.00">ElementsBy.FindElementsByName.execute</text>
</a>
</g>
</g>
<!-- Node1&#45;&gt;Node4 -->
<g id="edge3" class="edge"><title>Node1&#45;&gt;Node4</title>
<path fill="none" stroke="midnightblue" d="M146.609,-221.41C167.768,-229.995 192.227,-239.19 215,-246 227.286,-249.674 240.439,-253.008 253.363,-255.957"/>
<polygon fill="midnightblue" stroke="midnightblue" points="147.717,-218.081 137.137,-217.519 145.057,-224.556 147.717,-218.081"/>
</g>
<!-- Node5 -->
<g id="node5" class="node"><title>Node5</title>
<g id="a_node5"><a xlink:href="a00039.html#a21c549c25854a2b21e3223e66342f5e3" target="_top" xlink:title="performs the find elements by id action. ">
<polygon fill="white" stroke="black" points="234,-207 234,-237 437,-237 437,-207 234,-207"/>
<text text-anchor="start" x="242" y="-225" font-family="Helvetica,sans-Serif" font-size="10.00">beseenium.model.action.find</text>
<text text-anchor="middle" x="335.5" y="-214" font-family="Helvetica,sans-Serif" font-size="10.00">ElementsBy.FindElementsById.execute</text>
</a>
</g>
</g>
<!-- Node1&#45;&gt;Node5 -->
<g id="edge4" class="edge"><title>Node1&#45;&gt;Node5</title>
<path fill="none" stroke="midnightblue" d="M189.34,-207.127C203.993,-208.628 219.109,-210.177 233.8,-211.682"/>
<polygon fill="midnightblue" stroke="midnightblue" points="189.585,-203.634 179.28,-206.096 188.871,-210.597 189.585,-203.634"/>
</g>
<!-- Node6 -->
<g id="node6" class="node"><title>Node6</title>
<g id="a_node6"><a xlink:href="a00044.html#a9caed575513e1914ab7429fc3ac35d69" target="_top" xlink:title="performs the find elements by xpath action ">
<polygon fill="white" stroke="black" points="223.5,-158 223.5,-188 447.5,-188 447.5,-158 223.5,-158"/>
<text text-anchor="start" x="231.5" y="-176" font-family="Helvetica,sans-Serif" font-size="10.00">beseenium.model.action.find</text>
<text text-anchor="middle" x="335.5" y="-165" font-family="Helvetica,sans-Serif" font-size="10.00">ElementsBy.FindElementsByXpath.execute</text>
</a>
</g>
</g>
<!-- Node1&#45;&gt;Node6 -->
<g id="edge5" class="edge"><title>Node1&#45;&gt;Node6</title>
<path fill="none" stroke="midnightblue" d="M189.437,-187.268C200.591,-186.171 212.013,-185.048 223.309,-183.937"/>
<polygon fill="midnightblue" stroke="midnightblue" points="188.889,-183.805 179.28,-188.268 189.574,-190.772 188.889,-183.805"/>
</g>
<!-- Node7 -->
<g id="node7" class="node"><title>Node7</title>
<g id="a_node7"><a xlink:href="a00040.html#a7f346e3b6c681c10a785f6aa31eb594f" target="_top" xlink:title="performs the find elements by link text action. ">
<polygon fill="white" stroke="black" points="222,-109 222,-139 449,-139 449,-109 222,-109"/>
<text text-anchor="start" x="230" y="-127" font-family="Helvetica,sans-Serif" font-size="10.00">beseenium.model.action.find</text>
<text text-anchor="middle" x="335.5" y="-116" font-family="Helvetica,sans-Serif" font-size="10.00">ElementsBy.FindElementsByLinkTxt.execute</text>
</a>
</g>
</g>
<!-- Node1&#45;&gt;Node7 -->
<g id="edge6" class="edge"><title>Node1&#45;&gt;Node7</title>
<path fill="none" stroke="midnightblue" d="M147.729,-172.705C168.642,-164.423 192.651,-155.599 215,-149 227.4,-145.339 240.676,-142.003 253.706,-139.045"/>
<polygon fill="midnightblue" stroke="midnightblue" points="146.335,-169.493 138.355,-176.462 148.94,-175.991 146.335,-169.493"/>
</g>
<!-- Node8 -->
<g id="node8" class="node"><title>Node8</title>
<g id="a_node8"><a xlink:href="a00043.html#abb21866d1fc92e7657831dc832d2efce" target="_top" xlink:title="performs the find elements by tag name action ">
<polygon fill="white" stroke="black" points="215,-60 215,-90 456,-90 456,-60 215,-60"/>
<text text-anchor="start" x="223" y="-78" font-family="Helvetica,sans-Serif" font-size="10.00">beseenium.model.action.find</text>
<text text-anchor="middle" x="335.5" y="-67" font-family="Helvetica,sans-Serif" font-size="10.00">ElementsBy.FindElementsByTagName.execute</text>
</a>
</g>
</g>
<!-- Node1&#45;&gt;Node8 -->
<g id="edge7" class="edge"><title>Node1&#45;&gt;Node8</title>
<path fill="none" stroke="midnightblue" d="M118.518,-168.989C142.228,-146.907 178.148,-117.082 215,-100 223.365,-96.1225 232.338,-92.8408 241.47,-90.0646"/>
<polygon fill="midnightblue" stroke="midnightblue" points="115.812,-166.732 110.962,-176.151 120.627,-171.812 115.812,-166.732"/>
</g>
<!-- Node9 -->
<g id="node9" class="node"><title>Node9</title>
<g id="a_node9"><a xlink:href="a00042.html#a2c2a16148cd8d69bb02e9a2a419f5938" target="_top" xlink:title="performs the find elements by partial link text action. ">
<polygon fill="white" stroke="black" points="244,-0.5 244,-41.5 427,-41.5 427,-0.5 244,-0.5"/>
<text text-anchor="start" x="252" y="-29.5" font-family="Helvetica,sans-Serif" font-size="10.00">beseenium.model.action.find</text>
<text text-anchor="start" x="252" y="-18.5" font-family="Helvetica,sans-Serif" font-size="10.00">ElementsBy.FindElementsByPartial</text>
<text text-anchor="middle" x="335.5" y="-7.5" font-family="Helvetica,sans-Serif" font-size="10.00">LinkTxt.execute</text>
</a>
</g>
</g>
<!-- Node1&#45;&gt;Node9 -->
<g id="edge8" class="edge"><title>Node1&#45;&gt;Node9</title>
<path fill="none" stroke="midnightblue" d="M107.764,-167.404C128.814,-133.99 167.523,-80.4585 215,-51 223.906,-45.474 233.781,-40.9643 243.927,-37.2843"/>
<polygon fill="midnightblue" stroke="midnightblue" points="104.574,-165.909 102.303,-176.258 110.532,-169.584 104.574,-165.909"/>
</g>
</g>
</svg>
