<?xml version="1.0" encoding="UTF-8" standalone="no"?>
<!DOCTYPE svg PUBLIC "-//W3C//DTD SVG 1.1//EN"
 "http://www.w3.org/Graphics/SVG/1.1/DTD/svg11.dtd">
<!-- Generated by graphviz version 2.38.0 (20140413.2041)
 -->
<!-- Title: beseenium.view.outputHandlers.compositors.CapabilitiesCompositor.format Pages: 1 -->
<svg width="516pt" height="39pt"
 viewBox="0.00 0.00 516.00 39.00" xmlns="http://www.w3.org/2000/svg" xmlns:xlink="http://www.w3.org/1999/xlink">
<g id="graph0" class="graph" transform="scale(1 1) rotate(0) translate(4 35)">
<title>beseenium.view.outputHandlers.compositors.CapabilitiesCompositor.format</title>
<polygon fill="white" stroke="none" points="-4,4 -4,-35 512,-35 512,4 -4,4"/>
<!-- Node1 -->
<g id="node1" class="node"><title>Node1</title>
<polygon fill="#bfbfbf" stroke="black" points="0,-0.5 0,-30.5 236,-30.5 236,-0.5 0,-0.5"/>
<text text-anchor="start" x="8" y="-18.5" font-family="Helvetica,sans-Serif" font-size="10.00">beseenium.view.outputHandlers.compositors.</text>
<text text-anchor="middle" x="118" y="-7.5" font-family="Helvetica,sans-Serif" font-size="10.00">CapabilitiesCompositor.format</text>
</g>
<!-- Node2 -->
<g id="node2" class="node"><title>Node2</title>
<g id="a_node2"><a xlink:href="a00037.html#a5f744be16476a921041fe1f611ac62d4" target="_top" xlink:title="This method provides functionality to composite the string into the format specified by the user on c...">
<polygon fill="white" stroke="black" points="272,-0.5 272,-30.5 508,-30.5 508,-0.5 272,-0.5"/>
<text text-anchor="start" x="280" y="-18.5" font-family="Helvetica,sans-Serif" font-size="10.00">beseenium.view.outputHandlers.compositors.</text>
<text text-anchor="middle" x="390" y="-7.5" font-family="Helvetica,sans-Serif" font-size="10.00">CapabilitiesCompositor.composite</text>
</a>
</g>
</g>
<!-- Node1&#45;&gt;Node2 -->
<g id="edge1" class="edge"><title>Node1&#45;&gt;Node2</title>
<path fill="none" stroke="midnightblue" d="M246.25,-15.5C254.794,-15.5 263.379,-15.5 271.868,-15.5"/>
<polygon fill="midnightblue" stroke="midnightblue" points="246.248,-12.0001 236.248,-15.5 246.248,-19.0001 246.248,-12.0001"/>
</g>
</g>
</svg>
