<?xml version="1.0" encoding="UTF-8" standalone="no"?>
<!DOCTYPE svg PUBLIC "-//W3C//DTD SVG 1.1//EN"
 "http://www.w3.org/Graphics/SVG/1.1/DTD/svg11.dtd">
<!-- Generated by graphviz version 2.38.0 (20140413.2041)
 -->
<!-- Title: beseenium.view.HttpServer.setUpServletHandler Pages: 1 -->
<svg width="552pt" height="39pt"
 viewBox="0.00 0.00 552.00 39.00" xmlns="http://www.w3.org/2000/svg" xmlns:xlink="http://www.w3.org/1999/xlink">
<g id="graph0" class="graph" transform="scale(1 1) rotate(0) translate(4 35)">
<title>beseenium.view.HttpServer.setUpServletHandler</title>
<polygon fill="white" stroke="none" points="-4,4 -4,-35 548,-35 548,4 -4,4"/>
<!-- Node1 -->
<g id="node1" class="node"><title>Node1</title>
<polygon fill="#bfbfbf" stroke="black" points="0,-0.5 0,-30.5 167,-30.5 167,-0.5 0,-0.5"/>
<text text-anchor="start" x="8" y="-18.5" font-family="Helvetica,sans-Serif" font-size="10.00">beseenium.view.HttpServer.set</text>
<text text-anchor="middle" x="83.5" y="-7.5" font-family="Helvetica,sans-Serif" font-size="10.00">UpServletHandler</text>
</g>
<!-- Node2 -->
<g id="node2" class="node"><title>Node2</title>
<g id="a_node2"><a xlink:href="a00063.html#a0b2bae533232dfc8368124c07c3c7af6" target="_top" xlink:title="launches the embedded webserver on the specified port number. ">
<polygon fill="white" stroke="black" points="203,-6 203,-25 386,-25 386,-6 203,-6"/>
<text text-anchor="middle" x="294.5" y="-13" font-family="Helvetica,sans-Serif" font-size="10.00">beseenium.view.HttpServer.launch</text>
</a>
</g>
</g>
<!-- Node1&#45;&gt;Node2 -->
<g id="edge1" class="edge"><title>Node1&#45;&gt;Node2</title>
<path fill="none" stroke="midnightblue" d="M177.375,-15.5C185.852,-15.5 194.432,-15.5 202.889,-15.5"/>
<polygon fill="midnightblue" stroke="midnightblue" points="177.102,-12.0001 167.102,-15.5 177.102,-19.0001 177.102,-12.0001"/>
</g>
<!-- Node3 -->
<g id="node3" class="node"><title>Node3</title>
<g id="a_node3"><a xlink:href="a00069.html#ab457dfac52d35c2fe8b77f4ec8069fa7" target="_top" xlink:title="passes the first command line argument to the http server, ostensibly the port number. ">
<polygon fill="white" stroke="black" points="422,-6 422,-25 544,-25 544,-6 422,-6"/>
<text text-anchor="middle" x="483" y="-13" font-family="Helvetica,sans-Serif" font-size="10.00">beseenium.Main.main</text>
</a>
</g>
</g>
<!-- Node2&#45;&gt;Node3 -->
<g id="edge2" class="edge"><title>Node2&#45;&gt;Node3</title>
<path fill="none" stroke="midnightblue" d="M396.273,-15.5C404.989,-15.5 413.617,-15.5 421.85,-15.5"/>
<polygon fill="midnightblue" stroke="midnightblue" points="396.018,-12.0001 386.018,-15.5 396.018,-19.0001 396.018,-12.0001"/>
</g>
</g>
</svg>
