<?xml version="1.0" encoding="UTF-8" standalone="no"?>
<!DOCTYPE svg PUBLIC "-//W3C//DTD SVG 1.1//EN"
 "http://www.w3.org/Graphics/SVG/1.1/DTD/svg11.dtd">
<!-- Generated by graphviz version 2.38.0 (20140413.2041)
 -->
<!-- Title: beseenium.model.ActionInvoker.execute Pages: 1 -->
<svg width="1248pt" height="269pt"
 viewBox="0.00 0.00 1248.00 269.44" xmlns="http://www.w3.org/2000/svg" xmlns:xlink="http://www.w3.org/1999/xlink">
<g id="graph0" class="graph" transform="scale(1 1) rotate(0) translate(4 265.436)">
<title>beseenium.model.ActionInvoker.execute</title>
<polygon fill="white" stroke="none" points="-4,4 -4,-265.436 1244,-265.436 1244,4 -4,4"/>
<!-- Node1 -->
<g id="node1" class="node"><title>Node1</title>
<polygon fill="#bfbfbf" stroke="black" points="0,-76.9362 0,-95.9362 212,-95.9362 212,-76.9362 0,-76.9362"/>
<text text-anchor="middle" x="106" y="-83.9362" font-family="Helvetica,sans-Serif" font-size="10.00">beseenium.model.ActionInvoker.execute</text>
</g>
<!-- Node2 -->
<g id="node2" class="node"><title>Node2</title>
<g id="a_node2"><a xlink:href="a00121.html#a30550c4174a00b79dcb3c09b37eb925f" target="_top" xlink:title="remove all actions from this test and close the browser instance associated with it. ">
<polygon fill="white" stroke="black" points="248,-107.436 248,-137.436 446,-137.436 446,-107.436 248,-107.436"/>
<text text-anchor="start" x="256" y="-125.436" font-family="Helvetica,sans-Serif" font-size="10.00">beseenium.controller.Test.emergency</text>
<text text-anchor="middle" x="347" y="-114.436" font-family="Helvetica,sans-Serif" font-size="10.00">Shutdown</text>
</a>
</g>
</g>
<!-- Node1&#45;&gt;Node2 -->
<g id="edge1" class="edge"><title>Node1&#45;&gt;Node2</title>
<path fill="none" stroke="midnightblue" d="M180.067,-97.4421C201.43,-100.66 225.137,-104.231 247.79,-107.643"/>
<polygon fill="midnightblue" stroke="midnightblue" points="180.517,-93.9704 170.107,-95.9418 179.474,-100.892 180.517,-93.9704"/>
</g>
<!-- Node10 -->
<g id="node10" class="node"><title>Node10</title>
<g id="a_node10"><a xlink:href="a00121.html#a314a83d197e751b5927b1e060f111e0d" target="_top" xlink:title="executes all actions in this test, in the sequence they were added ">
<polygon fill="white" stroke="black" points="256,-36.4362 256,-66.4362 438,-66.4362 438,-36.4362 256,-36.4362"/>
<text text-anchor="start" x="264" y="-54.4362" font-family="Helvetica,sans-Serif" font-size="10.00">beseenium.controller.Test.execute</text>
<text text-anchor="middle" x="347" y="-43.4362" font-family="Helvetica,sans-Serif" font-size="10.00">Actions</text>
</a>
</g>
</g>
<!-- Node1&#45;&gt;Node10 -->
<g id="edge12" class="edge"><title>Node1&#45;&gt;Node10</title>
<path fill="none" stroke="midnightblue" d="M182.19,-75.4251C205.583,-71.9993 231.616,-68.187 255.918,-64.6281"/>
<polygon fill="midnightblue" stroke="midnightblue" points="181.379,-72.0064 171.992,-76.9185 182.394,-78.9325 181.379,-72.0064"/>
</g>
<!-- Node3 -->
<g id="node3" class="node"><title>Node3</title>
<g id="a_node3"><a xlink:href="a00037.html#a2413846626263a20383c8341d7dd2e47" target="_top" xlink:title="in case something goes wrong the test should be able to shut down the current browser instance...">
<polygon fill="white" stroke="black" points="488.5,-200.436 488.5,-230.436 676.5,-230.436 676.5,-200.436 488.5,-200.436"/>
<text text-anchor="start" x="496.5" y="-218.436" font-family="Helvetica,sans-Serif" font-size="10.00">beseenium.view.helpers.Emergency</text>
<text text-anchor="middle" x="582.5" y="-207.436" font-family="Helvetica,sans-Serif" font-size="10.00">Shutdown.execute</text>
</a>
</g>
</g>
<!-- Node2&#45;&gt;Node3 -->
<g id="edge2" class="edge"><title>Node2&#45;&gt;Node3</title>
<path fill="none" stroke="midnightblue" d="M395.34,-141.291C439.126,-158.73 503.361,-184.314 543.779,-200.412"/>
<polygon fill="midnightblue" stroke="midnightblue" points="396.361,-137.93 385.775,-137.482 393.77,-144.433 396.361,-137.93"/>
</g>
<!-- Node5 -->
<g id="node5" class="node"><title>Node5</title>
<g id="a_node5"><a xlink:href="a00123.html#ab3a029a7ca30c5f8a0344c4634b9daf0" target="_top" xlink:title="in case something goes wrong the test should be able to shut down the current browser instance...">
<polygon fill="white" stroke="black" points="482,-112.936 482,-131.936 683,-131.936 683,-112.936 482,-112.936"/>
<text text-anchor="middle" x="582.5" y="-119.936" font-family="Helvetica,sans-Serif" font-size="10.00">beseenium.view.URLHandler.shutdown</text>
</a>
</g>
</g>
<!-- Node2&#45;&gt;Node5 -->
<g id="edge4" class="edge"><title>Node2&#45;&gt;Node5</title>
<path fill="none" stroke="midnightblue" d="M456.066,-122.436C464.666,-122.436 473.329,-122.436 481.867,-122.436"/>
<polygon fill="midnightblue" stroke="midnightblue" points="456.01,-118.936 446.01,-122.436 456.01,-125.936 456.01,-118.936"/>
</g>
<!-- Node4 -->
<g id="node4" class="node"><title>Node4</title>
<g id="a_node4"><a xlink:href="a00114.html#ade06e27882a65a5fc8e93a3292cd12b6" target="_top" xlink:title="beseenium.view.outputHandlers.request\lHandlers.executeHandlers.RootExecuteHandler.handle\lRequest">
<polygon fill="white" stroke="black" points="719,-219.936 719,-260.936 998,-260.936 998,-219.936 719,-219.936"/>
<text text-anchor="start" x="727" y="-248.936" font-family="Helvetica,sans-Serif" font-size="10.00">beseenium.view.outputHandlers.request</text>
<text text-anchor="start" x="727" y="-237.936" font-family="Helvetica,sans-Serif" font-size="10.00">Handlers.executeHandlers.RootExecuteHandler.handle</text>
<text text-anchor="middle" x="858.5" y="-226.936" font-family="Helvetica,sans-Serif" font-size="10.00">Request</text>
</a>
</g>
</g>
<!-- Node3&#45;&gt;Node4 -->
<g id="edge3" class="edge"><title>Node3&#45;&gt;Node4</title>
<path fill="none" stroke="midnightblue" d="M686.671,-224.85C697.228,-225.813 708.07,-226.802 718.926,-227.793"/>
<polygon fill="midnightblue" stroke="midnightblue" points="686.923,-221.358 676.646,-223.935 686.287,-228.329 686.923,-221.358"/>
</g>
<!-- Node6 -->
<g id="node6" class="node"><title>Node6</title>
<g id="a_node6"><a xlink:href="a00123.html#a5d57a46df8465d2c40f22fd8cb037c9c" target="_top" xlink:title="takes the URL parameters passed to it from the BeSeeniumServlet and uses it to populate and run a Tes...">
<polygon fill="white" stroke="black" points="1034,-88.9362 1034,-107.936 1240,-107.936 1240,-88.9362 1034,-88.9362"/>
<text text-anchor="middle" x="1137" y="-95.9362" font-family="Helvetica,sans-Serif" font-size="10.00">beseenium.view.URLHandler.handleURL</text>
</a>
</g>
</g>
<!-- Node5&#45;&gt;Node6 -->
<g id="edge5" class="edge"><title>Node5&#45;&gt;Node6</title>
<path fill="none" stroke="midnightblue" d="M612.314,-136.181C639.208,-148.198 680.816,-164.744 719,-171.436 841.138,-192.842 877.652,-201.307 998,-171.436 1047.98,-159.031 1099.79,-124.828 1123.18,-108.017"/>
<polygon fill="midnightblue" stroke="midnightblue" points="613.656,-132.946 603.104,-131.985 610.753,-139.316 613.656,-132.946"/>
</g>
<!-- Node7 -->
<g id="node7" class="node"><title>Node7</title>
<g id="a_node7"><a xlink:href="a00123.html#ae0ec35bbb8622775c22687d68a8a830d" target="_top" xlink:title="takes an input from servlet(via handleURL method) in the form of string &#39;get&#39; URL parameter &#39;capabili...">
<polygon fill="white" stroke="black" points="764.5,-132.436 764.5,-162.436 952.5,-162.436 952.5,-132.436 764.5,-132.436"/>
<text text-anchor="start" x="772.5" y="-150.436" font-family="Helvetica,sans-Serif" font-size="10.00">beseenium.view.URLHandler.handle</text>
<text text-anchor="middle" x="858.5" y="-139.436" font-family="Helvetica,sans-Serif" font-size="10.00">Capabilities</text>
</a>
</g>
</g>
<!-- Node5&#45;&gt;Node7 -->
<g id="edge6" class="edge"><title>Node5&#45;&gt;Node7</title>
<path fill="none" stroke="midnightblue" d="M693.208,-132.446C716.751,-134.594 741.414,-136.844 764.263,-138.929"/>
<polygon fill="midnightblue" stroke="midnightblue" points="693.472,-128.956 683.195,-131.532 692.836,-135.927 693.472,-128.956"/>
</g>
<!-- Node8 -->
<g id="node8" class="node"><title>Node8</title>
<g id="a_node8"><a xlink:href="a00123.html#a7696fb55c864a910283e742115b7ed15" target="_top" xlink:title="takes an input from servlet(via handleURL method) in the form of string &#39;get&#39; URL parameter &#39;browser&#39;...">
<polygon fill="white" stroke="black" points="764.5,-83.4362 764.5,-113.436 952.5,-113.436 952.5,-83.4362 764.5,-83.4362"/>
<text text-anchor="start" x="772.5" y="-101.436" font-family="Helvetica,sans-Serif" font-size="10.00">beseenium.view.URLHandler.handle</text>
<text text-anchor="middle" x="858.5" y="-90.4362" font-family="Helvetica,sans-Serif" font-size="10.00">Browser</text>
</a>
</g>
</g>
<!-- Node5&#45;&gt;Node8 -->
<g id="edge8" class="edge"><title>Node5&#45;&gt;Node8</title>
<path fill="none" stroke="midnightblue" d="M693.208,-112.827C716.751,-110.765 741.414,-108.604 764.263,-106.603"/>
<polygon fill="midnightblue" stroke="midnightblue" points="692.852,-109.344 683.195,-113.704 693.463,-116.318 692.852,-109.344"/>
</g>
<!-- Node9 -->
<g id="node9" class="node"><title>Node9</title>
<g id="a_node9"><a xlink:href="a00123.html#aa2ec4a8ab58fee50c2a0a4ace58fd981" target="_top" xlink:title="takes an input from servlet(via handleURL method) in the form of string &#39;get&#39; URL parameter &#39;addActio...">
<polygon fill="white" stroke="black" points="764.5,-34.4362 764.5,-64.4362 952.5,-64.4362 952.5,-34.4362 764.5,-34.4362"/>
<text text-anchor="start" x="772.5" y="-52.4362" font-family="Helvetica,sans-Serif" font-size="10.00">beseenium.view.URLHandler.handle</text>
<text text-anchor="middle" x="858.5" y="-41.4362" font-family="Helvetica,sans-Serif" font-size="10.00">AddActions</text>
</a>
</g>
</g>
<!-- Node5&#45;&gt;Node9 -->
<g id="edge10" class="edge"><title>Node5&#45;&gt;Node9</title>
<path fill="none" stroke="midnightblue" d="M616.525,-109.043C643.675,-98.4457 683.339,-83.9044 719,-74.4362 733.524,-70.5801 749.062,-67.134 764.29,-64.1233"/>
<polygon fill="midnightblue" stroke="midnightblue" points="615.139,-105.827 607.12,-112.752 617.707,-112.339 615.139,-105.827"/>
</g>
<!-- Node7&#45;&gt;Node6 -->
<g id="edge7" class="edge"><title>Node7&#45;&gt;Node6</title>
<path fill="none" stroke="midnightblue" d="M954.208,-130.652C996.965,-123.075 1045.91,-114.401 1082.24,-107.964"/>
<polygon fill="midnightblue" stroke="midnightblue" points="953.574,-127.21 944.338,-132.402 954.796,-134.103 953.574,-127.21"/>
</g>
<!-- Node8&#45;&gt;Node6 -->
<g id="edge9" class="edge"><title>Node8&#45;&gt;Node6</title>
<path fill="none" stroke="midnightblue" d="M962.899,-98.4362C986.044,-98.4362 1010.58,-98.4362 1033.68,-98.4362"/>
<polygon fill="midnightblue" stroke="midnightblue" points="962.725,-94.9363 952.725,-98.4362 962.725,-101.936 962.725,-94.9363"/>
</g>
<!-- Node9&#45;&gt;Node6 -->
<g id="edge11" class="edge"><title>Node9&#45;&gt;Node6</title>
<path fill="none" stroke="midnightblue" d="M954.208,-66.2199C996.965,-73.7971 1045.91,-82.4709 1082.24,-88.9082"/>
<polygon fill="midnightblue" stroke="midnightblue" points="954.796,-62.7695 944.338,-64.4708 953.574,-69.6621 954.796,-62.7695"/>
</g>
<!-- Node10&#45;&gt;Node6 -->
<g id="edge13" class="edge"><title>Node10&#45;&gt;Node6</title>
<path fill="none" stroke="midnightblue" d="M426.294,-34.3841C549.867,-10.5526 796.765,24.5102 998,-25.4362 1047.98,-37.8414 1099.79,-72.0441 1123.18,-88.8553"/>
<polygon fill="midnightblue" stroke="midnightblue" points="425.31,-31.0102 416.168,-36.3653 426.654,-37.8799 425.31,-31.0102"/>
</g>
</g>
</svg>
