<?xml version="1.0" encoding="UTF-8" standalone="no"?>
<!DOCTYPE svg PUBLIC "-//W3C//DTD SVG 1.1//EN"
 "http://www.w3.org/Graphics/SVG/1.1/DTD/svg11.dtd">
<!-- Generated by graphviz version 2.38.0 (20140413.2041)
 -->
<!-- Title: beseenium.model.action.findElementsBy.FindElementsByTagName.execute Pages: 1 -->
<svg width="464pt" height="50pt"
 viewBox="0.00 0.00 464.00 50.00" xmlns="http://www.w3.org/2000/svg" xmlns:xlink="http://www.w3.org/1999/xlink">
<g id="graph0" class="graph" transform="scale(1 1) rotate(0) translate(4 46)">
<title>beseenium.model.action.findElementsBy.FindElementsByTagName.execute</title>
<polygon fill="white" stroke="none" points="-4,4 -4,-46 460,-46 460,4 -4,4"/>
<!-- Node1 -->
<g id="node1" class="node"><title>Node1</title>
<polygon fill="#bfbfbf" stroke="black" points="0,-6 0,-36 241,-36 241,-6 0,-6"/>
<text text-anchor="start" x="8" y="-24" font-family="Helvetica,sans-Serif" font-size="10.00">beseenium.model.action.find</text>
<text text-anchor="middle" x="120.5" y="-13" font-family="Helvetica,sans-Serif" font-size="10.00">ElementsBy.FindElementsByTagName.execute</text>
</g>
<!-- Node2 -->
<g id="node2" class="node"><title>Node2</title>
<g id="a_node2"><a xlink:href="a00050.html#a8898fc2ffd06b918766bf002823edbc0" target="_top" xlink:title="formats the output string of a findElementBy... ">
<polygon fill="white" stroke="black" points="277,-0.5 277,-41.5 456,-41.5 456,-0.5 277,-0.5"/>
<text text-anchor="start" x="285" y="-29.5" font-family="Helvetica,sans-Serif" font-size="10.00">beseenium.model.helpers.</text>
<text text-anchor="start" x="285" y="-18.5" font-family="Helvetica,sans-Serif" font-size="10.00">FormatOutput.formatFindElement</text>
<text text-anchor="middle" x="366.5" y="-7.5" font-family="Helvetica,sans-Serif" font-size="10.00">Output</text>
</a>
</g>
</g>
<!-- Node1&#45;&gt;Node2 -->
<g id="edge1" class="edge"><title>Node1&#45;&gt;Node2</title>
<path fill="none" stroke="midnightblue" d="M241.356,-21C249.838,-21 258.335,-21 266.681,-21"/>
<polygon fill="midnightblue" stroke="midnightblue" points="266.776,-24.5001 276.775,-21 266.775,-17.5001 266.776,-24.5001"/>
</g>
</g>
</svg>
