<?xml version="1.0" encoding="UTF-8" standalone="no"?>
<!DOCTYPE svg PUBLIC "-//W3C//DTD SVG 1.1//EN"
 "http://www.w3.org/Graphics/SVG/1.1/DTD/svg11.dtd">
<!-- Generated by graphviz version 2.38.0 (20140413.2041)
 -->
<!-- Title: beseenium.view.helpers.EmergencyShutdown.execute Pages: 1 -->
<svg width="511pt" height="50pt"
 viewBox="0.00 0.00 511.00 50.00" xmlns="http://www.w3.org/2000/svg" xmlns:xlink="http://www.w3.org/1999/xlink">
<g id="graph0" class="graph" transform="scale(1 1) rotate(0) translate(4 46)">
<title>beseenium.view.helpers.EmergencyShutdown.execute</title>
<polygon fill="white" stroke="none" points="-4,4 -4,-46 507,-46 507,4 -4,4"/>
<!-- Node1 -->
<g id="node1" class="node"><title>Node1</title>
<polygon fill="#bfbfbf" stroke="black" points="0,-6 0,-36 188,-36 188,-6 0,-6"/>
<text text-anchor="start" x="8" y="-24" font-family="Helvetica,sans-Serif" font-size="10.00">beseenium.view.helpers.Emergency</text>
<text text-anchor="middle" x="94" y="-13" font-family="Helvetica,sans-Serif" font-size="10.00">Shutdown.execute</text>
</g>
<!-- Node2 -->
<g id="node2" class="node"><title>Node2</title>
<g id="a_node2"><a xlink:href="a00107.html#ade06e27882a65a5fc8e93a3292cd12b6" target="_top" xlink:title="beseenium.view.outputHandlers.request\lHandlers.executeHandlers.RootExecuteHandler.handle\lRequest">
<polygon fill="white" stroke="black" points="224,-0.5 224,-41.5 503,-41.5 503,-0.5 224,-0.5"/>
<text text-anchor="start" x="232" y="-29.5" font-family="Helvetica,sans-Serif" font-size="10.00">beseenium.view.outputHandlers.request</text>
<text text-anchor="start" x="232" y="-18.5" font-family="Helvetica,sans-Serif" font-size="10.00">Handlers.executeHandlers.RootExecuteHandler.handle</text>
<text text-anchor="middle" x="363.5" y="-7.5" font-family="Helvetica,sans-Serif" font-size="10.00">Request</text>
</a>
</g>
</g>
<!-- Node1&#45;&gt;Node2 -->
<g id="edge1" class="edge"><title>Node1&#45;&gt;Node2</title>
<path fill="none" stroke="midnightblue" d="M198.355,-21C206.77,-21 215.355,-21 223.967,-21"/>
<polygon fill="midnightblue" stroke="midnightblue" points="198.183,-17.5001 188.183,-21 198.183,-24.5001 198.183,-17.5001"/>
</g>
</g>
</svg>
