<?xml version="1.0" encoding="UTF-8" standalone="no"?>
<!DOCTYPE svg PUBLIC "-//W3C//DTD SVG 1.1//EN"
 "http://www.w3.org/Graphics/SVG/1.1/DTD/svg11.dtd">
<!-- Generated by graphviz version 2.38.0 (20140413.2041)
 -->
<!-- Title: beseenium.view.inputHandlers.InputHandler.handleCapabilities Pages: 1 -->
<svg width="566pt" height="39pt"
 viewBox="0.00 0.00 566.00 39.00" xmlns="http://www.w3.org/2000/svg" xmlns:xlink="http://www.w3.org/1999/xlink">
<g id="graph0" class="graph" transform="scale(1 1) rotate(0) translate(4 35)">
<title>beseenium.view.inputHandlers.InputHandler.handleCapabilities</title>
<polygon fill="white" stroke="none" points="-4,4 -4,-35 562,-35 562,4 -4,4"/>
<!-- Node1 -->
<g id="node1" class="node"><title>Node1</title>
<polygon fill="#bfbfbf" stroke="black" points="0,-0.5 0,-30.5 168,-30.5 168,-0.5 0,-0.5"/>
<text text-anchor="start" x="8" y="-18.5" font-family="Helvetica,sans-Serif" font-size="10.00">beseenium.view.inputHandlers.</text>
<text text-anchor="middle" x="84" y="-7.5" font-family="Helvetica,sans-Serif" font-size="10.00">InputHandler.handleCapabilities</text>
</g>
<!-- Node2 -->
<g id="node2" class="node"><title>Node2</title>
<g id="a_node2"><a xlink:href="a00056.html#aa848fb1b618af2cdb2e61d296ba55dad" target="_top" xlink:title="Generates a map of string descriptors to requests from the given parameters, ending with a request to...">
<polygon fill="white" stroke="black" points="204,-0.5 204,-30.5 370,-30.5 370,-0.5 204,-0.5"/>
<text text-anchor="start" x="212" y="-18.5" font-family="Helvetica,sans-Serif" font-size="10.00">beseenium.view.inputHandlers.</text>
<text text-anchor="middle" x="287" y="-7.5" font-family="Helvetica,sans-Serif" font-size="10.00">InputHandler.handleInput</text>
</a>
</g>
</g>
<!-- Node1&#45;&gt;Node2 -->
<g id="edge1" class="edge"><title>Node1&#45;&gt;Node2</title>
<path fill="none" stroke="midnightblue" d="M178.479,-15.5C186.943,-15.5 195.473,-15.5 203.828,-15.5"/>
<polygon fill="midnightblue" stroke="midnightblue" points="178.205,-12.0001 168.205,-15.5 178.205,-19.0001 178.205,-12.0001"/>
</g>
<!-- Node3 -->
<g id="node3" class="node"><title>Node3</title>
<g id="a_node3"><a xlink:href="a00025.html#abfe1e13814420a006f1dc1d230260ed6" target="_top" xlink:title="Logger. ">
<polygon fill="white" stroke="black" points="406,-0.5 406,-30.5 558,-30.5 558,-0.5 406,-0.5"/>
<text text-anchor="start" x="414" y="-18.5" font-family="Helvetica,sans-Serif" font-size="10.00">beseenium.view.BeSeenium</text>
<text text-anchor="middle" x="482" y="-7.5" font-family="Helvetica,sans-Serif" font-size="10.00">Servlet.doGet</text>
</a>
</g>
</g>
<!-- Node2&#45;&gt;Node3 -->
<g id="edge2" class="edge"><title>Node2&#45;&gt;Node3</title>
<path fill="none" stroke="midnightblue" d="M380.225,-15.5C388.857,-15.5 397.535,-15.5 405.982,-15.5"/>
<polygon fill="midnightblue" stroke="midnightblue" points="380.129,-12.0001 370.129,-15.5 380.129,-19.0001 380.129,-12.0001"/>
</g>
</g>
</svg>
