<?xml version="1.0" encoding="UTF-8" standalone="no"?>
<!DOCTYPE svg PUBLIC "-//W3C//DTD SVG 1.1//EN"
 "http://www.w3.org/Graphics/SVG/1.1/DTD/svg11.dtd">
<!-- Generated by graphviz version 2.38.0 (20140413.2041)
 -->
<!-- Title: beseenium.model.ActionInvoker.add Pages: 1 -->
<!--zoomable 235 -->
<svg id="main" version="1.1" xmlns="http://www.w3.org/2000/svg" xmlns:xlink="http://www.w3.org/1999/xlink" xml:space="preserve" onload="init(evt)">
<style type="text/css"><![CDATA[
.edge:hover path { stroke: red; }
.edge:hover polygon { stroke: red; fill: red; }
]]></style>
<script type="text/javascript"><![CDATA[
var edges = document.getElementsByTagName('g');
if (edges && edges.length) {
  for (var i=0;i<edges.length;i++) {
    if (edges[i].id.substr(0,4)=='edge') {
      edges[i].setAttribute('class','edge');
    }
  }
}
]]></script>
        <defs>
                <circle id="rim" cx="0" cy="0" r="7"/>
                <circle id="rim2" cx="0" cy="0" r="3.5"/>
                <g id="zoomPlus">
                        <use xlink:href="#rim" fill="#404040">
                                <set attributeName="fill" to="#808080" begin="zoomplus.mouseover" end="zoomplus.mouseout"/>
                        </use>
                        <path d="M-4,0h8M0,-4v8" fill="none" stroke="white" stroke-width="1.5" pointer-events="none"/>
                </g>
                <g id="zoomMin">
                        <use xlink:href="#rim" fill="#404040">
                                <set attributeName="fill" to="#808080" begin="zoomminus.mouseover" end="zoomminus.mouseout"/>
                        </use>
                        <path d="M-4,0h8" fill="none" stroke="white" stroke-width="1.5" pointer-events="none"/>
                </g>
                <g id="dirArrow">
                        <path fill="none" stroke="white" stroke-width="1.5" d="M0,-3.0v7 M-2.5,-0.5L0,-3.0L2.5,-0.5"/>
                </g>
               <g id="resetDef">
                       <use xlink:href="#rim2" fill="#404040">
                               <set attributeName="fill" to="#808080" begin="reset.mouseover" end="reset.mouseout"/>
                       </use>
               </g>
        </defs>

<script type="text/javascript">
var viewWidth = 1227;
var viewHeight = 235;
var sectionId = 'dynsection-1';
</script>
<script xlink:href="svgpan.js"/>
<svg id="graph" class="graph">
<g id="viewport">
<title>beseenium.model.ActionInvoker.add</title>
<polygon fill="white" stroke="none" points="-4,4 -4,-231.5 1223,-231.5 1223,4 -4,4"/>
<!-- Node1 -->
<g id="node1" class="node"><title>Node1</title>
<polygon fill="#bfbfbf" stroke="black" points="0,-155.5 0,-174.5 191,-174.5 191,-155.5 0,-155.5"/>
<text text-anchor="middle" x="95.5" y="-162.5" font-family="Helvetica,sans-Serif" font-size="10.00">beseenium.model.ActionInvoker.add</text>
</g>
<!-- Node2 -->
<g id="node2" class="node"><title>Node2</title>
<g id="a_node2"><a xlink:href="a00126.html#a47938d96708f66fa5342e9377c8b5171" target="_top" xlink:title="Add an action to this test. ">
<polygon fill="white" stroke="black" points="245,-178 245,-208 407,-208 407,-178 245,-178"/>
<text text-anchor="start" x="253" y="-196" font-family="Helvetica,sans-Serif" font-size="10.00">beseenium.controller.Test.add</text>
<text text-anchor="middle" x="326" y="-185" font-family="Helvetica,sans-Serif" font-size="10.00">Action</text>
</a>
</g>
</g>
<!-- Node1&#45;&gt;Node2 -->
<g id="edge1" class="edge"><title>Node1&#45;&gt;Node2</title>
<path fill="none" stroke="midnightblue" d="M184.175,-175.744C204.116,-178.187 225.2,-180.771 244.811,-183.174"/>
<polygon fill="midnightblue" stroke="midnightblue" points="184.53,-172.261 174.179,-174.519 183.679,-179.209 184.53,-172.261"/>
</g>
<!-- Node5 -->
<g id="node5" class="node"><title>Node5</title>
<g id="a_node5"><a xlink:href="a00126.html#a30550c4174a00b79dcb3c09b37eb925f" target="_top" xlink:title="remove all actions from this test and close the browser instance associated with it. ">
<polygon fill="white" stroke="black" points="227,-123 227,-153 425,-153 425,-123 227,-123"/>
<text text-anchor="start" x="235" y="-141" font-family="Helvetica,sans-Serif" font-size="10.00">beseenium.controller.Test.emergency</text>
<text text-anchor="middle" x="326" y="-130" font-family="Helvetica,sans-Serif" font-size="10.00">Shutdown</text>
</a>
</g>
</g>
<!-- Node1&#45;&gt;Node5 -->
<g id="edge4" class="edge"><title>Node1&#45;&gt;Node5</title>
<path fill="none" stroke="midnightblue" d="M187.341,-154.266C200.289,-152.736 213.655,-151.157 226.737,-149.611"/>
<polygon fill="midnightblue" stroke="midnightblue" points="186.581,-150.831 177.061,-155.481 187.402,-157.783 186.581,-150.831"/>
</g>
<!-- Node3 -->
<g id="node3" class="node"><title>Node3</title>
<g id="a_node3"><a xlink:href="a00128.html#aa2ec4a8ab58fee50c2a0a4ace58fd981" target="_top" xlink:title="takes an input from servlet(via handleURL method) in the form of string &#39;get&#39; URL parameter &#39;addActio...">
<polygon fill="white" stroke="black" points="743.5,-197 743.5,-227 931.5,-227 931.5,-197 743.5,-197"/>
<text text-anchor="start" x="751.5" y="-215" font-family="Helvetica,sans-Serif" font-size="10.00">beseenium.view.URLHandler.handle</text>
<text text-anchor="middle" x="837.5" y="-204" font-family="Helvetica,sans-Serif" font-size="10.00">AddActions</text>
</a>
</g>
</g>
<!-- Node2&#45;&gt;Node3 -->
<g id="edge2" class="edge"><title>Node2&#45;&gt;Node3</title>
<path fill="none" stroke="midnightblue" d="M417.278,-196.367C509.069,-199.79 650.623,-205.068 743.414,-208.529"/>
<polygon fill="midnightblue" stroke="midnightblue" points="417.293,-192.865 407.17,-195.99 417.032,-199.86 417.293,-192.865"/>
</g>
<!-- Node4 -->
<g id="node4" class="node"><title>Node4</title>
<g id="a_node4"><a xlink:href="a00128.html#a5d57a46df8465d2c40f22fd8cb037c9c" target="_top" xlink:title="takes the URL parameters passed to it from the BeSeeniumServlet and uses it to populate and run a Tes...">
<polygon fill="white" stroke="black" points="1013,-128.5 1013,-147.5 1219,-147.5 1219,-128.5 1013,-128.5"/>
<text text-anchor="middle" x="1116" y="-135.5" font-family="Helvetica,sans-Serif" font-size="10.00">beseenium.view.URLHandler.handleURL</text>
</a>
</g>
</g>
<!-- Node3&#45;&gt;Node4 -->
<g id="edge3" class="edge"><title>Node3&#45;&gt;Node4</title>
<path fill="none" stroke="midnightblue" d="M941.736,-195.283C953.689,-192.782 965.655,-190.017 977,-187 1018.03,-176.09 1064.26,-158.562 1091.44,-147.693"/>
<polygon fill="midnightblue" stroke="midnightblue" points="940.814,-191.899 931.712,-197.322 942.209,-198.758 940.814,-191.899"/>
</g>
<!-- Node6 -->
<g id="node6" class="node"><title>Node6</title>
<g id="a_node6"><a xlink:href="a00042.html#a2413846626263a20383c8341d7dd2e47" target="_top" xlink:title="in case something goes wrong the test should be able to shut down the current browser instance...">
<polygon fill="white" stroke="black" points="467.5,-55 467.5,-85 655.5,-85 655.5,-55 467.5,-55"/>
<text text-anchor="start" x="475.5" y="-73" font-family="Helvetica,sans-Serif" font-size="10.00">beseenium.view.helpers.Emergency</text>
<text text-anchor="middle" x="561.5" y="-62" font-family="Helvetica,sans-Serif" font-size="10.00">Shutdown.execute</text>
</a>
</g>
</g>
<!-- Node5&#45;&gt;Node6 -->
<g id="edge5" class="edge"><title>Node5&#45;&gt;Node6</title>
<path fill="none" stroke="midnightblue" d="M388.319,-120.143C425.77,-109.236 473.13,-95.4439 508.697,-85.0861"/>
<polygon fill="midnightblue" stroke="midnightblue" points="387.154,-116.836 378.532,-122.993 389.111,-123.557 387.154,-116.836"/>
</g>
<!-- Node8 -->
<g id="node8" class="node"><title>Node8</title>
<g id="a_node8"><a xlink:href="a00128.html#ab3a029a7ca30c5f8a0344c4634b9daf0" target="_top" xlink:title="in case something goes wrong the test should be able to shut down the current browser instance...">
<polygon fill="white" stroke="black" points="461,-128.5 461,-147.5 662,-147.5 662,-128.5 461,-128.5"/>
<text text-anchor="middle" x="561.5" y="-135.5" font-family="Helvetica,sans-Serif" font-size="10.00">beseenium.view.URLHandler.shutdown</text>
</a>
</g>
</g>
<!-- Node5&#45;&gt;Node8 -->
<g id="edge7" class="edge"><title>Node5&#45;&gt;Node8</title>
<path fill="none" stroke="midnightblue" d="M435.066,-138C443.666,-138 452.329,-138 460.867,-138"/>
<polygon fill="midnightblue" stroke="midnightblue" points="435.01,-134.5 425.01,-138 435.01,-141.5 435.01,-134.5"/>
</g>
<!-- Node7 -->
<g id="node7" class="node"><title>Node7</title>
<g id="a_node7"><a xlink:href="a00119.html#ade06e27882a65a5fc8e93a3292cd12b6" target="_top" xlink:title="beseenium.view.outputHandlers.request\lHandlers.executeHandlers.RootExecuteHandler.handle\lRequest">
<polygon fill="white" stroke="black" points="698,-0.5 698,-41.5 977,-41.5 977,-0.5 698,-0.5"/>
<text text-anchor="start" x="706" y="-29.5" font-family="Helvetica,sans-Serif" font-size="10.00">beseenium.view.outputHandlers.request</text>
<text text-anchor="start" x="706" y="-18.5" font-family="Helvetica,sans-Serif" font-size="10.00">Handlers.executeHandlers.RootExecuteHandler.handle</text>
<text text-anchor="middle" x="837.5" y="-7.5" font-family="Helvetica,sans-Serif" font-size="10.00">Request</text>
</a>
</g>
</g>
<!-- Node6&#45;&gt;Node7 -->
<g id="edge6" class="edge"><title>Node6&#45;&gt;Node7</title>
<path fill="none" stroke="midnightblue" d="M656.446,-53.1995C677.487,-49.4366 700.037,-45.404 721.813,-41.5097"/>
<polygon fill="midnightblue" stroke="midnightblue" points="655.799,-49.7596 646.571,-54.9654 657.031,-56.6503 655.799,-49.7596"/>
</g>
<!-- Node8&#45;&gt;Node3 -->
<g id="edge13" class="edge"><title>Node8&#45;&gt;Node3</title>
<path fill="none" stroke="midnightblue" d="M594.522,-151.314C621.674,-162.181 661.856,-177.277 698,-187 712.511,-190.904 728.043,-194.374 743.268,-197.395"/>
<polygon fill="midnightblue" stroke="midnightblue" points="595.722,-148.024 585.14,-147.519 593.098,-154.513 595.722,-148.024"/>
</g>
<!-- Node8&#45;&gt;Node4 -->
<g id="edge8" class="edge"><title>Node8&#45;&gt;Node4</title>
<path fill="none" stroke="midnightblue" d="M591.811,-124.331C618.74,-112.575 660.103,-96.5141 698,-90 820.208,-68.9939 854.733,-69.3431 977,-90 1020.27,-97.3105 1068.08,-116.661 1094.53,-128.44"/>
<polygon fill="midnightblue" stroke="midnightblue" points="590.288,-121.177 582.576,-128.441 593.135,-127.572 590.288,-121.177"/>
</g>
<!-- Node9 -->
<g id="node9" class="node"><title>Node9</title>
<g id="a_node9"><a xlink:href="a00128.html#ae0ec35bbb8622775c22687d68a8a830d" target="_top" xlink:title="takes an input from servlet(via handleURL method) in the form of string &#39;get&#39; URL parameter &#39;capabili...">
<polygon fill="white" stroke="black" points="743.5,-148 743.5,-178 931.5,-178 931.5,-148 743.5,-148"/>
<text text-anchor="start" x="751.5" y="-166" font-family="Helvetica,sans-Serif" font-size="10.00">beseenium.view.URLHandler.handle</text>
<text text-anchor="middle" x="837.5" y="-155" font-family="Helvetica,sans-Serif" font-size="10.00">Capabilities</text>
</a>
</g>
</g>
<!-- Node8&#45;&gt;Node9 -->
<g id="edge9" class="edge"><title>Node8&#45;&gt;Node9</title>
<path fill="none" stroke="midnightblue" d="M672.208,-148.01C695.751,-150.158 720.414,-152.408 743.263,-154.493"/>
<polygon fill="midnightblue" stroke="midnightblue" points="672.472,-144.519 662.195,-147.096 671.836,-151.491 672.472,-144.519"/>
</g>
<!-- Node10 -->
<g id="node10" class="node"><title>Node10</title>
<g id="a_node10"><a xlink:href="a00128.html#a7696fb55c864a910283e742115b7ed15" target="_top" xlink:title="takes an input from servlet(via handleURL method) in the form of string &#39;get&#39; URL parameter &#39;browser&#39;...">
<polygon fill="white" stroke="black" points="743.5,-99 743.5,-129 931.5,-129 931.5,-99 743.5,-99"/>
<text text-anchor="start" x="751.5" y="-117" font-family="Helvetica,sans-Serif" font-size="10.00">beseenium.view.URLHandler.handle</text>
<text text-anchor="middle" x="837.5" y="-106" font-family="Helvetica,sans-Serif" font-size="10.00">Browser</text>
</a>
</g>
</g>
<!-- Node8&#45;&gt;Node10 -->
<g id="edge11" class="edge"><title>Node8&#45;&gt;Node10</title>
<path fill="none" stroke="midnightblue" d="M672.208,-128.391C695.751,-126.328 720.414,-124.168 743.263,-122.167"/>
<polygon fill="midnightblue" stroke="midnightblue" points="671.852,-124.908 662.195,-129.268 672.463,-131.882 671.852,-124.908"/>
</g>
<!-- Node9&#45;&gt;Node4 -->
<g id="edge10" class="edge"><title>Node9&#45;&gt;Node4</title>
<path fill="none" stroke="midnightblue" d="M941.899,-153.651C965.044,-151.558 989.584,-149.34 1012.68,-147.251"/>
<polygon fill="midnightblue" stroke="midnightblue" points="941.369,-150.185 931.725,-154.571 941.999,-157.156 941.369,-150.185"/>
</g>
<!-- Node10&#45;&gt;Node4 -->
<g id="edge12" class="edge"><title>Node10&#45;&gt;Node4</title>
<path fill="none" stroke="midnightblue" d="M941.899,-122.975C965.044,-124.984 989.584,-127.114 1012.68,-129.119"/>
<polygon fill="midnightblue" stroke="midnightblue" points="941.99,-119.47 931.725,-122.092 941.385,-126.444 941.99,-119.47"/>
</g>
</g>
</svg>
        <g id="navigator" transform="translate(0 0)" fill="#404254">
                <rect fill="#f2f5e9" fill-opacity="0.5" stroke="#606060" stroke-width=".5" x="0" y="0" width="60" height="60"/>
                <use id="zoomplus" xlink:href="#zoomPlus" x="17" y="9" onmousedown="handleZoom(evt,'in')"/>
                <use id="zoomminus" xlink:href="#zoomMin" x="42" y="9" onmousedown="handleZoom(evt,'out')"/>
                <use id="reset" xlink:href="#resetDef" x="30" y="36" onmousedown="handleReset()"/>
                <g id="arrowUp" xlink:href="#dirArrow" transform="translate(30 24)" onmousedown="handlePan(0,-1)">
                  <use xlink:href="#rim" fill="#404040">
                        <set attributeName="fill" to="#808080" begin="arrowUp.mouseover" end="arrowUp.mouseout"/>
                  </use>
                  <path fill="none" stroke="white" stroke-width="1.5" d="M0,-3.0v7 M-2.5,-0.5L0,-3.0L2.5,-0.5"/>
                </g>
                <g id="arrowRight" xlink:href="#dirArrow" transform="rotate(90) translate(36 -43)" onmousedown="handlePan(1,0)">
                  <use xlink:href="#rim" fill="#404040">
                        <set attributeName="fill" to="#808080" begin="arrowRight.mouseover" end="arrowRight.mouseout"/>
                  </use>
                  <path fill="none" stroke="white" stroke-width="1.5" d="M0,-3.0v7 M-2.5,-0.5L0,-3.0L2.5,-0.5"/>
                </g>
                <g id="arrowDown" xlink:href="#dirArrow" transform="rotate(180) translate(-30 -48)" onmousedown="handlePan(0,1)">
                  <use xlink:href="#rim" fill="#404040">
                        <set attributeName="fill" to="#808080" begin="arrowDown.mouseover" end="arrowDown.mouseout"/>
                  </use>
                  <path fill="none" stroke="white" stroke-width="1.5" d="M0,-3.0v7 M-2.5,-0.5L0,-3.0L2.5,-0.5"/>
                </g>
                <g id="arrowLeft" xlink:href="#dirArrow" transform="rotate(270) translate(-36 17)" onmousedown="handlePan(-1,0)">
                  <use xlink:href="#rim" fill="#404040">
                        <set attributeName="fill" to="#808080" begin="arrowLeft.mouseover" end="arrowLeft.mouseout"/>
                  </use>
                  <path fill="none" stroke="white" stroke-width="1.5" d="M0,-3.0v7 M-2.5,-0.5L0,-3.0L2.5,-0.5"/>
                </g>
        </g>
        <svg viewBox="0 0 15 15" width="100%" height="30px" preserveAspectRatio="xMaxYMin meet">
         <g id="arrow_out" transform="scale(0.3 0.3)">
          <a xlink:href="a00026_abf329444fb06b3cf9b4dc5c0a11832b2_icgraph_org.svg" target="_base">
           <rect id="button" ry="5" rx="5" y="6" x="6" height="38" width="38"
                fill="#f2f5e9" fill-opacity="0.5" stroke="#606060" stroke-width="1.0"/>
           <path id="arrow"
             d="M 11.500037,31.436501 C 11.940474,20.09759 22.043105,11.32322 32.158766,21.979434 L 37.068811,17.246167 C 37.068811,17.246167 37.088388,32 37.088388,32 L 22.160133,31.978069 C 22.160133,31.978069 26.997745,27.140456 26.997745,27.140456 C 18.528582,18.264221 13.291696,25.230495 11.500037,31.436501 z"
             style="fill:#404040;"/>
          </a>
         </g>
        </svg>
</svg>
