<?xml version="1.0" encoding="UTF-8" standalone="no"?>
<!DOCTYPE svg PUBLIC "-//W3C//DTD SVG 1.1//EN"
 "http://www.w3.org/Graphics/SVG/1.1/DTD/svg11.dtd">
<!-- Generated by graphviz version 2.38.0 (20140413.2041)
 -->
<!-- Title: beseenium.view.outputHandlers.requestHandlers.AbstractRequestHandler.handleRequest Pages: 1 -->
<svg width="620pt" height="50pt"
 viewBox="0.00 0.00 620.00 50.00" xmlns="http://www.w3.org/2000/svg" xmlns:xlink="http://www.w3.org/1999/xlink">
<g id="graph0" class="graph" transform="scale(1 1) rotate(0) translate(4 46)">
<title>beseenium.view.outputHandlers.requestHandlers.AbstractRequestHandler.handleRequest</title>
<polygon fill="white" stroke="none" points="-4,4 -4,-46 616,-46 616,4 -4,4"/>
<!-- Node1 -->
<g id="node1" class="node"><title>Node1</title>
<polygon fill="#bfbfbf" stroke="black" points="0,-0.5 0,-41.5 215,-41.5 215,-0.5 0,-0.5"/>
<text text-anchor="start" x="8" y="-29.5" font-family="Helvetica,sans-Serif" font-size="10.00">beseenium.view.outputHandlers.request</text>
<text text-anchor="start" x="8" y="-18.5" font-family="Helvetica,sans-Serif" font-size="10.00">Handlers.AbstractRequestHandler.handle</text>
<text text-anchor="middle" x="107.5" y="-7.5" font-family="Helvetica,sans-Serif" font-size="10.00">Request</text>
</g>
<!-- Node2 -->
<g id="node2" class="node"><title>Node2</title>
<g id="a_node2"><a xlink:href="a00101.html#a14c42c61c198c440e8315d7f3694a876" target="_top" xlink:title="beseenium.view.outputHandlers.\lOutputHandler.handleRequests">
<polygon fill="white" stroke="black" points="251,-6 251,-36 424,-36 424,-6 251,-6"/>
<text text-anchor="start" x="259" y="-24" font-family="Helvetica,sans-Serif" font-size="10.00">beseenium.view.outputHandlers.</text>
<text text-anchor="middle" x="337.5" y="-13" font-family="Helvetica,sans-Serif" font-size="10.00">OutputHandler.handleRequests</text>
</a>
</g>
</g>
<!-- Node1&#45;&gt;Node2 -->
<g id="edge1" class="edge"><title>Node1&#45;&gt;Node2</title>
<path fill="none" stroke="midnightblue" d="M225.243,-21C233.837,-21 242.41,-21 250.766,-21"/>
<polygon fill="midnightblue" stroke="midnightblue" points="225.157,-17.5001 215.157,-21 225.157,-24.5001 225.157,-17.5001"/>
</g>
<!-- Node3 -->
<g id="node3" class="node"><title>Node3</title>
<g id="a_node3"><a xlink:href="a00023.html#abfe1e13814420a006f1dc1d230260ed6" target="_top" xlink:title="Logger. ">
<polygon fill="white" stroke="black" points="460,-6 460,-36 612,-36 612,-6 460,-6"/>
<text text-anchor="start" x="468" y="-24" font-family="Helvetica,sans-Serif" font-size="10.00">beseenium.view.BeSeenium</text>
<text text-anchor="middle" x="536" y="-13" font-family="Helvetica,sans-Serif" font-size="10.00">Servlet.doGet</text>
</a>
</g>
</g>
<!-- Node2&#45;&gt;Node3 -->
<g id="edge2" class="edge"><title>Node2&#45;&gt;Node3</title>
<path fill="none" stroke="midnightblue" d="M434.195,-21C442.805,-21 451.441,-21 459.838,-21"/>
<polygon fill="midnightblue" stroke="midnightblue" points="434.116,-17.5001 424.116,-21 434.116,-24.5001 434.116,-17.5001"/>
</g>
</g>
</svg>
