<?xml version="1.0" encoding="UTF-8" standalone="no"?>
<!DOCTYPE svg PUBLIC "-//W3C//DTD SVG 1.1//EN"
 "http://www.w3.org/Graphics/SVG/1.1/DTD/svg11.dtd">
<!-- Generated by graphviz version 2.38.0 (20140413.2041)
 -->
<!-- Title: beseenium.model.ActionInvoker.execute Pages: 1 -->
<svg width="435pt" height="186pt"
 viewBox="0.00 0.00 435.00 186.00" xmlns="http://www.w3.org/2000/svg" xmlns:xlink="http://www.w3.org/1999/xlink">
<g id="graph0" class="graph" transform="scale(1 1) rotate(0) translate(4 182)">
<title>beseenium.model.ActionInvoker.execute</title>
<polygon fill="white" stroke="none" points="-4,4 -4,-182 431,-182 431,4 -4,4"/>
<!-- Node1 -->
<g id="node1" class="node"><title>Node1</title>
<polygon fill="#bfbfbf" stroke="black" points="0,-79 0,-98 212,-98 212,-79 0,-79"/>
<text text-anchor="middle" x="106" y="-86" font-family="Helvetica,sans-Serif" font-size="10.00">beseenium.model.ActionInvoker.execute</text>
</g>
<!-- Node2 -->
<g id="node2" class="node"><title>Node2</title>
<g id="a_node2"><a xlink:href="a00007.html#a24e2b60937596ecd18cd17cfe7595c5d" target="_top" xlink:title="execute the derived Action in question, ">
<polygon fill="white" stroke="black" points="248,-147.5 248,-177.5 427,-177.5 427,-147.5 248,-147.5"/>
<text text-anchor="start" x="256" y="-165.5" font-family="Helvetica,sans-Serif" font-size="10.00">beseenium.model.action.Abstract</text>
<text text-anchor="middle" x="337.5" y="-154.5" font-family="Helvetica,sans-Serif" font-size="10.00">Action.execute</text>
</a>
</g>
</g>
<!-- Node1&#45;&gt;Node2 -->
<g id="edge1" class="edge"><title>Node1&#45;&gt;Node2</title>
<path fill="none" stroke="midnightblue" d="M133.093,-98.0871C161.278,-108.321 207.583,-124.781 248,-137.5 255.579,-139.885 263.556,-142.288 271.489,-144.611"/>
<polygon fill="midnightblue" stroke="midnightblue" points="270.536,-147.979 281.115,-147.398 272.484,-141.255 270.536,-147.979"/>
</g>
<!-- Node3 -->
<g id="node3" class="node"><title>Node3</title>
<g id="a_node3"><a xlink:href="a00007.html#a1dade057d9cb3bfecefdb716aae91d33" target="_top" xlink:title="get the ActionData object stored in the derived Action ">
<polygon fill="white" stroke="black" points="248,-98.5 248,-128.5 427,-128.5 427,-98.5 248,-98.5"/>
<text text-anchor="start" x="256" y="-116.5" font-family="Helvetica,sans-Serif" font-size="10.00">beseenium.model.action.Abstract</text>
<text text-anchor="middle" x="337.5" y="-105.5" font-family="Helvetica,sans-Serif" font-size="10.00">Action.getActionData</text>
</a>
</g>
</g>
<!-- Node1&#45;&gt;Node3 -->
<g id="edge2" class="edge"><title>Node1&#45;&gt;Node3</title>
<path fill="none" stroke="midnightblue" d="M194.419,-98.0227C208.485,-99.5551 223.134,-101.151 237.45,-102.71"/>
<polygon fill="midnightblue" stroke="midnightblue" points="237.482,-106.234 247.803,-103.838 238.241,-99.2756 237.482,-106.234"/>
</g>
<!-- Node4 -->
<g id="node4" class="node"><title>Node4</title>
<g id="a_node4"><a xlink:href="a00011.html#a1cbbd813f07556de640f8f3b3f03587a" target="_top" xlink:title="Sets the WebDriver associated with this ActionData. ">
<polygon fill="white" stroke="black" points="257,-49.5 257,-79.5 418,-79.5 418,-49.5 257,-49.5"/>
<text text-anchor="start" x="265" y="-67.5" font-family="Helvetica,sans-Serif" font-size="10.00">beseenium.model.actionData.</text>
<text text-anchor="middle" x="337.5" y="-56.5" font-family="Helvetica,sans-Serif" font-size="10.00">ActionData.setDriver</text>
</a>
</g>
</g>
<!-- Node1&#45;&gt;Node4 -->
<g id="edge3" class="edge"><title>Node1&#45;&gt;Node4</title>
<path fill="none" stroke="midnightblue" d="M198.034,-78.9801C213.946,-77.3161 230.495,-75.5855 246.382,-73.9241"/>
<polygon fill="midnightblue" stroke="midnightblue" points="247.132,-77.3649 256.713,-72.8437 246.403,-70.4029 247.132,-77.3649"/>
</g>
<!-- Node5 -->
<g id="node5" class="node"><title>Node5</title>
<g id="a_node5"><a xlink:href="a00011.html#a0825a9ec5bee8b6de8e7b244d991c04d" target="_top" xlink:title="this method sets the value of the input parameter. ">
<polygon fill="white" stroke="black" points="257,-0.5 257,-30.5 418,-30.5 418,-0.5 257,-0.5"/>
<text text-anchor="start" x="265" y="-18.5" font-family="Helvetica,sans-Serif" font-size="10.00">beseenium.model.actionData.</text>
<text text-anchor="middle" x="337.5" y="-7.5" font-family="Helvetica,sans-Serif" font-size="10.00">ActionData.setInputParam</text>
</a>
</g>
</g>
<!-- Node1&#45;&gt;Node5 -->
<g id="edge4" class="edge"><title>Node1&#45;&gt;Node5</title>
<path fill="none" stroke="midnightblue" d="M133.631,-78.9652C161.879,-68.9617 207.878,-52.9868 248,-40.5 255.695,-38.1052 263.796,-35.6828 271.844,-33.3369"/>
<polygon fill="midnightblue" stroke="midnightblue" points="272.966,-36.6559 281.604,-30.5202 271.025,-29.9304 272.966,-36.6559"/>
</g>
</g>
</svg>
