<?xml version="1.0" encoding="UTF-8" standalone="no"?>
<!DOCTYPE svg PUBLIC "-//W3C//DTD SVG 1.1//EN"
 "http://www.w3.org/Graphics/SVG/1.1/DTD/svg11.dtd">
<!-- Generated by graphviz version 2.38.0 (20140413.2041)
 -->
<!-- Title: beseenium.controller.ActionDataFactory.ActionDataFactory.setCapabilities Pages: 1 -->
<svg width="883pt" height="50pt"
 viewBox="0.00 0.00 883.00 50.00" xmlns="http://www.w3.org/2000/svg" xmlns:xlink="http://www.w3.org/1999/xlink">
<g id="graph0" class="graph" transform="scale(1 1) rotate(0) translate(4 46)">
<title>beseenium.controller.ActionDataFactory.ActionDataFactory.setCapabilities</title>
<polygon fill="white" stroke="none" points="-4,4 -4,-46 879,-46 879,4 -4,4"/>
<!-- Node1 -->
<g id="node1" class="node"><title>Node1</title>
<polygon fill="#bfbfbf" stroke="black" points="0,-0.5 0,-41.5 185,-41.5 185,-0.5 0,-0.5"/>
<text text-anchor="start" x="8" y="-29.5" font-family="Helvetica,sans-Serif" font-size="10.00">beseenium.controller.Action</text>
<text text-anchor="start" x="8" y="-18.5" font-family="Helvetica,sans-Serif" font-size="10.00">DataFactory.ActionDataFactory.set</text>
<text text-anchor="middle" x="92.5" y="-7.5" font-family="Helvetica,sans-Serif" font-size="10.00">Capabilities</text>
</g>
<!-- Node2 -->
<g id="node2" class="node"><title>Node2</title>
<g id="a_node2"><a xlink:href="a00121.html#a89397b4d1c9e1e78d0333e2ccd388e28" target="_top" xlink:title="When using a &#39;remote&#39; Driver set a capability of the driver i.e. ">
<polygon fill="white" stroke="black" points="221,-6 221,-36 409,-36 409,-6 221,-6"/>
<text text-anchor="start" x="229" y="-24" font-family="Helvetica,sans-Serif" font-size="10.00">beseenium.controller.Test.configure</text>
<text text-anchor="middle" x="315" y="-13" font-family="Helvetica,sans-Serif" font-size="10.00">RemoteDriver</text>
</a>
</g>
</g>
<!-- Node1&#45;&gt;Node2 -->
<g id="edge1" class="edge"><title>Node1&#45;&gt;Node2</title>
<path fill="none" stroke="midnightblue" d="M195.137,-21C203.729,-21 212.391,-21 220.913,-21"/>
<polygon fill="midnightblue" stroke="midnightblue" points="195.096,-17.5001 185.096,-21 195.096,-24.5001 195.096,-17.5001"/>
</g>
<!-- Node3 -->
<g id="node3" class="node"><title>Node3</title>
<g id="a_node3"><a xlink:href="a00123.html#ae0ec35bbb8622775c22687d68a8a830d" target="_top" xlink:title="takes an input from servlet(via handleURL method) in the form of string &#39;get&#39; URL parameter &#39;capabili...">
<polygon fill="white" stroke="black" points="445,-6 445,-36 633,-36 633,-6 445,-6"/>
<text text-anchor="start" x="453" y="-24" font-family="Helvetica,sans-Serif" font-size="10.00">beseenium.view.URLHandler.handle</text>
<text text-anchor="middle" x="539" y="-13" font-family="Helvetica,sans-Serif" font-size="10.00">Capabilities</text>
</a>
</g>
</g>
<!-- Node2&#45;&gt;Node3 -->
<g id="edge2" class="edge"><title>Node2&#45;&gt;Node3</title>
<path fill="none" stroke="midnightblue" d="M419.425,-21C427.857,-21 436.347,-21 444.7,-21"/>
<polygon fill="midnightblue" stroke="midnightblue" points="419.183,-17.5001 409.183,-21 419.183,-24.5001 419.183,-17.5001"/>
</g>
<!-- Node4 -->
<g id="node4" class="node"><title>Node4</title>
<g id="a_node4"><a xlink:href="a00123.html#a5d57a46df8465d2c40f22fd8cb037c9c" target="_top" xlink:title="takes the URL parameters passed to it from the BeSeeniumServlet and uses it to populate and run a Tes...">
<polygon fill="white" stroke="black" points="669,-11.5 669,-30.5 875,-30.5 875,-11.5 669,-11.5"/>
<text text-anchor="middle" x="772" y="-18.5" font-family="Helvetica,sans-Serif" font-size="10.00">beseenium.view.URLHandler.handleURL</text>
</a>
</g>
</g>
<!-- Node3&#45;&gt;Node4 -->
<g id="edge3" class="edge"><title>Node3&#45;&gt;Node4</title>
<path fill="none" stroke="midnightblue" d="M643.456,-21C651.834,-21 660.297,-21 668.667,-21"/>
<polygon fill="midnightblue" stroke="midnightblue" points="643.291,-17.5001 633.291,-21 643.291,-24.5001 643.291,-17.5001"/>
</g>
</g>
</svg>
