<?xml version="1.0" encoding="UTF-8" standalone="no"?>
<!DOCTYPE svg PUBLIC "-//W3C//DTD SVG 1.1//EN"
 "http://www.w3.org/Graphics/SVG/1.1/DTD/svg11.dtd">
<!-- Generated by graphviz version 2.38.0 (20140413.2041)
 -->
<!-- Title: beseenium.view.outputHandlers.compositors.ExecuteCompositor.format Pages: 1 -->
<svg width="507pt" height="88pt"
 viewBox="0.00 0.00 507.00 88.00" xmlns="http://www.w3.org/2000/svg" xmlns:xlink="http://www.w3.org/1999/xlink">
<g id="graph0" class="graph" transform="scale(1 1) rotate(0) translate(4 84)">
<title>beseenium.view.outputHandlers.compositors.ExecuteCompositor.format</title>
<polygon fill="white" stroke="none" points="-4,4 -4,-84 503,-84 503,4 -4,4"/>
<!-- Node1 -->
<g id="node1" class="node"><title>Node1</title>
<polygon fill="#bfbfbf" stroke="black" points="0,-24.5 0,-54.5 236,-54.5 236,-24.5 0,-24.5"/>
<text text-anchor="start" x="8" y="-42.5" font-family="Helvetica,sans-Serif" font-size="10.00">beseenium.view.outputHandlers.compositors.</text>
<text text-anchor="middle" x="118" y="-31.5" font-family="Helvetica,sans-Serif" font-size="10.00">ExecuteCompositor.format</text>
</g>
<!-- Node2 -->
<g id="node2" class="node"><title>Node2</title>
<g id="a_node2"><a xlink:href="a00011.html#a679fc9504f717af5057aff716c39d837" target="_top" xlink:title="format the given string as a key value pair specific to the derived type. ">
<polygon fill="white" stroke="black" points="272,-49.5 272,-79.5 499,-79.5 499,-49.5 272,-49.5"/>
<text text-anchor="start" x="280" y="-67.5" font-family="Helvetica,sans-Serif" font-size="10.00">beseenium.view.outputHandlers.formatters.</text>
<text text-anchor="middle" x="385.5" y="-56.5" font-family="Helvetica,sans-Serif" font-size="10.00">AbstractOutputFormatter.asKeyVal</text>
</a>
</g>
</g>
<!-- Node1&#45;&gt;Node2 -->
<g id="edge1" class="edge"><title>Node1&#45;&gt;Node2</title>
<path fill="none" stroke="midnightblue" d="M236.225,-50.5381C244.712,-51.3373 253.284,-52.1445 261.801,-52.9465"/>
<polygon fill="midnightblue" stroke="midnightblue" points="261.482,-56.4317 271.766,-53.8847 262.138,-49.4626 261.482,-56.4317"/>
</g>
<!-- Node3 -->
<g id="node3" class="node"><title>Node3</title>
<g id="a_node3"><a xlink:href="a00011.html#a35e8f2c147167e6a35c846eddfc3a5e5" target="_top" xlink:title="format the given string as a key value set specific to the derived type. ">
<polygon fill="white" stroke="black" points="272,-0.5 272,-30.5 499,-30.5 499,-0.5 272,-0.5"/>
<text text-anchor="start" x="280" y="-18.5" font-family="Helvetica,sans-Serif" font-size="10.00">beseenium.view.outputHandlers.formatters.</text>
<text text-anchor="middle" x="385.5" y="-7.5" font-family="Helvetica,sans-Serif" font-size="10.00">AbstractOutputFormatter.asKVset</text>
</a>
</g>
</g>
<!-- Node1&#45;&gt;Node3 -->
<g id="edge2" class="edge"><title>Node1&#45;&gt;Node3</title>
<path fill="none" stroke="midnightblue" d="M236.225,-28.9034C244.712,-28.1362 253.284,-27.3613 261.801,-26.5914"/>
<polygon fill="midnightblue" stroke="midnightblue" points="262.122,-30.0768 271.766,-25.6907 261.491,-23.1053 262.122,-30.0768"/>
</g>
</g>
</svg>
