<?xml version="1.0" encoding="UTF-8" standalone="no"?>
<!DOCTYPE svg PUBLIC "-//W3C//DTD SVG 1.1//EN"
 "http://www.w3.org/Graphics/SVG/1.1/DTD/svg11.dtd">
<!-- Generated by graphviz version 2.38.0 (20140413.2041)
 -->
<!-- Title: beseenium.view.inputHandlers.InputHandler.handleInput Pages: 1 -->
<svg width="401pt" height="186pt"
 viewBox="0.00 0.00 401.00 186.00" xmlns="http://www.w3.org/2000/svg" xmlns:xlink="http://www.w3.org/1999/xlink">
<g id="graph0" class="graph" transform="scale(1 1) rotate(0) translate(4 182)">
<title>beseenium.view.inputHandlers.InputHandler.handleInput</title>
<polygon fill="white" stroke="none" points="-4,4 -4,-182 397,-182 397,4 -4,4"/>
<!-- Node1 -->
<g id="node1" class="node"><title>Node1</title>
<polygon fill="#bfbfbf" stroke="black" points="0,-73.5 0,-103.5 166,-103.5 166,-73.5 0,-73.5"/>
<text text-anchor="start" x="8" y="-91.5" font-family="Helvetica,sans-Serif" font-size="10.00">beseenium.view.inputHandlers.</text>
<text text-anchor="middle" x="83" y="-80.5" font-family="Helvetica,sans-Serif" font-size="10.00">InputHandler.handleInput</text>
</g>
<!-- Node2 -->
<g id="node2" class="node"><title>Node2</title>
<g id="a_node2"><a xlink:href="a00052.html#a336ffc7510426883f16b8baa5693f8ea" target="_top" xlink:title="generates a AddActionRequest ">
<polygon fill="white" stroke="black" points="214,-147.5 214,-177.5 381,-177.5 381,-147.5 214,-147.5"/>
<text text-anchor="start" x="222" y="-165.5" font-family="Helvetica,sans-Serif" font-size="10.00">beseenium.view.inputHandlers.</text>
<text text-anchor="middle" x="297.5" y="-154.5" font-family="Helvetica,sans-Serif" font-size="10.00">InputHandler.handleAddActions</text>
</a>
</g>
</g>
<!-- Node1&#45;&gt;Node2 -->
<g id="edge1" class="edge"><title>Node1&#45;&gt;Node2</title>
<path fill="none" stroke="midnightblue" d="M116.858,-103.548C140.281,-113.927 172.687,-127.587 202,-137.5 209.404,-140.004 217.202,-142.416 225.014,-144.688"/>
<polygon fill="midnightblue" stroke="midnightblue" points="224.311,-148.127 234.886,-147.488 226.22,-141.392 224.311,-148.127"/>
</g>
<!-- Node3 -->
<g id="node3" class="node"><title>Node3</title>
<g id="a_node3"><a xlink:href="a00052.html#a29951301b2495febba17d2947ba61a80" target="_top" xlink:title="generates a BrowserRequest ">
<polygon fill="white" stroke="black" points="214.5,-98.5 214.5,-128.5 380.5,-128.5 380.5,-98.5 214.5,-98.5"/>
<text text-anchor="start" x="222.5" y="-116.5" font-family="Helvetica,sans-Serif" font-size="10.00">beseenium.view.inputHandlers.</text>
<text text-anchor="middle" x="297.5" y="-105.5" font-family="Helvetica,sans-Serif" font-size="10.00">InputHandler.handleBrowser</text>
</a>
</g>
</g>
<!-- Node1&#45;&gt;Node3 -->
<g id="edge2" class="edge"><title>Node1&#45;&gt;Node3</title>
<path fill="none" stroke="midnightblue" d="M166.158,-98.1657C178.599,-99.6293 191.505,-101.148 204.145,-102.635"/>
<polygon fill="midnightblue" stroke="midnightblue" points="203.87,-106.126 214.21,-103.819 204.688,-99.1743 203.87,-106.126"/>
</g>
<!-- Node4 -->
<g id="node4" class="node"><title>Node4</title>
<g id="a_node4"><a xlink:href="a00052.html#a038cb9083926614e0943580ddb1a32d6" target="_top" xlink:title="generates a CapabilitiesRequest ">
<polygon fill="white" stroke="black" points="213.5,-49.5 213.5,-79.5 381.5,-79.5 381.5,-49.5 213.5,-49.5"/>
<text text-anchor="start" x="221.5" y="-67.5" font-family="Helvetica,sans-Serif" font-size="10.00">beseenium.view.inputHandlers.</text>
<text text-anchor="middle" x="297.5" y="-56.5" font-family="Helvetica,sans-Serif" font-size="10.00">InputHandler.handleCapabilities</text>
</a>
</g>
</g>
<!-- Node1&#45;&gt;Node4 -->
<g id="edge3" class="edge"><title>Node1&#45;&gt;Node4</title>
<path fill="none" stroke="midnightblue" d="M166.158,-79.221C178.202,-77.8607 190.682,-76.4512 202.934,-75.0674"/>
<polygon fill="midnightblue" stroke="midnightblue" points="203.614,-78.513 213.158,-73.9128 202.828,-71.5573 203.614,-78.513"/>
</g>
<!-- Node5 -->
<g id="node5" class="node"><title>Node5</title>
<g id="a_node5"><a xlink:href="a00052.html#a3fa21768c950556e9c803711ed4420aa" target="_top" xlink:title="generates an ExecuteRequest ">
<polygon fill="white" stroke="black" points="202,-0.5 202,-30.5 393,-30.5 393,-0.5 202,-0.5"/>
<text text-anchor="start" x="210" y="-18.5" font-family="Helvetica,sans-Serif" font-size="10.00">beseenium.view.inputHandlers.</text>
<text text-anchor="middle" x="297.5" y="-7.5" font-family="Helvetica,sans-Serif" font-size="10.00">InputHandler.handleExecuteRequest</text>
</a>
</g>
</g>
<!-- Node1&#45;&gt;Node5 -->
<g id="edge4" class="edge"><title>Node1&#45;&gt;Node5</title>
<path fill="none" stroke="midnightblue" d="M117.649,-73.472C141.025,-63.3651 173.053,-50.1725 202,-40.5 209.552,-37.9764 217.511,-35.538 225.473,-33.2384"/>
<polygon fill="midnightblue" stroke="midnightblue" points="226.486,-36.5894 235.16,-30.5058 224.585,-29.8523 226.486,-36.5894"/>
</g>
</g>
</svg>
