<?xml version="1.0" encoding="UTF-8" standalone="no"?>
<!DOCTYPE svg PUBLIC "-//W3C//DTD SVG 1.1//EN"
 "http://www.w3.org/Graphics/SVG/1.1/DTD/svg11.dtd">
<!-- Generated by graphviz version 2.38.0 (20140413.2041)
 -->
<!-- Title: beseenium.model.ActionInvoker.remove Pages: 1 -->
<svg width="1246pt" height="235pt"
 viewBox="0.00 0.00 1246.00 235.50" xmlns="http://www.w3.org/2000/svg" xmlns:xlink="http://www.w3.org/1999/xlink">
<g id="graph0" class="graph" transform="scale(1 1) rotate(0) translate(4 231.5)">
<title>beseenium.model.ActionInvoker.remove</title>
<polygon fill="white" stroke="none" points="-4,4 -4,-231.5 1242,-231.5 1242,4 -4,4"/>
<!-- Node1 -->
<g id="node1" class="node"><title>Node1</title>
<polygon fill="#bfbfbf" stroke="black" points="0,-113 0,-132 210,-132 210,-113 0,-113"/>
<text text-anchor="middle" x="105" y="-120" font-family="Helvetica,sans-Serif" font-size="10.00">beseenium.model.ActionInvoker.remove</text>
</g>
<!-- Node2 -->
<g id="node2" class="node"><title>Node2</title>
<g id="a_node2"><a xlink:href="a00118.html#a30550c4174a00b79dcb3c09b37eb925f" target="_top" xlink:title="remove all actions from this test and close the browser instance associated with it. ">
<polygon fill="white" stroke="black" points="246,-132.5 246,-162.5 444,-162.5 444,-132.5 246,-132.5"/>
<text text-anchor="start" x="254" y="-150.5" font-family="Helvetica,sans-Serif" font-size="10.00">beseenium.controller.Test.emergency</text>
<text text-anchor="middle" x="345" y="-139.5" font-family="Helvetica,sans-Serif" font-size="10.00">Shutdown</text>
</a>
</g>
</g>
<!-- Node1&#45;&gt;Node2 -->
<g id="edge1" class="edge"><title>Node1&#45;&gt;Node2</title>
<path fill="none" stroke="midnightblue" d="M206.884,-133.097C219.728,-134.446 232.86,-135.826 245.664,-137.171"/>
<polygon fill="midnightblue" stroke="midnightblue" points="206.967,-129.587 196.657,-132.023 206.236,-136.548 206.967,-129.587"/>
</g>
<!-- Node10 -->
<g id="node10" class="node"><title>Node10</title>
<g id="a_node10"><a xlink:href="a00118.html#a9447551c454dcfd8f2b24ddd770a74c6" target="_top" xlink:title="remove an action from this test. ">
<polygon fill="white" stroke="black" points="254.5,-83.5 254.5,-113.5 435.5,-113.5 435.5,-83.5 254.5,-83.5"/>
<text text-anchor="start" x="262.5" y="-101.5" font-family="Helvetica,sans-Serif" font-size="10.00">beseenium.controller.Test.remove</text>
<text text-anchor="middle" x="345" y="-90.5" font-family="Helvetica,sans-Serif" font-size="10.00">Action</text>
</a>
</g>
</g>
<!-- Node1&#45;&gt;Node10 -->
<g id="edge12" class="edge"><title>Node1&#45;&gt;Node10</title>
<path fill="none" stroke="midnightblue" d="M210.477,-111.965C225.108,-110.489 240.037,-108.984 254.361,-107.539"/>
<polygon fill="midnightblue" stroke="midnightblue" points="210.004,-108.494 200.406,-112.98 210.706,-115.459 210.004,-108.494"/>
</g>
<!-- Node3 -->
<g id="node3" class="node"><title>Node3</title>
<g id="a_node3"><a xlink:href="a00034.html#a2413846626263a20383c8341d7dd2e47" target="_top" xlink:title="in case something goes wrong the test should be able to shut down the current browser instance...">
<polygon fill="white" stroke="black" points="486.5,-166.5 486.5,-196.5 674.5,-196.5 674.5,-166.5 486.5,-166.5"/>
<text text-anchor="start" x="494.5" y="-184.5" font-family="Helvetica,sans-Serif" font-size="10.00">beseenium.view.helpers.Emergency</text>
<text text-anchor="middle" x="580.5" y="-173.5" font-family="Helvetica,sans-Serif" font-size="10.00">Shutdown.execute</text>
</a>
</g>
</g>
<!-- Node2&#45;&gt;Node3 -->
<g id="edge2" class="edge"><title>Node2&#45;&gt;Node3</title>
<path fill="none" stroke="midnightblue" d="M454.219,-163.258C464.91,-164.815 475.697,-166.385 486.218,-167.917"/>
<polygon fill="midnightblue" stroke="midnightblue" points="454.41,-159.749 444.01,-161.771 453.401,-166.676 454.41,-159.749"/>
</g>
<!-- Node5 -->
<g id="node5" class="node"><title>Node5</title>
<g id="a_node5"><a xlink:href="a00120.html#ab3a029a7ca30c5f8a0344c4634b9daf0" target="_top" xlink:title="in case something goes wrong the test should be able to shut down the current browser instance...">
<polygon fill="white" stroke="black" points="480,-104 480,-123 681,-123 681,-104 480,-104"/>
<text text-anchor="middle" x="580.5" y="-111" font-family="Helvetica,sans-Serif" font-size="10.00">beseenium.view.URLHandler.shutdown</text>
</a>
</g>
</g>
<!-- Node2&#45;&gt;Node5 -->
<g id="edge4" class="edge"><title>Node2&#45;&gt;Node5</title>
<path fill="none" stroke="midnightblue" d="M454.012,-131.772C474.469,-128.794 495.285,-125.763 513.93,-123.048"/>
<polygon fill="midnightblue" stroke="midnightblue" points="453.401,-128.324 444.01,-133.229 454.41,-135.251 453.401,-128.324"/>
</g>
<!-- Node4 -->
<g id="node4" class="node"><title>Node4</title>
<g id="a_node4"><a xlink:href="a00111.html#ade06e27882a65a5fc8e93a3292cd12b6" target="_top" xlink:title="beseenium.view.outputHandlers.request\lHandlers.executeHandlers.RootExecuteHandler.handle\lRequest">
<polygon fill="white" stroke="black" points="717,-186 717,-227 996,-227 996,-186 717,-186"/>
<text text-anchor="start" x="725" y="-215" font-family="Helvetica,sans-Serif" font-size="10.00">beseenium.view.outputHandlers.request</text>
<text text-anchor="start" x="725" y="-204" font-family="Helvetica,sans-Serif" font-size="10.00">Handlers.executeHandlers.RootExecuteHandler.handle</text>
<text text-anchor="middle" x="856.5" y="-193" font-family="Helvetica,sans-Serif" font-size="10.00">Request</text>
</a>
</g>
</g>
<!-- Node3&#45;&gt;Node4 -->
<g id="edge3" class="edge"><title>Node3&#45;&gt;Node4</title>
<path fill="none" stroke="midnightblue" d="M684.671,-190.913C695.228,-191.877 706.07,-192.866 716.926,-193.856"/>
<polygon fill="midnightblue" stroke="midnightblue" points="684.923,-187.422 674.646,-189.999 684.287,-194.393 684.923,-187.422"/>
</g>
<!-- Node6 -->
<g id="node6" class="node"><title>Node6</title>
<g id="a_node6"><a xlink:href="a00120.html#a5d57a46df8465d2c40f22fd8cb037c9c" target="_top" xlink:title="takes the URL parameters passed to it from the BeSeeniumServlet and uses it to populate and run a Tes...">
<polygon fill="white" stroke="black" points="1032,-79 1032,-98 1238,-98 1238,-79 1032,-79"/>
<text text-anchor="middle" x="1135" y="-86" font-family="Helvetica,sans-Serif" font-size="10.00">beseenium.view.URLHandler.handleURL</text>
</a>
</g>
</g>
<!-- Node5&#45;&gt;Node6 -->
<g id="edge5" class="edge"><title>Node5&#45;&gt;Node6</title>
<path fill="none" stroke="midnightblue" d="M634.255,-125.06C659.206,-129.956 689.494,-135.083 717,-137.5 840.524,-148.355 873.8,-158.551 996,-137.5 1039.6,-129.99 1087.68,-110.052 1114.01,-98.0499"/>
<polygon fill="midnightblue" stroke="midnightblue" points="634.759,-121.591 624.266,-123.057 633.383,-128.455 634.759,-121.591"/>
</g>
<!-- Node7 -->
<g id="node7" class="node"><title>Node7</title>
<g id="a_node7"><a xlink:href="a00120.html#ae0ec35bbb8622775c22687d68a8a830d" target="_top" xlink:title="takes an input from servlet(via handleURL method) in the form of string &#39;get&#39; URL parameter &#39;capabili...">
<polygon fill="white" stroke="black" points="762.5,-98.5 762.5,-128.5 950.5,-128.5 950.5,-98.5 762.5,-98.5"/>
<text text-anchor="start" x="770.5" y="-116.5" font-family="Helvetica,sans-Serif" font-size="10.00">beseenium.view.URLHandler.handle</text>
<text text-anchor="middle" x="856.5" y="-105.5" font-family="Helvetica,sans-Serif" font-size="10.00">Capabilities</text>
</a>
</g>
</g>
<!-- Node5&#45;&gt;Node7 -->
<g id="edge6" class="edge"><title>Node5&#45;&gt;Node7</title>
<path fill="none" stroke="midnightblue" d="M691.208,-113.5C714.751,-113.5 739.414,-113.5 762.263,-113.5"/>
<polygon fill="midnightblue" stroke="midnightblue" points="691.195,-110 681.195,-113.5 691.195,-117 691.195,-110"/>
</g>
<!-- Node8 -->
<g id="node8" class="node"><title>Node8</title>
<g id="a_node8"><a xlink:href="a00120.html#a7696fb55c864a910283e742115b7ed15" target="_top" xlink:title="takes an input from servlet(via handleURL method) in the form of string &#39;get&#39; URL parameter &#39;browser&#39;...">
<polygon fill="white" stroke="black" points="762.5,-49.5 762.5,-79.5 950.5,-79.5 950.5,-49.5 762.5,-49.5"/>
<text text-anchor="start" x="770.5" y="-67.5" font-family="Helvetica,sans-Serif" font-size="10.00">beseenium.view.URLHandler.handle</text>
<text text-anchor="middle" x="856.5" y="-56.5" font-family="Helvetica,sans-Serif" font-size="10.00">Browser</text>
</a>
</g>
</g>
<!-- Node5&#45;&gt;Node8 -->
<g id="edge8" class="edge"><title>Node5&#45;&gt;Node8</title>
<path fill="none" stroke="midnightblue" d="M644.974,-102.149C682.601,-95.4198 730.744,-86.8104 771.492,-79.5233"/>
<polygon fill="midnightblue" stroke="midnightblue" points="643.883,-98.7884 634.655,-103.994 645.115,-105.679 643.883,-98.7884"/>
</g>
<!-- Node9 -->
<g id="node9" class="node"><title>Node9</title>
<g id="a_node9"><a xlink:href="a00120.html#aa2ec4a8ab58fee50c2a0a4ace58fd981" target="_top" xlink:title="takes an input from servlet(via handleURL method) in the form of string &#39;get&#39; URL parameter &#39;addActio...">
<polygon fill="white" stroke="black" points="762.5,-0.5 762.5,-30.5 950.5,-30.5 950.5,-0.5 762.5,-0.5"/>
<text text-anchor="start" x="770.5" y="-18.5" font-family="Helvetica,sans-Serif" font-size="10.00">beseenium.view.URLHandler.handle</text>
<text text-anchor="middle" x="856.5" y="-7.5" font-family="Helvetica,sans-Serif" font-size="10.00">AddActions</text>
</a>
</g>
</g>
<!-- Node5&#45;&gt;Node9 -->
<g id="edge10" class="edge"><title>Node5&#45;&gt;Node9</title>
<path fill="none" stroke="midnightblue" d="M604.261,-98.3205C630.38,-81.6102 675.032,-55.1744 717,-40.5 731.415,-35.4596 747.047,-31.3902 762.442,-28.1181"/>
<polygon fill="midnightblue" stroke="midnightblue" points="602.314,-95.4114 595.829,-103.79 606.123,-101.284 602.314,-95.4114"/>
</g>
<!-- Node7&#45;&gt;Node6 -->
<g id="edge7" class="edge"><title>Node7&#45;&gt;Node6</title>
<path fill="none" stroke="midnightblue" d="M960.899,-104.151C984.044,-102.058 1008.58,-99.8396 1031.68,-97.7509"/>
<polygon fill="midnightblue" stroke="midnightblue" points="960.369,-100.685 950.725,-105.071 960.999,-107.656 960.369,-100.685"/>
</g>
<!-- Node8&#45;&gt;Node6 -->
<g id="edge9" class="edge"><title>Node8&#45;&gt;Node6</title>
<path fill="none" stroke="midnightblue" d="M960.899,-73.475C984.044,-75.484 1008.58,-77.614 1031.68,-79.6191"/>
<polygon fill="midnightblue" stroke="midnightblue" points="960.99,-69.9698 950.725,-72.5918 960.385,-76.9436 960.99,-69.9698"/>
</g>
<!-- Node9&#45;&gt;Node6 -->
<g id="edge11" class="edge"><title>Node9&#45;&gt;Node6</title>
<path fill="none" stroke="midnightblue" d="M960.717,-32.2893C972.673,-34.7778 984.645,-37.5199 996,-40.5 1036.73,-51.1891 1082.66,-68.1984 1109.93,-78.8369"/>
<polygon fill="midnightblue" stroke="midnightblue" points="961.187,-28.8135 950.691,-30.259 959.797,-35.6742 961.187,-28.8135"/>
</g>
</g>
</svg>
