<?xml version="1.0" encoding="UTF-8" standalone="no"?>
<!DOCTYPE svg PUBLIC "-//W3C//DTD SVG 1.1//EN"
 "http://www.w3.org/Graphics/SVG/1.1/DTD/svg11.dtd">
<!-- Generated by graphviz version 2.38.0 (20140413.2041)
 -->
<!-- Title: beseenium.controller.ActionDataFactory.ActionDataFactory.ActionDataFactory Pages: 1 -->
<svg width="435pt" height="50pt"
 viewBox="0.00 0.00 435.00 50.00" xmlns="http://www.w3.org/2000/svg" xmlns:xlink="http://www.w3.org/1999/xlink">
<g id="graph0" class="graph" transform="scale(1 1) rotate(0) translate(4 46)">
<title>beseenium.controller.ActionDataFactory.ActionDataFactory.ActionDataFactory</title>
<polygon fill="white" stroke="none" points="-4,4 -4,-46 431,-46 431,4 -4,4"/>
<!-- Node1 -->
<g id="node1" class="node"><title>Node1</title>
<polygon fill="#bfbfbf" stroke="black" points="0,-0.5 0,-41.5 200,-41.5 200,-0.5 0,-0.5"/>
<text text-anchor="start" x="8" y="-29.5" font-family="Helvetica,sans-Serif" font-size="10.00">beseenium.controller.Action</text>
<text text-anchor="start" x="8" y="-18.5" font-family="Helvetica,sans-Serif" font-size="10.00">DataFactory.ActionDataFactory.Action</text>
<text text-anchor="middle" x="100" y="-7.5" font-family="Helvetica,sans-Serif" font-size="10.00">DataFactory</text>
</g>
<!-- Node2 -->
<g id="node2" class="node"><title>Node2</title>
<g id="a_node2"><a xlink:href="a00020.html#ad54adfb976caa9b30a150d899aef5342" target="_top" xlink:title="populate the map with &#39;MakeActionData&#39; derived types ">
<polygon fill="white" stroke="black" points="236,-0.5 236,-41.5 427,-41.5 427,-0.5 236,-0.5"/>
<text text-anchor="start" x="244" y="-29.5" font-family="Helvetica,sans-Serif" font-size="10.00">beseenium.controller.Action</text>
<text text-anchor="start" x="244" y="-18.5" font-family="Helvetica,sans-Serif" font-size="10.00">DataFactory.ActionDataFactory.map</text>
<text text-anchor="middle" x="331.5" y="-7.5" font-family="Helvetica,sans-Serif" font-size="10.00">Entries</text>
</a>
</g>
</g>
<!-- Node1&#45;&gt;Node2 -->
<g id="edge1" class="edge"><title>Node1&#45;&gt;Node2</title>
<path fill="none" stroke="midnightblue" d="M200.327,-21C208.681,-21 217.147,-21 225.541,-21"/>
<polygon fill="midnightblue" stroke="midnightblue" points="225.734,-24.5001 235.734,-21 225.734,-17.5001 225.734,-24.5001"/>
</g>
</g>
</svg>
