<?xml version="1.0" encoding="UTF-8" standalone="no"?>
<!DOCTYPE svg PUBLIC "-//W3C//DTD SVG 1.1//EN"
 "http://www.w3.org/Graphics/SVG/1.1/DTD/svg11.dtd">
<!-- Generated by graphviz version 2.38.0 (20140413.2041)
 -->
<!-- Title: beseenium.view.outputHandlers.compositors.AddActionCompositor.composite Pages: 1 -->
<svg width="779pt" height="186pt"
 viewBox="0.00 0.00 779.00 186.00" xmlns="http://www.w3.org/2000/svg" xmlns:xlink="http://www.w3.org/1999/xlink">
<g id="graph0" class="graph" transform="scale(1 1) rotate(0) translate(4 182)">
<title>beseenium.view.outputHandlers.compositors.AddActionCompositor.composite</title>
<polygon fill="white" stroke="none" points="-4,4 -4,-182 775,-182 775,4 -4,4"/>
<!-- Node1 -->
<g id="node1" class="node"><title>Node1</title>
<polygon fill="#bfbfbf" stroke="black" points="0,-73.5 0,-103.5 236,-103.5 236,-73.5 0,-73.5"/>
<text text-anchor="start" x="8" y="-91.5" font-family="Helvetica,sans-Serif" font-size="10.00">beseenium.view.outputHandlers.compositors.</text>
<text text-anchor="middle" x="118" y="-80.5" font-family="Helvetica,sans-Serif" font-size="10.00">AddActionCompositor.composite</text>
</g>
<!-- Node2 -->
<g id="node2" class="node"><title>Node2</title>
<g id="a_node2"><a xlink:href="a00025.html#a8555a08475eb716a1d988acd68069741" target="_top" xlink:title="check if result string contains &quot;!!ERROR!!&quot; ">
<polygon fill="white" stroke="black" points="272,-147.5 272,-177.5 508,-177.5 508,-147.5 272,-147.5"/>
<text text-anchor="start" x="280" y="-165.5" font-family="Helvetica,sans-Serif" font-size="10.00">beseenium.view.outputHandlers.compositors.</text>
<text text-anchor="middle" x="390" y="-154.5" font-family="Helvetica,sans-Serif" font-size="10.00">AddActionCompositor.containsError</text>
</a>
</g>
</g>
<!-- Node1&#45;&gt;Node2 -->
<g id="edge1" class="edge"><title>Node1&#45;&gt;Node2</title>
<path fill="none" stroke="midnightblue" d="M162.187,-103.599C192.649,-113.936 234.536,-127.525 272,-137.5 282.039,-140.173 292.621,-142.756 303.151,-145.182"/>
<polygon fill="midnightblue" stroke="midnightblue" points="302.686,-148.665 313.212,-147.457 304.23,-141.837 302.686,-148.665"/>
</g>
<!-- Node3 -->
<g id="node3" class="node"><title>Node3</title>
<g id="a_node3"><a xlink:href="a00025.html#acd26cca5424787056ad08a0c7fd20293" target="_top" xlink:title="does the final formatting of the JSON object ">
<polygon fill="white" stroke="black" points="272,-98.5 272,-128.5 508,-128.5 508,-98.5 272,-98.5"/>
<text text-anchor="start" x="280" y="-116.5" font-family="Helvetica,sans-Serif" font-size="10.00">beseenium.view.outputHandlers.compositors.</text>
<text text-anchor="middle" x="390" y="-105.5" font-family="Helvetica,sans-Serif" font-size="10.00">AddActionCompositor.finalFormat</text>
</a>
</g>
</g>
<!-- Node1&#45;&gt;Node3 -->
<g id="edge2" class="edge"><title>Node1&#45;&gt;Node3</title>
<path fill="none" stroke="midnightblue" d="M236.248,-99.3563C244.738,-100.142 253.323,-100.937 261.866,-101.728"/>
<polygon fill="midnightblue" stroke="midnightblue" points="261.588,-105.217 271.868,-102.654 262.233,-98.2473 261.588,-105.217"/>
</g>
<!-- Node6 -->
<g id="node6" class="node"><title>Node6</title>
<g id="a_node6"><a xlink:href="a00025.html#a5421cc127aabec459968b9c8ba7d419c" target="_top" xlink:title="does the formatting of the keyVal and KVset ">
<polygon fill="white" stroke="black" points="272,-49.5 272,-79.5 508,-79.5 508,-49.5 272,-49.5"/>
<text text-anchor="start" x="280" y="-67.5" font-family="Helvetica,sans-Serif" font-size="10.00">beseenium.view.outputHandlers.compositors.</text>
<text text-anchor="middle" x="390" y="-56.5" font-family="Helvetica,sans-Serif" font-size="10.00">AddActionCompositor.format</text>
</a>
</g>
</g>
<!-- Node1&#45;&gt;Node6 -->
<g id="edge5" class="edge"><title>Node1&#45;&gt;Node6</title>
<path fill="none" stroke="midnightblue" d="M236.248,-78.078C244.738,-77.3233 253.323,-76.5602 261.866,-75.8008"/>
<polygon fill="midnightblue" stroke="midnightblue" points="262.217,-79.2835 271.868,-74.9118 261.597,-72.311 262.217,-79.2835"/>
</g>
<!-- Node9 -->
<g id="node9" class="node"><title>Node9</title>
<g id="a_node9"><a xlink:href="a00125.html#a243e23fc0af55c6b9040a614cbac7794" target="_top" xlink:title="split a string according to 2 delimiters, produces a 2d array ">
<polygon fill="white" stroke="black" points="308.5,-0.5 308.5,-30.5 471.5,-30.5 471.5,-0.5 308.5,-0.5"/>
<text text-anchor="start" x="316.5" y="-18.5" font-family="Helvetica,sans-Serif" font-size="10.00">beseenium.view.helpers.String</text>
<text text-anchor="middle" x="390" y="-7.5" font-family="Helvetica,sans-Serif" font-size="10.00">Split.generic2d</text>
</a>
</g>
</g>
<!-- Node1&#45;&gt;Node9 -->
<g id="edge8" class="edge"><title>Node1&#45;&gt;Node9</title>
<path fill="none" stroke="midnightblue" d="M163.203,-73.4273C193.59,-63.3637 234.981,-50.2391 272,-40.5 282.227,-37.8093 293.014,-35.2001 303.734,-32.7462"/>
<polygon fill="midnightblue" stroke="midnightblue" points="304.555,-36.1492 313.542,-30.5386 303.017,-29.3201 304.555,-36.1492"/>
</g>
<!-- Node4 -->
<g id="node4" class="node"><title>Node4</title>
<g id="a_node4"><a xlink:href="a00011.html#a69bd6433e55b37fe94f24089aacec5bf" target="_top" xlink:title="do some final formatting on the given string to put it in the final form specific to the derived type...">
<polygon fill="white" stroke="black" points="544,-147.5 544,-177.5 771,-177.5 771,-147.5 544,-147.5"/>
<text text-anchor="start" x="552" y="-165.5" font-family="Helvetica,sans-Serif" font-size="10.00">beseenium.view.outputHandlers.formatters.</text>
<text text-anchor="middle" x="657.5" y="-154.5" font-family="Helvetica,sans-Serif" font-size="10.00">AbstractOutputFormatter.finalForm</text>
</a>
</g>
</g>
<!-- Node3&#45;&gt;Node4 -->
<g id="edge3" class="edge"><title>Node3&#45;&gt;Node4</title>
<path fill="none" stroke="midnightblue" d="M472.463,-128.535C501.77,-133.944 535.019,-140.08 565.115,-145.634"/>
<polygon fill="midnightblue" stroke="midnightblue" points="564.722,-149.121 575.191,-147.494 565.992,-142.237 564.722,-149.121"/>
</g>
<!-- Node5 -->
<g id="node5" class="node"><title>Node5</title>
<g id="a_node5"><a xlink:href="a00011.html#a8af12cce044f1652ef0135bd5712fb6d" target="_top" xlink:title="format the given string as a key value super set specific to the derived type. ">
<polygon fill="white" stroke="black" points="544,-98.5 544,-128.5 771,-128.5 771,-98.5 544,-98.5"/>
<text text-anchor="start" x="552" y="-116.5" font-family="Helvetica,sans-Serif" font-size="10.00">beseenium.view.outputHandlers.formatters.</text>
<text text-anchor="middle" x="657.5" y="-105.5" font-family="Helvetica,sans-Serif" font-size="10.00">AbstractOutputFormatter.asKVsuperSet</text>
</a>
</g>
</g>
<!-- Node3&#45;&gt;Node5 -->
<g id="edge4" class="edge"><title>Node3&#45;&gt;Node5</title>
<path fill="none" stroke="midnightblue" d="M508.225,-113.5C516.62,-113.5 525.098,-113.5 533.524,-113.5"/>
<polygon fill="midnightblue" stroke="midnightblue" points="533.766,-117 543.766,-113.5 533.766,-110 533.766,-117"/>
</g>
<!-- Node7 -->
<g id="node7" class="node"><title>Node7</title>
<g id="a_node7"><a xlink:href="a00011.html#a35e8f2c147167e6a35c846eddfc3a5e5" target="_top" xlink:title="format the given string as a key value set specific to the derived type. ">
<polygon fill="white" stroke="black" points="544,-49.5 544,-79.5 771,-79.5 771,-49.5 544,-49.5"/>
<text text-anchor="start" x="552" y="-67.5" font-family="Helvetica,sans-Serif" font-size="10.00">beseenium.view.outputHandlers.formatters.</text>
<text text-anchor="middle" x="657.5" y="-56.5" font-family="Helvetica,sans-Serif" font-size="10.00">AbstractOutputFormatter.asKVset</text>
</a>
</g>
</g>
<!-- Node6&#45;&gt;Node7 -->
<g id="edge6" class="edge"><title>Node6&#45;&gt;Node7</title>
<path fill="none" stroke="midnightblue" d="M508.225,-64.5C516.62,-64.5 525.098,-64.5 533.524,-64.5"/>
<polygon fill="midnightblue" stroke="midnightblue" points="533.766,-68.0001 543.766,-64.5 533.766,-61.0001 533.766,-68.0001"/>
</g>
<!-- Node8 -->
<g id="node8" class="node"><title>Node8</title>
<g id="a_node8"><a xlink:href="a00011.html#a679fc9504f717af5057aff716c39d837" target="_top" xlink:title="format the given string as a key value pair specific to the derived type. ">
<polygon fill="white" stroke="black" points="544,-0.5 544,-30.5 771,-30.5 771,-0.5 544,-0.5"/>
<text text-anchor="start" x="552" y="-18.5" font-family="Helvetica,sans-Serif" font-size="10.00">beseenium.view.outputHandlers.formatters.</text>
<text text-anchor="middle" x="657.5" y="-7.5" font-family="Helvetica,sans-Serif" font-size="10.00">AbstractOutputFormatter.asKeyVal</text>
</a>
</g>
</g>
<!-- Node6&#45;&gt;Node8 -->
<g id="edge7" class="edge"><title>Node6&#45;&gt;Node8</title>
<path fill="none" stroke="midnightblue" d="M472.463,-49.4654C501.77,-44.0565 535.019,-37.9203 565.115,-32.3657"/>
<polygon fill="midnightblue" stroke="midnightblue" points="565.992,-35.7631 575.191,-30.5062 564.722,-28.8793 565.992,-35.7631"/>
</g>
</g>
</svg>
