<?xml version="1.0" encoding="UTF-8" standalone="no"?>
<!DOCTYPE svg PUBLIC "-//W3C//DTD SVG 1.1//EN"
 "http://www.w3.org/Graphics/SVG/1.1/DTD/svg11.dtd">
<!-- Generated by graphviz version 2.38.0 (20140413.2041)
 -->
<!-- Title: beseenium.model.action.findElementsBy.FindElementsByClass.execute Pages: 1 -->
<svg width="443pt" height="50pt"
 viewBox="0.00 0.00 443.00 50.00" xmlns="http://www.w3.org/2000/svg" xmlns:xlink="http://www.w3.org/1999/xlink">
<g id="graph0" class="graph" transform="scale(1 1) rotate(0) translate(4 46)">
<title>beseenium.model.action.findElementsBy.FindElementsByClass.execute</title>
<polygon fill="white" stroke="none" points="-4,4 -4,-46 439,-46 439,4 -4,4"/>
<!-- Node1 -->
<g id="node1" class="node"><title>Node1</title>
<polygon fill="#bfbfbf" stroke="black" points="0,-6 0,-36 220,-36 220,-6 0,-6"/>
<text text-anchor="start" x="8" y="-24" font-family="Helvetica,sans-Serif" font-size="10.00">beseenium.model.action.find</text>
<text text-anchor="middle" x="110" y="-13" font-family="Helvetica,sans-Serif" font-size="10.00">ElementsBy.FindElementsByClass.execute</text>
</g>
<!-- Node2 -->
<g id="node2" class="node"><title>Node2</title>
<g id="a_node2"><a xlink:href="a00050.html#a8898fc2ffd06b918766bf002823edbc0" target="_top" xlink:title="formats the output string of a findElementBy... ">
<polygon fill="white" stroke="black" points="256,-0.5 256,-41.5 435,-41.5 435,-0.5 256,-0.5"/>
<text text-anchor="start" x="264" y="-29.5" font-family="Helvetica,sans-Serif" font-size="10.00">beseenium.model.helpers.</text>
<text text-anchor="start" x="264" y="-18.5" font-family="Helvetica,sans-Serif" font-size="10.00">FormatOutput.formatFindElement</text>
<text text-anchor="middle" x="345.5" y="-7.5" font-family="Helvetica,sans-Serif" font-size="10.00">Output</text>
</a>
</g>
</g>
<!-- Node1&#45;&gt;Node2 -->
<g id="edge1" class="edge"><title>Node1&#45;&gt;Node2</title>
<path fill="none" stroke="midnightblue" d="M220.23,-21C228.668,-21 237.159,-21 245.525,-21"/>
<polygon fill="midnightblue" stroke="midnightblue" points="245.657,-24.5001 255.656,-21 245.656,-17.5001 245.657,-24.5001"/>
</g>
</g>
</svg>
