<?xml version="1.0" encoding="UTF-8" standalone="no"?>
<!DOCTYPE svg PUBLIC "-//W3C//DTD SVG 1.1//EN"
 "http://www.w3.org/Graphics/SVG/1.1/DTD/svg11.dtd">
<!-- Generated by graphviz version 2.38.0 (20140413.2041)
 -->
<!-- Title: beseenium.view.outputHandlers.OutputHandler.handleRequests Pages: 1 -->
<svg width="432pt" height="147pt"
 viewBox="0.00 0.00 432.00 147.00" xmlns="http://www.w3.org/2000/svg" xmlns:xlink="http://www.w3.org/1999/xlink">
<g id="graph0" class="graph" transform="scale(1 1) rotate(0) translate(4 143)">
<title>beseenium.view.outputHandlers.OutputHandler.handleRequests</title>
<polygon fill="white" stroke="none" points="-4,4 -4,-143 428,-143 428,4 -4,4"/>
<!-- Node1 -->
<g id="node1" class="node"><title>Node1</title>
<polygon fill="#bfbfbf" stroke="black" points="0,-54.5 0,-84.5 173,-84.5 173,-54.5 0,-54.5"/>
<text text-anchor="start" x="8" y="-72.5" font-family="Helvetica,sans-Serif" font-size="10.00">beseenium.view.outputHandlers.</text>
<text text-anchor="middle" x="86.5" y="-61.5" font-family="Helvetica,sans-Serif" font-size="10.00">OutputHandler.handleRequests</text>
</g>
<!-- Node2 -->
<g id="node2" class="node"><title>Node2</title>
<g id="a_node2"><a xlink:href="a00099.html#ae7918c5edc6ac732fc56461328842def" target="_top" xlink:title="checks to see if a List&lt;String&gt; contains the string &quot;ERROR&quot; in it ">
<polygon fill="white" stroke="black" points="226,-108.5 226,-138.5 407,-138.5 407,-108.5 226,-108.5"/>
<text text-anchor="start" x="234" y="-126.5" font-family="Helvetica,sans-Serif" font-size="10.00">beseenium.view.outputHandlers.</text>
<text text-anchor="middle" x="316.5" y="-115.5" font-family="Helvetica,sans-Serif" font-size="10.00">OutputHandler.checkListForERROR</text>
</a>
</g>
</g>
<!-- Node1&#45;&gt;Node2 -->
<g id="edge1" class="edge"><title>Node1&#45;&gt;Node2</title>
<path fill="none" stroke="midnightblue" d="M147.386,-84.5443C167.001,-89.4028 188.911,-94.757 209,-99.5 218.407,-101.721 228.293,-104.01 238.094,-106.251"/>
<polygon fill="midnightblue" stroke="midnightblue" points="237.317,-109.664 247.845,-108.472 238.872,-102.839 237.317,-109.664"/>
</g>
<!-- Node3 -->
<g id="node3" class="node"><title>Node3</title>
<g id="a_node3"><a xlink:href="a00003.html#add8cb6e5761e2ade230ec2021bce9d1b" target="_top" xlink:title="provides implementation to handle the request. ">
<polygon fill="white" stroke="black" points="209,-49 209,-90 424,-90 424,-49 209,-49"/>
<text text-anchor="start" x="217" y="-78" font-family="Helvetica,sans-Serif" font-size="10.00">beseenium.view.outputHandlers.request</text>
<text text-anchor="start" x="217" y="-67" font-family="Helvetica,sans-Serif" font-size="10.00">Handlers.AbstractRequestHandler.handle</text>
<text text-anchor="middle" x="316.5" y="-56" font-family="Helvetica,sans-Serif" font-size="10.00">Request</text>
</a>
</g>
</g>
<!-- Node1&#45;&gt;Node3 -->
<g id="edge2" class="edge"><title>Node1&#45;&gt;Node3</title>
<path fill="none" stroke="midnightblue" d="M173.047,-69.5C181.403,-69.5 189.976,-69.5 198.572,-69.5"/>
<polygon fill="midnightblue" stroke="midnightblue" points="198.661,-73.0001 208.661,-69.5 198.661,-66.0001 198.661,-73.0001"/>
</g>
<!-- Node4 -->
<g id="node4" class="node"><title>Node4</title>
<g id="a_node4"><a xlink:href="a00099.html#a8e70cb6ebb3ed7308600a334599f96b8" target="_top" xlink:title="beseenium.view.outputHandlers.\lOutputHandler.setSuccessor">
<polygon fill="white" stroke="black" points="230,-0.5 230,-30.5 403,-30.5 403,-0.5 230,-0.5"/>
<text text-anchor="start" x="238" y="-18.5" font-family="Helvetica,sans-Serif" font-size="10.00">beseenium.view.outputHandlers.</text>
<text text-anchor="middle" x="316.5" y="-7.5" font-family="Helvetica,sans-Serif" font-size="10.00">OutputHandler.setSuccessor</text>
</a>
</g>
</g>
<!-- Node1&#45;&gt;Node4 -->
<g id="edge3" class="edge"><title>Node1&#45;&gt;Node4</title>
<path fill="none" stroke="midnightblue" d="M147.386,-54.4557C167.001,-49.5972 188.911,-44.243 209,-39.5 218.407,-37.2788 228.293,-34.9901 238.094,-32.749"/>
<polygon fill="midnightblue" stroke="midnightblue" points="238.872,-36.1615 247.845,-30.5279 237.317,-29.3363 238.872,-36.1615"/>
</g>
</g>
</svg>
