<?xml version="1.0" encoding="UTF-8" standalone="no"?>
<!DOCTYPE svg PUBLIC "-//W3C//DTD SVG 1.1//EN"
 "http://www.w3.org/Graphics/SVG/1.1/DTD/svg11.dtd">
<!-- Generated by graphviz version 2.38.0 (20140413.2041)
 -->
<!-- Title: beseenium.view.BeSeeniumServlet.doGet Pages: 1 -->
<svg width="620pt" height="343pt"
 viewBox="0.00 0.00 620.00 343.00" xmlns="http://www.w3.org/2000/svg" xmlns:xlink="http://www.w3.org/1999/xlink">
<g id="graph0" class="graph" transform="scale(1 1) rotate(0) translate(4 339)">
<title>beseenium.view.BeSeeniumServlet.doGet</title>
<polygon fill="white" stroke="none" points="-4,4 -4,-339 616,-339 616,4 -4,4"/>
<!-- Node1 -->
<g id="node1" class="node"><title>Node1</title>
<polygon fill="#bfbfbf" stroke="black" points="0,-81.5 0,-111.5 152,-111.5 152,-81.5 0,-81.5"/>
<text text-anchor="start" x="8" y="-99.5" font-family="Helvetica,sans-Serif" font-size="10.00">beseenium.view.BeSeenium</text>
<text text-anchor="middle" x="76" y="-88.5" font-family="Helvetica,sans-Serif" font-size="10.00">Servlet.doGet</text>
</g>
<!-- Node2 -->
<g id="node2" class="node"><title>Node2</title>
<g id="a_node2"><a xlink:href="a00062.html#aa848fb1b618af2cdb2e61d296ba55dad" target="_top" xlink:title="Generates a map of string descriptors to requests from the given parameters, ending with a request to...">
<polygon fill="white" stroke="black" points="191.5,-206.5 191.5,-236.5 357.5,-236.5 357.5,-206.5 191.5,-206.5"/>
<text text-anchor="start" x="199.5" y="-224.5" font-family="Helvetica,sans-Serif" font-size="10.00">beseenium.view.inputHandlers.</text>
<text text-anchor="middle" x="274.5" y="-213.5" font-family="Helvetica,sans-Serif" font-size="10.00">InputHandler.handleInput</text>
</a>
</g>
</g>
<!-- Node1&#45;&gt;Node2 -->
<g id="edge1" class="edge"><title>Node1&#45;&gt;Node2</title>
<path fill="none" stroke="midnightblue" d="M100.702,-111.578C135.815,-133.914 201.744,-175.854 241.232,-200.973"/>
<polygon fill="midnightblue" stroke="midnightblue" points="239.397,-203.954 249.713,-206.369 243.155,-198.048 239.397,-203.954"/>
</g>
<!-- Node7 -->
<g id="node7" class="node"><title>Node7</title>
<g id="a_node7"><a xlink:href="a00109.html#a14c42c61c198c440e8315d7f3694a876" target="_top" xlink:title="beseenium.view.outputHandlers.\lOutputHandler.handleRequests">
<polygon fill="white" stroke="black" points="188,-81.5 188,-111.5 361,-111.5 361,-81.5 188,-81.5"/>
<text text-anchor="start" x="196" y="-99.5" font-family="Helvetica,sans-Serif" font-size="10.00">beseenium.view.outputHandlers.</text>
<text text-anchor="middle" x="274.5" y="-88.5" font-family="Helvetica,sans-Serif" font-size="10.00">OutputHandler.handleRequests</text>
</a>
</g>
</g>
<!-- Node1&#45;&gt;Node7 -->
<g id="edge6" class="edge"><title>Node1&#45;&gt;Node7</title>
<path fill="none" stroke="midnightblue" d="M152.129,-96.5C160.54,-96.5 169.19,-96.5 177.813,-96.5"/>
<polygon fill="midnightblue" stroke="midnightblue" points="177.908,-100 187.908,-96.5 177.908,-93.0001 177.908,-100"/>
</g>
<!-- Node11 -->
<g id="node11" class="node"><title>Node11</title>
<g id="a_node11"><a xlink:href="a00109.html#aa6914d44a8a56c1302053c495b89f6c1" target="_top" xlink:title="Sets the map of Test Requests to distribute to the various chains of responsibility. ">
<polygon fill="white" stroke="black" points="188,-32.5 188,-62.5 361,-62.5 361,-32.5 188,-32.5"/>
<text text-anchor="start" x="196" y="-50.5" font-family="Helvetica,sans-Serif" font-size="10.00">beseenium.view.outputHandlers.</text>
<text text-anchor="middle" x="274.5" y="-39.5" font-family="Helvetica,sans-Serif" font-size="10.00">OutputHandler.setRequests</text>
</a>
</g>
</g>
<!-- Node1&#45;&gt;Node11 -->
<g id="edge10" class="edge"><title>Node1&#45;&gt;Node11</title>
<path fill="none" stroke="midnightblue" d="M137.292,-81.4654C158.228,-76.2446 181.882,-70.3463 203.532,-64.9474"/>
<polygon fill="midnightblue" stroke="midnightblue" points="204.466,-68.3218 213.322,-62.5062 202.772,-61.5298 204.466,-68.3218"/>
</g>
<!-- Node3 -->
<g id="node3" class="node"><title>Node3</title>
<g id="a_node3"><a xlink:href="a00062.html#a038cb9083926614e0943580ddb1a32d6" target="_top" xlink:title="generates a CapabilitiesRequest ">
<polygon fill="white" stroke="black" points="420.5,-304.5 420.5,-334.5 588.5,-334.5 588.5,-304.5 420.5,-304.5"/>
<text text-anchor="start" x="428.5" y="-322.5" font-family="Helvetica,sans-Serif" font-size="10.00">beseenium.view.inputHandlers.</text>
<text text-anchor="middle" x="504.5" y="-311.5" font-family="Helvetica,sans-Serif" font-size="10.00">InputHandler.handleCapabilities</text>
</a>
</g>
</g>
<!-- Node2&#45;&gt;Node3 -->
<g id="edge2" class="edge"><title>Node2&#45;&gt;Node3</title>
<path fill="none" stroke="midnightblue" d="M295.959,-236.524C319.301,-252.997 359.153,-279.128 397,-294.5 403.325,-297.069 409.974,-299.409 416.73,-301.535"/>
<polygon fill="midnightblue" stroke="midnightblue" points="416.098,-304.998 426.681,-304.496 418.095,-298.289 416.098,-304.998"/>
</g>
<!-- Node4 -->
<g id="node4" class="node"><title>Node4</title>
<g id="a_node4"><a xlink:href="a00062.html#a29951301b2495febba17d2947ba61a80" target="_top" xlink:title="generates a BrowserRequest ">
<polygon fill="white" stroke="black" points="421.5,-255.5 421.5,-285.5 587.5,-285.5 587.5,-255.5 421.5,-255.5"/>
<text text-anchor="start" x="429.5" y="-273.5" font-family="Helvetica,sans-Serif" font-size="10.00">beseenium.view.inputHandlers.</text>
<text text-anchor="middle" x="504.5" y="-262.5" font-family="Helvetica,sans-Serif" font-size="10.00">InputHandler.handleBrowser</text>
</a>
</g>
</g>
<!-- Node2&#45;&gt;Node4 -->
<g id="edge3" class="edge"><title>Node2&#45;&gt;Node4</title>
<path fill="none" stroke="midnightblue" d="M345.457,-236.535C370.187,-241.849 398.185,-247.867 423.672,-253.344"/>
<polygon fill="midnightblue" stroke="midnightblue" points="423.163,-256.814 433.675,-255.494 424.634,-249.971 423.163,-256.814"/>
</g>
<!-- Node5 -->
<g id="node5" class="node"><title>Node5</title>
<g id="a_node5"><a xlink:href="a00062.html#a336ffc7510426883f16b8baa5693f8ea" target="_top" xlink:title="generates a AddActionRequest ">
<polygon fill="white" stroke="black" points="421,-206.5 421,-236.5 588,-236.5 588,-206.5 421,-206.5"/>
<text text-anchor="start" x="429" y="-224.5" font-family="Helvetica,sans-Serif" font-size="10.00">beseenium.view.inputHandlers.</text>
<text text-anchor="middle" x="504.5" y="-213.5" font-family="Helvetica,sans-Serif" font-size="10.00">InputHandler.handleAddActions</text>
</a>
</g>
</g>
<!-- Node2&#45;&gt;Node5 -->
<g id="edge4" class="edge"><title>Node2&#45;&gt;Node5</title>
<path fill="none" stroke="midnightblue" d="M357.813,-221.5C374.98,-221.5 393.189,-221.5 410.705,-221.5"/>
<polygon fill="midnightblue" stroke="midnightblue" points="410.925,-225 420.925,-221.5 410.925,-218 410.925,-225"/>
</g>
<!-- Node6 -->
<g id="node6" class="node"><title>Node6</title>
<g id="a_node6"><a xlink:href="a00062.html#a3fa21768c950556e9c803711ed4420aa" target="_top" xlink:title="generates an ExecuteRequest ">
<polygon fill="white" stroke="black" points="409,-157.5 409,-187.5 600,-187.5 600,-157.5 409,-157.5"/>
<text text-anchor="start" x="417" y="-175.5" font-family="Helvetica,sans-Serif" font-size="10.00">beseenium.view.inputHandlers.</text>
<text text-anchor="middle" x="504.5" y="-164.5" font-family="Helvetica,sans-Serif" font-size="10.00">InputHandler.handleExecuteRequest</text>
</a>
</g>
</g>
<!-- Node2&#45;&gt;Node6 -->
<g id="edge5" class="edge"><title>Node2&#45;&gt;Node6</title>
<path fill="none" stroke="midnightblue" d="M345.457,-206.465C370.187,-201.151 398.185,-195.133 423.672,-189.656"/>
<polygon fill="midnightblue" stroke="midnightblue" points="424.634,-193.029 433.675,-187.506 423.163,-186.186 424.634,-193.029"/>
</g>
<!-- Node8 -->
<g id="node8" class="node"><title>Node8</title>
<g id="a_node8"><a xlink:href="a00109.html#a8e70cb6ebb3ed7308600a334599f96b8" target="_top" xlink:title="beseenium.view.outputHandlers.\lOutputHandler.setSuccessor">
<polygon fill="white" stroke="black" points="418,-108.5 418,-138.5 591,-138.5 591,-108.5 418,-108.5"/>
<text text-anchor="start" x="426" y="-126.5" font-family="Helvetica,sans-Serif" font-size="10.00">beseenium.view.outputHandlers.</text>
<text text-anchor="middle" x="504.5" y="-115.5" font-family="Helvetica,sans-Serif" font-size="10.00">OutputHandler.setSuccessor</text>
</a>
</g>
</g>
<!-- Node7&#45;&gt;Node8 -->
<g id="edge7" class="edge"><title>Node7&#45;&gt;Node8</title>
<path fill="none" stroke="midnightblue" d="M361.047,-106.631C376.285,-108.435 392.246,-110.325 407.746,-112.161"/>
<polygon fill="midnightblue" stroke="midnightblue" points="407.51,-115.657 417.852,-113.358 408.333,-108.706 407.51,-115.657"/>
</g>
<!-- Node9 -->
<g id="node9" class="node"><title>Node9</title>
<g id="a_node9"><a xlink:href="a00013.html#add8cb6e5761e2ade230ec2021bce9d1b" target="_top" xlink:title="provides implementation to handle the request. ">
<polygon fill="white" stroke="black" points="397,-49 397,-90 612,-90 612,-49 397,-49"/>
<text text-anchor="start" x="405" y="-78" font-family="Helvetica,sans-Serif" font-size="10.00">beseenium.view.outputHandlers.request</text>
<text text-anchor="start" x="405" y="-67" font-family="Helvetica,sans-Serif" font-size="10.00">Handlers.AbstractRequestHandler.handle</text>
<text text-anchor="middle" x="504.5" y="-56" font-family="Helvetica,sans-Serif" font-size="10.00">Request</text>
</a>
</g>
</g>
<!-- Node7&#45;&gt;Node9 -->
<g id="edge8" class="edge"><title>Node7&#45;&gt;Node9</title>
<path fill="none" stroke="midnightblue" d="M361.047,-86.3694C369.403,-85.3799 377.976,-84.3646 386.572,-83.3467"/>
<polygon fill="midnightblue" stroke="midnightblue" points="387.142,-86.8038 396.661,-82.152 386.319,-79.8524 387.142,-86.8038"/>
</g>
<!-- Node10 -->
<g id="node10" class="node"><title>Node10</title>
<g id="a_node10"><a xlink:href="a00109.html#ae7918c5edc6ac732fc56461328842def" target="_top" xlink:title="checks to see if a List&lt;String&gt; contains the string &quot;ERROR&quot; in it ">
<polygon fill="white" stroke="black" points="414,-0.5 414,-30.5 595,-30.5 595,-0.5 414,-0.5"/>
<text text-anchor="start" x="422" y="-18.5" font-family="Helvetica,sans-Serif" font-size="10.00">beseenium.view.outputHandlers.</text>
<text text-anchor="middle" x="504.5" y="-7.5" font-family="Helvetica,sans-Serif" font-size="10.00">OutputHandler.checkListForERROR</text>
</a>
</g>
</g>
<!-- Node7&#45;&gt;Node10 -->
<g id="edge9" class="edge"><title>Node7&#45;&gt;Node10</title>
<path fill="none" stroke="midnightblue" d="M338.897,-81.4296C346.555,-78.6098 354.099,-75.3198 361,-71.5 379.729,-61.1326 377.954,-49.2741 397,-39.5 400.794,-37.5529 404.744,-35.7627 408.793,-34.1168"/>
<polygon fill="midnightblue" stroke="midnightblue" points="410.249,-37.3092 418.393,-30.5325 407.801,-30.7513 410.249,-37.3092"/>
</g>
</g>
</svg>
