<?xml version="1.0" encoding="UTF-8" standalone="no"?>
<!DOCTYPE svg PUBLIC "-//W3C//DTD SVG 1.1//EN"
 "http://www.w3.org/Graphics/SVG/1.1/DTD/svg11.dtd">
<!-- Generated by graphviz version 2.38.0 (20140413.2041)
 -->
<!-- Title: beseenium.model.actionData.ActionData.setDriver Pages: 1 -->
<svg width="1445pt" height="269pt"
 viewBox="0.00 0.00 1445.00 269.44" xmlns="http://www.w3.org/2000/svg" xmlns:xlink="http://www.w3.org/1999/xlink">
<g id="graph0" class="graph" transform="scale(1 1) rotate(0) translate(4 265.436)">
<title>beseenium.model.actionData.ActionData.setDriver</title>
<polygon fill="white" stroke="none" points="-4,4 -4,-265.436 1441,-265.436 1441,4 -4,4"/>
<!-- Node1 -->
<g id="node1" class="node"><title>Node1</title>
<polygon fill="#bfbfbf" stroke="black" points="0,-71.4362 0,-101.436 161,-101.436 161,-71.4362 0,-71.4362"/>
<text text-anchor="start" x="8" y="-89.4362" font-family="Helvetica,sans-Serif" font-size="10.00">beseenium.model.actionData.</text>
<text text-anchor="middle" x="80.5" y="-78.4362" font-family="Helvetica,sans-Serif" font-size="10.00">ActionData.setDriver</text>
</g>
<!-- Node2 -->
<g id="node2" class="node"><title>Node2</title>
<g id="a_node2"><a xlink:href="a00024.html#abd8f9cf7dc1cf8d14b0334d7b0fe633f" target="_top" xlink:title="iterates through the commands stored in the list and executes ">
<polygon fill="white" stroke="black" points="197,-76.9362 197,-95.9362 409,-95.9362 409,-76.9362 197,-76.9362"/>
<text text-anchor="middle" x="303" y="-83.9362" font-family="Helvetica,sans-Serif" font-size="10.00">beseenium.model.ActionInvoker.execute</text>
</a>
</g>
</g>
<!-- Node1&#45;&gt;Node2 -->
<g id="edge1" class="edge"><title>Node1&#45;&gt;Node2</title>
<path fill="none" stroke="midnightblue" d="M171.271,-86.4362C179.682,-86.4362 188.259,-86.4362 196.795,-86.4362"/>
<polygon fill="midnightblue" stroke="midnightblue" points="171.106,-82.9363 161.106,-86.4362 171.106,-89.9363 171.106,-82.9363"/>
</g>
<!-- Node3 -->
<g id="node3" class="node"><title>Node3</title>
<g id="a_node3"><a xlink:href="a00124.html#a30550c4174a00b79dcb3c09b37eb925f" target="_top" xlink:title="remove all actions from this test and close the browser instance associated with it. ">
<polygon fill="white" stroke="black" points="445,-107.436 445,-137.436 643,-137.436 643,-107.436 445,-107.436"/>
<text text-anchor="start" x="453" y="-125.436" font-family="Helvetica,sans-Serif" font-size="10.00">beseenium.controller.Test.emergency</text>
<text text-anchor="middle" x="544" y="-114.436" font-family="Helvetica,sans-Serif" font-size="10.00">Shutdown</text>
</a>
</g>
</g>
<!-- Node2&#45;&gt;Node3 -->
<g id="edge2" class="edge"><title>Node2&#45;&gt;Node3</title>
<path fill="none" stroke="midnightblue" d="M377.067,-97.4421C398.43,-100.66 422.137,-104.231 444.79,-107.643"/>
<polygon fill="midnightblue" stroke="midnightblue" points="377.517,-93.9704 367.107,-95.9418 376.474,-100.892 377.517,-93.9704"/>
</g>
<!-- Node11 -->
<g id="node11" class="node"><title>Node11</title>
<g id="a_node11"><a xlink:href="a00124.html#a314a83d197e751b5927b1e060f111e0d" target="_top" xlink:title="executes all actions in this test, in the sequence they were added ">
<polygon fill="white" stroke="black" points="453,-36.4362 453,-66.4362 635,-66.4362 635,-36.4362 453,-36.4362"/>
<text text-anchor="start" x="461" y="-54.4362" font-family="Helvetica,sans-Serif" font-size="10.00">beseenium.controller.Test.execute</text>
<text text-anchor="middle" x="544" y="-43.4362" font-family="Helvetica,sans-Serif" font-size="10.00">Actions</text>
</a>
</g>
</g>
<!-- Node2&#45;&gt;Node11 -->
<g id="edge13" class="edge"><title>Node2&#45;&gt;Node11</title>
<path fill="none" stroke="midnightblue" d="M379.19,-75.4251C402.583,-71.9993 428.616,-68.187 452.918,-64.6281"/>
<polygon fill="midnightblue" stroke="midnightblue" points="378.379,-72.0064 368.992,-76.9185 379.394,-78.9325 378.379,-72.0064"/>
</g>
<!-- Node4 -->
<g id="node4" class="node"><title>Node4</title>
<g id="a_node4"><a xlink:href="a00040.html#a2413846626263a20383c8341d7dd2e47" target="_top" xlink:title="in case something goes wrong the test should be able to shut down the current browser instance...">
<polygon fill="white" stroke="black" points="685.5,-200.436 685.5,-230.436 873.5,-230.436 873.5,-200.436 685.5,-200.436"/>
<text text-anchor="start" x="693.5" y="-218.436" font-family="Helvetica,sans-Serif" font-size="10.00">beseenium.view.helpers.Emergency</text>
<text text-anchor="middle" x="779.5" y="-207.436" font-family="Helvetica,sans-Serif" font-size="10.00">Shutdown.execute</text>
</a>
</g>
</g>
<!-- Node3&#45;&gt;Node4 -->
<g id="edge3" class="edge"><title>Node3&#45;&gt;Node4</title>
<path fill="none" stroke="midnightblue" d="M592.34,-141.291C636.126,-158.73 700.361,-184.314 740.779,-200.412"/>
<polygon fill="midnightblue" stroke="midnightblue" points="593.361,-137.93 582.775,-137.482 590.77,-144.433 593.361,-137.93"/>
</g>
<!-- Node6 -->
<g id="node6" class="node"><title>Node6</title>
<g id="a_node6"><a xlink:href="a00126.html#ab3a029a7ca30c5f8a0344c4634b9daf0" target="_top" xlink:title="in case something goes wrong the test should be able to shut down the current browser instance...">
<polygon fill="white" stroke="black" points="679,-112.936 679,-131.936 880,-131.936 880,-112.936 679,-112.936"/>
<text text-anchor="middle" x="779.5" y="-119.936" font-family="Helvetica,sans-Serif" font-size="10.00">beseenium.view.URLHandler.shutdown</text>
</a>
</g>
</g>
<!-- Node3&#45;&gt;Node6 -->
<g id="edge5" class="edge"><title>Node3&#45;&gt;Node6</title>
<path fill="none" stroke="midnightblue" d="M653.066,-122.436C661.666,-122.436 670.329,-122.436 678.867,-122.436"/>
<polygon fill="midnightblue" stroke="midnightblue" points="653.01,-118.936 643.01,-122.436 653.01,-125.936 653.01,-118.936"/>
</g>
<!-- Node5 -->
<g id="node5" class="node"><title>Node5</title>
<g id="a_node5"><a xlink:href="a00117.html#ade06e27882a65a5fc8e93a3292cd12b6" target="_top" xlink:title="beseenium.view.outputHandlers.request\lHandlers.executeHandlers.RootExecuteHandler.handle\lRequest">
<polygon fill="white" stroke="black" points="916,-219.936 916,-260.936 1195,-260.936 1195,-219.936 916,-219.936"/>
<text text-anchor="start" x="924" y="-248.936" font-family="Helvetica,sans-Serif" font-size="10.00">beseenium.view.outputHandlers.request</text>
<text text-anchor="start" x="924" y="-237.936" font-family="Helvetica,sans-Serif" font-size="10.00">Handlers.executeHandlers.RootExecuteHandler.handle</text>
<text text-anchor="middle" x="1055.5" y="-226.936" font-family="Helvetica,sans-Serif" font-size="10.00">Request</text>
</a>
</g>
</g>
<!-- Node4&#45;&gt;Node5 -->
<g id="edge4" class="edge"><title>Node4&#45;&gt;Node5</title>
<path fill="none" stroke="midnightblue" d="M883.671,-224.85C894.228,-225.813 905.07,-226.802 915.926,-227.793"/>
<polygon fill="midnightblue" stroke="midnightblue" points="883.923,-221.358 873.646,-223.935 883.287,-228.329 883.923,-221.358"/>
</g>
<!-- Node7 -->
<g id="node7" class="node"><title>Node7</title>
<g id="a_node7"><a xlink:href="a00126.html#a5d57a46df8465d2c40f22fd8cb037c9c" target="_top" xlink:title="takes the URL parameters passed to it from the BeSeeniumServlet and uses it to populate and run a Tes...">
<polygon fill="white" stroke="black" points="1231,-88.9362 1231,-107.936 1437,-107.936 1437,-88.9362 1231,-88.9362"/>
<text text-anchor="middle" x="1334" y="-95.9362" font-family="Helvetica,sans-Serif" font-size="10.00">beseenium.view.URLHandler.handleURL</text>
</a>
</g>
</g>
<!-- Node6&#45;&gt;Node7 -->
<g id="edge6" class="edge"><title>Node6&#45;&gt;Node7</title>
<path fill="none" stroke="midnightblue" d="M809.314,-136.181C836.208,-148.198 877.816,-164.744 916,-171.436 1038.14,-192.842 1074.65,-201.307 1195,-171.436 1244.98,-159.031 1296.79,-124.828 1320.18,-108.017"/>
<polygon fill="midnightblue" stroke="midnightblue" points="810.656,-132.946 800.104,-131.985 807.753,-139.316 810.656,-132.946"/>
</g>
<!-- Node8 -->
<g id="node8" class="node"><title>Node8</title>
<g id="a_node8"><a xlink:href="a00126.html#ae0ec35bbb8622775c22687d68a8a830d" target="_top" xlink:title="takes an input from servlet(via handleURL method) in the form of string &#39;get&#39; URL parameter &#39;capabili...">
<polygon fill="white" stroke="black" points="961.5,-132.436 961.5,-162.436 1149.5,-162.436 1149.5,-132.436 961.5,-132.436"/>
<text text-anchor="start" x="969.5" y="-150.436" font-family="Helvetica,sans-Serif" font-size="10.00">beseenium.view.URLHandler.handle</text>
<text text-anchor="middle" x="1055.5" y="-139.436" font-family="Helvetica,sans-Serif" font-size="10.00">Capabilities</text>
</a>
</g>
</g>
<!-- Node6&#45;&gt;Node8 -->
<g id="edge7" class="edge"><title>Node6&#45;&gt;Node8</title>
<path fill="none" stroke="midnightblue" d="M890.208,-132.446C913.751,-134.594 938.414,-136.844 961.263,-138.929"/>
<polygon fill="midnightblue" stroke="midnightblue" points="890.472,-128.956 880.195,-131.532 889.836,-135.927 890.472,-128.956"/>
</g>
<!-- Node9 -->
<g id="node9" class="node"><title>Node9</title>
<g id="a_node9"><a xlink:href="a00126.html#a7696fb55c864a910283e742115b7ed15" target="_top" xlink:title="takes an input from servlet(via handleURL method) in the form of string &#39;get&#39; URL parameter &#39;browser&#39;...">
<polygon fill="white" stroke="black" points="961.5,-83.4362 961.5,-113.436 1149.5,-113.436 1149.5,-83.4362 961.5,-83.4362"/>
<text text-anchor="start" x="969.5" y="-101.436" font-family="Helvetica,sans-Serif" font-size="10.00">beseenium.view.URLHandler.handle</text>
<text text-anchor="middle" x="1055.5" y="-90.4362" font-family="Helvetica,sans-Serif" font-size="10.00">Browser</text>
</a>
</g>
</g>
<!-- Node6&#45;&gt;Node9 -->
<g id="edge9" class="edge"><title>Node6&#45;&gt;Node9</title>
<path fill="none" stroke="midnightblue" d="M890.208,-112.827C913.751,-110.765 938.414,-108.604 961.263,-106.603"/>
<polygon fill="midnightblue" stroke="midnightblue" points="889.852,-109.344 880.195,-113.704 890.463,-116.318 889.852,-109.344"/>
</g>
<!-- Node10 -->
<g id="node10" class="node"><title>Node10</title>
<g id="a_node10"><a xlink:href="a00126.html#aa2ec4a8ab58fee50c2a0a4ace58fd981" target="_top" xlink:title="takes an input from servlet(via handleURL method) in the form of string &#39;get&#39; URL parameter &#39;addActio...">
<polygon fill="white" stroke="black" points="961.5,-34.4362 961.5,-64.4362 1149.5,-64.4362 1149.5,-34.4362 961.5,-34.4362"/>
<text text-anchor="start" x="969.5" y="-52.4362" font-family="Helvetica,sans-Serif" font-size="10.00">beseenium.view.URLHandler.handle</text>
<text text-anchor="middle" x="1055.5" y="-41.4362" font-family="Helvetica,sans-Serif" font-size="10.00">AddActions</text>
</a>
</g>
</g>
<!-- Node6&#45;&gt;Node10 -->
<g id="edge11" class="edge"><title>Node6&#45;&gt;Node10</title>
<path fill="none" stroke="midnightblue" d="M813.525,-109.043C840.675,-98.4457 880.339,-83.9044 916,-74.4362 930.524,-70.5801 946.062,-67.134 961.29,-64.1233"/>
<polygon fill="midnightblue" stroke="midnightblue" points="812.139,-105.827 804.12,-112.752 814.707,-112.339 812.139,-105.827"/>
</g>
<!-- Node8&#45;&gt;Node7 -->
<g id="edge8" class="edge"><title>Node8&#45;&gt;Node7</title>
<path fill="none" stroke="midnightblue" d="M1151.21,-130.652C1193.97,-123.075 1242.91,-114.401 1279.24,-107.964"/>
<polygon fill="midnightblue" stroke="midnightblue" points="1150.57,-127.21 1141.34,-132.402 1151.8,-134.103 1150.57,-127.21"/>
</g>
<!-- Node9&#45;&gt;Node7 -->
<g id="edge10" class="edge"><title>Node9&#45;&gt;Node7</title>
<path fill="none" stroke="midnightblue" d="M1159.9,-98.4362C1183.04,-98.4362 1207.58,-98.4362 1230.68,-98.4362"/>
<polygon fill="midnightblue" stroke="midnightblue" points="1159.72,-94.9363 1149.72,-98.4362 1159.72,-101.936 1159.72,-94.9363"/>
</g>
<!-- Node10&#45;&gt;Node7 -->
<g id="edge12" class="edge"><title>Node10&#45;&gt;Node7</title>
<path fill="none" stroke="midnightblue" d="M1151.21,-66.2199C1193.97,-73.7971 1242.91,-82.4709 1279.24,-88.9082"/>
<polygon fill="midnightblue" stroke="midnightblue" points="1151.8,-62.7695 1141.34,-64.4708 1150.57,-69.6621 1151.8,-62.7695"/>
</g>
<!-- Node11&#45;&gt;Node7 -->
<g id="edge14" class="edge"><title>Node11&#45;&gt;Node7</title>
<path fill="none" stroke="midnightblue" d="M623.294,-34.3841C746.867,-10.5526 993.765,24.5102 1195,-25.4362 1244.98,-37.8414 1296.79,-72.0441 1320.18,-88.8553"/>
<polygon fill="midnightblue" stroke="midnightblue" points="622.31,-31.0102 613.168,-36.3653 623.654,-37.8799 622.31,-31.0102"/>
</g>
</g>
</svg>
