<?xml version="1.0" encoding="UTF-8" standalone="no"?>
<!DOCTYPE svg PUBLIC "-//W3C//DTD SVG 1.1//EN"
 "http://www.w3.org/Graphics/SVG/1.1/DTD/svg11.dtd">
<!-- Generated by graphviz version 2.38.0 (20140413.2041)
 -->
<!-- Title: beseenium.model.ActionInvoker.size Pages: 1 -->
<svg width="1228pt" height="235pt"
 viewBox="0.00 0.00 1228.00 235.50" xmlns="http://www.w3.org/2000/svg" xmlns:xlink="http://www.w3.org/1999/xlink">
<g id="graph0" class="graph" transform="scale(1 1) rotate(0) translate(4 231.5)">
<title>beseenium.model.ActionInvoker.size</title>
<polygon fill="white" stroke="none" points="-4,4 -4,-231.5 1224,-231.5 1224,4 -4,4"/>
<!-- Node1 -->
<g id="node1" class="node"><title>Node1</title>
<polygon fill="#bfbfbf" stroke="black" points="0,-138 0,-157 192,-157 192,-138 0,-138"/>
<text text-anchor="middle" x="96" y="-145" font-family="Helvetica,sans-Serif" font-size="10.00">beseenium.model.ActionInvoker.size</text>
</g>
<!-- Node2 -->
<g id="node2" class="node"><title>Node2</title>
<g id="a_node2"><a xlink:href="a00121.html#a30550c4174a00b79dcb3c09b37eb925f" target="_top" xlink:title="remove all actions from this test and close the browser instance associated with it. ">
<polygon fill="white" stroke="black" points="228,-132.5 228,-162.5 426,-162.5 426,-132.5 228,-132.5"/>
<text text-anchor="start" x="236" y="-150.5" font-family="Helvetica,sans-Serif" font-size="10.00">beseenium.controller.Test.emergency</text>
<text text-anchor="middle" x="327" y="-139.5" font-family="Helvetica,sans-Serif" font-size="10.00">Shutdown</text>
</a>
</g>
</g>
<!-- Node1&#45;&gt;Node2 -->
<g id="edge1" class="edge"><title>Node1&#45;&gt;Node2</title>
<path fill="none" stroke="midnightblue" d="M202.136,-147.5C210.7,-147.5 219.334,-147.5 227.845,-147.5"/>
<polygon fill="midnightblue" stroke="midnightblue" points="202.127,-144 192.127,-147.5 202.127,-151 202.127,-144"/>
</g>
<!-- Node3 -->
<g id="node3" class="node"><title>Node3</title>
<g id="a_node3"><a xlink:href="a00037.html#a2413846626263a20383c8341d7dd2e47" target="_top" xlink:title="in case something goes wrong the test should be able to shut down the current browser instance...">
<polygon fill="white" stroke="black" points="468.5,-166.5 468.5,-196.5 656.5,-196.5 656.5,-166.5 468.5,-166.5"/>
<text text-anchor="start" x="476.5" y="-184.5" font-family="Helvetica,sans-Serif" font-size="10.00">beseenium.view.helpers.Emergency</text>
<text text-anchor="middle" x="562.5" y="-173.5" font-family="Helvetica,sans-Serif" font-size="10.00">Shutdown.execute</text>
</a>
</g>
</g>
<!-- Node2&#45;&gt;Node3 -->
<g id="edge2" class="edge"><title>Node2&#45;&gt;Node3</title>
<path fill="none" stroke="midnightblue" d="M436.219,-163.258C446.91,-164.815 457.697,-166.385 468.218,-167.917"/>
<polygon fill="midnightblue" stroke="midnightblue" points="436.41,-159.749 426.01,-161.771 435.401,-166.676 436.41,-159.749"/>
</g>
<!-- Node5 -->
<g id="node5" class="node"><title>Node5</title>
<g id="a_node5"><a xlink:href="a00123.html#ab3a029a7ca30c5f8a0344c4634b9daf0" target="_top" xlink:title="in case something goes wrong the test should be able to shut down the current browser instance...">
<polygon fill="white" stroke="black" points="462,-104 462,-123 663,-123 663,-104 462,-104"/>
<text text-anchor="middle" x="562.5" y="-111" font-family="Helvetica,sans-Serif" font-size="10.00">beseenium.view.URLHandler.shutdown</text>
</a>
</g>
</g>
<!-- Node2&#45;&gt;Node5 -->
<g id="edge4" class="edge"><title>Node2&#45;&gt;Node5</title>
<path fill="none" stroke="midnightblue" d="M436.012,-131.772C456.469,-128.794 477.285,-125.763 495.93,-123.048"/>
<polygon fill="midnightblue" stroke="midnightblue" points="435.401,-128.324 426.01,-133.229 436.41,-135.251 435.401,-128.324"/>
</g>
<!-- Node4 -->
<g id="node4" class="node"><title>Node4</title>
<g id="a_node4"><a xlink:href="a00114.html#ade06e27882a65a5fc8e93a3292cd12b6" target="_top" xlink:title="beseenium.view.outputHandlers.request\lHandlers.executeHandlers.RootExecuteHandler.handle\lRequest">
<polygon fill="white" stroke="black" points="699,-186 699,-227 978,-227 978,-186 699,-186"/>
<text text-anchor="start" x="707" y="-215" font-family="Helvetica,sans-Serif" font-size="10.00">beseenium.view.outputHandlers.request</text>
<text text-anchor="start" x="707" y="-204" font-family="Helvetica,sans-Serif" font-size="10.00">Handlers.executeHandlers.RootExecuteHandler.handle</text>
<text text-anchor="middle" x="838.5" y="-193" font-family="Helvetica,sans-Serif" font-size="10.00">Request</text>
</a>
</g>
</g>
<!-- Node3&#45;&gt;Node4 -->
<g id="edge3" class="edge"><title>Node3&#45;&gt;Node4</title>
<path fill="none" stroke="midnightblue" d="M666.671,-190.913C677.228,-191.877 688.07,-192.866 698.926,-193.856"/>
<polygon fill="midnightblue" stroke="midnightblue" points="666.923,-187.422 656.646,-189.999 666.287,-194.393 666.923,-187.422"/>
</g>
<!-- Node6 -->
<g id="node6" class="node"><title>Node6</title>
<g id="a_node6"><a xlink:href="a00123.html#a5d57a46df8465d2c40f22fd8cb037c9c" target="_top" xlink:title="takes the URL parameters passed to it from the BeSeeniumServlet and uses it to populate and run a Tes...">
<polygon fill="white" stroke="black" points="1014,-79 1014,-98 1220,-98 1220,-79 1014,-79"/>
<text text-anchor="middle" x="1117" y="-86" font-family="Helvetica,sans-Serif" font-size="10.00">beseenium.view.URLHandler.handleURL</text>
</a>
</g>
</g>
<!-- Node5&#45;&gt;Node6 -->
<g id="edge5" class="edge"><title>Node5&#45;&gt;Node6</title>
<path fill="none" stroke="midnightblue" d="M616.255,-125.06C641.206,-129.956 671.494,-135.083 699,-137.5 822.524,-148.355 855.8,-158.551 978,-137.5 1021.6,-129.99 1069.68,-110.052 1096.01,-98.0499"/>
<polygon fill="midnightblue" stroke="midnightblue" points="616.759,-121.591 606.266,-123.057 615.383,-128.455 616.759,-121.591"/>
</g>
<!-- Node7 -->
<g id="node7" class="node"><title>Node7</title>
<g id="a_node7"><a xlink:href="a00123.html#ae0ec35bbb8622775c22687d68a8a830d" target="_top" xlink:title="takes an input from servlet(via handleURL method) in the form of string &#39;get&#39; URL parameter &#39;capabili...">
<polygon fill="white" stroke="black" points="744.5,-98.5 744.5,-128.5 932.5,-128.5 932.5,-98.5 744.5,-98.5"/>
<text text-anchor="start" x="752.5" y="-116.5" font-family="Helvetica,sans-Serif" font-size="10.00">beseenium.view.URLHandler.handle</text>
<text text-anchor="middle" x="838.5" y="-105.5" font-family="Helvetica,sans-Serif" font-size="10.00">Capabilities</text>
</a>
</g>
</g>
<!-- Node5&#45;&gt;Node7 -->
<g id="edge6" class="edge"><title>Node5&#45;&gt;Node7</title>
<path fill="none" stroke="midnightblue" d="M673.208,-113.5C696.751,-113.5 721.414,-113.5 744.263,-113.5"/>
<polygon fill="midnightblue" stroke="midnightblue" points="673.195,-110 663.195,-113.5 673.195,-117 673.195,-110"/>
</g>
<!-- Node8 -->
<g id="node8" class="node"><title>Node8</title>
<g id="a_node8"><a xlink:href="a00123.html#a7696fb55c864a910283e742115b7ed15" target="_top" xlink:title="takes an input from servlet(via handleURL method) in the form of string &#39;get&#39; URL parameter &#39;browser&#39;...">
<polygon fill="white" stroke="black" points="744.5,-49.5 744.5,-79.5 932.5,-79.5 932.5,-49.5 744.5,-49.5"/>
<text text-anchor="start" x="752.5" y="-67.5" font-family="Helvetica,sans-Serif" font-size="10.00">beseenium.view.URLHandler.handle</text>
<text text-anchor="middle" x="838.5" y="-56.5" font-family="Helvetica,sans-Serif" font-size="10.00">Browser</text>
</a>
</g>
</g>
<!-- Node5&#45;&gt;Node8 -->
<g id="edge8" class="edge"><title>Node5&#45;&gt;Node8</title>
<path fill="none" stroke="midnightblue" d="M626.974,-102.149C664.601,-95.4198 712.744,-86.8104 753.492,-79.5233"/>
<polygon fill="midnightblue" stroke="midnightblue" points="625.883,-98.7884 616.655,-103.994 627.115,-105.679 625.883,-98.7884"/>
</g>
<!-- Node9 -->
<g id="node9" class="node"><title>Node9</title>
<g id="a_node9"><a xlink:href="a00123.html#aa2ec4a8ab58fee50c2a0a4ace58fd981" target="_top" xlink:title="takes an input from servlet(via handleURL method) in the form of string &#39;get&#39; URL parameter &#39;addActio...">
<polygon fill="white" stroke="black" points="744.5,-0.5 744.5,-30.5 932.5,-30.5 932.5,-0.5 744.5,-0.5"/>
<text text-anchor="start" x="752.5" y="-18.5" font-family="Helvetica,sans-Serif" font-size="10.00">beseenium.view.URLHandler.handle</text>
<text text-anchor="middle" x="838.5" y="-7.5" font-family="Helvetica,sans-Serif" font-size="10.00">AddActions</text>
</a>
</g>
</g>
<!-- Node5&#45;&gt;Node9 -->
<g id="edge10" class="edge"><title>Node5&#45;&gt;Node9</title>
<path fill="none" stroke="midnightblue" d="M586.261,-98.3205C612.38,-81.6102 657.032,-55.1744 699,-40.5 713.415,-35.4596 729.047,-31.3902 744.442,-28.1181"/>
<polygon fill="midnightblue" stroke="midnightblue" points="584.314,-95.4114 577.829,-103.79 588.123,-101.284 584.314,-95.4114"/>
</g>
<!-- Node7&#45;&gt;Node6 -->
<g id="edge7" class="edge"><title>Node7&#45;&gt;Node6</title>
<path fill="none" stroke="midnightblue" d="M942.899,-104.151C966.044,-102.058 990.584,-99.8396 1013.68,-97.7509"/>
<polygon fill="midnightblue" stroke="midnightblue" points="942.369,-100.685 932.725,-105.071 942.999,-107.656 942.369,-100.685"/>
</g>
<!-- Node8&#45;&gt;Node6 -->
<g id="edge9" class="edge"><title>Node8&#45;&gt;Node6</title>
<path fill="none" stroke="midnightblue" d="M942.899,-73.475C966.044,-75.484 990.584,-77.614 1013.68,-79.6191"/>
<polygon fill="midnightblue" stroke="midnightblue" points="942.99,-69.9698 932.725,-72.5918 942.385,-76.9436 942.99,-69.9698"/>
</g>
<!-- Node9&#45;&gt;Node6 -->
<g id="edge11" class="edge"><title>Node9&#45;&gt;Node6</title>
<path fill="none" stroke="midnightblue" d="M942.717,-32.2893C954.673,-34.7778 966.645,-37.5199 978,-40.5 1018.73,-51.1891 1064.66,-68.1984 1091.93,-78.8369"/>
<polygon fill="midnightblue" stroke="midnightblue" points="943.187,-28.8135 932.691,-30.259 941.797,-35.6742 943.187,-28.8135"/>
</g>
</g>
</svg>
