<?xml version="1.0" encoding="UTF-8" standalone="no"?>
<!DOCTYPE svg PUBLIC "-//W3C//DTD SVG 1.1//EN"
 "http://www.w3.org/Graphics/SVG/1.1/DTD/svg11.dtd">
<!-- Generated by graphviz version 2.38.0 (20140413.2041)
 -->
<!-- Title: beseenium.view.helpers.EmergencyShutdown.execute Pages: 1 -->
<svg width="893pt" height="232pt"
 viewBox="0.00 0.00 893.00 232.50" xmlns="http://www.w3.org/2000/svg" xmlns:xlink="http://www.w3.org/1999/xlink">
<g id="graph0" class="graph" transform="scale(1 1) rotate(0) translate(4 228.5)">
<title>beseenium.view.helpers.EmergencyShutdown.execute</title>
<polygon fill="white" stroke="none" points="-4,4 -4,-228.5 889,-228.5 889,4 -4,4"/>
<!-- Node1 -->
<g id="node1" class="node"><title>Node1</title>
<polygon fill="#bfbfbf" stroke="black" points="0,-77 0,-107 188,-107 188,-77 0,-77"/>
<text text-anchor="start" x="8" y="-95" font-family="Helvetica,sans-Serif" font-size="10.00">beseenium.view.helpers.Emergency</text>
<text text-anchor="middle" x="94" y="-84" font-family="Helvetica,sans-Serif" font-size="10.00">Shutdown.execute</text>
</g>
<!-- Node2 -->
<g id="node2" class="node"><title>Node2</title>
<g id="a_node2"><a xlink:href="a00124.html#a30550c4174a00b79dcb3c09b37eb925f" target="_top" xlink:title="remove all actions from this test and close the browser instance associated with it. ">
<polygon fill="white" stroke="black" points="224,-77 224,-107 422,-107 422,-77 224,-77"/>
<text text-anchor="start" x="232" y="-95" font-family="Helvetica,sans-Serif" font-size="10.00">beseenium.controller.Test.emergency</text>
<text text-anchor="middle" x="323" y="-84" font-family="Helvetica,sans-Serif" font-size="10.00">Shutdown</text>
</a>
</g>
</g>
<!-- Node1&#45;&gt;Node2 -->
<g id="edge1" class="edge"><title>Node1&#45;&gt;Node2</title>
<path fill="none" stroke="midnightblue" d="M188.312,-92C196.75,-92 205.341,-92 213.892,-92"/>
<polygon fill="midnightblue" stroke="midnightblue" points="213.899,-95.5001 223.899,-92 213.899,-88.5001 213.899,-95.5001"/>
</g>
<!-- Node3 -->
<g id="node3" class="node"><title>Node3</title>
<g id="a_node3"><a xlink:href="a00024.html#abf329444fb06b3cf9b4dc5c0a11832b2" target="_top" xlink:title="Adds an abstract action to the action queue, each action has an input parameter and an index n...">
<polygon fill="white" stroke="black" points="468.5,-164.5 468.5,-183.5 659.5,-183.5 659.5,-164.5 468.5,-164.5"/>
<text text-anchor="middle" x="564" y="-171.5" font-family="Helvetica,sans-Serif" font-size="10.00">beseenium.model.ActionInvoker.add</text>
</a>
</g>
</g>
<!-- Node2&#45;&gt;Node3 -->
<g id="edge2" class="edge"><title>Node2&#45;&gt;Node3</title>
<path fill="none" stroke="midnightblue" d="M350.616,-107.058C377.069,-121.404 419.188,-142.599 458,-155 466.747,-157.795 476.044,-160.22 485.349,-162.313"/>
<polygon fill="midnightblue" stroke="midnightblue" points="484.915,-165.799 495.424,-164.456 486.372,-158.952 484.915,-165.799"/>
</g>
<!-- Node4 -->
<g id="node4" class="node"><title>Node4</title>
<g id="a_node4"><a xlink:href="a00024.html#abd8f9cf7dc1cf8d14b0334d7b0fe633f" target="_top" xlink:title="iterates through the commands stored in the list and executes ">
<polygon fill="white" stroke="black" points="458,-126.5 458,-145.5 670,-145.5 670,-126.5 458,-126.5"/>
<text text-anchor="middle" x="564" y="-133.5" font-family="Helvetica,sans-Serif" font-size="10.00">beseenium.model.ActionInvoker.execute</text>
</a>
</g>
</g>
<!-- Node2&#45;&gt;Node4 -->
<g id="edge3" class="edge"><title>Node2&#45;&gt;Node4</title>
<path fill="none" stroke="midnightblue" d="M405.582,-107.019C436.912,-112.787 472.121,-119.269 501.284,-124.638"/>
<polygon fill="midnightblue" stroke="midnightblue" points="500.862,-128.119 511.33,-126.488 502.129,-121.235 500.862,-128.119"/>
</g>
<!-- Node9 -->
<g id="node9" class="node"><title>Node9</title>
<g id="a_node9"><a xlink:href="a00022.html#a8283241ec6b94055f72282f99815155d" target="_top" xlink:title="creates an Action ">
<polygon fill="white" stroke="black" points="474,-77 474,-107 654,-107 654,-77 474,-77"/>
<text text-anchor="start" x="482" y="-95" font-family="Helvetica,sans-Serif" font-size="10.00">beseenium.controller.Action</text>
<text text-anchor="middle" x="564" y="-84" font-family="Helvetica,sans-Serif" font-size="10.00">Factory.ActionFactory.makeAction</text>
</a>
</g>
</g>
<!-- Node2&#45;&gt;Node9 -->
<g id="edge8" class="edge"><title>Node2&#45;&gt;Node9</title>
<path fill="none" stroke="midnightblue" d="M422.245,-92C435.89,-92 449.918,-92 463.584,-92"/>
<polygon fill="midnightblue" stroke="midnightblue" points="463.953,-95.5001 473.953,-92 463.953,-88.5001 463.953,-95.5001"/>
</g>
<!-- Node10 -->
<g id="node10" class="node"><title>Node10</title>
<g id="a_node10"><a xlink:href="a00024.html#af7d6d40d83ef5753d06f553b0be06bc5" target="_top" xlink:title="removes the last Action and associated parameters ">
<polygon fill="white" stroke="black" points="459,-38.5 459,-57.5 669,-57.5 669,-38.5 459,-38.5"/>
<text text-anchor="middle" x="564" y="-45.5" font-family="Helvetica,sans-Serif" font-size="10.00">beseenium.model.ActionInvoker.remove</text>
</a>
</g>
</g>
<!-- Node2&#45;&gt;Node10 -->
<g id="edge9" class="edge"><title>Node2&#45;&gt;Node10</title>
<path fill="none" stroke="midnightblue" d="M405.582,-76.9808C436.912,-71.2129 472.121,-64.7309 501.284,-59.362"/>
<polygon fill="midnightblue" stroke="midnightblue" points="502.129,-62.7652 511.33,-57.5124 500.862,-55.8809 502.129,-62.7652"/>
</g>
<!-- Node11 -->
<g id="node11" class="node"><title>Node11</title>
<g id="a_node11"><a xlink:href="a00024.html#a315c13ebb167511b6895aabefe8b6c8e" target="_top" xlink:title="get the current size of the invoker ">
<polygon fill="white" stroke="black" points="468,-0.5 468,-19.5 660,-19.5 660,-0.5 468,-0.5"/>
<text text-anchor="middle" x="564" y="-7.5" font-family="Helvetica,sans-Serif" font-size="10.00">beseenium.model.ActionInvoker.size</text>
</a>
</g>
</g>
<!-- Node2&#45;&gt;Node11 -->
<g id="edge10" class="edge"><title>Node2&#45;&gt;Node11</title>
<path fill="none" stroke="midnightblue" d="M350.616,-76.9419C377.069,-62.5958 419.188,-41.4005 458,-29 466.747,-26.2052 476.044,-23.7804 485.349,-21.687"/>
<polygon fill="midnightblue" stroke="midnightblue" points="486.372,-25.0479 495.424,-19.5437 484.915,-18.2012 486.372,-25.0479"/>
</g>
<!-- Node5 -->
<g id="node5" class="node"><title>Node5</title>
<g id="a_node5"><a xlink:href="a00011.html#a24e2b60937596ecd18cd17cfe7595c5d" target="_top" xlink:title="execute the derived Action in question, ">
<polygon fill="white" stroke="black" points="706,-194 706,-224 885,-224 885,-194 706,-194"/>
<text text-anchor="start" x="714" y="-212" font-family="Helvetica,sans-Serif" font-size="10.00">beseenium.model.action.Abstract</text>
<text text-anchor="middle" x="795.5" y="-201" font-family="Helvetica,sans-Serif" font-size="10.00">Action.execute</text>
</a>
</g>
</g>
<!-- Node4&#45;&gt;Node5 -->
<g id="edge4" class="edge"><title>Node4&#45;&gt;Node5</title>
<path fill="none" stroke="midnightblue" d="M642.905,-145.558C652.253,-148.019 661.491,-151.112 670,-155 688.688,-163.538 687.745,-174.572 706,-184 710.495,-186.321 715.233,-188.451 720.086,-190.401"/>
<polygon fill="midnightblue" stroke="midnightblue" points="718.931,-193.706 729.524,-193.933 721.384,-187.15 718.931,-193.706"/>
</g>
<!-- Node6 -->
<g id="node6" class="node"><title>Node6</title>
<g id="a_node6"><a xlink:href="a00011.html#a1dade057d9cb3bfecefdb716aae91d33" target="_top" xlink:title="get the ActionData object stored in the derived Action ">
<polygon fill="white" stroke="black" points="706,-145 706,-175 885,-175 885,-145 706,-145"/>
<text text-anchor="start" x="714" y="-163" font-family="Helvetica,sans-Serif" font-size="10.00">beseenium.model.action.Abstract</text>
<text text-anchor="middle" x="795.5" y="-152" font-family="Helvetica,sans-Serif" font-size="10.00">Action.getActionData</text>
</a>
</g>
</g>
<!-- Node4&#45;&gt;Node6 -->
<g id="edge5" class="edge"><title>Node4&#45;&gt;Node6</title>
<path fill="none" stroke="midnightblue" d="M656.034,-145.52C669.098,-146.886 682.591,-148.297 695.795,-149.678"/>
<polygon fill="midnightblue" stroke="midnightblue" points="695.514,-153.168 705.824,-150.727 696.242,-146.205 695.514,-153.168"/>
</g>
<!-- Node7 -->
<g id="node7" class="node"><title>Node7</title>
<g id="a_node7"><a xlink:href="a00015.html#a1cbbd813f07556de640f8f3b3f03587a" target="_top" xlink:title="Sets the WebDriver associated with this ActionData. ">
<polygon fill="white" stroke="black" points="715,-96 715,-126 876,-126 876,-96 715,-96"/>
<text text-anchor="start" x="723" y="-114" font-family="Helvetica,sans-Serif" font-size="10.00">beseenium.model.actionData.</text>
<text text-anchor="middle" x="795.5" y="-103" font-family="Helvetica,sans-Serif" font-size="10.00">ActionData.setDriver</text>
</a>
</g>
</g>
<!-- Node4&#45;&gt;Node7 -->
<g id="edge6" class="edge"><title>Node4&#45;&gt;Node7</title>
<path fill="none" stroke="midnightblue" d="M652.419,-126.477C669.573,-124.609 687.593,-122.646 704.82,-120.769"/>
<polygon fill="midnightblue" stroke="midnightblue" points="705.296,-124.238 714.859,-119.676 704.538,-117.279 705.296,-124.238"/>
</g>
<!-- Node8 -->
<g id="node8" class="node"><title>Node8</title>
<g id="a_node8"><a xlink:href="a00015.html#a0825a9ec5bee8b6de8e7b244d991c04d" target="_top" xlink:title="this method sets the value of the input parameter. ">
<polygon fill="white" stroke="black" points="715,-47 715,-77 876,-77 876,-47 715,-47"/>
<text text-anchor="start" x="723" y="-65" font-family="Helvetica,sans-Serif" font-size="10.00">beseenium.model.actionData.</text>
<text text-anchor="middle" x="795.5" y="-54" font-family="Helvetica,sans-Serif" font-size="10.00">ActionData.setInputParam</text>
</a>
</g>
</g>
<!-- Node4&#45;&gt;Node8 -->
<g id="edge7" class="edge"><title>Node4&#45;&gt;Node8</title>
<path fill="none" stroke="midnightblue" d="M639.854,-126.439C650.238,-123.773 660.568,-120.362 670,-116 688.648,-107.376 687.745,-96.4276 706,-87 710.495,-84.6785 715.233,-82.5487 720.086,-80.5987"/>
<polygon fill="midnightblue" stroke="midnightblue" points="721.384,-83.8498 729.524,-77.0672 718.931,-77.2937 721.384,-83.8498"/>
</g>
</g>
</svg>
