<?xml version="1.0" encoding="UTF-8" standalone="no"?>
<!DOCTYPE svg PUBLIC "-//W3C//DTD SVG 1.1//EN"
 "http://www.w3.org/Graphics/SVG/1.1/DTD/svg11.dtd">
<!-- Generated by graphviz version 2.38.0 (20140413.2041)
 -->
<!-- Title: beseenium.view.HttpServer.launch Pages: 1 -->
<svg width="394pt" height="88pt"
 viewBox="0.00 0.00 394.00 88.00" xmlns="http://www.w3.org/2000/svg" xmlns:xlink="http://www.w3.org/1999/xlink">
<g id="graph0" class="graph" transform="scale(1 1) rotate(0) translate(4 84)">
<title>beseenium.view.HttpServer.launch</title>
<polygon fill="white" stroke="none" points="-4,4 -4,-84 390,-84 390,4 -4,4"/>
<!-- Node1 -->
<g id="node1" class="node"><title>Node1</title>
<polygon fill="#bfbfbf" stroke="black" points="0,-30 0,-49 183,-49 183,-30 0,-30"/>
<text text-anchor="middle" x="91.5" y="-37" font-family="Helvetica,sans-Serif" font-size="10.00">beseenium.view.HttpServer.launch</text>
</g>
<!-- Node2 -->
<g id="node2" class="node"><title>Node2</title>
<g id="a_node2"><a xlink:href="a00058.html#a20311b769224a084099084f3cd577c2d" target="_top" xlink:title="do setup for the static resource handler ">
<polygon fill="white" stroke="black" points="219,-49.5 219,-79.5 386,-79.5 386,-49.5 219,-49.5"/>
<text text-anchor="start" x="227" y="-67.5" font-family="Helvetica,sans-Serif" font-size="10.00">beseenium.view.HttpServer.set</text>
<text text-anchor="middle" x="302.5" y="-56.5" font-family="Helvetica,sans-Serif" font-size="10.00">UpGuiHandler</text>
</a>
</g>
</g>
<!-- Node1&#45;&gt;Node2 -->
<g id="edge1" class="edge"><title>Node1&#45;&gt;Node2</title>
<path fill="none" stroke="midnightblue" d="M172.11,-49.0227C184.097,-50.4565 196.547,-51.9458 208.779,-53.409"/>
<polygon fill="midnightblue" stroke="midnightblue" points="208.643,-56.9176 218.988,-54.6301 209.474,-49.9671 208.643,-56.9176"/>
</g>
<!-- Node3 -->
<g id="node3" class="node"><title>Node3</title>
<g id="a_node3"><a xlink:href="a00058.html#a6d086e2b90baec37773c8cf043142ea8" target="_top" xlink:title="do setup for the servlet handler ">
<polygon fill="white" stroke="black" points="219,-0.5 219,-30.5 386,-30.5 386,-0.5 219,-0.5"/>
<text text-anchor="start" x="227" y="-18.5" font-family="Helvetica,sans-Serif" font-size="10.00">beseenium.view.HttpServer.set</text>
<text text-anchor="middle" x="302.5" y="-7.5" font-family="Helvetica,sans-Serif" font-size="10.00">UpServletHandler</text>
</a>
</g>
</g>
<!-- Node1&#45;&gt;Node3 -->
<g id="edge2" class="edge"><title>Node1&#45;&gt;Node3</title>
<path fill="none" stroke="midnightblue" d="M175.403,-29.9801C186.31,-28.7276 197.545,-27.4374 208.605,-26.1674"/>
<polygon fill="midnightblue" stroke="midnightblue" points="209.162,-29.6265 218.698,-25.0084 208.364,-22.6722 209.162,-29.6265"/>
</g>
</g>
</svg>
