<?xml version="1.0" encoding="UTF-8" standalone="no"?>
<!DOCTYPE svg PUBLIC "-//W3C//DTD SVG 1.1//EN"
 "http://www.w3.org/Graphics/SVG/1.1/DTD/svg11.dtd">
<!-- Generated by graphviz version 2.38.0 (20140413.2041)
 -->
<!-- Title: beseenium.Main.main Pages: 1 -->
<svg width="552pt" height="88pt"
 viewBox="0.00 0.00 552.00 88.00" xmlns="http://www.w3.org/2000/svg" xmlns:xlink="http://www.w3.org/1999/xlink">
<g id="graph0" class="graph" transform="scale(1 1) rotate(0) translate(4 84)">
<title>beseenium.Main.main</title>
<polygon fill="white" stroke="none" points="-4,4 -4,-84 548,-84 548,4 -4,4"/>
<!-- Node1 -->
<g id="node1" class="node"><title>Node1</title>
<polygon fill="#bfbfbf" stroke="black" points="0,-30 0,-49 122,-49 122,-30 0,-30"/>
<text text-anchor="middle" x="61" y="-37" font-family="Helvetica,sans-Serif" font-size="10.00">beseenium.Main.main</text>
</g>
<!-- Node2 -->
<g id="node2" class="node"><title>Node2</title>
<g id="a_node2"><a xlink:href="a00060.html#a0b2bae533232dfc8368124c07c3c7af6" target="_top" xlink:title="launches the embedded webserver on the specified port number. ">
<polygon fill="white" stroke="black" points="158,-30 158,-49 341,-49 341,-30 158,-30"/>
<text text-anchor="middle" x="249.5" y="-37" font-family="Helvetica,sans-Serif" font-size="10.00">beseenium.view.HttpServer.launch</text>
</a>
</g>
</g>
<!-- Node1&#45;&gt;Node2 -->
<g id="edge1" class="edge"><title>Node1&#45;&gt;Node2</title>
<path fill="none" stroke="midnightblue" d="M122.036,-39.5C130.226,-39.5 138.808,-39.5 147.481,-39.5"/>
<polygon fill="midnightblue" stroke="midnightblue" points="147.685,-43.0001 157.685,-39.5 147.685,-36.0001 147.685,-43.0001"/>
</g>
<!-- Node3 -->
<g id="node3" class="node"><title>Node3</title>
<g id="a_node3"><a xlink:href="a00060.html#a6d086e2b90baec37773c8cf043142ea8" target="_top" xlink:title="do setup for the servlet handler ">
<polygon fill="white" stroke="black" points="377,-49.5 377,-79.5 544,-79.5 544,-49.5 377,-49.5"/>
<text text-anchor="start" x="385" y="-67.5" font-family="Helvetica,sans-Serif" font-size="10.00">beseenium.view.HttpServer.set</text>
<text text-anchor="middle" x="460.5" y="-56.5" font-family="Helvetica,sans-Serif" font-size="10.00">UpServletHandler</text>
</a>
</g>
</g>
<!-- Node2&#45;&gt;Node3 -->
<g id="edge2" class="edge"><title>Node2&#45;&gt;Node3</title>
<path fill="none" stroke="midnightblue" d="M330.11,-49.0227C342.097,-50.4565 354.547,-51.9458 366.779,-53.409"/>
<polygon fill="midnightblue" stroke="midnightblue" points="366.643,-56.9176 376.988,-54.6301 367.474,-49.9671 366.643,-56.9176"/>
</g>
<!-- Node4 -->
<g id="node4" class="node"><title>Node4</title>
<g id="a_node4"><a xlink:href="a00060.html#a20311b769224a084099084f3cd577c2d" target="_top" xlink:title="do setup for the static resource handler ">
<polygon fill="white" stroke="black" points="377,-0.5 377,-30.5 544,-30.5 544,-0.5 377,-0.5"/>
<text text-anchor="start" x="385" y="-18.5" font-family="Helvetica,sans-Serif" font-size="10.00">beseenium.view.HttpServer.set</text>
<text text-anchor="middle" x="460.5" y="-7.5" font-family="Helvetica,sans-Serif" font-size="10.00">UpGuiHandler</text>
</a>
</g>
</g>
<!-- Node2&#45;&gt;Node4 -->
<g id="edge3" class="edge"><title>Node2&#45;&gt;Node4</title>
<path fill="none" stroke="midnightblue" d="M333.403,-29.9801C344.31,-28.7276 355.545,-27.4374 366.605,-26.1674"/>
<polygon fill="midnightblue" stroke="midnightblue" points="367.162,-29.6265 376.698,-25.0084 366.364,-22.6722 367.162,-29.6265"/>
</g>
</g>
</svg>
