<?xml version="1.0" encoding="UTF-8" standalone="no"?>
<!DOCTYPE svg PUBLIC "-//W3C//DTD SVG 1.1//EN"
 "http://www.w3.org/Graphics/SVG/1.1/DTD/svg11.dtd">
<!-- Generated by graphviz version 2.38.0 (20140413.2041)
 -->
<!-- Title: beseenium.view.outputHandlers.requestHandlers.capabilitiesHandlers.RootCapabilitiesHandler.handleRequest Pages: 1 -->
<svg width="776pt" height="117pt"
 viewBox="0.00 0.00 776.00 117.00" xmlns="http://www.w3.org/2000/svg" xmlns:xlink="http://www.w3.org/1999/xlink">
<g id="graph0" class="graph" transform="scale(1 1) rotate(0) translate(4 113)">
<title>beseenium.view.outputHandlers.requestHandlers.capabilitiesHandlers.RootCapabilitiesHandler.handleRequest</title>
<polygon fill="white" stroke="none" points="-4,4 -4,-113 772,-113 772,4 -4,4"/>
<!-- Node1 -->
<g id="node1" class="node"><title>Node1</title>
<polygon fill="#bfbfbf" stroke="black" points="0,-49 0,-90 238,-90 238,-49 0,-49"/>
<text text-anchor="start" x="8" y="-78" font-family="Helvetica,sans-Serif" font-size="10.00">beseenium.view.outputHandlers.request</text>
<text text-anchor="start" x="8" y="-67" font-family="Helvetica,sans-Serif" font-size="10.00">Handlers.capabilitiesHandlers.RootCapabilities</text>
<text text-anchor="middle" x="119" y="-56" font-family="Helvetica,sans-Serif" font-size="10.00">Handler.handleRequest</text>
</g>
<!-- Node2 -->
<g id="node2" class="node"><title>Node2</title>
<g id="a_node2"><a xlink:href="a00013.html#aa69c65e2b1e435f9130ffa7dfde78069" target="_top" xlink:title="Contains the implementation of the request. ">
<polygon fill="white" stroke="black" points="557,-78.5 557,-108.5 768,-108.5 768,-78.5 557,-78.5"/>
<text text-anchor="start" x="565" y="-96.5" font-family="Helvetica,sans-Serif" font-size="10.00">beseenium.view.inputHandlers.requests.</text>
<text text-anchor="middle" x="662.5" y="-85.5" font-family="Helvetica,sans-Serif" font-size="10.00">AbstractTestRequest.executeRequest</text>
</a>
</g>
</g>
<!-- Node1&#45;&gt;Node2 -->
<g id="edge1" class="edge"><title>Node1&#45;&gt;Node2</title>
<path fill="none" stroke="midnightblue" d="M209.964,-90.0357C230.873,-93.9687 253.123,-97.4855 274,-99.5 383.27,-110.044 411.247,-101.842 521,-99.5 529.333,-99.3221 537.943,-99.085 546.607,-98.8076"/>
<polygon fill="midnightblue" stroke="midnightblue" points="546.912,-102.299 556.789,-98.4645 546.677,-95.3033 546.912,-102.299"/>
</g>
<!-- Node3 -->
<g id="node3" class="node"><title>Node3</title>
<g id="a_node3"><a xlink:href="a00045.html#a9e9792c8e613f1ce45deab1f1d2c5489" target="_top" xlink:title="beseenium.view.outputHandlers.request\lHandlers.capabilitiesHandlers.EmptyCaps\lParamHandler.handleRequest">
<polygon fill="white" stroke="black" points="289.5,-49 289.5,-90 505.5,-90 505.5,-49 289.5,-49"/>
<text text-anchor="start" x="297.5" y="-78" font-family="Helvetica,sans-Serif" font-size="10.00">beseenium.view.outputHandlers.request</text>
<text text-anchor="start" x="297.5" y="-67" font-family="Helvetica,sans-Serif" font-size="10.00">Handlers.capabilitiesHandlers.EmptyCaps</text>
<text text-anchor="middle" x="397.5" y="-56" font-family="Helvetica,sans-Serif" font-size="10.00">ParamHandler.handleRequest</text>
</a>
</g>
</g>
<!-- Node1&#45;&gt;Node3 -->
<g id="edge2" class="edge"><title>Node1&#45;&gt;Node3</title>
<path fill="none" stroke="midnightblue" d="M238.063,-69.5C251.631,-69.5 265.464,-69.5 279.024,-69.5"/>
<polygon fill="midnightblue" stroke="midnightblue" points="279.332,-73.0001 289.332,-69.5 279.332,-66.0001 279.332,-73.0001"/>
</g>
<!-- Node4 -->
<g id="node4" class="node"><title>Node4</title>
<g id="a_node4"><a xlink:href="a00012.html#a2797b07bdeb70dfb147dac939024fa69" target="_top" xlink:title="sets the next concrete request handler in the chain. ">
<polygon fill="white" stroke="black" points="274,-0.5 274,-30.5 521,-30.5 521,-0.5 274,-0.5"/>
<text text-anchor="start" x="282" y="-18.5" font-family="Helvetica,sans-Serif" font-size="10.00">beseenium.view.outputHandlers.request</text>
<text text-anchor="middle" x="397.5" y="-7.5" font-family="Helvetica,sans-Serif" font-size="10.00">Handlers.AbstractRequestHandler.setSuccessor</text>
</a>
</g>
</g>
<!-- Node1&#45;&gt;Node4 -->
<g id="edge4" class="edge"><title>Node1&#45;&gt;Node4</title>
<path fill="none" stroke="midnightblue" d="M225.322,-48.9309C253.063,-43.5129 282.684,-37.7282 309.352,-32.52"/>
<polygon fill="midnightblue" stroke="midnightblue" points="310.274,-35.906 319.418,-30.5541 308.932,-29.0358 310.274,-35.906"/>
</g>
<!-- Node3&#45;&gt;Node2 -->
<g id="edge3" class="edge"><title>Node3&#45;&gt;Node2</title>
<path fill="none" stroke="midnightblue" d="M505.851,-79.2963C519.207,-80.5151 532.907,-81.7653 546.375,-82.9943"/>
<polygon fill="midnightblue" stroke="midnightblue" points="546.341,-86.5057 556.618,-83.929 546.978,-79.5346 546.341,-86.5057"/>
</g>
</g>
</svg>
