<?xml version="1.0" encoding="UTF-8" standalone="no"?>
<!DOCTYPE svg PUBLIC "-//W3C//DTD SVG 1.1//EN"
 "http://www.w3.org/Graphics/SVG/1.1/DTD/svg11.dtd">
<!-- Generated by graphviz version 2.38.0 (20140413.2041)
 -->
<!-- Title: beseenium.view.outputHandlers.requestHandlers.capabilitiesHandlers.MalformedURLHandler.handleRequest Pages: 1 -->
<svg width="467pt" height="50pt"
 viewBox="0.00 0.00 467.00 50.00" xmlns="http://www.w3.org/2000/svg" xmlns:xlink="http://www.w3.org/1999/xlink">
<g id="graph0" class="graph" transform="scale(1 1) rotate(0) translate(4 46)">
<title>beseenium.view.outputHandlers.requestHandlers.capabilitiesHandlers.MalformedURLHandler.handleRequest</title>
<polygon fill="white" stroke="none" points="-4,4 -4,-46 463,-46 463,4 -4,4"/>
<!-- Node1 -->
<g id="node1" class="node"><title>Node1</title>
<polygon fill="#bfbfbf" stroke="black" points="0,-0.5 0,-41.5 212,-41.5 212,-0.5 0,-0.5"/>
<text text-anchor="start" x="8" y="-29.5" font-family="Helvetica,sans-Serif" font-size="10.00">beseenium.view.outputHandlers.request</text>
<text text-anchor="start" x="8" y="-18.5" font-family="Helvetica,sans-Serif" font-size="10.00">Handlers.capabilitiesHandlers.Malformed</text>
<text text-anchor="middle" x="106" y="-7.5" font-family="Helvetica,sans-Serif" font-size="10.00">URLHandler.handleRequest</text>
</g>
<!-- Node2 -->
<g id="node2" class="node"><title>Node2</title>
<g id="a_node2"><a xlink:href="a00016.html#aa69c65e2b1e435f9130ffa7dfde78069" target="_top" xlink:title="Contains the implementation of the request. ">
<polygon fill="white" stroke="black" points="248,-6 248,-36 459,-36 459,-6 248,-6"/>
<text text-anchor="start" x="256" y="-24" font-family="Helvetica,sans-Serif" font-size="10.00">beseenium.view.inputHandlers.requests.</text>
<text text-anchor="middle" x="353.5" y="-13" font-family="Helvetica,sans-Serif" font-size="10.00">AbstractTestRequest.executeRequest</text>
</a>
</g>
</g>
<!-- Node1&#45;&gt;Node2 -->
<g id="edge1" class="edge"><title>Node1&#45;&gt;Node2</title>
<path fill="none" stroke="midnightblue" d="M212.182,-21C220.695,-21 229.322,-21 237.896,-21"/>
<polygon fill="midnightblue" stroke="midnightblue" points="237.926,-24.5001 247.926,-21 237.926,-17.5001 237.926,-24.5001"/>
</g>
</g>
</svg>
