<?xml version="1.0" encoding="UTF-8" standalone="no"?>
<!DOCTYPE svg PUBLIC "-//W3C//DTD SVG 1.1//EN"
 "http://www.w3.org/Graphics/SVG/1.1/DTD/svg11.dtd">
<!-- Generated by graphviz version 2.38.0 (20140413.2041)
 -->
<!-- Title: beseenium.view.outputHandlers.requestHandlers.browserHandlers.RootBrowserHandler.handleRequest Pages: 1 -->
<svg width="816pt" height="117pt"
 viewBox="0.00 0.00 816.00 117.00" xmlns="http://www.w3.org/2000/svg" xmlns:xlink="http://www.w3.org/1999/xlink">
<g id="graph0" class="graph" transform="scale(1 1) rotate(0) translate(4 113)">
<title>beseenium.view.outputHandlers.requestHandlers.browserHandlers.RootBrowserHandler.handleRequest</title>
<polygon fill="white" stroke="none" points="-4,4 -4,-113 812,-113 812,4 -4,4"/>
<!-- Node1 -->
<g id="node1" class="node"><title>Node1</title>
<polygon fill="#bfbfbf" stroke="black" points="0,-49 0,-90 278,-90 278,-49 0,-49"/>
<text text-anchor="start" x="8" y="-78" font-family="Helvetica,sans-Serif" font-size="10.00">beseenium.view.outputHandlers.request</text>
<text text-anchor="start" x="8" y="-67" font-family="Helvetica,sans-Serif" font-size="10.00">Handlers.browserHandlers.RootBrowserHandler.handle</text>
<text text-anchor="middle" x="139" y="-56" font-family="Helvetica,sans-Serif" font-size="10.00">Request</text>
</g>
<!-- Node2 -->
<g id="node2" class="node"><title>Node2</title>
<g id="a_node2"><a xlink:href="a00006.html#aa69c65e2b1e435f9130ffa7dfde78069" target="_top" xlink:title="Contains the implementation of the request. ">
<polygon fill="white" stroke="black" points="597,-78.5 597,-108.5 808,-108.5 808,-78.5 597,-78.5"/>
<text text-anchor="start" x="605" y="-96.5" font-family="Helvetica,sans-Serif" font-size="10.00">beseenium.view.inputHandlers.requests.</text>
<text text-anchor="middle" x="702.5" y="-85.5" font-family="Helvetica,sans-Serif" font-size="10.00">AbstractTestRequest.executeRequest</text>
</a>
</g>
</g>
<!-- Node1&#45;&gt;Node2 -->
<g id="edge1" class="edge"><title>Node1&#45;&gt;Node2</title>
<path fill="none" stroke="midnightblue" d="M241.751,-90.0386C265.37,-93.9715 290.482,-97.4875 314,-99.5 423.378,-108.86 451.247,-101.842 561,-99.5 569.333,-99.3221 577.943,-99.085 586.607,-98.8076"/>
<polygon fill="midnightblue" stroke="midnightblue" points="586.912,-102.299 596.789,-98.4645 586.677,-95.3033 586.912,-102.299"/>
</g>
<!-- Node3 -->
<g id="node3" class="node"><title>Node3</title>
<g id="a_node3"><a xlink:href="a00098.html#aca98da68efc1fd2391c77ec992841e37" target="_top" xlink:title="beseenium.view.outputHandlers.request\lHandlers.browserHandlers.NoBrowserParam\lHandler.handleRequest">
<polygon fill="white" stroke="black" points="323,-49 323,-90 552,-90 552,-49 323,-49"/>
<text text-anchor="start" x="331" y="-78" font-family="Helvetica,sans-Serif" font-size="10.00">beseenium.view.outputHandlers.request</text>
<text text-anchor="start" x="331" y="-67" font-family="Helvetica,sans-Serif" font-size="10.00">Handlers.browserHandlers.NoBrowserParam</text>
<text text-anchor="middle" x="437.5" y="-56" font-family="Helvetica,sans-Serif" font-size="10.00">Handler.handleRequest</text>
</a>
</g>
</g>
<!-- Node1&#45;&gt;Node3 -->
<g id="edge2" class="edge"><title>Node1&#45;&gt;Node3</title>
<path fill="none" stroke="midnightblue" d="M278.267,-69.5C289.711,-69.5 301.234,-69.5 312.562,-69.5"/>
<polygon fill="midnightblue" stroke="midnightblue" points="312.903,-73.0001 322.903,-69.5 312.903,-66.0001 312.903,-73.0001"/>
</g>
<!-- Node4 -->
<g id="node4" class="node"><title>Node4</title>
<g id="a_node4"><a xlink:href="a00005.html#a2797b07bdeb70dfb147dac939024fa69" target="_top" xlink:title="sets the next concrete request handler in the chain. ">
<polygon fill="white" stroke="black" points="314,-0.5 314,-30.5 561,-30.5 561,-0.5 314,-0.5"/>
<text text-anchor="start" x="322" y="-18.5" font-family="Helvetica,sans-Serif" font-size="10.00">beseenium.view.outputHandlers.request</text>
<text text-anchor="middle" x="437.5" y="-7.5" font-family="Helvetica,sans-Serif" font-size="10.00">Handlers.AbstractRequestHandler.setSuccessor</text>
</a>
</g>
</g>
<!-- Node1&#45;&gt;Node4 -->
<g id="edge4" class="edge"><title>Node1&#45;&gt;Node4</title>
<path fill="none" stroke="midnightblue" d="M252.94,-48.9309C282.95,-43.4652 315.011,-37.6262 343.803,-32.3824"/>
<polygon fill="midnightblue" stroke="midnightblue" points="344.631,-35.7893 353.842,-30.5541 343.377,-28.9026 344.631,-35.7893"/>
</g>
<!-- Node3&#45;&gt;Node2 -->
<g id="edge3" class="edge"><title>Node3&#45;&gt;Node2</title>
<path fill="none" stroke="midnightblue" d="M552.326,-79.8872C563.708,-80.9258 575.269,-81.9808 586.661,-83.0204"/>
<polygon fill="midnightblue" stroke="midnightblue" points="586.343,-86.5058 596.62,-83.9292 586.979,-79.5348 586.343,-86.5058"/>
</g>
</g>
</svg>
