<?xml version="1.0" encoding="UTF-8" standalone="no"?>
<!DOCTYPE svg PUBLIC "-//W3C//DTD SVG 1.1//EN"
 "http://www.w3.org/Graphics/SVG/1.1/DTD/svg11.dtd">
<!-- Generated by graphviz version 2.38.0 (20140413.2041)
 -->
<!-- Title: beseenium.controller.Test.executeActions Pages: 1 -->
<svg width="653pt" height="186pt"
 viewBox="0.00 0.00 653.00 186.00" xmlns="http://www.w3.org/2000/svg" xmlns:xlink="http://www.w3.org/1999/xlink">
<g id="graph0" class="graph" transform="scale(1 1) rotate(0) translate(4 182)">
<title>beseenium.controller.Test.executeActions</title>
<polygon fill="white" stroke="none" points="-4,4 -4,-182 649,-182 649,4 -4,4"/>
<!-- Node1 -->
<g id="node1" class="node"><title>Node1</title>
<polygon fill="#bfbfbf" stroke="black" points="0,-73.5 0,-103.5 182,-103.5 182,-73.5 0,-73.5"/>
<text text-anchor="start" x="8" y="-91.5" font-family="Helvetica,sans-Serif" font-size="10.00">beseenium.controller.Test.execute</text>
<text text-anchor="middle" x="91" y="-80.5" font-family="Helvetica,sans-Serif" font-size="10.00">Actions</text>
</g>
<!-- Node2 -->
<g id="node2" class="node"><title>Node2</title>
<g id="a_node2"><a xlink:href="a00022.html#abd8f9cf7dc1cf8d14b0334d7b0fe633f" target="_top" xlink:title="iterates through the commands stored in the list and executes ">
<polygon fill="white" stroke="black" points="218,-79 218,-98 430,-98 430,-79 218,-79"/>
<text text-anchor="middle" x="324" y="-86" font-family="Helvetica,sans-Serif" font-size="10.00">beseenium.model.ActionInvoker.execute</text>
</a>
</g>
</g>
<!-- Node1&#45;&gt;Node2 -->
<g id="edge1" class="edge"><title>Node1&#45;&gt;Node2</title>
<path fill="none" stroke="midnightblue" d="M182.303,-88.5C190.671,-88.5 199.224,-88.5 207.775,-88.5"/>
<polygon fill="midnightblue" stroke="midnightblue" points="207.8,-92.0001 217.8,-88.5 207.8,-85.0001 207.8,-92.0001"/>
</g>
<!-- Node3 -->
<g id="node3" class="node"><title>Node3</title>
<g id="a_node3"><a xlink:href="a00009.html#a1dade057d9cb3bfecefdb716aae91d33" target="_top" xlink:title="get the ActionData object stored in the derived Action ">
<polygon fill="white" stroke="black" points="466,-147.5 466,-177.5 645,-177.5 645,-147.5 466,-147.5"/>
<text text-anchor="start" x="474" y="-165.5" font-family="Helvetica,sans-Serif" font-size="10.00">beseenium.model.action.Abstract</text>
<text text-anchor="middle" x="555.5" y="-154.5" font-family="Helvetica,sans-Serif" font-size="10.00">Action.getActionData</text>
</a>
</g>
</g>
<!-- Node2&#45;&gt;Node3 -->
<g id="edge2" class="edge"><title>Node2&#45;&gt;Node3</title>
<path fill="none" stroke="midnightblue" d="M351.093,-98.0871C379.278,-108.321 425.583,-124.781 466,-137.5 473.579,-139.885 481.556,-142.288 489.489,-144.611"/>
<polygon fill="midnightblue" stroke="midnightblue" points="488.536,-147.979 499.115,-147.398 490.484,-141.255 488.536,-147.979"/>
</g>
<!-- Node4 -->
<g id="node4" class="node"><title>Node4</title>
<g id="a_node4"><a xlink:href="a00013.html#a0825a9ec5bee8b6de8e7b244d991c04d" target="_top" xlink:title="this method sets the value of the input parameter. ">
<polygon fill="white" stroke="black" points="475,-98.5 475,-128.5 636,-128.5 636,-98.5 475,-98.5"/>
<text text-anchor="start" x="483" y="-116.5" font-family="Helvetica,sans-Serif" font-size="10.00">beseenium.model.actionData.</text>
<text text-anchor="middle" x="555.5" y="-105.5" font-family="Helvetica,sans-Serif" font-size="10.00">ActionData.setInputParam</text>
</a>
</g>
</g>
<!-- Node2&#45;&gt;Node4 -->
<g id="edge3" class="edge"><title>Node2&#45;&gt;Node4</title>
<path fill="none" stroke="midnightblue" d="M412.419,-98.0227C429.573,-99.8914 447.593,-101.854 464.82,-103.731"/>
<polygon fill="midnightblue" stroke="midnightblue" points="464.538,-107.221 474.859,-104.824 465.296,-100.262 464.538,-107.221"/>
</g>
<!-- Node5 -->
<g id="node5" class="node"><title>Node5</title>
<g id="a_node5"><a xlink:href="a00013.html#a1cbbd813f07556de640f8f3b3f03587a" target="_top" xlink:title="Sets the WebDriver associated with this ActionData. ">
<polygon fill="white" stroke="black" points="475,-49.5 475,-79.5 636,-79.5 636,-49.5 475,-49.5"/>
<text text-anchor="start" x="483" y="-67.5" font-family="Helvetica,sans-Serif" font-size="10.00">beseenium.model.actionData.</text>
<text text-anchor="middle" x="555.5" y="-56.5" font-family="Helvetica,sans-Serif" font-size="10.00">ActionData.setDriver</text>
</a>
</g>
</g>
<!-- Node2&#45;&gt;Node5 -->
<g id="edge4" class="edge"><title>Node2&#45;&gt;Node5</title>
<path fill="none" stroke="midnightblue" d="M416.034,-78.9801C431.946,-77.3161 448.495,-75.5855 464.382,-73.9241"/>
<polygon fill="midnightblue" stroke="midnightblue" points="465.132,-77.3649 474.713,-72.8437 464.403,-70.4029 465.132,-77.3649"/>
</g>
<!-- Node6 -->
<g id="node6" class="node"><title>Node6</title>
<g id="a_node6"><a xlink:href="a00009.html#a24e2b60937596ecd18cd17cfe7595c5d" target="_top" xlink:title="execute the derived Action in question, ">
<polygon fill="white" stroke="black" points="466,-0.5 466,-30.5 645,-30.5 645,-0.5 466,-0.5"/>
<text text-anchor="start" x="474" y="-18.5" font-family="Helvetica,sans-Serif" font-size="10.00">beseenium.model.action.Abstract</text>
<text text-anchor="middle" x="555.5" y="-7.5" font-family="Helvetica,sans-Serif" font-size="10.00">Action.execute</text>
</a>
</g>
</g>
<!-- Node2&#45;&gt;Node6 -->
<g id="edge5" class="edge"><title>Node2&#45;&gt;Node6</title>
<path fill="none" stroke="midnightblue" d="M351.631,-78.9652C379.879,-68.9617 425.878,-52.9868 466,-40.5 473.695,-38.1052 481.796,-35.6828 489.844,-33.3369"/>
<polygon fill="midnightblue" stroke="midnightblue" points="490.966,-36.6559 499.604,-30.5202 489.025,-29.9304 490.966,-36.6559"/>
</g>
</g>
</svg>
