<?xml version="1.0" encoding="UTF-8" standalone="no"?>
<!DOCTYPE svg PUBLIC "-//W3C//DTD SVG 1.1//EN"
 "http://www.w3.org/Graphics/SVG/1.1/DTD/svg11.dtd">
<!-- Generated by graphviz version 2.38.0 (20140413.2041)
 -->
<!-- Title: beseenium.view.helpers.StringSplit.urlSplitString Pages: 1 -->
<svg width="418pt" height="88pt"
 viewBox="0.00 0.00 418.00 88.00" xmlns="http://www.w3.org/2000/svg" xmlns:xlink="http://www.w3.org/1999/xlink">
<g id="graph0" class="graph" transform="scale(1 1) rotate(0) translate(4 84)">
<title>beseenium.view.helpers.StringSplit.urlSplitString</title>
<polygon fill="white" stroke="none" points="-4,4 -4,-84 414,-84 414,4 -4,4"/>
<!-- Node1 -->
<g id="node1" class="node"><title>Node1</title>
<polygon fill="#bfbfbf" stroke="black" points="0,-24.5 0,-54.5 163,-54.5 163,-24.5 0,-24.5"/>
<text text-anchor="start" x="8" y="-42.5" font-family="Helvetica,sans-Serif" font-size="10.00">beseenium.view.helpers.String</text>
<text text-anchor="middle" x="81.5" y="-31.5" font-family="Helvetica,sans-Serif" font-size="10.00">Split.urlSplitString</text>
</g>
<!-- Node2 -->
<g id="node2" class="node"><title>Node2</title>
<g id="a_node2"><a xlink:href="a00017.html#a7ce7203e93d9749bfbca8bfe3a8f984c" target="_top" xlink:title="beseenium.view.inputHandlers.requests.\lAddActionsRequest.executeRequest">
<polygon fill="white" stroke="black" points="199,-49.5 199,-79.5 410,-79.5 410,-49.5 199,-49.5"/>
<text text-anchor="start" x="207" y="-67.5" font-family="Helvetica,sans-Serif" font-size="10.00">beseenium.view.inputHandlers.requests.</text>
<text text-anchor="middle" x="304.5" y="-56.5" font-family="Helvetica,sans-Serif" font-size="10.00">AddActionsRequest.executeRequest</text>
</a>
</g>
</g>
<!-- Node1&#45;&gt;Node2 -->
<g id="edge1" class="edge"><title>Node1&#45;&gt;Node2</title>
<path fill="none" stroke="midnightblue" d="M173.38,-49.7806C181.781,-50.7309 190.338,-51.6989 198.849,-52.6616"/>
<polygon fill="midnightblue" stroke="midnightblue" points="173.554,-46.278 163.224,-48.6317 172.767,-53.2337 173.554,-46.278"/>
</g>
<!-- Node3 -->
<g id="node3" class="node"><title>Node3</title>
<g id="a_node3"><a xlink:href="a00025.html#a909bca1db6e8f7262109f0f93e7790c3" target="_top" xlink:title="beseenium.view.inputHandlers.requests.\lCapabilitiesRequest.executeRequest">
<polygon fill="white" stroke="black" points="199,-0.5 199,-30.5 410,-30.5 410,-0.5 199,-0.5"/>
<text text-anchor="start" x="207" y="-18.5" font-family="Helvetica,sans-Serif" font-size="10.00">beseenium.view.inputHandlers.requests.</text>
<text text-anchor="middle" x="304.5" y="-7.5" font-family="Helvetica,sans-Serif" font-size="10.00">CapabilitiesRequest.executeRequest</text>
</a>
</g>
</g>
<!-- Node1&#45;&gt;Node3 -->
<g id="edge2" class="edge"><title>Node1&#45;&gt;Node3</title>
<path fill="none" stroke="midnightblue" d="M173.38,-29.6307C181.781,-28.7184 190.338,-27.7891 198.849,-26.8648"/>
<polygon fill="midnightblue" stroke="midnightblue" points="172.788,-26.1743 163.224,-30.7336 173.544,-33.1334 172.788,-26.1743"/>
</g>
</g>
</svg>
