<?xml version="1.0" encoding="UTF-8" standalone="no"?>
<!DOCTYPE svg PUBLIC "-//W3C//DTD SVG 1.1//EN"
 "http://www.w3.org/Graphics/SVG/1.1/DTD/svg11.dtd">
<!-- Generated by graphviz version 2.38.0 (20140413.2041)
 -->
<!-- Title: beseenium.view.outputHandlers.requestHandlers.addActionHandlers.RootAddActionsHandler.handleRequest Pages: 1 -->
<svg width="770pt" height="117pt"
 viewBox="0.00 0.00 770.00 117.00" xmlns="http://www.w3.org/2000/svg" xmlns:xlink="http://www.w3.org/1999/xlink">
<g id="graph0" class="graph" transform="scale(1 1) rotate(0) translate(4 113)">
<title>beseenium.view.outputHandlers.requestHandlers.addActionHandlers.RootAddActionsHandler.handleRequest</title>
<polygon fill="white" stroke="none" points="-4,4 -4,-113 766,-113 766,4 -4,4"/>
<!-- Node1 -->
<g id="node1" class="node"><title>Node1</title>
<polygon fill="#bfbfbf" stroke="black" points="0,-49 0,-90 232,-90 232,-49 0,-49"/>
<text text-anchor="start" x="8" y="-78" font-family="Helvetica,sans-Serif" font-size="10.00">beseenium.view.outputHandlers.request</text>
<text text-anchor="start" x="8" y="-67" font-family="Helvetica,sans-Serif" font-size="10.00">Handlers.addActionHandlers.RootAddActions</text>
<text text-anchor="middle" x="116" y="-56" font-family="Helvetica,sans-Serif" font-size="10.00">Handler.handleRequest</text>
</g>
<!-- Node2 -->
<g id="node2" class="node"><title>Node2</title>
<g id="a_node2"><a xlink:href="a00006.html#aa69c65e2b1e435f9130ffa7dfde78069" target="_top" xlink:title="Contains the implementation of the request. ">
<polygon fill="white" stroke="black" points="551,-78.5 551,-108.5 762,-108.5 762,-78.5 551,-78.5"/>
<text text-anchor="start" x="559" y="-96.5" font-family="Helvetica,sans-Serif" font-size="10.00">beseenium.view.inputHandlers.requests.</text>
<text text-anchor="middle" x="656.5" y="-85.5" font-family="Helvetica,sans-Serif" font-size="10.00">AbstractTestRequest.executeRequest</text>
</a>
</g>
</g>
<!-- Node1&#45;&gt;Node2 -->
<g id="edge1" class="edge"><title>Node1&#45;&gt;Node2</title>
<path fill="none" stroke="midnightblue" d="M205.195,-90.0352C225.697,-93.9682 247.519,-97.4851 268,-99.5 359.317,-108.483 463.31,-106.193 540.559,-102.09"/>
<polygon fill="midnightblue" stroke="midnightblue" points="541.006,-105.571 550.799,-101.528 540.622,-98.5818 541.006,-105.571"/>
</g>
<!-- Node3 -->
<g id="node3" class="node"><title>Node3</title>
<g id="a_node3"><a xlink:href="a00020.html#af25be46f6b92935883af21a1153c388d" target="_top" xlink:title="beseenium.view.outputHandlers.request\lHandlers.addActionHandlers.BadlyFormatted\lActionHandler.handleRequest">
<polygon fill="white" stroke="black" points="275,-49 275,-90 508,-90 508,-49 275,-49"/>
<text text-anchor="start" x="283" y="-78" font-family="Helvetica,sans-Serif" font-size="10.00">beseenium.view.outputHandlers.request</text>
<text text-anchor="start" x="283" y="-67" font-family="Helvetica,sans-Serif" font-size="10.00">Handlers.addActionHandlers.BadlyFormatted</text>
<text text-anchor="middle" x="391.5" y="-56" font-family="Helvetica,sans-Serif" font-size="10.00">ActionHandler.handleRequest</text>
</a>
</g>
</g>
<!-- Node1&#45;&gt;Node3 -->
<g id="edge2" class="edge"><title>Node1&#45;&gt;Node3</title>
<path fill="none" stroke="midnightblue" d="M232.196,-69.5C243.038,-69.5 254.065,-69.5 264.996,-69.5"/>
<polygon fill="midnightblue" stroke="midnightblue" points="264.999,-73.0001 274.999,-69.5 264.999,-66.0001 264.999,-73.0001"/>
</g>
<!-- Node4 -->
<g id="node4" class="node"><title>Node4</title>
<g id="a_node4"><a xlink:href="a00005.html#a2797b07bdeb70dfb147dac939024fa69" target="_top" xlink:title="sets the next concrete request handler in the chain. ">
<polygon fill="white" stroke="black" points="268,-0.5 268,-30.5 515,-30.5 515,-0.5 268,-0.5"/>
<text text-anchor="start" x="276" y="-18.5" font-family="Helvetica,sans-Serif" font-size="10.00">beseenium.view.outputHandlers.request</text>
<text text-anchor="middle" x="391.5" y="-7.5" font-family="Helvetica,sans-Serif" font-size="10.00">Handlers.AbstractRequestHandler.setSuccessor</text>
</a>
</g>
</g>
<!-- Node1&#45;&gt;Node4 -->
<g id="edge4" class="edge"><title>Node1&#45;&gt;Node4</title>
<path fill="none" stroke="midnightblue" d="M220.151,-48.9686C236.169,-45.7913 252.529,-42.5524 268,-39.5 279.545,-37.2223 291.703,-34.8312 303.695,-32.4771"/>
<polygon fill="midnightblue" stroke="midnightblue" points="304.573,-35.8717 313.712,-30.5118 303.225,-29.0026 304.573,-35.8717"/>
</g>
<!-- Node3&#45;&gt;Node2 -->
<g id="edge3" class="edge"><title>Node3&#45;&gt;Node2</title>
<path fill="none" stroke="midnightblue" d="M508.238,-80.0617C518.995,-81.0433 529.895,-82.0379 540.644,-83.0188"/>
<polygon fill="midnightblue" stroke="midnightblue" points="540.617,-86.5308 550.894,-83.9542 541.253,-79.5598 540.617,-86.5308"/>
</g>
</g>
</svg>
