<?xml version="1.0" encoding="UTF-8" standalone="no"?>
<!DOCTYPE svg PUBLIC "-//W3C//DTD SVG 1.1//EN"
 "http://www.w3.org/Graphics/SVG/1.1/DTD/svg11.dtd">
<!-- Generated by graphviz version 2.38.0 (20140413.2041)
 -->
<!-- Title: beseenium.view.outputHandlers.requestHandlers.executeHandlers.RootExecuteHandler.handleRequest Pages: 1 -->
<!--zoomable 304 -->
<svg id="main" version="1.1" xmlns="http://www.w3.org/2000/svg" xmlns:xlink="http://www.w3.org/1999/xlink" xml:space="preserve" onload="init(evt)">
<style type="text/css"><![CDATA[
.edge:hover path { stroke: red; }
.edge:hover polygon { stroke: red; fill: red; }
]]></style>
<script type="text/javascript"><![CDATA[
var edges = document.getElementsByTagName('g');
if (edges && edges.length) {
  for (var i=0;i<edges.length;i++) {
    if (edges[i].id.substr(0,4)=='edge') {
      edges[i].setAttribute('class','edge');
    }
  }
}
]]></script>
        <defs>
                <circle id="rim" cx="0" cy="0" r="7"/>
                <circle id="rim2" cx="0" cy="0" r="3.5"/>
                <g id="zoomPlus">
                        <use xlink:href="#rim" fill="#404040">
                                <set attributeName="fill" to="#808080" begin="zoomplus.mouseover" end="zoomplus.mouseout"/>
                        </use>
                        <path d="M-4,0h8M0,-4v8" fill="none" stroke="white" stroke-width="1.5" pointer-events="none"/>
                </g>
                <g id="zoomMin">
                        <use xlink:href="#rim" fill="#404040">
                                <set attributeName="fill" to="#808080" begin="zoomminus.mouseover" end="zoomminus.mouseout"/>
                        </use>
                        <path d="M-4,0h8" fill="none" stroke="white" stroke-width="1.5" pointer-events="none"/>
                </g>
                <g id="dirArrow">
                        <path fill="none" stroke="white" stroke-width="1.5" d="M0,-3.0v7 M-2.5,-0.5L0,-3.0L2.5,-0.5"/>
                </g>
               <g id="resetDef">
                       <use xlink:href="#rim2" fill="#404040">
                               <set attributeName="fill" to="#808080" begin="reset.mouseover" end="reset.mouseout"/>
                       </use>
               </g>
        </defs>

<script type="text/javascript">
var viewWidth = 1280;
var viewHeight = 304;
var sectionId = 'dynsection-2';
</script>
<script xlink:href="svgpan.js"/>
<svg id="graph" class="graph">
<g id="viewport">
<title>beseenium.view.outputHandlers.requestHandlers.executeHandlers.RootExecuteHandler.handleRequest</title>
<polygon fill="white" stroke="none" points="-4,4 -4,-300 1276,-300 1276,4 -4,4"/>
<!-- Node1 -->
<g id="node1" class="node"><title>Node1</title>
<polygon fill="#bfbfbf" stroke="black" points="0,-73 0,-114 279,-114 279,-73 0,-73"/>
<text text-anchor="start" x="8" y="-102" font-family="Helvetica,sans-Serif" font-size="10.00">beseenium.view.outputHandlers.request</text>
<text text-anchor="start" x="8" y="-91" font-family="Helvetica,sans-Serif" font-size="10.00">Handlers.executeHandlers.RootExecuteHandler.handle</text>
<text text-anchor="middle" x="139.5" y="-80" font-family="Helvetica,sans-Serif" font-size="10.00">Request</text>
</g>
<!-- Node2 -->
<g id="node2" class="node"><title>Node2</title>
<g id="a_node2"><a xlink:href="a00032.html#a2413846626263a20383c8341d7dd2e47" target="_top" xlink:title="in case something goes wrong the test should be able to shut down the current browser instance...">
<polygon fill="white" stroke="black" points="344.5,-147.5 344.5,-177.5 532.5,-177.5 532.5,-147.5 344.5,-147.5"/>
<text text-anchor="start" x="352.5" y="-165.5" font-family="Helvetica,sans-Serif" font-size="10.00">beseenium.view.helpers.Emergency</text>
<text text-anchor="middle" x="438.5" y="-154.5" font-family="Helvetica,sans-Serif" font-size="10.00">Shutdown.execute</text>
</a>
</g>
</g>
<!-- Node1&#45;&gt;Node2 -->
<g id="edge1" class="edge"><title>Node1&#45;&gt;Node2</title>
<path fill="none" stroke="midnightblue" d="M228.806,-114.015C271.457,-123.924 322.082,-135.686 362.789,-145.143"/>
<polygon fill="midnightblue" stroke="midnightblue" points="362.113,-148.579 372.646,-147.433 363.698,-141.761 362.113,-148.579"/>
</g>
<!-- Node13 -->
<g id="node13" class="node"><title>Node13</title>
<g id="a_node13"><a xlink:href="a00006.html#aa69c65e2b1e435f9130ffa7dfde78069" target="_top" xlink:title="Contains the implementation of the request. ">
<polygon fill="white" stroke="black" points="598,-76.5 598,-106.5 809,-106.5 809,-76.5 598,-76.5"/>
<text text-anchor="start" x="606" y="-94.5" font-family="Helvetica,sans-Serif" font-size="10.00">beseenium.view.inputHandlers.requests.</text>
<text text-anchor="middle" x="703.5" y="-83.5" font-family="Helvetica,sans-Serif" font-size="10.00">AbstractTestRequest.executeRequest</text>
</a>
</g>
</g>
<!-- Node1&#45;&gt;Node13 -->
<g id="edge12" class="edge"><title>Node1&#45;&gt;Node13</title>
<path fill="none" stroke="midnightblue" d="M279.078,-98.6994C291.225,-99.0235 303.331,-99.2994 315,-99.5 424.762,-101.386 452.267,-102.622 562,-99.5 570.338,-99.2628 578.951,-98.9466 587.617,-98.5767"/>
<polygon fill="midnightblue" stroke="midnightblue" points="587.968,-102.065 597.801,-98.1193 587.654,-95.0716 587.968,-102.065"/>
</g>
<!-- Node14 -->
<g id="node14" class="node"><title>Node14</title>
<g id="a_node14"><a xlink:href="a00013.html#a78c78e335d49ee660b9e9f16324b8a05" target="_top" xlink:title="beseenium.view.outputHandlers.request\lHandlers.executeHandlers.ActionException\lHandler.handleRequest">
<polygon fill="white" stroke="black" points="327,-49 327,-90 550,-90 550,-49 327,-49"/>
<text text-anchor="start" x="335" y="-78" font-family="Helvetica,sans-Serif" font-size="10.00">beseenium.view.outputHandlers.request</text>
<text text-anchor="start" x="335" y="-67" font-family="Helvetica,sans-Serif" font-size="10.00">Handlers.executeHandlers.ActionException</text>
<text text-anchor="middle" x="438.5" y="-56" font-family="Helvetica,sans-Serif" font-size="10.00">Handler.handleRequest</text>
</a>
</g>
</g>
<!-- Node1&#45;&gt;Node14 -->
<g id="edge13" class="edge"><title>Node1&#45;&gt;Node14</title>
<path fill="none" stroke="midnightblue" d="M279,-82.308C291.524,-81.296 304.143,-80.2763 316.499,-79.2779"/>
<polygon fill="midnightblue" stroke="midnightblue" points="317.122,-82.739 326.808,-78.4448 316.558,-75.7618 317.122,-82.739"/>
</g>
<!-- Node15 -->
<g id="node15" class="node"><title>Node15</title>
<g id="a_node15"><a xlink:href="a00005.html#a2797b07bdeb70dfb147dac939024fa69" target="_top" xlink:title="sets the next concrete request handler in the chain. ">
<polygon fill="white" stroke="black" points="315,-0.5 315,-30.5 562,-30.5 562,-0.5 315,-0.5"/>
<text text-anchor="start" x="323" y="-18.5" font-family="Helvetica,sans-Serif" font-size="10.00">beseenium.view.outputHandlers.request</text>
<text text-anchor="middle" x="438.5" y="-7.5" font-family="Helvetica,sans-Serif" font-size="10.00">Handlers.AbstractRequestHandler.setSuccessor</text>
</a>
</g>
</g>
<!-- Node1&#45;&gt;Node15 -->
<g id="edge15" class="edge"><title>Node1&#45;&gt;Node15</title>
<path fill="none" stroke="midnightblue" d="M201.424,-72.8969C234.735,-62.076 276.868,-49.1064 315,-39.5 324.536,-37.0978 334.539,-34.7931 344.546,-32.6269"/>
<polygon fill="midnightblue" stroke="midnightblue" points="345.48,-36.0068 354.536,-30.5084 344.027,-29.1591 345.48,-36.0068"/>
</g>
<!-- Node3 -->
<g id="node3" class="node"><title>Node3</title>
<g id="a_node3"><a xlink:href="a00116.html#a30550c4174a00b79dcb3c09b37eb925f" target="_top" xlink:title="remove all actions from this test and close the browser instance associated with it. ">
<polygon fill="white" stroke="black" points="604.5,-147.5 604.5,-177.5 802.5,-177.5 802.5,-147.5 604.5,-147.5"/>
<text text-anchor="start" x="612.5" y="-165.5" font-family="Helvetica,sans-Serif" font-size="10.00">beseenium.controller.Test.emergency</text>
<text text-anchor="middle" x="703.5" y="-154.5" font-family="Helvetica,sans-Serif" font-size="10.00">Shutdown</text>
</a>
</g>
</g>
<!-- Node2&#45;&gt;Node3 -->
<g id="edge2" class="edge"><title>Node2&#45;&gt;Node3</title>
<path fill="none" stroke="midnightblue" d="M532.594,-162.5C552.441,-162.5 573.566,-162.5 593.935,-162.5"/>
<polygon fill="midnightblue" stroke="midnightblue" points="594.184,-166 604.184,-162.5 594.184,-159 594.184,-166"/>
</g>
<!-- Node4 -->
<g id="node4" class="node"><title>Node4</title>
<g id="a_node4"><a xlink:href="a00016.html#abf329444fb06b3cf9b4dc5c0a11832b2" target="_top" xlink:title="Adds an abstract action to the action queue, each action has an input parameter and an index n...">
<polygon fill="white" stroke="black" points="855.5,-235 855.5,-254 1046.5,-254 1046.5,-235 855.5,-235"/>
<text text-anchor="middle" x="951" y="-242" font-family="Helvetica,sans-Serif" font-size="10.00">beseenium.model.ActionInvoker.add</text>
</a>
</g>
</g>
<!-- Node3&#45;&gt;Node4 -->
<g id="edge3" class="edge"><title>Node3&#45;&gt;Node4</title>
<path fill="none" stroke="midnightblue" d="M732.503,-177.501C760.311,-191.804 804.525,-212.968 845,-225.5 854.062,-228.306 863.701,-230.75 873.322,-232.864"/>
<polygon fill="midnightblue" stroke="midnightblue" points="872.814,-236.333 883.318,-234.949 874.243,-229.48 872.814,-236.333"/>
</g>
<!-- Node5 -->
<g id="node5" class="node"><title>Node5</title>
<g id="a_node5"><a xlink:href="a00016.html#abd8f9cf7dc1cf8d14b0334d7b0fe633f" target="_top" xlink:title="iterates through the commands stored in the list and executes ">
<polygon fill="white" stroke="black" points="845,-197 845,-216 1057,-216 1057,-197 845,-197"/>
<text text-anchor="middle" x="951" y="-204" font-family="Helvetica,sans-Serif" font-size="10.00">beseenium.model.ActionInvoker.execute</text>
</a>
</g>
</g>
<!-- Node3&#45;&gt;Node5 -->
<g id="edge4" class="edge"><title>Node3&#45;&gt;Node5</title>
<path fill="none" stroke="midnightblue" d="M788.301,-177.519C820.623,-183.312 856.965,-189.826 886.997,-195.208"/>
<polygon fill="midnightblue" stroke="midnightblue" points="886.464,-198.668 896.925,-196.988 887.699,-191.778 886.464,-198.668"/>
</g>
<!-- Node10 -->
<g id="node10" class="node"><title>Node10</title>
<g id="a_node10"><a xlink:href="a00014.html#a8283241ec6b94055f72282f99815155d" target="_top" xlink:title="creates an Action ">
<polygon fill="white" stroke="black" points="861,-147.5 861,-177.5 1041,-177.5 1041,-147.5 861,-147.5"/>
<text text-anchor="start" x="869" y="-165.5" font-family="Helvetica,sans-Serif" font-size="10.00">beseenium.controller.Action</text>
<text text-anchor="middle" x="951" y="-154.5" font-family="Helvetica,sans-Serif" font-size="10.00">Factory.ActionFactory.makeAction</text>
</a>
</g>
</g>
<!-- Node3&#45;&gt;Node10 -->
<g id="edge9" class="edge"><title>Node3&#45;&gt;Node10</title>
<path fill="none" stroke="midnightblue" d="M802.586,-162.5C818.363,-162.5 834.706,-162.5 850.515,-162.5"/>
<polygon fill="midnightblue" stroke="midnightblue" points="850.816,-166 860.816,-162.5 850.816,-159 850.816,-166"/>
</g>
<!-- Node11 -->
<g id="node11" class="node"><title>Node11</title>
<g id="a_node11"><a xlink:href="a00016.html#af7d6d40d83ef5753d06f553b0be06bc5" target="_top" xlink:title="removes the last Action and associated parameters ">
<polygon fill="white" stroke="black" points="846,-109 846,-128 1056,-128 1056,-109 846,-109"/>
<text text-anchor="middle" x="951" y="-116" font-family="Helvetica,sans-Serif" font-size="10.00">beseenium.model.ActionInvoker.remove</text>
</a>
</g>
</g>
<!-- Node3&#45;&gt;Node11 -->
<g id="edge10" class="edge"><title>Node3&#45;&gt;Node11</title>
<path fill="none" stroke="midnightblue" d="M788.301,-147.481C820.623,-141.688 856.965,-135.174 886.997,-129.792"/>
<polygon fill="midnightblue" stroke="midnightblue" points="887.699,-133.222 896.925,-128.012 886.464,-126.332 887.699,-133.222"/>
</g>
<!-- Node12 -->
<g id="node12" class="node"><title>Node12</title>
<g id="a_node12"><a xlink:href="a00016.html#a315c13ebb167511b6895aabefe8b6c8e" target="_top" xlink:title="get the current size of the invoker ">
<polygon fill="white" stroke="black" points="855,-71 855,-90 1047,-90 1047,-71 855,-71"/>
<text text-anchor="middle" x="951" y="-78" font-family="Helvetica,sans-Serif" font-size="10.00">beseenium.model.ActionInvoker.size</text>
</a>
</g>
</g>
<!-- Node3&#45;&gt;Node12 -->
<g id="edge11" class="edge"><title>Node3&#45;&gt;Node12</title>
<path fill="none" stroke="midnightblue" d="M738.084,-147.382C779.203,-128.88 843.611,-99.9299 845,-99.5 854.062,-96.694 863.701,-94.2503 873.322,-92.1363"/>
<polygon fill="midnightblue" stroke="midnightblue" points="874.243,-95.5196 883.318,-90.0512 872.814,-88.6671 874.243,-95.5196"/>
</g>
<!-- Node6 -->
<g id="node6" class="node"><title>Node6</title>
<g id="a_node6"><a xlink:href="a00003.html#a24e2b60937596ecd18cd17cfe7595c5d" target="_top" xlink:title="execute the derived Action in question, ">
<polygon fill="white" stroke="black" points="1093,-265.5 1093,-295.5 1272,-295.5 1272,-265.5 1093,-265.5"/>
<text text-anchor="start" x="1101" y="-283.5" font-family="Helvetica,sans-Serif" font-size="10.00">beseenium.model.action.Abstract</text>
<text text-anchor="middle" x="1182.5" y="-272.5" font-family="Helvetica,sans-Serif" font-size="10.00">Action.execute</text>
</a>
</g>
</g>
<!-- Node5&#45;&gt;Node6 -->
<g id="edge5" class="edge"><title>Node5&#45;&gt;Node6</title>
<path fill="none" stroke="midnightblue" d="M1030.52,-216.07C1039.67,-218.53 1048.69,-221.62 1057,-225.5 1075.87,-234.312 1074.57,-245.79 1093,-255.5 1097.28,-257.754 1101.78,-259.825 1106.4,-261.724"/>
<polygon fill="midnightblue" stroke="midnightblue" points="1105.4,-265.091 1116,-265.384 1107.9,-258.551 1105.4,-265.091"/>
</g>
<!-- Node7 -->
<g id="node7" class="node"><title>Node7</title>
<g id="a_node7"><a xlink:href="a00003.html#a1dade057d9cb3bfecefdb716aae91d33" target="_top" xlink:title="get the ActionData object stored in the derived Action ">
<polygon fill="white" stroke="black" points="1093,-216.5 1093,-246.5 1272,-246.5 1272,-216.5 1093,-216.5"/>
<text text-anchor="start" x="1101" y="-234.5" font-family="Helvetica,sans-Serif" font-size="10.00">beseenium.model.action.Abstract</text>
<text text-anchor="middle" x="1182.5" y="-223.5" font-family="Helvetica,sans-Serif" font-size="10.00">Action.getActionData</text>
</a>
</g>
</g>
<!-- Node5&#45;&gt;Node7 -->
<g id="edge6" class="edge"><title>Node5&#45;&gt;Node7</title>
<path fill="none" stroke="midnightblue" d="M1039.42,-216.023C1053.49,-217.555 1068.13,-219.151 1082.45,-220.71"/>
<polygon fill="midnightblue" stroke="midnightblue" points="1082.48,-224.234 1092.8,-221.838 1083.24,-217.276 1082.48,-224.234"/>
</g>
<!-- Node8 -->
<g id="node8" class="node"><title>Node8</title>
<g id="a_node8"><a xlink:href="a00007.html#a1cbbd813f07556de640f8f3b3f03587a" target="_top" xlink:title="Sets the WebDriver associated with this ActionData. ">
<polygon fill="white" stroke="black" points="1102,-167.5 1102,-197.5 1263,-197.5 1263,-167.5 1102,-167.5"/>
<text text-anchor="start" x="1110" y="-185.5" font-family="Helvetica,sans-Serif" font-size="10.00">beseenium.model.actionData.</text>
<text text-anchor="middle" x="1182.5" y="-174.5" font-family="Helvetica,sans-Serif" font-size="10.00">ActionData.setDriver</text>
</a>
</g>
</g>
<!-- Node5&#45;&gt;Node8 -->
<g id="edge7" class="edge"><title>Node5&#45;&gt;Node8</title>
<path fill="none" stroke="midnightblue" d="M1043.03,-196.98C1058.95,-195.316 1075.49,-193.586 1091.38,-191.924"/>
<polygon fill="midnightblue" stroke="midnightblue" points="1092.13,-195.365 1101.71,-190.844 1091.4,-188.403 1092.13,-195.365"/>
</g>
<!-- Node9 -->
<g id="node9" class="node"><title>Node9</title>
<g id="a_node9"><a xlink:href="a00007.html#a0825a9ec5bee8b6de8e7b244d991c04d" target="_top" xlink:title="this method sets the value of the input parameter. ">
<polygon fill="white" stroke="black" points="1102,-118.5 1102,-148.5 1263,-148.5 1263,-118.5 1102,-118.5"/>
<text text-anchor="start" x="1110" y="-136.5" font-family="Helvetica,sans-Serif" font-size="10.00">beseenium.model.actionData.</text>
<text text-anchor="middle" x="1182.5" y="-125.5" font-family="Helvetica,sans-Serif" font-size="10.00">ActionData.setInputParam</text>
</a>
</g>
</g>
<!-- Node5&#45;&gt;Node9 -->
<g id="edge8" class="edge"><title>Node5&#45;&gt;Node9</title>
<path fill="none" stroke="midnightblue" d="M1026.23,-196.933C1036.81,-194.266 1047.36,-190.858 1057,-186.5 1075.47,-178.149 1074.91,-167.647 1093,-158.5 1097.6,-156.173 1102.45,-154.035 1107.41,-152.076"/>
<polygon fill="midnightblue" stroke="midnightblue" points="1108.88,-155.266 1117.05,-148.526 1106.46,-148.697 1108.88,-155.266"/>
</g>
<!-- Node14&#45;&gt;Node13 -->
<g id="edge14" class="edge"><title>Node14&#45;&gt;Node13</title>
<path fill="none" stroke="midnightblue" d="M550.273,-78.7662C562.557,-79.7937 575.088,-80.842 587.423,-81.8738"/>
<polygon fill="midnightblue" stroke="midnightblue" points="587.472,-85.39 597.729,-82.7359 588.055,-78.4144 587.472,-85.39"/>
</g>
</g>
</svg>
        <g id="navigator" transform="translate(0 0)" fill="#404254">
                <rect fill="#f2f5e9" fill-opacity="0.5" stroke="#606060" stroke-width=".5" x="0" y="0" width="60" height="60"/>
                <use id="zoomplus" xlink:href="#zoomPlus" x="17" y="9" onmousedown="handleZoom(evt,'in')"/>
                <use id="zoomminus" xlink:href="#zoomMin" x="42" y="9" onmousedown="handleZoom(evt,'out')"/>
                <use id="reset" xlink:href="#resetDef" x="30" y="36" onmousedown="handleReset()"/>
                <g id="arrowUp" xlink:href="#dirArrow" transform="translate(30 24)" onmousedown="handlePan(0,-1)">
                  <use xlink:href="#rim" fill="#404040">
                        <set attributeName="fill" to="#808080" begin="arrowUp.mouseover" end="arrowUp.mouseout"/>
                  </use>
                  <path fill="none" stroke="white" stroke-width="1.5" d="M0,-3.0v7 M-2.5,-0.5L0,-3.0L2.5,-0.5"/>
                </g>
                <g id="arrowRight" xlink:href="#dirArrow" transform="rotate(90) translate(36 -43)" onmousedown="handlePan(1,0)">
                  <use xlink:href="#rim" fill="#404040">
                        <set attributeName="fill" to="#808080" begin="arrowRight.mouseover" end="arrowRight.mouseout"/>
                  </use>
                  <path fill="none" stroke="white" stroke-width="1.5" d="M0,-3.0v7 M-2.5,-0.5L0,-3.0L2.5,-0.5"/>
                </g>
                <g id="arrowDown" xlink:href="#dirArrow" transform="rotate(180) translate(-30 -48)" onmousedown="handlePan(0,1)">
                  <use xlink:href="#rim" fill="#404040">
                        <set attributeName="fill" to="#808080" begin="arrowDown.mouseover" end="arrowDown.mouseout"/>
                  </use>
                  <path fill="none" stroke="white" stroke-width="1.5" d="M0,-3.0v7 M-2.5,-0.5L0,-3.0L2.5,-0.5"/>
                </g>
                <g id="arrowLeft" xlink:href="#dirArrow" transform="rotate(270) translate(-36 17)" onmousedown="handlePan(-1,0)">
                  <use xlink:href="#rim" fill="#404040">
                        <set attributeName="fill" to="#808080" begin="arrowLeft.mouseover" end="arrowLeft.mouseout"/>
                  </use>
                  <path fill="none" stroke="white" stroke-width="1.5" d="M0,-3.0v7 M-2.5,-0.5L0,-3.0L2.5,-0.5"/>
                </g>
        </g>
        <svg viewBox="0 0 15 15" width="100%" height="30px" preserveAspectRatio="xMaxYMin meet">
         <g id="arrow_out" transform="scale(0.3 0.3)">
          <a xlink:href="a00109_ade06e27882a65a5fc8e93a3292cd12b6_cgraph_org.svg" target="_base">
           <rect id="button" ry="5" rx="5" y="6" x="6" height="38" width="38"
                fill="#f2f5e9" fill-opacity="0.5" stroke="#606060" stroke-width="1.0"/>
           <path id="arrow"
             d="M 11.500037,31.436501 C 11.940474,20.09759 22.043105,11.32322 32.158766,21.979434 L 37.068811,17.246167 C 37.068811,17.246167 37.088388,32 37.088388,32 L 22.160133,31.978069 C 22.160133,31.978069 26.997745,27.140456 26.997745,27.140456 C 18.528582,18.264221 13.291696,25.230495 11.500037,31.436501 z"
             style="fill:#404040;"/>
          </a>
         </g>
        </svg>
</svg>
