<?xml version="1.0" encoding="UTF-8" standalone="no"?>
<!DOCTYPE svg PUBLIC "-//W3C//DTD SVG 1.1//EN"
 "http://www.w3.org/Graphics/SVG/1.1/DTD/svg11.dtd">
<!-- Generated by graphviz version 2.38.0 (20140413.2041)
 -->
<!-- Title: beseenium.controller.Test.emergencyShutdown Pages: 1 -->
<svg width="1000pt" height="235pt"
 viewBox="0.00 0.00 1000.00 235.50" xmlns="http://www.w3.org/2000/svg" xmlns:xlink="http://www.w3.org/1999/xlink">
<g id="graph0" class="graph" transform="scale(1 1) rotate(0) translate(4 231.5)">
<title>beseenium.controller.Test.emergencyShutdown</title>
<polygon fill="white" stroke="none" points="-4,4 -4,-231.5 996,-231.5 996,4 -4,4"/>
<!-- Node1 -->
<g id="node1" class="node"><title>Node1</title>
<polygon fill="#bfbfbf" stroke="black" points="0,-132.5 0,-162.5 198,-162.5 198,-132.5 0,-132.5"/>
<text text-anchor="start" x="8" y="-150.5" font-family="Helvetica,sans-Serif" font-size="10.00">beseenium.controller.Test.emergency</text>
<text text-anchor="middle" x="99" y="-139.5" font-family="Helvetica,sans-Serif" font-size="10.00">Shutdown</text>
</g>
<!-- Node2 -->
<g id="node2" class="node"><title>Node2</title>
<g id="a_node2"><a xlink:href="a00036.html#a2413846626263a20383c8341d7dd2e47" target="_top" xlink:title="in case something goes wrong the test should be able to shut down the current browser instance...">
<polygon fill="white" stroke="black" points="240.5,-166.5 240.5,-196.5 428.5,-196.5 428.5,-166.5 240.5,-166.5"/>
<text text-anchor="start" x="248.5" y="-184.5" font-family="Helvetica,sans-Serif" font-size="10.00">beseenium.view.helpers.Emergency</text>
<text text-anchor="middle" x="334.5" y="-173.5" font-family="Helvetica,sans-Serif" font-size="10.00">Shutdown.execute</text>
</a>
</g>
</g>
<!-- Node1&#45;&gt;Node2 -->
<g id="edge1" class="edge"><title>Node1&#45;&gt;Node2</title>
<path fill="none" stroke="midnightblue" d="M208.219,-163.258C218.91,-164.815 229.697,-166.385 240.218,-167.917"/>
<polygon fill="midnightblue" stroke="midnightblue" points="208.41,-159.749 198.01,-161.771 207.401,-166.676 208.41,-159.749"/>
</g>
<!-- Node4 -->
<g id="node4" class="node"><title>Node4</title>
<g id="a_node4"><a xlink:href="a00122.html#ab3a029a7ca30c5f8a0344c4634b9daf0" target="_top" xlink:title="in case something goes wrong the test should be able to shut down the current browser instance...">
<polygon fill="white" stroke="black" points="234,-104 234,-123 435,-123 435,-104 234,-104"/>
<text text-anchor="middle" x="334.5" y="-111" font-family="Helvetica,sans-Serif" font-size="10.00">beseenium.view.URLHandler.shutdown</text>
</a>
</g>
</g>
<!-- Node1&#45;&gt;Node4 -->
<g id="edge3" class="edge"><title>Node1&#45;&gt;Node4</title>
<path fill="none" stroke="midnightblue" d="M208.012,-131.772C228.469,-128.794 249.285,-125.763 267.93,-123.048"/>
<polygon fill="midnightblue" stroke="midnightblue" points="207.401,-128.324 198.01,-133.229 208.41,-135.251 207.401,-128.324"/>
</g>
<!-- Node3 -->
<g id="node3" class="node"><title>Node3</title>
<g id="a_node3"><a xlink:href="a00113.html#ade06e27882a65a5fc8e93a3292cd12b6" target="_top" xlink:title="beseenium.view.outputHandlers.request\lHandlers.executeHandlers.RootExecuteHandler.handle\lRequest">
<polygon fill="white" stroke="black" points="471,-186 471,-227 750,-227 750,-186 471,-186"/>
<text text-anchor="start" x="479" y="-215" font-family="Helvetica,sans-Serif" font-size="10.00">beseenium.view.outputHandlers.request</text>
<text text-anchor="start" x="479" y="-204" font-family="Helvetica,sans-Serif" font-size="10.00">Handlers.executeHandlers.RootExecuteHandler.handle</text>
<text text-anchor="middle" x="610.5" y="-193" font-family="Helvetica,sans-Serif" font-size="10.00">Request</text>
</a>
</g>
</g>
<!-- Node2&#45;&gt;Node3 -->
<g id="edge2" class="edge"><title>Node2&#45;&gt;Node3</title>
<path fill="none" stroke="midnightblue" d="M438.671,-190.913C449.228,-191.877 460.07,-192.866 470.926,-193.856"/>
<polygon fill="midnightblue" stroke="midnightblue" points="438.923,-187.422 428.646,-189.999 438.287,-194.393 438.923,-187.422"/>
</g>
<!-- Node5 -->
<g id="node5" class="node"><title>Node5</title>
<g id="a_node5"><a xlink:href="a00122.html#a5d57a46df8465d2c40f22fd8cb037c9c" target="_top" xlink:title="takes the URL parameters passed to it from the BeSeeniumServlet and uses it to populate and run a Tes...">
<polygon fill="white" stroke="black" points="786,-79 786,-98 992,-98 992,-79 786,-79"/>
<text text-anchor="middle" x="889" y="-86" font-family="Helvetica,sans-Serif" font-size="10.00">beseenium.view.URLHandler.handleURL</text>
</a>
</g>
</g>
<!-- Node4&#45;&gt;Node5 -->
<g id="edge4" class="edge"><title>Node4&#45;&gt;Node5</title>
<path fill="none" stroke="midnightblue" d="M388.255,-125.06C413.206,-129.956 443.494,-135.083 471,-137.5 594.524,-148.355 627.8,-158.551 750,-137.5 793.595,-129.99 841.681,-110.052 868.013,-98.0499"/>
<polygon fill="midnightblue" stroke="midnightblue" points="388.759,-121.591 378.266,-123.057 387.383,-128.455 388.759,-121.591"/>
</g>
<!-- Node6 -->
<g id="node6" class="node"><title>Node6</title>
<g id="a_node6"><a xlink:href="a00122.html#ae0ec35bbb8622775c22687d68a8a830d" target="_top" xlink:title="takes an input from servlet(via handleURL method) in the form of string &#39;get&#39; URL parameter &#39;capabili...">
<polygon fill="white" stroke="black" points="516.5,-98.5 516.5,-128.5 704.5,-128.5 704.5,-98.5 516.5,-98.5"/>
<text text-anchor="start" x="524.5" y="-116.5" font-family="Helvetica,sans-Serif" font-size="10.00">beseenium.view.URLHandler.handle</text>
<text text-anchor="middle" x="610.5" y="-105.5" font-family="Helvetica,sans-Serif" font-size="10.00">Capabilities</text>
</a>
</g>
</g>
<!-- Node4&#45;&gt;Node6 -->
<g id="edge5" class="edge"><title>Node4&#45;&gt;Node6</title>
<path fill="none" stroke="midnightblue" d="M445.208,-113.5C468.751,-113.5 493.414,-113.5 516.263,-113.5"/>
<polygon fill="midnightblue" stroke="midnightblue" points="445.195,-110 435.195,-113.5 445.195,-117 445.195,-110"/>
</g>
<!-- Node7 -->
<g id="node7" class="node"><title>Node7</title>
<g id="a_node7"><a xlink:href="a00122.html#a7696fb55c864a910283e742115b7ed15" target="_top" xlink:title="takes an input from servlet(via handleURL method) in the form of string &#39;get&#39; URL parameter &#39;browser&#39;...">
<polygon fill="white" stroke="black" points="516.5,-49.5 516.5,-79.5 704.5,-79.5 704.5,-49.5 516.5,-49.5"/>
<text text-anchor="start" x="524.5" y="-67.5" font-family="Helvetica,sans-Serif" font-size="10.00">beseenium.view.URLHandler.handle</text>
<text text-anchor="middle" x="610.5" y="-56.5" font-family="Helvetica,sans-Serif" font-size="10.00">Browser</text>
</a>
</g>
</g>
<!-- Node4&#45;&gt;Node7 -->
<g id="edge7" class="edge"><title>Node4&#45;&gt;Node7</title>
<path fill="none" stroke="midnightblue" d="M398.974,-102.149C436.601,-95.4198 484.744,-86.8104 525.492,-79.5233"/>
<polygon fill="midnightblue" stroke="midnightblue" points="397.883,-98.7884 388.655,-103.994 399.115,-105.679 397.883,-98.7884"/>
</g>
<!-- Node8 -->
<g id="node8" class="node"><title>Node8</title>
<g id="a_node8"><a xlink:href="a00122.html#aa2ec4a8ab58fee50c2a0a4ace58fd981" target="_top" xlink:title="takes an input from servlet(via handleURL method) in the form of string &#39;get&#39; URL parameter &#39;addActio...">
<polygon fill="white" stroke="black" points="516.5,-0.5 516.5,-30.5 704.5,-30.5 704.5,-0.5 516.5,-0.5"/>
<text text-anchor="start" x="524.5" y="-18.5" font-family="Helvetica,sans-Serif" font-size="10.00">beseenium.view.URLHandler.handle</text>
<text text-anchor="middle" x="610.5" y="-7.5" font-family="Helvetica,sans-Serif" font-size="10.00">AddActions</text>
</a>
</g>
</g>
<!-- Node4&#45;&gt;Node8 -->
<g id="edge9" class="edge"><title>Node4&#45;&gt;Node8</title>
<path fill="none" stroke="midnightblue" d="M358.261,-98.3205C384.38,-81.6102 429.032,-55.1744 471,-40.5 485.415,-35.4596 501.047,-31.3902 516.442,-28.1181"/>
<polygon fill="midnightblue" stroke="midnightblue" points="356.314,-95.4114 349.829,-103.79 360.123,-101.284 356.314,-95.4114"/>
</g>
<!-- Node6&#45;&gt;Node5 -->
<g id="edge6" class="edge"><title>Node6&#45;&gt;Node5</title>
<path fill="none" stroke="midnightblue" d="M714.899,-104.151C738.044,-102.058 762.584,-99.8396 785.685,-97.7509"/>
<polygon fill="midnightblue" stroke="midnightblue" points="714.369,-100.685 704.725,-105.071 714.999,-107.656 714.369,-100.685"/>
</g>
<!-- Node7&#45;&gt;Node5 -->
<g id="edge8" class="edge"><title>Node7&#45;&gt;Node5</title>
<path fill="none" stroke="midnightblue" d="M714.899,-73.475C738.044,-75.484 762.584,-77.614 785.685,-79.6191"/>
<polygon fill="midnightblue" stroke="midnightblue" points="714.99,-69.9698 704.725,-72.5918 714.385,-76.9436 714.99,-69.9698"/>
</g>
<!-- Node8&#45;&gt;Node5 -->
<g id="edge10" class="edge"><title>Node8&#45;&gt;Node5</title>
<path fill="none" stroke="midnightblue" d="M714.717,-32.2893C726.673,-34.7778 738.645,-37.5199 750,-40.5 790.729,-51.1891 836.662,-68.1984 863.926,-78.8369"/>
<polygon fill="midnightblue" stroke="midnightblue" points="715.187,-28.8135 704.691,-30.259 713.797,-35.6742 715.187,-28.8135"/>
</g>
</g>
</svg>
