<?xml version="1.0" encoding="UTF-8" standalone="no"?>
<!DOCTYPE svg PUBLIC "-//W3C//DTD SVG 1.1//EN"
 "http://www.w3.org/Graphics/SVG/1.1/DTD/svg11.dtd">
<!-- Generated by graphviz version 2.38.0 (20140413.2041)
 -->
<!-- Title: beseenium.controller.Test.emergencyShutdown Pages: 1 -->
<svg width="669pt" height="232pt"
 viewBox="0.00 0.00 669.00 232.50" xmlns="http://www.w3.org/2000/svg" xmlns:xlink="http://www.w3.org/1999/xlink">
<g id="graph0" class="graph" transform="scale(1 1) rotate(0) translate(4 228.5)">
<title>beseenium.controller.Test.emergencyShutdown</title>
<polygon fill="white" stroke="none" points="-4,4 -4,-228.5 665,-228.5 665,4 -4,4"/>
<!-- Node1 -->
<g id="node1" class="node"><title>Node1</title>
<polygon fill="#bfbfbf" stroke="black" points="0,-77 0,-107 198,-107 198,-77 0,-77"/>
<text text-anchor="start" x="8" y="-95" font-family="Helvetica,sans-Serif" font-size="10.00">beseenium.controller.Test.emergency</text>
<text text-anchor="middle" x="99" y="-84" font-family="Helvetica,sans-Serif" font-size="10.00">Shutdown</text>
</g>
<!-- Node2 -->
<g id="node2" class="node"><title>Node2</title>
<g id="a_node2"><a xlink:href="a00014.html#abf329444fb06b3cf9b4dc5c0a11832b2" target="_top" xlink:title="Adds an abstract action to the action queue, each action has an input parameter and an index n...">
<polygon fill="white" stroke="black" points="244.5,-164.5 244.5,-183.5 435.5,-183.5 435.5,-164.5 244.5,-164.5"/>
<text text-anchor="middle" x="340" y="-171.5" font-family="Helvetica,sans-Serif" font-size="10.00">beseenium.model.ActionInvoker.add</text>
</a>
</g>
</g>
<!-- Node1&#45;&gt;Node2 -->
<g id="edge1" class="edge"><title>Node1&#45;&gt;Node2</title>
<path fill="none" stroke="midnightblue" d="M126.616,-107.058C153.069,-121.404 195.188,-142.599 234,-155 242.747,-157.795 252.044,-160.22 261.349,-162.313"/>
<polygon fill="midnightblue" stroke="midnightblue" points="260.915,-165.799 271.424,-164.456 262.372,-158.952 260.915,-165.799"/>
</g>
<!-- Node3 -->
<g id="node3" class="node"><title>Node3</title>
<g id="a_node3"><a xlink:href="a00014.html#abd8f9cf7dc1cf8d14b0334d7b0fe633f" target="_top" xlink:title="iterates through the commands stored in the list and executes ">
<polygon fill="white" stroke="black" points="234,-126.5 234,-145.5 446,-145.5 446,-126.5 234,-126.5"/>
<text text-anchor="middle" x="340" y="-133.5" font-family="Helvetica,sans-Serif" font-size="10.00">beseenium.model.ActionInvoker.execute</text>
</a>
</g>
</g>
<!-- Node1&#45;&gt;Node3 -->
<g id="edge2" class="edge"><title>Node1&#45;&gt;Node3</title>
<path fill="none" stroke="midnightblue" d="M181.582,-107.019C212.912,-112.787 248.121,-119.269 277.284,-124.638"/>
<polygon fill="midnightblue" stroke="midnightblue" points="276.862,-128.119 287.33,-126.488 278.129,-121.235 276.862,-128.119"/>
</g>
<!-- Node8 -->
<g id="node8" class="node"><title>Node8</title>
<g id="a_node8"><a xlink:href="a00012.html#a8283241ec6b94055f72282f99815155d" target="_top" xlink:title="creates an Action ">
<polygon fill="white" stroke="black" points="250,-77 250,-107 430,-107 430,-77 250,-77"/>
<text text-anchor="start" x="258" y="-95" font-family="Helvetica,sans-Serif" font-size="10.00">beseenium.controller.Action</text>
<text text-anchor="middle" x="340" y="-84" font-family="Helvetica,sans-Serif" font-size="10.00">Factory.ActionFactory.makeAction</text>
</a>
</g>
</g>
<!-- Node1&#45;&gt;Node8 -->
<g id="edge7" class="edge"><title>Node1&#45;&gt;Node8</title>
<path fill="none" stroke="midnightblue" d="M198.245,-92C211.89,-92 225.918,-92 239.584,-92"/>
<polygon fill="midnightblue" stroke="midnightblue" points="239.953,-95.5001 249.953,-92 239.953,-88.5001 239.953,-95.5001"/>
</g>
<!-- Node9 -->
<g id="node9" class="node"><title>Node9</title>
<g id="a_node9"><a xlink:href="a00014.html#af7d6d40d83ef5753d06f553b0be06bc5" target="_top" xlink:title="removes the last Action and associated parameters ">
<polygon fill="white" stroke="black" points="235,-38.5 235,-57.5 445,-57.5 445,-38.5 235,-38.5"/>
<text text-anchor="middle" x="340" y="-45.5" font-family="Helvetica,sans-Serif" font-size="10.00">beseenium.model.ActionInvoker.remove</text>
</a>
</g>
</g>
<!-- Node1&#45;&gt;Node9 -->
<g id="edge8" class="edge"><title>Node1&#45;&gt;Node9</title>
<path fill="none" stroke="midnightblue" d="M181.582,-76.9808C212.912,-71.2129 248.121,-64.7309 277.284,-59.362"/>
<polygon fill="midnightblue" stroke="midnightblue" points="278.129,-62.7652 287.33,-57.5124 276.862,-55.8809 278.129,-62.7652"/>
</g>
<!-- Node10 -->
<g id="node10" class="node"><title>Node10</title>
<g id="a_node10"><a xlink:href="a00014.html#a315c13ebb167511b6895aabefe8b6c8e" target="_top" xlink:title="get the current size of the invoker ">
<polygon fill="white" stroke="black" points="244,-0.5 244,-19.5 436,-19.5 436,-0.5 244,-0.5"/>
<text text-anchor="middle" x="340" y="-7.5" font-family="Helvetica,sans-Serif" font-size="10.00">beseenium.model.ActionInvoker.size</text>
</a>
</g>
</g>
<!-- Node1&#45;&gt;Node10 -->
<g id="edge9" class="edge"><title>Node1&#45;&gt;Node10</title>
<path fill="none" stroke="midnightblue" d="M126.616,-76.9419C153.069,-62.5958 195.188,-41.4005 234,-29 242.747,-26.2052 252.044,-23.7804 261.349,-21.687"/>
<polygon fill="midnightblue" stroke="midnightblue" points="262.372,-25.0479 271.424,-19.5437 260.915,-18.2012 262.372,-25.0479"/>
</g>
<!-- Node4 -->
<g id="node4" class="node"><title>Node4</title>
<g id="a_node4"><a xlink:href="a00001.html#a1dade057d9cb3bfecefdb716aae91d33" target="_top" xlink:title="get the ActionData object stored in the derived Action ">
<polygon fill="white" stroke="black" points="482,-194 482,-224 661,-224 661,-194 482,-194"/>
<text text-anchor="start" x="490" y="-212" font-family="Helvetica,sans-Serif" font-size="10.00">beseenium.model.action.Abstract</text>
<text text-anchor="middle" x="571.5" y="-201" font-family="Helvetica,sans-Serif" font-size="10.00">Action.getActionData</text>
</a>
</g>
</g>
<!-- Node3&#45;&gt;Node4 -->
<g id="edge3" class="edge"><title>Node3&#45;&gt;Node4</title>
<path fill="none" stroke="midnightblue" d="M418.905,-145.558C428.253,-148.019 437.491,-151.112 446,-155 464.688,-163.538 463.745,-174.572 482,-184 486.495,-186.321 491.233,-188.451 496.086,-190.401"/>
<polygon fill="midnightblue" stroke="midnightblue" points="494.931,-193.706 505.524,-193.933 497.384,-187.15 494.931,-193.706"/>
</g>
<!-- Node5 -->
<g id="node5" class="node"><title>Node5</title>
<g id="a_node5"><a xlink:href="a00005.html#a0825a9ec5bee8b6de8e7b244d991c04d" target="_top" xlink:title="this method sets the value of the input parameter. ">
<polygon fill="white" stroke="black" points="491,-145 491,-175 652,-175 652,-145 491,-145"/>
<text text-anchor="start" x="499" y="-163" font-family="Helvetica,sans-Serif" font-size="10.00">beseenium.model.actionData.</text>
<text text-anchor="middle" x="571.5" y="-152" font-family="Helvetica,sans-Serif" font-size="10.00">ActionData.setInputParam</text>
</a>
</g>
</g>
<!-- Node3&#45;&gt;Node5 -->
<g id="edge4" class="edge"><title>Node3&#45;&gt;Node5</title>
<path fill="none" stroke="midnightblue" d="M432.034,-145.52C447.946,-147.184 464.495,-148.914 480.382,-150.576"/>
<polygon fill="midnightblue" stroke="midnightblue" points="480.403,-154.097 490.713,-151.656 481.132,-147.135 480.403,-154.097"/>
</g>
<!-- Node6 -->
<g id="node6" class="node"><title>Node6</title>
<g id="a_node6"><a xlink:href="a00005.html#a1cbbd813f07556de640f8f3b3f03587a" target="_top" xlink:title="Sets the WebDriver associated with this ActionData. ">
<polygon fill="white" stroke="black" points="491,-96 491,-126 652,-126 652,-96 491,-96"/>
<text text-anchor="start" x="499" y="-114" font-family="Helvetica,sans-Serif" font-size="10.00">beseenium.model.actionData.</text>
<text text-anchor="middle" x="571.5" y="-103" font-family="Helvetica,sans-Serif" font-size="10.00">ActionData.setDriver</text>
</a>
</g>
</g>
<!-- Node3&#45;&gt;Node6 -->
<g id="edge5" class="edge"><title>Node3&#45;&gt;Node6</title>
<path fill="none" stroke="midnightblue" d="M428.419,-126.477C445.573,-124.609 463.593,-122.646 480.82,-120.769"/>
<polygon fill="midnightblue" stroke="midnightblue" points="481.296,-124.238 490.859,-119.676 480.538,-117.279 481.296,-124.238"/>
</g>
<!-- Node7 -->
<g id="node7" class="node"><title>Node7</title>
<g id="a_node7"><a xlink:href="a00001.html#a24e2b60937596ecd18cd17cfe7595c5d" target="_top" xlink:title="execute the derived Action in question, ">
<polygon fill="white" stroke="black" points="482,-47 482,-77 661,-77 661,-47 482,-47"/>
<text text-anchor="start" x="490" y="-65" font-family="Helvetica,sans-Serif" font-size="10.00">beseenium.model.action.Abstract</text>
<text text-anchor="middle" x="571.5" y="-54" font-family="Helvetica,sans-Serif" font-size="10.00">Action.execute</text>
</a>
</g>
</g>
<!-- Node3&#45;&gt;Node7 -->
<g id="edge6" class="edge"><title>Node3&#45;&gt;Node7</title>
<path fill="none" stroke="midnightblue" d="M415.854,-126.439C426.238,-123.773 436.568,-120.362 446,-116 464.648,-107.376 463.745,-96.4276 482,-87 486.495,-84.6785 491.233,-82.5487 496.086,-80.5987"/>
<polygon fill="midnightblue" stroke="midnightblue" points="497.384,-83.8498 505.524,-77.0672 494.931,-77.2937 497.384,-83.8498"/>
</g>
</g>
</svg>
