<?xml version="1.0" encoding="UTF-8" standalone="no"?>
<!DOCTYPE svg PUBLIC "-//W3C//DTD SVG 1.1//EN"
 "http://www.w3.org/Graphics/SVG/1.1/DTD/svg11.dtd">
<!-- Generated by graphviz version 2.38.0 (20140413.2041)
 -->
<!-- Title: beseenium.controller.Test.setBrowser Pages: 1 -->
<svg width="400pt" height="50pt"
 viewBox="0.00 0.00 400.00 50.00" xmlns="http://www.w3.org/2000/svg" xmlns:xlink="http://www.w3.org/1999/xlink">
<g id="graph0" class="graph" transform="scale(1 1) rotate(0) translate(4 46)">
<title>beseenium.controller.Test.setBrowser</title>
<polygon fill="white" stroke="none" points="-4,4 -4,-46 396,-46 396,4 -4,4"/>
<!-- Node1 -->
<g id="node1" class="node"><title>Node1</title>
<polygon fill="#bfbfbf" stroke="black" points="0,-6 0,-36 159,-36 159,-6 0,-6"/>
<text text-anchor="start" x="8" y="-24" font-family="Helvetica,sans-Serif" font-size="10.00">beseenium.controller.Test.set</text>
<text text-anchor="middle" x="79.5" y="-13" font-family="Helvetica,sans-Serif" font-size="10.00">Browser</text>
</g>
<!-- Node2 -->
<g id="node2" class="node"><title>Node2</title>
<g id="a_node2"><a xlink:href="a00017.html#a145de3f5a1b2e2edec2927337796403f" target="_top" xlink:title="provides an ActionData devoid of any pre initialised data, i.e. ">
<polygon fill="white" stroke="black" points="195,-0.5 195,-41.5 392,-41.5 392,-0.5 195,-0.5"/>
<text text-anchor="start" x="203" y="-29.5" font-family="Helvetica,sans-Serif" font-size="10.00">beseenium.controller.Action</text>
<text text-anchor="start" x="203" y="-18.5" font-family="Helvetica,sans-Serif" font-size="10.00">DataFactory.ActionDataFactory.make</text>
<text text-anchor="middle" x="293.5" y="-7.5" font-family="Helvetica,sans-Serif" font-size="10.00">ActionData</text>
</a>
</g>
</g>
<!-- Node1&#45;&gt;Node2 -->
<g id="edge1" class="edge"><title>Node1&#45;&gt;Node2</title>
<path fill="none" stroke="midnightblue" d="M159.14,-21C167.525,-21 176.155,-21 184.8,-21"/>
<polygon fill="midnightblue" stroke="midnightblue" points="184.942,-24.5001 194.942,-21 184.942,-17.5001 184.942,-24.5001"/>
</g>
</g>
</svg>
