<?xml version="1.0" encoding="UTF-8" standalone="no"?>
<!DOCTYPE svg PUBLIC "-//W3C//DTD SVG 1.1//EN"
 "http://www.w3.org/Graphics/SVG/1.1/DTD/svg11.dtd">
<!-- Generated by graphviz version 2.38.0 (20140413.2041)
 -->
<!-- Title: beseenium.view.URLHandler.handleURL Pages: 1 -->
<svg width="1372pt" height="338pt"
 viewBox="0.00 0.00 1372.00 338.50" xmlns="http://www.w3.org/2000/svg" xmlns:xlink="http://www.w3.org/1999/xlink">
<g id="graph0" class="graph" transform="scale(1 1) rotate(0) translate(4 334.5)">
<title>beseenium.view.URLHandler.handleURL</title>
<polygon fill="white" stroke="none" points="-4,4 -4,-334.5 1368,-334.5 1368,4 -4,4"/>
<!-- Node1 -->
<g id="node1" class="node"><title>Node1</title>
<polygon fill="#bfbfbf" stroke="black" points="0,-148.5 0,-167.5 206,-167.5 206,-148.5 0,-148.5"/>
<text text-anchor="middle" x="103" y="-155.5" font-family="Helvetica,sans-Serif" font-size="10.00">beseenium.view.URLHandler.handleURL</text>
</g>
<!-- Node2 -->
<g id="node2" class="node"><title>Node2</title>
<g id="a_node2"><a xlink:href="a00121.html#a314a83d197e751b5927b1e060f111e0d" target="_top" xlink:title="executes all actions in this test, in the sequence they were added ">
<polygon fill="white" stroke="black" points="245,-238 245,-268 427,-268 427,-238 245,-238"/>
<text text-anchor="start" x="253" y="-256" font-family="Helvetica,sans-Serif" font-size="10.00">beseenium.controller.Test.execute</text>
<text text-anchor="middle" x="336" y="-245" font-family="Helvetica,sans-Serif" font-size="10.00">Actions</text>
</a>
</g>
</g>
<!-- Node1&#45;&gt;Node2 -->
<g id="edge1" class="edge"><title>Node1&#45;&gt;Node2</title>
<path fill="none" stroke="midnightblue" d="M120.989,-167.586C146.607,-181.759 196.932,-208.51 242,-226 250.199,-229.182 258.931,-232.191 267.635,-234.965"/>
<polygon fill="midnightblue" stroke="midnightblue" points="266.833,-238.38 277.421,-237.993 268.903,-231.693 266.833,-238.38"/>
</g>
<!-- Node8 -->
<g id="node8" class="node"><title>Node8</title>
<g id="a_node8"><a xlink:href="a00123.html#aa2ec4a8ab58fee50c2a0a4ace58fd981" target="_top" xlink:title="takes an input from servlet(via handleURL method) in the form of string &#39;get&#39; URL parameter &#39;addActio...">
<polygon fill="white" stroke="black" points="242,-99 242,-129 430,-129 430,-99 242,-99"/>
<text text-anchor="start" x="250" y="-117" font-family="Helvetica,sans-Serif" font-size="10.00">beseenium.view.URLHandler.handle</text>
<text text-anchor="middle" x="336" y="-106" font-family="Helvetica,sans-Serif" font-size="10.00">AddActions</text>
</a>
</g>
</g>
<!-- Node1&#45;&gt;Node8 -->
<g id="edge7" class="edge"><title>Node1&#45;&gt;Node8</title>
<path fill="none" stroke="midnightblue" d="M154.124,-148.453C180.944,-143.344 214.778,-136.899 245.907,-130.97"/>
<polygon fill="midnightblue" stroke="midnightblue" points="246.738,-134.375 255.907,-129.065 245.429,-127.498 246.738,-134.375"/>
</g>
<!-- Node12 -->
<g id="node12" class="node"><title>Node12</title>
<g id="a_node12"><a xlink:href="a00123.html#ab3a029a7ca30c5f8a0344c4634b9daf0" target="_top" xlink:title="in case something goes wrong the test should be able to shut down the current browser instance...">
<polygon fill="white" stroke="black" points="466,-142.5 466,-161.5 667,-161.5 667,-142.5 466,-142.5"/>
<text text-anchor="middle" x="566.5" y="-149.5" font-family="Helvetica,sans-Serif" font-size="10.00">beseenium.view.URLHandler.shutdown</text>
</a>
</g>
</g>
<!-- Node1&#45;&gt;Node12 -->
<g id="edge28" class="edge"><title>Node1&#45;&gt;Node12</title>
<path fill="none" stroke="midnightblue" d="M206.136,-156.672C280.075,-155.711 379.902,-154.413 455.578,-153.429"/>
<polygon fill="midnightblue" stroke="midnightblue" points="455.667,-156.928 465.621,-153.299 455.576,-149.929 455.667,-156.928"/>
</g>
<!-- Node17 -->
<g id="node17" class="node"><title>Node17</title>
<g id="a_node17"><a xlink:href="a00123.html#a7696fb55c864a910283e742115b7ed15" target="_top" xlink:title="takes an input from servlet(via handleURL method) in the form of string &#39;get&#39; URL parameter &#39;browser&#39;...">
<polygon fill="white" stroke="black" points="242,-187 242,-217 430,-217 430,-187 242,-187"/>
<text text-anchor="start" x="250" y="-205" font-family="Helvetica,sans-Serif" font-size="10.00">beseenium.view.URLHandler.handle</text>
<text text-anchor="middle" x="336" y="-194" font-family="Helvetica,sans-Serif" font-size="10.00">Browser</text>
</a>
</g>
</g>
<!-- Node1&#45;&gt;Node17 -->
<g id="edge19" class="edge"><title>Node1&#45;&gt;Node17</title>
<path fill="none" stroke="midnightblue" d="M154.124,-167.547C180.944,-172.656 214.778,-179.101 245.907,-185.03"/>
<polygon fill="midnightblue" stroke="midnightblue" points="245.429,-188.502 255.907,-186.935 246.738,-181.625 245.429,-188.502"/>
</g>
<!-- Node20 -->
<g id="node20" class="node"><title>Node20</title>
<g id="a_node20"><a xlink:href="a00123.html#ae0ec35bbb8622775c22687d68a8a830d" target="_top" xlink:title="takes an input from servlet(via handleURL method) in the form of string &#39;get&#39; URL parameter &#39;capabili...">
<polygon fill="white" stroke="black" points="242,-50 242,-80 430,-80 430,-50 242,-50"/>
<text text-anchor="start" x="250" y="-68" font-family="Helvetica,sans-Serif" font-size="10.00">beseenium.view.URLHandler.handle</text>
<text text-anchor="middle" x="336" y="-57" font-family="Helvetica,sans-Serif" font-size="10.00">Capabilities</text>
</a>
</g>
</g>
<!-- Node1&#45;&gt;Node20 -->
<g id="edge23" class="edge"><title>Node1&#45;&gt;Node20</title>
<path fill="none" stroke="midnightblue" d="M120.945,-148.298C146.507,-133.977 196.759,-107.04 242,-90 248.669,-87.488 255.696,-85.1195 262.776,-82.9163"/>
<polygon fill="midnightblue" stroke="midnightblue" points="263.864,-86.244 272.435,-80.0163 261.851,-79.5397 263.864,-86.244"/>
</g>
<!-- Node3 -->
<g id="node3" class="node"><title>Node3</title>
<g id="a_node3"><a xlink:href="a00020.html#abd8f9cf7dc1cf8d14b0334d7b0fe633f" target="_top" xlink:title="iterates through the commands stored in the list and executes ">
<polygon fill="white" stroke="black" points="937,-231.5 937,-250.5 1149,-250.5 1149,-231.5 937,-231.5"/>
<text text-anchor="middle" x="1043" y="-238.5" font-family="Helvetica,sans-Serif" font-size="10.00">beseenium.model.ActionInvoker.execute</text>
</a>
</g>
</g>
<!-- Node2&#45;&gt;Node3 -->
<g id="edge2" class="edge"><title>Node2&#45;&gt;Node3</title>
<path fill="none" stroke="midnightblue" d="M427.005,-251.468C554.209,-249.303 786.625,-245.347 926.438,-242.967"/>
<polygon fill="midnightblue" stroke="midnightblue" points="926.819,-246.461 936.758,-242.791 926.699,-239.462 926.819,-246.461"/>
</g>
<!-- Node4 -->
<g id="node4" class="node"><title>Node4</title>
<g id="a_node4"><a xlink:href="a00007.html#a24e2b60937596ecd18cd17cfe7595c5d" target="_top" xlink:title="execute the derived Action in question, ">
<polygon fill="white" stroke="black" points="1185,-300 1185,-330 1364,-330 1364,-300 1185,-300"/>
<text text-anchor="start" x="1193" y="-318" font-family="Helvetica,sans-Serif" font-size="10.00">beseenium.model.action.Abstract</text>
<text text-anchor="middle" x="1274.5" y="-307" font-family="Helvetica,sans-Serif" font-size="10.00">Action.execute</text>
</a>
</g>
</g>
<!-- Node3&#45;&gt;Node4 -->
<g id="edge3" class="edge"><title>Node3&#45;&gt;Node4</title>
<path fill="none" stroke="midnightblue" d="M1070.09,-250.587C1098.28,-260.821 1144.58,-277.281 1185,-290 1192.58,-292.385 1200.56,-294.788 1208.49,-297.111"/>
<polygon fill="midnightblue" stroke="midnightblue" points="1207.54,-300.479 1218.12,-299.898 1209.48,-293.755 1207.54,-300.479"/>
</g>
<!-- Node5 -->
<g id="node5" class="node"><title>Node5</title>
<g id="a_node5"><a xlink:href="a00007.html#a1dade057d9cb3bfecefdb716aae91d33" target="_top" xlink:title="get the ActionData object stored in the derived Action ">
<polygon fill="white" stroke="black" points="1185,-251 1185,-281 1364,-281 1364,-251 1185,-251"/>
<text text-anchor="start" x="1193" y="-269" font-family="Helvetica,sans-Serif" font-size="10.00">beseenium.model.action.Abstract</text>
<text text-anchor="middle" x="1274.5" y="-258" font-family="Helvetica,sans-Serif" font-size="10.00">Action.getActionData</text>
</a>
</g>
</g>
<!-- Node3&#45;&gt;Node5 -->
<g id="edge4" class="edge"><title>Node3&#45;&gt;Node5</title>
<path fill="none" stroke="midnightblue" d="M1131.42,-250.523C1145.49,-252.055 1160.13,-253.651 1174.45,-255.21"/>
<polygon fill="midnightblue" stroke="midnightblue" points="1174.48,-258.734 1184.8,-256.338 1175.24,-251.776 1174.48,-258.734"/>
</g>
<!-- Node6 -->
<g id="node6" class="node"><title>Node6</title>
<g id="a_node6"><a xlink:href="a00011.html#a1cbbd813f07556de640f8f3b3f03587a" target="_top" xlink:title="Sets the WebDriver associated with this ActionData. ">
<polygon fill="white" stroke="black" points="1194,-202 1194,-232 1355,-232 1355,-202 1194,-202"/>
<text text-anchor="start" x="1202" y="-220" font-family="Helvetica,sans-Serif" font-size="10.00">beseenium.model.actionData.</text>
<text text-anchor="middle" x="1274.5" y="-209" font-family="Helvetica,sans-Serif" font-size="10.00">ActionData.setDriver</text>
</a>
</g>
</g>
<!-- Node3&#45;&gt;Node6 -->
<g id="edge5" class="edge"><title>Node3&#45;&gt;Node6</title>
<path fill="none" stroke="midnightblue" d="M1135.03,-231.48C1150.95,-229.816 1167.49,-228.086 1183.38,-226.424"/>
<polygon fill="midnightblue" stroke="midnightblue" points="1184.13,-229.865 1193.71,-225.344 1183.4,-222.903 1184.13,-229.865"/>
</g>
<!-- Node7 -->
<g id="node7" class="node"><title>Node7</title>
<g id="a_node7"><a xlink:href="a00011.html#a0825a9ec5bee8b6de8e7b244d991c04d" target="_top" xlink:title="this method sets the value of the input parameter. ">
<polygon fill="white" stroke="black" points="1194,-153 1194,-183 1355,-183 1355,-153 1194,-153"/>
<text text-anchor="start" x="1202" y="-171" font-family="Helvetica,sans-Serif" font-size="10.00">beseenium.model.actionData.</text>
<text text-anchor="middle" x="1274.5" y="-160" font-family="Helvetica,sans-Serif" font-size="10.00">ActionData.setInputParam</text>
</a>
</g>
</g>
<!-- Node3&#45;&gt;Node7 -->
<g id="edge6" class="edge"><title>Node3&#45;&gt;Node7</title>
<path fill="none" stroke="midnightblue" d="M1095.75,-231.494C1113.05,-227.454 1132.19,-222.021 1149,-215 1166.3,-207.773 1167.82,-200.508 1185,-193 1190.44,-190.625 1196.16,-188.412 1201.97,-186.366"/>
<polygon fill="midnightblue" stroke="midnightblue" points="1203.43,-189.57 1211.8,-183.078 1201.2,-182.931 1203.43,-189.57"/>
</g>
<!-- Node9 -->
<g id="node9" class="node"><title>Node9</title>
<g id="a_node9"><a xlink:href="a00121.html#a47938d96708f66fa5342e9377c8b5171" target="_top" xlink:title="Add an action to this test. ">
<polygon fill="white" stroke="black" points="721,-87 721,-117 883,-117 883,-87 721,-87"/>
<text text-anchor="start" x="729" y="-105" font-family="Helvetica,sans-Serif" font-size="10.00">beseenium.controller.Test.add</text>
<text text-anchor="middle" x="802" y="-94" font-family="Helvetica,sans-Serif" font-size="10.00">Action</text>
</a>
</g>
</g>
<!-- Node8&#45;&gt;Node9 -->
<g id="edge8" class="edge"><title>Node8&#45;&gt;Node9</title>
<path fill="none" stroke="midnightblue" d="M430.061,-111.593C511.753,-109.481 629.833,-106.427 710.694,-104.336"/>
<polygon fill="midnightblue" stroke="midnightblue" points="710.953,-107.83 720.859,-104.073 710.772,-100.832 710.953,-107.83"/>
</g>
<!-- Node8&#45;&gt;Node12 -->
<g id="edge11" class="edge"><title>Node8&#45;&gt;Node12</title>
<path fill="none" stroke="midnightblue" d="M427.309,-129.019C451,-132.958 476.129,-137.137 498.37,-140.836"/>
<polygon fill="midnightblue" stroke="midnightblue" points="497.931,-144.311 508.369,-142.499 499.079,-137.406 497.931,-144.311"/>
</g>
<!-- Node16 -->
<g id="node16" class="node"><title>Node16</title>
<g id="a_node16"><a xlink:href="a00123.html#afd41cb73709357094e639ea896da5c85" target="_top" xlink:title="split a string of the form &quot;V01:V02:...:V0n|V11:V12:...:V1n|Vm1:Vm2:...:Vmn&quot; into a 2d String array o...">
<polygon fill="white" stroke="black" points="479,-55 479,-85 654,-85 654,-55 479,-55"/>
<text text-anchor="start" x="487" y="-73" font-family="Helvetica,sans-Serif" font-size="10.00">beseenium.view.URLHandler.split</text>
<text text-anchor="middle" x="566.5" y="-62" font-family="Helvetica,sans-Serif" font-size="10.00">String</text>
</a>
</g>
</g>
<!-- Node8&#45;&gt;Node16 -->
<g id="edge18" class="edge"><title>Node8&#45;&gt;Node16</title>
<path fill="none" stroke="midnightblue" d="M414.998,-98.9808C435.108,-95.1084 456.89,-90.914 477.471,-86.9508"/>
<polygon fill="midnightblue" stroke="midnightblue" points="478.308,-90.354 487.466,-85.0262 476.985,-83.4803 478.308,-90.354"/>
</g>
<!-- Node10 -->
<g id="node10" class="node"><title>Node10</title>
<g id="a_node10"><a xlink:href="a00020.html#abf329444fb06b3cf9b4dc5c0a11832b2" target="_top" xlink:title="Adds an abstract action to the action queue, each action has an input parameter and an index n...">
<polygon fill="white" stroke="black" points="947.5,-60.5 947.5,-79.5 1138.5,-79.5 1138.5,-60.5 947.5,-60.5"/>
<text text-anchor="middle" x="1043" y="-67.5" font-family="Helvetica,sans-Serif" font-size="10.00">beseenium.model.ActionInvoker.add</text>
</a>
</g>
</g>
<!-- Node9&#45;&gt;Node10 -->
<g id="edge9" class="edge"><title>Node9&#45;&gt;Node10</title>
<path fill="none" stroke="midnightblue" d="M883.248,-91.2554C908.159,-87.9202 935.629,-84.2422 960.616,-80.8966"/>
<polygon fill="midnightblue" stroke="midnightblue" points="961.342,-84.3307 970.789,-79.5345 960.413,-77.3926 961.342,-84.3307"/>
</g>
<!-- Node11 -->
<g id="node11" class="node"><title>Node11</title>
<g id="a_node11"><a xlink:href="a00018.html#a8283241ec6b94055f72282f99815155d" target="_top" xlink:title="creates an Action ">
<polygon fill="white" stroke="black" points="953,-99 953,-129 1133,-129 1133,-99 953,-99"/>
<text text-anchor="start" x="961" y="-117" font-family="Helvetica,sans-Serif" font-size="10.00">beseenium.controller.Action</text>
<text text-anchor="middle" x="1043" y="-106" font-family="Helvetica,sans-Serif" font-size="10.00">Factory.ActionFactory.makeAction</text>
</a>
</g>
</g>
<!-- Node9&#45;&gt;Node11 -->
<g id="edge10" class="edge"><title>Node9&#45;&gt;Node11</title>
<path fill="none" stroke="midnightblue" d="M883.248,-106.029C902.39,-106.99 923.043,-108.027 942.92,-109.025"/>
<polygon fill="midnightblue" stroke="midnightblue" points="942.753,-112.521 952.916,-109.527 943.104,-105.53 942.753,-112.521"/>
</g>
<!-- Node13 -->
<g id="node13" class="node"><title>Node13</title>
<g id="a_node13"><a xlink:href="a00121.html#a30550c4174a00b79dcb3c09b37eb925f" target="_top" xlink:title="remove all actions from this test and close the browser instance associated with it. ">
<polygon fill="white" stroke="black" points="703,-136 703,-166 901,-166 901,-136 703,-136"/>
<text text-anchor="start" x="711" y="-154" font-family="Helvetica,sans-Serif" font-size="10.00">beseenium.controller.Test.emergency</text>
<text text-anchor="middle" x="802" y="-143" font-family="Helvetica,sans-Serif" font-size="10.00">Shutdown</text>
</a>
</g>
</g>
<!-- Node12&#45;&gt;Node13 -->
<g id="edge12" class="edge"><title>Node12&#45;&gt;Node13</title>
<path fill="none" stroke="midnightblue" d="M667.202,-151.573C675.574,-151.537 684.065,-151.501 692.499,-151.465"/>
<polygon fill="midnightblue" stroke="midnightblue" points="692.761,-154.964 702.746,-151.421 692.731,-147.964 692.761,-154.964"/>
</g>
<!-- Node13&#45;&gt;Node3 -->
<g id="edge14" class="edge"><title>Node13&#45;&gt;Node3</title>
<path fill="none" stroke="midnightblue" d="M882.484,-166.038C888.949,-168.575 895.212,-171.538 901,-175 921.526,-187.278 916.49,-202.696 937,-215 946.432,-220.659 957.045,-225.089 967.804,-228.557"/>
<polygon fill="midnightblue" stroke="midnightblue" points="967.114,-232.002 977.696,-231.478 969.097,-225.289 967.114,-232.002"/>
</g>
<!-- Node13&#45;&gt;Node10 -->
<g id="edge13" class="edge"><title>Node13&#45;&gt;Node10</title>
<path fill="none" stroke="midnightblue" d="M879.242,-135.92C886.819,-133.143 894.21,-129.866 901,-126 920.664,-114.804 917.001,-100.585 937,-90 942.253,-87.2193 947.836,-84.8214 953.583,-82.754"/>
<polygon fill="midnightblue" stroke="midnightblue" points="954.949,-85.9908 963.382,-79.5774 952.79,-79.332 954.949,-85.9908"/>
</g>
<!-- Node13&#45;&gt;Node11 -->
<g id="edge15" class="edge"><title>Node13&#45;&gt;Node11</title>
<path fill="none" stroke="midnightblue" d="M900.21,-135.951C914.25,-133.777 928.714,-131.538 942.792,-129.359"/>
<polygon fill="midnightblue" stroke="midnightblue" points="943.616,-132.773 952.963,-127.784 942.545,-125.855 943.616,-132.773"/>
</g>
<!-- Node14 -->
<g id="node14" class="node"><title>Node14</title>
<g id="a_node14"><a xlink:href="a00020.html#af7d6d40d83ef5753d06f553b0be06bc5" target="_top" xlink:title="removes the last Action and associated parameters ">
<polygon fill="white" stroke="black" points="938,-148.5 938,-167.5 1148,-167.5 1148,-148.5 938,-148.5"/>
<text text-anchor="middle" x="1043" y="-155.5" font-family="Helvetica,sans-Serif" font-size="10.00">beseenium.model.ActionInvoker.remove</text>
</a>
</g>
</g>
<!-- Node13&#45;&gt;Node14 -->
<g id="edge16" class="edge"><title>Node13&#45;&gt;Node14</title>
<path fill="none" stroke="midnightblue" d="M901.245,-153.877C910.038,-154.135 918.99,-154.397 927.902,-154.658"/>
<polygon fill="midnightblue" stroke="midnightblue" points="927.837,-158.158 937.936,-154.952 928.042,-151.161 927.837,-158.158"/>
</g>
<!-- Node15 -->
<g id="node15" class="node"><title>Node15</title>
<g id="a_node15"><a xlink:href="a00020.html#a315c13ebb167511b6895aabefe8b6c8e" target="_top" xlink:title="get the current size of the invoker ">
<polygon fill="white" stroke="black" points="947,-186.5 947,-205.5 1139,-205.5 1139,-186.5 947,-186.5"/>
<text text-anchor="middle" x="1043" y="-193.5" font-family="Helvetica,sans-Serif" font-size="10.00">beseenium.model.ActionInvoker.size</text>
</a>
</g>
</g>
<!-- Node13&#45;&gt;Node15 -->
<g id="edge17" class="edge"><title>Node13&#45;&gt;Node15</title>
<path fill="none" stroke="midnightblue" d="M879.499,-166.016C898.293,-169.657 918.366,-173.507 937,-177 950.48,-179.527 964.944,-182.182 978.696,-184.678"/>
<polygon fill="midnightblue" stroke="midnightblue" points="978.096,-188.127 988.56,-186.465 979.343,-181.239 978.096,-188.127"/>
</g>
<!-- Node17&#45;&gt;Node12 -->
<g id="edge22" class="edge"><title>Node17&#45;&gt;Node12</title>
<path fill="none" stroke="midnightblue" d="M405.558,-186.998C439.601,-179.549 480.126,-170.681 511.865,-163.736"/>
<polygon fill="midnightblue" stroke="midnightblue" points="512.821,-167.11 521.842,-161.553 511.325,-160.272 512.821,-167.11"/>
</g>
<!-- Node18 -->
<g id="node18" class="node"><title>Node18</title>
<g id="a_node18"><a xlink:href="a00121.html#af02c624fce3af866729a032349e764c9" target="_top" xlink:title="Set the browser that you want this test to run on. ">
<polygon fill="white" stroke="black" points="487,-189 487,-219 646,-219 646,-189 487,-189"/>
<text text-anchor="start" x="495" y="-207" font-family="Helvetica,sans-Serif" font-size="10.00">beseenium.controller.Test.set</text>
<text text-anchor="middle" x="566.5" y="-196" font-family="Helvetica,sans-Serif" font-size="10.00">Browser</text>
</a>
</g>
</g>
<!-- Node17&#45;&gt;Node18 -->
<g id="edge20" class="edge"><title>Node17&#45;&gt;Node18</title>
<path fill="none" stroke="midnightblue" d="M430.269,-202.816C445.51,-202.95 461.266,-203.088 476.402,-203.22"/>
<polygon fill="midnightblue" stroke="midnightblue" points="476.738,-206.723 486.768,-203.311 476.799,-199.723 476.738,-206.723"/>
</g>
<!-- Node19 -->
<g id="node19" class="node"><title>Node19</title>
<g id="a_node19"><a xlink:href="a00014.html#a145de3f5a1b2e2edec2927337796403f" target="_top" xlink:title="provides an ActionData devoid of any pre initialised data, i.e. ">
<polygon fill="white" stroke="black" points="703.5,-184.5 703.5,-225.5 900.5,-225.5 900.5,-184.5 703.5,-184.5"/>
<text text-anchor="start" x="711.5" y="-213.5" font-family="Helvetica,sans-Serif" font-size="10.00">beseenium.controller.Action</text>
<text text-anchor="start" x="711.5" y="-202.5" font-family="Helvetica,sans-Serif" font-size="10.00">DataFactory.ActionDataFactory.make</text>
<text text-anchor="middle" x="802" y="-191.5" font-family="Helvetica,sans-Serif" font-size="10.00">ActionData</text>
</a>
</g>
</g>
<!-- Node18&#45;&gt;Node19 -->
<g id="edge21" class="edge"><title>Node18&#45;&gt;Node19</title>
<path fill="none" stroke="midnightblue" d="M646.227,-204.337C661.215,-204.401 677.141,-204.47 692.858,-204.537"/>
<polygon fill="midnightblue" stroke="midnightblue" points="693.129,-208.038 703.144,-204.581 693.16,-201.038 693.129,-208.038"/>
</g>
<!-- Node20&#45;&gt;Node12 -->
<g id="edge26" class="edge"><title>Node20&#45;&gt;Node12</title>
<path fill="none" stroke="midnightblue" d="M398.979,-80.1143C409.426,-83.1018 420.091,-86.4292 430,-90 468.367,-103.825 510.862,-124.134 537.854,-137.698"/>
<polygon fill="midnightblue" stroke="midnightblue" points="536.558,-140.966 547.06,-142.366 539.724,-134.722 536.558,-140.966"/>
</g>
<!-- Node20&#45;&gt;Node16 -->
<g id="edge27" class="edge"><title>Node20&#45;&gt;Node16</title>
<path fill="none" stroke="midnightblue" d="M430.269,-67.0409C442.928,-67.3179 455.942,-67.6027 468.662,-67.881"/>
<polygon fill="midnightblue" stroke="midnightblue" points="468.713,-71.3829 478.787,-68.1026 468.866,-64.3845 468.713,-71.3829"/>
</g>
<!-- Node21 -->
<g id="node21" class="node"><title>Node21</title>
<g id="a_node21"><a xlink:href="a00121.html#a89397b4d1c9e1e78d0333e2ccd388e28" target="_top" xlink:title="When using a &#39;remote&#39; Driver set a capability of the driver i.e. ">
<polygon fill="white" stroke="black" points="472.5,-6 472.5,-36 660.5,-36 660.5,-6 472.5,-6"/>
<text text-anchor="start" x="480.5" y="-24" font-family="Helvetica,sans-Serif" font-size="10.00">beseenium.controller.Test.configure</text>
<text text-anchor="middle" x="566.5" y="-13" font-family="Helvetica,sans-Serif" font-size="10.00">RemoteDriver</text>
</a>
</g>
</g>
<!-- Node20&#45;&gt;Node21 -->
<g id="edge24" class="edge"><title>Node20&#45;&gt;Node21</title>
<path fill="none" stroke="midnightblue" d="M414.998,-49.9808C435.108,-46.1084 456.89,-41.914 477.471,-37.9508"/>
<polygon fill="midnightblue" stroke="midnightblue" points="478.308,-41.354 487.466,-36.0262 476.985,-34.4803 478.308,-41.354"/>
</g>
<!-- Node22 -->
<g id="node22" class="node"><title>Node22</title>
<g id="a_node22"><a xlink:href="a00014.html#a181bfdb7abd9310572342b808ce1d705" target="_top" xlink:title="when you wish to use the remote webdriver, then the capabilities must be set first, this method provides a convenient way to set them. ">
<polygon fill="white" stroke="black" points="709.5,-0.5 709.5,-41.5 894.5,-41.5 894.5,-0.5 709.5,-0.5"/>
<text text-anchor="start" x="717.5" y="-29.5" font-family="Helvetica,sans-Serif" font-size="10.00">beseenium.controller.Action</text>
<text text-anchor="start" x="717.5" y="-18.5" font-family="Helvetica,sans-Serif" font-size="10.00">DataFactory.ActionDataFactory.set</text>
<text text-anchor="middle" x="802" y="-7.5" font-family="Helvetica,sans-Serif" font-size="10.00">Capabilities</text>
</a>
</g>
</g>
<!-- Node21&#45;&gt;Node22 -->
<g id="edge25" class="edge"><title>Node21&#45;&gt;Node22</title>
<path fill="none" stroke="midnightblue" d="M660.792,-21C673.422,-21 686.433,-21 699.202,-21"/>
<polygon fill="midnightblue" stroke="midnightblue" points="699.378,-24.5001 709.378,-21 699.378,-17.5001 699.378,-24.5001"/>
</g>
</g>
</svg>
