<?xml version="1.0" encoding="UTF-8" standalone="no"?>
<!DOCTYPE svg PUBLIC "-//W3C//DTD SVG 1.1//EN"
 "http://www.w3.org/Graphics/SVG/1.1/DTD/svg11.dtd">
<!-- Generated by graphviz version 2.38.0 (20140413.2041)
 -->
<!-- Title: beseenium.view.outputHandlers.requestHandlers.browserHandlers.NoBrowserParamHandler.handleRequest Pages: 1 -->
<svg width="551pt" height="50pt"
 viewBox="0.00 0.00 551.00 50.00" xmlns="http://www.w3.org/2000/svg" xmlns:xlink="http://www.w3.org/1999/xlink">
<g id="graph0" class="graph" transform="scale(1 1) rotate(0) translate(4 46)">
<title>beseenium.view.outputHandlers.requestHandlers.browserHandlers.NoBrowserParamHandler.handleRequest</title>
<polygon fill="white" stroke="none" points="-4,4 -4,-46 547,-46 547,4 -4,4"/>
<!-- Node1 -->
<g id="node1" class="node"><title>Node1</title>
<polygon fill="#bfbfbf" stroke="black" points="0,-0.5 0,-41.5 229,-41.5 229,-0.5 0,-0.5"/>
<text text-anchor="start" x="8" y="-29.5" font-family="Helvetica,sans-Serif" font-size="10.00">beseenium.view.outputHandlers.request</text>
<text text-anchor="start" x="8" y="-18.5" font-family="Helvetica,sans-Serif" font-size="10.00">Handlers.browserHandlers.NoBrowserParam</text>
<text text-anchor="middle" x="114.5" y="-7.5" font-family="Helvetica,sans-Serif" font-size="10.00">Handler.handleRequest</text>
</g>
<!-- Node2 -->
<g id="node2" class="node"><title>Node2</title>
<g id="a_node2"><a xlink:href="a00111.html#a537d1204c72fa2f5ebe87df895710427" target="_top" xlink:title="beseenium.view.outputHandlers.request\lHandlers.browserHandlers.RootBrowserHandler.handle\lRequest">
<polygon fill="white" stroke="black" points="265,-0.5 265,-41.5 543,-41.5 543,-0.5 265,-0.5"/>
<text text-anchor="start" x="273" y="-29.5" font-family="Helvetica,sans-Serif" font-size="10.00">beseenium.view.outputHandlers.request</text>
<text text-anchor="start" x="273" y="-18.5" font-family="Helvetica,sans-Serif" font-size="10.00">Handlers.browserHandlers.RootBrowserHandler.handle</text>
<text text-anchor="middle" x="404" y="-7.5" font-family="Helvetica,sans-Serif" font-size="10.00">Request</text>
</a>
</g>
</g>
<!-- Node1&#45;&gt;Node2 -->
<g id="edge1" class="edge"><title>Node1&#45;&gt;Node2</title>
<path fill="none" stroke="midnightblue" d="M239.398,-21C247.863,-21 256.422,-21 264.954,-21"/>
<polygon fill="midnightblue" stroke="midnightblue" points="239.128,-17.5001 229.128,-21 239.128,-24.5001 239.128,-17.5001"/>
</g>
</g>
</svg>
