<?xml version="1.0" encoding="UTF-8" standalone="no"?>
<!DOCTYPE svg PUBLIC "-//W3C//DTD SVG 1.1//EN"
 "http://www.w3.org/Graphics/SVG/1.1/DTD/svg11.dtd">
<!-- Generated by graphviz version 2.38.0 (20140413.2041)
 -->
<!-- Title: beseenium.view.helpers.StringSplit.generic2d Pages: 1 -->
<svg width="443pt" height="88pt"
 viewBox="0.00 0.00 443.00 88.00" xmlns="http://www.w3.org/2000/svg" xmlns:xlink="http://www.w3.org/1999/xlink">
<g id="graph0" class="graph" transform="scale(1 1) rotate(0) translate(4 84)">
<title>beseenium.view.helpers.StringSplit.generic2d</title>
<polygon fill="white" stroke="none" points="-4,4 -4,-84 439,-84 439,4 -4,4"/>
<!-- Node1 -->
<g id="node1" class="node"><title>Node1</title>
<polygon fill="#bfbfbf" stroke="black" points="0,-24.5 0,-54.5 163,-54.5 163,-24.5 0,-24.5"/>
<text text-anchor="start" x="8" y="-42.5" font-family="Helvetica,sans-Serif" font-size="10.00">beseenium.view.helpers.String</text>
<text text-anchor="middle" x="81.5" y="-31.5" font-family="Helvetica,sans-Serif" font-size="10.00">Split.generic2d</text>
</g>
<!-- Node2 -->
<g id="node2" class="node"><title>Node2</title>
<g id="a_node2"><a xlink:href="a00025.html#aacce95873e64fe9ef6890dec6b915cc3" target="_top" xlink:title="This method provides functionality to composite the string into the format specified by the user on c...">
<polygon fill="white" stroke="black" points="199,-49.5 199,-79.5 435,-79.5 435,-49.5 199,-49.5"/>
<text text-anchor="start" x="207" y="-67.5" font-family="Helvetica,sans-Serif" font-size="10.00">beseenium.view.outputHandlers.compositors.</text>
<text text-anchor="middle" x="317" y="-56.5" font-family="Helvetica,sans-Serif" font-size="10.00">AddActionCompositor.composite</text>
</a>
</g>
</g>
<!-- Node1&#45;&gt;Node2 -->
<g id="edge1" class="edge"><title>Node1&#45;&gt;Node2</title>
<path fill="none" stroke="midnightblue" d="M173.246,-49.2159C181.581,-50.1083 190.102,-51.0206 198.628,-51.9334"/>
<polygon fill="midnightblue" stroke="midnightblue" points="173.5,-45.7231 163.184,-48.1386 172.755,-52.6834 173.5,-45.7231"/>
</g>
<!-- Node3 -->
<g id="node3" class="node"><title>Node3</title>
<g id="a_node3"><a xlink:href="a00037.html#a5f744be16476a921041fe1f611ac62d4" target="_top" xlink:title="This method provides functionality to composite the string into the format specified by the user on c...">
<polygon fill="white" stroke="black" points="199,-0.5 199,-30.5 435,-30.5 435,-0.5 199,-0.5"/>
<text text-anchor="start" x="207" y="-18.5" font-family="Helvetica,sans-Serif" font-size="10.00">beseenium.view.outputHandlers.compositors.</text>
<text text-anchor="middle" x="317" y="-7.5" font-family="Helvetica,sans-Serif" font-size="10.00">CapabilitiesCompositor.composite</text>
</a>
</g>
</g>
<!-- Node1&#45;&gt;Node3 -->
<g id="edge2" class="edge"><title>Node1&#45;&gt;Node3</title>
<path fill="none" stroke="midnightblue" d="M173.246,-30.1727C181.581,-29.316 190.102,-28.4402 198.628,-27.5639"/>
<polygon fill="midnightblue" stroke="midnightblue" points="172.774,-26.7028 163.184,-31.207 173.49,-33.6661 172.774,-26.7028"/>
</g>
</g>
</svg>
