<?xml version="1.0" encoding="UTF-8" standalone="no"?>
<!DOCTYPE svg PUBLIC "-//W3C//DTD SVG 1.1//EN"
 "http://www.w3.org/Graphics/SVG/1.1/DTD/svg11.dtd">
<!-- Generated by graphviz version 2.38.0 (20140413.2041)
 -->
<!-- Title: beseenium.view.URLHandler.handleCapabilities Pages: 1 -->
<!--zoomable 232 -->
<svg id="main" version="1.1" xmlns="http://www.w3.org/2000/svg" xmlns:xlink="http://www.w3.org/1999/xlink" xml:space="preserve" onload="init(evt)">
<style type="text/css"><![CDATA[
.edge:hover path { stroke: red; }
.edge:hover polygon { stroke: red; fill: red; }
]]></style>
<script type="text/javascript"><![CDATA[
var edges = document.getElementsByTagName('g');
if (edges && edges.length) {
  for (var i=0;i<edges.length;i++) {
    if (edges[i].id.substr(0,4)=='edge') {
      edges[i].setAttribute('class','edge');
    }
  }
}
]]></script>
        <defs>
                <circle id="rim" cx="0" cy="0" r="7"/>
                <circle id="rim2" cx="0" cy="0" r="3.5"/>
                <g id="zoomPlus">
                        <use xlink:href="#rim" fill="#404040">
                                <set attributeName="fill" to="#808080" begin="zoomplus.mouseover" end="zoomplus.mouseout"/>
                        </use>
                        <path d="M-4,0h8M0,-4v8" fill="none" stroke="white" stroke-width="1.5" pointer-events="none"/>
                </g>
                <g id="zoomMin">
                        <use xlink:href="#rim" fill="#404040">
                                <set attributeName="fill" to="#808080" begin="zoomminus.mouseover" end="zoomminus.mouseout"/>
                        </use>
                        <path d="M-4,0h8" fill="none" stroke="white" stroke-width="1.5" pointer-events="none"/>
                </g>
                <g id="dirArrow">
                        <path fill="none" stroke="white" stroke-width="1.5" d="M0,-3.0v7 M-2.5,-0.5L0,-3.0L2.5,-0.5"/>
                </g>
               <g id="resetDef">
                       <use xlink:href="#rim2" fill="#404040">
                               <set attributeName="fill" to="#808080" begin="reset.mouseover" end="reset.mouseout"/>
                       </use>
               </g>
        </defs>

<script type="text/javascript">
var viewWidth = 1130;
var viewHeight = 232;
var sectionId = 'dynsection-5';
</script>
<script xlink:href="svgpan.js"/>
<svg id="graph" class="graph">
<g id="viewport">
<title>beseenium.view.URLHandler.handleCapabilities</title>
<polygon fill="white" stroke="none" points="-4,4 -4,-228.5 1126,-228.5 1126,4 -4,4"/>
<!-- Node1 -->
<g id="node1" class="node"><title>Node1</title>
<polygon fill="#bfbfbf" stroke="black" points="0,-82 0,-112 188,-112 188,-82 0,-82"/>
<text text-anchor="start" x="8" y="-100" font-family="Helvetica,sans-Serif" font-size="10.00">beseenium.view.URLHandler.handle</text>
<text text-anchor="middle" x="94" y="-89" font-family="Helvetica,sans-Serif" font-size="10.00">Capabilities</text>
</g>
<!-- Node2 -->
<g id="node2" class="node"><title>Node2</title>
<g id="a_node2"><a xlink:href="a00123.html#a89397b4d1c9e1e78d0333e2ccd388e28" target="_top" xlink:title="When using a &#39;remote&#39; Driver set a capability of the driver i.e. ">
<polygon fill="white" stroke="black" points="230.5,-128 230.5,-158 418.5,-158 418.5,-128 230.5,-128"/>
<text text-anchor="start" x="238.5" y="-146" font-family="Helvetica,sans-Serif" font-size="10.00">beseenium.controller.Test.configure</text>
<text text-anchor="middle" x="324.5" y="-135" font-family="Helvetica,sans-Serif" font-size="10.00">RemoteDriver</text>
</a>
</g>
</g>
<!-- Node1&#45;&gt;Node2 -->
<g id="edge1" class="edge"><title>Node1&#45;&gt;Node2</title>
<path fill="none" stroke="midnightblue" d="M169.819,-112.062C191.928,-116.513 216.283,-121.416 238.959,-125.981"/>
<polygon fill="midnightblue" stroke="midnightblue" points="238.409,-129.44 248.903,-127.983 239.79,-122.578 238.409,-129.44"/>
</g>
<!-- Node4 -->
<g id="node4" class="node"><title>Node4</title>
<g id="a_node4"><a xlink:href="a00125.html#ab3a029a7ca30c5f8a0344c4634b9daf0" target="_top" xlink:title="in case something goes wrong the test should be able to shut down the current browser instance...">
<polygon fill="white" stroke="black" points="224,-87.5 224,-106.5 425,-106.5 425,-87.5 224,-87.5"/>
<text text-anchor="middle" x="324.5" y="-94.5" font-family="Helvetica,sans-Serif" font-size="10.00">beseenium.view.URLHandler.shutdown</text>
</a>
</g>
</g>
<!-- Node1&#45;&gt;Node4 -->
<g id="edge3" class="edge"><title>Node1&#45;&gt;Node4</title>
<path fill="none" stroke="midnightblue" d="M188.269,-97C196.695,-97 205.279,-97 213.829,-97"/>
<polygon fill="midnightblue" stroke="midnightblue" points="213.838,-100.5 223.838,-97 213.838,-93.5001 213.838,-100.5"/>
</g>
<!-- Node15 -->
<g id="node15" class="node"><title>Node15</title>
<g id="a_node15"><a xlink:href="a00125.html#afd41cb73709357094e639ea896da5c85" target="_top" xlink:title="split a string of the form &quot;V01:V02:...:V0n|V11:V12:...:V1n|Vm1:Vm2:...:Vmn&quot; into a 2d String array o...">
<polygon fill="white" stroke="black" points="237,-38 237,-68 412,-68 412,-38 237,-38"/>
<text text-anchor="start" x="245" y="-56" font-family="Helvetica,sans-Serif" font-size="10.00">beseenium.view.URLHandler.split</text>
<text text-anchor="middle" x="324.5" y="-45" font-family="Helvetica,sans-Serif" font-size="10.00">String</text>
</a>
</g>
</g>
<!-- Node1&#45;&gt;Node15 -->
<g id="edge14" class="edge"><title>Node1&#45;&gt;Node15</title>
<path fill="none" stroke="midnightblue" d="M172.998,-81.9808C193.108,-78.1084 214.89,-73.914 235.471,-69.9508"/>
<polygon fill="midnightblue" stroke="midnightblue" points="236.308,-73.354 245.466,-68.0262 234.985,-66.4803 236.308,-73.354"/>
</g>
<!-- Node3 -->
<g id="node3" class="node"><title>Node3</title>
<g id="a_node3"><a xlink:href="a00016.html#a181bfdb7abd9310572342b808ce1d705" target="_top" xlink:title="when you wish to use the remote webdriver, then the capabilities must be set first, this method provides a convenient way to set them. ">
<polygon fill="white" stroke="black" points="467.5,-125.5 467.5,-166.5 652.5,-166.5 652.5,-125.5 467.5,-125.5"/>
<text text-anchor="start" x="475.5" y="-154.5" font-family="Helvetica,sans-Serif" font-size="10.00">beseenium.controller.Action</text>
<text text-anchor="start" x="475.5" y="-143.5" font-family="Helvetica,sans-Serif" font-size="10.00">DataFactory.ActionDataFactory.set</text>
<text text-anchor="middle" x="560" y="-132.5" font-family="Helvetica,sans-Serif" font-size="10.00">Capabilities</text>
</a>
</g>
</g>
<!-- Node2&#45;&gt;Node3 -->
<g id="edge2" class="edge"><title>Node2&#45;&gt;Node3</title>
<path fill="none" stroke="midnightblue" d="M418.792,-144.199C431.422,-144.361 444.433,-144.528 457.202,-144.692"/>
<polygon fill="midnightblue" stroke="midnightblue" points="457.334,-148.194 467.378,-144.823 457.424,-141.195 457.334,-148.194"/>
</g>
<!-- Node5 -->
<g id="node5" class="node"><title>Node5</title>
<g id="a_node5"><a xlink:href="a00123.html#a30550c4174a00b79dcb3c09b37eb925f" target="_top" xlink:title="remove all actions from this test and close the browser instance associated with it. ">
<polygon fill="white" stroke="black" points="461,-77 461,-107 659,-107 659,-77 461,-77"/>
<text text-anchor="start" x="469" y="-95" font-family="Helvetica,sans-Serif" font-size="10.00">beseenium.controller.Test.emergency</text>
<text text-anchor="middle" x="560" y="-84" font-family="Helvetica,sans-Serif" font-size="10.00">Shutdown</text>
</a>
</g>
</g>
<!-- Node4&#45;&gt;Node5 -->
<g id="edge4" class="edge"><title>Node4&#45;&gt;Node5</title>
<path fill="none" stroke="midnightblue" d="M425.202,-94.865C433.574,-94.6858 442.065,-94.504 450.499,-94.3234"/>
<polygon fill="midnightblue" stroke="midnightblue" points="450.823,-97.8173 460.746,-94.104 450.673,-90.8189 450.823,-97.8173"/>
</g>
<!-- Node6 -->
<g id="node6" class="node"><title>Node6</title>
<g id="a_node6"><a xlink:href="a00022.html#abf329444fb06b3cf9b4dc5c0a11832b2" target="_top" xlink:title="Adds an abstract action to the action queue, each action has an input parameter and an index n...">
<polygon fill="white" stroke="black" points="705.5,-164.5 705.5,-183.5 896.5,-183.5 896.5,-164.5 705.5,-164.5"/>
<text text-anchor="middle" x="801" y="-171.5" font-family="Helvetica,sans-Serif" font-size="10.00">beseenium.model.ActionInvoker.add</text>
</a>
</g>
</g>
<!-- Node5&#45;&gt;Node6 -->
<g id="edge5" class="edge"><title>Node5&#45;&gt;Node6</title>
<path fill="none" stroke="midnightblue" d="M640.185,-107.019C646.749,-109.56 653.115,-112.53 659,-116 679.32,-127.981 674.324,-143.645 695,-155 699.194,-157.303 703.61,-159.335 708.162,-161.127"/>
<polygon fill="midnightblue" stroke="midnightblue" points="707.071,-164.453 717.666,-164.477 709.398,-157.851 707.071,-164.453"/>
</g>
<!-- Node7 -->
<g id="node7" class="node"><title>Node7</title>
<g id="a_node7"><a xlink:href="a00022.html#abd8f9cf7dc1cf8d14b0334d7b0fe633f" target="_top" xlink:title="iterates through the commands stored in the list and executes ">
<polygon fill="white" stroke="black" points="695,-126.5 695,-145.5 907,-145.5 907,-126.5 695,-126.5"/>
<text text-anchor="middle" x="801" y="-133.5" font-family="Helvetica,sans-Serif" font-size="10.00">beseenium.model.ActionInvoker.execute</text>
</a>
</g>
</g>
<!-- Node5&#45;&gt;Node7 -->
<g id="edge6" class="edge"><title>Node5&#45;&gt;Node7</title>
<path fill="none" stroke="midnightblue" d="M642.582,-107.019C673.912,-112.787 709.121,-119.269 738.284,-124.638"/>
<polygon fill="midnightblue" stroke="midnightblue" points="737.862,-128.119 748.33,-126.488 739.129,-121.235 737.862,-128.119"/>
</g>
<!-- Node12 -->
<g id="node12" class="node"><title>Node12</title>
<g id="a_node12"><a xlink:href="a00020.html#a8283241ec6b94055f72282f99815155d" target="_top" xlink:title="creates an Action ">
<polygon fill="white" stroke="black" points="711,-77 711,-107 891,-107 891,-77 711,-77"/>
<text text-anchor="start" x="719" y="-95" font-family="Helvetica,sans-Serif" font-size="10.00">beseenium.controller.Action</text>
<text text-anchor="middle" x="801" y="-84" font-family="Helvetica,sans-Serif" font-size="10.00">Factory.ActionFactory.makeAction</text>
</a>
</g>
</g>
<!-- Node5&#45;&gt;Node12 -->
<g id="edge11" class="edge"><title>Node5&#45;&gt;Node12</title>
<path fill="none" stroke="midnightblue" d="M659.245,-92C672.89,-92 686.918,-92 700.584,-92"/>
<polygon fill="midnightblue" stroke="midnightblue" points="700.953,-95.5001 710.953,-92 700.953,-88.5001 700.953,-95.5001"/>
</g>
<!-- Node13 -->
<g id="node13" class="node"><title>Node13</title>
<g id="a_node13"><a xlink:href="a00022.html#af7d6d40d83ef5753d06f553b0be06bc5" target="_top" xlink:title="removes the last Action and associated parameters ">
<polygon fill="white" stroke="black" points="696,-38.5 696,-57.5 906,-57.5 906,-38.5 696,-38.5"/>
<text text-anchor="middle" x="801" y="-45.5" font-family="Helvetica,sans-Serif" font-size="10.00">beseenium.model.ActionInvoker.remove</text>
</a>
</g>
</g>
<!-- Node5&#45;&gt;Node13 -->
<g id="edge12" class="edge"><title>Node5&#45;&gt;Node13</title>
<path fill="none" stroke="midnightblue" d="M642.582,-76.9808C673.912,-71.2129 709.121,-64.7309 738.284,-59.362"/>
<polygon fill="midnightblue" stroke="midnightblue" points="739.129,-62.7652 748.33,-57.5124 737.862,-55.8809 739.129,-62.7652"/>
</g>
<!-- Node14 -->
<g id="node14" class="node"><title>Node14</title>
<g id="a_node14"><a xlink:href="a00022.html#a315c13ebb167511b6895aabefe8b6c8e" target="_top" xlink:title="get the current size of the invoker ">
<polygon fill="white" stroke="black" points="705,-0.5 705,-19.5 897,-19.5 897,-0.5 705,-0.5"/>
<text text-anchor="middle" x="801" y="-7.5" font-family="Helvetica,sans-Serif" font-size="10.00">beseenium.model.ActionInvoker.size</text>
</a>
</g>
</g>
<!-- Node5&#45;&gt;Node14 -->
<g id="edge13" class="edge"><title>Node5&#45;&gt;Node14</title>
<path fill="none" stroke="midnightblue" d="M587.616,-76.9419C614.069,-62.5958 656.188,-41.4005 695,-29 703.747,-26.2052 713.044,-23.7804 722.349,-21.687"/>
<polygon fill="midnightblue" stroke="midnightblue" points="723.372,-25.0479 732.424,-19.5437 721.915,-18.2012 723.372,-25.0479"/>
</g>
<!-- Node8 -->
<g id="node8" class="node"><title>Node8</title>
<g id="a_node8"><a xlink:href="a00009.html#a24e2b60937596ecd18cd17cfe7595c5d" target="_top" xlink:title="execute the derived Action in question, ">
<polygon fill="white" stroke="black" points="943,-194 943,-224 1122,-224 1122,-194 943,-194"/>
<text text-anchor="start" x="951" y="-212" font-family="Helvetica,sans-Serif" font-size="10.00">beseenium.model.action.Abstract</text>
<text text-anchor="middle" x="1032.5" y="-201" font-family="Helvetica,sans-Serif" font-size="10.00">Action.execute</text>
</a>
</g>
</g>
<!-- Node7&#45;&gt;Node8 -->
<g id="edge7" class="edge"><title>Node7&#45;&gt;Node8</title>
<path fill="none" stroke="midnightblue" d="M879.905,-145.558C889.253,-148.019 898.491,-151.112 907,-155 925.688,-163.538 924.745,-174.572 943,-184 947.495,-186.321 952.233,-188.451 957.086,-190.401"/>
<polygon fill="midnightblue" stroke="midnightblue" points="955.931,-193.706 966.524,-193.933 958.384,-187.15 955.931,-193.706"/>
</g>
<!-- Node9 -->
<g id="node9" class="node"><title>Node9</title>
<g id="a_node9"><a xlink:href="a00009.html#a1dade057d9cb3bfecefdb716aae91d33" target="_top" xlink:title="get the ActionData object stored in the derived Action ">
<polygon fill="white" stroke="black" points="943,-145 943,-175 1122,-175 1122,-145 943,-145"/>
<text text-anchor="start" x="951" y="-163" font-family="Helvetica,sans-Serif" font-size="10.00">beseenium.model.action.Abstract</text>
<text text-anchor="middle" x="1032.5" y="-152" font-family="Helvetica,sans-Serif" font-size="10.00">Action.getActionData</text>
</a>
</g>
</g>
<!-- Node7&#45;&gt;Node9 -->
<g id="edge8" class="edge"><title>Node7&#45;&gt;Node9</title>
<path fill="none" stroke="midnightblue" d="M893.034,-145.52C906.098,-146.886 919.591,-148.297 932.795,-149.678"/>
<polygon fill="midnightblue" stroke="midnightblue" points="932.514,-153.168 942.824,-150.727 933.242,-146.205 932.514,-153.168"/>
</g>
<!-- Node10 -->
<g id="node10" class="node"><title>Node10</title>
<g id="a_node10"><a xlink:href="a00013.html#a1cbbd813f07556de640f8f3b3f03587a" target="_top" xlink:title="Sets the WebDriver associated with this ActionData. ">
<polygon fill="white" stroke="black" points="952,-96 952,-126 1113,-126 1113,-96 952,-96"/>
<text text-anchor="start" x="960" y="-114" font-family="Helvetica,sans-Serif" font-size="10.00">beseenium.model.actionData.</text>
<text text-anchor="middle" x="1032.5" y="-103" font-family="Helvetica,sans-Serif" font-size="10.00">ActionData.setDriver</text>
</a>
</g>
</g>
<!-- Node7&#45;&gt;Node10 -->
<g id="edge9" class="edge"><title>Node7&#45;&gt;Node10</title>
<path fill="none" stroke="midnightblue" d="M889.419,-126.477C906.573,-124.609 924.593,-122.646 941.82,-120.769"/>
<polygon fill="midnightblue" stroke="midnightblue" points="942.296,-124.238 951.859,-119.676 941.538,-117.279 942.296,-124.238"/>
</g>
<!-- Node11 -->
<g id="node11" class="node"><title>Node11</title>
<g id="a_node11"><a xlink:href="a00013.html#a0825a9ec5bee8b6de8e7b244d991c04d" target="_top" xlink:title="this method sets the value of the input parameter. ">
<polygon fill="white" stroke="black" points="952,-47 952,-77 1113,-77 1113,-47 952,-47"/>
<text text-anchor="start" x="960" y="-65" font-family="Helvetica,sans-Serif" font-size="10.00">beseenium.model.actionData.</text>
<text text-anchor="middle" x="1032.5" y="-54" font-family="Helvetica,sans-Serif" font-size="10.00">ActionData.setInputParam</text>
</a>
</g>
</g>
<!-- Node7&#45;&gt;Node11 -->
<g id="edge10" class="edge"><title>Node7&#45;&gt;Node11</title>
<path fill="none" stroke="midnightblue" d="M876.854,-126.439C887.238,-123.773 897.568,-120.362 907,-116 925.648,-107.376 924.745,-96.4276 943,-87 947.495,-84.6785 952.233,-82.5487 957.086,-80.5987"/>
<polygon fill="midnightblue" stroke="midnightblue" points="958.384,-83.8498 966.524,-77.0672 955.931,-77.2937 958.384,-83.8498"/>
</g>
</g>
</svg>
        <g id="navigator" transform="translate(0 0)" fill="#404254">
                <rect fill="#f2f5e9" fill-opacity="0.5" stroke="#606060" stroke-width=".5" x="0" y="0" width="60" height="60"/>
                <use id="zoomplus" xlink:href="#zoomPlus" x="17" y="9" onmousedown="handleZoom(evt,'in')"/>
                <use id="zoomminus" xlink:href="#zoomMin" x="42" y="9" onmousedown="handleZoom(evt,'out')"/>
                <use id="reset" xlink:href="#resetDef" x="30" y="36" onmousedown="handleReset()"/>
                <g id="arrowUp" xlink:href="#dirArrow" transform="translate(30 24)" onmousedown="handlePan(0,-1)">
                  <use xlink:href="#rim" fill="#404040">
                        <set attributeName="fill" to="#808080" begin="arrowUp.mouseover" end="arrowUp.mouseout"/>
                  </use>
                  <path fill="none" stroke="white" stroke-width="1.5" d="M0,-3.0v7 M-2.5,-0.5L0,-3.0L2.5,-0.5"/>
                </g>
                <g id="arrowRight" xlink:href="#dirArrow" transform="rotate(90) translate(36 -43)" onmousedown="handlePan(1,0)">
                  <use xlink:href="#rim" fill="#404040">
                        <set attributeName="fill" to="#808080" begin="arrowRight.mouseover" end="arrowRight.mouseout"/>
                  </use>
                  <path fill="none" stroke="white" stroke-width="1.5" d="M0,-3.0v7 M-2.5,-0.5L0,-3.0L2.5,-0.5"/>
                </g>
                <g id="arrowDown" xlink:href="#dirArrow" transform="rotate(180) translate(-30 -48)" onmousedown="handlePan(0,1)">
                  <use xlink:href="#rim" fill="#404040">
                        <set attributeName="fill" to="#808080" begin="arrowDown.mouseover" end="arrowDown.mouseout"/>
                  </use>
                  <path fill="none" stroke="white" stroke-width="1.5" d="M0,-3.0v7 M-2.5,-0.5L0,-3.0L2.5,-0.5"/>
                </g>
                <g id="arrowLeft" xlink:href="#dirArrow" transform="rotate(270) translate(-36 17)" onmousedown="handlePan(-1,0)">
                  <use xlink:href="#rim" fill="#404040">
                        <set attributeName="fill" to="#808080" begin="arrowLeft.mouseover" end="arrowLeft.mouseout"/>
                  </use>
                  <path fill="none" stroke="white" stroke-width="1.5" d="M0,-3.0v7 M-2.5,-0.5L0,-3.0L2.5,-0.5"/>
                </g>
        </g>
        <svg viewBox="0 0 15 15" width="100%" height="30px" preserveAspectRatio="xMaxYMin meet">
         <g id="arrow_out" transform="scale(0.3 0.3)">
          <a xlink:href="a00125_ae0ec35bbb8622775c22687d68a8a830d_cgraph_org.svg" target="_base">
           <rect id="button" ry="5" rx="5" y="6" x="6" height="38" width="38"
                fill="#f2f5e9" fill-opacity="0.5" stroke="#606060" stroke-width="1.0"/>
           <path id="arrow"
             d="M 11.500037,31.436501 C 11.940474,20.09759 22.043105,11.32322 32.158766,21.979434 L 37.068811,17.246167 C 37.068811,17.246167 37.088388,32 37.088388,32 L 22.160133,31.978069 C 22.160133,31.978069 26.997745,27.140456 26.997745,27.140456 C 18.528582,18.264221 13.291696,25.230495 11.500037,31.436501 z"
             style="fill:#404040;"/>
          </a>
         </g>
        </svg>
</svg>
