<?xml version="1.0" encoding="UTF-8" standalone="no"?>
<!DOCTYPE svg PUBLIC "-//W3C//DTD SVG 1.1//EN"
 "http://www.w3.org/Graphics/SVG/1.1/DTD/svg11.dtd">
<!-- Generated by graphviz version 2.38.0 (20140413.2041)
 -->
<!-- Title: beseenium.view.URLHandler.handleAddActions Pages: 1 -->
<!--zoomable 194 -->
<svg id="main" version="1.1" xmlns="http://www.w3.org/2000/svg" xmlns:xlink="http://www.w3.org/1999/xlink" xml:space="preserve" onload="init(evt)">
<style type="text/css"><![CDATA[
.edge:hover path { stroke: red; }
.edge:hover polygon { stroke: red; fill: red; }
]]></style>
<script type="text/javascript"><![CDATA[
var edges = document.getElementsByTagName('g');
if (edges && edges.length) {
  for (var i=0;i<edges.length;i++) {
    if (edges[i].id.substr(0,4)=='edge') {
      edges[i].setAttribute('class','edge');
    }
  }
}
]]></script>
        <defs>
                <circle id="rim" cx="0" cy="0" r="7"/>
                <circle id="rim2" cx="0" cy="0" r="3.5"/>
                <g id="zoomPlus">
                        <use xlink:href="#rim" fill="#404040">
                                <set attributeName="fill" to="#808080" begin="zoomplus.mouseover" end="zoomplus.mouseout"/>
                        </use>
                        <path d="M-4,0h8M0,-4v8" fill="none" stroke="white" stroke-width="1.5" pointer-events="none"/>
                </g>
                <g id="zoomMin">
                        <use xlink:href="#rim" fill="#404040">
                                <set attributeName="fill" to="#808080" begin="zoomminus.mouseover" end="zoomminus.mouseout"/>
                        </use>
                        <path d="M-4,0h8" fill="none" stroke="white" stroke-width="1.5" pointer-events="none"/>
                </g>
                <g id="dirArrow">
                        <path fill="none" stroke="white" stroke-width="1.5" d="M0,-3.0v7 M-2.5,-0.5L0,-3.0L2.5,-0.5"/>
                </g>
               <g id="resetDef">
                       <use xlink:href="#rim2" fill="#404040">
                               <set attributeName="fill" to="#808080" begin="reset.mouseover" end="reset.mouseout"/>
                       </use>
               </g>
        </defs>

<script type="text/javascript">
var viewWidth = 1130;
var viewHeight = 194;
var sectionId = 'dynsection-1';
</script>
<script xlink:href="svgpan.js"/>
<svg id="graph" class="graph">
<g id="viewport">
<title>beseenium.view.URLHandler.handleAddActions</title>
<polygon fill="white" stroke="none" points="-4,4 -4,-190 1126,-190 1126,4 -4,4"/>
<!-- Node1 -->
<g id="node1" class="node"><title>Node1</title>
<polygon fill="#bfbfbf" stroke="black" points="0,-78.5 0,-108.5 188,-108.5 188,-78.5 0,-78.5"/>
<text text-anchor="start" x="8" y="-96.5" font-family="Helvetica,sans-Serif" font-size="10.00">beseenium.view.URLHandler.handle</text>
<text text-anchor="middle" x="94" y="-85.5" font-family="Helvetica,sans-Serif" font-size="10.00">AddActions</text>
</g>
<!-- Node2 -->
<g id="node2" class="node"><title>Node2</title>
<g id="a_node2"><a xlink:href="a00121.html#a47938d96708f66fa5342e9377c8b5171" target="_top" xlink:title="Add an action to this test. ">
<polygon fill="white" stroke="black" points="479,-122.5 479,-152.5 641,-152.5 641,-122.5 479,-122.5"/>
<text text-anchor="start" x="487" y="-140.5" font-family="Helvetica,sans-Serif" font-size="10.00">beseenium.controller.Test.add</text>
<text text-anchor="middle" x="560" y="-129.5" font-family="Helvetica,sans-Serif" font-size="10.00">Action</text>
</a>
</g>
</g>
<!-- Node1&#45;&gt;Node2 -->
<g id="edge1" class="edge"><title>Node1&#45;&gt;Node2</title>
<path fill="none" stroke="midnightblue" d="M188.256,-108.044C200.267,-109.68 212.413,-111.216 224,-112.5 306.704,-121.665 401.278,-128.379 468.801,-132.528"/>
<polygon fill="midnightblue" stroke="midnightblue" points="468.787,-136.034 478.98,-133.147 469.211,-129.046 468.787,-136.034"/>
</g>
<!-- Node5 -->
<g id="node5" class="node"><title>Node5</title>
<g id="a_node5"><a xlink:href="a00123.html#ab3a029a7ca30c5f8a0344c4634b9daf0" target="_top" xlink:title="in case something goes wrong the test should be able to shut down the current browser instance...">
<polygon fill="white" stroke="black" points="224,-84 224,-103 425,-103 425,-84 224,-84"/>
<text text-anchor="middle" x="324.5" y="-91" font-family="Helvetica,sans-Serif" font-size="10.00">beseenium.view.URLHandler.shutdown</text>
</a>
</g>
</g>
<!-- Node1&#45;&gt;Node5 -->
<g id="edge4" class="edge"><title>Node1&#45;&gt;Node5</title>
<path fill="none" stroke="midnightblue" d="M188.269,-93.5C196.695,-93.5 205.279,-93.5 213.829,-93.5"/>
<polygon fill="midnightblue" stroke="midnightblue" points="213.838,-97.0001 223.838,-93.5 213.838,-90.0001 213.838,-97.0001"/>
</g>
<!-- Node14 -->
<g id="node14" class="node"><title>Node14</title>
<g id="a_node14"><a xlink:href="a00123.html#afd41cb73709357094e639ea896da5c85" target="_top" xlink:title="split a string of the form &quot;V01:V02:...:V0n|V11:V12:...:V1n|Vm1:Vm2:...:Vmn&quot; into a 2d String array o...">
<polygon fill="white" stroke="black" points="237,-34.5 237,-64.5 412,-64.5 412,-34.5 237,-34.5"/>
<text text-anchor="start" x="245" y="-52.5" font-family="Helvetica,sans-Serif" font-size="10.00">beseenium.view.URLHandler.split</text>
<text text-anchor="middle" x="324.5" y="-41.5" font-family="Helvetica,sans-Serif" font-size="10.00">String</text>
</a>
</g>
</g>
<!-- Node1&#45;&gt;Node14 -->
<g id="edge15" class="edge"><title>Node1&#45;&gt;Node14</title>
<path fill="none" stroke="midnightblue" d="M172.998,-78.4808C193.108,-74.6084 214.89,-70.414 235.471,-66.4508"/>
<polygon fill="midnightblue" stroke="midnightblue" points="236.308,-69.854 245.466,-64.5262 234.985,-62.9803 236.308,-69.854"/>
</g>
<!-- Node3 -->
<g id="node3" class="node"><title>Node3</title>
<g id="a_node3"><a xlink:href="a00020.html#abf329444fb06b3cf9b4dc5c0a11832b2" target="_top" xlink:title="Adds an abstract action to the action queue, each action has an input parameter and an index n...">
<polygon fill="white" stroke="black" points="705.5,-117 705.5,-136 896.5,-136 896.5,-117 705.5,-117"/>
<text text-anchor="middle" x="801" y="-124" font-family="Helvetica,sans-Serif" font-size="10.00">beseenium.model.ActionInvoker.add</text>
</a>
</g>
</g>
<!-- Node2&#45;&gt;Node3 -->
<g id="edge2" class="edge"><title>Node2&#45;&gt;Node3</title>
<path fill="none" stroke="midnightblue" d="M641.248,-133.807C658.64,-133.006 677.28,-132.148 695.451,-131.312"/>
<polygon fill="midnightblue" stroke="midnightblue" points="695.659,-134.806 705.487,-130.85 695.337,-127.814 695.659,-134.806"/>
</g>
<!-- Node4 -->
<g id="node4" class="node"><title>Node4</title>
<g id="a_node4"><a xlink:href="a00018.html#a8283241ec6b94055f72282f99815155d" target="_top" xlink:title="creates an Action ">
<polygon fill="white" stroke="black" points="711,-155.5 711,-185.5 891,-185.5 891,-155.5 711,-155.5"/>
<text text-anchor="start" x="719" y="-173.5" font-family="Helvetica,sans-Serif" font-size="10.00">beseenium.controller.Action</text>
<text text-anchor="middle" x="801" y="-162.5" font-family="Helvetica,sans-Serif" font-size="10.00">Factory.ActionFactory.makeAction</text>
</a>
</g>
</g>
<!-- Node2&#45;&gt;Node4 -->
<g id="edge3" class="edge"><title>Node2&#45;&gt;Node4</title>
<path fill="none" stroke="midnightblue" d="M641.248,-148.58C660.39,-151.223 681.043,-154.075 700.92,-156.819"/>
<polygon fill="midnightblue" stroke="midnightblue" points="700.532,-160.299 710.916,-158.2 701.489,-153.365 700.532,-160.299"/>
</g>
<!-- Node6 -->
<g id="node6" class="node"><title>Node6</title>
<g id="a_node6"><a xlink:href="a00121.html#a30550c4174a00b79dcb3c09b37eb925f" target="_top" xlink:title="remove all actions from this test and close the browser instance associated with it. ">
<polygon fill="white" stroke="black" points="461,-73.5 461,-103.5 659,-103.5 659,-73.5 461,-73.5"/>
<text text-anchor="start" x="469" y="-91.5" font-family="Helvetica,sans-Serif" font-size="10.00">beseenium.controller.Test.emergency</text>
<text text-anchor="middle" x="560" y="-80.5" font-family="Helvetica,sans-Serif" font-size="10.00">Shutdown</text>
</a>
</g>
</g>
<!-- Node5&#45;&gt;Node6 -->
<g id="edge5" class="edge"><title>Node5&#45;&gt;Node6</title>
<path fill="none" stroke="midnightblue" d="M425.202,-91.365C433.574,-91.1858 442.065,-91.004 450.499,-90.8234"/>
<polygon fill="midnightblue" stroke="midnightblue" points="450.823,-94.3173 460.746,-90.604 450.673,-87.3189 450.823,-94.3173"/>
</g>
<!-- Node6&#45;&gt;Node3 -->
<g id="edge6" class="edge"><title>Node6&#45;&gt;Node3</title>
<path fill="none" stroke="midnightblue" d="M655.459,-103.519C680.35,-107.476 706.759,-111.675 730.099,-115.386"/>
<polygon fill="midnightblue" stroke="midnightblue" points="729.819,-118.885 740.244,-116.999 730.918,-111.972 729.819,-118.885"/>
</g>
<!-- Node6&#45;&gt;Node4 -->
<g id="edge12" class="edge"><title>Node6&#45;&gt;Node4</title>
<path fill="none" stroke="midnightblue" d="M635.729,-103.541C643.796,-106.337 651.711,-109.629 659,-113.5 677.906,-123.541 676.014,-135.611 695,-145.5 699.557,-147.874 704.343,-150.026 709.256,-151.976"/>
<polygon fill="midnightblue" stroke="midnightblue" points="708.241,-155.332 718.834,-155.485 710.648,-148.759 708.241,-155.332"/>
</g>
<!-- Node7 -->
<g id="node7" class="node"><title>Node7</title>
<g id="a_node7"><a xlink:href="a00020.html#abd8f9cf7dc1cf8d14b0334d7b0fe633f" target="_top" xlink:title="iterates through the commands stored in the list and executes ">
<polygon fill="white" stroke="black" points="695,-79 695,-98 907,-98 907,-79 695,-79"/>
<text text-anchor="middle" x="801" y="-86" font-family="Helvetica,sans-Serif" font-size="10.00">beseenium.model.ActionInvoker.execute</text>
</a>
</g>
</g>
<!-- Node6&#45;&gt;Node7 -->
<g id="edge7" class="edge"><title>Node6&#45;&gt;Node7</title>
<path fill="none" stroke="midnightblue" d="M659.245,-88.5C667.575,-88.5 676.046,-88.5 684.492,-88.5"/>
<polygon fill="midnightblue" stroke="midnightblue" points="684.768,-92.0001 694.768,-88.5 684.768,-85.0001 684.768,-92.0001"/>
</g>
<!-- Node12 -->
<g id="node12" class="node"><title>Node12</title>
<g id="a_node12"><a xlink:href="a00020.html#af7d6d40d83ef5753d06f553b0be06bc5" target="_top" xlink:title="removes the last Action and associated parameters ">
<polygon fill="white" stroke="black" points="696,-41 696,-60 906,-60 906,-41 696,-41"/>
<text text-anchor="middle" x="801" y="-48" font-family="Helvetica,sans-Serif" font-size="10.00">beseenium.model.ActionInvoker.remove</text>
</a>
</g>
</g>
<!-- Node6&#45;&gt;Node12 -->
<g id="edge13" class="edge"><title>Node6&#45;&gt;Node12</title>
<path fill="none" stroke="midnightblue" d="M655.459,-73.4814C680.35,-69.5238 706.759,-65.3249 730.099,-61.614"/>
<polygon fill="midnightblue" stroke="midnightblue" points="730.918,-65.0278 740.244,-60.0009 729.819,-58.1147 730.918,-65.0278"/>
</g>
<!-- Node13 -->
<g id="node13" class="node"><title>Node13</title>
<g id="a_node13"><a xlink:href="a00020.html#a315c13ebb167511b6895aabefe8b6c8e" target="_top" xlink:title="get the current size of the invoker ">
<polygon fill="white" stroke="black" points="705,-3 705,-22 897,-22 897,-3 705,-3"/>
<text text-anchor="middle" x="801" y="-10" font-family="Helvetica,sans-Serif" font-size="10.00">beseenium.model.ActionInvoker.size</text>
</a>
</g>
</g>
<!-- Node6&#45;&gt;Node13 -->
<g id="edge14" class="edge"><title>Node6&#45;&gt;Node13</title>
<path fill="none" stroke="midnightblue" d="M590.886,-73.4997C617.581,-60.6595 658.063,-42.5467 695,-31.5 704.451,-28.6735 714.513,-26.2008 724.524,-24.057"/>
<polygon fill="midnightblue" stroke="midnightblue" points="725.395,-27.4515 734.492,-22.0219 723.994,-20.593 725.395,-27.4515"/>
</g>
<!-- Node8 -->
<g id="node8" class="node"><title>Node8</title>
<g id="a_node8"><a xlink:href="a00007.html#a24e2b60937596ecd18cd17cfe7595c5d" target="_top" xlink:title="execute the derived Action in question, ">
<polygon fill="white" stroke="black" points="943,-147.5 943,-177.5 1122,-177.5 1122,-147.5 943,-147.5"/>
<text text-anchor="start" x="951" y="-165.5" font-family="Helvetica,sans-Serif" font-size="10.00">beseenium.model.action.Abstract</text>
<text text-anchor="middle" x="1032.5" y="-154.5" font-family="Helvetica,sans-Serif" font-size="10.00">Action.execute</text>
</a>
</g>
</g>
<!-- Node7&#45;&gt;Node8 -->
<g id="edge8" class="edge"><title>Node7&#45;&gt;Node8</title>
<path fill="none" stroke="midnightblue" d="M880.522,-98.07C889.67,-100.53 898.691,-103.62 907,-107.5 925.871,-116.312 924.575,-127.79 943,-137.5 947.277,-139.754 951.781,-141.825 956.397,-143.724"/>
<polygon fill="midnightblue" stroke="midnightblue" points="955.405,-147.091 965.995,-147.384 957.899,-140.551 955.405,-147.091"/>
</g>
<!-- Node9 -->
<g id="node9" class="node"><title>Node9</title>
<g id="a_node9"><a xlink:href="a00007.html#a1dade057d9cb3bfecefdb716aae91d33" target="_top" xlink:title="get the ActionData object stored in the derived Action ">
<polygon fill="white" stroke="black" points="943,-98.5 943,-128.5 1122,-128.5 1122,-98.5 943,-98.5"/>
<text text-anchor="start" x="951" y="-116.5" font-family="Helvetica,sans-Serif" font-size="10.00">beseenium.model.action.Abstract</text>
<text text-anchor="middle" x="1032.5" y="-105.5" font-family="Helvetica,sans-Serif" font-size="10.00">Action.getActionData</text>
</a>
</g>
</g>
<!-- Node7&#45;&gt;Node9 -->
<g id="edge9" class="edge"><title>Node7&#45;&gt;Node9</title>
<path fill="none" stroke="midnightblue" d="M889.419,-98.0227C903.485,-99.5551 918.134,-101.151 932.45,-102.71"/>
<polygon fill="midnightblue" stroke="midnightblue" points="932.482,-106.234 942.803,-103.838 933.241,-99.2756 932.482,-106.234"/>
</g>
<!-- Node10 -->
<g id="node10" class="node"><title>Node10</title>
<g id="a_node10"><a xlink:href="a00011.html#a1cbbd813f07556de640f8f3b3f03587a" target="_top" xlink:title="Sets the WebDriver associated with this ActionData. ">
<polygon fill="white" stroke="black" points="952,-49.5 952,-79.5 1113,-79.5 1113,-49.5 952,-49.5"/>
<text text-anchor="start" x="960" y="-67.5" font-family="Helvetica,sans-Serif" font-size="10.00">beseenium.model.actionData.</text>
<text text-anchor="middle" x="1032.5" y="-56.5" font-family="Helvetica,sans-Serif" font-size="10.00">ActionData.setDriver</text>
</a>
</g>
</g>
<!-- Node7&#45;&gt;Node10 -->
<g id="edge10" class="edge"><title>Node7&#45;&gt;Node10</title>
<path fill="none" stroke="midnightblue" d="M893.034,-78.9801C908.946,-77.3161 925.495,-75.5855 941.382,-73.9241"/>
<polygon fill="midnightblue" stroke="midnightblue" points="942.132,-77.3649 951.713,-72.8437 941.403,-70.4029 942.132,-77.3649"/>
</g>
<!-- Node11 -->
<g id="node11" class="node"><title>Node11</title>
<g id="a_node11"><a xlink:href="a00011.html#a0825a9ec5bee8b6de8e7b244d991c04d" target="_top" xlink:title="this method sets the value of the input parameter. ">
<polygon fill="white" stroke="black" points="952,-0.5 952,-30.5 1113,-30.5 1113,-0.5 952,-0.5"/>
<text text-anchor="start" x="960" y="-18.5" font-family="Helvetica,sans-Serif" font-size="10.00">beseenium.model.actionData.</text>
<text text-anchor="middle" x="1032.5" y="-7.5" font-family="Helvetica,sans-Serif" font-size="10.00">ActionData.setInputParam</text>
</a>
</g>
</g>
<!-- Node7&#45;&gt;Node11 -->
<g id="edge11" class="edge"><title>Node7&#45;&gt;Node11</title>
<path fill="none" stroke="midnightblue" d="M879.905,-78.9419C889.253,-76.481 898.491,-73.3877 907,-69.5 925.688,-60.9619 924.745,-49.9276 943,-40.5 947.495,-38.1785 952.233,-36.0487 957.086,-34.0987"/>
<polygon fill="midnightblue" stroke="midnightblue" points="958.384,-37.3498 966.524,-30.5672 955.931,-30.7937 958.384,-37.3498"/>
</g>
</g>
</svg>
        <g id="navigator" transform="translate(0 0)" fill="#404254">
                <rect fill="#f2f5e9" fill-opacity="0.5" stroke="#606060" stroke-width=".5" x="0" y="0" width="60" height="60"/>
                <use id="zoomplus" xlink:href="#zoomPlus" x="17" y="9" onmousedown="handleZoom(evt,'in')"/>
                <use id="zoomminus" xlink:href="#zoomMin" x="42" y="9" onmousedown="handleZoom(evt,'out')"/>
                <use id="reset" xlink:href="#resetDef" x="30" y="36" onmousedown="handleReset()"/>
                <g id="arrowUp" xlink:href="#dirArrow" transform="translate(30 24)" onmousedown="handlePan(0,-1)">
                  <use xlink:href="#rim" fill="#404040">
                        <set attributeName="fill" to="#808080" begin="arrowUp.mouseover" end="arrowUp.mouseout"/>
                  </use>
                  <path fill="none" stroke="white" stroke-width="1.5" d="M0,-3.0v7 M-2.5,-0.5L0,-3.0L2.5,-0.5"/>
                </g>
                <g id="arrowRight" xlink:href="#dirArrow" transform="rotate(90) translate(36 -43)" onmousedown="handlePan(1,0)">
                  <use xlink:href="#rim" fill="#404040">
                        <set attributeName="fill" to="#808080" begin="arrowRight.mouseover" end="arrowRight.mouseout"/>
                  </use>
                  <path fill="none" stroke="white" stroke-width="1.5" d="M0,-3.0v7 M-2.5,-0.5L0,-3.0L2.5,-0.5"/>
                </g>
                <g id="arrowDown" xlink:href="#dirArrow" transform="rotate(180) translate(-30 -48)" onmousedown="handlePan(0,1)">
                  <use xlink:href="#rim" fill="#404040">
                        <set attributeName="fill" to="#808080" begin="arrowDown.mouseover" end="arrowDown.mouseout"/>
                  </use>
                  <path fill="none" stroke="white" stroke-width="1.5" d="M0,-3.0v7 M-2.5,-0.5L0,-3.0L2.5,-0.5"/>
                </g>
                <g id="arrowLeft" xlink:href="#dirArrow" transform="rotate(270) translate(-36 17)" onmousedown="handlePan(-1,0)">
                  <use xlink:href="#rim" fill="#404040">
                        <set attributeName="fill" to="#808080" begin="arrowLeft.mouseover" end="arrowLeft.mouseout"/>
                  </use>
                  <path fill="none" stroke="white" stroke-width="1.5" d="M0,-3.0v7 M-2.5,-0.5L0,-3.0L2.5,-0.5"/>
                </g>
        </g>
        <svg viewBox="0 0 15 15" width="100%" height="30px" preserveAspectRatio="xMaxYMin meet">
         <g id="arrow_out" transform="scale(0.3 0.3)">
          <a xlink:href="a00123_aa2ec4a8ab58fee50c2a0a4ace58fd981_cgraph_org.svg" target="_base">
           <rect id="button" ry="5" rx="5" y="6" x="6" height="38" width="38"
                fill="#f2f5e9" fill-opacity="0.5" stroke="#606060" stroke-width="1.0"/>
           <path id="arrow"
             d="M 11.500037,31.436501 C 11.940474,20.09759 22.043105,11.32322 32.158766,21.979434 L 37.068811,17.246167 C 37.068811,17.246167 37.088388,32 37.088388,32 L 22.160133,31.978069 C 22.160133,31.978069 26.997745,27.140456 26.997745,27.140456 C 18.528582,18.264221 13.291696,25.230495 11.500037,31.436501 z"
             style="fill:#404040;"/>
          </a>
         </g>
        </svg>
</svg>
