<?xml version="1.0" encoding="UTF-8" standalone="no"?>
<!DOCTYPE svg PUBLIC "-//W3C//DTD SVG 1.1//EN"
 "http://www.w3.org/Graphics/SVG/1.1/DTD/svg11.dtd">
<!-- Generated by graphviz version 2.38.0 (20140413.2041)
 -->
<!-- Title: beseenium.view.outputHandlers.OutputHandler.setSuccessor Pages: 1 -->
<svg width="578pt" height="39pt"
 viewBox="0.00 0.00 578.00 39.00" xmlns="http://www.w3.org/2000/svg" xmlns:xlink="http://www.w3.org/1999/xlink">
<g id="graph0" class="graph" transform="scale(1 1) rotate(0) translate(4 35)">
<title>beseenium.view.outputHandlers.OutputHandler.setSuccessor</title>
<polygon fill="white" stroke="none" points="-4,4 -4,-35 574,-35 574,4 -4,4"/>
<!-- Node1 -->
<g id="node1" class="node"><title>Node1</title>
<polygon fill="#bfbfbf" stroke="black" points="0,-0.5 0,-30.5 173,-30.5 173,-0.5 0,-0.5"/>
<text text-anchor="start" x="8" y="-18.5" font-family="Helvetica,sans-Serif" font-size="10.00">beseenium.view.outputHandlers.</text>
<text text-anchor="middle" x="86.5" y="-7.5" font-family="Helvetica,sans-Serif" font-size="10.00">OutputHandler.setSuccessor</text>
</g>
<!-- Node2 -->
<g id="node2" class="node"><title>Node2</title>
<g id="a_node2"><a xlink:href="a00114.html#a0aaa39829880d8a3104d8010d254f2ef" target="_top" xlink:title="beseenium.view.outputHandlers.\lOutputHandler.handleRequests">
<polygon fill="white" stroke="black" points="209,-0.5 209,-30.5 382,-30.5 382,-0.5 209,-0.5"/>
<text text-anchor="start" x="217" y="-18.5" font-family="Helvetica,sans-Serif" font-size="10.00">beseenium.view.outputHandlers.</text>
<text text-anchor="middle" x="295.5" y="-7.5" font-family="Helvetica,sans-Serif" font-size="10.00">OutputHandler.handleRequests</text>
</a>
</g>
</g>
<!-- Node1&#45;&gt;Node2 -->
<g id="edge1" class="edge"><title>Node1&#45;&gt;Node2</title>
<path fill="none" stroke="midnightblue" d="M183.198,-15.5C191.764,-15.5 200.402,-15.5 208.875,-15.5"/>
<polygon fill="midnightblue" stroke="midnightblue" points="183.189,-12.0001 173.189,-15.5 183.189,-19.0001 183.189,-12.0001"/>
</g>
<!-- Node3 -->
<g id="node3" class="node"><title>Node3</title>
<g id="a_node3"><a xlink:href="a00032.html#abfe1e13814420a006f1dc1d230260ed6" target="_top" xlink:title="Logger. ">
<polygon fill="white" stroke="black" points="418,-0.5 418,-30.5 570,-30.5 570,-0.5 418,-0.5"/>
<text text-anchor="start" x="426" y="-18.5" font-family="Helvetica,sans-Serif" font-size="10.00">beseenium.view.BeSeenium</text>
<text text-anchor="middle" x="494" y="-7.5" font-family="Helvetica,sans-Serif" font-size="10.00">Servlet.doGet</text>
</a>
</g>
</g>
<!-- Node2&#45;&gt;Node3 -->
<g id="edge2" class="edge"><title>Node2&#45;&gt;Node3</title>
<path fill="none" stroke="midnightblue" d="M392.195,-15.5C400.805,-15.5 409.441,-15.5 417.838,-15.5"/>
<polygon fill="midnightblue" stroke="midnightblue" points="392.116,-12.0001 382.116,-15.5 392.116,-19.0001 392.116,-12.0001"/>
</g>
</g>
</svg>
