<?xml version="1.0" encoding="UTF-8" standalone="no"?>
<!DOCTYPE svg PUBLIC "-//W3C//DTD SVG 1.1//EN"
 "http://www.w3.org/Graphics/SVG/1.1/DTD/svg11.dtd">
<!-- Generated by graphviz version 2.38.0 (20140413.2041)
 -->
<!-- Title: beseenium.view.URLHandler.shutdown Pages: 1 -->
<svg width="675pt" height="176pt"
 viewBox="0.00 0.00 675.00 176.00" xmlns="http://www.w3.org/2000/svg" xmlns:xlink="http://www.w3.org/1999/xlink">
<g id="graph0" class="graph" transform="scale(1 1) rotate(0) translate(4 172)">
<title>beseenium.view.URLHandler.shutdown</title>
<polygon fill="white" stroke="none" points="-4,4 -4,-172 671,-172 671,4 -4,4"/>
<!-- Node1 -->
<g id="node1" class="node"><title>Node1</title>
<polygon fill="#bfbfbf" stroke="black" points="0,-77 0,-96 201,-96 201,-77 0,-77"/>
<text text-anchor="middle" x="100.5" y="-84" font-family="Helvetica,sans-Serif" font-size="10.00">beseenium.view.URLHandler.shutdown</text>
</g>
<!-- Node2 -->
<g id="node2" class="node"><title>Node2</title>
<g id="a_node2"><a xlink:href="a00132.html#aa2ec4a8ab58fee50c2a0a4ace58fd981" target="_top" xlink:title="takes an input from servlet(via handleURL method) in the form of string &#39;get&#39; URL parameter &#39;addActio...">
<polygon fill="white" stroke="black" points="237,-137.5 237,-167.5 425,-167.5 425,-137.5 237,-137.5"/>
<text text-anchor="start" x="245" y="-155.5" font-family="Helvetica,sans-Serif" font-size="10.00">beseenium.view.URLHandler.handle</text>
<text text-anchor="middle" x="331" y="-144.5" font-family="Helvetica,sans-Serif" font-size="10.00">AddActions</text>
</a>
</g>
</g>
<!-- Node1&#45;&gt;Node2 -->
<g id="edge1" class="edge"><title>Node1&#45;&gt;Node2</title>
<path fill="none" stroke="midnightblue" d="M144.417,-98.8962C182.203,-109.81 237.341,-125.736 277.697,-137.393"/>
<polygon fill="midnightblue" stroke="midnightblue" points="145.304,-95.5095 134.726,-96.097 143.362,-102.235 145.304,-95.5095"/>
</g>
<!-- Node3 -->
<g id="node3" class="node"><title>Node3</title>
<g id="a_node3"><a xlink:href="a00132.html#a5d57a46df8465d2c40f22fd8cb037c9c" target="_top" xlink:title="takes the URL parameters passed to it from the BeSeeniumServlet and uses it to populate and run a Tes...">
<polygon fill="white" stroke="black" points="461,-77 461,-96 667,-96 667,-77 461,-77"/>
<text text-anchor="middle" x="564" y="-84" font-family="Helvetica,sans-Serif" font-size="10.00">beseenium.view.URLHandler.handleURL</text>
</a>
</g>
</g>
<!-- Node1&#45;&gt;Node3 -->
<g id="edge7" class="edge"><title>Node1&#45;&gt;Node3</title>
<path fill="none" stroke="midnightblue" d="M211.26,-88.2575C219.969,-88.355 228.63,-88.4382 237,-88.5 320.553,-89.1166 341.447,-89.1054 425,-88.5 436.621,-88.4158 448.791,-88.2917 460.887,-88.1459"/>
<polygon fill="midnightblue" stroke="midnightblue" points="211.07,-84.7551 201.029,-88.1368 210.987,-91.7546 211.07,-84.7551"/>
</g>
<!-- Node4 -->
<g id="node4" class="node"><title>Node4</title>
<g id="a_node4"><a xlink:href="a00132.html#a7696fb55c864a910283e742115b7ed15" target="_top" xlink:title="takes an input from servlet(via handleURL method) in the form of string &#39;get&#39; URL parameter &#39;browser&#39;...">
<polygon fill="white" stroke="black" points="237,-49.5 237,-79.5 425,-79.5 425,-49.5 237,-49.5"/>
<text text-anchor="start" x="245" y="-67.5" font-family="Helvetica,sans-Serif" font-size="10.00">beseenium.view.URLHandler.handle</text>
<text text-anchor="middle" x="331" y="-56.5" font-family="Helvetica,sans-Serif" font-size="10.00">Browser</text>
</a>
</g>
</g>
<!-- Node1&#45;&gt;Node4 -->
<g id="edge3" class="edge"><title>Node1&#45;&gt;Node4</title>
<path fill="none" stroke="midnightblue" d="M210.614,-75.9945C219.346,-75.1538 228.118,-74.3092 236.726,-73.4805"/>
<polygon fill="midnightblue" stroke="midnightblue" points="210.013,-72.5361 200.394,-76.9784 210.684,-79.5039 210.013,-72.5361"/>
</g>
<!-- Node5 -->
<g id="node5" class="node"><title>Node5</title>
<g id="a_node5"><a xlink:href="a00132.html#ae0ec35bbb8622775c22687d68a8a830d" target="_top" xlink:title="takes an input from servlet(via handleURL method) in the form of string &#39;get&#39; URL parameter &#39;capabili...">
<polygon fill="white" stroke="black" points="237,-0.5 237,-30.5 425,-30.5 425,-0.5 237,-0.5"/>
<text text-anchor="start" x="245" y="-18.5" font-family="Helvetica,sans-Serif" font-size="10.00">beseenium.view.URLHandler.handle</text>
<text text-anchor="middle" x="331" y="-7.5" font-family="Helvetica,sans-Serif" font-size="10.00">Capabilities</text>
</a>
</g>
</g>
<!-- Node1&#45;&gt;Node5 -->
<g id="edge5" class="edge"><title>Node1&#45;&gt;Node5</title>
<path fill="none" stroke="midnightblue" d="M137.558,-73.5496C164.742,-63.9597 203.022,-50.8227 237,-40.5 248.198,-37.098 260.225,-33.6873 271.792,-30.527"/>
<polygon fill="midnightblue" stroke="midnightblue" points="136.33,-70.2713 128.073,-76.9104 138.668,-76.8693 136.33,-70.2713"/>
</g>
<!-- Node2&#45;&gt;Node3 -->
<g id="edge2" class="edge"><title>Node2&#45;&gt;Node3</title>
<path fill="none" stroke="midnightblue" d="M394.338,-134.689C437.825,-122.264 494.173,-106.165 529.462,-96.0824"/>
<polygon fill="midnightblue" stroke="midnightblue" points="393.36,-131.328 384.707,-137.441 395.283,-138.059 393.36,-131.328"/>
</g>
<!-- Node4&#45;&gt;Node3 -->
<g id="edge4" class="edge"><title>Node4&#45;&gt;Node3</title>
<path fill="none" stroke="midnightblue" d="M435.527,-74.3597C444.642,-75.2278 453.858,-76.1055 462.944,-76.9708"/>
<polygon fill="midnightblue" stroke="midnightblue" points="435.578,-70.8488 425.291,-73.3848 434.914,-77.8172 435.578,-70.8488"/>
</g>
<!-- Node5&#45;&gt;Node3 -->
<g id="edge6" class="edge"><title>Node5&#45;&gt;Node3</title>
<path fill="none" stroke="midnightblue" d="M400.035,-33.2902C408.464,-35.6409 416.945,-38.0771 425,-40.5 463.815,-52.1752 508.204,-67.292 535.92,-76.9458"/>
<polygon fill="midnightblue" stroke="midnightblue" points="400.764,-29.8607 390.194,-30.576 398.903,-36.6088 400.764,-29.8607"/>
</g>
</g>
</svg>
