<?xml version="1.0" encoding="UTF-8" standalone="no"?>
<!DOCTYPE svg PUBLIC "-//W3C//DTD SVG 1.1//EN"
 "http://www.w3.org/Graphics/SVG/1.1/DTD/svg11.dtd">
<!-- Generated by graphviz version 2.38.0 (20140413.2041)
 -->
<!-- Title: beseenium.controller.Test.addAction Pages: 1 -->
<svg width="397pt" height="77pt"
 viewBox="0.00 0.00 397.00 77.50" xmlns="http://www.w3.org/2000/svg" xmlns:xlink="http://www.w3.org/1999/xlink">
<g id="graph0" class="graph" transform="scale(1 1) rotate(0) translate(4 73.5)">
<title>beseenium.controller.Test.addAction</title>
<polygon fill="white" stroke="none" points="-4,4 -4,-73.5 393,-73.5 393,4 -4,4"/>
<!-- Node1 -->
<g id="node1" class="node"><title>Node1</title>
<polygon fill="#bfbfbf" stroke="black" points="0,-22.5 0,-52.5 162,-52.5 162,-22.5 0,-22.5"/>
<text text-anchor="start" x="8" y="-40.5" font-family="Helvetica,sans-Serif" font-size="10.00">beseenium.controller.Test.add</text>
<text text-anchor="middle" x="81" y="-29.5" font-family="Helvetica,sans-Serif" font-size="10.00">Action</text>
</g>
<!-- Node2 -->
<g id="node2" class="node"><title>Node2</title>
<g id="a_node2"><a xlink:href="a00016.html#abf329444fb06b3cf9b4dc5c0a11832b2" target="_top" xlink:title="Adds an abstract action to the action queue, each action has an input parameter and an index n...">
<polygon fill="white" stroke="black" points="198,-50 198,-69 389,-69 389,-50 198,-50"/>
<text text-anchor="middle" x="293.5" y="-57" font-family="Helvetica,sans-Serif" font-size="10.00">beseenium.model.ActionInvoker.add</text>
</a>
</g>
</g>
<!-- Node1&#45;&gt;Node2 -->
<g id="edge1" class="edge"><title>Node1&#45;&gt;Node2</title>
<path fill="none" stroke="midnightblue" d="M162.182,-45.88C171.667,-46.8714 181.441,-47.8929 191.17,-48.9097"/>
<polygon fill="midnightblue" stroke="midnightblue" points="190.969,-52.4077 201.279,-49.9662 191.697,-45.4456 190.969,-52.4077"/>
</g>
<!-- Node3 -->
<g id="node3" class="node"><title>Node3</title>
<g id="a_node3"><a xlink:href="a00014.html#a8283241ec6b94055f72282f99815155d" target="_top" xlink:title="creates an Action ">
<polygon fill="white" stroke="black" points="203.5,-0.5 203.5,-30.5 383.5,-30.5 383.5,-0.5 203.5,-0.5"/>
<text text-anchor="start" x="211.5" y="-18.5" font-family="Helvetica,sans-Serif" font-size="10.00">beseenium.controller.Action</text>
<text text-anchor="middle" x="293.5" y="-7.5" font-family="Helvetica,sans-Serif" font-size="10.00">Factory.ActionFactory.makeAction</text>
</a>
</g>
</g>
<!-- Node1&#45;&gt;Node3 -->
<g id="edge2" class="edge"><title>Node1&#45;&gt;Node3</title>
<path fill="none" stroke="midnightblue" d="M162.182,-29.12C172.395,-28.0525 182.943,-26.9502 193.409,-25.8563"/>
<polygon fill="midnightblue" stroke="midnightblue" points="193.823,-29.3321 203.405,-24.8115 193.096,-22.3701 193.823,-29.3321"/>
</g>
</g>
</svg>
