<?xml version="1.0" encoding="UTF-8" standalone="no"?>
<!DOCTYPE svg PUBLIC "-//W3C//DTD SVG 1.1//EN"
 "http://www.w3.org/Graphics/SVG/1.1/DTD/svg11.dtd">
<!-- Generated by graphviz version 2.38.0 (20140413.2041)
 -->
<!-- Title: beseenium.controller.ActionFactory.ActionFactory Pages: 1 -->
<svg width="751pt" height="557pt"
 viewBox="0.00 0.00 751.00 557.00" xmlns="http://www.w3.org/2000/svg" xmlns:xlink="http://www.w3.org/1999/xlink">
<g id="graph0" class="graph" transform="scale(1 1) rotate(0) translate(4 553)">
<title>beseenium.controller.ActionFactory.ActionFactory</title>
<polygon fill="white" stroke="none" points="-4,4 -4,-553 747,-553 747,4 -4,4"/>
<!-- Node1 -->
<g id="node1" class="node"><title>Node1</title>
<polygon fill="#bfbfbf" stroke="black" points="514,-0.5 514,-90.5 665,-90.5 665,-0.5 514,-0.5"/>
<text text-anchor="start" x="522" y="-78.5" font-family="Helvetica,sans-Serif" font-size="10.00">beseenium.controller.Action</text>
<text text-anchor="middle" x="589.5" y="-67.5" font-family="Helvetica,sans-Serif" font-size="10.00">Factory.ActionFactory</text>
<polyline fill="none" stroke="black" points="514,-60.5 665,-60.5 "/>
<text text-anchor="middle" x="589.5" y="-48.5" font-family="Helvetica,sans-Serif" font-size="10.00"> </text>
<polyline fill="none" stroke="black" points="514,-41.5 665,-41.5 "/>
<text text-anchor="start" x="522" y="-29.5" font-family="Helvetica,sans-Serif" font-size="10.00">+ ActionFactory()</text>
<text text-anchor="start" x="522" y="-18.5" font-family="Helvetica,sans-Serif" font-size="10.00">+ makeAction()</text>
<text text-anchor="start" x="522" y="-7.5" font-family="Helvetica,sans-Serif" font-size="10.00">&#45; populateActionMap()</text>
</g>
<!-- Node2 -->
<g id="node2" class="node"><title>Node2</title>
<g id="a_node2"><a xlink:href="a00014.html" target="_top" xlink:title="This Class conforms to a &#39;factory&#39; pattern, it allows the creation of different ActionData instances...">
<polygon fill="white" stroke="black" points="371,-138.5 371,-250.5 538,-250.5 538,-138.5 371,-138.5"/>
<text text-anchor="start" x="379" y="-238.5" font-family="Helvetica,sans-Serif" font-size="10.00">beseenium.controller.Action</text>
<text text-anchor="middle" x="454.5" y="-227.5" font-family="Helvetica,sans-Serif" font-size="10.00">DataFactory.ActionDataFactory</text>
<polyline fill="none" stroke="black" points="371,-220.5 538,-220.5 "/>
<text text-anchor="middle" x="454.5" y="-208.5" font-family="Helvetica,sans-Serif" font-size="10.00"> </text>
<polyline fill="none" stroke="black" points="371,-201.5 538,-201.5 "/>
<text text-anchor="start" x="379" y="-189.5" font-family="Helvetica,sans-Serif" font-size="10.00">+ ActionDataFactory()</text>
<text text-anchor="start" x="379" y="-178.5" font-family="Helvetica,sans-Serif" font-size="10.00">+ setCapabilities()</text>
<text text-anchor="start" x="379" y="-167.5" font-family="Helvetica,sans-Serif" font-size="10.00">+ makeActionData()</text>
<text text-anchor="start" x="379" y="-156.5" font-family="Helvetica,sans-Serif" font-size="10.00">+ makeActionData()</text>
<text text-anchor="start" x="379" y="-145.5" font-family="Helvetica,sans-Serif" font-size="10.00">&#45; mapEntries()</text>
</a>
</g>
</g>
<!-- Node2&#45;&gt;Node1 -->
<g id="edge1" class="edge"><title>Node2&#45;&gt;Node1</title>
<path fill="none" stroke="#404040" d="M492.829,-138.473C500.62,-128.356 509.034,-118.119 517.5,-109 520.551,-105.713 523.763,-102.422 527.068,-99.1646"/>
<polygon fill="none" stroke="#404040" points="527.307,-98.9355 528.882,-91.8983 535.983,-90.6452 534.409,-97.6824 527.307,-98.9355"/>
<text text-anchor="middle" x="565" y="-112" font-family="Helvetica,sans-Serif" font-size="10.00"> &#45;actionDataFactory</text>
</g>
<!-- Node3 -->
<g id="node3" class="node"><title>Node3</title>
<g id="a_node3"><a xlink:href="a00068.html" target="_top" xlink:title="interface which describes a prototype for creating MakeData objects. ">
<polygon fill="white" stroke="black" points="0,-337 0,-405 151,-405 151,-337 0,-337"/>
<text text-anchor="start" x="8" y="-393" font-family="Helvetica,sans-Serif" font-size="10.00">beseenium.controller.Action</text>
<text text-anchor="middle" x="75.5" y="-382" font-family="Helvetica,sans-Serif" font-size="10.00">DataFactory.MakeData</text>
<polyline fill="none" stroke="black" points="0,-375 151,-375 "/>
<text text-anchor="middle" x="75.5" y="-363" font-family="Helvetica,sans-Serif" font-size="10.00"> </text>
<polyline fill="none" stroke="black" points="0,-356 151,-356 "/>
<text text-anchor="start" x="8" y="-344" font-family="Helvetica,sans-Serif" font-size="10.00">+ makeActionData()</text>
</a>
</g>
</g>
<!-- Node3&#45;&gt;Node2 -->
<g id="edge2" class="edge"><title>Node3&#45;&gt;Node2</title>
<path fill="none" stroke="midnightblue" d="M116.457,-330.063C129.745,-318.597 145.06,-306.823 160.5,-298 227.028,-259.986 310.021,-232.644 370.847,-215.81"/>
<polygon fill="none" stroke="midnightblue" points="114.06,-327.511 108.883,-336.755 118.694,-332.757 114.06,-327.511"/>
</g>
<!-- Node4 -->
<g id="node4" class="node"><title>Node4</title>
<polygon fill="white" stroke="#bfbfbf" points="169,-337 169,-405 356,-405 356,-337 169,-337"/>
<text text-anchor="start" x="177" y="-393" font-family="Helvetica,sans-Serif" font-size="10.00">Map&lt; String, beseenium.controller.</text>
<text text-anchor="middle" x="262.5" y="-382" font-family="Helvetica,sans-Serif" font-size="10.00">ActionDataFactory.MakeData &gt;</text>
<polyline fill="none" stroke="#bfbfbf" points="169,-375 356,-375 "/>
<text text-anchor="middle" x="262.5" y="-363" font-family="Helvetica,sans-Serif" font-size="10.00"> </text>
<polyline fill="none" stroke="#bfbfbf" points="169,-356 356,-356 "/>
<text text-anchor="middle" x="262.5" y="-344" font-family="Helvetica,sans-Serif" font-size="10.00"> </text>
</g>
<!-- Node4&#45;&gt;Node2 -->
<g id="edge3" class="edge"><title>Node4&#45;&gt;Node2</title>
<path fill="none" stroke="#404040" d="M296.839,-336.863C317.652,-316.961 344.86,-291.263 369.5,-269 373.245,-265.616 377.102,-262.165 381.009,-258.695"/>
<polygon fill="none" stroke="#404040" points="381.195,-258.532 383.044,-251.562 390.189,-250.588 388.34,-257.558 381.195,-258.532"/>
<text text-anchor="middle" x="410" y="-272" font-family="Helvetica,sans-Serif" font-size="10.00"> &#45;ActionDataMap</text>
</g>
<!-- Node5 -->
<g id="node5" class="node"><title>Node5</title>
<g id="a_node5"><a xlink:href="a00011.html" target="_top" xlink:title="This class encapsulates the data needed to perform an action into 4 distinct areas: &#160;&#160;&#160;...">
<polygon fill="white" stroke="black" points="374,-298.5 374,-443.5 535,-443.5 535,-298.5 374,-298.5"/>
<text text-anchor="start" x="382" y="-431.5" font-family="Helvetica,sans-Serif" font-size="10.00">beseenium.model.actionData.</text>
<text text-anchor="middle" x="454.5" y="-420.5" font-family="Helvetica,sans-Serif" font-size="10.00">ActionData</text>
<polyline fill="none" stroke="black" points="374,-413.5 535,-413.5 "/>
<text text-anchor="start" x="382" y="-401.5" font-family="Helvetica,sans-Serif" font-size="10.00">&#45; inputParam</text>
<polyline fill="none" stroke="black" points="374,-394.5 535,-394.5 "/>
<text text-anchor="start" x="382" y="-382.5" font-family="Helvetica,sans-Serif" font-size="10.00">+ ActionData()</text>
<text text-anchor="start" x="382" y="-371.5" font-family="Helvetica,sans-Serif" font-size="10.00">+ ActionData()</text>
<text text-anchor="start" x="382" y="-360.5" font-family="Helvetica,sans-Serif" font-size="10.00">+ getInputParam()</text>
<text text-anchor="start" x="382" y="-349.5" font-family="Helvetica,sans-Serif" font-size="10.00">+ getElement()</text>
<text text-anchor="start" x="382" y="-338.5" font-family="Helvetica,sans-Serif" font-size="10.00">+ getDriver()</text>
<text text-anchor="start" x="382" y="-327.5" font-family="Helvetica,sans-Serif" font-size="10.00">+ setElement()</text>
<text text-anchor="start" x="382" y="-316.5" font-family="Helvetica,sans-Serif" font-size="10.00">+ setInputParam()</text>
<text text-anchor="start" x="382" y="-305.5" font-family="Helvetica,sans-Serif" font-size="10.00">+ setDriver()</text>
</a>
</g>
</g>
<!-- Node5&#45;&gt;Node2 -->
<g id="edge4" class="edge"><title>Node5&#45;&gt;Node2</title>
<path fill="none" stroke="#404040" d="M454.5,-298.269C454.5,-286.602 454.5,-274.553 454.5,-262.992"/>
<polygon fill="none" stroke="#404040" points="454.5,-262.681 450.5,-256.681 454.5,-250.681 458.5,-256.681 454.5,-262.681"/>
<text text-anchor="middle" x="500" y="-272" font-family="Helvetica,sans-Serif" font-size="10.00"> &#45;emptyActionData</text>
</g>
<!-- Node6 -->
<g id="node6" class="node"><title>Node6</title>
<polygon fill="white" stroke="#bfbfbf" points="342.5,-491.5 342.5,-548.5 458.5,-548.5 458.5,-491.5 342.5,-491.5"/>
<text text-anchor="middle" x="400.5" y="-536.5" font-family="Helvetica,sans-Serif" font-size="10.00">List&lt; WebElement &gt;</text>
<polyline fill="none" stroke="#bfbfbf" points="342.5,-529.5 458.5,-529.5 "/>
<text text-anchor="middle" x="400.5" y="-517.5" font-family="Helvetica,sans-Serif" font-size="10.00"> </text>
<polyline fill="none" stroke="#bfbfbf" points="342.5,-510.5 458.5,-510.5 "/>
<text text-anchor="middle" x="400.5" y="-498.5" font-family="Helvetica,sans-Serif" font-size="10.00"> </text>
</g>
<!-- Node6&#45;&gt;Node5 -->
<g id="edge5" class="edge"><title>Node6&#45;&gt;Node5</title>
<path fill="none" stroke="#404040" d="M410.657,-491.35C414.532,-480.801 419.178,-468.153 423.975,-455.095"/>
<polygon fill="none" stroke="#404040" points="424.076,-454.82 422.391,-447.808 428.214,-443.555 429.9,-450.567 424.076,-454.82"/>
<text text-anchor="middle" x="445" y="-465" font-family="Helvetica,sans-Serif" font-size="10.00"> &#45;element</text>
</g>
<!-- Node7 -->
<g id="node7" class="node"><title>Node7</title>
<polygon fill="white" stroke="#bfbfbf" points="477,-491.5 477,-548.5 542,-548.5 542,-491.5 477,-491.5"/>
<text text-anchor="middle" x="509.5" y="-536.5" font-family="Helvetica,sans-Serif" font-size="10.00">WebDriver</text>
<polyline fill="none" stroke="#bfbfbf" points="477,-529.5 542,-529.5 "/>
<text text-anchor="middle" x="509.5" y="-517.5" font-family="Helvetica,sans-Serif" font-size="10.00"> </text>
<polyline fill="none" stroke="#bfbfbf" points="477,-510.5 542,-510.5 "/>
<text text-anchor="middle" x="509.5" y="-498.5" font-family="Helvetica,sans-Serif" font-size="10.00"> </text>
</g>
<!-- Node7&#45;&gt;Node5 -->
<g id="edge6" class="edge"><title>Node7&#45;&gt;Node5</title>
<path fill="none" stroke="#404040" d="M499.155,-491.35C495.208,-480.801 490.476,-468.153 485.59,-455.095"/>
<polygon fill="none" stroke="#404040" points="485.478,-454.795 479.629,-450.577 481.272,-443.555 487.121,-447.773 485.478,-454.795"/>
<text text-anchor="middle" x="509.5" y="-465" font-family="Helvetica,sans-Serif" font-size="10.00"> &#45;driver</text>
</g>
<!-- Node8 -->
<g id="node8" class="node"><title>Node8</title>
<polygon fill="white" stroke="#bfbfbf" points="553,-342.5 553,-399.5 588,-399.5 588,-342.5 553,-342.5"/>
<text text-anchor="middle" x="570.5" y="-387.5" font-family="Helvetica,sans-Serif" font-size="10.00">URL</text>
<polyline fill="none" stroke="#bfbfbf" points="553,-380.5 588,-380.5 "/>
<text text-anchor="middle" x="570.5" y="-368.5" font-family="Helvetica,sans-Serif" font-size="10.00"> </text>
<polyline fill="none" stroke="#bfbfbf" points="553,-361.5 588,-361.5 "/>
<text text-anchor="middle" x="570.5" y="-349.5" font-family="Helvetica,sans-Serif" font-size="10.00"> </text>
</g>
<!-- Node8&#45;&gt;Node2 -->
<g id="edge7" class="edge"><title>Node8&#45;&gt;Node2</title>
<path fill="none" stroke="#404040" d="M569.524,-342.372C567.632,-320.918 562.436,-291.187 548.5,-269 546.525,-265.856 544.366,-262.792 542.059,-259.812"/>
<polygon fill="none" stroke="#404040" points="541.993,-259.735 535.06,-257.75 534.226,-250.587 541.159,-252.572 541.993,-259.735"/>
<text text-anchor="middle" x="567.5" y="-272" font-family="Helvetica,sans-Serif" font-size="10.00"> &#45;URL</text>
</g>
<!-- Node9 -->
<g id="node9" class="node"><title>Node9</title>
<polygon fill="white" stroke="#bfbfbf" points="606.5,-342.5 606.5,-399.5 714.5,-399.5 714.5,-342.5 606.5,-342.5"/>
<text text-anchor="middle" x="660.5" y="-387.5" font-family="Helvetica,sans-Serif" font-size="10.00">DesiredCapabilities</text>
<polyline fill="none" stroke="#bfbfbf" points="606.5,-380.5 714.5,-380.5 "/>
<text text-anchor="middle" x="660.5" y="-368.5" font-family="Helvetica,sans-Serif" font-size="10.00"> </text>
<polyline fill="none" stroke="#bfbfbf" points="606.5,-361.5 714.5,-361.5 "/>
<text text-anchor="middle" x="660.5" y="-349.5" font-family="Helvetica,sans-Serif" font-size="10.00"> </text>
</g>
<!-- Node9&#45;&gt;Node2 -->
<g id="edge8" class="edge"><title>Node9&#45;&gt;Node2</title>
<path fill="none" stroke="#404040" d="M644.716,-342.268C631.049,-320.184 609.564,-289.654 584.5,-269 572.703,-259.278 566.016,-259.307 549.316,-251.522"/>
<polygon fill="none" stroke="#404040" points="548.919,-251.321 541.759,-252.181 538.211,-245.903 545.371,-245.043 548.919,-251.321"/>
<text text-anchor="middle" x="626" y="-272" font-family="Helvetica,sans-Serif" font-size="10.00"> &#45;capabilities</text>
</g>
<!-- Node10 -->
<g id="node10" class="node"><title>Node10</title>
<polygon fill="white" stroke="#bfbfbf" points="556,-160.5 556,-228.5 743,-228.5 743,-160.5 556,-160.5"/>
<text text-anchor="start" x="564" y="-216.5" font-family="Helvetica,sans-Serif" font-size="10.00">Map&lt; String, beseenium.controller.</text>
<text text-anchor="middle" x="649.5" y="-205.5" font-family="Helvetica,sans-Serif" font-size="10.00">ActionFactory.MakeAction &gt;</text>
<polyline fill="none" stroke="#bfbfbf" points="556,-198.5 743,-198.5 "/>
<text text-anchor="middle" x="649.5" y="-186.5" font-family="Helvetica,sans-Serif" font-size="10.00"> </text>
<polyline fill="none" stroke="#bfbfbf" points="556,-179.5 743,-179.5 "/>
<text text-anchor="middle" x="649.5" y="-167.5" font-family="Helvetica,sans-Serif" font-size="10.00"> </text>
</g>
<!-- Node10&#45;&gt;Node1 -->
<g id="edge9" class="edge"><title>Node10&#45;&gt;Node1</title>
<path fill="none" stroke="#404040" d="M635.885,-160.143C628.862,-142.936 620.11,-121.495 612.107,-101.887"/>
<polygon fill="none" stroke="#404040" points="612.035,-101.71 606.064,-97.6669 607.5,-90.6002 613.471,-94.6437 612.035,-101.71"/>
<text text-anchor="middle" x="648" y="-112" font-family="Helvetica,sans-Serif" font-size="10.00"> &#45;actionMap</text>
</g>
</g>
</svg>
