<?xml version="1.0" encoding="UTF-8" standalone="no"?>
<!DOCTYPE svg PUBLIC "-//W3C//DTD SVG 1.1//EN"
 "http://www.w3.org/Graphics/SVG/1.1/DTD/svg11.dtd">
<!-- Generated by graphviz version 2.38.0 (20140413.2041)
 -->
<!-- Title: beseenium.controller.ActionDataFactory.ActionDataFactory Pages: 1 -->
<svg width="722pt" height="419pt"
 viewBox="0.00 0.00 722.50 419.00" xmlns="http://www.w3.org/2000/svg" xmlns:xlink="http://www.w3.org/1999/xlink">
<g id="graph0" class="graph" transform="scale(1 1) rotate(0) translate(4 415)">
<title>beseenium.controller.ActionDataFactory.ActionDataFactory</title>
<polygon fill="white" stroke="none" points="-4,4 -4,-415 718.5,-415 718.5,4 -4,4"/>
<!-- Node1 -->
<g id="node1" class="node"><title>Node1</title>
<polygon fill="#bfbfbf" stroke="black" points="371,-0.5 371,-112.5 538,-112.5 538,-0.5 371,-0.5"/>
<text text-anchor="start" x="379" y="-100.5" font-family="Helvetica,sans-Serif" font-size="10.00">beseenium.controller.Action</text>
<text text-anchor="middle" x="454.5" y="-89.5" font-family="Helvetica,sans-Serif" font-size="10.00">DataFactory.ActionDataFactory</text>
<polyline fill="none" stroke="black" points="371,-82.5 538,-82.5 "/>
<text text-anchor="middle" x="454.5" y="-70.5" font-family="Helvetica,sans-Serif" font-size="10.00"> </text>
<polyline fill="none" stroke="black" points="371,-63.5 538,-63.5 "/>
<text text-anchor="start" x="379" y="-51.5" font-family="Helvetica,sans-Serif" font-size="10.00">+ ActionDataFactory()</text>
<text text-anchor="start" x="379" y="-40.5" font-family="Helvetica,sans-Serif" font-size="10.00">+ setCapabilities()</text>
<text text-anchor="start" x="379" y="-29.5" font-family="Helvetica,sans-Serif" font-size="10.00">+ makeActionData()</text>
<text text-anchor="start" x="379" y="-18.5" font-family="Helvetica,sans-Serif" font-size="10.00">+ makeActionData()</text>
<text text-anchor="start" x="379" y="-7.5" font-family="Helvetica,sans-Serif" font-size="10.00">&#45; mapEntries()</text>
</g>
<!-- Node2 -->
<g id="node2" class="node"><title>Node2</title>
<g id="a_node2"><a xlink:href="a00068.html" target="_top" xlink:title="interface which describes a prototype for creating MakeData objects. ">
<polygon fill="white" stroke="black" points="0,-199 0,-267 151,-267 151,-199 0,-199"/>
<text text-anchor="start" x="8" y="-255" font-family="Helvetica,sans-Serif" font-size="10.00">beseenium.controller.Action</text>
<text text-anchor="middle" x="75.5" y="-244" font-family="Helvetica,sans-Serif" font-size="10.00">DataFactory.MakeData</text>
<polyline fill="none" stroke="black" points="0,-237 151,-237 "/>
<text text-anchor="middle" x="75.5" y="-225" font-family="Helvetica,sans-Serif" font-size="10.00"> </text>
<polyline fill="none" stroke="black" points="0,-218 151,-218 "/>
<text text-anchor="start" x="8" y="-206" font-family="Helvetica,sans-Serif" font-size="10.00">+ makeActionData()</text>
</a>
</g>
</g>
<!-- Node2&#45;&gt;Node1 -->
<g id="edge1" class="edge"><title>Node2&#45;&gt;Node1</title>
<path fill="none" stroke="midnightblue" d="M116.457,-192.063C129.745,-180.597 145.06,-168.823 160.5,-160 227.028,-121.986 310.021,-94.6435 370.847,-77.8095"/>
<polygon fill="none" stroke="midnightblue" points="114.06,-189.511 108.883,-198.755 118.694,-194.757 114.06,-189.511"/>
</g>
<!-- Node3 -->
<g id="node3" class="node"><title>Node3</title>
<polygon fill="white" stroke="#bfbfbf" points="169,-199 169,-267 356,-267 356,-199 169,-199"/>
<text text-anchor="start" x="177" y="-255" font-family="Helvetica,sans-Serif" font-size="10.00">Map&lt; String, beseenium.controller.</text>
<text text-anchor="middle" x="262.5" y="-244" font-family="Helvetica,sans-Serif" font-size="10.00">ActionDataFactory.MakeData &gt;</text>
<polyline fill="none" stroke="#bfbfbf" points="169,-237 356,-237 "/>
<text text-anchor="middle" x="262.5" y="-225" font-family="Helvetica,sans-Serif" font-size="10.00"> </text>
<polyline fill="none" stroke="#bfbfbf" points="169,-218 356,-218 "/>
<text text-anchor="middle" x="262.5" y="-206" font-family="Helvetica,sans-Serif" font-size="10.00"> </text>
</g>
<!-- Node3&#45;&gt;Node1 -->
<g id="edge2" class="edge"><title>Node3&#45;&gt;Node1</title>
<path fill="none" stroke="#404040" d="M296.839,-198.863C317.652,-178.961 344.86,-153.263 369.5,-131 373.245,-127.616 377.102,-124.165 381.009,-120.695"/>
<polygon fill="none" stroke="#404040" points="381.195,-120.532 383.044,-113.562 390.189,-112.588 388.34,-119.558 381.195,-120.532"/>
<text text-anchor="middle" x="410" y="-134" font-family="Helvetica,sans-Serif" font-size="10.00"> &#45;ActionDataMap</text>
</g>
<!-- Node4 -->
<g id="node4" class="node"><title>Node4</title>
<g id="a_node4"><a xlink:href="a00011.html" target="_top" xlink:title="This class encapsulates the data needed to perform an action into 4 distinct areas: &#160;&#160;&#160;...">
<polygon fill="white" stroke="black" points="374,-160.5 374,-305.5 535,-305.5 535,-160.5 374,-160.5"/>
<text text-anchor="start" x="382" y="-293.5" font-family="Helvetica,sans-Serif" font-size="10.00">beseenium.model.actionData.</text>
<text text-anchor="middle" x="454.5" y="-282.5" font-family="Helvetica,sans-Serif" font-size="10.00">ActionData</text>
<polyline fill="none" stroke="black" points="374,-275.5 535,-275.5 "/>
<text text-anchor="start" x="382" y="-263.5" font-family="Helvetica,sans-Serif" font-size="10.00">&#45; inputParam</text>
<polyline fill="none" stroke="black" points="374,-256.5 535,-256.5 "/>
<text text-anchor="start" x="382" y="-244.5" font-family="Helvetica,sans-Serif" font-size="10.00">+ ActionData()</text>
<text text-anchor="start" x="382" y="-233.5" font-family="Helvetica,sans-Serif" font-size="10.00">+ ActionData()</text>
<text text-anchor="start" x="382" y="-222.5" font-family="Helvetica,sans-Serif" font-size="10.00">+ getInputParam()</text>
<text text-anchor="start" x="382" y="-211.5" font-family="Helvetica,sans-Serif" font-size="10.00">+ getElement()</text>
<text text-anchor="start" x="382" y="-200.5" font-family="Helvetica,sans-Serif" font-size="10.00">+ getDriver()</text>
<text text-anchor="start" x="382" y="-189.5" font-family="Helvetica,sans-Serif" font-size="10.00">+ setElement()</text>
<text text-anchor="start" x="382" y="-178.5" font-family="Helvetica,sans-Serif" font-size="10.00">+ setInputParam()</text>
<text text-anchor="start" x="382" y="-167.5" font-family="Helvetica,sans-Serif" font-size="10.00">+ setDriver()</text>
</a>
</g>
</g>
<!-- Node4&#45;&gt;Node1 -->
<g id="edge3" class="edge"><title>Node4&#45;&gt;Node1</title>
<path fill="none" stroke="#404040" d="M454.5,-160.269C454.5,-148.602 454.5,-136.553 454.5,-124.992"/>
<polygon fill="none" stroke="#404040" points="454.5,-124.681 450.5,-118.681 454.5,-112.681 458.5,-118.681 454.5,-124.681"/>
<text text-anchor="middle" x="500" y="-134" font-family="Helvetica,sans-Serif" font-size="10.00"> &#45;emptyActionData</text>
</g>
<!-- Node5 -->
<g id="node5" class="node"><title>Node5</title>
<polygon fill="white" stroke="#bfbfbf" points="342.5,-353.5 342.5,-410.5 458.5,-410.5 458.5,-353.5 342.5,-353.5"/>
<text text-anchor="middle" x="400.5" y="-398.5" font-family="Helvetica,sans-Serif" font-size="10.00">List&lt; WebElement &gt;</text>
<polyline fill="none" stroke="#bfbfbf" points="342.5,-391.5 458.5,-391.5 "/>
<text text-anchor="middle" x="400.5" y="-379.5" font-family="Helvetica,sans-Serif" font-size="10.00"> </text>
<polyline fill="none" stroke="#bfbfbf" points="342.5,-372.5 458.5,-372.5 "/>
<text text-anchor="middle" x="400.5" y="-360.5" font-family="Helvetica,sans-Serif" font-size="10.00"> </text>
</g>
<!-- Node5&#45;&gt;Node4 -->
<g id="edge4" class="edge"><title>Node5&#45;&gt;Node4</title>
<path fill="none" stroke="#404040" d="M410.657,-353.35C414.532,-342.801 419.178,-330.153 423.975,-317.095"/>
<polygon fill="none" stroke="#404040" points="424.076,-316.82 422.391,-309.808 428.214,-305.555 429.9,-312.567 424.076,-316.82"/>
<text text-anchor="middle" x="445" y="-327" font-family="Helvetica,sans-Serif" font-size="10.00"> &#45;element</text>
</g>
<!-- Node6 -->
<g id="node6" class="node"><title>Node6</title>
<polygon fill="white" stroke="#bfbfbf" points="477,-353.5 477,-410.5 542,-410.5 542,-353.5 477,-353.5"/>
<text text-anchor="middle" x="509.5" y="-398.5" font-family="Helvetica,sans-Serif" font-size="10.00">WebDriver</text>
<polyline fill="none" stroke="#bfbfbf" points="477,-391.5 542,-391.5 "/>
<text text-anchor="middle" x="509.5" y="-379.5" font-family="Helvetica,sans-Serif" font-size="10.00"> </text>
<polyline fill="none" stroke="#bfbfbf" points="477,-372.5 542,-372.5 "/>
<text text-anchor="middle" x="509.5" y="-360.5" font-family="Helvetica,sans-Serif" font-size="10.00"> </text>
</g>
<!-- Node6&#45;&gt;Node4 -->
<g id="edge5" class="edge"><title>Node6&#45;&gt;Node4</title>
<path fill="none" stroke="#404040" d="M499.155,-353.35C495.208,-342.801 490.476,-330.153 485.59,-317.095"/>
<polygon fill="none" stroke="#404040" points="485.478,-316.795 479.629,-312.577 481.272,-305.555 487.121,-309.773 485.478,-316.795"/>
<text text-anchor="middle" x="509.5" y="-327" font-family="Helvetica,sans-Serif" font-size="10.00"> &#45;driver</text>
</g>
<!-- Node7 -->
<g id="node7" class="node"><title>Node7</title>
<polygon fill="white" stroke="#bfbfbf" points="553,-204.5 553,-261.5 588,-261.5 588,-204.5 553,-204.5"/>
<text text-anchor="middle" x="570.5" y="-249.5" font-family="Helvetica,sans-Serif" font-size="10.00">URL</text>
<polyline fill="none" stroke="#bfbfbf" points="553,-242.5 588,-242.5 "/>
<text text-anchor="middle" x="570.5" y="-230.5" font-family="Helvetica,sans-Serif" font-size="10.00"> </text>
<polyline fill="none" stroke="#bfbfbf" points="553,-223.5 588,-223.5 "/>
<text text-anchor="middle" x="570.5" y="-211.5" font-family="Helvetica,sans-Serif" font-size="10.00"> </text>
</g>
<!-- Node7&#45;&gt;Node1 -->
<g id="edge6" class="edge"><title>Node7&#45;&gt;Node1</title>
<path fill="none" stroke="#404040" d="M569.524,-204.372C567.632,-182.918 562.436,-153.187 548.5,-131 546.525,-127.856 544.366,-124.792 542.059,-121.812"/>
<polygon fill="none" stroke="#404040" points="541.993,-121.735 535.06,-119.75 534.226,-112.587 541.159,-114.572 541.993,-121.735"/>
<text text-anchor="middle" x="567.5" y="-134" font-family="Helvetica,sans-Serif" font-size="10.00"> &#45;URL</text>
</g>
<!-- Node8 -->
<g id="node8" class="node"><title>Node8</title>
<polygon fill="white" stroke="#bfbfbf" points="606.5,-204.5 606.5,-261.5 714.5,-261.5 714.5,-204.5 606.5,-204.5"/>
<text text-anchor="middle" x="660.5" y="-249.5" font-family="Helvetica,sans-Serif" font-size="10.00">DesiredCapabilities</text>
<polyline fill="none" stroke="#bfbfbf" points="606.5,-242.5 714.5,-242.5 "/>
<text text-anchor="middle" x="660.5" y="-230.5" font-family="Helvetica,sans-Serif" font-size="10.00"> </text>
<polyline fill="none" stroke="#bfbfbf" points="606.5,-223.5 714.5,-223.5 "/>
<text text-anchor="middle" x="660.5" y="-211.5" font-family="Helvetica,sans-Serif" font-size="10.00"> </text>
</g>
<!-- Node8&#45;&gt;Node1 -->
<g id="edge7" class="edge"><title>Node8&#45;&gt;Node1</title>
<path fill="none" stroke="#404040" d="M644.087,-204.232C630.209,-182.419 608.749,-152.274 584.5,-131 573.504,-121.353 561.041,-112.389 548.292,-104.274"/>
<polygon fill="none" stroke="#404040" points="548.245,-104.245 541.039,-104.504 538.028,-97.9519 545.234,-97.6929 548.245,-104.245"/>
<text text-anchor="middle" x="625" y="-134" font-family="Helvetica,sans-Serif" font-size="10.00"> &#45;capabilities</text>
</g>
</g>
</svg>
