<?xml version="1.0" encoding="UTF-8" standalone="no"?>
<!DOCTYPE svg PUBLIC "-//W3C//DTD SVG 1.1//EN"
 "http://www.w3.org/Graphics/SVG/1.1/DTD/svg11.dtd">
<!-- Generated by graphviz version 2.38.0 (20140413.2041)
 -->
<!-- Title: beseenium.controller.ActionFactory.MakeAction Pages: 1 -->
<svg width="722pt" height="546pt"
 viewBox="0.00 0.00 722.50 546.00" xmlns="http://www.w3.org/2000/svg" xmlns:xlink="http://www.w3.org/1999/xlink">
<g id="graph0" class="graph" transform="scale(1 1) rotate(0) translate(4 542)">
<title>beseenium.controller.ActionFactory.MakeAction</title>
<polygon fill="white" stroke="none" points="-4,4 -4,-542 718.5,-542 718.5,4 -4,4"/>
<!-- Node1 -->
<g id="node1" class="node"><title>Node1</title>
<polygon fill="#bfbfbf" stroke="black" points="379,-0.5 379,-79.5 530,-79.5 530,-0.5 379,-0.5"/>
<text text-anchor="start" x="387" y="-67.5" font-family="Helvetica,sans-Serif" font-size="10.00">beseenium.controller.Action</text>
<text text-anchor="middle" x="454.5" y="-56.5" font-family="Helvetica,sans-Serif" font-size="10.00">Factory.MakeAction</text>
<polyline fill="none" stroke="black" points="379,-49.5 530,-49.5 "/>
<text text-anchor="middle" x="454.5" y="-37.5" font-family="Helvetica,sans-Serif" font-size="10.00"> </text>
<polyline fill="none" stroke="black" points="379,-30.5 530,-30.5 "/>
<text text-anchor="start" x="387" y="-18.5" font-family="Helvetica,sans-Serif" font-size="10.00">+ makeAction()</text>
<text text-anchor="start" x="387" y="-7.5" font-family="Helvetica,sans-Serif" font-size="10.00"># MakeAction()</text>
</g>
<!-- Node2 -->
<g id="node2" class="node"><title>Node2</title>
<g id="a_node2"><a xlink:href="a00014.html" target="_top" xlink:title="This Class conforms to a &#39;factory&#39; pattern, it allows the creation of different ActionData instances...">
<polygon fill="white" stroke="black" points="371,-127.5 371,-239.5 538,-239.5 538,-127.5 371,-127.5"/>
<text text-anchor="start" x="379" y="-227.5" font-family="Helvetica,sans-Serif" font-size="10.00">beseenium.controller.Action</text>
<text text-anchor="middle" x="454.5" y="-216.5" font-family="Helvetica,sans-Serif" font-size="10.00">DataFactory.ActionDataFactory</text>
<polyline fill="none" stroke="black" points="371,-209.5 538,-209.5 "/>
<text text-anchor="middle" x="454.5" y="-197.5" font-family="Helvetica,sans-Serif" font-size="10.00"> </text>
<polyline fill="none" stroke="black" points="371,-190.5 538,-190.5 "/>
<text text-anchor="start" x="379" y="-178.5" font-family="Helvetica,sans-Serif" font-size="10.00">+ ActionDataFactory()</text>
<text text-anchor="start" x="379" y="-167.5" font-family="Helvetica,sans-Serif" font-size="10.00">+ setCapabilities()</text>
<text text-anchor="start" x="379" y="-156.5" font-family="Helvetica,sans-Serif" font-size="10.00">+ makeActionData()</text>
<text text-anchor="start" x="379" y="-145.5" font-family="Helvetica,sans-Serif" font-size="10.00">+ makeActionData()</text>
<text text-anchor="start" x="379" y="-134.5" font-family="Helvetica,sans-Serif" font-size="10.00">&#45; mapEntries()</text>
</a>
</g>
</g>
<!-- Node2&#45;&gt;Node1 -->
<g id="edge1" class="edge"><title>Node2&#45;&gt;Node1</title>
<path fill="none" stroke="#404040" d="M454.5,-127.387C454.5,-115.648 454.5,-103.304 454.5,-91.7376"/>
<polygon fill="none" stroke="#404040" points="454.5,-91.5574 450.5,-85.5574 454.5,-79.5574 458.5,-85.5574 454.5,-91.5574"/>
<text text-anchor="middle" x="484" y="-101" font-family="Helvetica,sans-Serif" font-size="10.00"> #adFactory</text>
</g>
<!-- Node3 -->
<g id="node3" class="node"><title>Node3</title>
<g id="a_node3"><a xlink:href="a00069.html" target="_top" xlink:title="interface which describes a prototype for creating MakeData objects. ">
<polygon fill="white" stroke="black" points="0,-326 0,-394 151,-394 151,-326 0,-326"/>
<text text-anchor="start" x="8" y="-382" font-family="Helvetica,sans-Serif" font-size="10.00">beseenium.controller.Action</text>
<text text-anchor="middle" x="75.5" y="-371" font-family="Helvetica,sans-Serif" font-size="10.00">DataFactory.MakeData</text>
<polyline fill="none" stroke="black" points="0,-364 151,-364 "/>
<text text-anchor="middle" x="75.5" y="-352" font-family="Helvetica,sans-Serif" font-size="10.00"> </text>
<polyline fill="none" stroke="black" points="0,-345 151,-345 "/>
<text text-anchor="start" x="8" y="-333" font-family="Helvetica,sans-Serif" font-size="10.00">+ makeActionData()</text>
</a>
</g>
</g>
<!-- Node3&#45;&gt;Node2 -->
<g id="edge2" class="edge"><title>Node3&#45;&gt;Node2</title>
<path fill="none" stroke="midnightblue" d="M116.457,-319.063C129.745,-307.597 145.06,-295.823 160.5,-287 227.028,-248.986 310.021,-221.644 370.847,-204.81"/>
<polygon fill="none" stroke="midnightblue" points="114.06,-316.511 108.883,-325.755 118.694,-321.757 114.06,-316.511"/>
</g>
<!-- Node4 -->
<g id="node4" class="node"><title>Node4</title>
<polygon fill="white" stroke="#bfbfbf" points="169,-326 169,-394 356,-394 356,-326 169,-326"/>
<text text-anchor="start" x="177" y="-382" font-family="Helvetica,sans-Serif" font-size="10.00">Map&lt; String, beseenium.controller.</text>
<text text-anchor="middle" x="262.5" y="-371" font-family="Helvetica,sans-Serif" font-size="10.00">ActionDataFactory.MakeData &gt;</text>
<polyline fill="none" stroke="#bfbfbf" points="169,-364 356,-364 "/>
<text text-anchor="middle" x="262.5" y="-352" font-family="Helvetica,sans-Serif" font-size="10.00"> </text>
<polyline fill="none" stroke="#bfbfbf" points="169,-345 356,-345 "/>
<text text-anchor="middle" x="262.5" y="-333" font-family="Helvetica,sans-Serif" font-size="10.00"> </text>
</g>
<!-- Node4&#45;&gt;Node2 -->
<g id="edge3" class="edge"><title>Node4&#45;&gt;Node2</title>
<path fill="none" stroke="#404040" d="M296.839,-325.863C317.652,-305.961 344.86,-280.263 369.5,-258 373.245,-254.616 377.102,-251.165 381.009,-247.695"/>
<polygon fill="none" stroke="#404040" points="381.195,-247.532 383.044,-240.562 390.189,-239.588 388.34,-246.558 381.195,-247.532"/>
<text text-anchor="middle" x="410" y="-261" font-family="Helvetica,sans-Serif" font-size="10.00"> &#45;ActionDataMap</text>
</g>
<!-- Node5 -->
<g id="node5" class="node"><title>Node5</title>
<g id="a_node5"><a xlink:href="a00011.html" target="_top" xlink:title="This class encapsulates the data needed to perform an action into 4 distinct areas: &#160;&#160;&#160;...">
<polygon fill="white" stroke="black" points="374,-287.5 374,-432.5 535,-432.5 535,-287.5 374,-287.5"/>
<text text-anchor="start" x="382" y="-420.5" font-family="Helvetica,sans-Serif" font-size="10.00">beseenium.model.actionData.</text>
<text text-anchor="middle" x="454.5" y="-409.5" font-family="Helvetica,sans-Serif" font-size="10.00">ActionData</text>
<polyline fill="none" stroke="black" points="374,-402.5 535,-402.5 "/>
<text text-anchor="start" x="382" y="-390.5" font-family="Helvetica,sans-Serif" font-size="10.00">&#45; inputParam</text>
<polyline fill="none" stroke="black" points="374,-383.5 535,-383.5 "/>
<text text-anchor="start" x="382" y="-371.5" font-family="Helvetica,sans-Serif" font-size="10.00">+ ActionData()</text>
<text text-anchor="start" x="382" y="-360.5" font-family="Helvetica,sans-Serif" font-size="10.00">+ ActionData()</text>
<text text-anchor="start" x="382" y="-349.5" font-family="Helvetica,sans-Serif" font-size="10.00">+ getInputParam()</text>
<text text-anchor="start" x="382" y="-338.5" font-family="Helvetica,sans-Serif" font-size="10.00">+ getElement()</text>
<text text-anchor="start" x="382" y="-327.5" font-family="Helvetica,sans-Serif" font-size="10.00">+ getDriver()</text>
<text text-anchor="start" x="382" y="-316.5" font-family="Helvetica,sans-Serif" font-size="10.00">+ setElement()</text>
<text text-anchor="start" x="382" y="-305.5" font-family="Helvetica,sans-Serif" font-size="10.00">+ setInputParam()</text>
<text text-anchor="start" x="382" y="-294.5" font-family="Helvetica,sans-Serif" font-size="10.00">+ setDriver()</text>
</a>
</g>
</g>
<!-- Node5&#45;&gt;Node2 -->
<g id="edge4" class="edge"><title>Node5&#45;&gt;Node2</title>
<path fill="none" stroke="#404040" d="M454.5,-287.269C454.5,-275.602 454.5,-263.553 454.5,-251.992"/>
<polygon fill="none" stroke="#404040" points="454.5,-251.681 450.5,-245.681 454.5,-239.681 458.5,-245.681 454.5,-251.681"/>
<text text-anchor="middle" x="500" y="-261" font-family="Helvetica,sans-Serif" font-size="10.00"> &#45;emptyActionData</text>
</g>
<!-- Node6 -->
<g id="node6" class="node"><title>Node6</title>
<polygon fill="white" stroke="#bfbfbf" points="342.5,-480.5 342.5,-537.5 458.5,-537.5 458.5,-480.5 342.5,-480.5"/>
<text text-anchor="middle" x="400.5" y="-525.5" font-family="Helvetica,sans-Serif" font-size="10.00">List&lt; WebElement &gt;</text>
<polyline fill="none" stroke="#bfbfbf" points="342.5,-518.5 458.5,-518.5 "/>
<text text-anchor="middle" x="400.5" y="-506.5" font-family="Helvetica,sans-Serif" font-size="10.00"> </text>
<polyline fill="none" stroke="#bfbfbf" points="342.5,-499.5 458.5,-499.5 "/>
<text text-anchor="middle" x="400.5" y="-487.5" font-family="Helvetica,sans-Serif" font-size="10.00"> </text>
</g>
<!-- Node6&#45;&gt;Node5 -->
<g id="edge5" class="edge"><title>Node6&#45;&gt;Node5</title>
<path fill="none" stroke="#404040" d="M410.657,-480.35C414.532,-469.801 419.178,-457.153 423.975,-444.095"/>
<polygon fill="none" stroke="#404040" points="424.076,-443.82 422.391,-436.808 428.214,-432.555 429.9,-439.567 424.076,-443.82"/>
<text text-anchor="middle" x="445" y="-454" font-family="Helvetica,sans-Serif" font-size="10.00"> &#45;element</text>
</g>
<!-- Node7 -->
<g id="node7" class="node"><title>Node7</title>
<polygon fill="white" stroke="#bfbfbf" points="477,-480.5 477,-537.5 542,-537.5 542,-480.5 477,-480.5"/>
<text text-anchor="middle" x="509.5" y="-525.5" font-family="Helvetica,sans-Serif" font-size="10.00">WebDriver</text>
<polyline fill="none" stroke="#bfbfbf" points="477,-518.5 542,-518.5 "/>
<text text-anchor="middle" x="509.5" y="-506.5" font-family="Helvetica,sans-Serif" font-size="10.00"> </text>
<polyline fill="none" stroke="#bfbfbf" points="477,-499.5 542,-499.5 "/>
<text text-anchor="middle" x="509.5" y="-487.5" font-family="Helvetica,sans-Serif" font-size="10.00"> </text>
</g>
<!-- Node7&#45;&gt;Node5 -->
<g id="edge6" class="edge"><title>Node7&#45;&gt;Node5</title>
<path fill="none" stroke="#404040" d="M499.155,-480.35C495.208,-469.801 490.476,-457.153 485.59,-444.095"/>
<polygon fill="none" stroke="#404040" points="485.478,-443.795 479.629,-439.577 481.272,-432.555 487.121,-436.773 485.478,-443.795"/>
<text text-anchor="middle" x="509.5" y="-454" font-family="Helvetica,sans-Serif" font-size="10.00"> &#45;driver</text>
</g>
<!-- Node8 -->
<g id="node8" class="node"><title>Node8</title>
<polygon fill="white" stroke="#bfbfbf" points="553,-331.5 553,-388.5 588,-388.5 588,-331.5 553,-331.5"/>
<text text-anchor="middle" x="570.5" y="-376.5" font-family="Helvetica,sans-Serif" font-size="10.00">URL</text>
<polyline fill="none" stroke="#bfbfbf" points="553,-369.5 588,-369.5 "/>
<text text-anchor="middle" x="570.5" y="-357.5" font-family="Helvetica,sans-Serif" font-size="10.00"> </text>
<polyline fill="none" stroke="#bfbfbf" points="553,-350.5 588,-350.5 "/>
<text text-anchor="middle" x="570.5" y="-338.5" font-family="Helvetica,sans-Serif" font-size="10.00"> </text>
</g>
<!-- Node8&#45;&gt;Node2 -->
<g id="edge7" class="edge"><title>Node8&#45;&gt;Node2</title>
<path fill="none" stroke="#404040" d="M569.524,-331.372C567.632,-309.918 562.436,-280.187 548.5,-258 546.525,-254.856 544.366,-251.792 542.059,-248.812"/>
<polygon fill="none" stroke="#404040" points="541.993,-248.735 535.06,-246.75 534.226,-239.587 541.159,-241.572 541.993,-248.735"/>
<text text-anchor="middle" x="567.5" y="-261" font-family="Helvetica,sans-Serif" font-size="10.00"> &#45;URL</text>
</g>
<!-- Node9 -->
<g id="node9" class="node"><title>Node9</title>
<polygon fill="white" stroke="#bfbfbf" points="606.5,-331.5 606.5,-388.5 714.5,-388.5 714.5,-331.5 606.5,-331.5"/>
<text text-anchor="middle" x="660.5" y="-376.5" font-family="Helvetica,sans-Serif" font-size="10.00">DesiredCapabilities</text>
<polyline fill="none" stroke="#bfbfbf" points="606.5,-369.5 714.5,-369.5 "/>
<text text-anchor="middle" x="660.5" y="-357.5" font-family="Helvetica,sans-Serif" font-size="10.00"> </text>
<polyline fill="none" stroke="#bfbfbf" points="606.5,-350.5 714.5,-350.5 "/>
<text text-anchor="middle" x="660.5" y="-338.5" font-family="Helvetica,sans-Serif" font-size="10.00"> </text>
</g>
<!-- Node9&#45;&gt;Node2 -->
<g id="edge8" class="edge"><title>Node9&#45;&gt;Node2</title>
<path fill="none" stroke="#404040" d="M644.087,-331.232C630.209,-309.419 608.749,-279.274 584.5,-258 573.504,-248.353 561.041,-239.389 548.292,-231.274"/>
<polygon fill="none" stroke="#404040" points="548.245,-231.245 541.039,-231.504 538.028,-224.952 545.234,-224.693 548.245,-231.245"/>
<text text-anchor="middle" x="625" y="-261" font-family="Helvetica,sans-Serif" font-size="10.00"> &#45;capabilities</text>
</g>
</g>
</svg>
