<?xml version="1.0" encoding="UTF-8" standalone="no"?>
<!DOCTYPE svg PUBLIC "-//W3C//DTD SVG 1.1//EN"
 "http://www.w3.org/Graphics/SVG/1.1/DTD/svg11.dtd">
<!-- Generated by graphviz version 2.38.0 (20140413.2041)
 -->
<!-- Title: beseenium.controller.ActionDataFactory.MakeData Pages: 1 -->
<svg width="566pt" height="259pt"
 viewBox="0.00 0.00 566.50 259.00" xmlns="http://www.w3.org/2000/svg" xmlns:xlink="http://www.w3.org/1999/xlink">
<g id="graph0" class="graph" transform="scale(1 1) rotate(0) translate(4 255)">
<title>beseenium.controller.ActionDataFactory.MakeData</title>
<polygon fill="white" stroke="none" points="-4,4 -4,-255 562.5,-255 562.5,4 -4,4"/>
<!-- Node1 -->
<g id="node1" class="node"><title>Node1</title>
<polygon fill="#bfbfbf" stroke="black" points="188,-182.5 188,-250.5 339,-250.5 339,-182.5 188,-182.5"/>
<text text-anchor="start" x="196" y="-238.5" font-family="Helvetica,sans-Serif" font-size="10.00">beseenium.controller.Action</text>
<text text-anchor="middle" x="263.5" y="-227.5" font-family="Helvetica,sans-Serif" font-size="10.00">DataFactory.MakeData</text>
<polyline fill="none" stroke="black" points="188,-220.5 339,-220.5 "/>
<text text-anchor="middle" x="263.5" y="-208.5" font-family="Helvetica,sans-Serif" font-size="10.00"> </text>
<polyline fill="none" stroke="black" points="188,-201.5 339,-201.5 "/>
<text text-anchor="start" x="196" y="-189.5" font-family="Helvetica,sans-Serif" font-size="10.00">+ makeActionData()</text>
</g>
<!-- Node2 -->
<g id="node2" class="node"><title>Node2</title>
<g id="a_node2"><a xlink:href="a00012.html" target="_top" xlink:title="This Class conforms to a &#39;factory&#39; pattern, it allows the creation of different ActionData instances...">
<polygon fill="white" stroke="black" points="0,-0.5 0,-145.5 167,-145.5 167,-0.5 0,-0.5"/>
<text text-anchor="start" x="8" y="-133.5" font-family="Helvetica,sans-Serif" font-size="10.00">beseenium.controller.Action</text>
<text text-anchor="middle" x="83.5" y="-122.5" font-family="Helvetica,sans-Serif" font-size="10.00">DataFactory.ActionDataFactory</text>
<polyline fill="none" stroke="black" points="0,-115.5 167,-115.5 "/>
<text text-anchor="start" x="8" y="-103.5" font-family="Helvetica,sans-Serif" font-size="10.00">&#45; ActionDataMap</text>
<text text-anchor="start" x="8" y="-92.5" font-family="Helvetica,sans-Serif" font-size="10.00">&#45; capabilities</text>
<text text-anchor="start" x="8" y="-81.5" font-family="Helvetica,sans-Serif" font-size="10.00">&#45; URL</text>
<text text-anchor="start" x="8" y="-70.5" font-family="Helvetica,sans-Serif" font-size="10.00">&#45; emptyActionData</text>
<polyline fill="none" stroke="black" points="0,-63.5 167,-63.5 "/>
<text text-anchor="start" x="8" y="-51.5" font-family="Helvetica,sans-Serif" font-size="10.00">+ ActionDataFactory()</text>
<text text-anchor="start" x="8" y="-40.5" font-family="Helvetica,sans-Serif" font-size="10.00">+ setCapabilities()</text>
<text text-anchor="start" x="8" y="-29.5" font-family="Helvetica,sans-Serif" font-size="10.00">+ makeActionData()</text>
<text text-anchor="start" x="8" y="-18.5" font-family="Helvetica,sans-Serif" font-size="10.00">+ makeActionData()</text>
<text text-anchor="start" x="8" y="-7.5" font-family="Helvetica,sans-Serif" font-size="10.00">&#45; mapEntries()</text>
</a>
</g>
</g>
<!-- Node1&#45;&gt;Node2 -->
<g id="edge1" class="edge"><title>Node1&#45;&gt;Node2</title>
<path fill="none" stroke="midnightblue" d="M213.099,-175.879C198.822,-164.656 182.886,-152.128 167.205,-139.802"/>
<polygon fill="none" stroke="midnightblue" points="211.273,-178.896 221.298,-182.325 215.599,-173.393 211.273,-178.896"/>
</g>
<!-- Node3 -->
<g id="node3" class="node"><title>Node3</title>
<g id="a_node3"><a xlink:href="a00075.html" target="_top" xlink:title="make an ActionData containing a firefox Driver ">
<polygon fill="white" stroke="black" points="184.5,-33.5 184.5,-112.5 342.5,-112.5 342.5,-33.5 184.5,-33.5"/>
<text text-anchor="start" x="192.5" y="-100.5" font-family="Helvetica,sans-Serif" font-size="10.00">beseenium.controller.Action</text>
<text text-anchor="middle" x="263.5" y="-89.5" font-family="Helvetica,sans-Serif" font-size="10.00">DataFactory.MakeFirefoxData</text>
<polyline fill="none" stroke="black" points="184.5,-82.5 342.5,-82.5 "/>
<text text-anchor="middle" x="263.5" y="-70.5" font-family="Helvetica,sans-Serif" font-size="10.00"> </text>
<polyline fill="none" stroke="black" points="184.5,-63.5 342.5,-63.5 "/>
<text text-anchor="start" x="192.5" y="-51.5" font-family="Helvetica,sans-Serif" font-size="10.00">+ MakeFirefoxData()</text>
<text text-anchor="start" x="192.5" y="-40.5" font-family="Helvetica,sans-Serif" font-size="10.00">+ makeActionData()</text>
</a>
</g>
</g>
<!-- Node1&#45;&gt;Node3 -->
<g id="edge2" class="edge"><title>Node1&#45;&gt;Node3</title>
<path fill="none" stroke="midnightblue" d="M263.5,-172.155C263.5,-153.198 263.5,-131.136 263.5,-112.735"/>
<polygon fill="none" stroke="midnightblue" points="260,-172.325 263.5,-182.325 267,-172.325 260,-172.325"/>
</g>
<!-- Node4 -->
<g id="node4" class="node"><title>Node4</title>
<g id="a_node4"><a xlink:href="a00085.html" target="_top" xlink:title="makes an ActionData containing a HtmlUnitDriver ">
<polygon fill="white" stroke="black" points="360.5,-33.5 360.5,-112.5 558.5,-112.5 558.5,-33.5 360.5,-33.5"/>
<text text-anchor="start" x="368.5" y="-100.5" font-family="Helvetica,sans-Serif" font-size="10.00">beseenium.controller.Action</text>
<text text-anchor="middle" x="459.5" y="-89.5" font-family="Helvetica,sans-Serif" font-size="10.00">DataFactory.MakeHtmlUnitDriverData</text>
<polyline fill="none" stroke="black" points="360.5,-82.5 558.5,-82.5 "/>
<text text-anchor="middle" x="459.5" y="-70.5" font-family="Helvetica,sans-Serif" font-size="10.00"> </text>
<polyline fill="none" stroke="black" points="360.5,-63.5 558.5,-63.5 "/>
<text text-anchor="start" x="368.5" y="-51.5" font-family="Helvetica,sans-Serif" font-size="10.00">+ MakeHtmlUnitDriverData()</text>
<text text-anchor="start" x="368.5" y="-40.5" font-family="Helvetica,sans-Serif" font-size="10.00">+ makeActionData()</text>
</a>
</g>
</g>
<!-- Node1&#45;&gt;Node4 -->
<g id="edge3" class="edge"><title>Node1&#45;&gt;Node4</title>
<path fill="none" stroke="midnightblue" d="M317.779,-176.314C345.243,-156.486 378.47,-132.499 405.846,-112.735"/>
<polygon fill="none" stroke="midnightblue" points="315.512,-173.633 309.453,-182.325 319.61,-179.309 315.512,-173.633"/>
</g>
</g>
</svg>
