<?xml version="1.0" encoding="UTF-8" standalone="no"?>
<!DOCTYPE svg PUBLIC "-//W3C//DTD SVG 1.1//EN"
 "http://www.w3.org/Graphics/SVG/1.1/DTD/svg11.dtd">
<!-- Generated by graphviz version 2.38.0 (20140413.2041)
 -->
<!-- Title: beseenium.controller.ActionFactory.elementActions.MakeGetAttribute Pages: 1 -->
<!--zoomable 663 -->
<svg id="main" version="1.1" xmlns="http://www.w3.org/2000/svg" xmlns:xlink="http://www.w3.org/1999/xlink" xml:space="preserve" onload="init(evt)">
<style type="text/css"><![CDATA[
.edge:hover path { stroke: red; }
.edge:hover polygon { stroke: red; fill: red; }
]]></style>
<script type="text/javascript"><![CDATA[
var edges = document.getElementsByTagName('g');
if (edges && edges.length) {
  for (var i=0;i<edges.length;i++) {
    if (edges[i].id.substr(0,4)=='edge') {
      edges[i].setAttribute('class','edge');
    }
  }
}
]]></script>
        <defs>
                <circle id="rim" cx="0" cy="0" r="7"/>
                <circle id="rim2" cx="0" cy="0" r="3.5"/>
                <g id="zoomPlus">
                        <use xlink:href="#rim" fill="#404040">
                                <set attributeName="fill" to="#808080" begin="zoomplus.mouseover" end="zoomplus.mouseout"/>
                        </use>
                        <path d="M-4,0h8M0,-4v8" fill="none" stroke="white" stroke-width="1.5" pointer-events="none"/>
                </g>
                <g id="zoomMin">
                        <use xlink:href="#rim" fill="#404040">
                                <set attributeName="fill" to="#808080" begin="zoomminus.mouseover" end="zoomminus.mouseout"/>
                        </use>
                        <path d="M-4,0h8" fill="none" stroke="white" stroke-width="1.5" pointer-events="none"/>
                </g>
                <g id="dirArrow">
                        <path fill="none" stroke="white" stroke-width="1.5" d="M0,-3.0v7 M-2.5,-0.5L0,-3.0L2.5,-0.5"/>
                </g>
               <g id="resetDef">
                       <use xlink:href="#rim2" fill="#404040">
                               <set attributeName="fill" to="#808080" begin="reset.mouseover" end="reset.mouseout"/>
                       </use>
               </g>
        </defs>

<script type="text/javascript">
var viewWidth = 722;
var viewHeight = 663;
var sectionId = 'dynsection-1';
</script>
<script xlink:href="svgpan.js"/>
<svg id="graph" class="graph">
<g id="viewport">
<title>beseenium.controller.ActionFactory.elementActions.MakeGetAttribute</title>
<polygon fill="white" stroke="none" points="-4,4 -4,-659 718.5,-659 718.5,4 -4,4"/>
<!-- Node1 -->
<g id="node1" class="node"><title>Node1</title>
<polygon fill="#bfbfbf" stroke="black" points="345.5,-0.5 345.5,-79.5 563.5,-79.5 563.5,-0.5 345.5,-0.5"/>
<text text-anchor="start" x="353.5" y="-67.5" font-family="Helvetica,sans-Serif" font-size="10.00">beseenium.controller.Action</text>
<text text-anchor="middle" x="454.5" y="-56.5" font-family="Helvetica,sans-Serif" font-size="10.00">Factory.elementActions.MakeGetAttribute</text>
<polyline fill="none" stroke="black" points="345.5,-49.5 563.5,-49.5 "/>
<text text-anchor="middle" x="454.5" y="-37.5" font-family="Helvetica,sans-Serif" font-size="10.00"> </text>
<polyline fill="none" stroke="black" points="345.5,-30.5 563.5,-30.5 "/>
<text text-anchor="start" x="353.5" y="-18.5" font-family="Helvetica,sans-Serif" font-size="10.00">+ MakeGetAttribute()</text>
<text text-anchor="start" x="353.5" y="-7.5" font-family="Helvetica,sans-Serif" font-size="10.00">+ makeAction()</text>
</g>
<!-- Node2 -->
<g id="node2" class="node"><title>Node2</title>
<g id="a_node2"><a xlink:href="a00073.html" target="_top" xlink:title="abstract base class for the creation of AbstractActions specific to the MakeAction derived type...">
<polygon fill="white" stroke="black" points="379,-117.5 379,-196.5 530,-196.5 530,-117.5 379,-117.5"/>
<text text-anchor="start" x="387" y="-184.5" font-family="Helvetica,sans-Serif" font-size="10.00">beseenium.controller.Action</text>
<text text-anchor="middle" x="454.5" y="-173.5" font-family="Helvetica,sans-Serif" font-size="10.00">Factory.MakeAction</text>
<polyline fill="none" stroke="black" points="379,-166.5 530,-166.5 "/>
<text text-anchor="middle" x="454.5" y="-154.5" font-family="Helvetica,sans-Serif" font-size="10.00"> </text>
<polyline fill="none" stroke="black" points="379,-147.5 530,-147.5 "/>
<text text-anchor="start" x="387" y="-135.5" font-family="Helvetica,sans-Serif" font-size="10.00">+ makeAction()</text>
<text text-anchor="start" x="387" y="-124.5" font-family="Helvetica,sans-Serif" font-size="10.00"># MakeAction()</text>
</a>
</g>
</g>
<!-- Node2&#45;&gt;Node1 -->
<g id="edge1" class="edge"><title>Node2&#45;&gt;Node1</title>
<path fill="none" stroke="midnightblue" d="M454.5,-107.199C454.5,-98.016 454.5,-88.5299 454.5,-79.7071"/>
<polygon fill="none" stroke="midnightblue" points="451,-107.387 454.5,-117.387 458,-107.387 451,-107.387"/>
</g>
<!-- Node3 -->
<g id="node3" class="node"><title>Node3</title>
<g id="a_node3"><a xlink:href="a00017.html" target="_top" xlink:title="This Class conforms to a &#39;factory&#39; pattern, it allows the creation of different ActionData instances...">
<polygon fill="white" stroke="black" points="371,-244.5 371,-356.5 538,-356.5 538,-244.5 371,-244.5"/>
<text text-anchor="start" x="379" y="-344.5" font-family="Helvetica,sans-Serif" font-size="10.00">beseenium.controller.Action</text>
<text text-anchor="middle" x="454.5" y="-333.5" font-family="Helvetica,sans-Serif" font-size="10.00">DataFactory.ActionDataFactory</text>
<polyline fill="none" stroke="black" points="371,-326.5 538,-326.5 "/>
<text text-anchor="middle" x="454.5" y="-314.5" font-family="Helvetica,sans-Serif" font-size="10.00"> </text>
<polyline fill="none" stroke="black" points="371,-307.5 538,-307.5 "/>
<text text-anchor="start" x="379" y="-295.5" font-family="Helvetica,sans-Serif" font-size="10.00">+ ActionDataFactory()</text>
<text text-anchor="start" x="379" y="-284.5" font-family="Helvetica,sans-Serif" font-size="10.00">+ setCapabilities()</text>
<text text-anchor="start" x="379" y="-273.5" font-family="Helvetica,sans-Serif" font-size="10.00">+ makeActionData()</text>
<text text-anchor="start" x="379" y="-262.5" font-family="Helvetica,sans-Serif" font-size="10.00">+ makeActionData()</text>
<text text-anchor="start" x="379" y="-251.5" font-family="Helvetica,sans-Serif" font-size="10.00">&#45; mapEntries()</text>
</a>
</g>
</g>
<!-- Node3&#45;&gt;Node2 -->
<g id="edge2" class="edge"><title>Node3&#45;&gt;Node2</title>
<path fill="none" stroke="#404040" d="M454.5,-244.387C454.5,-232.648 454.5,-220.304 454.5,-208.738"/>
<polygon fill="none" stroke="#404040" points="454.5,-208.557 450.5,-202.557 454.5,-196.557 458.5,-202.557 454.5,-208.557"/>
<text text-anchor="middle" x="484" y="-218" font-family="Helvetica,sans-Serif" font-size="10.00"> #adFactory</text>
</g>
<!-- Node4 -->
<g id="node4" class="node"><title>Node4</title>
<g id="a_node4"><a xlink:href="a00077.html" target="_top" xlink:title="interface which describes a prototype for creating MakeData objects. ">
<polygon fill="white" stroke="black" points="0,-443 0,-511 151,-511 151,-443 0,-443"/>
<text text-anchor="start" x="8" y="-499" font-family="Helvetica,sans-Serif" font-size="10.00">beseenium.controller.Action</text>
<text text-anchor="middle" x="75.5" y="-488" font-family="Helvetica,sans-Serif" font-size="10.00">DataFactory.MakeData</text>
<polyline fill="none" stroke="black" points="0,-481 151,-481 "/>
<text text-anchor="middle" x="75.5" y="-469" font-family="Helvetica,sans-Serif" font-size="10.00"> </text>
<polyline fill="none" stroke="black" points="0,-462 151,-462 "/>
<text text-anchor="start" x="8" y="-450" font-family="Helvetica,sans-Serif" font-size="10.00">+ makeActionData()</text>
</a>
</g>
</g>
<!-- Node4&#45;&gt;Node3 -->
<g id="edge3" class="edge"><title>Node4&#45;&gt;Node3</title>
<path fill="none" stroke="midnightblue" d="M116.457,-436.063C129.745,-424.597 145.06,-412.823 160.5,-404 227.028,-365.986 310.021,-338.644 370.847,-321.81"/>
<polygon fill="none" stroke="midnightblue" points="114.06,-433.511 108.883,-442.755 118.694,-438.757 114.06,-433.511"/>
</g>
<!-- Node5 -->
<g id="node5" class="node"><title>Node5</title>
<polygon fill="white" stroke="#bfbfbf" points="169,-443 169,-511 356,-511 356,-443 169,-443"/>
<text text-anchor="start" x="177" y="-499" font-family="Helvetica,sans-Serif" font-size="10.00">Map&lt; String, beseenium.controller.</text>
<text text-anchor="middle" x="262.5" y="-488" font-family="Helvetica,sans-Serif" font-size="10.00">ActionDataFactory.MakeData &gt;</text>
<polyline fill="none" stroke="#bfbfbf" points="169,-481 356,-481 "/>
<text text-anchor="middle" x="262.5" y="-469" font-family="Helvetica,sans-Serif" font-size="10.00"> </text>
<polyline fill="none" stroke="#bfbfbf" points="169,-462 356,-462 "/>
<text text-anchor="middle" x="262.5" y="-450" font-family="Helvetica,sans-Serif" font-size="10.00"> </text>
</g>
<!-- Node5&#45;&gt;Node3 -->
<g id="edge4" class="edge"><title>Node5&#45;&gt;Node3</title>
<path fill="none" stroke="#404040" d="M296.839,-442.863C317.652,-422.961 344.86,-397.263 369.5,-375 373.245,-371.616 377.102,-368.165 381.009,-364.695"/>
<polygon fill="none" stroke="#404040" points="381.195,-364.532 383.044,-357.562 390.189,-356.588 388.34,-363.558 381.195,-364.532"/>
<text text-anchor="middle" x="410" y="-378" font-family="Helvetica,sans-Serif" font-size="10.00"> &#45;ActionDataMap</text>
</g>
<!-- Node6 -->
<g id="node6" class="node"><title>Node6</title>
<g id="a_node6"><a xlink:href="a00014.html" target="_top" xlink:title="This class encapsulates the data needed to perform an action into 4 distinct areas: &#160;&#160;&#160;...">
<polygon fill="white" stroke="black" points="374,-404.5 374,-549.5 535,-549.5 535,-404.5 374,-404.5"/>
<text text-anchor="start" x="382" y="-537.5" font-family="Helvetica,sans-Serif" font-size="10.00">beseenium.model.actionData.</text>
<text text-anchor="middle" x="454.5" y="-526.5" font-family="Helvetica,sans-Serif" font-size="10.00">ActionData</text>
<polyline fill="none" stroke="black" points="374,-519.5 535,-519.5 "/>
<text text-anchor="start" x="382" y="-507.5" font-family="Helvetica,sans-Serif" font-size="10.00">&#45; inputParam</text>
<polyline fill="none" stroke="black" points="374,-500.5 535,-500.5 "/>
<text text-anchor="start" x="382" y="-488.5" font-family="Helvetica,sans-Serif" font-size="10.00">+ ActionData()</text>
<text text-anchor="start" x="382" y="-477.5" font-family="Helvetica,sans-Serif" font-size="10.00">+ ActionData()</text>
<text text-anchor="start" x="382" y="-466.5" font-family="Helvetica,sans-Serif" font-size="10.00">+ getInputParam()</text>
<text text-anchor="start" x="382" y="-455.5" font-family="Helvetica,sans-Serif" font-size="10.00">+ getElement()</text>
<text text-anchor="start" x="382" y="-444.5" font-family="Helvetica,sans-Serif" font-size="10.00">+ getDriver()</text>
<text text-anchor="start" x="382" y="-433.5" font-family="Helvetica,sans-Serif" font-size="10.00">+ setElement()</text>
<text text-anchor="start" x="382" y="-422.5" font-family="Helvetica,sans-Serif" font-size="10.00">+ setInputParam()</text>
<text text-anchor="start" x="382" y="-411.5" font-family="Helvetica,sans-Serif" font-size="10.00">+ setDriver()</text>
</a>
</g>
</g>
<!-- Node6&#45;&gt;Node3 -->
<g id="edge5" class="edge"><title>Node6&#45;&gt;Node3</title>
<path fill="none" stroke="#404040" d="M454.5,-404.269C454.5,-392.602 454.5,-380.553 454.5,-368.992"/>
<polygon fill="none" stroke="#404040" points="454.5,-368.681 450.5,-362.681 454.5,-356.681 458.5,-362.681 454.5,-368.681"/>
<text text-anchor="middle" x="500" y="-378" font-family="Helvetica,sans-Serif" font-size="10.00"> &#45;emptyActionData</text>
</g>
<!-- Node7 -->
<g id="node7" class="node"><title>Node7</title>
<polygon fill="white" stroke="#bfbfbf" points="342.5,-597.5 342.5,-654.5 458.5,-654.5 458.5,-597.5 342.5,-597.5"/>
<text text-anchor="middle" x="400.5" y="-642.5" font-family="Helvetica,sans-Serif" font-size="10.00">List&lt; WebElement &gt;</text>
<polyline fill="none" stroke="#bfbfbf" points="342.5,-635.5 458.5,-635.5 "/>
<text text-anchor="middle" x="400.5" y="-623.5" font-family="Helvetica,sans-Serif" font-size="10.00"> </text>
<polyline fill="none" stroke="#bfbfbf" points="342.5,-616.5 458.5,-616.5 "/>
<text text-anchor="middle" x="400.5" y="-604.5" font-family="Helvetica,sans-Serif" font-size="10.00"> </text>
</g>
<!-- Node7&#45;&gt;Node6 -->
<g id="edge6" class="edge"><title>Node7&#45;&gt;Node6</title>
<path fill="none" stroke="#404040" d="M410.657,-597.35C414.532,-586.801 419.178,-574.153 423.975,-561.095"/>
<polygon fill="none" stroke="#404040" points="424.076,-560.82 422.391,-553.808 428.214,-549.555 429.9,-556.567 424.076,-560.82"/>
<text text-anchor="middle" x="445" y="-571" font-family="Helvetica,sans-Serif" font-size="10.00"> &#45;element</text>
</g>
<!-- Node8 -->
<g id="node8" class="node"><title>Node8</title>
<polygon fill="white" stroke="#bfbfbf" points="477,-597.5 477,-654.5 542,-654.5 542,-597.5 477,-597.5"/>
<text text-anchor="middle" x="509.5" y="-642.5" font-family="Helvetica,sans-Serif" font-size="10.00">WebDriver</text>
<polyline fill="none" stroke="#bfbfbf" points="477,-635.5 542,-635.5 "/>
<text text-anchor="middle" x="509.5" y="-623.5" font-family="Helvetica,sans-Serif" font-size="10.00"> </text>
<polyline fill="none" stroke="#bfbfbf" points="477,-616.5 542,-616.5 "/>
<text text-anchor="middle" x="509.5" y="-604.5" font-family="Helvetica,sans-Serif" font-size="10.00"> </text>
</g>
<!-- Node8&#45;&gt;Node6 -->
<g id="edge7" class="edge"><title>Node8&#45;&gt;Node6</title>
<path fill="none" stroke="#404040" d="M499.155,-597.35C495.208,-586.801 490.476,-574.153 485.59,-561.095"/>
<polygon fill="none" stroke="#404040" points="485.478,-560.795 479.629,-556.577 481.272,-549.555 487.121,-553.773 485.478,-560.795"/>
<text text-anchor="middle" x="509.5" y="-571" font-family="Helvetica,sans-Serif" font-size="10.00"> &#45;driver</text>
</g>
<!-- Node9 -->
<g id="node9" class="node"><title>Node9</title>
<polygon fill="white" stroke="#bfbfbf" points="553,-448.5 553,-505.5 588,-505.5 588,-448.5 553,-448.5"/>
<text text-anchor="middle" x="570.5" y="-493.5" font-family="Helvetica,sans-Serif" font-size="10.00">URL</text>
<polyline fill="none" stroke="#bfbfbf" points="553,-486.5 588,-486.5 "/>
<text text-anchor="middle" x="570.5" y="-474.5" font-family="Helvetica,sans-Serif" font-size="10.00"> </text>
<polyline fill="none" stroke="#bfbfbf" points="553,-467.5 588,-467.5 "/>
<text text-anchor="middle" x="570.5" y="-455.5" font-family="Helvetica,sans-Serif" font-size="10.00"> </text>
</g>
<!-- Node9&#45;&gt;Node3 -->
<g id="edge8" class="edge"><title>Node9&#45;&gt;Node3</title>
<path fill="none" stroke="#404040" d="M569.524,-448.372C567.632,-426.918 562.436,-397.187 548.5,-375 546.525,-371.856 544.366,-368.792 542.059,-365.812"/>
<polygon fill="none" stroke="#404040" points="541.993,-365.735 535.06,-363.75 534.226,-356.587 541.159,-358.572 541.993,-365.735"/>
<text text-anchor="middle" x="567.5" y="-378" font-family="Helvetica,sans-Serif" font-size="10.00"> &#45;URL</text>
</g>
<!-- Node10 -->
<g id="node10" class="node"><title>Node10</title>
<polygon fill="white" stroke="#bfbfbf" points="606.5,-448.5 606.5,-505.5 714.5,-505.5 714.5,-448.5 606.5,-448.5"/>
<text text-anchor="middle" x="660.5" y="-493.5" font-family="Helvetica,sans-Serif" font-size="10.00">DesiredCapabilities</text>
<polyline fill="none" stroke="#bfbfbf" points="606.5,-486.5 714.5,-486.5 "/>
<text text-anchor="middle" x="660.5" y="-474.5" font-family="Helvetica,sans-Serif" font-size="10.00"> </text>
<polyline fill="none" stroke="#bfbfbf" points="606.5,-467.5 714.5,-467.5 "/>
<text text-anchor="middle" x="660.5" y="-455.5" font-family="Helvetica,sans-Serif" font-size="10.00"> </text>
</g>
<!-- Node10&#45;&gt;Node3 -->
<g id="edge9" class="edge"><title>Node10&#45;&gt;Node3</title>
<path fill="none" stroke="#404040" d="M644.087,-448.232C630.209,-426.419 608.749,-396.274 584.5,-375 573.504,-365.353 561.041,-356.389 548.292,-348.274"/>
<polygon fill="none" stroke="#404040" points="548.245,-348.245 541.039,-348.504 538.028,-341.952 545.234,-341.693 548.245,-348.245"/>
<text text-anchor="middle" x="625" y="-378" font-family="Helvetica,sans-Serif" font-size="10.00"> &#45;capabilities</text>
</g>
</g>
</svg>
        <g id="navigator" transform="translate(0 0)" fill="#404254">
                <rect fill="#f2f5e9" fill-opacity="0.5" stroke="#606060" stroke-width=".5" x="0" y="0" width="60" height="60"/>
                <use id="zoomplus" xlink:href="#zoomPlus" x="17" y="9" onmousedown="handleZoom(evt,'in')"/>
                <use id="zoomminus" xlink:href="#zoomMin" x="42" y="9" onmousedown="handleZoom(evt,'out')"/>
                <use id="reset" xlink:href="#resetDef" x="30" y="36" onmousedown="handleReset()"/>
                <g id="arrowUp" xlink:href="#dirArrow" transform="translate(30 24)" onmousedown="handlePan(0,-1)">
                  <use xlink:href="#rim" fill="#404040">
                        <set attributeName="fill" to="#808080" begin="arrowUp.mouseover" end="arrowUp.mouseout"/>
                  </use>
                  <path fill="none" stroke="white" stroke-width="1.5" d="M0,-3.0v7 M-2.5,-0.5L0,-3.0L2.5,-0.5"/>
                </g>
                <g id="arrowRight" xlink:href="#dirArrow" transform="rotate(90) translate(36 -43)" onmousedown="handlePan(1,0)">
                  <use xlink:href="#rim" fill="#404040">
                        <set attributeName="fill" to="#808080" begin="arrowRight.mouseover" end="arrowRight.mouseout"/>
                  </use>
                  <path fill="none" stroke="white" stroke-width="1.5" d="M0,-3.0v7 M-2.5,-0.5L0,-3.0L2.5,-0.5"/>
                </g>
                <g id="arrowDown" xlink:href="#dirArrow" transform="rotate(180) translate(-30 -48)" onmousedown="handlePan(0,1)">
                  <use xlink:href="#rim" fill="#404040">
                        <set attributeName="fill" to="#808080" begin="arrowDown.mouseover" end="arrowDown.mouseout"/>
                  </use>
                  <path fill="none" stroke="white" stroke-width="1.5" d="M0,-3.0v7 M-2.5,-0.5L0,-3.0L2.5,-0.5"/>
                </g>
                <g id="arrowLeft" xlink:href="#dirArrow" transform="rotate(270) translate(-36 17)" onmousedown="handlePan(-1,0)">
                  <use xlink:href="#rim" fill="#404040">
                        <set attributeName="fill" to="#808080" begin="arrowLeft.mouseover" end="arrowLeft.mouseout"/>
                  </use>
                  <path fill="none" stroke="white" stroke-width="1.5" d="M0,-3.0v7 M-2.5,-0.5L0,-3.0L2.5,-0.5"/>
                </g>
        </g>
        <svg viewBox="0 0 15 15" width="100%" height="30px" preserveAspectRatio="xMaxYMin meet">
         <g id="arrow_out" transform="scale(0.3 0.3)">
          <a xlink:href="a00362_org.svg" target="_base">
           <rect id="button" ry="5" rx="5" y="6" x="6" height="38" width="38"
                fill="#f2f5e9" fill-opacity="0.5" stroke="#606060" stroke-width="1.0"/>
           <path id="arrow"
             d="M 11.500037,31.436501 C 11.940474,20.09759 22.043105,11.32322 32.158766,21.979434 L 37.068811,17.246167 C 37.068811,17.246167 37.088388,32 37.088388,32 L 22.160133,31.978069 C 22.160133,31.978069 26.997745,27.140456 26.997745,27.140456 C 18.528582,18.264221 13.291696,25.230495 11.500037,31.436501 z"
             style="fill:#404040;"/>
          </a>
         </g>
        </svg>
</svg>
