<?xml version="1.0" encoding="UTF-8" standalone="no"?>
<!DOCTYPE svg PUBLIC "-//W3C//DTD SVG 1.1//EN"
 "http://www.w3.org/Graphics/SVG/1.1/DTD/svg11.dtd">
<!-- Generated by graphviz version 2.38.0 (20140413.2041)
 -->
<!-- Title: beseenium.controller.Test Pages: 1 -->
<!--zoomable 739 -->
<svg id="main" version="1.1" xmlns="http://www.w3.org/2000/svg" xmlns:xlink="http://www.w3.org/1999/xlink" xml:space="preserve" onload="init(evt)">
<style type="text/css"><![CDATA[
.edge:hover path { stroke: red; }
.edge:hover polygon { stroke: red; fill: red; }
]]></style>
<script type="text/javascript"><![CDATA[
var edges = document.getElementsByTagName('g');
if (edges && edges.length) {
  for (var i=0;i<edges.length;i++) {
    if (edges[i].id.substr(0,4)=='edge') {
      edges[i].setAttribute('class','edge');
    }
  }
}
]]></script>
        <defs>
                <circle id="rim" cx="0" cy="0" r="7"/>
                <circle id="rim2" cx="0" cy="0" r="3.5"/>
                <g id="zoomPlus">
                        <use xlink:href="#rim" fill="#404040">
                                <set attributeName="fill" to="#808080" begin="zoomplus.mouseover" end="zoomplus.mouseout"/>
                        </use>
                        <path d="M-4,0h8M0,-4v8" fill="none" stroke="white" stroke-width="1.5" pointer-events="none"/>
                </g>
                <g id="zoomMin">
                        <use xlink:href="#rim" fill="#404040">
                                <set attributeName="fill" to="#808080" begin="zoomminus.mouseover" end="zoomminus.mouseout"/>
                        </use>
                        <path d="M-4,0h8" fill="none" stroke="white" stroke-width="1.5" pointer-events="none"/>
                </g>
                <g id="dirArrow">
                        <path fill="none" stroke="white" stroke-width="1.5" d="M0,-3.0v7 M-2.5,-0.5L0,-3.0L2.5,-0.5"/>
                </g>
               <g id="resetDef">
                       <use xlink:href="#rim2" fill="#404040">
                               <set attributeName="fill" to="#808080" begin="reset.mouseover" end="reset.mouseout"/>
                       </use>
               </g>
        </defs>

<script type="text/javascript">
var viewWidth = 974;
var viewHeight = 739;
var sectionId = 'dynsection-0';
</script>
<script xlink:href="svgpan.js"/>
<svg id="graph" class="graph">
<g id="viewport">
<title>beseenium.controller.Test</title>
<polygon fill="white" stroke="none" points="-4,4 -4,-735 970.5,-735 970.5,4 -4,4"/>
<!-- Node1 -->
<g id="node1" class="node"><title>Node1</title>
<polygon fill="#bfbfbf" stroke="black" points="496.5,-0.5 496.5,-123.5 642.5,-123.5 642.5,-0.5 496.5,-0.5"/>
<text text-anchor="middle" x="569.5" y="-111.5" font-family="Helvetica,sans-Serif" font-size="10.00">beseenium.controller.Test</text>
<polyline fill="none" stroke="black" points="496.5,-104.5 642.5,-104.5 "/>
<text text-anchor="middle" x="569.5" y="-92.5" font-family="Helvetica,sans-Serif" font-size="10.00"> </text>
<polyline fill="none" stroke="black" points="496.5,-85.5 642.5,-85.5 "/>
<text text-anchor="start" x="504.5" y="-73.5" font-family="Helvetica,sans-Serif" font-size="10.00">+ Test()</text>
<text text-anchor="start" x="504.5" y="-62.5" font-family="Helvetica,sans-Serif" font-size="10.00">+ setBrowser()</text>
<text text-anchor="start" x="504.5" y="-51.5" font-family="Helvetica,sans-Serif" font-size="10.00">+ configureRemoteDriver()</text>
<text text-anchor="start" x="504.5" y="-40.5" font-family="Helvetica,sans-Serif" font-size="10.00">+ addAction()</text>
<text text-anchor="start" x="504.5" y="-29.5" font-family="Helvetica,sans-Serif" font-size="10.00">+ removeAction()</text>
<text text-anchor="start" x="504.5" y="-18.5" font-family="Helvetica,sans-Serif" font-size="10.00">+ executeActions()</text>
<text text-anchor="start" x="504.5" y="-7.5" font-family="Helvetica,sans-Serif" font-size="10.00">+ emergencyShutdown()</text>
</g>
<!-- Node2 -->
<g id="node2" class="node"><title>Node2</title>
<g id="a_node2"><a xlink:href="a00014.html" target="_top" xlink:title="This Class conforms to a &#39;factory&#39; pattern, it allows the creation of different ActionData instances...">
<polygon fill="white" stroke="black" points="431,-309.5 431,-421.5 598,-421.5 598,-309.5 431,-309.5"/>
<text text-anchor="start" x="439" y="-409.5" font-family="Helvetica,sans-Serif" font-size="10.00">beseenium.controller.Action</text>
<text text-anchor="middle" x="514.5" y="-398.5" font-family="Helvetica,sans-Serif" font-size="10.00">DataFactory.ActionDataFactory</text>
<polyline fill="none" stroke="black" points="431,-391.5 598,-391.5 "/>
<text text-anchor="middle" x="514.5" y="-379.5" font-family="Helvetica,sans-Serif" font-size="10.00"> </text>
<polyline fill="none" stroke="black" points="431,-372.5 598,-372.5 "/>
<text text-anchor="start" x="439" y="-360.5" font-family="Helvetica,sans-Serif" font-size="10.00">+ ActionDataFactory()</text>
<text text-anchor="start" x="439" y="-349.5" font-family="Helvetica,sans-Serif" font-size="10.00">+ setCapabilities()</text>
<text text-anchor="start" x="439" y="-338.5" font-family="Helvetica,sans-Serif" font-size="10.00">+ makeActionData()</text>
<text text-anchor="start" x="439" y="-327.5" font-family="Helvetica,sans-Serif" font-size="10.00">+ makeActionData()</text>
<text text-anchor="start" x="439" y="-316.5" font-family="Helvetica,sans-Serif" font-size="10.00">&#45; mapEntries()</text>
</a>
</g>
</g>
<!-- Node2&#45;&gt;Node1 -->
<g id="edge1" class="edge"><title>Node2&#45;&gt;Node1</title>
<path fill="none" stroke="#404040" d="M548.563,-309.461C551.294,-303.39 553.692,-297.17 555.5,-291 570.263,-240.626 573.502,-181.39 573.188,-135.924"/>
<polygon fill="none" stroke="#404040" points="573.186,-135.781 569.102,-129.838 573.018,-123.783 577.101,-129.726 573.186,-135.781"/>
<text text-anchor="middle" x="621" y="-214" font-family="Helvetica,sans-Serif" font-size="10.00"> &#45;actionDataFactory</text>
</g>
<!-- Node14 -->
<g id="node14" class="node"><title>Node14</title>
<g id="a_node14"><a xlink:href="a00018.html" target="_top" xlink:title="this class is a factory for creating actions, it uses a factory method style pattern and a map implem...">
<polygon fill="white" stroke="black" points="382,-171.5 382,-261.5 533,-261.5 533,-171.5 382,-171.5"/>
<text text-anchor="start" x="390" y="-249.5" font-family="Helvetica,sans-Serif" font-size="10.00">beseenium.controller.Action</text>
<text text-anchor="middle" x="457.5" y="-238.5" font-family="Helvetica,sans-Serif" font-size="10.00">Factory.ActionFactory</text>
<polyline fill="none" stroke="black" points="382,-231.5 533,-231.5 "/>
<text text-anchor="middle" x="457.5" y="-219.5" font-family="Helvetica,sans-Serif" font-size="10.00"> </text>
<polyline fill="none" stroke="black" points="382,-212.5 533,-212.5 "/>
<text text-anchor="start" x="390" y="-200.5" font-family="Helvetica,sans-Serif" font-size="10.00">+ ActionFactory()</text>
<text text-anchor="start" x="390" y="-189.5" font-family="Helvetica,sans-Serif" font-size="10.00">+ makeAction()</text>
<text text-anchor="start" x="390" y="-178.5" font-family="Helvetica,sans-Serif" font-size="10.00">&#45; populateActionMap()</text>
</a>
</g>
</g>
<!-- Node2&#45;&gt;Node14 -->
<g id="edge15" class="edge"><title>Node2&#45;&gt;Node14</title>
<path fill="none" stroke="#404040" d="M468.996,-309.442C465.632,-303.471 462.7,-297.276 460.5,-291 458.593,-285.562 457.266,-279.757 456.372,-273.884"/>
<polygon fill="none" stroke="#404040" points="456.359,-273.762 451.752,-268.214 455.101,-261.828 459.708,-267.375 456.359,-273.762"/>
<text text-anchor="middle" x="508" y="-283" font-family="Helvetica,sans-Serif" font-size="10.00"> &#45;actionDataFactory</text>
</g>
<!-- Node3 -->
<g id="node3" class="node"><title>Node3</title>
<g id="a_node3"><a xlink:href="a00068.html" target="_top" xlink:title="interface which describes a prototype for creating MakeData objects. ">
<polygon fill="white" stroke="black" points="384,-508 384,-576 535,-576 535,-508 384,-508"/>
<text text-anchor="start" x="392" y="-564" font-family="Helvetica,sans-Serif" font-size="10.00">beseenium.controller.Action</text>
<text text-anchor="middle" x="459.5" y="-553" font-family="Helvetica,sans-Serif" font-size="10.00">DataFactory.MakeData</text>
<polyline fill="none" stroke="black" points="384,-546 535,-546 "/>
<text text-anchor="middle" x="459.5" y="-534" font-family="Helvetica,sans-Serif" font-size="10.00"> </text>
<polyline fill="none" stroke="black" points="384,-527 535,-527 "/>
<text text-anchor="start" x="392" y="-515" font-family="Helvetica,sans-Serif" font-size="10.00">+ makeActionData()</text>
</a>
</g>
</g>
<!-- Node3&#45;&gt;Node2 -->
<g id="edge2" class="edge"><title>Node3&#45;&gt;Node2</title>
<path fill="none" stroke="midnightblue" d="M473.075,-497.93C480.341,-474.876 489.37,-446.23 497.142,-421.573"/>
<polygon fill="none" stroke="midnightblue" points="469.643,-497.178 469.975,-507.767 476.319,-499.282 469.643,-497.178"/>
</g>
<!-- Node4 -->
<g id="node4" class="node"><title>Node4</title>
<polygon fill="white" stroke="#bfbfbf" points="0,-508 0,-576 187,-576 187,-508 0,-508"/>
<text text-anchor="start" x="8" y="-564" font-family="Helvetica,sans-Serif" font-size="10.00">Map&lt; String, beseenium.controller.</text>
<text text-anchor="middle" x="93.5" y="-553" font-family="Helvetica,sans-Serif" font-size="10.00">ActionDataFactory.MakeData &gt;</text>
<polyline fill="none" stroke="#bfbfbf" points="0,-546 187,-546 "/>
<text text-anchor="middle" x="93.5" y="-534" font-family="Helvetica,sans-Serif" font-size="10.00"> </text>
<polyline fill="none" stroke="#bfbfbf" points="0,-527 187,-527 "/>
<text text-anchor="middle" x="93.5" y="-515" font-family="Helvetica,sans-Serif" font-size="10.00"> </text>
</g>
<!-- Node4&#45;&gt;Node2 -->
<g id="edge3" class="edge"><title>Node4&#45;&gt;Node2</title>
<path fill="none" stroke="#404040" d="M133.707,-507.856C151.732,-494.289 173.792,-479.375 195.5,-469 238.023,-448.677 251.411,-449.851 297.5,-440 348.449,-429.11 366.665,-439.147 419.405,-422.277"/>
<polygon fill="none" stroke="#404040" points="419.459,-422.258 423.85,-416.538 430.819,-418.391 426.428,-424.111 419.459,-422.258"/>
<text text-anchor="middle" x="338" y="-443" font-family="Helvetica,sans-Serif" font-size="10.00"> &#45;ActionDataMap</text>
</g>
<!-- Node5 -->
<g id="node5" class="node"><title>Node5</title>
<g id="a_node5"><a xlink:href="a00011.html" target="_top" xlink:title="This class encapsulates the data needed to perform an action into 4 distinct areas: &#160;&#160;&#160;...">
<polygon fill="white" stroke="black" points="205,-469.5 205,-614.5 366,-614.5 366,-469.5 205,-469.5"/>
<text text-anchor="start" x="213" y="-602.5" font-family="Helvetica,sans-Serif" font-size="10.00">beseenium.model.actionData.</text>
<text text-anchor="middle" x="285.5" y="-591.5" font-family="Helvetica,sans-Serif" font-size="10.00">ActionData</text>
<polyline fill="none" stroke="black" points="205,-584.5 366,-584.5 "/>
<text text-anchor="start" x="213" y="-572.5" font-family="Helvetica,sans-Serif" font-size="10.00">&#45; inputParam</text>
<polyline fill="none" stroke="black" points="205,-565.5 366,-565.5 "/>
<text text-anchor="start" x="213" y="-553.5" font-family="Helvetica,sans-Serif" font-size="10.00">+ ActionData()</text>
<text text-anchor="start" x="213" y="-542.5" font-family="Helvetica,sans-Serif" font-size="10.00">+ ActionData()</text>
<text text-anchor="start" x="213" y="-531.5" font-family="Helvetica,sans-Serif" font-size="10.00">+ getInputParam()</text>
<text text-anchor="start" x="213" y="-520.5" font-family="Helvetica,sans-Serif" font-size="10.00">+ getElement()</text>
<text text-anchor="start" x="213" y="-509.5" font-family="Helvetica,sans-Serif" font-size="10.00">+ getDriver()</text>
<text text-anchor="start" x="213" y="-498.5" font-family="Helvetica,sans-Serif" font-size="10.00">+ setElement()</text>
<text text-anchor="start" x="213" y="-487.5" font-family="Helvetica,sans-Serif" font-size="10.00">+ setInputParam()</text>
<text text-anchor="start" x="213" y="-476.5" font-family="Helvetica,sans-Serif" font-size="10.00">+ setDriver()</text>
</a>
</g>
</g>
<!-- Node5&#45;&gt;Node2 -->
<g id="edge4" class="edge"><title>Node5&#45;&gt;Node2</title>
<path fill="none" stroke="#404040" d="M358.847,-469.422C370.457,-459.163 382.574,-449.037 394.5,-440 397.797,-437.501 407.751,-431.18 420.607,-423.233"/>
<polygon fill="none" stroke="#404040" points="420.721,-423.163 423.735,-416.612 430.942,-416.875 427.927,-423.426 420.721,-423.163"/>
<text text-anchor="middle" x="440" y="-443" font-family="Helvetica,sans-Serif" font-size="10.00"> &#45;emptyActionData</text>
</g>
<!-- Node6 -->
<g id="node6" class="node"><title>Node6</title>
<polygon fill="white" stroke="#bfbfbf" points="227.5,-668 227.5,-725 343.5,-725 343.5,-668 227.5,-668"/>
<text text-anchor="middle" x="285.5" y="-713" font-family="Helvetica,sans-Serif" font-size="10.00">List&lt; WebElement &gt;</text>
<polyline fill="none" stroke="#bfbfbf" points="227.5,-706 343.5,-706 "/>
<text text-anchor="middle" x="285.5" y="-694" font-family="Helvetica,sans-Serif" font-size="10.00"> </text>
<polyline fill="none" stroke="#bfbfbf" points="227.5,-687 343.5,-687 "/>
<text text-anchor="middle" x="285.5" y="-675" font-family="Helvetica,sans-Serif" font-size="10.00"> </text>
</g>
<!-- Node6&#45;&gt;Node5 -->
<g id="edge5" class="edge"><title>Node6&#45;&gt;Node5</title>
<path fill="none" stroke="#404040" d="M285.5,-667.883C285.5,-656.031 285.5,-641.488 285.5,-626.568"/>
<polygon fill="none" stroke="#404040" points="285.5,-626.566 281.5,-620.566 285.5,-614.566 289.5,-620.566 285.5,-626.566"/>
<text text-anchor="middle" x="309" y="-636" font-family="Helvetica,sans-Serif" font-size="10.00"> &#45;element</text>
</g>
<!-- Node7 -->
<g id="node7" class="node"><title>Node7</title>
<polygon fill="white" stroke="#bfbfbf" points="460,-668 460,-725 525,-725 525,-668 460,-668"/>
<text text-anchor="middle" x="492.5" y="-713" font-family="Helvetica,sans-Serif" font-size="10.00">WebDriver</text>
<polyline fill="none" stroke="#bfbfbf" points="460,-706 525,-706 "/>
<text text-anchor="middle" x="492.5" y="-694" font-family="Helvetica,sans-Serif" font-size="10.00"> </text>
<polyline fill="none" stroke="#bfbfbf" points="460,-687 525,-687 "/>
<text text-anchor="middle" x="492.5" y="-675" font-family="Helvetica,sans-Serif" font-size="10.00"> </text>
</g>
<!-- Node7&#45;&gt;Node5 -->
<g id="edge6" class="edge"><title>Node7&#45;&gt;Node5</title>
<path fill="none" stroke="#404040" d="M459.952,-674.329C438.127,-659.908 408.651,-639.998 376.033,-616.032"/>
<polygon fill="none" stroke="#404040" points="375.931,-615.957 368.729,-615.602 366.286,-608.818 373.488,-609.172 375.931,-615.957"/>
<text text-anchor="middle" x="430.5" y="-636" font-family="Helvetica,sans-Serif" font-size="10.00"> &#45;driver</text>
</g>
<!-- Node10 -->
<g id="node10" class="node"><title>Node10</title>
<g id="a_node10"><a xlink:href="a00020.html" target="_top" xlink:title="This class acts as the invoker in a GOF command style pattern. ">
<polygon fill="white" stroke="black" points="732.5,-491.5 732.5,-592.5 902.5,-592.5 902.5,-491.5 732.5,-491.5"/>
<text text-anchor="middle" x="817.5" y="-580.5" font-family="Helvetica,sans-Serif" font-size="10.00">beseenium.model.ActionInvoker</text>
<polyline fill="none" stroke="black" points="732.5,-573.5 902.5,-573.5 "/>
<text text-anchor="middle" x="817.5" y="-561.5" font-family="Helvetica,sans-Serif" font-size="10.00"> </text>
<polyline fill="none" stroke="black" points="732.5,-554.5 902.5,-554.5 "/>
<text text-anchor="start" x="740.5" y="-542.5" font-family="Helvetica,sans-Serif" font-size="10.00">+ ActionInvoker()</text>
<text text-anchor="start" x="740.5" y="-531.5" font-family="Helvetica,sans-Serif" font-size="10.00">+ add()</text>
<text text-anchor="start" x="740.5" y="-520.5" font-family="Helvetica,sans-Serif" font-size="10.00">+ remove()</text>
<text text-anchor="start" x="740.5" y="-509.5" font-family="Helvetica,sans-Serif" font-size="10.00">+ execute()</text>
<text text-anchor="start" x="740.5" y="-498.5" font-family="Helvetica,sans-Serif" font-size="10.00">+ size()</text>
</a>
</g>
</g>
<!-- Node7&#45;&gt;Node10 -->
<g id="edge12" class="edge"><title>Node7&#45;&gt;Node10</title>
<path fill="none" stroke="#404040" d="M525.399,-682.367C541.614,-676.014 561.504,-668.397 579.5,-662 642.935,-639.452 663.928,-646.36 723.5,-615 732.035,-610.507 740.599,-605.242 748.895,-599.639"/>
<polygon fill="none" stroke="#404040" points="749.029,-599.546 751.652,-592.829 758.862,-592.667 756.238,-599.384 749.029,-599.546"/>
<text text-anchor="middle" x="698.5" y="-636" font-family="Helvetica,sans-Serif" font-size="10.00"> &#45;driver</text>
</g>
<!-- Node8 -->
<g id="node8" class="node"><title>Node8</title>
<polygon fill="white" stroke="#bfbfbf" points="553,-513.5 553,-570.5 588,-570.5 588,-513.5 553,-513.5"/>
<text text-anchor="middle" x="570.5" y="-558.5" font-family="Helvetica,sans-Serif" font-size="10.00">URL</text>
<polyline fill="none" stroke="#bfbfbf" points="553,-551.5 588,-551.5 "/>
<text text-anchor="middle" x="570.5" y="-539.5" font-family="Helvetica,sans-Serif" font-size="10.00"> </text>
<polyline fill="none" stroke="#bfbfbf" points="553,-532.5 588,-532.5 "/>
<text text-anchor="middle" x="570.5" y="-520.5" font-family="Helvetica,sans-Serif" font-size="10.00"> </text>
</g>
<!-- Node8&#45;&gt;Node2 -->
<g id="edge7" class="edge"><title>Node8&#45;&gt;Node2</title>
<path fill="none" stroke="#404040" d="M561.627,-513.35C554.745,-491.907 544.912,-461.265 536.006,-433.513"/>
<polygon fill="none" stroke="#404040" points="535.924,-433.258 530.282,-428.767 532.257,-421.832 537.899,-426.323 535.924,-433.258"/>
<text text-anchor="middle" x="554.5" y="-443" font-family="Helvetica,sans-Serif" font-size="10.00"> &#45;URL</text>
</g>
<!-- Node9 -->
<g id="node9" class="node"><title>Node9</title>
<polygon fill="white" stroke="#bfbfbf" points="606.5,-513.5 606.5,-570.5 714.5,-570.5 714.5,-513.5 606.5,-513.5"/>
<text text-anchor="middle" x="660.5" y="-558.5" font-family="Helvetica,sans-Serif" font-size="10.00">DesiredCapabilities</text>
<polyline fill="none" stroke="#bfbfbf" points="606.5,-551.5 714.5,-551.5 "/>
<text text-anchor="middle" x="660.5" y="-539.5" font-family="Helvetica,sans-Serif" font-size="10.00"> </text>
<polyline fill="none" stroke="#bfbfbf" points="606.5,-532.5 714.5,-532.5 "/>
<text text-anchor="middle" x="660.5" y="-520.5" font-family="Helvetica,sans-Serif" font-size="10.00"> </text>
</g>
<!-- Node9&#45;&gt;Node2 -->
<g id="edge8" class="edge"><title>Node9&#45;&gt;Node2</title>
<path fill="none" stroke="#404040" d="M637.366,-513.35C618.945,-491.333 592.408,-459.617 568.708,-431.29"/>
<polygon fill="none" stroke="#404040" points="568.495,-431.035 561.577,-429 560.795,-421.832 567.713,-423.867 568.495,-431.035"/>
<text text-anchor="middle" x="614" y="-443" font-family="Helvetica,sans-Serif" font-size="10.00"> &#45;capabilities</text>
</g>
<!-- Node10&#45;&gt;Node1 -->
<g id="edge9" class="edge"><title>Node10&#45;&gt;Node1</title>
<path fill="none" stroke="#404040" d="M804.743,-491.448C784.322,-417.657 739.635,-276.295 672.5,-171 664.119,-157.856 653.989,-144.925 643.394,-132.833"/>
<polygon fill="none" stroke="#404040" points="643.254,-132.676 636.266,-130.895 635.223,-123.76 642.211,-125.541 643.254,-132.676"/>
<text text-anchor="middle" x="755.5" y="-283" font-family="Helvetica,sans-Serif" font-size="10.00"> &#45;invoker</text>
</g>
<!-- Node11 -->
<g id="node11" class="node"><title>Node11</title>
<polygon fill="white" stroke="#bfbfbf" points="879.5,-668 879.5,-725 963.5,-725 963.5,-668 879.5,-668"/>
<text text-anchor="middle" x="921.5" y="-713" font-family="Helvetica,sans-Serif" font-size="10.00">List&lt; String &gt;</text>
<polyline fill="none" stroke="#bfbfbf" points="879.5,-706 963.5,-706 "/>
<text text-anchor="middle" x="921.5" y="-694" font-family="Helvetica,sans-Serif" font-size="10.00"> </text>
<polyline fill="none" stroke="#bfbfbf" points="879.5,-687 963.5,-687 "/>
<text text-anchor="middle" x="921.5" y="-675" font-family="Helvetica,sans-Serif" font-size="10.00"> </text>
</g>
<!-- Node11&#45;&gt;Node10 -->
<g id="edge10" class="edge"><title>Node11&#45;&gt;Node10</title>
<path fill="none" stroke="#404040" d="M910.56,-667.929C905.654,-656.743 899.412,-643.914 892.5,-633 885.902,-622.583 878.223,-612.052 870.345,-602.046"/>
<polygon fill="none" stroke="#404040" points="870.29,-601.978 863.41,-599.816 862.76,-592.634 869.639,-594.796 870.29,-601.978"/>
<text text-anchor="middle" x="932.5" y="-636" font-family="Helvetica,sans-Serif" font-size="10.00"> &#45;inputParams</text>
</g>
<!-- Node12 -->
<g id="node12" class="node"><title>Node12</title>
<polygon fill="white" stroke="#bfbfbf" points="588.5,-662.5 588.5,-730.5 754.5,-730.5 754.5,-662.5 588.5,-662.5"/>
<text text-anchor="start" x="596.5" y="-718.5" font-family="Helvetica,sans-Serif" font-size="10.00">List&lt; beseenium.model.action.</text>
<text text-anchor="middle" x="671.5" y="-707.5" font-family="Helvetica,sans-Serif" font-size="10.00">AbstractAction &gt;</text>
<polyline fill="none" stroke="#bfbfbf" points="588.5,-700.5 754.5,-700.5 "/>
<text text-anchor="middle" x="671.5" y="-688.5" font-family="Helvetica,sans-Serif" font-size="10.00"> </text>
<polyline fill="none" stroke="#bfbfbf" points="588.5,-681.5 754.5,-681.5 "/>
<text text-anchor="middle" x="671.5" y="-669.5" font-family="Helvetica,sans-Serif" font-size="10.00"> </text>
</g>
<!-- Node12&#45;&gt;Node10 -->
<g id="edge11" class="edge"><title>Node12&#45;&gt;Node10</title>
<path fill="none" stroke="#404040" d="M703.18,-662.41C720.278,-644.55 741.886,-621.98 761.701,-601.283"/>
<polygon fill="none" stroke="#404040" points="761.766,-601.215 763.026,-594.115 770.065,-592.547 768.805,-599.647 761.766,-601.215"/>
<text text-anchor="middle" x="748.5" y="-636" font-family="Helvetica,sans-Serif" font-size="10.00"> &#45;actions</text>
</g>
<!-- Node13 -->
<g id="node13" class="node"><title>Node13</title>
<polygon fill="white" stroke="#bfbfbf" points="773,-668 773,-725 862,-725 862,-668 773,-668"/>
<text text-anchor="middle" x="817.5" y="-713" font-family="Helvetica,sans-Serif" font-size="10.00">List&lt; Integer &gt;</text>
<polyline fill="none" stroke="#bfbfbf" points="773,-706 862,-706 "/>
<text text-anchor="middle" x="817.5" y="-694" font-family="Helvetica,sans-Serif" font-size="10.00"> </text>
<polyline fill="none" stroke="#bfbfbf" points="773,-687 862,-687 "/>
<text text-anchor="middle" x="817.5" y="-675" font-family="Helvetica,sans-Serif" font-size="10.00"> </text>
</g>
<!-- Node13&#45;&gt;Node10 -->
<g id="edge13" class="edge"><title>Node13&#45;&gt;Node10</title>
<path fill="none" stroke="#404040" d="M817.5,-667.883C817.5,-650.294 817.5,-626.78 817.5,-604.901"/>
<polygon fill="none" stroke="#404040" points="817.5,-604.614 813.5,-598.614 817.5,-592.614 821.5,-598.614 817.5,-604.614"/>
<text text-anchor="middle" x="853" y="-636" font-family="Helvetica,sans-Serif" font-size="10.00"> &#45;optionalIndex</text>
</g>
<!-- Node14&#45;&gt;Node1 -->
<g id="edge14" class="edge"><title>Node14&#45;&gt;Node1</title>
<path fill="none" stroke="#404040" d="M469.146,-171.473C472.873,-161.336 477.605,-150.921 483.5,-142 485.438,-139.066 487.509,-136.168 489.685,-133.312"/>
<polygon fill="none" stroke="#404040" points="489.868,-133.088 490.558,-125.91 497.449,-123.786 496.759,-130.964 489.868,-133.088"/>
<text text-anchor="middle" x="519.5" y="-145" font-family="Helvetica,sans-Serif" font-size="10.00"> &#45;actionFactory</text>
</g>
<!-- Node15 -->
<g id="node15" class="node"><title>Node15</title>
<polygon fill="white" stroke="#bfbfbf" points="226,-331.5 226,-399.5 413,-399.5 413,-331.5 226,-331.5"/>
<text text-anchor="start" x="234" y="-387.5" font-family="Helvetica,sans-Serif" font-size="10.00">Map&lt; String, beseenium.controller.</text>
<text text-anchor="middle" x="319.5" y="-376.5" font-family="Helvetica,sans-Serif" font-size="10.00">ActionFactory.MakeAction &gt;</text>
<polyline fill="none" stroke="#bfbfbf" points="226,-369.5 413,-369.5 "/>
<text text-anchor="middle" x="319.5" y="-357.5" font-family="Helvetica,sans-Serif" font-size="10.00"> </text>
<polyline fill="none" stroke="#bfbfbf" points="226,-350.5 413,-350.5 "/>
<text text-anchor="middle" x="319.5" y="-338.5" font-family="Helvetica,sans-Serif" font-size="10.00"> </text>
</g>
<!-- Node15&#45;&gt;Node14 -->
<g id="edge16" class="edge"><title>Node15&#45;&gt;Node14</title>
<path fill="none" stroke="#404040" d="M349.726,-331.456C364.123,-315.793 381.626,-296.863 397.5,-280 400.371,-276.951 403.327,-273.825 406.316,-270.676"/>
<polygon fill="none" stroke="#404040" points="406.507,-270.475 407.748,-263.371 414.782,-261.784 413.542,-268.887 406.507,-270.475"/>
<text text-anchor="middle" x="426" y="-283" font-family="Helvetica,sans-Serif" font-size="10.00"> &#45;actionMap</text>
</g>
</g>
</svg>
        <g id="navigator" transform="translate(0 0)" fill="#404254">
                <rect fill="#f2f5e9" fill-opacity="0.5" stroke="#606060" stroke-width=".5" x="0" y="0" width="60" height="60"/>
                <use id="zoomplus" xlink:href="#zoomPlus" x="17" y="9" onmousedown="handleZoom(evt,'in')"/>
                <use id="zoomminus" xlink:href="#zoomMin" x="42" y="9" onmousedown="handleZoom(evt,'out')"/>
                <use id="reset" xlink:href="#resetDef" x="30" y="36" onmousedown="handleReset()"/>
                <g id="arrowUp" xlink:href="#dirArrow" transform="translate(30 24)" onmousedown="handlePan(0,-1)">
                  <use xlink:href="#rim" fill="#404040">
                        <set attributeName="fill" to="#808080" begin="arrowUp.mouseover" end="arrowUp.mouseout"/>
                  </use>
                  <path fill="none" stroke="white" stroke-width="1.5" d="M0,-3.0v7 M-2.5,-0.5L0,-3.0L2.5,-0.5"/>
                </g>
                <g id="arrowRight" xlink:href="#dirArrow" transform="rotate(90) translate(36 -43)" onmousedown="handlePan(1,0)">
                  <use xlink:href="#rim" fill="#404040">
                        <set attributeName="fill" to="#808080" begin="arrowRight.mouseover" end="arrowRight.mouseout"/>
                  </use>
                  <path fill="none" stroke="white" stroke-width="1.5" d="M0,-3.0v7 M-2.5,-0.5L0,-3.0L2.5,-0.5"/>
                </g>
                <g id="arrowDown" xlink:href="#dirArrow" transform="rotate(180) translate(-30 -48)" onmousedown="handlePan(0,1)">
                  <use xlink:href="#rim" fill="#404040">
                        <set attributeName="fill" to="#808080" begin="arrowDown.mouseover" end="arrowDown.mouseout"/>
                  </use>
                  <path fill="none" stroke="white" stroke-width="1.5" d="M0,-3.0v7 M-2.5,-0.5L0,-3.0L2.5,-0.5"/>
                </g>
                <g id="arrowLeft" xlink:href="#dirArrow" transform="rotate(270) translate(-36 17)" onmousedown="handlePan(-1,0)">
                  <use xlink:href="#rim" fill="#404040">
                        <set attributeName="fill" to="#808080" begin="arrowLeft.mouseover" end="arrowLeft.mouseout"/>
                  </use>
                  <path fill="none" stroke="white" stroke-width="1.5" d="M0,-3.0v7 M-2.5,-0.5L0,-3.0L2.5,-0.5"/>
                </g>
        </g>
        <svg viewBox="0 0 15 15" width="100%" height="30px" preserveAspectRatio="xMaxYMin meet">
         <g id="arrow_out" transform="scale(0.3 0.3)">
          <a xlink:href="a00308_org.svg" target="_base">
           <rect id="button" ry="5" rx="5" y="6" x="6" height="38" width="38"
                fill="#f2f5e9" fill-opacity="0.5" stroke="#606060" stroke-width="1.0"/>
           <path id="arrow"
             d="M 11.500037,31.436501 C 11.940474,20.09759 22.043105,11.32322 32.158766,21.979434 L 37.068811,17.246167 C 37.068811,17.246167 37.088388,32 37.088388,32 L 22.160133,31.978069 C 22.160133,31.978069 26.997745,27.140456 26.997745,27.140456 C 18.528582,18.264221 13.291696,25.230495 11.500037,31.436501 z"
             style="fill:#404040;"/>
          </a>
         </g>
        </svg>
</svg>
