<?xml version="1.0" encoding="UTF-8" standalone="no"?>
<!DOCTYPE svg PUBLIC "-//W3C//DTD SVG 1.1//EN"
 "http://www.w3.org/Graphics/SVG/1.1/DTD/svg11.dtd">
<!-- Generated by graphviz version 2.38.0 (20140413.2041)
 -->
<!-- Title: beseenium.controller.ActionFactory.elementActions.MakeIsSelected Pages: 1 -->
<svg width="216pt" height="204pt"
 viewBox="0.00 0.00 216.00 204.00" xmlns="http://www.w3.org/2000/svg" xmlns:xlink="http://www.w3.org/1999/xlink">
<g id="graph0" class="graph" transform="scale(1 1) rotate(0) translate(4 200)">
<title>beseenium.controller.ActionFactory.elementActions.MakeIsSelected</title>
<polygon fill="white" stroke="none" points="-4,4 -4,-200 212,-200 212,4 -4,4"/>
<!-- Node1 -->
<g id="node1" class="node"><title>Node1</title>
<polygon fill="#bfbfbf" stroke="black" points="0,-0.5 0,-79.5 208,-79.5 208,-0.5 0,-0.5"/>
<text text-anchor="start" x="8" y="-67.5" font-family="Helvetica,sans-Serif" font-size="10.00">beseenium.controller.Action</text>
<text text-anchor="middle" x="104" y="-56.5" font-family="Helvetica,sans-Serif" font-size="10.00">Factory.elementActions.MakeIsSelected</text>
<polyline fill="none" stroke="black" points="0,-49.5 208,-49.5 "/>
<text text-anchor="middle" x="104" y="-37.5" font-family="Helvetica,sans-Serif" font-size="10.00"> </text>
<polyline fill="none" stroke="black" points="0,-30.5 208,-30.5 "/>
<text text-anchor="start" x="8" y="-18.5" font-family="Helvetica,sans-Serif" font-size="10.00">+ MakeIsSelected()</text>
<text text-anchor="start" x="8" y="-7.5" font-family="Helvetica,sans-Serif" font-size="10.00">+ makeAction()</text>
</g>
<!-- Node2 -->
<g id="node2" class="node"><title>Node2</title>
<g id="a_node2"><a xlink:href="a00073.html" target="_top" xlink:title="abstract base class for the creation of AbstractActions specific to the MakeAction derived type...">
<polygon fill="white" stroke="black" points="28.5,-116.5 28.5,-195.5 179.5,-195.5 179.5,-116.5 28.5,-116.5"/>
<text text-anchor="start" x="36.5" y="-183.5" font-family="Helvetica,sans-Serif" font-size="10.00">beseenium.controller.Action</text>
<text text-anchor="middle" x="104" y="-172.5" font-family="Helvetica,sans-Serif" font-size="10.00">Factory.MakeAction</text>
<polyline fill="none" stroke="black" points="28.5,-165.5 179.5,-165.5 "/>
<text text-anchor="start" x="36.5" y="-153.5" font-family="Helvetica,sans-Serif" font-size="10.00"># adFactory</text>
<polyline fill="none" stroke="black" points="28.5,-146.5 179.5,-146.5 "/>
<text text-anchor="start" x="36.5" y="-134.5" font-family="Helvetica,sans-Serif" font-size="10.00">+ makeAction()</text>
<text text-anchor="start" x="36.5" y="-123.5" font-family="Helvetica,sans-Serif" font-size="10.00"># MakeAction()</text>
</a>
</g>
</g>
<!-- Node2&#45;&gt;Node1 -->
<g id="edge1" class="edge"><title>Node2&#45;&gt;Node1</title>
<path fill="none" stroke="midnightblue" d="M104,-106.146C104,-97.256 104,-88.0961 104,-79.5555"/>
<polygon fill="none" stroke="midnightblue" points="100.5,-106.405 104,-116.405 107.5,-106.405 100.5,-106.405"/>
</g>
</g>
</svg>
