<?xml version="1.0" encoding="UTF-8" standalone="no"?>
<!DOCTYPE svg PUBLIC "-//W3C//DTD SVG 1.1//EN"
 "http://www.w3.org/Graphics/SVG/1.1/DTD/svg11.dtd">
<!-- Generated by graphviz version 2.38.0 (20140413.2041)
 -->
<!-- Title: beseenium.controller.ActionFactory.MakeAction Pages: 1 -->
<svg width="6395pt" height="226pt"
 viewBox="0.00 0.00 6395.50 226.00" xmlns="http://www.w3.org/2000/svg" xmlns:xlink="http://www.w3.org/1999/xlink">
<g id="graph0" class="graph" transform="scale(1 1) rotate(0) translate(4 222)">
<title>beseenium.controller.ActionFactory.MakeAction</title>
<polygon fill="white" stroke="none" points="-4,4 -4,-222 6391.5,-222 6391.5,4 -4,4"/>
<!-- Node1 -->
<g id="node1" class="node"><title>Node1</title>
<polygon fill="#bfbfbf" stroke="black" points="3194,-138.5 3194,-217.5 3345,-217.5 3345,-138.5 3194,-138.5"/>
<text text-anchor="start" x="3202" y="-205.5" font-family="Helvetica,sans-Serif" font-size="10.00">beseenium.controller.Action</text>
<text text-anchor="middle" x="3269.5" y="-194.5" font-family="Helvetica,sans-Serif" font-size="10.00">Factory.MakeAction</text>
<polyline fill="none" stroke="black" points="3194,-187.5 3345,-187.5 "/>
<text text-anchor="start" x="3202" y="-175.5" font-family="Helvetica,sans-Serif" font-size="10.00"># adFactory</text>
<polyline fill="none" stroke="black" points="3194,-168.5 3345,-168.5 "/>
<text text-anchor="start" x="3202" y="-156.5" font-family="Helvetica,sans-Serif" font-size="10.00">+ makeAction()</text>
<text text-anchor="start" x="3202" y="-145.5" font-family="Helvetica,sans-Serif" font-size="10.00"># MakeAction()</text>
</g>
<!-- Node2 -->
<g id="node2" class="node"><title>Node2</title>
<g id="a_node2"><a xlink:href="a00075.html" target="_top" xlink:title="creates a new Clear action ">
<polygon fill="white" stroke="black" points="0,-11.5 0,-90.5 183,-90.5 183,-11.5 0,-11.5"/>
<text text-anchor="start" x="8" y="-78.5" font-family="Helvetica,sans-Serif" font-size="10.00">beseenium.controller.Action</text>
<text text-anchor="middle" x="91.5" y="-67.5" font-family="Helvetica,sans-Serif" font-size="10.00">Factory.elementActions.MakeClear</text>
<polyline fill="none" stroke="black" points="0,-60.5 183,-60.5 "/>
<text text-anchor="middle" x="91.5" y="-48.5" font-family="Helvetica,sans-Serif" font-size="10.00"> </text>
<polyline fill="none" stroke="black" points="0,-41.5 183,-41.5 "/>
<text text-anchor="start" x="8" y="-29.5" font-family="Helvetica,sans-Serif" font-size="10.00">+ MakeClear()</text>
<text text-anchor="start" x="8" y="-18.5" font-family="Helvetica,sans-Serif" font-size="10.00">+ makeAction()</text>
</a>
</g>
</g>
<!-- Node1&#45;&gt;Node2 -->
<g id="edge1" class="edge"><title>Node1&#45;&gt;Node2</title>
<path fill="none" stroke="midnightblue" d="M3183.94,-177.12C2717.28,-177.48 489.502,-175.319 192.5,-102 181.483,-99.2802 170.273,-95.2263 159.524,-90.5824"/>
<polygon fill="none" stroke="midnightblue" points="3183.98,-180.62 3193.98,-177.112 3183.97,-173.62 3183.98,-180.62"/>
</g>
<!-- Node3 -->
<g id="node3" class="node"><title>Node3</title>
<g id="a_node3"><a xlink:href="a00076.html" target="_top" xlink:title="creates a new click action ">
<polygon fill="white" stroke="black" points="201.5,-11.5 201.5,-90.5 381.5,-90.5 381.5,-11.5 201.5,-11.5"/>
<text text-anchor="start" x="209.5" y="-78.5" font-family="Helvetica,sans-Serif" font-size="10.00">beseenium.controller.Action</text>
<text text-anchor="middle" x="291.5" y="-67.5" font-family="Helvetica,sans-Serif" font-size="10.00">Factory.elementActions.MakeClick</text>
<polyline fill="none" stroke="black" points="201.5,-60.5 381.5,-60.5 "/>
<text text-anchor="middle" x="291.5" y="-48.5" font-family="Helvetica,sans-Serif" font-size="10.00"> </text>
<polyline fill="none" stroke="black" points="201.5,-41.5 381.5,-41.5 "/>
<text text-anchor="start" x="209.5" y="-29.5" font-family="Helvetica,sans-Serif" font-size="10.00">+ MakeClick()</text>
<text text-anchor="start" x="209.5" y="-18.5" font-family="Helvetica,sans-Serif" font-size="10.00">+ makeAction()</text>
</a>
</g>
</g>
<!-- Node1&#45;&gt;Node3 -->
<g id="edge2" class="edge"><title>Node1&#45;&gt;Node3</title>
<path fill="none" stroke="midnightblue" d="M3183.36,-177.004C2733.8,-176.723 666.803,-171.629 390.5,-102 379.671,-99.271 368.666,-95.212 358.123,-90.5658"/>
<polygon fill="none" stroke="midnightblue" points="3183.68,-180.504 3193.68,-177.01 3183.68,-173.504 3183.68,-180.504"/>
</g>
<!-- Node4 -->
<g id="node4" class="node"><title>Node4</title>
<g id="a_node4"><a xlink:href="a00087.html" target="_top" xlink:title="creates a new GetAttribute action ">
<polygon fill="white" stroke="black" points="399.5,-11.5 399.5,-90.5 617.5,-90.5 617.5,-11.5 399.5,-11.5"/>
<text text-anchor="start" x="407.5" y="-78.5" font-family="Helvetica,sans-Serif" font-size="10.00">beseenium.controller.Action</text>
<text text-anchor="middle" x="508.5" y="-67.5" font-family="Helvetica,sans-Serif" font-size="10.00">Factory.elementActions.MakeGetAttribute</text>
<polyline fill="none" stroke="black" points="399.5,-60.5 617.5,-60.5 "/>
<text text-anchor="middle" x="508.5" y="-48.5" font-family="Helvetica,sans-Serif" font-size="10.00"> </text>
<polyline fill="none" stroke="black" points="399.5,-41.5 617.5,-41.5 "/>
<text text-anchor="start" x="407.5" y="-29.5" font-family="Helvetica,sans-Serif" font-size="10.00">+ MakeGetAttribute()</text>
<text text-anchor="start" x="407.5" y="-18.5" font-family="Helvetica,sans-Serif" font-size="10.00">+ makeAction()</text>
</a>
</g>
</g>
<!-- Node1&#45;&gt;Node4 -->
<g id="edge3" class="edge"><title>Node1&#45;&gt;Node4</title>
<path fill="none" stroke="midnightblue" d="M3183.67,-176.455C2757.66,-173.498 880.717,-157.403 626.5,-102 613.891,-99.2521 600.939,-95.1828 588.446,-90.532"/>
<polygon fill="none" stroke="midnightblue" points="3183.73,-179.956 3193.76,-176.525 3183.78,-172.956 3183.73,-179.956"/>
</g>
<!-- Node5 -->
<g id="node5" class="node"><title>Node5</title>
<g id="a_node5"><a xlink:href="a00088.html" target="_top" xlink:title="creates a new GetCssValue action ">
<polygon fill="white" stroke="black" points="635.5,-11.5 635.5,-90.5 855.5,-90.5 855.5,-11.5 635.5,-11.5"/>
<text text-anchor="start" x="643.5" y="-78.5" font-family="Helvetica,sans-Serif" font-size="10.00">beseenium.controller.Action</text>
<text text-anchor="middle" x="745.5" y="-67.5" font-family="Helvetica,sans-Serif" font-size="10.00">Factory.elementActions.MakeGetCssValue</text>
<polyline fill="none" stroke="black" points="635.5,-60.5 855.5,-60.5 "/>
<text text-anchor="middle" x="745.5" y="-48.5" font-family="Helvetica,sans-Serif" font-size="10.00"> </text>
<polyline fill="none" stroke="black" points="635.5,-41.5 855.5,-41.5 "/>
<text text-anchor="start" x="643.5" y="-29.5" font-family="Helvetica,sans-Serif" font-size="10.00">+ MakeGetCssValue()</text>
<text text-anchor="start" x="643.5" y="-18.5" font-family="Helvetica,sans-Serif" font-size="10.00">+ makeAction()</text>
</a>
</g>
</g>
<!-- Node1&#45;&gt;Node5 -->
<g id="edge4" class="edge"><title>Node1&#45;&gt;Node5</title>
<path fill="none" stroke="midnightblue" d="M3183.67,-176.181C2781.6,-172.092 1094.35,-152.066 864.5,-102 851.91,-99.2576 838.972,-95.2246 826.478,-90.6193"/>
<polygon fill="none" stroke="midnightblue" points="3183.74,-179.681 3193.77,-176.283 3183.81,-172.682 3183.74,-179.681"/>
</g>
<!-- Node6 -->
<g id="node6" class="node"><title>Node6</title>
<g id="a_node6"><a xlink:href="a00089.html" target="_top" xlink:title="creates a new GetLocation action ">
<polygon fill="white" stroke="black" points="873.5,-11.5 873.5,-90.5 1089.5,-90.5 1089.5,-11.5 873.5,-11.5"/>
<text text-anchor="start" x="881.5" y="-78.5" font-family="Helvetica,sans-Serif" font-size="10.00">beseenium.controller.Action</text>
<text text-anchor="middle" x="981.5" y="-67.5" font-family="Helvetica,sans-Serif" font-size="10.00">Factory.elementActions.MakeGetLocation</text>
<polyline fill="none" stroke="black" points="873.5,-60.5 1089.5,-60.5 "/>
<text text-anchor="middle" x="981.5" y="-48.5" font-family="Helvetica,sans-Serif" font-size="10.00"> </text>
<polyline fill="none" stroke="black" points="873.5,-41.5 1089.5,-41.5 "/>
<text text-anchor="start" x="881.5" y="-29.5" font-family="Helvetica,sans-Serif" font-size="10.00">+ MakeGetLocation()</text>
<text text-anchor="start" x="881.5" y="-18.5" font-family="Helvetica,sans-Serif" font-size="10.00">+ makeAction()</text>
</a>
</g>
</g>
<!-- Node1&#45;&gt;Node6 -->
<g id="edge5" class="edge"><title>Node1&#45;&gt;Node6</title>
<path fill="none" stroke="midnightblue" d="M3183.8,-175.902C2806.65,-170.818 1304.26,-147.839 1098.5,-102 1086.1,-99.2381 1073.37,-95.1945 1061.08,-90.5842"/>
<polygon fill="none" stroke="midnightblue" points="3183.78,-179.402 3193.83,-176.037 3183.88,-172.403 3183.78,-179.402"/>
</g>
<!-- Node7 -->
<g id="node7" class="node"><title>Node7</title>
<g id="a_node7"><a xlink:href="a00091.html" target="_top" xlink:title="creates a new GetSize action ">
<polygon fill="white" stroke="black" points="1107.5,-11.5 1107.5,-90.5 1303.5,-90.5 1303.5,-11.5 1107.5,-11.5"/>
<text text-anchor="start" x="1115.5" y="-78.5" font-family="Helvetica,sans-Serif" font-size="10.00">beseenium.controller.Action</text>
<text text-anchor="middle" x="1205.5" y="-67.5" font-family="Helvetica,sans-Serif" font-size="10.00">Factory.elementActions.MakeGetSize</text>
<polyline fill="none" stroke="black" points="1107.5,-60.5 1303.5,-60.5 "/>
<text text-anchor="middle" x="1205.5" y="-48.5" font-family="Helvetica,sans-Serif" font-size="10.00"> </text>
<polyline fill="none" stroke="black" points="1107.5,-41.5 1303.5,-41.5 "/>
<text text-anchor="start" x="1115.5" y="-29.5" font-family="Helvetica,sans-Serif" font-size="10.00">+ MakeGetSize()</text>
<text text-anchor="start" x="1115.5" y="-18.5" font-family="Helvetica,sans-Serif" font-size="10.00">+ makeAction()</text>
</a>
</g>
</g>
<!-- Node1&#45;&gt;Node7 -->
<g id="edge6" class="edge"><title>Node1&#45;&gt;Node7</title>
<path fill="none" stroke="midnightblue" d="M3183.63,-175.715C2829.9,-170.151 1495.69,-146.388 1312.5,-102 1301.04,-99.2236 1289.33,-95.1719 1278.06,-90.5579"/>
<polygon fill="none" stroke="midnightblue" points="3183.75,-179.218 3193.8,-175.875 3183.86,-172.219 3183.75,-179.218"/>
</g>
<!-- Node8 -->
<g id="node8" class="node"><title>Node8</title>
<g id="a_node8"><a xlink:href="a00092.html" target="_top" xlink:title="creates a new GetTagName action ">
<polygon fill="white" stroke="black" points="1321.5,-11.5 1321.5,-90.5 1543.5,-90.5 1543.5,-11.5 1321.5,-11.5"/>
<text text-anchor="start" x="1329.5" y="-78.5" font-family="Helvetica,sans-Serif" font-size="10.00">beseenium.controller.Action</text>
<text text-anchor="middle" x="1432.5" y="-67.5" font-family="Helvetica,sans-Serif" font-size="10.00">Factory.elementActions.MakeGetTagName</text>
<polyline fill="none" stroke="black" points="1321.5,-60.5 1543.5,-60.5 "/>
<text text-anchor="middle" x="1432.5" y="-48.5" font-family="Helvetica,sans-Serif" font-size="10.00"> </text>
<polyline fill="none" stroke="black" points="1321.5,-41.5 1543.5,-41.5 "/>
<text text-anchor="start" x="1329.5" y="-29.5" font-family="Helvetica,sans-Serif" font-size="10.00">+ MakeGetTagName()</text>
<text text-anchor="start" x="1329.5" y="-18.5" font-family="Helvetica,sans-Serif" font-size="10.00">+ makeAction()</text>
</a>
</g>
</g>
<!-- Node1&#45;&gt;Node8 -->
<g id="edge7" class="edge"><title>Node1&#45;&gt;Node8</title>
<path fill="none" stroke="midnightblue" d="M3183.72,-177.21C2881.65,-177.336 1868.36,-172.374 1552.5,-102 1539.94,-99.2023 1527.03,-95.1717 1514.54,-90.5959"/>
<polygon fill="none" stroke="midnightblue" points="3183.74,-180.711 3193.74,-177.204 3183.74,-173.711 3183.74,-180.711"/>
</g>
<!-- Node9 -->
<g id="node9" class="node"><title>Node9</title>
<g id="a_node9"><a xlink:href="a00093.html" target="_top" xlink:title="creates a new GetText action ">
<polygon fill="white" stroke="black" points="1561.5,-11.5 1561.5,-90.5 1757.5,-90.5 1757.5,-11.5 1561.5,-11.5"/>
<text text-anchor="start" x="1569.5" y="-78.5" font-family="Helvetica,sans-Serif" font-size="10.00">beseenium.controller.Action</text>
<text text-anchor="middle" x="1659.5" y="-67.5" font-family="Helvetica,sans-Serif" font-size="10.00">Factory.elementActions.MakeGetText</text>
<polyline fill="none" stroke="black" points="1561.5,-60.5 1757.5,-60.5 "/>
<text text-anchor="middle" x="1659.5" y="-48.5" font-family="Helvetica,sans-Serif" font-size="10.00"> </text>
<polyline fill="none" stroke="black" points="1561.5,-41.5 1757.5,-41.5 "/>
<text text-anchor="start" x="1569.5" y="-29.5" font-family="Helvetica,sans-Serif" font-size="10.00">+ MakeGetText()</text>
<text text-anchor="start" x="1569.5" y="-18.5" font-family="Helvetica,sans-Serif" font-size="10.00">+ makeAction()</text>
</a>
</g>
</g>
<!-- Node1&#45;&gt;Node9 -->
<g id="edge8" class="edge"><title>Node1&#45;&gt;Node9</title>
<path fill="none" stroke="midnightblue" d="M3183.31,-177.049C2905.79,-176.525 2037.8,-169.399 1766.5,-102 1755.16,-99.1821 1743.56,-95.1403 1732.39,-90.5593"/>
<polygon fill="none" stroke="midnightblue" points="3183.71,-180.549 3193.72,-177.066 3183.72,-173.549 3183.71,-180.549"/>
</g>
<!-- Node10 -->
<g id="node10" class="node"><title>Node10</title>
<g id="a_node10"><a xlink:href="a00097.html" target="_top" xlink:title="creates a new IsDisplayed action ">
<polygon fill="white" stroke="black" points="1775.5,-11.5 1775.5,-90.5 1987.5,-90.5 1987.5,-11.5 1775.5,-11.5"/>
<text text-anchor="start" x="1783.5" y="-78.5" font-family="Helvetica,sans-Serif" font-size="10.00">beseenium.controller.Action</text>
<text text-anchor="middle" x="1881.5" y="-67.5" font-family="Helvetica,sans-Serif" font-size="10.00">Factory.elementActions.MakeIsDisplayed</text>
<polyline fill="none" stroke="black" points="1775.5,-60.5 1987.5,-60.5 "/>
<text text-anchor="middle" x="1881.5" y="-48.5" font-family="Helvetica,sans-Serif" font-size="10.00"> </text>
<polyline fill="none" stroke="black" points="1775.5,-41.5 1987.5,-41.5 "/>
<text text-anchor="start" x="1783.5" y="-29.5" font-family="Helvetica,sans-Serif" font-size="10.00">+ MakeIsDisplayed()</text>
<text text-anchor="start" x="1783.5" y="-18.5" font-family="Helvetica,sans-Serif" font-size="10.00">+ makeAction()</text>
</a>
</g>
</g>
<!-- Node1&#45;&gt;Node10 -->
<g id="edge9" class="edge"><title>Node1&#45;&gt;Node10</title>
<path fill="none" stroke="midnightblue" d="M3183.61,-175.849C2935.8,-171.91 2222.83,-156.065 1996.5,-102 1984.54,-99.1421 1972.25,-95.1101 1960.37,-90.5616"/>
<polygon fill="none" stroke="midnightblue" points="3183.59,-179.349 3193.65,-176.006 3183.7,-172.35 3183.59,-179.349"/>
</g>
<!-- Node11 -->
<g id="node11" class="node"><title>Node11</title>
<g id="a_node11"><a xlink:href="a00098.html" target="_top" xlink:title="creates a new IsEnabled action ">
<polygon fill="white" stroke="black" points="2005.5,-11.5 2005.5,-90.5 2209.5,-90.5 2209.5,-11.5 2005.5,-11.5"/>
<text text-anchor="start" x="2013.5" y="-78.5" font-family="Helvetica,sans-Serif" font-size="10.00">beseenium.controller.Action</text>
<text text-anchor="middle" x="2107.5" y="-67.5" font-family="Helvetica,sans-Serif" font-size="10.00">Factory.elementActions.MakeIsEnabled</text>
<polyline fill="none" stroke="black" points="2005.5,-60.5 2209.5,-60.5 "/>
<text text-anchor="middle" x="2107.5" y="-48.5" font-family="Helvetica,sans-Serif" font-size="10.00"> </text>
<polyline fill="none" stroke="black" points="2005.5,-41.5 2209.5,-41.5 "/>
<text text-anchor="start" x="2013.5" y="-29.5" font-family="Helvetica,sans-Serif" font-size="10.00">+ MakeIsEnabled()</text>
<text text-anchor="start" x="2013.5" y="-18.5" font-family="Helvetica,sans-Serif" font-size="10.00">+ makeAction()</text>
</a>
</g>
</g>
<!-- Node1&#45;&gt;Node11 -->
<g id="edge10" class="edge"><title>Node1&#45;&gt;Node11</title>
<path fill="none" stroke="midnightblue" d="M3183.79,-174.753C2966.9,-168.45 2400.63,-147.968 2218.5,-102 2207.02,-99.1035 2195.26,-95.0816 2183.88,-90.5653"/>
<polygon fill="none" stroke="midnightblue" points="3183.75,-178.254 3193.85,-175.043 3183.96,-171.257 3183.75,-178.254"/>
</g>
<!-- Node12 -->
<g id="node12" class="node"><title>Node12</title>
<g id="a_node12"><a xlink:href="a00099.html" target="_top" xlink:title="creates a new IsSelected action ">
<polygon fill="white" stroke="black" points="2227.5,-11.5 2227.5,-90.5 2435.5,-90.5 2435.5,-11.5 2227.5,-11.5"/>
<text text-anchor="start" x="2235.5" y="-78.5" font-family="Helvetica,sans-Serif" font-size="10.00">beseenium.controller.Action</text>
<text text-anchor="middle" x="2331.5" y="-67.5" font-family="Helvetica,sans-Serif" font-size="10.00">Factory.elementActions.MakeIsSelected</text>
<polyline fill="none" stroke="black" points="2227.5,-60.5 2435.5,-60.5 "/>
<text text-anchor="middle" x="2331.5" y="-48.5" font-family="Helvetica,sans-Serif" font-size="10.00"> </text>
<polyline fill="none" stroke="black" points="2227.5,-41.5 2435.5,-41.5 "/>
<text text-anchor="start" x="2235.5" y="-29.5" font-family="Helvetica,sans-Serif" font-size="10.00">+ MakeIsSelected()</text>
<text text-anchor="start" x="2235.5" y="-18.5" font-family="Helvetica,sans-Serif" font-size="10.00">+ makeAction()</text>
</a>
</g>
</g>
<!-- Node1&#45;&gt;Node12 -->
<g id="edge11" class="edge"><title>Node1&#45;&gt;Node12</title>
<path fill="none" stroke="midnightblue" d="M3183.9,-172.751C3002.06,-163.149 2582.59,-137.793 2444.5,-102 2433.08,-99.0395 2421.35,-95.0432 2409.97,-90.5928"/>
<polygon fill="none" stroke="midnightblue" points="3183.79,-176.25 3193.96,-173.279 3184.16,-169.259 3183.79,-176.25"/>
</g>
<!-- Node13 -->
<g id="node13" class="node"><title>Node13</title>
<g id="a_node13"><a xlink:href="a00105.html" target="_top" xlink:title="creates a new SendKeys action ">
<polygon fill="white" stroke="black" points="2453.5,-11.5 2453.5,-90.5 2659.5,-90.5 2659.5,-11.5 2453.5,-11.5"/>
<text text-anchor="start" x="2461.5" y="-78.5" font-family="Helvetica,sans-Serif" font-size="10.00">beseenium.controller.Action</text>
<text text-anchor="middle" x="2556.5" y="-67.5" font-family="Helvetica,sans-Serif" font-size="10.00">Factory.elementActions.MakeSendKeys</text>
<polyline fill="none" stroke="black" points="2453.5,-60.5 2659.5,-60.5 "/>
<text text-anchor="middle" x="2556.5" y="-48.5" font-family="Helvetica,sans-Serif" font-size="10.00"> </text>
<polyline fill="none" stroke="black" points="2453.5,-41.5 2659.5,-41.5 "/>
<text text-anchor="start" x="2461.5" y="-29.5" font-family="Helvetica,sans-Serif" font-size="10.00">+ MakeSendKeys()</text>
<text text-anchor="start" x="2461.5" y="-18.5" font-family="Helvetica,sans-Serif" font-size="10.00">+ makeAction()</text>
</a>
</g>
</g>
<!-- Node1&#45;&gt;Node13 -->
<g id="edge12" class="edge"><title>Node1&#45;&gt;Node13</title>
<path fill="none" stroke="midnightblue" d="M3183.54,-174.229C3065.47,-168.64 2847.37,-151.892 2668.5,-102 2657.53,-98.9392 2646.25,-94.974 2635.27,-90.6161"/>
<polygon fill="none" stroke="midnightblue" points="3183.46,-177.729 3193.61,-174.69 3183.78,-170.737 3183.46,-177.729"/>
</g>
<!-- Node14 -->
<g id="node14" class="node"><title>Node14</title>
<g id="a_node14"><a xlink:href="a00106.html" target="_top" xlink:title="creates a new Submit action ">
<polygon fill="white" stroke="black" points="2678,-11.5 2678,-90.5 2871,-90.5 2871,-11.5 2678,-11.5"/>
<text text-anchor="start" x="2686" y="-78.5" font-family="Helvetica,sans-Serif" font-size="10.00">beseenium.controller.Action</text>
<text text-anchor="middle" x="2774.5" y="-67.5" font-family="Helvetica,sans-Serif" font-size="10.00">Factory.elementActions.MakeSubmit</text>
<polyline fill="none" stroke="black" points="2678,-60.5 2871,-60.5 "/>
<text text-anchor="middle" x="2774.5" y="-48.5" font-family="Helvetica,sans-Serif" font-size="10.00"> </text>
<polyline fill="none" stroke="black" points="2678,-41.5 2871,-41.5 "/>
<text text-anchor="start" x="2686" y="-29.5" font-family="Helvetica,sans-Serif" font-size="10.00">+ MakeSubmit()</text>
<text text-anchor="start" x="2686" y="-18.5" font-family="Helvetica,sans-Serif" font-size="10.00">+ makeAction()</text>
</a>
</g>
</g>
<!-- Node1&#45;&gt;Node14 -->
<g id="edge13" class="edge"><title>Node1&#45;&gt;Node14</title>
<path fill="none" stroke="midnightblue" d="M3183.87,-166.768C3104,-155.762 2982.23,-135.217 2880.5,-102 2870.54,-98.7474 2860.3,-94.78 2850.29,-90.5169"/>
<polygon fill="none" stroke="midnightblue" points="3183.5,-170.25 3193.88,-168.128 3184.44,-163.314 3183.5,-170.25"/>
</g>
<!-- Node15 -->
<g id="node15" class="node"><title>Node15</title>
<g id="a_node15"><a xlink:href="a00078.html" target="_top" xlink:title="Creates a new FindElementsByClass action. ">
<polygon fill="white" stroke="black" points="2889,-6 2889,-96 3066,-96 3066,-6 2889,-6"/>
<text text-anchor="start" x="2897" y="-84" font-family="Helvetica,sans-Serif" font-size="10.00">beseenium.controller.Action</text>
<text text-anchor="start" x="2897" y="-73" font-family="Helvetica,sans-Serif" font-size="10.00">Factory.findElementsBy.MakeFind</text>
<text text-anchor="middle" x="2977.5" y="-62" font-family="Helvetica,sans-Serif" font-size="10.00">ElementsByClass</text>
<polyline fill="none" stroke="black" points="2889,-55 3066,-55 "/>
<text text-anchor="middle" x="2977.5" y="-43" font-family="Helvetica,sans-Serif" font-size="10.00"> </text>
<polyline fill="none" stroke="black" points="2889,-36 3066,-36 "/>
<text text-anchor="start" x="2897" y="-24" font-family="Helvetica,sans-Serif" font-size="10.00">+ MakeFindElementsByClass()</text>
<text text-anchor="start" x="2897" y="-13" font-family="Helvetica,sans-Serif" font-size="10.00">+ makeAction()</text>
</a>
</g>
</g>
<!-- Node1&#45;&gt;Node15 -->
<g id="edge14" class="edge"><title>Node1&#45;&gt;Node15</title>
<path fill="none" stroke="midnightblue" d="M3184.2,-146.192C3150.07,-133.306 3110.61,-117.691 3075.5,-102 3071.23,-100.09 3066.88,-98.0884 3062.5,-96.0291"/>
<polygon fill="none" stroke="midnightblue" points="3183.08,-149.512 3193.68,-149.752 3185.55,-142.959 3183.08,-149.512"/>
</g>
<!-- Node16 -->
<g id="node16" class="node"><title>Node16</title>
<g id="a_node16"><a xlink:href="a00079.html" target="_top" xlink:title="Creates a new FindElementsByCss action. ">
<polygon fill="white" stroke="black" points="3084,-6 3084,-96 3261,-96 3261,-6 3084,-6"/>
<text text-anchor="start" x="3092" y="-84" font-family="Helvetica,sans-Serif" font-size="10.00">beseenium.controller.Action</text>
<text text-anchor="start" x="3092" y="-73" font-family="Helvetica,sans-Serif" font-size="10.00">Factory.findElementsBy.MakeFind</text>
<text text-anchor="middle" x="3172.5" y="-62" font-family="Helvetica,sans-Serif" font-size="10.00">ElementsByCss</text>
<polyline fill="none" stroke="black" points="3084,-55 3261,-55 "/>
<text text-anchor="middle" x="3172.5" y="-43" font-family="Helvetica,sans-Serif" font-size="10.00"> </text>
<polyline fill="none" stroke="black" points="3084,-36 3261,-36 "/>
<text text-anchor="start" x="3092" y="-24" font-family="Helvetica,sans-Serif" font-size="10.00">+ MakeFindElementsByCss()</text>
<text text-anchor="start" x="3092" y="-13" font-family="Helvetica,sans-Serif" font-size="10.00">+ makeAction()</text>
</a>
</g>
</g>
<!-- Node1&#45;&gt;Node16 -->
<g id="edge15" class="edge"><title>Node1&#45;&gt;Node16</title>
<path fill="none" stroke="midnightblue" d="M3233.4,-130.484C3224.72,-119.299 3215.48,-107.383 3206.88,-96.3026"/>
<polygon fill="none" stroke="midnightblue" points="3230.71,-132.721 3239.61,-138.476 3236.24,-128.43 3230.71,-132.721"/>
</g>
<!-- Node17 -->
<g id="node17" class="node"><title>Node17</title>
<g id="a_node17"><a xlink:href="a00080.html" target="_top" xlink:title="creates a new FindElementsById action ">
<polygon fill="white" stroke="black" points="3279,-6 3279,-96 3456,-96 3456,-6 3279,-6"/>
<text text-anchor="start" x="3287" y="-84" font-family="Helvetica,sans-Serif" font-size="10.00">beseenium.controller.Action</text>
<text text-anchor="start" x="3287" y="-73" font-family="Helvetica,sans-Serif" font-size="10.00">Factory.findElementsBy.MakeFind</text>
<text text-anchor="middle" x="3367.5" y="-62" font-family="Helvetica,sans-Serif" font-size="10.00">ElementsById</text>
<polyline fill="none" stroke="black" points="3279,-55 3456,-55 "/>
<text text-anchor="middle" x="3367.5" y="-43" font-family="Helvetica,sans-Serif" font-size="10.00"> </text>
<polyline fill="none" stroke="black" points="3279,-36 3456,-36 "/>
<text text-anchor="start" x="3287" y="-24" font-family="Helvetica,sans-Serif" font-size="10.00">+ MakeFindElementsById()</text>
<text text-anchor="start" x="3287" y="-13" font-family="Helvetica,sans-Serif" font-size="10.00">+ makeAction()</text>
</a>
</g>
</g>
<!-- Node1&#45;&gt;Node17 -->
<g id="edge16" class="edge"><title>Node1&#45;&gt;Node17</title>
<path fill="none" stroke="midnightblue" d="M3305.97,-130.484C3314.74,-119.299 3324.08,-107.383 3332.77,-96.3026"/>
<polygon fill="none" stroke="midnightblue" points="3303.12,-128.447 3299.7,-138.476 3308.63,-132.766 3303.12,-128.447"/>
</g>
<!-- Node18 -->
<g id="node18" class="node"><title>Node18</title>
<g id="a_node18"><a xlink:href="a00081.html" target="_top" xlink:title="creates a new FindElementsByLinkTxt action ">
<polygon fill="white" stroke="black" points="3474,-6 3474,-96 3651,-96 3651,-6 3474,-6"/>
<text text-anchor="start" x="3482" y="-84" font-family="Helvetica,sans-Serif" font-size="10.00">beseenium.controller.Action</text>
<text text-anchor="start" x="3482" y="-73" font-family="Helvetica,sans-Serif" font-size="10.00">Factory.findElementsBy.MakeFind</text>
<text text-anchor="middle" x="3562.5" y="-62" font-family="Helvetica,sans-Serif" font-size="10.00">ElementsByLinkTxt</text>
<polyline fill="none" stroke="black" points="3474,-55 3651,-55 "/>
<text text-anchor="middle" x="3562.5" y="-43" font-family="Helvetica,sans-Serif" font-size="10.00"> </text>
<polyline fill="none" stroke="black" points="3474,-36 3651,-36 "/>
<text text-anchor="start" x="3482" y="-24" font-family="Helvetica,sans-Serif" font-size="10.00">+ MakeFindElementsByLinkTxt()</text>
<text text-anchor="start" x="3482" y="-13" font-family="Helvetica,sans-Serif" font-size="10.00">+ makeAction()</text>
</a>
</g>
</g>
<!-- Node1&#45;&gt;Node18 -->
<g id="edge17" class="edge"><title>Node1&#45;&gt;Node18</title>
<path fill="none" stroke="midnightblue" d="M3354.81,-146.399C3389.21,-133.487 3429.07,-117.799 3464.5,-102 3468.77,-100.094 3473.13,-98.095 3477.51,-96.0381"/>
<polygon fill="none" stroke="midnightblue" points="3353.4,-143.188 3345.26,-149.965 3355.85,-149.746 3353.4,-143.188"/>
</g>
<!-- Node19 -->
<g id="node19" class="node"><title>Node19</title>
<g id="a_node19"><a xlink:href="a00082.html" target="_top" xlink:title="creates a new FindElementsByName action ">
<polygon fill="white" stroke="black" points="3669,-6 3669,-96 3846,-96 3846,-6 3669,-6"/>
<text text-anchor="start" x="3677" y="-84" font-family="Helvetica,sans-Serif" font-size="10.00">beseenium.controller.Action</text>
<text text-anchor="start" x="3677" y="-73" font-family="Helvetica,sans-Serif" font-size="10.00">Factory.findElementsBy.MakeFind</text>
<text text-anchor="middle" x="3757.5" y="-62" font-family="Helvetica,sans-Serif" font-size="10.00">ElementsByName</text>
<polyline fill="none" stroke="black" points="3669,-55 3846,-55 "/>
<text text-anchor="middle" x="3757.5" y="-43" font-family="Helvetica,sans-Serif" font-size="10.00"> </text>
<polyline fill="none" stroke="black" points="3669,-36 3846,-36 "/>
<text text-anchor="start" x="3677" y="-24" font-family="Helvetica,sans-Serif" font-size="10.00">+ MakeFindElementsByName()</text>
<text text-anchor="start" x="3677" y="-13" font-family="Helvetica,sans-Serif" font-size="10.00">+ makeAction()</text>
</a>
</g>
</g>
<!-- Node1&#45;&gt;Node19 -->
<g id="edge18" class="edge"><title>Node1&#45;&gt;Node19</title>
<path fill="none" stroke="midnightblue" d="M3355.22,-167.571C3435.46,-157.108 3557.88,-136.907 3659.5,-102 3664.65,-100.231 3669.86,-98.2371 3675.07,-96.0889"/>
<polygon fill="none" stroke="midnightblue" points="3354.64,-164.118 3345.17,-168.861 3355.53,-171.061 3354.64,-164.118"/>
</g>
<!-- Node20 -->
<g id="node20" class="node"><title>Node20</title>
<g id="a_node20"><a xlink:href="a00083.html" target="_top" xlink:title="creates a new FindElementsByPartialLinkTxt action ">
<polygon fill="white" stroke="black" points="3864,-0.5 3864,-101.5 4041,-101.5 4041,-0.5 3864,-0.5"/>
<text text-anchor="start" x="3872" y="-89.5" font-family="Helvetica,sans-Serif" font-size="10.00">beseenium.controller.Action</text>
<text text-anchor="start" x="3872" y="-78.5" font-family="Helvetica,sans-Serif" font-size="10.00">Factory.findElementsBy.MakeFind</text>
<text text-anchor="middle" x="3952.5" y="-67.5" font-family="Helvetica,sans-Serif" font-size="10.00">ElementsByPartialLinkTxt</text>
<polyline fill="none" stroke="black" points="3864,-60.5 4041,-60.5 "/>
<text text-anchor="middle" x="3952.5" y="-48.5" font-family="Helvetica,sans-Serif" font-size="10.00"> </text>
<polyline fill="none" stroke="black" points="3864,-41.5 4041,-41.5 "/>
<text text-anchor="start" x="3872" y="-29.5" font-family="Helvetica,sans-Serif" font-size="10.00">+ MakeFindElementsByPartial</text>
<text text-anchor="start" x="3872" y="-18.5" font-family="Helvetica,sans-Serif" font-size="10.00">LinkTxt()</text>
<text text-anchor="start" x="3872" y="-7.5" font-family="Helvetica,sans-Serif" font-size="10.00">+ makeAction()</text>
</a>
</g>
</g>
<!-- Node1&#45;&gt;Node20 -->
<g id="edge19" class="edge"><title>Node1&#45;&gt;Node20</title>
<path fill="none" stroke="midnightblue" d="M3355.33,-175.166C3471.11,-170.643 3682.61,-155.104 3854.5,-102 3857.6,-101.042 3860.72,-99.9899 3863.85,-98.8616"/>
<polygon fill="none" stroke="midnightblue" points="3354.98,-171.677 3345.12,-175.546 3355.24,-178.672 3354.98,-171.677"/>
</g>
<!-- Node21 -->
<g id="node21" class="node"><title>Node21</title>
<g id="a_node21"><a xlink:href="a00084.html" target="_top" xlink:title="creates a new FindElementsByTagName action ">
<polygon fill="white" stroke="black" points="4059.5,-6 4059.5,-96 4243.5,-96 4243.5,-6 4059.5,-6"/>
<text text-anchor="start" x="4067.5" y="-84" font-family="Helvetica,sans-Serif" font-size="10.00">beseenium.controller.Action</text>
<text text-anchor="start" x="4067.5" y="-73" font-family="Helvetica,sans-Serif" font-size="10.00">Factory.findElementsBy.MakeFind</text>
<text text-anchor="middle" x="4151.5" y="-62" font-family="Helvetica,sans-Serif" font-size="10.00">ElementsByTagName</text>
<polyline fill="none" stroke="black" points="4059.5,-55 4243.5,-55 "/>
<text text-anchor="middle" x="4151.5" y="-43" font-family="Helvetica,sans-Serif" font-size="10.00"> </text>
<polyline fill="none" stroke="black" points="4059.5,-36 4243.5,-36 "/>
<text text-anchor="start" x="4067.5" y="-24" font-family="Helvetica,sans-Serif" font-size="10.00">+ MakeFindElementsByTagName()</text>
<text text-anchor="start" x="4067.5" y="-13" font-family="Helvetica,sans-Serif" font-size="10.00">+ makeAction()</text>
</a>
</g>
</g>
<!-- Node1&#45;&gt;Node21 -->
<g id="edge20" class="edge"><title>Node1&#45;&gt;Node21</title>
<path fill="none" stroke="midnightblue" d="M3355.25,-172.64C3529.83,-163.13 3920.84,-138.416 4049.5,-102 4055.48,-100.308 4061.53,-98.2757 4067.54,-96.012"/>
<polygon fill="none" stroke="midnightblue" points="3354.88,-169.155 3345.08,-173.19 3355.26,-176.145 3354.88,-169.155"/>
</g>
<!-- Node22 -->
<g id="node22" class="node"><title>Node22</title>
<g id="a_node22"><a xlink:href="a00085.html" target="_top" xlink:title="creates a new FindElementsByXpath action ">
<polygon fill="white" stroke="black" points="4262,-6 4262,-96 4439,-96 4439,-6 4262,-6"/>
<text text-anchor="start" x="4270" y="-84" font-family="Helvetica,sans-Serif" font-size="10.00">beseenium.controller.Action</text>
<text text-anchor="start" x="4270" y="-73" font-family="Helvetica,sans-Serif" font-size="10.00">Factory.findElementsBy.MakeFind</text>
<text text-anchor="middle" x="4350.5" y="-62" font-family="Helvetica,sans-Serif" font-size="10.00">ElementsByXpath</text>
<polyline fill="none" stroke="black" points="4262,-55 4439,-55 "/>
<text text-anchor="middle" x="4350.5" y="-43" font-family="Helvetica,sans-Serif" font-size="10.00"> </text>
<polyline fill="none" stroke="black" points="4262,-36 4439,-36 "/>
<text text-anchor="start" x="4270" y="-24" font-family="Helvetica,sans-Serif" font-size="10.00">+ MakeFindElementsByXpath()</text>
<text text-anchor="start" x="4270" y="-13" font-family="Helvetica,sans-Serif" font-size="10.00">+ makeAction()</text>
</a>
</g>
</g>
<!-- Node1&#45;&gt;Node22 -->
<g id="edge21" class="edge"><title>Node1&#45;&gt;Node22</title>
<path fill="none" stroke="midnightblue" d="M3355.22,-174.781C3562.25,-168.73 4084.79,-149.131 4252.5,-102 4258.38,-100.346 4264.33,-98.3249 4270.23,-96.0534"/>
<polygon fill="none" stroke="midnightblue" points="3354.91,-171.289 3345.01,-175.076 3355.11,-178.286 3354.91,-171.289"/>
</g>
<!-- Node23 -->
<g id="node23" class="node"><title>Node23</title>
<g id="a_node23"><a xlink:href="a00100.html" target="_top" xlink:title="creates new NavigateBack action ">
<polygon fill="white" stroke="black" points="4457.5,-11.5 4457.5,-90.5 4683.5,-90.5 4683.5,-11.5 4457.5,-11.5"/>
<text text-anchor="start" x="4465.5" y="-78.5" font-family="Helvetica,sans-Serif" font-size="10.00">beseenium.controller.Action</text>
<text text-anchor="middle" x="4570.5" y="-67.5" font-family="Helvetica,sans-Serif" font-size="10.00">Factory.navigateActions.MakeNavigateBack</text>
<polyline fill="none" stroke="black" points="4457.5,-60.5 4683.5,-60.5 "/>
<text text-anchor="middle" x="4570.5" y="-48.5" font-family="Helvetica,sans-Serif" font-size="10.00"> </text>
<polyline fill="none" stroke="black" points="4457.5,-41.5 4683.5,-41.5 "/>
<text text-anchor="start" x="4465.5" y="-29.5" font-family="Helvetica,sans-Serif" font-size="10.00">+ MakeNavigateBack()</text>
<text text-anchor="start" x="4465.5" y="-18.5" font-family="Helvetica,sans-Serif" font-size="10.00">+ makeAction()</text>
</a>
</g>
</g>
<!-- Node1&#45;&gt;Node23 -->
<g id="edge22" class="edge"><title>Node1&#45;&gt;Node23</title>
<path fill="none" stroke="midnightblue" d="M3355.35,-175.113C3590.19,-169.383 4239.46,-149.58 4447.5,-102 4460.08,-99.122 4473.05,-95.1106 4485.62,-90.5993"/>
<polygon fill="none" stroke="midnightblue" points="3355.07,-171.619 3345.16,-175.359 3355.24,-178.617 3355.07,-171.619"/>
</g>
<!-- Node24 -->
<g id="node24" class="node"><title>Node24</title>
<g id="a_node24"><a xlink:href="a00101.html" target="_top" xlink:title="create new NavigateForwards action ">
<polygon fill="white" stroke="black" points="4702,-6 4702,-96 4905,-96 4905,-6 4702,-6"/>
<text text-anchor="start" x="4710" y="-84" font-family="Helvetica,sans-Serif" font-size="10.00">beseenium.controller.Action</text>
<text text-anchor="start" x="4710" y="-73" font-family="Helvetica,sans-Serif" font-size="10.00">Factory.navigateActions.MakeNavigate</text>
<text text-anchor="middle" x="4803.5" y="-62" font-family="Helvetica,sans-Serif" font-size="10.00">Forward</text>
<polyline fill="none" stroke="black" points="4702,-55 4905,-55 "/>
<text text-anchor="middle" x="4803.5" y="-43" font-family="Helvetica,sans-Serif" font-size="10.00"> </text>
<polyline fill="none" stroke="black" points="4702,-36 4905,-36 "/>
<text text-anchor="start" x="4710" y="-24" font-family="Helvetica,sans-Serif" font-size="10.00">+ MakeNavigateForward()</text>
<text text-anchor="start" x="4710" y="-13" font-family="Helvetica,sans-Serif" font-size="10.00">+ makeAction()</text>
</a>
</g>
</g>
<!-- Node1&#45;&gt;Node24 -->
<g id="edge23" class="edge"><title>Node1&#45;&gt;Node24</title>
<path fill="none" stroke="midnightblue" d="M3355.21,-176.616C3622.24,-174.772 4436.59,-164.069 4692.5,-102 4699.18,-100.381 4705.95,-98.3671 4712.68,-96.0848"/>
<polygon fill="none" stroke="midnightblue" points="3355.16,-173.116 3345.18,-176.683 3355.2,-180.116 3355.16,-173.116"/>
</g>
<!-- Node25 -->
<g id="node25" class="node"><title>Node25</title>
<g id="a_node25"><a xlink:href="a00104.html" target="_top" xlink:title="creates a new RefreshPage action ">
<polygon fill="white" stroke="black" points="4923.5,-11.5 4923.5,-90.5 5143.5,-90.5 5143.5,-11.5 4923.5,-11.5"/>
<text text-anchor="start" x="4931.5" y="-78.5" font-family="Helvetica,sans-Serif" font-size="10.00">beseenium.controller.Action</text>
<text text-anchor="middle" x="5033.5" y="-67.5" font-family="Helvetica,sans-Serif" font-size="10.00">Factory.navigateActions.MakeRefreshPage</text>
<polyline fill="none" stroke="black" points="4923.5,-60.5 5143.5,-60.5 "/>
<text text-anchor="middle" x="5033.5" y="-48.5" font-family="Helvetica,sans-Serif" font-size="10.00"> </text>
<polyline fill="none" stroke="black" points="4923.5,-41.5 5143.5,-41.5 "/>
<text text-anchor="start" x="4931.5" y="-29.5" font-family="Helvetica,sans-Serif" font-size="10.00">+ MakeRefreshPage()</text>
<text text-anchor="start" x="4931.5" y="-18.5" font-family="Helvetica,sans-Serif" font-size="10.00">+ makeAction()</text>
</a>
</g>
</g>
<!-- Node1&#45;&gt;Node25 -->
<g id="edge24" class="edge"><title>Node1&#45;&gt;Node25</title>
<path fill="none" stroke="midnightblue" d="M3355.56,-177.015C3649.55,-176.451 4612.46,-169.378 4913.5,-102 4926.05,-99.1902 4938.97,-95.1528 4951.46,-90.5739"/>
<polygon fill="none" stroke="midnightblue" points="3355.38,-173.515 3345.39,-177.032 3355.39,-180.515 3355.38,-173.515"/>
</g>
<!-- Node26 -->
<g id="node26" class="node"><title>Node26</title>
<g id="a_node26"><a xlink:href="a00074.html" target="_top" xlink:title="creates a new BrowserQuit action ">
<polygon fill="white" stroke="black" points="5161.5,-11.5 5161.5,-90.5 5361.5,-90.5 5361.5,-11.5 5161.5,-11.5"/>
<text text-anchor="start" x="5169.5" y="-78.5" font-family="Helvetica,sans-Serif" font-size="10.00">beseenium.controller.Action</text>
<text text-anchor="middle" x="5261.5" y="-67.5" font-family="Helvetica,sans-Serif" font-size="10.00">Factory.pageActions.MakeBrowserQuit</text>
<polyline fill="none" stroke="black" points="5161.5,-60.5 5361.5,-60.5 "/>
<text text-anchor="middle" x="5261.5" y="-48.5" font-family="Helvetica,sans-Serif" font-size="10.00"> </text>
<polyline fill="none" stroke="black" points="5161.5,-41.5 5361.5,-41.5 "/>
<text text-anchor="start" x="5169.5" y="-29.5" font-family="Helvetica,sans-Serif" font-size="10.00">+ MakeBrowserQuit()</text>
<text text-anchor="start" x="5169.5" y="-18.5" font-family="Helvetica,sans-Serif" font-size="10.00">+ makeAction()</text>
</a>
</g>
</g>
<!-- Node1&#45;&gt;Node26 -->
<g id="edge25" class="edge"><title>Node1&#45;&gt;Node26</title>
<path fill="none" stroke="midnightblue" d="M3355.25,-175.544C3700.23,-169.418 4976.64,-144.094 5152.5,-102 5164.14,-99.2132 5176.05,-95.1559 5187.53,-90.5393"/>
<polygon fill="none" stroke="midnightblue" points="3355.01,-172.047 3345.07,-175.724 3355.13,-179.046 3355.01,-172.047"/>
</g>
<!-- Node27 -->
<g id="node27" class="node"><title>Node27</title>
<g id="a_node27"><a xlink:href="a00090.html" target="_top" xlink:title="creates a new GetPageSrc action ">
<polygon fill="white" stroke="black" points="5379.5,-11.5 5379.5,-90.5 5579.5,-90.5 5579.5,-11.5 5379.5,-11.5"/>
<text text-anchor="start" x="5387.5" y="-78.5" font-family="Helvetica,sans-Serif" font-size="10.00">beseenium.controller.Action</text>
<text text-anchor="middle" x="5479.5" y="-67.5" font-family="Helvetica,sans-Serif" font-size="10.00">Factory.pageActions.MakeGetPageSrc</text>
<polyline fill="none" stroke="black" points="5379.5,-60.5 5579.5,-60.5 "/>
<text text-anchor="middle" x="5479.5" y="-48.5" font-family="Helvetica,sans-Serif" font-size="10.00"> </text>
<polyline fill="none" stroke="black" points="5379.5,-41.5 5579.5,-41.5 "/>
<text text-anchor="start" x="5387.5" y="-29.5" font-family="Helvetica,sans-Serif" font-size="10.00">+ MakeGetPageSrc()</text>
<text text-anchor="start" x="5387.5" y="-18.5" font-family="Helvetica,sans-Serif" font-size="10.00">+ makeAction()</text>
</a>
</g>
</g>
<!-- Node1&#45;&gt;Node27 -->
<g id="edge26" class="edge"><title>Node1&#45;&gt;Node27</title>
<path fill="none" stroke="midnightblue" d="M3355.18,-175.926C3724.74,-171.024 5172.48,-148.967 5370.5,-102 5382.15,-99.2373 5394.06,-95.1931 5405.54,-90.5826"/>
<polygon fill="none" stroke="midnightblue" points="3355.04,-172.427 3345.09,-176.059 3355.13,-179.427 3355.04,-172.427"/>
</g>
<!-- Node28 -->
<g id="node28" class="node"><title>Node28</title>
<g id="a_node28"><a xlink:href="a00094.html" target="_top" xlink:title="creates a new GetTitle action ">
<polygon fill="white" stroke="black" points="5598,-11.5 5598,-90.5 5777,-90.5 5777,-11.5 5598,-11.5"/>
<text text-anchor="start" x="5606" y="-78.5" font-family="Helvetica,sans-Serif" font-size="10.00">beseenium.controller.Action</text>
<text text-anchor="middle" x="5687.5" y="-67.5" font-family="Helvetica,sans-Serif" font-size="10.00">Factory.pageActions.MakeGetTitle</text>
<polyline fill="none" stroke="black" points="5598,-60.5 5777,-60.5 "/>
<text text-anchor="middle" x="5687.5" y="-48.5" font-family="Helvetica,sans-Serif" font-size="10.00"> </text>
<polyline fill="none" stroke="black" points="5598,-41.5 5777,-41.5 "/>
<text text-anchor="start" x="5606" y="-29.5" font-family="Helvetica,sans-Serif" font-size="10.00">+ MakeGetTitle()</text>
<text text-anchor="start" x="5606" y="-18.5" font-family="Helvetica,sans-Serif" font-size="10.00">+ makeAction()</text>
</a>
</g>
</g>
<!-- Node1&#45;&gt;Node28 -->
<g id="edge27" class="edge"><title>Node1&#45;&gt;Node28</title>
<path fill="none" stroke="midnightblue" d="M3355.22,-176.421C3748.36,-173.47 5369.26,-157.983 5588.5,-102 5599.32,-99.2369 5610.32,-95.1594 5620.86,-90.5047"/>
<polygon fill="none" stroke="midnightblue" points="3355.02,-172.922 3345.05,-176.497 3355.07,-179.922 3355.02,-172.922"/>
</g>
<!-- Node29 -->
<g id="node29" class="node"><title>Node29</title>
<g id="a_node29"><a xlink:href="a00095.html" target="_top" xlink:title="creates a new GetURL action ">
<polygon fill="white" stroke="black" points="5795,-11.5 5795,-90.5 5974,-90.5 5974,-11.5 5795,-11.5"/>
<text text-anchor="start" x="5803" y="-78.5" font-family="Helvetica,sans-Serif" font-size="10.00">beseenium.controller.Action</text>
<text text-anchor="middle" x="5884.5" y="-67.5" font-family="Helvetica,sans-Serif" font-size="10.00">Factory.pageActions.MakeGetURL</text>
<polyline fill="none" stroke="black" points="5795,-60.5 5974,-60.5 "/>
<text text-anchor="middle" x="5884.5" y="-48.5" font-family="Helvetica,sans-Serif" font-size="10.00"> </text>
<polyline fill="none" stroke="black" points="5795,-41.5 5974,-41.5 "/>
<text text-anchor="start" x="5803" y="-29.5" font-family="Helvetica,sans-Serif" font-size="10.00">+ MakeGetURL()</text>
<text text-anchor="start" x="5803" y="-18.5" font-family="Helvetica,sans-Serif" font-size="10.00">+ makeAction()</text>
</a>
</g>
</g>
<!-- Node1&#45;&gt;Node29 -->
<g id="edge28" class="edge"><title>Node1&#45;&gt;Node29</title>
<path fill="none" stroke="midnightblue" d="M3355.33,-176.676C3769.04,-174.817 5547.24,-163.292 5786.5,-102 5797.23,-99.2508 5808.13,-95.1808 5818.57,-90.5296"/>
<polygon fill="none" stroke="midnightblue" points="3355.21,-173.177 3345.23,-176.721 3355.24,-180.177 3355.21,-173.177"/>
</g>
<!-- Node30 -->
<g id="node30" class="node"><title>Node30</title>
<g id="a_node30"><a xlink:href="a00102.html" target="_top" xlink:title="creates a new PageClose action ">
<polygon fill="white" stroke="black" points="5992,-11.5 5992,-90.5 6185,-90.5 6185,-11.5 5992,-11.5"/>
<text text-anchor="start" x="6000" y="-78.5" font-family="Helvetica,sans-Serif" font-size="10.00">beseenium.controller.Action</text>
<text text-anchor="middle" x="6088.5" y="-67.5" font-family="Helvetica,sans-Serif" font-size="10.00">Factory.pageActions.MakePageClose</text>
<polyline fill="none" stroke="black" points="5992,-60.5 6185,-60.5 "/>
<text text-anchor="middle" x="6088.5" y="-48.5" font-family="Helvetica,sans-Serif" font-size="10.00"> </text>
<polyline fill="none" stroke="black" points="5992,-41.5 6185,-41.5 "/>
<text text-anchor="start" x="6000" y="-29.5" font-family="Helvetica,sans-Serif" font-size="10.00">+ MakePageClose()</text>
<text text-anchor="start" x="6000" y="-18.5" font-family="Helvetica,sans-Serif" font-size="10.00">+ makeAction()</text>
</a>
</g>
</g>
<!-- Node1&#45;&gt;Node30 -->
<g id="edge29" class="edge"><title>Node1&#45;&gt;Node30</title>
<path fill="none" stroke="midnightblue" d="M3355.55,-176.741C3789.05,-175.151 5723.31,-164.577 5983.5,-102 5994.89,-99.2616 6006.5,-95.1976 6017.66,-90.5491"/>
<polygon fill="none" stroke="midnightblue" points="3355.27,-173.242 3345.28,-176.778 3355.29,-180.242 3355.27,-173.242"/>
</g>
<!-- Node31 -->
<g id="node31" class="node"><title>Node31</title>
<g id="a_node31"><a xlink:href="a00103.html" target="_top" xlink:title="creates a new PageGet object ">
<polygon fill="white" stroke="black" points="6203.5,-11.5 6203.5,-90.5 6387.5,-90.5 6387.5,-11.5 6203.5,-11.5"/>
<text text-anchor="start" x="6211.5" y="-78.5" font-family="Helvetica,sans-Serif" font-size="10.00">beseenium.controller.Action</text>
<text text-anchor="middle" x="6295.5" y="-67.5" font-family="Helvetica,sans-Serif" font-size="10.00">Factory.pageActions.MakePageGet</text>
<polyline fill="none" stroke="black" points="6203.5,-60.5 6387.5,-60.5 "/>
<text text-anchor="middle" x="6295.5" y="-48.5" font-family="Helvetica,sans-Serif" font-size="10.00"> </text>
<polyline fill="none" stroke="black" points="6203.5,-41.5 6387.5,-41.5 "/>
<text text-anchor="start" x="6211.5" y="-29.5" font-family="Helvetica,sans-Serif" font-size="10.00">+ MakePageGet()</text>
<text text-anchor="start" x="6211.5" y="-18.5" font-family="Helvetica,sans-Serif" font-size="10.00">+ makeAction()</text>
</a>
</g>
</g>
<!-- Node1&#45;&gt;Node31 -->
<g id="edge30" class="edge"><title>Node1&#45;&gt;Node31</title>
<path fill="none" stroke="midnightblue" d="M3355.18,-177.002C3808.09,-176.722 5913.12,-171.653 6194.5,-102 6205.52,-99.2732 6216.72,-95.2155 6227.47,-90.5699"/>
<polygon fill="none" stroke="midnightblue" points="3355.11,-173.502 3345.11,-177.008 3355.11,-180.502 3355.11,-173.502"/>
</g>
</g>
</svg>
