<?xml version="1.0" encoding="UTF-8" standalone="no"?>
<!DOCTYPE svg PUBLIC "-//W3C//DTD SVG 1.1//EN"
 "http://www.w3.org/Graphics/SVG/1.1/DTD/svg11.dtd">
<!-- Generated by graphviz version 2.38.0 (20140413.2041)
 -->
<!-- Title: beseenium.model.action.AbstractAction Pages: 1 -->
<svg width="209pt" height="408pt"
 viewBox="0.00 0.00 209.50 408.00" xmlns="http://www.w3.org/2000/svg" xmlns:xlink="http://www.w3.org/1999/xlink">
<g id="graph0" class="graph" transform="scale(1 1) rotate(0) translate(4 404)">
<title>beseenium.model.action.AbstractAction</title>
<polygon fill="white" stroke="none" points="-4,4 -4,-404 205.5,-404 205.5,4 -4,4"/>
<!-- Node1 -->
<g id="node1" class="node"><title>Node1</title>
<polygon fill="#bfbfbf" stroke="black" points="22.5,-0.5 22.5,-101.5 201.5,-101.5 201.5,-0.5 22.5,-0.5"/>
<text text-anchor="start" x="30.5" y="-89.5" font-family="Helvetica,sans-Serif" font-size="10.00">beseenium.model.action.Abstract</text>
<text text-anchor="middle" x="112" y="-78.5" font-family="Helvetica,sans-Serif" font-size="10.00">Action</text>
<polyline fill="none" stroke="black" points="22.5,-71.5 201.5,-71.5 "/>
<text text-anchor="middle" x="112" y="-59.5" font-family="Helvetica,sans-Serif" font-size="10.00"> </text>
<polyline fill="none" stroke="black" points="22.5,-52.5 201.5,-52.5 "/>
<text text-anchor="start" x="30.5" y="-40.5" font-family="Helvetica,sans-Serif" font-size="10.00">+ getActionData()</text>
<text text-anchor="start" x="30.5" y="-29.5" font-family="Helvetica,sans-Serif" font-size="10.00">+ setActionData()</text>
<text text-anchor="start" x="30.5" y="-18.5" font-family="Helvetica,sans-Serif" font-size="10.00">+ execute()</text>
<text text-anchor="start" x="30.5" y="-7.5" font-family="Helvetica,sans-Serif" font-size="10.00"># AbstractAction()</text>
</g>
<!-- Node2 -->
<g id="node2" class="node"><title>Node2</title>
<g id="a_node2"><a xlink:href="a00014.html" target="_top" xlink:title="This class encapsulates the data needed to perform an action into 4 distinct areas: &#160;&#160;&#160;...">
<polygon fill="white" stroke="black" points="31.5,-149.5 31.5,-294.5 192.5,-294.5 192.5,-149.5 31.5,-149.5"/>
<text text-anchor="start" x="39.5" y="-282.5" font-family="Helvetica,sans-Serif" font-size="10.00">beseenium.model.actionData.</text>
<text text-anchor="middle" x="112" y="-271.5" font-family="Helvetica,sans-Serif" font-size="10.00">ActionData</text>
<polyline fill="none" stroke="black" points="31.5,-264.5 192.5,-264.5 "/>
<text text-anchor="start" x="39.5" y="-252.5" font-family="Helvetica,sans-Serif" font-size="10.00">&#45; inputParam</text>
<polyline fill="none" stroke="black" points="31.5,-245.5 192.5,-245.5 "/>
<text text-anchor="start" x="39.5" y="-233.5" font-family="Helvetica,sans-Serif" font-size="10.00">+ ActionData()</text>
<text text-anchor="start" x="39.5" y="-222.5" font-family="Helvetica,sans-Serif" font-size="10.00">+ ActionData()</text>
<text text-anchor="start" x="39.5" y="-211.5" font-family="Helvetica,sans-Serif" font-size="10.00">+ getInputParam()</text>
<text text-anchor="start" x="39.5" y="-200.5" font-family="Helvetica,sans-Serif" font-size="10.00">+ getElement()</text>
<text text-anchor="start" x="39.5" y="-189.5" font-family="Helvetica,sans-Serif" font-size="10.00">+ getDriver()</text>
<text text-anchor="start" x="39.5" y="-178.5" font-family="Helvetica,sans-Serif" font-size="10.00">+ setElement()</text>
<text text-anchor="start" x="39.5" y="-167.5" font-family="Helvetica,sans-Serif" font-size="10.00">+ setInputParam()</text>
<text text-anchor="start" x="39.5" y="-156.5" font-family="Helvetica,sans-Serif" font-size="10.00">+ setDriver()</text>
</a>
</g>
</g>
<!-- Node2&#45;&gt;Node1 -->
<g id="edge1" class="edge"><title>Node2&#45;&gt;Node1</title>
<path fill="none" stroke="#404040" d="M112,-149.329C112,-137.503 112,-125.334 112,-113.777"/>
<polygon fill="none" stroke="#404040" points="112,-113.523 108,-107.523 112,-101.523 116,-107.523 112,-113.523"/>
<text text-anchor="middle" x="136" y="-123" font-family="Helvetica,sans-Serif" font-size="10.00"> #context</text>
</g>
<!-- Node3 -->
<g id="node3" class="node"><title>Node3</title>
<polygon fill="white" stroke="#bfbfbf" points="0,-342.5 0,-399.5 116,-399.5 116,-342.5 0,-342.5"/>
<text text-anchor="middle" x="58" y="-387.5" font-family="Helvetica,sans-Serif" font-size="10.00">List&lt; WebElement &gt;</text>
<polyline fill="none" stroke="#bfbfbf" points="0,-380.5 116,-380.5 "/>
<text text-anchor="middle" x="58" y="-368.5" font-family="Helvetica,sans-Serif" font-size="10.00"> </text>
<polyline fill="none" stroke="#bfbfbf" points="0,-361.5 116,-361.5 "/>
<text text-anchor="middle" x="58" y="-349.5" font-family="Helvetica,sans-Serif" font-size="10.00"> </text>
</g>
<!-- Node3&#45;&gt;Node2 -->
<g id="edge2" class="edge"><title>Node3&#45;&gt;Node2</title>
<path fill="none" stroke="#404040" d="M68.157,-342.35C72.0323,-331.801 76.6783,-319.153 81.4754,-306.095"/>
<polygon fill="none" stroke="#404040" points="81.5764,-305.82 79.8907,-298.808 85.7143,-294.555 87.4001,-301.567 81.5764,-305.82"/>
<text text-anchor="middle" x="102.5" y="-316" font-family="Helvetica,sans-Serif" font-size="10.00"> &#45;element</text>
</g>
<!-- Node4 -->
<g id="node4" class="node"><title>Node4</title>
<polygon fill="white" stroke="#bfbfbf" points="134.5,-342.5 134.5,-399.5 199.5,-399.5 199.5,-342.5 134.5,-342.5"/>
<text text-anchor="middle" x="167" y="-387.5" font-family="Helvetica,sans-Serif" font-size="10.00">WebDriver</text>
<polyline fill="none" stroke="#bfbfbf" points="134.5,-380.5 199.5,-380.5 "/>
<text text-anchor="middle" x="167" y="-368.5" font-family="Helvetica,sans-Serif" font-size="10.00"> </text>
<polyline fill="none" stroke="#bfbfbf" points="134.5,-361.5 199.5,-361.5 "/>
<text text-anchor="middle" x="167" y="-349.5" font-family="Helvetica,sans-Serif" font-size="10.00"> </text>
</g>
<!-- Node4&#45;&gt;Node2 -->
<g id="edge3" class="edge"><title>Node4&#45;&gt;Node2</title>
<path fill="none" stroke="#404040" d="M156.655,-342.35C152.708,-331.801 147.976,-319.153 143.09,-306.095"/>
<polygon fill="none" stroke="#404040" points="142.978,-305.795 137.129,-301.577 138.772,-294.555 144.621,-298.773 142.978,-305.795"/>
<text text-anchor="middle" x="167" y="-316" font-family="Helvetica,sans-Serif" font-size="10.00"> &#45;driver</text>
</g>
</g>
</svg>
