<?xml version="1.0" encoding="UTF-8" standalone="no"?>
<!DOCTYPE svg PUBLIC "-//W3C//DTD SVG 1.1//EN"
 "http://www.w3.org/Graphics/SVG/1.1/DTD/svg11.dtd">
<!-- Generated by graphviz version 2.38.0 (20140413.2041)
 -->
<!-- Title: beseenium.model.action.AbstractAction Pages: 1 -->
<svg width="6357pt" height="237pt"
 viewBox="0.00 0.00 6357.00 237.00" xmlns="http://www.w3.org/2000/svg" xmlns:xlink="http://www.w3.org/1999/xlink">
<g id="graph0" class="graph" transform="scale(1 1) rotate(0) translate(4 233)">
<title>beseenium.model.action.AbstractAction</title>
<polygon fill="white" stroke="none" points="-4,4 -4,-233 6353,-233 6353,4 -4,4"/>
<!-- Node1 -->
<g id="node1" class="node"><title>Node1</title>
<polygon fill="#bfbfbf" stroke="black" points="3117.5,-127.5 3117.5,-228.5 3296.5,-228.5 3296.5,-127.5 3117.5,-127.5"/>
<text text-anchor="start" x="3125.5" y="-216.5" font-family="Helvetica,sans-Serif" font-size="10.00">beseenium.model.action.Abstract</text>
<text text-anchor="middle" x="3207" y="-205.5" font-family="Helvetica,sans-Serif" font-size="10.00">Action</text>
<polyline fill="none" stroke="black" points="3117.5,-198.5 3296.5,-198.5 "/>
<text text-anchor="start" x="3125.5" y="-186.5" font-family="Helvetica,sans-Serif" font-size="10.00"># context</text>
<polyline fill="none" stroke="black" points="3117.5,-179.5 3296.5,-179.5 "/>
<text text-anchor="start" x="3125.5" y="-167.5" font-family="Helvetica,sans-Serif" font-size="10.00">+ getActionData()</text>
<text text-anchor="start" x="3125.5" y="-156.5" font-family="Helvetica,sans-Serif" font-size="10.00">+ setActionData()</text>
<text text-anchor="start" x="3125.5" y="-145.5" font-family="Helvetica,sans-Serif" font-size="10.00">+ execute()</text>
<text text-anchor="start" x="3125.5" y="-134.5" font-family="Helvetica,sans-Serif" font-size="10.00"># AbstractAction()</text>
</g>
<!-- Node2 -->
<g id="node2" class="node"><title>Node2</title>
<g id="a_node2"><a xlink:href="a00035.html" target="_top" xlink:title="This represents a clear action, it will have no effect unless the element that this action is perform...">
<polygon fill="white" stroke="black" points="0,-6 0,-85 178,-85 178,-6 0,-6"/>
<text text-anchor="start" x="8" y="-73" font-family="Helvetica,sans-Serif" font-size="10.00">beseenium.model.action.element</text>
<text text-anchor="middle" x="89" y="-62" font-family="Helvetica,sans-Serif" font-size="10.00">Actions.Clear</text>
<polyline fill="none" stroke="black" points="0,-55 178,-55 "/>
<text text-anchor="middle" x="89" y="-43" font-family="Helvetica,sans-Serif" font-size="10.00"> </text>
<polyline fill="none" stroke="black" points="0,-36 178,-36 "/>
<text text-anchor="start" x="8" y="-24" font-family="Helvetica,sans-Serif" font-size="10.00">+ Clear()</text>
<text text-anchor="start" x="8" y="-13" font-family="Helvetica,sans-Serif" font-size="10.00">+ execute()</text>
</a>
</g>
</g>
<!-- Node1&#45;&gt;Node2 -->
<g id="edge1" class="edge"><title>Node1&#45;&gt;Node2</title>
<path fill="none" stroke="midnightblue" d="M3107.12,-176.502C2616.79,-173.743 476.298,-157.931 187,-91 180.264,-89.4416 173.428,-87.4041 166.662,-85.0586"/>
<polygon fill="none" stroke="midnightblue" points="3107.34,-180.003 3117.36,-176.559 3107.38,-173.004 3107.34,-180.003"/>
</g>
<!-- Node3 -->
<g id="node3" class="node"><title>Node3</title>
<g id="a_node3"><a xlink:href="a00036.html" target="_top" xlink:title="This is a click action,. ">
<polygon fill="white" stroke="black" points="196,-6 196,-85 374,-85 374,-6 196,-6"/>
<text text-anchor="start" x="204" y="-73" font-family="Helvetica,sans-Serif" font-size="10.00">beseenium.model.action.element</text>
<text text-anchor="middle" x="285" y="-62" font-family="Helvetica,sans-Serif" font-size="10.00">Actions.Click</text>
<polyline fill="none" stroke="black" points="196,-55 374,-55 "/>
<text text-anchor="middle" x="285" y="-43" font-family="Helvetica,sans-Serif" font-size="10.00"> </text>
<polyline fill="none" stroke="black" points="196,-36 374,-36 "/>
<text text-anchor="start" x="204" y="-24" font-family="Helvetica,sans-Serif" font-size="10.00">+ Click()</text>
<text text-anchor="start" x="204" y="-13" font-family="Helvetica,sans-Serif" font-size="10.00">+ execute()</text>
</a>
</g>
</g>
<!-- Node1&#45;&gt;Node3 -->
<g id="edge2" class="edge"><title>Node1&#45;&gt;Node3</title>
<path fill="none" stroke="midnightblue" d="M3107.14,-176.289C2636.59,-172.627 652.224,-153.567 383,-91 376.266,-89.435 369.431,-87.3928 362.665,-85.044"/>
<polygon fill="none" stroke="midnightblue" points="3107.28,-179.79 3117.3,-176.368 3107.33,-172.791 3107.28,-179.79"/>
</g>
<!-- Node4 -->
<g id="node4" class="node"><title>Node4</title>
<g id="a_node4"><a xlink:href="a00051.html" target="_top" xlink:title="This is a getAttribute action, it takes the input parameter from the ActionData object to perform thi...">
<polygon fill="white" stroke="black" points="392,-6 392,-85 570,-85 570,-6 392,-6"/>
<text text-anchor="start" x="400" y="-73" font-family="Helvetica,sans-Serif" font-size="10.00">beseenium.model.action.element</text>
<text text-anchor="middle" x="481" y="-62" font-family="Helvetica,sans-Serif" font-size="10.00">Actions.GetAttribute</text>
<polyline fill="none" stroke="black" points="392,-55 570,-55 "/>
<text text-anchor="middle" x="481" y="-43" font-family="Helvetica,sans-Serif" font-size="10.00"> </text>
<polyline fill="none" stroke="black" points="392,-36 570,-36 "/>
<text text-anchor="start" x="400" y="-24" font-family="Helvetica,sans-Serif" font-size="10.00">+ GetAttribute()</text>
<text text-anchor="start" x="400" y="-13" font-family="Helvetica,sans-Serif" font-size="10.00">+ execute()</text>
</a>
</g>
</g>
<!-- Node1&#45;&gt;Node4 -->
<g id="edge3" class="edge"><title>Node1&#45;&gt;Node4</title>
<path fill="none" stroke="midnightblue" d="M3107.12,-176.045C2657.01,-171.426 828.188,-149.209 579,-91 572.267,-89.4273 565.434,-87.3797 558.669,-85.0272"/>
<polygon fill="none" stroke="midnightblue" points="3107.14,-179.545 3117.18,-176.147 3107.21,-172.545 3107.14,-179.545"/>
</g>
<!-- Node5 -->
<g id="node5" class="node"><title>Node5</title>
<g id="a_node5"><a xlink:href="a00052.html" target="_top" xlink:title="this is a Get CSS Action, it retrieves the value of a specific CSS property. ">
<polygon fill="white" stroke="black" points="588,-6 588,-85 766,-85 766,-6 588,-6"/>
<text text-anchor="start" x="596" y="-73" font-family="Helvetica,sans-Serif" font-size="10.00">beseenium.model.action.element</text>
<text text-anchor="middle" x="677" y="-62" font-family="Helvetica,sans-Serif" font-size="10.00">Actions.GetCssValue</text>
<polyline fill="none" stroke="black" points="588,-55 766,-55 "/>
<text text-anchor="middle" x="677" y="-43" font-family="Helvetica,sans-Serif" font-size="10.00"> </text>
<polyline fill="none" stroke="black" points="588,-36 766,-36 "/>
<text text-anchor="start" x="596" y="-24" font-family="Helvetica,sans-Serif" font-size="10.00">+ GetCssValue()</text>
<text text-anchor="start" x="596" y="-13" font-family="Helvetica,sans-Serif" font-size="10.00">+ execute()</text>
</a>
</g>
</g>
<!-- Node1&#45;&gt;Node5 -->
<g id="edge4" class="edge"><title>Node1&#45;&gt;Node5</title>
<path fill="none" stroke="midnightblue" d="M3107.26,-175.763C2678.61,-170.134 1004.23,-144.865 775,-91 768.27,-89.4185 761.438,-87.3645 754.674,-85.0078"/>
<polygon fill="none" stroke="midnightblue" points="3107.41,-179.265 3117.46,-175.896 3107.51,-172.265 3107.41,-179.265"/>
</g>
<!-- Node6 -->
<g id="node6" class="node"><title>Node6</title>
<g id="a_node6"><a xlink:href="a00053.html" target="_top" xlink:title="This is a GetLocation Action, It retrieves the location of the top left corner of the element current...">
<polygon fill="white" stroke="black" points="784,-6 784,-85 962,-85 962,-6 784,-6"/>
<text text-anchor="start" x="792" y="-73" font-family="Helvetica,sans-Serif" font-size="10.00">beseenium.model.action.element</text>
<text text-anchor="middle" x="873" y="-62" font-family="Helvetica,sans-Serif" font-size="10.00">Actions.GetLocation</text>
<polyline fill="none" stroke="black" points="784,-55 962,-55 "/>
<text text-anchor="middle" x="873" y="-43" font-family="Helvetica,sans-Serif" font-size="10.00"> </text>
<polyline fill="none" stroke="black" points="784,-36 962,-36 "/>
<text text-anchor="start" x="792" y="-24" font-family="Helvetica,sans-Serif" font-size="10.00">+ GetLocation()</text>
<text text-anchor="start" x="792" y="-13" font-family="Helvetica,sans-Serif" font-size="10.00">+ execute()</text>
</a>
</g>
</g>
<!-- Node1&#45;&gt;Node6 -->
<g id="edge5" class="edge"><title>Node1&#45;&gt;Node6</title>
<path fill="none" stroke="midnightblue" d="M3107,-175.425C2700.05,-168.709 1180.25,-140.512 971,-91 964.363,-89.4296 957.626,-87.4023 950.953,-85.0805"/>
<polygon fill="none" stroke="midnightblue" points="3107.21,-178.929 3117.27,-175.594 3107.33,-171.93 3107.21,-178.929"/>
</g>
<!-- Node7 -->
<g id="node7" class="node"><title>Node7</title>
<g id="a_node7"><a xlink:href="a00055.html" target="_top" xlink:title="This is a GetSize Action, It retrieves the size of the WebElement currently stored in the ActionData...">
<polygon fill="white" stroke="black" points="980,-6 980,-85 1158,-85 1158,-6 980,-6"/>
<text text-anchor="start" x="988" y="-73" font-family="Helvetica,sans-Serif" font-size="10.00">beseenium.model.action.element</text>
<text text-anchor="middle" x="1069" y="-62" font-family="Helvetica,sans-Serif" font-size="10.00">Actions.GetSize</text>
<polyline fill="none" stroke="black" points="980,-55 1158,-55 "/>
<text text-anchor="middle" x="1069" y="-43" font-family="Helvetica,sans-Serif" font-size="10.00"> </text>
<polyline fill="none" stroke="black" points="980,-36 1158,-36 "/>
<text text-anchor="start" x="988" y="-24" font-family="Helvetica,sans-Serif" font-size="10.00">+ GetSize()</text>
<text text-anchor="start" x="988" y="-13" font-family="Helvetica,sans-Serif" font-size="10.00">+ execute()</text>
</a>
</g>
</g>
<!-- Node1&#45;&gt;Node7 -->
<g id="edge6" class="edge"><title>Node1&#45;&gt;Node7</title>
<path fill="none" stroke="midnightblue" d="M3107.25,-175.033C2723.78,-167.166 1356.42,-136.19 1167,-91 1160.37,-89.4173 1153.63,-87.3813 1146.96,-85.0535"/>
<polygon fill="none" stroke="midnightblue" points="3107.42,-178.537 3117.49,-175.243 3107.56,-171.539 3107.42,-178.537"/>
</g>
<!-- Node8 -->
<g id="node8" class="node"><title>Node8</title>
<g id="a_node8"><a xlink:href="a00056.html" target="_top" xlink:title="This is a GetTagName Action, it retrieves the tag name of the web element selected. ">
<polygon fill="white" stroke="black" points="1176,-6 1176,-85 1354,-85 1354,-6 1176,-6"/>
<text text-anchor="start" x="1184" y="-73" font-family="Helvetica,sans-Serif" font-size="10.00">beseenium.model.action.element</text>
<text text-anchor="middle" x="1265" y="-62" font-family="Helvetica,sans-Serif" font-size="10.00">Actions.GetTagName</text>
<polyline fill="none" stroke="black" points="1176,-55 1354,-55 "/>
<text text-anchor="middle" x="1265" y="-43" font-family="Helvetica,sans-Serif" font-size="10.00"> </text>
<polyline fill="none" stroke="black" points="1176,-36 1354,-36 "/>
<text text-anchor="start" x="1184" y="-24" font-family="Helvetica,sans-Serif" font-size="10.00">+ GetTagName()</text>
<text text-anchor="start" x="1184" y="-13" font-family="Helvetica,sans-Serif" font-size="10.00">+ execute()</text>
</a>
</g>
</g>
<!-- Node1&#45;&gt;Node8 -->
<g id="edge7" class="edge"><title>Node1&#45;&gt;Node8</title>
<path fill="none" stroke="midnightblue" d="M3107.29,-177.298C2773.62,-177.522 1698.36,-171.798 1363,-91 1356.37,-89.4025 1349.64,-87.3559 1342.97,-85.0208"/>
<polygon fill="none" stroke="midnightblue" points="3107.42,-180.798 3117.42,-177.289 3107.41,-173.798 3107.42,-180.798"/>
</g>
<!-- Node9 -->
<g id="node9" class="node"><title>Node9</title>
<g id="a_node9"><a xlink:href="a00057.html" target="_top" xlink:title="This is a GetText action, it returns the inner html of the current WebElement (and any child nodes) n...">
<polygon fill="white" stroke="black" points="1372,-6 1372,-85 1550,-85 1550,-6 1372,-6"/>
<text text-anchor="start" x="1380" y="-73" font-family="Helvetica,sans-Serif" font-size="10.00">beseenium.model.action.element</text>
<text text-anchor="middle" x="1461" y="-62" font-family="Helvetica,sans-Serif" font-size="10.00">Actions.GetText</text>
<polyline fill="none" stroke="black" points="1372,-55 1550,-55 "/>
<text text-anchor="middle" x="1461" y="-43" font-family="Helvetica,sans-Serif" font-size="10.00"> </text>
<polyline fill="none" stroke="black" points="1372,-36 1550,-36 "/>
<text text-anchor="start" x="1380" y="-24" font-family="Helvetica,sans-Serif" font-size="10.00">+ GetText()</text>
<text text-anchor="start" x="1380" y="-13" font-family="Helvetica,sans-Serif" font-size="10.00">+ execute()</text>
</a>
</g>
</g>
<!-- Node1&#45;&gt;Node9 -->
<g id="edge8" class="edge"><title>Node1&#45;&gt;Node9</title>
<path fill="none" stroke="midnightblue" d="M3106.95,-176.647C2796.88,-174.789 1855.03,-163.19 1559,-91 1552.46,-89.4063 1545.83,-87.3808 1539.25,-85.0765"/>
<polygon fill="none" stroke="midnightblue" points="3107.25,-180.149 3117.27,-176.707 3107.29,-173.149 3107.25,-180.149"/>
</g>
<!-- Node10 -->
<g id="node10" class="node"><title>Node10</title>
<g id="a_node10"><a xlink:href="a00062.html" target="_top" xlink:title="This is an IsDisplayed Action, checks to see whether the element currently held in the ActionData is ...">
<polygon fill="white" stroke="black" points="1568,-6 1568,-85 1746,-85 1746,-6 1568,-6"/>
<text text-anchor="start" x="1576" y="-73" font-family="Helvetica,sans-Serif" font-size="10.00">beseenium.model.action.element</text>
<text text-anchor="middle" x="1657" y="-62" font-family="Helvetica,sans-Serif" font-size="10.00">Actions.IsDisplayed</text>
<polyline fill="none" stroke="black" points="1568,-55 1746,-55 "/>
<text text-anchor="middle" x="1657" y="-43" font-family="Helvetica,sans-Serif" font-size="10.00"> </text>
<polyline fill="none" stroke="black" points="1568,-36 1746,-36 "/>
<text text-anchor="start" x="1576" y="-24" font-family="Helvetica,sans-Serif" font-size="10.00">+ IsDisplayed()</text>
<text text-anchor="start" x="1576" y="-13" font-family="Helvetica,sans-Serif" font-size="10.00">+ execute()</text>
</a>
</g>
</g>
<!-- Node1&#45;&gt;Node10 -->
<g id="edge9" class="edge"><title>Node1&#45;&gt;Node10</title>
<path fill="none" stroke="midnightblue" d="M3106.75,-175.82C2821.93,-171.715 2011.96,-154.619 1755,-91 1748.47,-89.3834 1741.84,-87.3414 1735.26,-85.0257"/>
<polygon fill="none" stroke="midnightblue" points="3107.02,-179.324 3117.07,-175.966 3107.12,-172.325 3107.02,-179.324"/>
</g>
<!-- Node11 -->
<g id="node11" class="node"><title>Node11</title>
<g id="a_node11"><a xlink:href="a00063.html" target="_top" xlink:title="This is an IsEnabled Action, checks to see whether the element currently held in the ActionData is cu...">
<polygon fill="white" stroke="black" points="1764,-6 1764,-85 1942,-85 1942,-6 1764,-6"/>
<text text-anchor="start" x="1772" y="-73" font-family="Helvetica,sans-Serif" font-size="10.00">beseenium.model.action.element</text>
<text text-anchor="middle" x="1853" y="-62" font-family="Helvetica,sans-Serif" font-size="10.00">Actions.IsEnabled</text>
<polyline fill="none" stroke="black" points="1764,-55 1942,-55 "/>
<text text-anchor="middle" x="1853" y="-43" font-family="Helvetica,sans-Serif" font-size="10.00"> </text>
<polyline fill="none" stroke="black" points="1764,-36 1942,-36 "/>
<text text-anchor="start" x="1772" y="-24" font-family="Helvetica,sans-Serif" font-size="10.00">+ IsEnabled()</text>
<text text-anchor="start" x="1772" y="-13" font-family="Helvetica,sans-Serif" font-size="10.00">+ execute()</text>
</a>
</g>
</g>
<!-- Node1&#45;&gt;Node11 -->
<g id="edge10" class="edge"><title>Node1&#45;&gt;Node11</title>
<path fill="none" stroke="midnightblue" d="M3107.41,-174.758C2850.35,-168.239 2169.4,-146.14 1951,-91 1944.57,-89.3762 1938.04,-87.347 1931.55,-85.0561"/>
<polygon fill="none" stroke="midnightblue" points="3107.4,-178.258 3117.49,-175.011 3107.58,-171.261 3107.4,-178.258"/>
</g>
<!-- Node12 -->
<g id="node12" class="node"><title>Node12</title>
<g id="a_node12"><a xlink:href="a00064.html" target="_top" xlink:title="This is an IsSelected Action, checks to see whether the element currently held in the ActionData is c...">
<polygon fill="white" stroke="black" points="1960,-6 1960,-85 2138,-85 2138,-6 1960,-6"/>
<text text-anchor="start" x="1968" y="-73" font-family="Helvetica,sans-Serif" font-size="10.00">beseenium.model.action.element</text>
<text text-anchor="middle" x="2049" y="-62" font-family="Helvetica,sans-Serif" font-size="10.00">Actions.IsSelected</text>
<polyline fill="none" stroke="black" points="1960,-55 2138,-55 "/>
<text text-anchor="middle" x="2049" y="-43" font-family="Helvetica,sans-Serif" font-size="10.00"> </text>
<polyline fill="none" stroke="black" points="1960,-36 2138,-36 "/>
<text text-anchor="start" x="1968" y="-24" font-family="Helvetica,sans-Serif" font-size="10.00">+ IsSelected()</text>
<text text-anchor="start" x="1968" y="-13" font-family="Helvetica,sans-Serif" font-size="10.00">+ execute()</text>
</a>
</g>
</g>
<!-- Node1&#45;&gt;Node12 -->
<g id="edge11" class="edge"><title>Node1&#45;&gt;Node12</title>
<path fill="none" stroke="midnightblue" d="M3107.07,-173.282C2879.18,-164.094 2326.87,-137.619 2147,-91 2140.67,-89.3592 2134.24,-87.3352 2127.85,-85.0636"/>
<polygon fill="none" stroke="midnightblue" points="3107.22,-176.791 3117.35,-173.693 3107.5,-169.796 3107.22,-176.791"/>
</g>
<!-- Node13 -->
<g id="node13" class="node"><title>Node13</title>
<g id="a_node13"><a xlink:href="a00117.html" target="_top" xlink:title="This is a sendKeys Action, it simulates a human typing into an element, which may set its value...">
<polygon fill="white" stroke="black" points="2156,-6 2156,-85 2334,-85 2334,-6 2156,-6"/>
<text text-anchor="start" x="2164" y="-73" font-family="Helvetica,sans-Serif" font-size="10.00">beseenium.model.action.element</text>
<text text-anchor="middle" x="2245" y="-62" font-family="Helvetica,sans-Serif" font-size="10.00">Actions.SendKeys</text>
<polyline fill="none" stroke="black" points="2156,-55 2334,-55 "/>
<text text-anchor="middle" x="2245" y="-43" font-family="Helvetica,sans-Serif" font-size="10.00"> </text>
<polyline fill="none" stroke="black" points="2156,-36 2334,-36 "/>
<text text-anchor="start" x="2164" y="-24" font-family="Helvetica,sans-Serif" font-size="10.00">+ SendKeys()</text>
<text text-anchor="start" x="2164" y="-13" font-family="Helvetica,sans-Serif" font-size="10.00">+ execute()</text>
</a>
</g>
</g>
<!-- Node1&#45;&gt;Node13 -->
<g id="edge12" class="edge"><title>Node1&#45;&gt;Node13</title>
<path fill="none" stroke="midnightblue" d="M3107.28,-177.543C2944.47,-176.12 2612.66,-163.523 2343,-91 2336.77,-89.3257 2330.45,-87.2945 2324.16,-85.033"/>
<polygon fill="none" stroke="midnightblue" points="3107.26,-181.043 3117.28,-177.618 3107.31,-174.043 3107.26,-181.043"/>
</g>
<!-- Node14 -->
<g id="node14" class="node"><title>Node14</title>
<g id="a_node14"><a xlink:href="a00119.html" target="_top" xlink:title="This will submit a form if the element in question is a form or a form element. ">
<polygon fill="white" stroke="black" points="2352,-6 2352,-85 2530,-85 2530,-6 2352,-6"/>
<text text-anchor="start" x="2360" y="-73" font-family="Helvetica,sans-Serif" font-size="10.00">beseenium.model.action.element</text>
<text text-anchor="middle" x="2441" y="-62" font-family="Helvetica,sans-Serif" font-size="10.00">Actions.Submit</text>
<polyline fill="none" stroke="black" points="2352,-55 2530,-55 "/>
<text text-anchor="middle" x="2441" y="-43" font-family="Helvetica,sans-Serif" font-size="10.00"> </text>
<polyline fill="none" stroke="black" points="2352,-36 2530,-36 "/>
<text text-anchor="start" x="2360" y="-24" font-family="Helvetica,sans-Serif" font-size="10.00">+ Submit()</text>
<text text-anchor="start" x="2360" y="-13" font-family="Helvetica,sans-Serif" font-size="10.00">+ execute()</text>
</a>
</g>
</g>
<!-- Node1&#45;&gt;Node14 -->
<g id="edge13" class="edge"><title>Node1&#45;&gt;Node14</title>
<path fill="none" stroke="midnightblue" d="M3107.12,-173.399C2974.88,-166.549 2735.48,-146.891 2539,-91 2532.98,-89.2873 2526.86,-87.2608 2520.76,-85.032"/>
<polygon fill="none" stroke="midnightblue" points="3107.07,-176.901 3117.24,-173.909 3107.43,-169.91 3107.07,-176.901"/>
</g>
<!-- Node15 -->
<g id="node15" class="node"><title>Node15</title>
<g id="a_node15"><a xlink:href="a00042.html" target="_top" xlink:title="This class represents a FindElementByClass Action, it takes an ActionData object in initialiseation w...">
<polygon fill="white" stroke="black" points="2548.5,-6 2548.5,-85 2727.5,-85 2727.5,-6 2548.5,-6"/>
<text text-anchor="start" x="2556.5" y="-73" font-family="Helvetica,sans-Serif" font-size="10.00">beseenium.model.action.find</text>
<text text-anchor="middle" x="2638" y="-62" font-family="Helvetica,sans-Serif" font-size="10.00">ElementsBy.FindElementsByClass</text>
<polyline fill="none" stroke="black" points="2548.5,-55 2727.5,-55 "/>
<text text-anchor="middle" x="2638" y="-43" font-family="Helvetica,sans-Serif" font-size="10.00"> </text>
<polyline fill="none" stroke="black" points="2548.5,-36 2727.5,-36 "/>
<text text-anchor="start" x="2556.5" y="-24" font-family="Helvetica,sans-Serif" font-size="10.00">+ FindElementsByClass()</text>
<text text-anchor="start" x="2556.5" y="-13" font-family="Helvetica,sans-Serif" font-size="10.00">+ execute()</text>
</a>
</g>
</g>
<!-- Node1&#45;&gt;Node15 -->
<g id="edge14" class="edge"><title>Node1&#45;&gt;Node15</title>
<path fill="none" stroke="midnightblue" d="M3107.08,-165.827C3010.76,-153.406 2861.69,-129.805 2737,-91 2731.33,-89.2362 2725.56,-87.2326 2719.8,-85.0751"/>
<polygon fill="none" stroke="midnightblue" points="3106.74,-169.313 3117.1,-167.104 3107.62,-162.369 3106.74,-169.313"/>
</g>
<!-- Node16 -->
<g id="node16" class="node"><title>Node16</title>
<g id="a_node16"><a xlink:href="a00043.html" target="_top" xlink:title="this is a FindElementByCss Action, it takes an ActionData object in initialiseation which should cont...">
<polygon fill="white" stroke="black" points="2746,-6 2746,-85 2916,-85 2916,-6 2746,-6"/>
<text text-anchor="start" x="2754" y="-73" font-family="Helvetica,sans-Serif" font-size="10.00">beseenium.model.action.find</text>
<text text-anchor="middle" x="2831" y="-62" font-family="Helvetica,sans-Serif" font-size="10.00">ElementsBy.FindElementsByCss</text>
<polyline fill="none" stroke="black" points="2746,-55 2916,-55 "/>
<text text-anchor="middle" x="2831" y="-43" font-family="Helvetica,sans-Serif" font-size="10.00"> </text>
<polyline fill="none" stroke="black" points="2746,-36 2916,-36 "/>
<text text-anchor="start" x="2754" y="-24" font-family="Helvetica,sans-Serif" font-size="10.00">+ FindElementsByCss()</text>
<text text-anchor="start" x="2754" y="-13" font-family="Helvetica,sans-Serif" font-size="10.00">+ execute()</text>
</a>
</g>
</g>
<!-- Node1&#45;&gt;Node16 -->
<g id="edge15" class="edge"><title>Node1&#45;&gt;Node16</title>
<path fill="none" stroke="midnightblue" d="M3107.6,-150.531C3053.04,-135.045 2984.56,-114.037 2925,-91 2920.2,-89.1436 2915.3,-87.149 2910.39,-85.07"/>
<polygon fill="none" stroke="midnightblue" points="3106.7,-153.913 3117.28,-153.26 3108.6,-147.176 3106.7,-153.913"/>
</g>
<!-- Node17 -->
<g id="node17" class="node"><title>Node17</title>
<g id="a_node17"><a xlink:href="a00044.html" target="_top" xlink:title="This class represents a FindElementById Action, it takes an ActionData object in initialiseation whic...">
<polygon fill="white" stroke="black" points="2934.5,-6 2934.5,-85 3095.5,-85 3095.5,-6 2934.5,-6"/>
<text text-anchor="start" x="2942.5" y="-73" font-family="Helvetica,sans-Serif" font-size="10.00">beseenium.model.action.find</text>
<text text-anchor="middle" x="3015" y="-62" font-family="Helvetica,sans-Serif" font-size="10.00">ElementsBy.FindElementsById</text>
<polyline fill="none" stroke="black" points="2934.5,-55 3095.5,-55 "/>
<text text-anchor="middle" x="3015" y="-43" font-family="Helvetica,sans-Serif" font-size="10.00"> </text>
<polyline fill="none" stroke="black" points="2934.5,-36 3095.5,-36 "/>
<text text-anchor="start" x="2942.5" y="-24" font-family="Helvetica,sans-Serif" font-size="10.00">+ FindElementsById()</text>
<text text-anchor="start" x="2942.5" y="-13" font-family="Helvetica,sans-Serif" font-size="10.00">+ execute()</text>
</a>
</g>
</g>
<!-- Node1&#45;&gt;Node17 -->
<g id="edge16" class="edge"><title>Node1&#45;&gt;Node17</title>
<path fill="none" stroke="midnightblue" d="M3125.83,-121.827C3107.6,-109.439 3088.64,-96.5538 3071.67,-85.0169"/>
<polygon fill="none" stroke="midnightblue" points="3123.9,-124.751 3134.14,-127.477 3127.84,-118.961 3123.9,-124.751"/>
</g>
<!-- Node18 -->
<g id="node18" class="node"><title>Node18</title>
<g id="a_node18"><a xlink:href="a00045.html" target="_top" xlink:title="this is a find element by link text action, it searches for an element using a string containing &#39;lin...">
<polygon fill="white" stroke="black" points="3114,-6 3114,-85 3300,-85 3300,-6 3114,-6"/>
<text text-anchor="start" x="3122" y="-73" font-family="Helvetica,sans-Serif" font-size="10.00">beseenium.model.action.find</text>
<text text-anchor="middle" x="3207" y="-62" font-family="Helvetica,sans-Serif" font-size="10.00">ElementsBy.FindElementsByLinkTxt</text>
<polyline fill="none" stroke="black" points="3114,-55 3300,-55 "/>
<text text-anchor="middle" x="3207" y="-43" font-family="Helvetica,sans-Serif" font-size="10.00"> </text>
<polyline fill="none" stroke="black" points="3114,-36 3300,-36 "/>
<text text-anchor="start" x="3122" y="-24" font-family="Helvetica,sans-Serif" font-size="10.00">+ FindElementsByLinkTxt()</text>
<text text-anchor="start" x="3122" y="-13" font-family="Helvetica,sans-Serif" font-size="10.00">+ execute()</text>
</a>
</g>
</g>
<!-- Node1&#45;&gt;Node18 -->
<g id="edge17" class="edge"><title>Node1&#45;&gt;Node18</title>
<path fill="none" stroke="midnightblue" d="M3207,-117C3207,-106.163 3207,-95.1319 3207,-85.1122"/>
<polygon fill="none" stroke="midnightblue" points="3203.5,-117.291 3207,-127.291 3210.5,-117.291 3203.5,-117.291"/>
</g>
<!-- Node19 -->
<g id="node19" class="node"><title>Node19</title>
<g id="a_node19"><a xlink:href="a00046.html" target="_top" xlink:title="this is a find elements by name action, it attempts to find an element using a name provided i...">
<polygon fill="white" stroke="black" points="3318,-6 3318,-85 3500,-85 3500,-6 3318,-6"/>
<text text-anchor="start" x="3326" y="-73" font-family="Helvetica,sans-Serif" font-size="10.00">beseenium.model.action.find</text>
<text text-anchor="middle" x="3409" y="-62" font-family="Helvetica,sans-Serif" font-size="10.00">ElementsBy.FindElementsByName</text>
<polyline fill="none" stroke="black" points="3318,-55 3500,-55 "/>
<text text-anchor="middle" x="3409" y="-43" font-family="Helvetica,sans-Serif" font-size="10.00"> </text>
<polyline fill="none" stroke="black" points="3318,-36 3500,-36 "/>
<text text-anchor="start" x="3326" y="-24" font-family="Helvetica,sans-Serif" font-size="10.00">+ FindElementsByName()</text>
<text text-anchor="start" x="3326" y="-13" font-family="Helvetica,sans-Serif" font-size="10.00">+ execute()</text>
</a>
</g>
</g>
<!-- Node1&#45;&gt;Node19 -->
<g id="edge18" class="edge"><title>Node1&#45;&gt;Node19</title>
<path fill="none" stroke="midnightblue" d="M3292.14,-121.994C3311.4,-109.555 3331.44,-96.6058 3349.38,-85.0169"/>
<polygon fill="none" stroke="midnightblue" points="3290.16,-119.111 3283.66,-127.477 3293.95,-124.991 3290.16,-119.111"/>
</g>
<!-- Node20 -->
<g id="node20" class="node"><title>Node20</title>
<g id="a_node20"><a xlink:href="a00047.html" target="_top" xlink:title="this is a find element by partial link text action, it searches for an element using a string contain...">
<polygon fill="white" stroke="black" points="3518.5,-0.5 3518.5,-90.5 3701.5,-90.5 3701.5,-0.5 3518.5,-0.5"/>
<text text-anchor="start" x="3526.5" y="-78.5" font-family="Helvetica,sans-Serif" font-size="10.00">beseenium.model.action.find</text>
<text text-anchor="start" x="3526.5" y="-67.5" font-family="Helvetica,sans-Serif" font-size="10.00">ElementsBy.FindElementsByPartial</text>
<text text-anchor="middle" x="3610" y="-56.5" font-family="Helvetica,sans-Serif" font-size="10.00">LinkTxt</text>
<polyline fill="none" stroke="black" points="3518.5,-49.5 3701.5,-49.5 "/>
<text text-anchor="middle" x="3610" y="-37.5" font-family="Helvetica,sans-Serif" font-size="10.00"> </text>
<polyline fill="none" stroke="black" points="3518.5,-30.5 3701.5,-30.5 "/>
<text text-anchor="start" x="3526.5" y="-18.5" font-family="Helvetica,sans-Serif" font-size="10.00">+ FindElementsByPartialLinkTxt()</text>
<text text-anchor="start" x="3526.5" y="-7.5" font-family="Helvetica,sans-Serif" font-size="10.00">+ execute()</text>
</a>
</g>
</g>
<!-- Node1&#45;&gt;Node20 -->
<g id="edge19" class="edge"><title>Node1&#45;&gt;Node20</title>
<path fill="none" stroke="midnightblue" d="M3306.32,-152.404C3365.76,-136.775 3442.45,-115.007 3509,-91 3512.06,-89.8946 3515.17,-88.7398 3518.29,-87.547"/>
<polygon fill="none" stroke="midnightblue" points="3305.35,-149.041 3296.56,-154.956 3307.12,-155.813 3305.35,-149.041"/>
</g>
<!-- Node21 -->
<g id="node21" class="node"><title>Node21</title>
<g id="a_node21"><a xlink:href="a00048.html" target="_top" xlink:title="this is a find elements by tag name, it finds an element using a provided tag name string...">
<polygon fill="white" stroke="black" points="3720,-6 3720,-85 3920,-85 3920,-6 3720,-6"/>
<text text-anchor="start" x="3728" y="-73" font-family="Helvetica,sans-Serif" font-size="10.00">beseenium.model.action.find</text>
<text text-anchor="middle" x="3820" y="-62" font-family="Helvetica,sans-Serif" font-size="10.00">ElementsBy.FindElementsByTagName</text>
<polyline fill="none" stroke="black" points="3720,-55 3920,-55 "/>
<text text-anchor="middle" x="3820" y="-43" font-family="Helvetica,sans-Serif" font-size="10.00"> </text>
<polyline fill="none" stroke="black" points="3720,-36 3920,-36 "/>
<text text-anchor="start" x="3728" y="-24" font-family="Helvetica,sans-Serif" font-size="10.00">+ FindElementsByTagName()</text>
<text text-anchor="start" x="3728" y="-13" font-family="Helvetica,sans-Serif" font-size="10.00">+ execute()</text>
</a>
</g>
</g>
<!-- Node1&#45;&gt;Node21 -->
<g id="edge20" class="edge"><title>Node1&#45;&gt;Node21</title>
<path fill="none" stroke="midnightblue" d="M3306.68,-166.511C3409.4,-154.194 3573.47,-130.294 3711,-91 3717.19,-89.2312 3723.51,-87.2239 3729.83,-85.0636"/>
<polygon fill="none" stroke="midnightblue" points="3306.14,-163.05 3296.63,-167.704 3306.97,-170.002 3306.14,-163.05"/>
</g>
<!-- Node22 -->
<g id="node22" class="node"><title>Node22</title>
<g id="a_node22"><a xlink:href="a00049.html" target="_top" xlink:title="is a Find element by Xpath action, it provides a method to find an element using an xpath string...">
<polygon fill="white" stroke="black" points="3938,-6 3938,-85 4120,-85 4120,-6 3938,-6"/>
<text text-anchor="start" x="3946" y="-73" font-family="Helvetica,sans-Serif" font-size="10.00">beseenium.model.action.find</text>
<text text-anchor="middle" x="4029" y="-62" font-family="Helvetica,sans-Serif" font-size="10.00">ElementsBy.FindElementsByXpath</text>
<polyline fill="none" stroke="black" points="3938,-55 4120,-55 "/>
<text text-anchor="middle" x="4029" y="-43" font-family="Helvetica,sans-Serif" font-size="10.00"> </text>
<polyline fill="none" stroke="black" points="3938,-36 4120,-36 "/>
<text text-anchor="start" x="3946" y="-24" font-family="Helvetica,sans-Serif" font-size="10.00">+ FindElementsByXpath()</text>
<text text-anchor="start" x="3946" y="-13" font-family="Helvetica,sans-Serif" font-size="10.00">+ execute()</text>
</a>
</g>
</g>
<!-- Node1&#45;&gt;Node22 -->
<g id="edge21" class="edge"><title>Node1&#45;&gt;Node22</title>
<path fill="none" stroke="midnightblue" d="M3307.09,-174.515C3448.16,-168.901 3712.46,-150.609 3929,-91 3935.14,-89.3105 3941.38,-87.3011 3947.6,-85.0846"/>
<polygon fill="none" stroke="midnightblue" points="3306.59,-171.031 3296.73,-174.913 3306.86,-178.026 3306.59,-171.031"/>
</g>
<!-- Node23 -->
<g id="node23" class="node"><title>Node23</title>
<g id="a_node23"><a xlink:href="a00102.html" target="_top" xlink:title="This is a navigate back action, it attempts to use the back/forward history to navigate back a specif...">
<polygon fill="white" stroke="black" points="4138.5,-6 4138.5,-85 4317.5,-85 4317.5,-6 4138.5,-6"/>
<text text-anchor="start" x="4146.5" y="-73" font-family="Helvetica,sans-Serif" font-size="10.00">beseenium.model.action.navigate</text>
<text text-anchor="middle" x="4228" y="-62" font-family="Helvetica,sans-Serif" font-size="10.00">Actions.NavigateBack</text>
<polyline fill="none" stroke="black" points="4138.5,-55 4317.5,-55 "/>
<text text-anchor="middle" x="4228" y="-43" font-family="Helvetica,sans-Serif" font-size="10.00"> </text>
<polyline fill="none" stroke="black" points="4138.5,-36 4317.5,-36 "/>
<text text-anchor="start" x="4146.5" y="-24" font-family="Helvetica,sans-Serif" font-size="10.00">+ NavigateBack()</text>
<text text-anchor="start" x="4146.5" y="-13" font-family="Helvetica,sans-Serif" font-size="10.00">+ execute()</text>
</a>
</g>
</g>
<!-- Node1&#45;&gt;Node23 -->
<g id="edge22" class="edge"><title>Node1&#45;&gt;Node23</title>
<path fill="none" stroke="midnightblue" d="M3306.79,-171.841C3512.2,-160.545 3975.84,-131.37 4129,-91 4135.29,-89.343 4141.68,-87.3244 4148.03,-85.0718"/>
<polygon fill="none" stroke="midnightblue" points="3306.41,-168.357 3296.61,-172.398 3306.79,-175.347 3306.41,-168.357"/>
</g>
<!-- Node24 -->
<g id="node24" class="node"><title>Node24</title>
<g id="a_node24"><a xlink:href="a00103.html" target="_top" xlink:title="This is a navigate forward action, it attempts to use the back/foward history to navigate forward a s...">
<polygon fill="white" stroke="black" points="4335.5,-6 4335.5,-85 4514.5,-85 4514.5,-6 4335.5,-6"/>
<text text-anchor="start" x="4343.5" y="-73" font-family="Helvetica,sans-Serif" font-size="10.00">beseenium.model.action.navigate</text>
<text text-anchor="middle" x="4425" y="-62" font-family="Helvetica,sans-Serif" font-size="10.00">Actions.NavigateForward</text>
<polyline fill="none" stroke="black" points="4335.5,-55 4514.5,-55 "/>
<text text-anchor="middle" x="4425" y="-43" font-family="Helvetica,sans-Serif" font-size="10.00"> </text>
<polyline fill="none" stroke="black" points="4335.5,-36 4514.5,-36 "/>
<text text-anchor="start" x="4343.5" y="-24" font-family="Helvetica,sans-Serif" font-size="10.00">+ NavigateForward()</text>
<text text-anchor="start" x="4343.5" y="-13" font-family="Helvetica,sans-Serif" font-size="10.00">+ execute()</text>
</a>
</g>
</g>
<!-- Node1&#45;&gt;Node24 -->
<g id="edge23" class="edge"><title>Node1&#45;&gt;Node24</title>
<path fill="none" stroke="midnightblue" d="M3306.98,-173.783C3544.18,-165.433 4135.42,-140.213 4327,-91 4333.33,-89.3729 4339.77,-87.3588 4346.16,-85.0941"/>
<polygon fill="none" stroke="midnightblue" points="3306.51,-170.297 3296.64,-174.144 3306.75,-177.293 3306.51,-170.297"/>
</g>
<!-- Node25 -->
<g id="node25" class="node"><title>Node25</title>
<g id="a_node25"><a xlink:href="a00111.html" target="_top" xlink:title="this is a refresh page action, it (surprise surprise) refreshes the page. ">
<polygon fill="white" stroke="black" points="4532.5,-6 4532.5,-85 4711.5,-85 4711.5,-6 4532.5,-6"/>
<text text-anchor="start" x="4540.5" y="-73" font-family="Helvetica,sans-Serif" font-size="10.00">beseenium.model.action.navigate</text>
<text text-anchor="middle" x="4622" y="-62" font-family="Helvetica,sans-Serif" font-size="10.00">Actions.RefreshPage</text>
<polyline fill="none" stroke="black" points="4532.5,-55 4711.5,-55 "/>
<text text-anchor="middle" x="4622" y="-43" font-family="Helvetica,sans-Serif" font-size="10.00"> </text>
<polyline fill="none" stroke="black" points="4532.5,-36 4711.5,-36 "/>
<text text-anchor="start" x="4540.5" y="-24" font-family="Helvetica,sans-Serif" font-size="10.00">+ RefreshPage()</text>
<text text-anchor="start" x="4540.5" y="-13" font-family="Helvetica,sans-Serif" font-size="10.00">+ execute()</text>
</a>
</g>
</g>
<!-- Node1&#45;&gt;Node25 -->
<g id="edge24" class="edge"><title>Node1&#45;&gt;Node25</title>
<path fill="none" stroke="midnightblue" d="M3306.71,-175.122C3572.53,-169.38 4293.6,-148.783 4524,-91 4530.43,-89.3863 4536.97,-87.3645 4543.45,-85.0787"/>
<polygon fill="none" stroke="midnightblue" points="3306.61,-171.624 3296.68,-175.337 3306.76,-178.622 3306.61,-171.624"/>
</g>
<!-- Node26 -->
<g id="node26" class="node"><title>Node26</title>
<g id="a_node26"><a xlink:href="a00031.html" target="_top" xlink:title="This is a quit Action, it essentially closes the bowser. ">
<polygon fill="white" stroke="black" points="4730,-6 4730,-85 4892,-85 4892,-6 4730,-6"/>
<text text-anchor="start" x="4738" y="-73" font-family="Helvetica,sans-Serif" font-size="10.00">beseenium.model.action.page</text>
<text text-anchor="middle" x="4811" y="-62" font-family="Helvetica,sans-Serif" font-size="10.00">Actions.BrowserQuit</text>
<polyline fill="none" stroke="black" points="4730,-55 4892,-55 "/>
<text text-anchor="middle" x="4811" y="-43" font-family="Helvetica,sans-Serif" font-size="10.00"> </text>
<polyline fill="none" stroke="black" points="4730,-36 4892,-36 "/>
<text text-anchor="start" x="4738" y="-24" font-family="Helvetica,sans-Serif" font-size="10.00">+ BrowserQuit()</text>
<text text-anchor="start" x="4738" y="-13" font-family="Helvetica,sans-Serif" font-size="10.00">+ execute()</text>
</a>
</g>
</g>
<!-- Node1&#45;&gt;Node26 -->
<g id="edge25" class="edge"><title>Node1&#45;&gt;Node26</title>
<path fill="none" stroke="midnightblue" d="M3307.04,-176.523C3600.08,-174.305 4452.76,-161.775 4721,-91 4727.07,-89.3991 4733.21,-87.3685 4739.28,-85.0607"/>
<polygon fill="none" stroke="midnightblue" points="3306.83,-173.024 3296.85,-176.597 3306.88,-180.024 3306.83,-173.024"/>
</g>
<!-- Node27 -->
<g id="node27" class="node"><title>Node27</title>
<g id="a_node27"><a xlink:href="a00054.html" target="_top" xlink:title="this is a get page source action, it retrieves the source code of the page that you are currently on...">
<polygon fill="white" stroke="black" points="4910,-6 4910,-85 5072,-85 5072,-6 4910,-6"/>
<text text-anchor="start" x="4918" y="-73" font-family="Helvetica,sans-Serif" font-size="10.00">beseenium.model.action.page</text>
<text text-anchor="middle" x="4991" y="-62" font-family="Helvetica,sans-Serif" font-size="10.00">Actions.GetPageSrc</text>
<polyline fill="none" stroke="black" points="4910,-55 5072,-55 "/>
<text text-anchor="middle" x="4991" y="-43" font-family="Helvetica,sans-Serif" font-size="10.00"> </text>
<polyline fill="none" stroke="black" points="4910,-36 5072,-36 "/>
<text text-anchor="start" x="4918" y="-24" font-family="Helvetica,sans-Serif" font-size="10.00">+ GetPageSrc()</text>
<text text-anchor="start" x="4918" y="-13" font-family="Helvetica,sans-Serif" font-size="10.00">+ execute()</text>
</a>
</g>
</g>
<!-- Node1&#45;&gt;Node27 -->
<g id="edge26" class="edge"><title>Node1&#45;&gt;Node27</title>
<path fill="none" stroke="midnightblue" d="M3306.71,-177.231C3622.39,-177.135 4596.91,-170.256 4901,-91 4907.16,-89.3954 4913.39,-87.3438 4919.55,-85.0052"/>
<polygon fill="none" stroke="midnightblue" points="3306.66,-173.731 3296.66,-177.232 3306.66,-180.731 3306.66,-173.731"/>
</g>
<!-- Node28 -->
<g id="node28" class="node"><title>Node28</title>
<g id="a_node28"><a xlink:href="a00058.html" target="_top" xlink:title="retrieves the title of the html document currently selected. ">
<polygon fill="white" stroke="black" points="5090,-6 5090,-85 5252,-85 5252,-6 5090,-6"/>
<text text-anchor="start" x="5098" y="-73" font-family="Helvetica,sans-Serif" font-size="10.00">beseenium.model.action.page</text>
<text text-anchor="middle" x="5171" y="-62" font-family="Helvetica,sans-Serif" font-size="10.00">Actions.GetTitle</text>
<polyline fill="none" stroke="black" points="5090,-55 5252,-55 "/>
<text text-anchor="middle" x="5171" y="-43" font-family="Helvetica,sans-Serif" font-size="10.00"> </text>
<polyline fill="none" stroke="black" points="5090,-36 5252,-36 "/>
<text text-anchor="start" x="5098" y="-24" font-family="Helvetica,sans-Serif" font-size="10.00">+ GetTitle()</text>
<text text-anchor="start" x="5098" y="-13" font-family="Helvetica,sans-Serif" font-size="10.00">+ execute()</text>
</a>
</g>
</g>
<!-- Node1&#45;&gt;Node28 -->
<g id="edge27" class="edge"><title>Node1&#45;&gt;Node28</title>
<path fill="none" stroke="midnightblue" d="M3306.8,-174.82C3669.99,-166.556 4909.06,-135.367 5081,-91 5087.16,-89.4104 5093.39,-87.3695 5099.55,-85.0382"/>
<polygon fill="none" stroke="midnightblue" points="3306.49,-171.326 3296.57,-175.052 3306.65,-178.324 3306.49,-171.326"/>
</g>
<!-- Node29 -->
<g id="node29" class="node"><title>Node29</title>
<g id="a_node29"><a xlink:href="a00059.html" target="_top" xlink:title="This is a GetURL Action, it retrieves the URL of the current page. ">
<polygon fill="white" stroke="black" points="5270,-6 5270,-85 5432,-85 5432,-6 5270,-6"/>
<text text-anchor="start" x="5278" y="-73" font-family="Helvetica,sans-Serif" font-size="10.00">beseenium.model.action.page</text>
<text text-anchor="middle" x="5351" y="-62" font-family="Helvetica,sans-Serif" font-size="10.00">Actions.GetURL</text>
<polyline fill="none" stroke="black" points="5270,-55 5432,-55 "/>
<text text-anchor="middle" x="5351" y="-43" font-family="Helvetica,sans-Serif" font-size="10.00"> </text>
<polyline fill="none" stroke="black" points="5270,-36 5432,-36 "/>
<text text-anchor="start" x="5278" y="-24" font-family="Helvetica,sans-Serif" font-size="10.00">+ GetURL()</text>
<text text-anchor="start" x="5278" y="-13" font-family="Helvetica,sans-Serif" font-size="10.00">+ execute()</text>
</a>
</g>
</g>
<!-- Node1&#45;&gt;Node29 -->
<g id="edge28" class="edge"><title>Node1&#45;&gt;Node29</title>
<path fill="none" stroke="midnightblue" d="M3306.54,-175.256C3691.52,-168.181 5070.89,-139.648 5261,-91 5267.16,-89.4228 5273.4,-87.3907 5279.56,-85.0655"/>
<polygon fill="none" stroke="midnightblue" points="3306.47,-171.757 3296.54,-175.439 3306.6,-178.756 3306.47,-171.757"/>
</g>
<!-- Node30 -->
<g id="node30" class="node"><title>Node30</title>
<g id="a_node30"><a xlink:href="a00109.html" target="_top" xlink:title="This is a Close Action, it essentially closes the current tab, if it is the last or only tab open it ...">
<polygon fill="white" stroke="black" points="5450,-6 5450,-85 5612,-85 5612,-6 5450,-6"/>
<text text-anchor="start" x="5458" y="-73" font-family="Helvetica,sans-Serif" font-size="10.00">beseenium.model.action.page</text>
<text text-anchor="middle" x="5531" y="-62" font-family="Helvetica,sans-Serif" font-size="10.00">Actions.PageClose</text>
<polyline fill="none" stroke="black" points="5450,-55 5612,-55 "/>
<text text-anchor="middle" x="5531" y="-43" font-family="Helvetica,sans-Serif" font-size="10.00"> </text>
<polyline fill="none" stroke="black" points="5450,-36 5612,-36 "/>
<text text-anchor="start" x="5458" y="-24" font-family="Helvetica,sans-Serif" font-size="10.00">+ PageClose()</text>
<text text-anchor="start" x="5458" y="-13" font-family="Helvetica,sans-Serif" font-size="10.00">+ execute()</text>
</a>
</g>
</g>
<!-- Node1&#45;&gt;Node30 -->
<g id="edge29" class="edge"><title>Node1&#45;&gt;Node30</title>
<path fill="none" stroke="midnightblue" d="M3306.96,-175.612C3713.73,-169.627 5232.78,-143.909 5441,-91 5447.17,-89.4332 5453.4,-87.4085 5459.57,-85.0884"/>
<polygon fill="none" stroke="midnightblue" points="3306.64,-172.116 3296.69,-175.762 3306.74,-179.115 3306.64,-172.116"/>
</g>
<!-- Node31 -->
<g id="node31" class="node"><title>Node31</title>
<g id="a_node31"><a xlink:href="a00110.html" target="_top" xlink:title="this is a page get action, it navigates to a page set in the input parameter of the ActionData object...">
<polygon fill="white" stroke="black" points="5630,-6 5630,-85 5792,-85 5792,-6 5630,-6"/>
<text text-anchor="start" x="5638" y="-73" font-family="Helvetica,sans-Serif" font-size="10.00">beseenium.model.action.page</text>
<text text-anchor="middle" x="5711" y="-62" font-family="Helvetica,sans-Serif" font-size="10.00">Actions.PageGet</text>
<polyline fill="none" stroke="black" points="5630,-55 5792,-55 "/>
<text text-anchor="middle" x="5711" y="-43" font-family="Helvetica,sans-Serif" font-size="10.00"> </text>
<polyline fill="none" stroke="black" points="5630,-36 5792,-36 "/>
<text text-anchor="start" x="5638" y="-24" font-family="Helvetica,sans-Serif" font-size="10.00">+ PageGet()</text>
<text text-anchor="start" x="5638" y="-13" font-family="Helvetica,sans-Serif" font-size="10.00">+ execute()</text>
</a>
</g>
</g>
<!-- Node1&#45;&gt;Node31 -->
<g id="edge30" class="edge"><title>Node1&#45;&gt;Node31</title>
<path fill="none" stroke="midnightblue" d="M3306.76,-175.923C3733.56,-170.98 5394.51,-148.206 5621,-91 5627.25,-89.4206 5633.58,-87.3683 5639.82,-85.0126"/>
<polygon fill="none" stroke="midnightblue" points="3306.56,-172.425 3296.6,-176.04 3306.64,-179.425 3306.56,-172.425"/>
</g>
<!-- Node32 -->
<g id="node32" class="node"><title>Node32</title>
<g id="a_node32"><a xlink:href="a00112.html" target="_top" xlink:title="this resets various attributes of the ActionData ">
<polygon fill="white" stroke="black" points="5810.5,-6 5810.5,-85 5975.5,-85 5975.5,-6 5810.5,-6"/>
<text text-anchor="start" x="5818.5" y="-73" font-family="Helvetica,sans-Serif" font-size="10.00">beseenium.model.action.Reset</text>
<text text-anchor="middle" x="5893" y="-62" font-family="Helvetica,sans-Serif" font-size="10.00">ActionData</text>
<polyline fill="none" stroke="black" points="5810.5,-55 5975.5,-55 "/>
<text text-anchor="middle" x="5893" y="-43" font-family="Helvetica,sans-Serif" font-size="10.00"> </text>
<polyline fill="none" stroke="black" points="5810.5,-36 5975.5,-36 "/>
<text text-anchor="start" x="5818.5" y="-24" font-family="Helvetica,sans-Serif" font-size="10.00">+ ResetActionData()</text>
<text text-anchor="start" x="5818.5" y="-13" font-family="Helvetica,sans-Serif" font-size="10.00">+ execute()</text>
</a>
</g>
</g>
<!-- Node1&#45;&gt;Node32 -->
<g id="edge31" class="edge"><title>Node1&#45;&gt;Node32</title>
<path fill="none" stroke="midnightblue" d="M3307.06,-176.137C3753.94,-171.948 5556.02,-151.425 5801,-91 5807.37,-89.4279 5813.83,-87.3806 5820.2,-85.0284"/>
<polygon fill="none" stroke="midnightblue" points="3306.72,-172.639 3296.76,-176.232 3306.79,-179.639 3306.72,-172.639"/>
</g>
<!-- Node33 -->
<g id="node33" class="node"><title>Node33</title>
<g id="a_node33"><a xlink:href="a00121.html" target="_top" xlink:title="this is a SwitchToActiveElement, it Switches to the element that currently has focus within the docum...">
<polygon fill="white" stroke="black" points="5993.5,-6 5993.5,-85 6160.5,-85 6160.5,-6 5993.5,-6"/>
<text text-anchor="start" x="6001.5" y="-73" font-family="Helvetica,sans-Serif" font-size="10.00">beseenium.model.action.switch</text>
<text text-anchor="middle" x="6077" y="-62" font-family="Helvetica,sans-Serif" font-size="10.00">Actions.SwitchToActiveElement</text>
<polyline fill="none" stroke="black" points="5993.5,-55 6160.5,-55 "/>
<text text-anchor="middle" x="6077" y="-43" font-family="Helvetica,sans-Serif" font-size="10.00"> </text>
<polyline fill="none" stroke="black" points="5993.5,-36 6160.5,-36 "/>
<text text-anchor="start" x="6001.5" y="-24" font-family="Helvetica,sans-Serif" font-size="10.00">+ SwitchToActiveElement()</text>
<text text-anchor="start" x="6001.5" y="-13" font-family="Helvetica,sans-Serif" font-size="10.00">+ execute()</text>
</a>
</g>
</g>
<!-- Node1&#45;&gt;Node33 -->
<g id="edge32" class="edge"><title>Node1&#45;&gt;Node33</title>
<path fill="none" stroke="midnightblue" d="M3306.8,-176.375C3772.6,-173.128 5721.23,-155.754 5985,-91 5991.38,-89.4349 5997.83,-87.3926 6004.21,-85.0438"/>
<polygon fill="none" stroke="midnightblue" points="3306.71,-172.876 3296.74,-176.445 3306.76,-179.876 3306.71,-172.876"/>
</g>
<!-- Node34 -->
<g id="node34" class="node"><title>Node34</title>
<g id="a_node34"><a xlink:href="a00122.html" target="_top" xlink:title="represents a SwitchToDefaultContent action which Selects either the first frame on the page...">
<polygon fill="white" stroke="black" points="6179,-6 6179,-85 6349,-85 6349,-6 6179,-6"/>
<text text-anchor="start" x="6187" y="-73" font-family="Helvetica,sans-Serif" font-size="10.00">beseenium.model.action.switch</text>
<text text-anchor="middle" x="6264" y="-62" font-family="Helvetica,sans-Serif" font-size="10.00">Actions.SwitchToDefaultContent</text>
<polyline fill="none" stroke="black" points="6179,-55 6349,-55 "/>
<text text-anchor="middle" x="6264" y="-43" font-family="Helvetica,sans-Serif" font-size="10.00"> </text>
<polyline fill="none" stroke="black" points="6179,-36 6349,-36 "/>
<text text-anchor="start" x="6187" y="-24" font-family="Helvetica,sans-Serif" font-size="10.00">+ SwitchToDefaultContent()</text>
<text text-anchor="start" x="6187" y="-13" font-family="Helvetica,sans-Serif" font-size="10.00">+ execute()</text>
</a>
</g>
</g>
<!-- Node1&#45;&gt;Node34 -->
<g id="edge33" class="edge"><title>Node1&#45;&gt;Node34</title>
<path fill="none" stroke="midnightblue" d="M3306.96,-176.51C3791.72,-173.81 5886.05,-158.31 6169,-91 6175.56,-89.4405 6182.2,-87.4021 6188.77,-85.056"/>
<polygon fill="none" stroke="midnightblue" points="3306.82,-173.011 3296.84,-176.566 3306.86,-180.011 3306.82,-173.011"/>
</g>
</g>
</svg>
