<?xml version="1.0" encoding="UTF-8" standalone="no"?>
<!DOCTYPE svg PUBLIC "-//W3C//DTD SVG 1.1//EN"
 "http://www.w3.org/Graphics/SVG/1.1/DTD/svg11.dtd">
<!-- Generated by graphviz version 2.38.0 (20140413.2041)
 -->
<!-- Title: beseenium.controller.ActionFactory.navigateActions.MakeNavigateForward Pages: 1 -->
<svg width="211pt" height="215pt"
 viewBox="0.00 0.00 211.00 215.00" xmlns="http://www.w3.org/2000/svg" xmlns:xlink="http://www.w3.org/1999/xlink">
<g id="graph0" class="graph" transform="scale(1 1) rotate(0) translate(4 211)">
<title>beseenium.controller.ActionFactory.navigateActions.MakeNavigateForward</title>
<polygon fill="white" stroke="none" points="-4,4 -4,-211 207,-211 207,4 -4,4"/>
<!-- Node1 -->
<g id="node1" class="node"><title>Node1</title>
<polygon fill="#bfbfbf" stroke="black" points="-1.42109e-14,-0.5 -1.42109e-14,-90.5 203,-90.5 203,-0.5 -1.42109e-14,-0.5"/>
<text text-anchor="start" x="8" y="-78.5" font-family="Helvetica,sans-Serif" font-size="10.00">beseenium.controller.Action</text>
<text text-anchor="start" x="8" y="-67.5" font-family="Helvetica,sans-Serif" font-size="10.00">Factory.navigateActions.MakeNavigate</text>
<text text-anchor="middle" x="101.5" y="-56.5" font-family="Helvetica,sans-Serif" font-size="10.00">Forward</text>
<polyline fill="none" stroke="black" points="-1.42109e-14,-49.5 203,-49.5 "/>
<text text-anchor="middle" x="101.5" y="-37.5" font-family="Helvetica,sans-Serif" font-size="10.00"> </text>
<polyline fill="none" stroke="black" points="-1.42109e-14,-30.5 203,-30.5 "/>
<text text-anchor="start" x="8" y="-18.5" font-family="Helvetica,sans-Serif" font-size="10.00">+ MakeNavigateForward()</text>
<text text-anchor="start" x="8" y="-7.5" font-family="Helvetica,sans-Serif" font-size="10.00">+ makeAction()</text>
</g>
<!-- Node2 -->
<g id="node2" class="node"><title>Node2</title>
<g id="a_node2"><a xlink:href="a00073.html" target="_top" xlink:title="abstract base class for the creation of AbstractActions specific to the MakeAction derived type...">
<polygon fill="white" stroke="black" points="26,-127.5 26,-206.5 177,-206.5 177,-127.5 26,-127.5"/>
<text text-anchor="start" x="34" y="-194.5" font-family="Helvetica,sans-Serif" font-size="10.00">beseenium.controller.Action</text>
<text text-anchor="middle" x="101.5" y="-183.5" font-family="Helvetica,sans-Serif" font-size="10.00">Factory.MakeAction</text>
<polyline fill="none" stroke="black" points="26,-176.5 177,-176.5 "/>
<text text-anchor="start" x="34" y="-164.5" font-family="Helvetica,sans-Serif" font-size="10.00"># adFactory</text>
<polyline fill="none" stroke="black" points="26,-157.5 177,-157.5 "/>
<text text-anchor="start" x="34" y="-145.5" font-family="Helvetica,sans-Serif" font-size="10.00">+ makeAction()</text>
<text text-anchor="start" x="34" y="-134.5" font-family="Helvetica,sans-Serif" font-size="10.00"># MakeAction()</text>
</a>
</g>
</g>
<!-- Node2&#45;&gt;Node1 -->
<g id="edge1" class="edge"><title>Node2&#45;&gt;Node1</title>
<path fill="none" stroke="midnightblue" d="M101.5,-117.187C101.5,-108.491 101.5,-99.4758 101.5,-90.9111"/>
<polygon fill="none" stroke="midnightblue" points="98.0001,-117.202 101.5,-127.202 105,-117.202 98.0001,-117.202"/>
</g>
</g>
</svg>
