<?xml version="1.0" encoding="UTF-8" standalone="no"?>
<!DOCTYPE svg PUBLIC "-//W3C//DTD SVG 1.1//EN"
 "http://www.w3.org/Graphics/SVG/1.1/DTD/svg11.dtd">
<!-- Generated by graphviz version 2.38.0 (20140413.2041)
 -->
<!-- Title: beseenium.exceptions.testExceptions.TestException Pages: 1 -->
<svg width="191pt" height="298pt"
 viewBox="0.00 0.00 191.00 298.00" xmlns="http://www.w3.org/2000/svg" xmlns:xlink="http://www.w3.org/1999/xlink">
<g id="graph0" class="graph" transform="scale(1 1) rotate(0) translate(4 294)">
<title>beseenium.exceptions.testExceptions.TestException</title>
<polygon fill="white" stroke="none" points="-4,4 -4,-294 187,-294 187,4 -4,4"/>
<!-- Node1 -->
<g id="node1" class="node"><title>Node1</title>
<polygon fill="#bfbfbf" stroke="black" points="18.5,-0.5 18.5,-79.5 164.5,-79.5 164.5,-0.5 18.5,-0.5"/>
<text text-anchor="start" x="26.5" y="-67.5" font-family="Helvetica,sans-Serif" font-size="10.00">beseenium.exceptions.test</text>
<text text-anchor="middle" x="91.5" y="-56.5" font-family="Helvetica,sans-Serif" font-size="10.00">Exceptions.TestException</text>
<polyline fill="none" stroke="black" points="18.5,-49.5 164.5,-49.5 "/>
<text text-anchor="start" x="26.5" y="-37.5" font-family="Helvetica,sans-Serif" font-size="10.00">&#45; serialVersionUID</text>
<polyline fill="none" stroke="black" points="18.5,-30.5 164.5,-30.5 "/>
<text text-anchor="start" x="26.5" y="-18.5" font-family="Helvetica,sans-Serif" font-size="10.00">+ TestException()</text>
<text text-anchor="start" x="26.5" y="-7.5" font-family="Helvetica,sans-Serif" font-size="10.00"># TestException()</text>
</g>
<!-- Node2 -->
<g id="node2" class="node"><title>Node2</title>
<g id="a_node2"><a xlink:href="a00031.html" target="_top" xlink:title="Copyright(C) 2015 Jan P.C. ">
<polygon fill="white" stroke="black" points="0,-116.5 0,-195.5 183,-195.5 183,-116.5 0,-116.5"/>
<text text-anchor="start" x="8" y="-183.5" font-family="Helvetica,sans-Serif" font-size="10.00">beseenium.exceptions.BeSeenium</text>
<text text-anchor="middle" x="91.5" y="-172.5" font-family="Helvetica,sans-Serif" font-size="10.00">Exception</text>
<polyline fill="none" stroke="black" points="0,-165.5 183,-165.5 "/>
<text text-anchor="start" x="8" y="-153.5" font-family="Helvetica,sans-Serif" font-size="10.00">&#45; serialVersionUID</text>
<polyline fill="none" stroke="black" points="0,-146.5 183,-146.5 "/>
<text text-anchor="start" x="8" y="-134.5" font-family="Helvetica,sans-Serif" font-size="10.00">+ BeSeeniumException()</text>
<text text-anchor="start" x="8" y="-123.5" font-family="Helvetica,sans-Serif" font-size="10.00"># BeSeeniumException()</text>
</a>
</g>
</g>
<!-- Node2&#45;&gt;Node1 -->
<g id="edge1" class="edge"><title>Node2&#45;&gt;Node1</title>
<path fill="none" stroke="midnightblue" d="M91.5,-106.146C91.5,-97.256 91.5,-88.0961 91.5,-79.5555"/>
<polygon fill="none" stroke="midnightblue" points="88.0001,-106.405 91.5,-116.405 95.0001,-106.405 88.0001,-106.405"/>
</g>
<!-- Node3 -->
<g id="node3" class="node"><title>Node3</title>
<polygon fill="white" stroke="#bfbfbf" points="60,-232.5 60,-289.5 123,-289.5 123,-232.5 60,-232.5"/>
<text text-anchor="middle" x="91.5" y="-277.5" font-family="Helvetica,sans-Serif" font-size="10.00">Exception</text>
<polyline fill="none" stroke="#bfbfbf" points="60,-270.5 123,-270.5 "/>
<text text-anchor="middle" x="91.5" y="-258.5" font-family="Helvetica,sans-Serif" font-size="10.00"> </text>
<polyline fill="none" stroke="#bfbfbf" points="60,-251.5 123,-251.5 "/>
<text text-anchor="middle" x="91.5" y="-239.5" font-family="Helvetica,sans-Serif" font-size="10.00"> </text>
</g>
<!-- Node3&#45;&gt;Node2 -->
<g id="edge2" class="edge"><title>Node3&#45;&gt;Node2</title>
<path fill="none" stroke="midnightblue" d="M91.5,-222.156C91.5,-213.473 91.5,-204.232 91.5,-195.52"/>
<polygon fill="none" stroke="midnightblue" points="88.0001,-222.398 91.5,-232.398 95.0001,-222.398 88.0001,-222.398"/>
</g>
</g>
</svg>
