<?xml version="1.0" encoding="UTF-8" standalone="no"?>
<!DOCTYPE svg PUBLIC "-//W3C//DTD SVG 1.1//EN"
 "http://www.w3.org/Graphics/SVG/1.1/DTD/svg11.dtd">
<!-- Generated by graphviz version 2.38.0 (20140413.2041)
 -->
<!-- Title: beseenium.model.ActionInvoker Pages: 1 -->
<svg width="466pt" height="226pt"
 viewBox="0.00 0.00 466.50 226.00" xmlns="http://www.w3.org/2000/svg" xmlns:xlink="http://www.w3.org/1999/xlink">
<g id="graph0" class="graph" transform="scale(1 1) rotate(0) translate(4 222)">
<title>beseenium.model.ActionInvoker</title>
<polygon fill="white" stroke="none" points="-4,4 -4,-222 462.5,-222 462.5,4 -4,4"/>
<!-- Node1 -->
<g id="node1" class="node"><title>Node1</title>
<polygon fill="#bfbfbf" stroke="black" points="167,-0.5 167,-101.5 337,-101.5 337,-0.5 167,-0.5"/>
<text text-anchor="middle" x="252" y="-89.5" font-family="Helvetica,sans-Serif" font-size="10.00">beseenium.model.ActionInvoker</text>
<polyline fill="none" stroke="black" points="167,-82.5 337,-82.5 "/>
<text text-anchor="middle" x="252" y="-70.5" font-family="Helvetica,sans-Serif" font-size="10.00"> </text>
<polyline fill="none" stroke="black" points="167,-63.5 337,-63.5 "/>
<text text-anchor="start" x="175" y="-51.5" font-family="Helvetica,sans-Serif" font-size="10.00">+ ActionInvoker()</text>
<text text-anchor="start" x="175" y="-40.5" font-family="Helvetica,sans-Serif" font-size="10.00">+ add()</text>
<text text-anchor="start" x="175" y="-29.5" font-family="Helvetica,sans-Serif" font-size="10.00">+ remove()</text>
<text text-anchor="start" x="175" y="-18.5" font-family="Helvetica,sans-Serif" font-size="10.00">+ execute()</text>
<text text-anchor="start" x="175" y="-7.5" font-family="Helvetica,sans-Serif" font-size="10.00">+ size()</text>
</g>
<!-- Node2 -->
<g id="node2" class="node"><title>Node2</title>
<polygon fill="white" stroke="#bfbfbf" points="0,-155 0,-212 84,-212 84,-155 0,-155"/>
<text text-anchor="middle" x="42" y="-200" font-family="Helvetica,sans-Serif" font-size="10.00">List&lt; String &gt;</text>
<polyline fill="none" stroke="#bfbfbf" points="0,-193 84,-193 "/>
<text text-anchor="middle" x="42" y="-181" font-family="Helvetica,sans-Serif" font-size="10.00"> </text>
<polyline fill="none" stroke="#bfbfbf" points="0,-174 84,-174 "/>
<text text-anchor="middle" x="42" y="-162" font-family="Helvetica,sans-Serif" font-size="10.00"> </text>
</g>
<!-- Node2&#45;&gt;Node1 -->
<g id="edge1" class="edge"><title>Node2&#45;&gt;Node1</title>
<path fill="none" stroke="#404040" d="M83.675,-154.963C86.8227,-152.933 89.957,-150.927 93,-149 114.344,-135.485 137.469,-121.185 159.3,-107.837"/>
<polygon fill="none" stroke="#404040" points="159.319,-107.826 162.357,-101.286 169.562,-101.574 166.524,-108.114 159.319,-107.826"/>
<text text-anchor="middle" x="175" y="-123" font-family="Helvetica,sans-Serif" font-size="10.00"> &#45;inputParams</text>
</g>
<!-- Node3 -->
<g id="node3" class="node"><title>Node3</title>
<polygon fill="white" stroke="#bfbfbf" points="102,-149.5 102,-217.5 268,-217.5 268,-149.5 102,-149.5"/>
<text text-anchor="start" x="110" y="-205.5" font-family="Helvetica,sans-Serif" font-size="10.00">List&lt; beseenium.model.action.</text>
<text text-anchor="middle" x="185" y="-194.5" font-family="Helvetica,sans-Serif" font-size="10.00">AbstractAction &gt;</text>
<polyline fill="none" stroke="#bfbfbf" points="102,-187.5 268,-187.5 "/>
<text text-anchor="middle" x="185" y="-175.5" font-family="Helvetica,sans-Serif" font-size="10.00"> </text>
<polyline fill="none" stroke="#bfbfbf" points="102,-168.5 268,-168.5 "/>
<text text-anchor="middle" x="185" y="-156.5" font-family="Helvetica,sans-Serif" font-size="10.00"> </text>
</g>
<!-- Node3&#45;&gt;Node1 -->
<g id="edge2" class="edge"><title>Node3&#45;&gt;Node1</title>
<path fill="none" stroke="#404040" d="M202.08,-149.232C207.778,-138.134 214.317,-125.398 220.745,-112.876"/>
<polygon fill="none" stroke="#404040" points="220.861,-112.65 220.043,-105.486 226.342,-101.975 227.16,-109.14 220.861,-112.65"/>
<text text-anchor="middle" x="238" y="-123" font-family="Helvetica,sans-Serif" font-size="10.00"> &#45;actions</text>
</g>
<!-- Node4 -->
<g id="node4" class="node"><title>Node4</title>
<polygon fill="white" stroke="#bfbfbf" points="286.5,-155 286.5,-212 351.5,-212 351.5,-155 286.5,-155"/>
<text text-anchor="middle" x="319" y="-200" font-family="Helvetica,sans-Serif" font-size="10.00">WebDriver</text>
<polyline fill="none" stroke="#bfbfbf" points="286.5,-193 351.5,-193 "/>
<text text-anchor="middle" x="319" y="-181" font-family="Helvetica,sans-Serif" font-size="10.00"> </text>
<polyline fill="none" stroke="#bfbfbf" points="286.5,-174 351.5,-174 "/>
<text text-anchor="middle" x="319" y="-162" font-family="Helvetica,sans-Serif" font-size="10.00"> </text>
</g>
<!-- Node4&#45;&gt;Node1 -->
<g id="edge3" class="edge"><title>Node4&#45;&gt;Node1</title>
<path fill="none" stroke="#404040" d="M304.791,-154.824C298.393,-142.362 290.57,-127.125 282.927,-112.238"/>
<polygon fill="none" stroke="#404040" points="282.897,-112.18 276.598,-108.67 277.416,-101.505 283.715,-105.016 282.897,-112.18"/>
<text text-anchor="middle" x="309" y="-123" font-family="Helvetica,sans-Serif" font-size="10.00"> &#45;driver</text>
</g>
<!-- Node5 -->
<g id="node5" class="node"><title>Node5</title>
<polygon fill="white" stroke="#bfbfbf" points="369.5,-155 369.5,-212 458.5,-212 458.5,-155 369.5,-155"/>
<text text-anchor="middle" x="414" y="-200" font-family="Helvetica,sans-Serif" font-size="10.00">List&lt; Integer &gt;</text>
<polyline fill="none" stroke="#bfbfbf" points="369.5,-193 458.5,-193 "/>
<text text-anchor="middle" x="414" y="-181" font-family="Helvetica,sans-Serif" font-size="10.00"> </text>
<polyline fill="none" stroke="#bfbfbf" points="369.5,-174 458.5,-174 "/>
<text text-anchor="middle" x="414" y="-162" font-family="Helvetica,sans-Serif" font-size="10.00"> </text>
</g>
<!-- Node5&#45;&gt;Node1 -->
<g id="edge4" class="edge"><title>Node5&#45;&gt;Node1</title>
<path fill="none" stroke="#404040" d="M379.644,-154.824C363.122,-141.515 342.672,-125.041 323.018,-109.209"/>
<polygon fill="none" stroke="#404040" points="322.8,-109.033 315.618,-108.384 313.455,-101.505 320.636,-102.154 322.8,-109.033"/>
<text text-anchor="middle" x="383.5" y="-123" font-family="Helvetica,sans-Serif" font-size="10.00"> &#45;optionalIndex</text>
</g>
</g>
</svg>
