<?xml version="1.0" encoding="UTF-8" standalone="no"?>
<!DOCTYPE svg PUBLIC "-//W3C//DTD SVG 1.1//EN"
 "http://www.w3.org/Graphics/SVG/1.1/DTD/svg11.dtd">
<!-- Generated by graphviz version 2.38.0 (20140413.2041)
 -->
<!-- Title: beseenium.controller.ActionFactory.findElementsBy.MakeFindElementsByPartialLinkTxt Pages: 1 -->
<svg width="722pt" height="685pt"
 viewBox="0.00 0.00 722.50 685.00" xmlns="http://www.w3.org/2000/svg" xmlns:xlink="http://www.w3.org/1999/xlink">
<g id="graph0" class="graph" transform="scale(1 1) rotate(0) translate(4 681)">
<title>beseenium.controller.ActionFactory.findElementsBy.MakeFindElementsByPartialLinkTxt</title>
<polygon fill="white" stroke="none" points="-4,4 -4,-681 718.5,-681 718.5,4 -4,4"/>
<!-- Node1 -->
<g id="node1" class="node"><title>Node1</title>
<polygon fill="#bfbfbf" stroke="black" points="366,-0.5 366,-101.5 543,-101.5 543,-0.5 366,-0.5"/>
<text text-anchor="start" x="374" y="-89.5" font-family="Helvetica,sans-Serif" font-size="10.00">beseenium.controller.Action</text>
<text text-anchor="start" x="374" y="-78.5" font-family="Helvetica,sans-Serif" font-size="10.00">Factory.findElementsBy.MakeFind</text>
<text text-anchor="middle" x="454.5" y="-67.5" font-family="Helvetica,sans-Serif" font-size="10.00">ElementsByPartialLinkTxt</text>
<polyline fill="none" stroke="black" points="366,-60.5 543,-60.5 "/>
<text text-anchor="middle" x="454.5" y="-48.5" font-family="Helvetica,sans-Serif" font-size="10.00"> </text>
<polyline fill="none" stroke="black" points="366,-41.5 543,-41.5 "/>
<text text-anchor="start" x="374" y="-29.5" font-family="Helvetica,sans-Serif" font-size="10.00">+ MakeFindElementsByPartial</text>
<text text-anchor="start" x="374" y="-18.5" font-family="Helvetica,sans-Serif" font-size="10.00">LinkTxt()</text>
<text text-anchor="start" x="374" y="-7.5" font-family="Helvetica,sans-Serif" font-size="10.00">+ makeAction()</text>
</g>
<!-- Node2 -->
<g id="node2" class="node"><title>Node2</title>
<g id="a_node2"><a xlink:href="a00073.html" target="_top" xlink:title="abstract base class for the creation of AbstractActions specific to the MakeAction derived type...">
<polygon fill="white" stroke="black" points="379,-139.5 379,-218.5 530,-218.5 530,-139.5 379,-139.5"/>
<text text-anchor="start" x="387" y="-206.5" font-family="Helvetica,sans-Serif" font-size="10.00">beseenium.controller.Action</text>
<text text-anchor="middle" x="454.5" y="-195.5" font-family="Helvetica,sans-Serif" font-size="10.00">Factory.MakeAction</text>
<polyline fill="none" stroke="black" points="379,-188.5 530,-188.5 "/>
<text text-anchor="middle" x="454.5" y="-176.5" font-family="Helvetica,sans-Serif" font-size="10.00"> </text>
<polyline fill="none" stroke="black" points="379,-169.5 530,-169.5 "/>
<text text-anchor="start" x="387" y="-157.5" font-family="Helvetica,sans-Serif" font-size="10.00">+ makeAction()</text>
<text text-anchor="start" x="387" y="-146.5" font-family="Helvetica,sans-Serif" font-size="10.00"># MakeAction()</text>
</a>
</g>
</g>
<!-- Node2&#45;&gt;Node1 -->
<g id="edge1" class="edge"><title>Node2&#45;&gt;Node1</title>
<path fill="none" stroke="midnightblue" d="M454.5,-128.889C454.5,-119.939 454.5,-110.596 454.5,-101.632"/>
<polygon fill="none" stroke="midnightblue" points="451,-129.168 454.5,-139.168 458,-129.168 451,-129.168"/>
</g>
<!-- Node3 -->
<g id="node3" class="node"><title>Node3</title>
<g id="a_node3"><a xlink:href="a00017.html" target="_top" xlink:title="This Class conforms to a &#39;factory&#39; pattern, it allows the creation of different ActionData instances...">
<polygon fill="white" stroke="black" points="371,-266.5 371,-378.5 538,-378.5 538,-266.5 371,-266.5"/>
<text text-anchor="start" x="379" y="-366.5" font-family="Helvetica,sans-Serif" font-size="10.00">beseenium.controller.Action</text>
<text text-anchor="middle" x="454.5" y="-355.5" font-family="Helvetica,sans-Serif" font-size="10.00">DataFactory.ActionDataFactory</text>
<polyline fill="none" stroke="black" points="371,-348.5 538,-348.5 "/>
<text text-anchor="middle" x="454.5" y="-336.5" font-family="Helvetica,sans-Serif" font-size="10.00"> </text>
<polyline fill="none" stroke="black" points="371,-329.5 538,-329.5 "/>
<text text-anchor="start" x="379" y="-317.5" font-family="Helvetica,sans-Serif" font-size="10.00">+ ActionDataFactory()</text>
<text text-anchor="start" x="379" y="-306.5" font-family="Helvetica,sans-Serif" font-size="10.00">+ setCapabilities()</text>
<text text-anchor="start" x="379" y="-295.5" font-family="Helvetica,sans-Serif" font-size="10.00">+ makeActionData()</text>
<text text-anchor="start" x="379" y="-284.5" font-family="Helvetica,sans-Serif" font-size="10.00">+ makeActionData()</text>
<text text-anchor="start" x="379" y="-273.5" font-family="Helvetica,sans-Serif" font-size="10.00">&#45; mapEntries()</text>
</a>
</g>
</g>
<!-- Node3&#45;&gt;Node2 -->
<g id="edge2" class="edge"><title>Node3&#45;&gt;Node2</title>
<path fill="none" stroke="#404040" d="M454.5,-266.387C454.5,-254.648 454.5,-242.304 454.5,-230.738"/>
<polygon fill="none" stroke="#404040" points="454.5,-230.557 450.5,-224.557 454.5,-218.557 458.5,-224.557 454.5,-230.557"/>
<text text-anchor="middle" x="484" y="-240" font-family="Helvetica,sans-Serif" font-size="10.00"> #adFactory</text>
</g>
<!-- Node4 -->
<g id="node4" class="node"><title>Node4</title>
<g id="a_node4"><a xlink:href="a00077.html" target="_top" xlink:title="interface which describes a prototype for creating MakeData objects. ">
<polygon fill="white" stroke="black" points="0,-465 0,-533 151,-533 151,-465 0,-465"/>
<text text-anchor="start" x="8" y="-521" font-family="Helvetica,sans-Serif" font-size="10.00">beseenium.controller.Action</text>
<text text-anchor="middle" x="75.5" y="-510" font-family="Helvetica,sans-Serif" font-size="10.00">DataFactory.MakeData</text>
<polyline fill="none" stroke="black" points="0,-503 151,-503 "/>
<text text-anchor="middle" x="75.5" y="-491" font-family="Helvetica,sans-Serif" font-size="10.00"> </text>
<polyline fill="none" stroke="black" points="0,-484 151,-484 "/>
<text text-anchor="start" x="8" y="-472" font-family="Helvetica,sans-Serif" font-size="10.00">+ makeActionData()</text>
</a>
</g>
</g>
<!-- Node4&#45;&gt;Node3 -->
<g id="edge3" class="edge"><title>Node4&#45;&gt;Node3</title>
<path fill="none" stroke="midnightblue" d="M116.457,-458.063C129.745,-446.597 145.06,-434.823 160.5,-426 227.028,-387.986 310.021,-360.644 370.847,-343.81"/>
<polygon fill="none" stroke="midnightblue" points="114.06,-455.511 108.883,-464.755 118.694,-460.757 114.06,-455.511"/>
</g>
<!-- Node5 -->
<g id="node5" class="node"><title>Node5</title>
<polygon fill="white" stroke="#bfbfbf" points="169,-465 169,-533 356,-533 356,-465 169,-465"/>
<text text-anchor="start" x="177" y="-521" font-family="Helvetica,sans-Serif" font-size="10.00">Map&lt; String, beseenium.controller.</text>
<text text-anchor="middle" x="262.5" y="-510" font-family="Helvetica,sans-Serif" font-size="10.00">ActionDataFactory.MakeData &gt;</text>
<polyline fill="none" stroke="#bfbfbf" points="169,-503 356,-503 "/>
<text text-anchor="middle" x="262.5" y="-491" font-family="Helvetica,sans-Serif" font-size="10.00"> </text>
<polyline fill="none" stroke="#bfbfbf" points="169,-484 356,-484 "/>
<text text-anchor="middle" x="262.5" y="-472" font-family="Helvetica,sans-Serif" font-size="10.00"> </text>
</g>
<!-- Node5&#45;&gt;Node3 -->
<g id="edge4" class="edge"><title>Node5&#45;&gt;Node3</title>
<path fill="none" stroke="#404040" d="M296.839,-464.863C317.652,-444.961 344.86,-419.263 369.5,-397 373.245,-393.616 377.102,-390.165 381.009,-386.695"/>
<polygon fill="none" stroke="#404040" points="381.195,-386.532 383.044,-379.562 390.189,-378.588 388.34,-385.558 381.195,-386.532"/>
<text text-anchor="middle" x="410" y="-400" font-family="Helvetica,sans-Serif" font-size="10.00"> &#45;ActionDataMap</text>
</g>
<!-- Node6 -->
<g id="node6" class="node"><title>Node6</title>
<g id="a_node6"><a xlink:href="a00014.html" target="_top" xlink:title="This class encapsulates the data needed to perform an action into 4 distinct areas: &#160;&#160;&#160;...">
<polygon fill="white" stroke="black" points="374,-426.5 374,-571.5 535,-571.5 535,-426.5 374,-426.5"/>
<text text-anchor="start" x="382" y="-559.5" font-family="Helvetica,sans-Serif" font-size="10.00">beseenium.model.actionData.</text>
<text text-anchor="middle" x="454.5" y="-548.5" font-family="Helvetica,sans-Serif" font-size="10.00">ActionData</text>
<polyline fill="none" stroke="black" points="374,-541.5 535,-541.5 "/>
<text text-anchor="start" x="382" y="-529.5" font-family="Helvetica,sans-Serif" font-size="10.00">&#45; inputParam</text>
<polyline fill="none" stroke="black" points="374,-522.5 535,-522.5 "/>
<text text-anchor="start" x="382" y="-510.5" font-family="Helvetica,sans-Serif" font-size="10.00">+ ActionData()</text>
<text text-anchor="start" x="382" y="-499.5" font-family="Helvetica,sans-Serif" font-size="10.00">+ ActionData()</text>
<text text-anchor="start" x="382" y="-488.5" font-family="Helvetica,sans-Serif" font-size="10.00">+ getInputParam()</text>
<text text-anchor="start" x="382" y="-477.5" font-family="Helvetica,sans-Serif" font-size="10.00">+ getElement()</text>
<text text-anchor="start" x="382" y="-466.5" font-family="Helvetica,sans-Serif" font-size="10.00">+ getDriver()</text>
<text text-anchor="start" x="382" y="-455.5" font-family="Helvetica,sans-Serif" font-size="10.00">+ setElement()</text>
<text text-anchor="start" x="382" y="-444.5" font-family="Helvetica,sans-Serif" font-size="10.00">+ setInputParam()</text>
<text text-anchor="start" x="382" y="-433.5" font-family="Helvetica,sans-Serif" font-size="10.00">+ setDriver()</text>
</a>
</g>
</g>
<!-- Node6&#45;&gt;Node3 -->
<g id="edge5" class="edge"><title>Node6&#45;&gt;Node3</title>
<path fill="none" stroke="#404040" d="M454.5,-426.269C454.5,-414.602 454.5,-402.553 454.5,-390.992"/>
<polygon fill="none" stroke="#404040" points="454.5,-390.681 450.5,-384.681 454.5,-378.681 458.5,-384.681 454.5,-390.681"/>
<text text-anchor="middle" x="500" y="-400" font-family="Helvetica,sans-Serif" font-size="10.00"> &#45;emptyActionData</text>
</g>
<!-- Node7 -->
<g id="node7" class="node"><title>Node7</title>
<polygon fill="white" stroke="#bfbfbf" points="342.5,-619.5 342.5,-676.5 458.5,-676.5 458.5,-619.5 342.5,-619.5"/>
<text text-anchor="middle" x="400.5" y="-664.5" font-family="Helvetica,sans-Serif" font-size="10.00">List&lt; WebElement &gt;</text>
<polyline fill="none" stroke="#bfbfbf" points="342.5,-657.5 458.5,-657.5 "/>
<text text-anchor="middle" x="400.5" y="-645.5" font-family="Helvetica,sans-Serif" font-size="10.00"> </text>
<polyline fill="none" stroke="#bfbfbf" points="342.5,-638.5 458.5,-638.5 "/>
<text text-anchor="middle" x="400.5" y="-626.5" font-family="Helvetica,sans-Serif" font-size="10.00"> </text>
</g>
<!-- Node7&#45;&gt;Node6 -->
<g id="edge6" class="edge"><title>Node7&#45;&gt;Node6</title>
<path fill="none" stroke="#404040" d="M410.657,-619.35C414.532,-608.801 419.178,-596.153 423.975,-583.095"/>
<polygon fill="none" stroke="#404040" points="424.076,-582.82 422.391,-575.808 428.214,-571.555 429.9,-578.567 424.076,-582.82"/>
<text text-anchor="middle" x="445" y="-593" font-family="Helvetica,sans-Serif" font-size="10.00"> &#45;element</text>
</g>
<!-- Node8 -->
<g id="node8" class="node"><title>Node8</title>
<polygon fill="white" stroke="#bfbfbf" points="477,-619.5 477,-676.5 542,-676.5 542,-619.5 477,-619.5"/>
<text text-anchor="middle" x="509.5" y="-664.5" font-family="Helvetica,sans-Serif" font-size="10.00">WebDriver</text>
<polyline fill="none" stroke="#bfbfbf" points="477,-657.5 542,-657.5 "/>
<text text-anchor="middle" x="509.5" y="-645.5" font-family="Helvetica,sans-Serif" font-size="10.00"> </text>
<polyline fill="none" stroke="#bfbfbf" points="477,-638.5 542,-638.5 "/>
<text text-anchor="middle" x="509.5" y="-626.5" font-family="Helvetica,sans-Serif" font-size="10.00"> </text>
</g>
<!-- Node8&#45;&gt;Node6 -->
<g id="edge7" class="edge"><title>Node8&#45;&gt;Node6</title>
<path fill="none" stroke="#404040" d="M499.155,-619.35C495.208,-608.801 490.476,-596.153 485.59,-583.095"/>
<polygon fill="none" stroke="#404040" points="485.478,-582.795 479.629,-578.577 481.272,-571.555 487.121,-575.773 485.478,-582.795"/>
<text text-anchor="middle" x="509.5" y="-593" font-family="Helvetica,sans-Serif" font-size="10.00"> &#45;driver</text>
</g>
<!-- Node9 -->
<g id="node9" class="node"><title>Node9</title>
<polygon fill="white" stroke="#bfbfbf" points="553,-470.5 553,-527.5 588,-527.5 588,-470.5 553,-470.5"/>
<text text-anchor="middle" x="570.5" y="-515.5" font-family="Helvetica,sans-Serif" font-size="10.00">URL</text>
<polyline fill="none" stroke="#bfbfbf" points="553,-508.5 588,-508.5 "/>
<text text-anchor="middle" x="570.5" y="-496.5" font-family="Helvetica,sans-Serif" font-size="10.00"> </text>
<polyline fill="none" stroke="#bfbfbf" points="553,-489.5 588,-489.5 "/>
<text text-anchor="middle" x="570.5" y="-477.5" font-family="Helvetica,sans-Serif" font-size="10.00"> </text>
</g>
<!-- Node9&#45;&gt;Node3 -->
<g id="edge8" class="edge"><title>Node9&#45;&gt;Node3</title>
<path fill="none" stroke="#404040" d="M569.524,-470.372C567.632,-448.918 562.436,-419.187 548.5,-397 546.525,-393.856 544.366,-390.792 542.059,-387.812"/>
<polygon fill="none" stroke="#404040" points="541.993,-387.735 535.06,-385.75 534.226,-378.587 541.159,-380.572 541.993,-387.735"/>
<text text-anchor="middle" x="567.5" y="-400" font-family="Helvetica,sans-Serif" font-size="10.00"> &#45;URL</text>
</g>
<!-- Node10 -->
<g id="node10" class="node"><title>Node10</title>
<polygon fill="white" stroke="#bfbfbf" points="606.5,-470.5 606.5,-527.5 714.5,-527.5 714.5,-470.5 606.5,-470.5"/>
<text text-anchor="middle" x="660.5" y="-515.5" font-family="Helvetica,sans-Serif" font-size="10.00">DesiredCapabilities</text>
<polyline fill="none" stroke="#bfbfbf" points="606.5,-508.5 714.5,-508.5 "/>
<text text-anchor="middle" x="660.5" y="-496.5" font-family="Helvetica,sans-Serif" font-size="10.00"> </text>
<polyline fill="none" stroke="#bfbfbf" points="606.5,-489.5 714.5,-489.5 "/>
<text text-anchor="middle" x="660.5" y="-477.5" font-family="Helvetica,sans-Serif" font-size="10.00"> </text>
</g>
<!-- Node10&#45;&gt;Node3 -->
<g id="edge9" class="edge"><title>Node10&#45;&gt;Node3</title>
<path fill="none" stroke="#404040" d="M644.087,-470.232C630.209,-448.419 608.749,-418.274 584.5,-397 573.504,-387.353 561.041,-378.389 548.292,-370.274"/>
<polygon fill="none" stroke="#404040" points="548.245,-370.245 541.039,-370.504 538.028,-363.952 545.234,-363.693 548.245,-370.245"/>
<text text-anchor="middle" x="625" y="-400" font-family="Helvetica,sans-Serif" font-size="10.00"> &#45;capabilities</text>
</g>
</g>
</svg>
