<?xml version="1.0" encoding="UTF-8" standalone="no"?>
<!DOCTYPE svg PUBLIC "-//W3C//DTD SVG 1.1//EN"
 "http://www.w3.org/Graphics/SVG/1.1/DTD/svg11.dtd">
<!-- Generated by graphviz version 2.38.0 (20140413.2041)
 -->
<!-- Title: beseenium.exceptions.actionExceptions.ActionException Pages: 1 -->
<!--zoomable 414 -->
<svg id="main" version="1.1" xmlns="http://www.w3.org/2000/svg" xmlns:xlink="http://www.w3.org/1999/xlink" xml:space="preserve" onload="init(evt)">
<style type="text/css"><![CDATA[
.edge:hover path { stroke: red; }
.edge:hover polygon { stroke: red; fill: red; }
]]></style>
<script type="text/javascript"><![CDATA[
var edges = document.getElementsByTagName('g');
if (edges && edges.length) {
  for (var i=0;i<edges.length;i++) {
    if (edges[i].id.substr(0,4)=='edge') {
      edges[i].setAttribute('class','edge');
    }
  }
}
]]></script>
        <defs>
                <circle id="rim" cx="0" cy="0" r="7"/>
                <circle id="rim2" cx="0" cy="0" r="3.5"/>
                <g id="zoomPlus">
                        <use xlink:href="#rim" fill="#404040">
                                <set attributeName="fill" to="#808080" begin="zoomplus.mouseover" end="zoomplus.mouseout"/>
                        </use>
                        <path d="M-4,0h8M0,-4v8" fill="none" stroke="white" stroke-width="1.5" pointer-events="none"/>
                </g>
                <g id="zoomMin">
                        <use xlink:href="#rim" fill="#404040">
                                <set attributeName="fill" to="#808080" begin="zoomminus.mouseover" end="zoomminus.mouseout"/>
                        </use>
                        <path d="M-4,0h8" fill="none" stroke="white" stroke-width="1.5" pointer-events="none"/>
                </g>
                <g id="dirArrow">
                        <path fill="none" stroke="white" stroke-width="1.5" d="M0,-3.0v7 M-2.5,-0.5L0,-3.0L2.5,-0.5"/>
                </g>
               <g id="resetDef">
                       <use xlink:href="#rim2" fill="#404040">
                               <set attributeName="fill" to="#808080" begin="reset.mouseover" end="reset.mouseout"/>
                       </use>
               </g>
        </defs>

<script type="text/javascript">
var viewWidth = 766;
var viewHeight = 414;
var sectionId = 'dynsection-0';
</script>
<script xlink:href="svgpan.js"/>
<svg id="graph" class="graph">
<g id="viewport">
<title>beseenium.exceptions.actionExceptions.ActionException</title>
<polygon fill="white" stroke="none" points="-4,4 -4,-410 762,-410 762,4 -4,4"/>
<!-- Node1 -->
<g id="node1" class="node"><title>Node1</title>
<polygon fill="#bfbfbf" stroke="black" points="301,-116.5 301,-195.5 458,-195.5 458,-116.5 301,-116.5"/>
<text text-anchor="start" x="309" y="-183.5" font-family="Helvetica,sans-Serif" font-size="10.00">beseenium.exceptions.action</text>
<text text-anchor="middle" x="379.5" y="-172.5" font-family="Helvetica,sans-Serif" font-size="10.00">Exceptions.ActionException</text>
<polyline fill="none" stroke="black" points="301,-165.5 458,-165.5 "/>
<text text-anchor="start" x="309" y="-153.5" font-family="Helvetica,sans-Serif" font-size="10.00">&#45; serialVersionUID</text>
<polyline fill="none" stroke="black" points="301,-146.5 458,-146.5 "/>
<text text-anchor="start" x="309" y="-134.5" font-family="Helvetica,sans-Serif" font-size="10.00">+ ActionException()</text>
<text text-anchor="start" x="309" y="-123.5" font-family="Helvetica,sans-Serif" font-size="10.00">+ ActionException()</text>
</g>
<!-- Node4 -->
<g id="node4" class="node"><title>Node4</title>
<g id="a_node4"><a xlink:href="a00022.html" target="_top" xlink:title="Copyright(C) 2015 Jan P.C. ">
<polygon fill="white" stroke="black" points="0,-0.5 0,-79.5 183,-79.5 183,-0.5 0,-0.5"/>
<text text-anchor="start" x="8" y="-67.5" font-family="Helvetica,sans-Serif" font-size="10.00">beseenium.exceptions.action</text>
<text text-anchor="middle" x="91.5" y="-56.5" font-family="Helvetica,sans-Serif" font-size="10.00">Exceptions.ActionFactoryException</text>
<polyline fill="none" stroke="black" points="0,-49.5 183,-49.5 "/>
<text text-anchor="start" x="8" y="-37.5" font-family="Helvetica,sans-Serif" font-size="10.00">&#45; serialVersionUID</text>
<polyline fill="none" stroke="black" points="0,-30.5 183,-30.5 "/>
<text text-anchor="start" x="8" y="-18.5" font-family="Helvetica,sans-Serif" font-size="10.00">+ ActionFactoryException()</text>
<text text-anchor="start" x="8" y="-7.5" font-family="Helvetica,sans-Serif" font-size="10.00">+ ActionFactoryException()</text>
</a>
</g>
</g>
<!-- Node1&#45;&gt;Node4 -->
<g id="edge3" class="edge"><title>Node1&#45;&gt;Node4</title>
<path fill="none" stroke="midnightblue" d="M291.272,-120.077C256.986,-106.505 217.71,-90.9581 183.107,-77.2612"/>
<polygon fill="none" stroke="midnightblue" points="290.216,-123.423 300.803,-123.849 292.793,-116.914 290.216,-123.423"/>
</g>
<!-- Node5 -->
<g id="node5" class="node"><title>Node5</title>
<g id="a_node5"><a xlink:href="a00042.html" target="_top" xlink:title="Copyright(C) 2015 Jan P.C. ">
<polygon fill="white" stroke="black" points="201,-0.5 201,-79.5 358,-79.5 358,-0.5 201,-0.5"/>
<text text-anchor="start" x="209" y="-67.5" font-family="Helvetica,sans-Serif" font-size="10.00">beseenium.exceptions.action</text>
<text text-anchor="middle" x="279.5" y="-56.5" font-family="Helvetica,sans-Serif" font-size="10.00">Exceptions.ClickException</text>
<polyline fill="none" stroke="black" points="201,-49.5 358,-49.5 "/>
<text text-anchor="start" x="209" y="-37.5" font-family="Helvetica,sans-Serif" font-size="10.00">&#45; serialVersionUID</text>
<polyline fill="none" stroke="black" points="201,-30.5 358,-30.5 "/>
<text text-anchor="start" x="209" y="-18.5" font-family="Helvetica,sans-Serif" font-size="10.00">+ ClickException()</text>
<text text-anchor="start" x="209" y="-7.5" font-family="Helvetica,sans-Serif" font-size="10.00">+ ClickException()</text>
</a>
</g>
</g>
<!-- Node1&#45;&gt;Node5 -->
<g id="edge4" class="edge"><title>Node1&#45;&gt;Node5</title>
<path fill="none" stroke="midnightblue" d="M338.927,-108.746C330.425,-99.0541 321.545,-88.9316 313.321,-79.5555"/>
<polygon fill="none" stroke="midnightblue" points="336.419,-111.195 345.645,-116.405 341.681,-106.579 336.419,-111.195"/>
</g>
<!-- Node6 -->
<g id="node6" class="node"><title>Node6</title>
<g id="a_node6"><a xlink:href="a00113.html" target="_top" xlink:title="Copyright(C) 2015 Jan P.C. ">
<polygon fill="white" stroke="black" points="376.5,-0.5 376.5,-79.5 582.5,-79.5 582.5,-0.5 376.5,-0.5"/>
<text text-anchor="start" x="384.5" y="-67.5" font-family="Helvetica,sans-Serif" font-size="10.00">beseenium.exceptions.action</text>
<text text-anchor="middle" x="479.5" y="-56.5" font-family="Helvetica,sans-Serif" font-size="10.00">Exceptions.NoSuchParameterException</text>
<polyline fill="none" stroke="black" points="376.5,-49.5 582.5,-49.5 "/>
<text text-anchor="start" x="384.5" y="-37.5" font-family="Helvetica,sans-Serif" font-size="10.00">&#45; serialVersionUID</text>
<polyline fill="none" stroke="black" points="376.5,-30.5 582.5,-30.5 "/>
<text text-anchor="start" x="384.5" y="-18.5" font-family="Helvetica,sans-Serif" font-size="10.00">+ NoSuchParameterException()</text>
<text text-anchor="start" x="384.5" y="-7.5" font-family="Helvetica,sans-Serif" font-size="10.00">+ NoSuchParameterException()</text>
</a>
</g>
</g>
<!-- Node1&#45;&gt;Node6 -->
<g id="edge5" class="edge"><title>Node1&#45;&gt;Node6</title>
<path fill="none" stroke="midnightblue" d="M420.073,-108.746C428.575,-99.0541 437.455,-88.9316 445.679,-79.5555"/>
<polygon fill="none" stroke="midnightblue" points="417.319,-106.579 413.355,-116.405 422.581,-111.195 417.319,-106.579"/>
</g>
<!-- Node7 -->
<g id="node7" class="node"><title>Node7</title>
<g id="a_node7"><a xlink:href="a00127.html" target="_top" xlink:title="Copyright(C) 2015 Jan P.C. ">
<polygon fill="white" stroke="black" points="601,-0.5 601,-79.5 758,-79.5 758,-0.5 601,-0.5"/>
<text text-anchor="start" x="609" y="-67.5" font-family="Helvetica,sans-Serif" font-size="10.00">beseenium.exceptions.action</text>
<text text-anchor="middle" x="679.5" y="-56.5" font-family="Helvetica,sans-Serif" font-size="10.00">Exceptions.SubmitException</text>
<polyline fill="none" stroke="black" points="601,-49.5 758,-49.5 "/>
<text text-anchor="start" x="609" y="-37.5" font-family="Helvetica,sans-Serif" font-size="10.00">&#45; serialVersionUID</text>
<polyline fill="none" stroke="black" points="601,-30.5 758,-30.5 "/>
<text text-anchor="start" x="609" y="-18.5" font-family="Helvetica,sans-Serif" font-size="10.00">+ SubmitException()</text>
<text text-anchor="start" x="609" y="-7.5" font-family="Helvetica,sans-Serif" font-size="10.00">+ SubmitException()</text>
</a>
</g>
</g>
<!-- Node1&#45;&gt;Node7 -->
<g id="edge6" class="edge"><title>Node1&#45;&gt;Node7</title>
<path fill="none" stroke="midnightblue" d="M467.65,-125.52C505.959,-112.27 551.202,-96.0301 591.5,-80 594.605,-78.7647 597.763,-77.4843 600.945,-76.1735"/>
<polygon fill="none" stroke="midnightblue" points="466.381,-122.255 458.067,-128.822 468.661,-128.873 466.381,-122.255"/>
</g>
<!-- Node2 -->
<g id="node2" class="node"><title>Node2</title>
<g id="a_node2"><a xlink:href="a00031.html" target="_top" xlink:title="Copyright(C) 2015 Jan P.C. ">
<polygon fill="white" stroke="black" points="288,-232.5 288,-311.5 471,-311.5 471,-232.5 288,-232.5"/>
<text text-anchor="start" x="296" y="-299.5" font-family="Helvetica,sans-Serif" font-size="10.00">beseenium.exceptions.BeSeenium</text>
<text text-anchor="middle" x="379.5" y="-288.5" font-family="Helvetica,sans-Serif" font-size="10.00">Exception</text>
<polyline fill="none" stroke="black" points="288,-281.5 471,-281.5 "/>
<text text-anchor="start" x="296" y="-269.5" font-family="Helvetica,sans-Serif" font-size="10.00">&#45; serialVersionUID</text>
<polyline fill="none" stroke="black" points="288,-262.5 471,-262.5 "/>
<text text-anchor="start" x="296" y="-250.5" font-family="Helvetica,sans-Serif" font-size="10.00">+ BeSeeniumException()</text>
<text text-anchor="start" x="296" y="-239.5" font-family="Helvetica,sans-Serif" font-size="10.00"># BeSeeniumException()</text>
</a>
</g>
</g>
<!-- Node2&#45;&gt;Node1 -->
<g id="edge1" class="edge"><title>Node2&#45;&gt;Node1</title>
<path fill="none" stroke="midnightblue" d="M379.5,-222.146C379.5,-213.256 379.5,-204.096 379.5,-195.555"/>
<polygon fill="none" stroke="midnightblue" points="376,-222.405 379.5,-232.405 383,-222.405 376,-222.405"/>
</g>
<!-- Node3 -->
<g id="node3" class="node"><title>Node3</title>
<polygon fill="white" stroke="#bfbfbf" points="348,-348.5 348,-405.5 411,-405.5 411,-348.5 348,-348.5"/>
<text text-anchor="middle" x="379.5" y="-393.5" font-family="Helvetica,sans-Serif" font-size="10.00">Exception</text>
<polyline fill="none" stroke="#bfbfbf" points="348,-386.5 411,-386.5 "/>
<text text-anchor="middle" x="379.5" y="-374.5" font-family="Helvetica,sans-Serif" font-size="10.00"> </text>
<polyline fill="none" stroke="#bfbfbf" points="348,-367.5 411,-367.5 "/>
<text text-anchor="middle" x="379.5" y="-355.5" font-family="Helvetica,sans-Serif" font-size="10.00"> </text>
</g>
<!-- Node3&#45;&gt;Node2 -->
<g id="edge2" class="edge"><title>Node3&#45;&gt;Node2</title>
<path fill="none" stroke="midnightblue" d="M379.5,-338.156C379.5,-329.473 379.5,-320.232 379.5,-311.52"/>
<polygon fill="none" stroke="midnightblue" points="376,-338.398 379.5,-348.398 383,-338.398 376,-338.398"/>
</g>
</g>
</svg>
        <g id="navigator" transform="translate(0 0)" fill="#404254">
                <rect fill="#f2f5e9" fill-opacity="0.5" stroke="#606060" stroke-width=".5" x="0" y="0" width="60" height="60"/>
                <use id="zoomplus" xlink:href="#zoomPlus" x="17" y="9" onmousedown="handleZoom(evt,'in')"/>
                <use id="zoomminus" xlink:href="#zoomMin" x="42" y="9" onmousedown="handleZoom(evt,'out')"/>
                <use id="reset" xlink:href="#resetDef" x="30" y="36" onmousedown="handleReset()"/>
                <g id="arrowUp" xlink:href="#dirArrow" transform="translate(30 24)" onmousedown="handlePan(0,-1)">
                  <use xlink:href="#rim" fill="#404040">
                        <set attributeName="fill" to="#808080" begin="arrowUp.mouseover" end="arrowUp.mouseout"/>
                  </use>
                  <path fill="none" stroke="white" stroke-width="1.5" d="M0,-3.0v7 M-2.5,-0.5L0,-3.0L2.5,-0.5"/>
                </g>
                <g id="arrowRight" xlink:href="#dirArrow" transform="rotate(90) translate(36 -43)" onmousedown="handlePan(1,0)">
                  <use xlink:href="#rim" fill="#404040">
                        <set attributeName="fill" to="#808080" begin="arrowRight.mouseover" end="arrowRight.mouseout"/>
                  </use>
                  <path fill="none" stroke="white" stroke-width="1.5" d="M0,-3.0v7 M-2.5,-0.5L0,-3.0L2.5,-0.5"/>
                </g>
                <g id="arrowDown" xlink:href="#dirArrow" transform="rotate(180) translate(-30 -48)" onmousedown="handlePan(0,1)">
                  <use xlink:href="#rim" fill="#404040">
                        <set attributeName="fill" to="#808080" begin="arrowDown.mouseover" end="arrowDown.mouseout"/>
                  </use>
                  <path fill="none" stroke="white" stroke-width="1.5" d="M0,-3.0v7 M-2.5,-0.5L0,-3.0L2.5,-0.5"/>
                </g>
                <g id="arrowLeft" xlink:href="#dirArrow" transform="rotate(270) translate(-36 17)" onmousedown="handlePan(-1,0)">
                  <use xlink:href="#rim" fill="#404040">
                        <set attributeName="fill" to="#808080" begin="arrowLeft.mouseover" end="arrowLeft.mouseout"/>
                  </use>
                  <path fill="none" stroke="white" stroke-width="1.5" d="M0,-3.0v7 M-2.5,-0.5L0,-3.0L2.5,-0.5"/>
                </g>
        </g>
        <svg viewBox="0 0 15 15" width="100%" height="30px" preserveAspectRatio="xMaxYMin meet">
         <g id="arrow_out" transform="scale(0.3 0.3)">
          <a xlink:href="a00454_org.svg" target="_base">
           <rect id="button" ry="5" rx="5" y="6" x="6" height="38" width="38"
                fill="#f2f5e9" fill-opacity="0.5" stroke="#606060" stroke-width="1.0"/>
           <path id="arrow"
             d="M 11.500037,31.436501 C 11.940474,20.09759 22.043105,11.32322 32.158766,21.979434 L 37.068811,17.246167 C 37.068811,17.246167 37.088388,32 37.088388,32 L 22.160133,31.978069 C 22.160133,31.978069 26.997745,27.140456 26.997745,27.140456 C 18.528582,18.264221 13.291696,25.230495 11.500037,31.436501 z"
             style="fill:#404040;"/>
          </a>
         </g>
        </svg>
</svg>
