<?xml version="1.0" encoding="UTF-8" standalone="no"?>
<!DOCTYPE svg PUBLIC "-//W3C//DTD SVG 1.1//EN"
 "http://www.w3.org/Graphics/SVG/1.1/DTD/svg11.dtd">
<!-- Generated by graphviz version 2.38.0 (20140413.2041)
 -->
<!-- Title: beseenium.exceptions.actionDataExceptions.ActionDataFactoryException Pages: 1 -->
<svg width="202pt" height="425pt"
 viewBox="0.00 0.00 202.00 425.00" xmlns="http://www.w3.org/2000/svg" xmlns:xlink="http://www.w3.org/1999/xlink">
<g id="graph0" class="graph" transform="scale(1 1) rotate(0) translate(4 421)">
<title>beseenium.exceptions.actionDataExceptions.ActionDataFactoryException</title>
<polygon fill="white" stroke="none" points="-4,4 -4,-421 198,-421 198,4 -4,4"/>
<!-- Node1 -->
<g id="node1" class="node"><title>Node1</title>
<polygon fill="#bfbfbf" stroke="black" points="5.5,-0.5 5.5,-90.5 188.5,-90.5 188.5,-0.5 5.5,-0.5"/>
<text text-anchor="start" x="13.5" y="-78.5" font-family="Helvetica,sans-Serif" font-size="10.00">beseenium.exceptions.action</text>
<text text-anchor="start" x="13.5" y="-67.5" font-family="Helvetica,sans-Serif" font-size="10.00">DataExceptions.ActionDataFactory</text>
<text text-anchor="middle" x="97" y="-56.5" font-family="Helvetica,sans-Serif" font-size="10.00">Exception</text>
<polyline fill="none" stroke="black" points="5.5,-49.5 188.5,-49.5 "/>
<text text-anchor="start" x="13.5" y="-37.5" font-family="Helvetica,sans-Serif" font-size="10.00">&#45; serialVersionUID</text>
<polyline fill="none" stroke="black" points="5.5,-30.5 188.5,-30.5 "/>
<text text-anchor="start" x="13.5" y="-18.5" font-family="Helvetica,sans-Serif" font-size="10.00">+ ActionDataFactoryException()</text>
<text text-anchor="start" x="13.5" y="-7.5" font-family="Helvetica,sans-Serif" font-size="10.00">+ ActionDataFactoryException()</text>
</g>
<!-- Node2 -->
<g id="node2" class="node"><title>Node2</title>
<g id="a_node2"><a xlink:href="a00015.html" target="_top" xlink:title="Exception applicable to ActionData. ">
<polygon fill="white" stroke="black" points="-1.42109e-14,-127.5 -1.42109e-14,-206.5 194,-206.5 194,-127.5 -1.42109e-14,-127.5"/>
<text text-anchor="start" x="8" y="-194.5" font-family="Helvetica,sans-Serif" font-size="10.00">beseenium.exceptions.action</text>
<text text-anchor="middle" x="97" y="-183.5" font-family="Helvetica,sans-Serif" font-size="10.00">DataExceptions.ActionDataException</text>
<polyline fill="none" stroke="black" points="-1.42109e-14,-176.5 194,-176.5 "/>
<text text-anchor="start" x="8" y="-164.5" font-family="Helvetica,sans-Serif" font-size="10.00">&#45; serialVersionUID</text>
<polyline fill="none" stroke="black" points="-1.42109e-14,-157.5 194,-157.5 "/>
<text text-anchor="start" x="8" y="-145.5" font-family="Helvetica,sans-Serif" font-size="10.00">+ ActionDataException()</text>
<text text-anchor="start" x="8" y="-134.5" font-family="Helvetica,sans-Serif" font-size="10.00">+ ActionDataException()</text>
</a>
</g>
</g>
<!-- Node2&#45;&gt;Node1 -->
<g id="edge1" class="edge"><title>Node2&#45;&gt;Node1</title>
<path fill="none" stroke="midnightblue" d="M97,-117.187C97,-108.491 97,-99.4758 97,-90.9111"/>
<polygon fill="none" stroke="midnightblue" points="93.5001,-117.202 97,-127.202 100.5,-117.202 93.5001,-117.202"/>
</g>
<!-- Node3 -->
<g id="node3" class="node"><title>Node3</title>
<g id="a_node3"><a xlink:href="a00031.html" target="_top" xlink:title="Copyright(C) 2015 Jan P.C. ">
<polygon fill="white" stroke="black" points="5.5,-243.5 5.5,-322.5 188.5,-322.5 188.5,-243.5 5.5,-243.5"/>
<text text-anchor="start" x="13.5" y="-310.5" font-family="Helvetica,sans-Serif" font-size="10.00">beseenium.exceptions.BeSeenium</text>
<text text-anchor="middle" x="97" y="-299.5" font-family="Helvetica,sans-Serif" font-size="10.00">Exception</text>
<polyline fill="none" stroke="black" points="5.5,-292.5 188.5,-292.5 "/>
<text text-anchor="start" x="13.5" y="-280.5" font-family="Helvetica,sans-Serif" font-size="10.00">&#45; serialVersionUID</text>
<polyline fill="none" stroke="black" points="5.5,-273.5 188.5,-273.5 "/>
<text text-anchor="start" x="13.5" y="-261.5" font-family="Helvetica,sans-Serif" font-size="10.00">+ BeSeeniumException()</text>
<text text-anchor="start" x="13.5" y="-250.5" font-family="Helvetica,sans-Serif" font-size="10.00"># BeSeeniumException()</text>
</a>
</g>
</g>
<!-- Node3&#45;&gt;Node2 -->
<g id="edge2" class="edge"><title>Node3&#45;&gt;Node2</title>
<path fill="none" stroke="midnightblue" d="M97,-233.146C97,-224.256 97,-215.096 97,-206.555"/>
<polygon fill="none" stroke="midnightblue" points="93.5001,-233.405 97,-243.405 100.5,-233.405 93.5001,-233.405"/>
</g>
<!-- Node4 -->
<g id="node4" class="node"><title>Node4</title>
<polygon fill="white" stroke="#bfbfbf" points="65.5,-359.5 65.5,-416.5 128.5,-416.5 128.5,-359.5 65.5,-359.5"/>
<text text-anchor="middle" x="97" y="-404.5" font-family="Helvetica,sans-Serif" font-size="10.00">Exception</text>
<polyline fill="none" stroke="#bfbfbf" points="65.5,-397.5 128.5,-397.5 "/>
<text text-anchor="middle" x="97" y="-385.5" font-family="Helvetica,sans-Serif" font-size="10.00"> </text>
<polyline fill="none" stroke="#bfbfbf" points="65.5,-378.5 128.5,-378.5 "/>
<text text-anchor="middle" x="97" y="-366.5" font-family="Helvetica,sans-Serif" font-size="10.00"> </text>
</g>
<!-- Node4&#45;&gt;Node3 -->
<g id="edge3" class="edge"><title>Node4&#45;&gt;Node3</title>
<path fill="none" stroke="midnightblue" d="M97,-349.156C97,-340.473 97,-331.232 97,-322.52"/>
<polygon fill="none" stroke="midnightblue" points="93.5001,-349.398 97,-359.398 100.5,-349.398 93.5001,-349.398"/>
</g>
</g>
</svg>
