<?xml version="1.0" encoding="UTF-8" standalone="no"?>
<!DOCTYPE svg PUBLIC "-//W3C//DTD SVG 1.1//EN"
 "http://www.w3.org/Graphics/SVG/1.1/DTD/svg11.dtd">
<!-- Generated by graphviz version 2.38.0 (20140413.2041)
 -->
<!-- Title: beseenium.exceptions.actionExceptions.NoSuchParameterException Pages: 1 -->
<svg width="214pt" height="414pt"
 viewBox="0.00 0.00 214.00 414.00" xmlns="http://www.w3.org/2000/svg" xmlns:xlink="http://www.w3.org/1999/xlink">
<g id="graph0" class="graph" transform="scale(1 1) rotate(0) translate(4 410)">
<title>beseenium.exceptions.actionExceptions.NoSuchParameterException</title>
<polygon fill="white" stroke="none" points="-4,4 -4,-410 210,-410 210,4 -4,4"/>
<!-- Node1 -->
<g id="node1" class="node"><title>Node1</title>
<polygon fill="#bfbfbf" stroke="black" points="0,-0.5 0,-79.5 206,-79.5 206,-0.5 0,-0.5"/>
<text text-anchor="start" x="8" y="-67.5" font-family="Helvetica,sans-Serif" font-size="10.00">beseenium.exceptions.action</text>
<text text-anchor="middle" x="103" y="-56.5" font-family="Helvetica,sans-Serif" font-size="10.00">Exceptions.NoSuchParameterException</text>
<polyline fill="none" stroke="black" points="0,-49.5 206,-49.5 "/>
<text text-anchor="start" x="8" y="-37.5" font-family="Helvetica,sans-Serif" font-size="10.00">&#45; serialVersionUID</text>
<polyline fill="none" stroke="black" points="0,-30.5 206,-30.5 "/>
<text text-anchor="start" x="8" y="-18.5" font-family="Helvetica,sans-Serif" font-size="10.00">+ NoSuchParameterException()</text>
<text text-anchor="start" x="8" y="-7.5" font-family="Helvetica,sans-Serif" font-size="10.00">+ NoSuchParameterException()</text>
</g>
<!-- Node2 -->
<g id="node2" class="node"><title>Node2</title>
<g id="a_node2"><a xlink:href="a00019.html" target="_top" xlink:title="exception applicable to Actions ">
<polygon fill="white" stroke="black" points="24.5,-116.5 24.5,-195.5 181.5,-195.5 181.5,-116.5 24.5,-116.5"/>
<text text-anchor="start" x="32.5" y="-183.5" font-family="Helvetica,sans-Serif" font-size="10.00">beseenium.exceptions.action</text>
<text text-anchor="middle" x="103" y="-172.5" font-family="Helvetica,sans-Serif" font-size="10.00">Exceptions.ActionException</text>
<polyline fill="none" stroke="black" points="24.5,-165.5 181.5,-165.5 "/>
<text text-anchor="start" x="32.5" y="-153.5" font-family="Helvetica,sans-Serif" font-size="10.00">&#45; serialVersionUID</text>
<polyline fill="none" stroke="black" points="24.5,-146.5 181.5,-146.5 "/>
<text text-anchor="start" x="32.5" y="-134.5" font-family="Helvetica,sans-Serif" font-size="10.00">+ ActionException()</text>
<text text-anchor="start" x="32.5" y="-123.5" font-family="Helvetica,sans-Serif" font-size="10.00">+ ActionException()</text>
</a>
</g>
</g>
<!-- Node2&#45;&gt;Node1 -->
<g id="edge1" class="edge"><title>Node2&#45;&gt;Node1</title>
<path fill="none" stroke="midnightblue" d="M103,-106.146C103,-97.256 103,-88.0961 103,-79.5555"/>
<polygon fill="none" stroke="midnightblue" points="99.5001,-106.405 103,-116.405 106.5,-106.405 99.5001,-106.405"/>
</g>
<!-- Node3 -->
<g id="node3" class="node"><title>Node3</title>
<g id="a_node3"><a xlink:href="a00031.html" target="_top" xlink:title="Copyright(C) 2015 Jan P.C. ">
<polygon fill="white" stroke="black" points="11.5,-232.5 11.5,-311.5 194.5,-311.5 194.5,-232.5 11.5,-232.5"/>
<text text-anchor="start" x="19.5" y="-299.5" font-family="Helvetica,sans-Serif" font-size="10.00">beseenium.exceptions.BeSeenium</text>
<text text-anchor="middle" x="103" y="-288.5" font-family="Helvetica,sans-Serif" font-size="10.00">Exception</text>
<polyline fill="none" stroke="black" points="11.5,-281.5 194.5,-281.5 "/>
<text text-anchor="start" x="19.5" y="-269.5" font-family="Helvetica,sans-Serif" font-size="10.00">&#45; serialVersionUID</text>
<polyline fill="none" stroke="black" points="11.5,-262.5 194.5,-262.5 "/>
<text text-anchor="start" x="19.5" y="-250.5" font-family="Helvetica,sans-Serif" font-size="10.00">+ BeSeeniumException()</text>
<text text-anchor="start" x="19.5" y="-239.5" font-family="Helvetica,sans-Serif" font-size="10.00"># BeSeeniumException()</text>
</a>
</g>
</g>
<!-- Node3&#45;&gt;Node2 -->
<g id="edge2" class="edge"><title>Node3&#45;&gt;Node2</title>
<path fill="none" stroke="midnightblue" d="M103,-222.146C103,-213.256 103,-204.096 103,-195.555"/>
<polygon fill="none" stroke="midnightblue" points="99.5001,-222.405 103,-232.405 106.5,-222.405 99.5001,-222.405"/>
</g>
<!-- Node4 -->
<g id="node4" class="node"><title>Node4</title>
<polygon fill="white" stroke="#bfbfbf" points="71.5,-348.5 71.5,-405.5 134.5,-405.5 134.5,-348.5 71.5,-348.5"/>
<text text-anchor="middle" x="103" y="-393.5" font-family="Helvetica,sans-Serif" font-size="10.00">Exception</text>
<polyline fill="none" stroke="#bfbfbf" points="71.5,-386.5 134.5,-386.5 "/>
<text text-anchor="middle" x="103" y="-374.5" font-family="Helvetica,sans-Serif" font-size="10.00"> </text>
<polyline fill="none" stroke="#bfbfbf" points="71.5,-367.5 134.5,-367.5 "/>
<text text-anchor="middle" x="103" y="-355.5" font-family="Helvetica,sans-Serif" font-size="10.00"> </text>
</g>
<!-- Node4&#45;&gt;Node3 -->
<g id="edge3" class="edge"><title>Node4&#45;&gt;Node3</title>
<path fill="none" stroke="midnightblue" d="M103,-338.156C103,-329.473 103,-320.232 103,-311.52"/>
<polygon fill="none" stroke="midnightblue" points="99.5001,-338.398 103,-348.398 106.5,-338.398 99.5001,-338.398"/>
</g>
</g>
</svg>
