<?xml version="1.0" encoding="UTF-8" standalone="no"?>
<!DOCTYPE svg PUBLIC "-//W3C//DTD SVG 1.1//EN"
 "http://www.w3.org/Graphics/SVG/1.1/DTD/svg11.dtd">
<!-- Generated by graphviz version 2.38.0 (20140413.2041)
 -->
<!-- Title: beseenium.controller.ActionFactory.pageActions.MakeGetURL Pages: 1 -->
<svg width="187pt" height="204pt"
 viewBox="0.00 0.00 187.00 204.00" xmlns="http://www.w3.org/2000/svg" xmlns:xlink="http://www.w3.org/1999/xlink">
<g id="graph0" class="graph" transform="scale(1 1) rotate(0) translate(4 200)">
<title>beseenium.controller.ActionFactory.pageActions.MakeGetURL</title>
<polygon fill="white" stroke="none" points="-4,4 -4,-200 183,-200 183,4 -4,4"/>
<!-- Node1 -->
<g id="node1" class="node"><title>Node1</title>
<polygon fill="#bfbfbf" stroke="black" points="0,-0.5 0,-79.5 179,-79.5 179,-0.5 0,-0.5"/>
<text text-anchor="start" x="8" y="-67.5" font-family="Helvetica,sans-Serif" font-size="10.00">beseenium.controller.Action</text>
<text text-anchor="middle" x="89.5" y="-56.5" font-family="Helvetica,sans-Serif" font-size="10.00">Factory.pageActions.MakeGetURL</text>
<polyline fill="none" stroke="black" points="0,-49.5 179,-49.5 "/>
<text text-anchor="middle" x="89.5" y="-37.5" font-family="Helvetica,sans-Serif" font-size="10.00"> </text>
<polyline fill="none" stroke="black" points="0,-30.5 179,-30.5 "/>
<text text-anchor="start" x="8" y="-18.5" font-family="Helvetica,sans-Serif" font-size="10.00">+ MakeGetURL()</text>
<text text-anchor="start" x="8" y="-7.5" font-family="Helvetica,sans-Serif" font-size="10.00">+ makeAction()</text>
</g>
<!-- Node2 -->
<g id="node2" class="node"><title>Node2</title>
<g id="a_node2"><a xlink:href="a00073.html" target="_top" xlink:title="abstract base class for the creation of AbstractActions specific to the MakeAction derived type...">
<polygon fill="white" stroke="black" points="14,-116.5 14,-195.5 165,-195.5 165,-116.5 14,-116.5"/>
<text text-anchor="start" x="22" y="-183.5" font-family="Helvetica,sans-Serif" font-size="10.00">beseenium.controller.Action</text>
<text text-anchor="middle" x="89.5" y="-172.5" font-family="Helvetica,sans-Serif" font-size="10.00">Factory.MakeAction</text>
<polyline fill="none" stroke="black" points="14,-165.5 165,-165.5 "/>
<text text-anchor="start" x="22" y="-153.5" font-family="Helvetica,sans-Serif" font-size="10.00"># adFactory</text>
<polyline fill="none" stroke="black" points="14,-146.5 165,-146.5 "/>
<text text-anchor="start" x="22" y="-134.5" font-family="Helvetica,sans-Serif" font-size="10.00">+ makeAction()</text>
<text text-anchor="start" x="22" y="-123.5" font-family="Helvetica,sans-Serif" font-size="10.00"># MakeAction()</text>
</a>
</g>
</g>
<!-- Node2&#45;&gt;Node1 -->
<g id="edge1" class="edge"><title>Node2&#45;&gt;Node1</title>
<path fill="none" stroke="midnightblue" d="M89.5,-106.146C89.5,-97.256 89.5,-88.0961 89.5,-79.5555"/>
<polygon fill="none" stroke="midnightblue" points="86.0001,-106.405 89.5,-116.405 93.0001,-106.405 86.0001,-106.405"/>
</g>
</g>
</svg>
