<?xml version="1.0" encoding="UTF-8" standalone="no"?>
<!DOCTYPE svg PUBLIC "-//W3C//DTD SVG 1.1//EN"
 "http://www.w3.org/Graphics/SVG/1.1/DTD/svg11.dtd">
<!-- Generated by graphviz version 2.38.0 (20140413.2041)
 -->
<!-- Title: beseenium.exceptions.BeSeeniumException Pages: 1 -->
<!--zoomable 425 -->
<svg id="main" version="1.1" xmlns="http://www.w3.org/2000/svg" xmlns:xlink="http://www.w3.org/1999/xlink" xml:space="preserve" onload="init(evt)">
<style type="text/css"><![CDATA[
.edge:hover path { stroke: red; }
.edge:hover polygon { stroke: red; fill: red; }
]]></style>
<script type="text/javascript"><![CDATA[
var edges = document.getElementsByTagName('g');
if (edges && edges.length) {
  for (var i=0;i<edges.length;i++) {
    if (edges[i].id.substr(0,4)=='edge') {
      edges[i].setAttribute('class','edge');
    }
  }
}
]]></script>
        <defs>
                <circle id="rim" cx="0" cy="0" r="7"/>
                <circle id="rim2" cx="0" cy="0" r="3.5"/>
                <g id="zoomPlus">
                        <use xlink:href="#rim" fill="#404040">
                                <set attributeName="fill" to="#808080" begin="zoomplus.mouseover" end="zoomplus.mouseout"/>
                        </use>
                        <path d="M-4,0h8M0,-4v8" fill="none" stroke="white" stroke-width="1.5" pointer-events="none"/>
                </g>
                <g id="zoomMin">
                        <use xlink:href="#rim" fill="#404040">
                                <set attributeName="fill" to="#808080" begin="zoomminus.mouseover" end="zoomminus.mouseout"/>
                        </use>
                        <path d="M-4,0h8" fill="none" stroke="white" stroke-width="1.5" pointer-events="none"/>
                </g>
                <g id="dirArrow">
                        <path fill="none" stroke="white" stroke-width="1.5" d="M0,-3.0v7 M-2.5,-0.5L0,-3.0L2.5,-0.5"/>
                </g>
               <g id="resetDef">
                       <use xlink:href="#rim2" fill="#404040">
                               <set attributeName="fill" to="#808080" begin="reset.mouseover" end="reset.mouseout"/>
                       </use>
               </g>
        </defs>

<script type="text/javascript">
var viewWidth = 967;
var viewHeight = 425;
var sectionId = 'dynsection-0';
</script>
<script xlink:href="svgpan.js"/>
<svg id="graph" class="graph">
<g id="viewport">
<title>beseenium.exceptions.BeSeeniumException</title>
<polygon fill="white" stroke="none" points="-4,4 -4,-421 963,-421 963,4 -4,4"/>
<!-- Node1 -->
<g id="node1" class="node"><title>Node1</title>
<polygon fill="#bfbfbf" stroke="black" points="389,-243.5 389,-322.5 572,-322.5 572,-243.5 389,-243.5"/>
<text text-anchor="start" x="397" y="-310.5" font-family="Helvetica,sans-Serif" font-size="10.00">beseenium.exceptions.BeSeenium</text>
<text text-anchor="middle" x="480.5" y="-299.5" font-family="Helvetica,sans-Serif" font-size="10.00">Exception</text>
<polyline fill="none" stroke="black" points="389,-292.5 572,-292.5 "/>
<text text-anchor="start" x="397" y="-280.5" font-family="Helvetica,sans-Serif" font-size="10.00">&#45; serialVersionUID</text>
<polyline fill="none" stroke="black" points="389,-273.5 572,-273.5 "/>
<text text-anchor="start" x="397" y="-261.5" font-family="Helvetica,sans-Serif" font-size="10.00">+ BeSeeniumException()</text>
<text text-anchor="start" x="397" y="-250.5" font-family="Helvetica,sans-Serif" font-size="10.00"># BeSeeniumException()</text>
</g>
<!-- Node3 -->
<g id="node3" class="node"><title>Node3</title>
<g id="a_node3"><a xlink:href="a00015.html" target="_top" xlink:title="Exception applicable to ActionData. ">
<polygon fill="white" stroke="black" points="92.5,-127.5 92.5,-206.5 286.5,-206.5 286.5,-127.5 92.5,-127.5"/>
<text text-anchor="start" x="100.5" y="-194.5" font-family="Helvetica,sans-Serif" font-size="10.00">beseenium.exceptions.action</text>
<text text-anchor="middle" x="189.5" y="-183.5" font-family="Helvetica,sans-Serif" font-size="10.00">DataExceptions.ActionDataException</text>
<polyline fill="none" stroke="black" points="92.5,-176.5 286.5,-176.5 "/>
<text text-anchor="start" x="100.5" y="-164.5" font-family="Helvetica,sans-Serif" font-size="10.00">&#45; serialVersionUID</text>
<polyline fill="none" stroke="black" points="92.5,-157.5 286.5,-157.5 "/>
<text text-anchor="start" x="100.5" y="-145.5" font-family="Helvetica,sans-Serif" font-size="10.00">+ ActionDataException()</text>
<text text-anchor="start" x="100.5" y="-134.5" font-family="Helvetica,sans-Serif" font-size="10.00">+ ActionDataException()</text>
</a>
</g>
</g>
<!-- Node1&#45;&gt;Node3 -->
<g id="edge2" class="edge"><title>Node1&#45;&gt;Node3</title>
<path fill="none" stroke="midnightblue" d="M379.196,-242.314C349.215,-230.569 316.469,-217.74 286.75,-206.098"/>
<polygon fill="none" stroke="midnightblue" points="378.237,-245.697 388.825,-246.086 380.791,-239.18 378.237,-245.697"/>
</g>
<!-- Node5 -->
<g id="node5" class="node"><title>Node5</title>
<g id="a_node5"><a xlink:href="a00019.html" target="_top" xlink:title="exception applicable to Actions ">
<polygon fill="white" stroke="black" points="402,-127.5 402,-206.5 559,-206.5 559,-127.5 402,-127.5"/>
<text text-anchor="start" x="410" y="-194.5" font-family="Helvetica,sans-Serif" font-size="10.00">beseenium.exceptions.action</text>
<text text-anchor="middle" x="480.5" y="-183.5" font-family="Helvetica,sans-Serif" font-size="10.00">Exceptions.ActionException</text>
<polyline fill="none" stroke="black" points="402,-176.5 559,-176.5 "/>
<text text-anchor="start" x="410" y="-164.5" font-family="Helvetica,sans-Serif" font-size="10.00">&#45; serialVersionUID</text>
<polyline fill="none" stroke="black" points="402,-157.5 559,-157.5 "/>
<text text-anchor="start" x="410" y="-145.5" font-family="Helvetica,sans-Serif" font-size="10.00">+ ActionException()</text>
<text text-anchor="start" x="410" y="-134.5" font-family="Helvetica,sans-Serif" font-size="10.00">+ ActionException()</text>
</a>
</g>
</g>
<!-- Node1&#45;&gt;Node5 -->
<g id="edge4" class="edge"><title>Node1&#45;&gt;Node5</title>
<path fill="none" stroke="midnightblue" d="M480.5,-233.146C480.5,-224.256 480.5,-215.096 480.5,-206.555"/>
<polygon fill="none" stroke="midnightblue" points="477,-233.405 480.5,-243.405 484,-233.405 477,-233.405"/>
</g>
<!-- Node10 -->
<g id="node10" class="node"><title>Node10</title>
<g id="a_node10"><a xlink:href="a00131.html" target="_top" xlink:title="Exception that apply to Test&#39;s. ">
<polygon fill="white" stroke="black" points="577.5,-127.5 577.5,-206.5 723.5,-206.5 723.5,-127.5 577.5,-127.5"/>
<text text-anchor="start" x="585.5" y="-194.5" font-family="Helvetica,sans-Serif" font-size="10.00">beseenium.exceptions.test</text>
<text text-anchor="middle" x="650.5" y="-183.5" font-family="Helvetica,sans-Serif" font-size="10.00">Exceptions.TestException</text>
<polyline fill="none" stroke="black" points="577.5,-176.5 723.5,-176.5 "/>
<text text-anchor="start" x="585.5" y="-164.5" font-family="Helvetica,sans-Serif" font-size="10.00">&#45; serialVersionUID</text>
<polyline fill="none" stroke="black" points="577.5,-157.5 723.5,-157.5 "/>
<text text-anchor="start" x="585.5" y="-145.5" font-family="Helvetica,sans-Serif" font-size="10.00">+ TestException()</text>
<text text-anchor="start" x="585.5" y="-134.5" font-family="Helvetica,sans-Serif" font-size="10.00"># TestException()</text>
</a>
</g>
</g>
<!-- Node1&#45;&gt;Node10 -->
<g id="edge9" class="edge"><title>Node1&#45;&gt;Node10</title>
<path fill="none" stroke="midnightblue" d="M546.479,-237.755C561.83,-227.461 578.054,-216.581 593.005,-206.555"/>
<polygon fill="none" stroke="midnightblue" points="544.41,-234.928 538.054,-243.405 548.309,-240.742 544.41,-234.928"/>
</g>
<!-- Node2 -->
<g id="node2" class="node"><title>Node2</title>
<polygon fill="white" stroke="#bfbfbf" points="449,-359.5 449,-416.5 512,-416.5 512,-359.5 449,-359.5"/>
<text text-anchor="middle" x="480.5" y="-404.5" font-family="Helvetica,sans-Serif" font-size="10.00">Exception</text>
<polyline fill="none" stroke="#bfbfbf" points="449,-397.5 512,-397.5 "/>
<text text-anchor="middle" x="480.5" y="-385.5" font-family="Helvetica,sans-Serif" font-size="10.00"> </text>
<polyline fill="none" stroke="#bfbfbf" points="449,-378.5 512,-378.5 "/>
<text text-anchor="middle" x="480.5" y="-366.5" font-family="Helvetica,sans-Serif" font-size="10.00"> </text>
</g>
<!-- Node2&#45;&gt;Node1 -->
<g id="edge1" class="edge"><title>Node2&#45;&gt;Node1</title>
<path fill="none" stroke="midnightblue" d="M480.5,-349.156C480.5,-340.473 480.5,-331.232 480.5,-322.52"/>
<polygon fill="none" stroke="midnightblue" points="477,-349.398 480.5,-359.398 484,-349.398 477,-349.398"/>
</g>
<!-- Node4 -->
<g id="node4" class="node"><title>Node4</title>
<g id="a_node4"><a xlink:href="a00018.html" target="_top" xlink:title="Copyright(C) 2015 Jan P.C. ">
<polygon fill="white" stroke="black" points="0,-0.5 0,-90.5 183,-90.5 183,-0.5 0,-0.5"/>
<text text-anchor="start" x="8" y="-78.5" font-family="Helvetica,sans-Serif" font-size="10.00">beseenium.exceptions.action</text>
<text text-anchor="start" x="8" y="-67.5" font-family="Helvetica,sans-Serif" font-size="10.00">DataExceptions.ActionDataFactory</text>
<text text-anchor="middle" x="91.5" y="-56.5" font-family="Helvetica,sans-Serif" font-size="10.00">Exception</text>
<polyline fill="none" stroke="black" points="0,-49.5 183,-49.5 "/>
<text text-anchor="start" x="8" y="-37.5" font-family="Helvetica,sans-Serif" font-size="10.00">&#45; serialVersionUID</text>
<polyline fill="none" stroke="black" points="0,-30.5 183,-30.5 "/>
<text text-anchor="start" x="8" y="-18.5" font-family="Helvetica,sans-Serif" font-size="10.00">+ ActionDataFactoryException()</text>
<text text-anchor="start" x="8" y="-7.5" font-family="Helvetica,sans-Serif" font-size="10.00">+ ActionDataFactoryException()</text>
</a>
</g>
</g>
<!-- Node3&#45;&gt;Node4 -->
<g id="edge3" class="edge"><title>Node3&#45;&gt;Node4</title>
<path fill="none" stroke="midnightblue" d="M151.323,-119.448C143.627,-110.063 135.555,-100.221 127.921,-90.9111"/>
<polygon fill="none" stroke="midnightblue" points="148.635,-121.689 157.682,-127.202 154.047,-117.25 148.635,-121.689"/>
</g>
<!-- Node6 -->
<g id="node6" class="node"><title>Node6</title>
<g id="a_node6"><a xlink:href="a00022.html" target="_top" xlink:title="Copyright(C) 2015 Jan P.C. ">
<polygon fill="white" stroke="black" points="201,-6 201,-85 384,-85 384,-6 201,-6"/>
<text text-anchor="start" x="209" y="-73" font-family="Helvetica,sans-Serif" font-size="10.00">beseenium.exceptions.action</text>
<text text-anchor="middle" x="292.5" y="-62" font-family="Helvetica,sans-Serif" font-size="10.00">Exceptions.ActionFactoryException</text>
<polyline fill="none" stroke="black" points="201,-55 384,-55 "/>
<text text-anchor="start" x="209" y="-43" font-family="Helvetica,sans-Serif" font-size="10.00">&#45; serialVersionUID</text>
<polyline fill="none" stroke="black" points="201,-36 384,-36 "/>
<text text-anchor="start" x="209" y="-24" font-family="Helvetica,sans-Serif" font-size="10.00">+ ActionFactoryException()</text>
<text text-anchor="start" x="209" y="-13" font-family="Helvetica,sans-Serif" font-size="10.00">+ ActionFactoryException()</text>
</a>
</g>
</g>
<!-- Node5&#45;&gt;Node6 -->
<g id="edge5" class="edge"><title>Node5&#45;&gt;Node6</title>
<path fill="none" stroke="midnightblue" d="M411.089,-121.88C392.052,-109.779 371.568,-96.7584 353.069,-85.0002"/>
<polygon fill="none" stroke="midnightblue" points="409.404,-124.956 419.721,-127.367 413.16,-119.049 409.404,-124.956"/>
</g>
<!-- Node7 -->
<g id="node7" class="node"><title>Node7</title>
<g id="a_node7"><a xlink:href="a00042.html" target="_top" xlink:title="Copyright(C) 2015 Jan P.C. ">
<polygon fill="white" stroke="black" points="402,-6 402,-85 559,-85 559,-6 402,-6"/>
<text text-anchor="start" x="410" y="-73" font-family="Helvetica,sans-Serif" font-size="10.00">beseenium.exceptions.action</text>
<text text-anchor="middle" x="480.5" y="-62" font-family="Helvetica,sans-Serif" font-size="10.00">Exceptions.ClickException</text>
<polyline fill="none" stroke="black" points="402,-55 559,-55 "/>
<text text-anchor="start" x="410" y="-43" font-family="Helvetica,sans-Serif" font-size="10.00">&#45; serialVersionUID</text>
<polyline fill="none" stroke="black" points="402,-36 559,-36 "/>
<text text-anchor="start" x="410" y="-24" font-family="Helvetica,sans-Serif" font-size="10.00">+ ClickException()</text>
<text text-anchor="start" x="410" y="-13" font-family="Helvetica,sans-Serif" font-size="10.00">+ ClickException()</text>
</a>
</g>
</g>
<!-- Node5&#45;&gt;Node7 -->
<g id="edge6" class="edge"><title>Node5&#45;&gt;Node7</title>
<path fill="none" stroke="midnightblue" d="M480.5,-117.157C480.5,-106.478 480.5,-95.3174 480.5,-85.1036"/>
<polygon fill="none" stroke="midnightblue" points="477,-117.202 480.5,-127.202 484,-117.202 477,-117.202"/>
</g>
<!-- Node8 -->
<g id="node8" class="node"><title>Node8</title>
<g id="a_node8"><a xlink:href="a00113.html" target="_top" xlink:title="Copyright(C) 2015 Jan P.C. ">
<polygon fill="white" stroke="black" points="577.5,-6 577.5,-85 783.5,-85 783.5,-6 577.5,-6"/>
<text text-anchor="start" x="585.5" y="-73" font-family="Helvetica,sans-Serif" font-size="10.00">beseenium.exceptions.action</text>
<text text-anchor="middle" x="680.5" y="-62" font-family="Helvetica,sans-Serif" font-size="10.00">Exceptions.NoSuchParameterException</text>
<polyline fill="none" stroke="black" points="577.5,-55 783.5,-55 "/>
<text text-anchor="start" x="585.5" y="-43" font-family="Helvetica,sans-Serif" font-size="10.00">&#45; serialVersionUID</text>
<polyline fill="none" stroke="black" points="577.5,-36 783.5,-36 "/>
<text text-anchor="start" x="585.5" y="-24" font-family="Helvetica,sans-Serif" font-size="10.00">+ NoSuchParameterException()</text>
<text text-anchor="start" x="585.5" y="-13" font-family="Helvetica,sans-Serif" font-size="10.00">+ NoSuchParameterException()</text>
</a>
</g>
</g>
<!-- Node5&#45;&gt;Node8 -->
<g id="edge7" class="edge"><title>Node5&#45;&gt;Node8</title>
<path fill="none" stroke="midnightblue" d="M553.795,-122.206C574.201,-110.014 596.208,-96.8643 616.065,-85.0002"/>
<polygon fill="none" stroke="midnightblue" points="551.947,-119.233 545.158,-127.367 555.538,-125.242 551.947,-119.233"/>
</g>
<!-- Node9 -->
<g id="node9" class="node"><title>Node9</title>
<g id="a_node9"><a xlink:href="a00127.html" target="_top" xlink:title="Copyright(C) 2015 Jan P.C. ">
<polygon fill="white" stroke="black" points="802,-6 802,-85 959,-85 959,-6 802,-6"/>
<text text-anchor="start" x="810" y="-73" font-family="Helvetica,sans-Serif" font-size="10.00">beseenium.exceptions.action</text>
<text text-anchor="middle" x="880.5" y="-62" font-family="Helvetica,sans-Serif" font-size="10.00">Exceptions.SubmitException</text>
<polyline fill="none" stroke="black" points="802,-55 959,-55 "/>
<text text-anchor="start" x="810" y="-43" font-family="Helvetica,sans-Serif" font-size="10.00">&#45; serialVersionUID</text>
<polyline fill="none" stroke="black" points="802,-36 959,-36 "/>
<text text-anchor="start" x="810" y="-24" font-family="Helvetica,sans-Serif" font-size="10.00">+ SubmitException()</text>
<text text-anchor="start" x="810" y="-13" font-family="Helvetica,sans-Serif" font-size="10.00">+ SubmitException()</text>
</a>
</g>
</g>
<!-- Node5&#45;&gt;Node9 -->
<g id="edge8" class="edge"><title>Node5&#45;&gt;Node9</title>
<path fill="none" stroke="midnightblue" d="M569.003,-127.13C667.199,-99.7677 699.587,-121.149 792.5,-91 797.874,-89.2563 803.324,-87.2227 808.743,-85.0029"/>
<polygon fill="none" stroke="midnightblue" points="567.928,-123.797 559.291,-129.933 569.869,-130.523 567.928,-123.797"/>
</g>
</g>
</svg>
        <g id="navigator" transform="translate(0 0)" fill="#404254">
                <rect fill="#f2f5e9" fill-opacity="0.5" stroke="#606060" stroke-width=".5" x="0" y="0" width="60" height="60"/>
                <use id="zoomplus" xlink:href="#zoomPlus" x="17" y="9" onmousedown="handleZoom(evt,'in')"/>
                <use id="zoomminus" xlink:href="#zoomMin" x="42" y="9" onmousedown="handleZoom(evt,'out')"/>
                <use id="reset" xlink:href="#resetDef" x="30" y="36" onmousedown="handleReset()"/>
                <g id="arrowUp" xlink:href="#dirArrow" transform="translate(30 24)" onmousedown="handlePan(0,-1)">
                  <use xlink:href="#rim" fill="#404040">
                        <set attributeName="fill" to="#808080" begin="arrowUp.mouseover" end="arrowUp.mouseout"/>
                  </use>
                  <path fill="none" stroke="white" stroke-width="1.5" d="M0,-3.0v7 M-2.5,-0.5L0,-3.0L2.5,-0.5"/>
                </g>
                <g id="arrowRight" xlink:href="#dirArrow" transform="rotate(90) translate(36 -43)" onmousedown="handlePan(1,0)">
                  <use xlink:href="#rim" fill="#404040">
                        <set attributeName="fill" to="#808080" begin="arrowRight.mouseover" end="arrowRight.mouseout"/>
                  </use>
                  <path fill="none" stroke="white" stroke-width="1.5" d="M0,-3.0v7 M-2.5,-0.5L0,-3.0L2.5,-0.5"/>
                </g>
                <g id="arrowDown" xlink:href="#dirArrow" transform="rotate(180) translate(-30 -48)" onmousedown="handlePan(0,1)">
                  <use xlink:href="#rim" fill="#404040">
                        <set attributeName="fill" to="#808080" begin="arrowDown.mouseover" end="arrowDown.mouseout"/>
                  </use>
                  <path fill="none" stroke="white" stroke-width="1.5" d="M0,-3.0v7 M-2.5,-0.5L0,-3.0L2.5,-0.5"/>
                </g>
                <g id="arrowLeft" xlink:href="#dirArrow" transform="rotate(270) translate(-36 17)" onmousedown="handlePan(-1,0)">
                  <use xlink:href="#rim" fill="#404040">
                        <set attributeName="fill" to="#808080" begin="arrowLeft.mouseover" end="arrowLeft.mouseout"/>
                  </use>
                  <path fill="none" stroke="white" stroke-width="1.5" d="M0,-3.0v7 M-2.5,-0.5L0,-3.0L2.5,-0.5"/>
                </g>
        </g>
        <svg viewBox="0 0 15 15" width="100%" height="30px" preserveAspectRatio="xMaxYMin meet">
         <g id="arrow_out" transform="scale(0.3 0.3)">
          <a xlink:href="a00445_org.svg" target="_base">
           <rect id="button" ry="5" rx="5" y="6" x="6" height="38" width="38"
                fill="#f2f5e9" fill-opacity="0.5" stroke="#606060" stroke-width="1.0"/>
           <path id="arrow"
             d="M 11.500037,31.436501 C 11.940474,20.09759 22.043105,11.32322 32.158766,21.979434 L 37.068811,17.246167 C 37.068811,17.246167 37.088388,32 37.088388,32 L 22.160133,31.978069 C 22.160133,31.978069 26.997745,27.140456 26.997745,27.140456 C 18.528582,18.264221 13.291696,25.230495 11.500037,31.436501 z"
             style="fill:#404040;"/>
          </a>
         </g>
        </svg>
</svg>
