<?xml version="1.0" encoding="UTF-8" standalone="no"?>
<!DOCTYPE svg PUBLIC "-//W3C//DTD SVG 1.1//EN"
 "http://www.w3.org/Graphics/SVG/1.1/DTD/svg11.dtd">
<!-- Generated by graphviz version 2.38.0 (20140413.2041)
 -->
<!-- Title: beseenium.exceptions.actionDataExceptions.ActionDataException Pages: 1 -->
<svg width="202pt" height="298pt"
 viewBox="0.00 0.00 202.00 298.00" xmlns="http://www.w3.org/2000/svg" xmlns:xlink="http://www.w3.org/1999/xlink">
<g id="graph0" class="graph" transform="scale(1 1) rotate(0) translate(4 294)">
<title>beseenium.exceptions.actionDataExceptions.ActionDataException</title>
<polygon fill="white" stroke="none" points="-4,4 -4,-294 198,-294 198,4 -4,4"/>
<!-- Node1 -->
<g id="node1" class="node"><title>Node1</title>
<polygon fill="#bfbfbf" stroke="black" points="-1.42109e-14,-0.5 -1.42109e-14,-79.5 194,-79.5 194,-0.5 -1.42109e-14,-0.5"/>
<text text-anchor="start" x="8" y="-67.5" font-family="Helvetica,sans-Serif" font-size="10.00">beseenium.exceptions.action</text>
<text text-anchor="middle" x="97" y="-56.5" font-family="Helvetica,sans-Serif" font-size="10.00">DataExceptions.ActionDataException</text>
<polyline fill="none" stroke="black" points="-1.42109e-14,-49.5 194,-49.5 "/>
<text text-anchor="start" x="8" y="-37.5" font-family="Helvetica,sans-Serif" font-size="10.00">&#45; serialVersionUID</text>
<polyline fill="none" stroke="black" points="-1.42109e-14,-30.5 194,-30.5 "/>
<text text-anchor="start" x="8" y="-18.5" font-family="Helvetica,sans-Serif" font-size="10.00">+ ActionDataException()</text>
<text text-anchor="start" x="8" y="-7.5" font-family="Helvetica,sans-Serif" font-size="10.00">+ ActionDataException()</text>
</g>
<!-- Node2 -->
<g id="node2" class="node"><title>Node2</title>
<g id="a_node2"><a xlink:href="a00031.html" target="_top" xlink:title="Copyright(C) 2015 Jan P.C. ">
<polygon fill="white" stroke="black" points="5.5,-116.5 5.5,-195.5 188.5,-195.5 188.5,-116.5 5.5,-116.5"/>
<text text-anchor="start" x="13.5" y="-183.5" font-family="Helvetica,sans-Serif" font-size="10.00">beseenium.exceptions.BeSeenium</text>
<text text-anchor="middle" x="97" y="-172.5" font-family="Helvetica,sans-Serif" font-size="10.00">Exception</text>
<polyline fill="none" stroke="black" points="5.5,-165.5 188.5,-165.5 "/>
<text text-anchor="start" x="13.5" y="-153.5" font-family="Helvetica,sans-Serif" font-size="10.00">&#45; serialVersionUID</text>
<polyline fill="none" stroke="black" points="5.5,-146.5 188.5,-146.5 "/>
<text text-anchor="start" x="13.5" y="-134.5" font-family="Helvetica,sans-Serif" font-size="10.00">+ BeSeeniumException()</text>
<text text-anchor="start" x="13.5" y="-123.5" font-family="Helvetica,sans-Serif" font-size="10.00"># BeSeeniumException()</text>
</a>
</g>
</g>
<!-- Node2&#45;&gt;Node1 -->
<g id="edge1" class="edge"><title>Node2&#45;&gt;Node1</title>
<path fill="none" stroke="midnightblue" d="M97,-106.146C97,-97.256 97,-88.0961 97,-79.5555"/>
<polygon fill="none" stroke="midnightblue" points="93.5001,-106.405 97,-116.405 100.5,-106.405 93.5001,-106.405"/>
</g>
<!-- Node3 -->
<g id="node3" class="node"><title>Node3</title>
<polygon fill="white" stroke="#bfbfbf" points="65.5,-232.5 65.5,-289.5 128.5,-289.5 128.5,-232.5 65.5,-232.5"/>
<text text-anchor="middle" x="97" y="-277.5" font-family="Helvetica,sans-Serif" font-size="10.00">Exception</text>
<polyline fill="none" stroke="#bfbfbf" points="65.5,-270.5 128.5,-270.5 "/>
<text text-anchor="middle" x="97" y="-258.5" font-family="Helvetica,sans-Serif" font-size="10.00"> </text>
<polyline fill="none" stroke="#bfbfbf" points="65.5,-251.5 128.5,-251.5 "/>
<text text-anchor="middle" x="97" y="-239.5" font-family="Helvetica,sans-Serif" font-size="10.00"> </text>
</g>
<!-- Node3&#45;&gt;Node2 -->
<g id="edge2" class="edge"><title>Node3&#45;&gt;Node2</title>
<path fill="none" stroke="midnightblue" d="M97,-222.156C97,-213.473 97,-204.232 97,-195.52"/>
<polygon fill="none" stroke="midnightblue" points="93.5001,-222.398 97,-232.398 100.5,-222.398 93.5001,-222.398"/>
</g>
</g>
</svg>
