<?xml version="1.0" encoding="UTF-8" standalone="no"?>
<!DOCTYPE svg PUBLIC "-//W3C//DTD SVG 1.1//EN"
 "http://www.w3.org/Graphics/SVG/1.1/DTD/svg11.dtd">
<!-- Generated by graphviz version 2.38.0 (20140413.2041)
 -->
<!-- Title: beseenium.controller.ActionFactory.findElementsBy.MakeFindElementsByXpath Pages: 1 -->
<svg width="722pt" height="674pt"
 viewBox="0.00 0.00 722.50 674.00" xmlns="http://www.w3.org/2000/svg" xmlns:xlink="http://www.w3.org/1999/xlink">
<g id="graph0" class="graph" transform="scale(1 1) rotate(0) translate(4 670)">
<title>beseenium.controller.ActionFactory.findElementsBy.MakeFindElementsByXpath</title>
<polygon fill="white" stroke="none" points="-4,4 -4,-670 718.5,-670 718.5,4 -4,4"/>
<!-- Node1 -->
<g id="node1" class="node"><title>Node1</title>
<polygon fill="#bfbfbf" stroke="black" points="366,-0.5 366,-90.5 543,-90.5 543,-0.5 366,-0.5"/>
<text text-anchor="start" x="374" y="-78.5" font-family="Helvetica,sans-Serif" font-size="10.00">beseenium.controller.Action</text>
<text text-anchor="start" x="374" y="-67.5" font-family="Helvetica,sans-Serif" font-size="10.00">Factory.findElementsBy.MakeFind</text>
<text text-anchor="middle" x="454.5" y="-56.5" font-family="Helvetica,sans-Serif" font-size="10.00">ElementsByXpath</text>
<polyline fill="none" stroke="black" points="366,-49.5 543,-49.5 "/>
<text text-anchor="middle" x="454.5" y="-37.5" font-family="Helvetica,sans-Serif" font-size="10.00"> </text>
<polyline fill="none" stroke="black" points="366,-30.5 543,-30.5 "/>
<text text-anchor="start" x="374" y="-18.5" font-family="Helvetica,sans-Serif" font-size="10.00">+ MakeFindElementsByXpath()</text>
<text text-anchor="start" x="374" y="-7.5" font-family="Helvetica,sans-Serif" font-size="10.00">+ makeAction()</text>
</g>
<!-- Node2 -->
<g id="node2" class="node"><title>Node2</title>
<g id="a_node2"><a xlink:href="a00073.html" target="_top" xlink:title="abstract base class for the creation of AbstractActions specific to the MakeAction derived type...">
<polygon fill="white" stroke="black" points="379,-128.5 379,-207.5 530,-207.5 530,-128.5 379,-128.5"/>
<text text-anchor="start" x="387" y="-195.5" font-family="Helvetica,sans-Serif" font-size="10.00">beseenium.controller.Action</text>
<text text-anchor="middle" x="454.5" y="-184.5" font-family="Helvetica,sans-Serif" font-size="10.00">Factory.MakeAction</text>
<polyline fill="none" stroke="black" points="379,-177.5 530,-177.5 "/>
<text text-anchor="middle" x="454.5" y="-165.5" font-family="Helvetica,sans-Serif" font-size="10.00"> </text>
<polyline fill="none" stroke="black" points="379,-158.5 530,-158.5 "/>
<text text-anchor="start" x="387" y="-146.5" font-family="Helvetica,sans-Serif" font-size="10.00">+ makeAction()</text>
<text text-anchor="start" x="387" y="-135.5" font-family="Helvetica,sans-Serif" font-size="10.00"># MakeAction()</text>
</a>
</g>
</g>
<!-- Node2&#45;&gt;Node1 -->
<g id="edge1" class="edge"><title>Node2&#45;&gt;Node1</title>
<path fill="none" stroke="midnightblue" d="M454.5,-118.144C454.5,-109.053 454.5,-99.6021 454.5,-90.6615"/>
<polygon fill="none" stroke="midnightblue" points="451,-118.21 454.5,-128.21 458,-118.21 451,-118.21"/>
</g>
<!-- Node3 -->
<g id="node3" class="node"><title>Node3</title>
<g id="a_node3"><a xlink:href="a00017.html" target="_top" xlink:title="This Class conforms to a &#39;factory&#39; pattern, it allows the creation of different ActionData instances...">
<polygon fill="white" stroke="black" points="371,-255.5 371,-367.5 538,-367.5 538,-255.5 371,-255.5"/>
<text text-anchor="start" x="379" y="-355.5" font-family="Helvetica,sans-Serif" font-size="10.00">beseenium.controller.Action</text>
<text text-anchor="middle" x="454.5" y="-344.5" font-family="Helvetica,sans-Serif" font-size="10.00">DataFactory.ActionDataFactory</text>
<polyline fill="none" stroke="black" points="371,-337.5 538,-337.5 "/>
<text text-anchor="middle" x="454.5" y="-325.5" font-family="Helvetica,sans-Serif" font-size="10.00"> </text>
<polyline fill="none" stroke="black" points="371,-318.5 538,-318.5 "/>
<text text-anchor="start" x="379" y="-306.5" font-family="Helvetica,sans-Serif" font-size="10.00">+ ActionDataFactory()</text>
<text text-anchor="start" x="379" y="-295.5" font-family="Helvetica,sans-Serif" font-size="10.00">+ setCapabilities()</text>
<text text-anchor="start" x="379" y="-284.5" font-family="Helvetica,sans-Serif" font-size="10.00">+ makeActionData()</text>
<text text-anchor="start" x="379" y="-273.5" font-family="Helvetica,sans-Serif" font-size="10.00">+ makeActionData()</text>
<text text-anchor="start" x="379" y="-262.5" font-family="Helvetica,sans-Serif" font-size="10.00">&#45; mapEntries()</text>
</a>
</g>
</g>
<!-- Node3&#45;&gt;Node2 -->
<g id="edge2" class="edge"><title>Node3&#45;&gt;Node2</title>
<path fill="none" stroke="#404040" d="M454.5,-255.387C454.5,-243.648 454.5,-231.304 454.5,-219.738"/>
<polygon fill="none" stroke="#404040" points="454.5,-219.557 450.5,-213.557 454.5,-207.557 458.5,-213.557 454.5,-219.557"/>
<text text-anchor="middle" x="484" y="-229" font-family="Helvetica,sans-Serif" font-size="10.00"> #adFactory</text>
</g>
<!-- Node4 -->
<g id="node4" class="node"><title>Node4</title>
<g id="a_node4"><a xlink:href="a00077.html" target="_top" xlink:title="interface which describes a prototype for creating MakeData objects. ">
<polygon fill="white" stroke="black" points="0,-454 0,-522 151,-522 151,-454 0,-454"/>
<text text-anchor="start" x="8" y="-510" font-family="Helvetica,sans-Serif" font-size="10.00">beseenium.controller.Action</text>
<text text-anchor="middle" x="75.5" y="-499" font-family="Helvetica,sans-Serif" font-size="10.00">DataFactory.MakeData</text>
<polyline fill="none" stroke="black" points="0,-492 151,-492 "/>
<text text-anchor="middle" x="75.5" y="-480" font-family="Helvetica,sans-Serif" font-size="10.00"> </text>
<polyline fill="none" stroke="black" points="0,-473 151,-473 "/>
<text text-anchor="start" x="8" y="-461" font-family="Helvetica,sans-Serif" font-size="10.00">+ makeActionData()</text>
</a>
</g>
</g>
<!-- Node4&#45;&gt;Node3 -->
<g id="edge3" class="edge"><title>Node4&#45;&gt;Node3</title>
<path fill="none" stroke="midnightblue" d="M116.457,-447.063C129.745,-435.597 145.06,-423.823 160.5,-415 227.028,-376.986 310.021,-349.644 370.847,-332.81"/>
<polygon fill="none" stroke="midnightblue" points="114.06,-444.511 108.883,-453.755 118.694,-449.757 114.06,-444.511"/>
</g>
<!-- Node5 -->
<g id="node5" class="node"><title>Node5</title>
<polygon fill="white" stroke="#bfbfbf" points="169,-454 169,-522 356,-522 356,-454 169,-454"/>
<text text-anchor="start" x="177" y="-510" font-family="Helvetica,sans-Serif" font-size="10.00">Map&lt; String, beseenium.controller.</text>
<text text-anchor="middle" x="262.5" y="-499" font-family="Helvetica,sans-Serif" font-size="10.00">ActionDataFactory.MakeData &gt;</text>
<polyline fill="none" stroke="#bfbfbf" points="169,-492 356,-492 "/>
<text text-anchor="middle" x="262.5" y="-480" font-family="Helvetica,sans-Serif" font-size="10.00"> </text>
<polyline fill="none" stroke="#bfbfbf" points="169,-473 356,-473 "/>
<text text-anchor="middle" x="262.5" y="-461" font-family="Helvetica,sans-Serif" font-size="10.00"> </text>
</g>
<!-- Node5&#45;&gt;Node3 -->
<g id="edge4" class="edge"><title>Node5&#45;&gt;Node3</title>
<path fill="none" stroke="#404040" d="M296.839,-453.863C317.652,-433.961 344.86,-408.263 369.5,-386 373.245,-382.616 377.102,-379.165 381.009,-375.695"/>
<polygon fill="none" stroke="#404040" points="381.195,-375.532 383.044,-368.562 390.189,-367.588 388.34,-374.558 381.195,-375.532"/>
<text text-anchor="middle" x="410" y="-389" font-family="Helvetica,sans-Serif" font-size="10.00"> &#45;ActionDataMap</text>
</g>
<!-- Node6 -->
<g id="node6" class="node"><title>Node6</title>
<g id="a_node6"><a xlink:href="a00014.html" target="_top" xlink:title="This class encapsulates the data needed to perform an action into 4 distinct areas: &#160;&#160;&#160;...">
<polygon fill="white" stroke="black" points="374,-415.5 374,-560.5 535,-560.5 535,-415.5 374,-415.5"/>
<text text-anchor="start" x="382" y="-548.5" font-family="Helvetica,sans-Serif" font-size="10.00">beseenium.model.actionData.</text>
<text text-anchor="middle" x="454.5" y="-537.5" font-family="Helvetica,sans-Serif" font-size="10.00">ActionData</text>
<polyline fill="none" stroke="black" points="374,-530.5 535,-530.5 "/>
<text text-anchor="start" x="382" y="-518.5" font-family="Helvetica,sans-Serif" font-size="10.00">&#45; inputParam</text>
<polyline fill="none" stroke="black" points="374,-511.5 535,-511.5 "/>
<text text-anchor="start" x="382" y="-499.5" font-family="Helvetica,sans-Serif" font-size="10.00">+ ActionData()</text>
<text text-anchor="start" x="382" y="-488.5" font-family="Helvetica,sans-Serif" font-size="10.00">+ ActionData()</text>
<text text-anchor="start" x="382" y="-477.5" font-family="Helvetica,sans-Serif" font-size="10.00">+ getInputParam()</text>
<text text-anchor="start" x="382" y="-466.5" font-family="Helvetica,sans-Serif" font-size="10.00">+ getElement()</text>
<text text-anchor="start" x="382" y="-455.5" font-family="Helvetica,sans-Serif" font-size="10.00">+ getDriver()</text>
<text text-anchor="start" x="382" y="-444.5" font-family="Helvetica,sans-Serif" font-size="10.00">+ setElement()</text>
<text text-anchor="start" x="382" y="-433.5" font-family="Helvetica,sans-Serif" font-size="10.00">+ setInputParam()</text>
<text text-anchor="start" x="382" y="-422.5" font-family="Helvetica,sans-Serif" font-size="10.00">+ setDriver()</text>
</a>
</g>
</g>
<!-- Node6&#45;&gt;Node3 -->
<g id="edge5" class="edge"><title>Node6&#45;&gt;Node3</title>
<path fill="none" stroke="#404040" d="M454.5,-415.269C454.5,-403.602 454.5,-391.553 454.5,-379.992"/>
<polygon fill="none" stroke="#404040" points="454.5,-379.681 450.5,-373.681 454.5,-367.681 458.5,-373.681 454.5,-379.681"/>
<text text-anchor="middle" x="500" y="-389" font-family="Helvetica,sans-Serif" font-size="10.00"> &#45;emptyActionData</text>
</g>
<!-- Node7 -->
<g id="node7" class="node"><title>Node7</title>
<polygon fill="white" stroke="#bfbfbf" points="342.5,-608.5 342.5,-665.5 458.5,-665.5 458.5,-608.5 342.5,-608.5"/>
<text text-anchor="middle" x="400.5" y="-653.5" font-family="Helvetica,sans-Serif" font-size="10.00">List&lt; WebElement &gt;</text>
<polyline fill="none" stroke="#bfbfbf" points="342.5,-646.5 458.5,-646.5 "/>
<text text-anchor="middle" x="400.5" y="-634.5" font-family="Helvetica,sans-Serif" font-size="10.00"> </text>
<polyline fill="none" stroke="#bfbfbf" points="342.5,-627.5 458.5,-627.5 "/>
<text text-anchor="middle" x="400.5" y="-615.5" font-family="Helvetica,sans-Serif" font-size="10.00"> </text>
</g>
<!-- Node7&#45;&gt;Node6 -->
<g id="edge6" class="edge"><title>Node7&#45;&gt;Node6</title>
<path fill="none" stroke="#404040" d="M410.657,-608.35C414.532,-597.801 419.178,-585.153 423.975,-572.095"/>
<polygon fill="none" stroke="#404040" points="424.076,-571.82 422.391,-564.808 428.214,-560.555 429.9,-567.567 424.076,-571.82"/>
<text text-anchor="middle" x="445" y="-582" font-family="Helvetica,sans-Serif" font-size="10.00"> &#45;element</text>
</g>
<!-- Node8 -->
<g id="node8" class="node"><title>Node8</title>
<polygon fill="white" stroke="#bfbfbf" points="477,-608.5 477,-665.5 542,-665.5 542,-608.5 477,-608.5"/>
<text text-anchor="middle" x="509.5" y="-653.5" font-family="Helvetica,sans-Serif" font-size="10.00">WebDriver</text>
<polyline fill="none" stroke="#bfbfbf" points="477,-646.5 542,-646.5 "/>
<text text-anchor="middle" x="509.5" y="-634.5" font-family="Helvetica,sans-Serif" font-size="10.00"> </text>
<polyline fill="none" stroke="#bfbfbf" points="477,-627.5 542,-627.5 "/>
<text text-anchor="middle" x="509.5" y="-615.5" font-family="Helvetica,sans-Serif" font-size="10.00"> </text>
</g>
<!-- Node8&#45;&gt;Node6 -->
<g id="edge7" class="edge"><title>Node8&#45;&gt;Node6</title>
<path fill="none" stroke="#404040" d="M499.155,-608.35C495.208,-597.801 490.476,-585.153 485.59,-572.095"/>
<polygon fill="none" stroke="#404040" points="485.478,-571.795 479.629,-567.577 481.272,-560.555 487.121,-564.773 485.478,-571.795"/>
<text text-anchor="middle" x="509.5" y="-582" font-family="Helvetica,sans-Serif" font-size="10.00"> &#45;driver</text>
</g>
<!-- Node9 -->
<g id="node9" class="node"><title>Node9</title>
<polygon fill="white" stroke="#bfbfbf" points="553,-459.5 553,-516.5 588,-516.5 588,-459.5 553,-459.5"/>
<text text-anchor="middle" x="570.5" y="-504.5" font-family="Helvetica,sans-Serif" font-size="10.00">URL</text>
<polyline fill="none" stroke="#bfbfbf" points="553,-497.5 588,-497.5 "/>
<text text-anchor="middle" x="570.5" y="-485.5" font-family="Helvetica,sans-Serif" font-size="10.00"> </text>
<polyline fill="none" stroke="#bfbfbf" points="553,-478.5 588,-478.5 "/>
<text text-anchor="middle" x="570.5" y="-466.5" font-family="Helvetica,sans-Serif" font-size="10.00"> </text>
</g>
<!-- Node9&#45;&gt;Node3 -->
<g id="edge8" class="edge"><title>Node9&#45;&gt;Node3</title>
<path fill="none" stroke="#404040" d="M569.524,-459.372C567.632,-437.918 562.436,-408.187 548.5,-386 546.525,-382.856 544.366,-379.792 542.059,-376.812"/>
<polygon fill="none" stroke="#404040" points="541.993,-376.735 535.06,-374.75 534.226,-367.587 541.159,-369.572 541.993,-376.735"/>
<text text-anchor="middle" x="567.5" y="-389" font-family="Helvetica,sans-Serif" font-size="10.00"> &#45;URL</text>
</g>
<!-- Node10 -->
<g id="node10" class="node"><title>Node10</title>
<polygon fill="white" stroke="#bfbfbf" points="606.5,-459.5 606.5,-516.5 714.5,-516.5 714.5,-459.5 606.5,-459.5"/>
<text text-anchor="middle" x="660.5" y="-504.5" font-family="Helvetica,sans-Serif" font-size="10.00">DesiredCapabilities</text>
<polyline fill="none" stroke="#bfbfbf" points="606.5,-497.5 714.5,-497.5 "/>
<text text-anchor="middle" x="660.5" y="-485.5" font-family="Helvetica,sans-Serif" font-size="10.00"> </text>
<polyline fill="none" stroke="#bfbfbf" points="606.5,-478.5 714.5,-478.5 "/>
<text text-anchor="middle" x="660.5" y="-466.5" font-family="Helvetica,sans-Serif" font-size="10.00"> </text>
</g>
<!-- Node10&#45;&gt;Node3 -->
<g id="edge9" class="edge"><title>Node10&#45;&gt;Node3</title>
<path fill="none" stroke="#404040" d="M644.087,-459.232C630.209,-437.419 608.749,-407.274 584.5,-386 573.504,-376.353 561.041,-367.389 548.292,-359.274"/>
<polygon fill="none" stroke="#404040" points="548.245,-359.245 541.039,-359.504 538.028,-352.952 545.234,-352.693 548.245,-359.245"/>
<text text-anchor="middle" x="625" y="-389" font-family="Helvetica,sans-Serif" font-size="10.00"> &#45;capabilities</text>
</g>
</g>
</svg>
