<?xml version="1.0" encoding="UTF-8" standalone="no"?>
<!DOCTYPE svg PUBLIC "-//W3C//DTD SVG 1.1//EN"
 "http://www.w3.org/Graphics/SVG/1.1/DTD/svg11.dtd">
<!-- Generated by graphviz version 2.38.0 (20140413.2041)
 -->
<!-- Title: beseenium.model.action.pageActions.GetTitle Pages: 1 -->
<svg width="209pt" height="525pt"
 viewBox="0.00 0.00 209.50 525.00" xmlns="http://www.w3.org/2000/svg" xmlns:xlink="http://www.w3.org/1999/xlink">
<g id="graph0" class="graph" transform="scale(1 1) rotate(0) translate(4 521)">
<title>beseenium.model.action.pageActions.GetTitle</title>
<polygon fill="white" stroke="none" points="-4,4 -4,-521 205.5,-521 205.5,4 -4,4"/>
<!-- Node1 -->
<g id="node1" class="node"><title>Node1</title>
<polygon fill="#bfbfbf" stroke="black" points="31,-0.5 31,-79.5 193,-79.5 193,-0.5 31,-0.5"/>
<text text-anchor="start" x="39" y="-67.5" font-family="Helvetica,sans-Serif" font-size="10.00">beseenium.model.action.page</text>
<text text-anchor="middle" x="112" y="-56.5" font-family="Helvetica,sans-Serif" font-size="10.00">Actions.GetTitle</text>
<polyline fill="none" stroke="black" points="31,-49.5 193,-49.5 "/>
<text text-anchor="middle" x="112" y="-37.5" font-family="Helvetica,sans-Serif" font-size="10.00"> </text>
<polyline fill="none" stroke="black" points="31,-30.5 193,-30.5 "/>
<text text-anchor="start" x="39" y="-18.5" font-family="Helvetica,sans-Serif" font-size="10.00">+ GetTitle()</text>
<text text-anchor="start" x="39" y="-7.5" font-family="Helvetica,sans-Serif" font-size="10.00">+ execute()</text>
</g>
<!-- Node2 -->
<g id="node2" class="node"><title>Node2</title>
<g id="a_node2"><a xlink:href="a00009.html" target="_top" xlink:title="this is the root class for all derived Actions ">
<polygon fill="white" stroke="black" points="22.5,-117.5 22.5,-218.5 201.5,-218.5 201.5,-117.5 22.5,-117.5"/>
<text text-anchor="start" x="30.5" y="-206.5" font-family="Helvetica,sans-Serif" font-size="10.00">beseenium.model.action.Abstract</text>
<text text-anchor="middle" x="112" y="-195.5" font-family="Helvetica,sans-Serif" font-size="10.00">Action</text>
<polyline fill="none" stroke="black" points="22.5,-188.5 201.5,-188.5 "/>
<text text-anchor="middle" x="112" y="-176.5" font-family="Helvetica,sans-Serif" font-size="10.00"> </text>
<polyline fill="none" stroke="black" points="22.5,-169.5 201.5,-169.5 "/>
<text text-anchor="start" x="30.5" y="-157.5" font-family="Helvetica,sans-Serif" font-size="10.00">+ getActionData()</text>
<text text-anchor="start" x="30.5" y="-146.5" font-family="Helvetica,sans-Serif" font-size="10.00">+ setActionData()</text>
<text text-anchor="start" x="30.5" y="-135.5" font-family="Helvetica,sans-Serif" font-size="10.00">+ execute()</text>
<text text-anchor="start" x="30.5" y="-124.5" font-family="Helvetica,sans-Serif" font-size="10.00"># AbstractAction()</text>
</a>
</g>
</g>
<!-- Node2&#45;&gt;Node1 -->
<g id="edge1" class="edge"><title>Node2&#45;&gt;Node1</title>
<path fill="none" stroke="midnightblue" d="M112,-107.11C112,-97.7412 112,-88.28 112,-79.5585"/>
<polygon fill="none" stroke="midnightblue" points="108.5,-107.201 112,-117.201 115.5,-107.201 108.5,-107.201"/>
</g>
<!-- Node3 -->
<g id="node3" class="node"><title>Node3</title>
<g id="a_node3"><a xlink:href="a00013.html" target="_top" xlink:title="This class encapsulates the data needed to perform an action into 4 distinct areas: &#160;&#160;&#160;...">
<polygon fill="white" stroke="black" points="31.5,-266.5 31.5,-411.5 192.5,-411.5 192.5,-266.5 31.5,-266.5"/>
<text text-anchor="start" x="39.5" y="-399.5" font-family="Helvetica,sans-Serif" font-size="10.00">beseenium.model.actionData.</text>
<text text-anchor="middle" x="112" y="-388.5" font-family="Helvetica,sans-Serif" font-size="10.00">ActionData</text>
<polyline fill="none" stroke="black" points="31.5,-381.5 192.5,-381.5 "/>
<text text-anchor="start" x="39.5" y="-369.5" font-family="Helvetica,sans-Serif" font-size="10.00">&#45; inputParam</text>
<polyline fill="none" stroke="black" points="31.5,-362.5 192.5,-362.5 "/>
<text text-anchor="start" x="39.5" y="-350.5" font-family="Helvetica,sans-Serif" font-size="10.00">+ ActionData()</text>
<text text-anchor="start" x="39.5" y="-339.5" font-family="Helvetica,sans-Serif" font-size="10.00">+ ActionData()</text>
<text text-anchor="start" x="39.5" y="-328.5" font-family="Helvetica,sans-Serif" font-size="10.00">+ getInputParam()</text>
<text text-anchor="start" x="39.5" y="-317.5" font-family="Helvetica,sans-Serif" font-size="10.00">+ getElement()</text>
<text text-anchor="start" x="39.5" y="-306.5" font-family="Helvetica,sans-Serif" font-size="10.00">+ getDriver()</text>
<text text-anchor="start" x="39.5" y="-295.5" font-family="Helvetica,sans-Serif" font-size="10.00">+ setElement()</text>
<text text-anchor="start" x="39.5" y="-284.5" font-family="Helvetica,sans-Serif" font-size="10.00">+ setInputParam()</text>
<text text-anchor="start" x="39.5" y="-273.5" font-family="Helvetica,sans-Serif" font-size="10.00">+ setDriver()</text>
</a>
</g>
</g>
<!-- Node3&#45;&gt;Node2 -->
<g id="edge2" class="edge"><title>Node3&#45;&gt;Node2</title>
<path fill="none" stroke="#404040" d="M112,-266.329C112,-254.503 112,-242.334 112,-230.777"/>
<polygon fill="none" stroke="#404040" points="112,-230.523 108,-224.523 112,-218.523 116,-224.523 112,-230.523"/>
<text text-anchor="middle" x="136" y="-240" font-family="Helvetica,sans-Serif" font-size="10.00"> #context</text>
</g>
<!-- Node4 -->
<g id="node4" class="node"><title>Node4</title>
<polygon fill="white" stroke="#bfbfbf" points="0,-459.5 0,-516.5 116,-516.5 116,-459.5 0,-459.5"/>
<text text-anchor="middle" x="58" y="-504.5" font-family="Helvetica,sans-Serif" font-size="10.00">List&lt; WebElement &gt;</text>
<polyline fill="none" stroke="#bfbfbf" points="0,-497.5 116,-497.5 "/>
<text text-anchor="middle" x="58" y="-485.5" font-family="Helvetica,sans-Serif" font-size="10.00"> </text>
<polyline fill="none" stroke="#bfbfbf" points="0,-478.5 116,-478.5 "/>
<text text-anchor="middle" x="58" y="-466.5" font-family="Helvetica,sans-Serif" font-size="10.00"> </text>
</g>
<!-- Node4&#45;&gt;Node3 -->
<g id="edge3" class="edge"><title>Node4&#45;&gt;Node3</title>
<path fill="none" stroke="#404040" d="M68.157,-459.35C72.0323,-448.801 76.6783,-436.153 81.4754,-423.095"/>
<polygon fill="none" stroke="#404040" points="81.5764,-422.82 79.8907,-415.808 85.7143,-411.555 87.4001,-418.567 81.5764,-422.82"/>
<text text-anchor="middle" x="102.5" y="-433" font-family="Helvetica,sans-Serif" font-size="10.00"> &#45;element</text>
</g>
<!-- Node5 -->
<g id="node5" class="node"><title>Node5</title>
<polygon fill="white" stroke="#bfbfbf" points="134.5,-459.5 134.5,-516.5 199.5,-516.5 199.5,-459.5 134.5,-459.5"/>
<text text-anchor="middle" x="167" y="-504.5" font-family="Helvetica,sans-Serif" font-size="10.00">WebDriver</text>
<polyline fill="none" stroke="#bfbfbf" points="134.5,-497.5 199.5,-497.5 "/>
<text text-anchor="middle" x="167" y="-485.5" font-family="Helvetica,sans-Serif" font-size="10.00"> </text>
<polyline fill="none" stroke="#bfbfbf" points="134.5,-478.5 199.5,-478.5 "/>
<text text-anchor="middle" x="167" y="-466.5" font-family="Helvetica,sans-Serif" font-size="10.00"> </text>
</g>
<!-- Node5&#45;&gt;Node3 -->
<g id="edge4" class="edge"><title>Node5&#45;&gt;Node3</title>
<path fill="none" stroke="#404040" d="M156.655,-459.35C152.708,-448.801 147.976,-436.153 143.09,-423.095"/>
<polygon fill="none" stroke="#404040" points="142.978,-422.795 137.129,-418.577 138.772,-411.555 144.621,-415.773 142.978,-422.795"/>
<text text-anchor="middle" x="167" y="-433" font-family="Helvetica,sans-Serif" font-size="10.00"> &#45;driver</text>
</g>
</g>
</svg>
