<?xml version="1.0" encoding="UTF-8" standalone="no"?>
<!DOCTYPE svg PUBLIC "-//W3C//DTD SVG 1.1//EN"
 "http://www.w3.org/Graphics/SVG/1.1/DTD/svg11.dtd">
<!-- Generated by graphviz version 2.38.0 (20140413.2041)
 -->
<!-- Title: beseenium.model.action.pageActions.PageGet Pages: 1 -->
<svg width="187pt" height="226pt"
 viewBox="0.00 0.00 187.00 226.00" xmlns="http://www.w3.org/2000/svg" xmlns:xlink="http://www.w3.org/1999/xlink">
<g id="graph0" class="graph" transform="scale(1 1) rotate(0) translate(4 222)">
<title>beseenium.model.action.pageActions.PageGet</title>
<polygon fill="white" stroke="none" points="-4,4 -4,-222 183,-222 183,4 -4,4"/>
<!-- Node1 -->
<g id="node1" class="node"><title>Node1</title>
<polygon fill="#bfbfbf" stroke="black" points="8.5,-0.5 8.5,-79.5 170.5,-79.5 170.5,-0.5 8.5,-0.5"/>
<text text-anchor="start" x="16.5" y="-67.5" font-family="Helvetica,sans-Serif" font-size="10.00">beseenium.model.action.page</text>
<text text-anchor="middle" x="89.5" y="-56.5" font-family="Helvetica,sans-Serif" font-size="10.00">Actions.PageGet</text>
<polyline fill="none" stroke="black" points="8.5,-49.5 170.5,-49.5 "/>
<text text-anchor="middle" x="89.5" y="-37.5" font-family="Helvetica,sans-Serif" font-size="10.00"> </text>
<polyline fill="none" stroke="black" points="8.5,-30.5 170.5,-30.5 "/>
<text text-anchor="start" x="16.5" y="-18.5" font-family="Helvetica,sans-Serif" font-size="10.00">+ PageGet()</text>
<text text-anchor="start" x="16.5" y="-7.5" font-family="Helvetica,sans-Serif" font-size="10.00">+ execute()</text>
</g>
<!-- Node2 -->
<g id="node2" class="node"><title>Node2</title>
<g id="a_node2"><a xlink:href="a00009.html" target="_top" xlink:title="this is the root class for all derived Actions ">
<polygon fill="white" stroke="black" points="0,-116.5 0,-217.5 179,-217.5 179,-116.5 0,-116.5"/>
<text text-anchor="start" x="8" y="-205.5" font-family="Helvetica,sans-Serif" font-size="10.00">beseenium.model.action.Abstract</text>
<text text-anchor="middle" x="89.5" y="-194.5" font-family="Helvetica,sans-Serif" font-size="10.00">Action</text>
<polyline fill="none" stroke="black" points="0,-187.5 179,-187.5 "/>
<text text-anchor="start" x="8" y="-175.5" font-family="Helvetica,sans-Serif" font-size="10.00"># context</text>
<polyline fill="none" stroke="black" points="0,-168.5 179,-168.5 "/>
<text text-anchor="start" x="8" y="-156.5" font-family="Helvetica,sans-Serif" font-size="10.00">+ getActionData()</text>
<text text-anchor="start" x="8" y="-145.5" font-family="Helvetica,sans-Serif" font-size="10.00">+ setActionData()</text>
<text text-anchor="start" x="8" y="-134.5" font-family="Helvetica,sans-Serif" font-size="10.00">+ execute()</text>
<text text-anchor="start" x="8" y="-123.5" font-family="Helvetica,sans-Serif" font-size="10.00"># AbstractAction()</text>
</a>
</g>
</g>
<!-- Node2&#45;&gt;Node1 -->
<g id="edge1" class="edge"><title>Node2&#45;&gt;Node1</title>
<path fill="none" stroke="midnightblue" d="M89.5,-106.186C89.5,-97.2207 89.5,-88.1815 89.5,-79.8082"/>
<polygon fill="none" stroke="midnightblue" points="86.0001,-106.237 89.5,-116.238 93.0001,-106.238 86.0001,-106.237"/>
</g>
</g>
</svg>
