<?xml version="1.0" encoding="UTF-8" standalone="no"?>
<!DOCTYPE svg PUBLIC "-//W3C//DTD SVG 1.1//EN"
 "http://www.w3.org/Graphics/SVG/1.1/DTD/svg11.dtd">
<!-- Generated by graphviz version 2.38.0 (20140413.2041)
 -->
<!-- Title: beseenium.model.actionData.ActionData Pages: 1 -->
<svg width="207pt" height="259pt"
 viewBox="0.00 0.00 207.50 259.00" xmlns="http://www.w3.org/2000/svg" xmlns:xlink="http://www.w3.org/1999/xlink">
<g id="graph0" class="graph" transform="scale(1 1) rotate(0) translate(4 255)">
<title>beseenium.model.actionData.ActionData</title>
<polygon fill="white" stroke="none" points="-4,4 -4,-255 203.5,-255 203.5,4 -4,4"/>
<!-- Node1 -->
<g id="node1" class="node"><title>Node1</title>
<polygon fill="#bfbfbf" stroke="black" points="31.5,-0.5 31.5,-145.5 192.5,-145.5 192.5,-0.5 31.5,-0.5"/>
<text text-anchor="start" x="39.5" y="-133.5" font-family="Helvetica,sans-Serif" font-size="10.00">beseenium.model.actionData.</text>
<text text-anchor="middle" x="112" y="-122.5" font-family="Helvetica,sans-Serif" font-size="10.00">ActionData</text>
<polyline fill="none" stroke="black" points="31.5,-115.5 192.5,-115.5 "/>
<text text-anchor="start" x="39.5" y="-103.5" font-family="Helvetica,sans-Serif" font-size="10.00">&#45; inputParam</text>
<polyline fill="none" stroke="black" points="31.5,-96.5 192.5,-96.5 "/>
<text text-anchor="start" x="39.5" y="-84.5" font-family="Helvetica,sans-Serif" font-size="10.00">+ ActionData()</text>
<text text-anchor="start" x="39.5" y="-73.5" font-family="Helvetica,sans-Serif" font-size="10.00">+ ActionData()</text>
<text text-anchor="start" x="39.5" y="-62.5" font-family="Helvetica,sans-Serif" font-size="10.00">+ getInputParam()</text>
<text text-anchor="start" x="39.5" y="-51.5" font-family="Helvetica,sans-Serif" font-size="10.00">+ getElement()</text>
<text text-anchor="start" x="39.5" y="-40.5" font-family="Helvetica,sans-Serif" font-size="10.00">+ getDriver()</text>
<text text-anchor="start" x="39.5" y="-29.5" font-family="Helvetica,sans-Serif" font-size="10.00">+ setElement()</text>
<text text-anchor="start" x="39.5" y="-18.5" font-family="Helvetica,sans-Serif" font-size="10.00">+ setInputParam()</text>
<text text-anchor="start" x="39.5" y="-7.5" font-family="Helvetica,sans-Serif" font-size="10.00">+ setDriver()</text>
</g>
<!-- Node2 -->
<g id="node2" class="node"><title>Node2</title>
<polygon fill="white" stroke="#bfbfbf" points="0,-193.5 0,-250.5 116,-250.5 116,-193.5 0,-193.5"/>
<text text-anchor="middle" x="58" y="-238.5" font-family="Helvetica,sans-Serif" font-size="10.00">List&lt; WebElement &gt;</text>
<polyline fill="none" stroke="#bfbfbf" points="0,-231.5 116,-231.5 "/>
<text text-anchor="middle" x="58" y="-219.5" font-family="Helvetica,sans-Serif" font-size="10.00"> </text>
<polyline fill="none" stroke="#bfbfbf" points="0,-212.5 116,-212.5 "/>
<text text-anchor="middle" x="58" y="-200.5" font-family="Helvetica,sans-Serif" font-size="10.00"> </text>
</g>
<!-- Node2&#45;&gt;Node1 -->
<g id="edge1" class="edge"><title>Node2&#45;&gt;Node1</title>
<path fill="none" stroke="#404040" d="M68.157,-193.35C72.0323,-182.801 76.6783,-170.153 81.4754,-157.095"/>
<polygon fill="none" stroke="#404040" points="81.5764,-156.82 79.8907,-149.808 85.7143,-145.555 87.4001,-152.567 81.5764,-156.82"/>
<text text-anchor="middle" x="102.5" y="-167" font-family="Helvetica,sans-Serif" font-size="10.00"> &#45;element</text>
</g>
<!-- Node3 -->
<g id="node3" class="node"><title>Node3</title>
<polygon fill="white" stroke="#bfbfbf" points="134.5,-193.5 134.5,-250.5 199.5,-250.5 199.5,-193.5 134.5,-193.5"/>
<text text-anchor="middle" x="167" y="-238.5" font-family="Helvetica,sans-Serif" font-size="10.00">WebDriver</text>
<polyline fill="none" stroke="#bfbfbf" points="134.5,-231.5 199.5,-231.5 "/>
<text text-anchor="middle" x="167" y="-219.5" font-family="Helvetica,sans-Serif" font-size="10.00"> </text>
<polyline fill="none" stroke="#bfbfbf" points="134.5,-212.5 199.5,-212.5 "/>
<text text-anchor="middle" x="167" y="-200.5" font-family="Helvetica,sans-Serif" font-size="10.00"> </text>
</g>
<!-- Node3&#45;&gt;Node1 -->
<g id="edge2" class="edge"><title>Node3&#45;&gt;Node1</title>
<path fill="none" stroke="#404040" d="M156.655,-193.35C152.708,-182.801 147.976,-170.153 143.09,-157.095"/>
<polygon fill="none" stroke="#404040" points="142.978,-156.795 137.129,-152.577 138.772,-145.555 144.621,-149.773 142.978,-156.795"/>
<text text-anchor="middle" x="167" y="-167" font-family="Helvetica,sans-Serif" font-size="10.00"> &#45;driver</text>
</g>
</g>
</svg>
