<?xml version="1.0" encoding="UTF-8" standalone="no"?>
<!DOCTYPE svg PUBLIC "-//W3C//DTD SVG 1.1//EN"
 "http://www.w3.org/Graphics/SVG/1.1/DTD/svg11.dtd">
<!-- Generated by graphviz version 2.38.0 (20140413.2041)
 -->
<!-- Title: beseenium.view.BeSeeniumServlet Pages: 1 -->
<svg width="160pt" height="182pt"
 viewBox="0.00 0.00 160.00 182.00" xmlns="http://www.w3.org/2000/svg" xmlns:xlink="http://www.w3.org/1999/xlink">
<g id="graph0" class="graph" transform="scale(1 1) rotate(0) translate(4 178)">
<title>beseenium.view.BeSeeniumServlet</title>
<polygon fill="white" stroke="none" points="-4,4 -4,-178 156,-178 156,4 -4,4"/>
<!-- Node1 -->
<g id="node1" class="node"><title>Node1</title>
<polygon fill="#bfbfbf" stroke="black" points="0,-0.5 0,-79.5 152,-79.5 152,-0.5 0,-0.5"/>
<text text-anchor="start" x="8" y="-67.5" font-family="Helvetica,sans-Serif" font-size="10.00">beseenium.view.BeSeenium</text>
<text text-anchor="middle" x="76" y="-56.5" font-family="Helvetica,sans-Serif" font-size="10.00">Servlet</text>
<polyline fill="none" stroke="black" points="0,-49.5 152,-49.5 "/>
<text text-anchor="start" x="8" y="-37.5" font-family="Helvetica,sans-Serif" font-size="10.00">~ EOL</text>
<text text-anchor="start" x="8" y="-26.5" font-family="Helvetica,sans-Serif" font-size="10.00">&#45; serialVersionUID</text>
<polyline fill="none" stroke="black" points="0,-19.5 152,-19.5 "/>
<text text-anchor="start" x="8" y="-7.5" font-family="Helvetica,sans-Serif" font-size="10.00"># doGet()</text>
</g>
<!-- Node2 -->
<g id="node2" class="node"><title>Node2</title>
<polygon fill="white" stroke="#bfbfbf" points="40.5,-116.5 40.5,-173.5 111.5,-173.5 111.5,-116.5 40.5,-116.5"/>
<text text-anchor="middle" x="76" y="-161.5" font-family="Helvetica,sans-Serif" font-size="10.00">HttpServlet</text>
<polyline fill="none" stroke="#bfbfbf" points="40.5,-154.5 111.5,-154.5 "/>
<text text-anchor="middle" x="76" y="-142.5" font-family="Helvetica,sans-Serif" font-size="10.00"> </text>
<polyline fill="none" stroke="#bfbfbf" points="40.5,-135.5 111.5,-135.5 "/>
<text text-anchor="middle" x="76" y="-123.5" font-family="Helvetica,sans-Serif" font-size="10.00"> </text>
</g>
<!-- Node2&#45;&gt;Node1 -->
<g id="edge1" class="edge"><title>Node2&#45;&gt;Node1</title>
<path fill="none" stroke="midnightblue" d="M76,-106.156C76,-97.4733 76,-88.2318 76,-79.5205"/>
<polygon fill="none" stroke="midnightblue" points="72.5001,-106.398 76,-116.398 79.5001,-106.398 72.5001,-106.398"/>
</g>
</g>
</svg>
