<?xml version="1.0" encoding="UTF-8" standalone="no"?>
<!DOCTYPE svg PUBLIC "-//W3C//DTD SVG 1.1//EN"
 "http://www.w3.org/Graphics/SVG/1.1/DTD/svg11.dtd">
<!-- Generated by graphviz version 2.38.0 (20140413.2041)
 -->
<!-- Title: beseenium.view.inputHandlers.requests.AddActionsRequest Pages: 1 -->
<svg width="219pt" height="204pt"
 viewBox="0.00 0.00 219.00 204.00" xmlns="http://www.w3.org/2000/svg" xmlns:xlink="http://www.w3.org/1999/xlink">
<g id="graph0" class="graph" transform="scale(1 1) rotate(0) translate(4 200)">
<title>beseenium.view.inputHandlers.requests.AddActionsRequest</title>
<polygon fill="white" stroke="none" points="-4,4 -4,-200 215,-200 215,4 -4,4"/>
<!-- Node1 -->
<g id="node1" class="node"><title>Node1</title>
<polygon fill="#bfbfbf" stroke="black" points="0,-0.5 0,-79.5 211,-79.5 211,-0.5 0,-0.5"/>
<text text-anchor="start" x="8" y="-67.5" font-family="Helvetica,sans-Serif" font-size="10.00">beseenium.view.inputHandlers.requests.</text>
<text text-anchor="middle" x="105.5" y="-56.5" font-family="Helvetica,sans-Serif" font-size="10.00">AddActionsRequest</text>
<polyline fill="none" stroke="black" points="0,-49.5 211,-49.5 "/>
<text text-anchor="middle" x="105.5" y="-37.5" font-family="Helvetica,sans-Serif" font-size="10.00"> </text>
<polyline fill="none" stroke="black" points="0,-30.5 211,-30.5 "/>
<text text-anchor="start" x="8" y="-18.5" font-family="Helvetica,sans-Serif" font-size="10.00">+ AddActionsRequest()</text>
<text text-anchor="start" x="8" y="-7.5" font-family="Helvetica,sans-Serif" font-size="10.00">+ executeRequest()</text>
</g>
<!-- Node2 -->
<g id="node2" class="node"><title>Node2</title>
<g id="a_node2"><a xlink:href="a00013.html" target="_top" xlink:title="This class is the abstract base class for a series of request objects relating to various parts of a ...">
<polygon fill="white" stroke="black" points="0,-116.5 0,-195.5 211,-195.5 211,-116.5 0,-116.5"/>
<text text-anchor="start" x="8" y="-183.5" font-family="Helvetica,sans-Serif" font-size="10.00">beseenium.view.inputHandlers.requests.</text>
<text text-anchor="middle" x="105.5" y="-172.5" font-family="Helvetica,sans-Serif" font-size="10.00">AbstractTestRequest</text>
<polyline fill="none" stroke="black" points="0,-165.5 211,-165.5 "/>
<text text-anchor="start" x="8" y="-153.5" font-family="Helvetica,sans-Serif" font-size="10.00"># requestData</text>
<polyline fill="none" stroke="black" points="0,-146.5 211,-146.5 "/>
<text text-anchor="start" x="8" y="-134.5" font-family="Helvetica,sans-Serif" font-size="10.00">+ executeRequest()</text>
<text text-anchor="start" x="8" y="-123.5" font-family="Helvetica,sans-Serif" font-size="10.00"># AbstractTestRequest()</text>
</a>
</g>
</g>
<!-- Node2&#45;&gt;Node1 -->
<g id="edge1" class="edge"><title>Node2&#45;&gt;Node1</title>
<path fill="none" stroke="midnightblue" d="M105.5,-106.146C105.5,-97.256 105.5,-88.0961 105.5,-79.5555"/>
<polygon fill="none" stroke="midnightblue" points="102,-106.405 105.5,-116.405 109,-106.405 102,-106.405"/>
</g>
</g>
</svg>
