<?xml version="1.0" encoding="UTF-8" standalone="no"?>
<!DOCTYPE svg PUBLIC "-//W3C//DTD SVG 1.1//EN"
 "http://www.w3.org/Graphics/SVG/1.1/DTD/svg11.dtd">
<!-- Generated by graphviz version 2.38.0 (20140413.2041)
 -->
<!-- Title: beseenium.view.inputHandlers.requests.AbstractTestRequest Pages: 1 -->
<svg width="906pt" height="204pt"
 viewBox="0.00 0.00 906.00 204.00" xmlns="http://www.w3.org/2000/svg" xmlns:xlink="http://www.w3.org/1999/xlink">
<g id="graph0" class="graph" transform="scale(1 1) rotate(0) translate(4 200)">
<title>beseenium.view.inputHandlers.requests.AbstractTestRequest</title>
<polygon fill="white" stroke="none" points="-4,4 -4,-200 902,-200 902,4 -4,4"/>
<!-- Node1 -->
<g id="node1" class="node"><title>Node1</title>
<polygon fill="#bfbfbf" stroke="black" points="343,-116.5 343,-195.5 554,-195.5 554,-116.5 343,-116.5"/>
<text text-anchor="start" x="351" y="-183.5" font-family="Helvetica,sans-Serif" font-size="10.00">beseenium.view.inputHandlers.requests.</text>
<text text-anchor="middle" x="448.5" y="-172.5" font-family="Helvetica,sans-Serif" font-size="10.00">AbstractTestRequest</text>
<polyline fill="none" stroke="black" points="343,-165.5 554,-165.5 "/>
<text text-anchor="start" x="351" y="-153.5" font-family="Helvetica,sans-Serif" font-size="10.00"># requestData</text>
<polyline fill="none" stroke="black" points="343,-146.5 554,-146.5 "/>
<text text-anchor="start" x="351" y="-134.5" font-family="Helvetica,sans-Serif" font-size="10.00">+ executeRequest()</text>
<text text-anchor="start" x="351" y="-123.5" font-family="Helvetica,sans-Serif" font-size="10.00"># AbstractTestRequest()</text>
</g>
<!-- Node2 -->
<g id="node2" class="node"><title>Node2</title>
<g id="a_node2"><a xlink:href="a00023.html" target="_top" xlink:title="represents a request to add a series of actions to a test. ">
<polygon fill="white" stroke="black" points="0,-0.5 0,-79.5 211,-79.5 211,-0.5 0,-0.5"/>
<text text-anchor="start" x="8" y="-67.5" font-family="Helvetica,sans-Serif" font-size="10.00">beseenium.view.inputHandlers.requests.</text>
<text text-anchor="middle" x="105.5" y="-56.5" font-family="Helvetica,sans-Serif" font-size="10.00">AddActionsRequest</text>
<polyline fill="none" stroke="black" points="0,-49.5 211,-49.5 "/>
<text text-anchor="middle" x="105.5" y="-37.5" font-family="Helvetica,sans-Serif" font-size="10.00"> </text>
<polyline fill="none" stroke="black" points="0,-30.5 211,-30.5 "/>
<text text-anchor="start" x="8" y="-18.5" font-family="Helvetica,sans-Serif" font-size="10.00">+ AddActionsRequest()</text>
<text text-anchor="start" x="8" y="-7.5" font-family="Helvetica,sans-Serif" font-size="10.00">+ executeRequest()</text>
</a>
</g>
</g>
<!-- Node1&#45;&gt;Node2 -->
<g id="edge1" class="edge"><title>Node1&#45;&gt;Node2</title>
<path fill="none" stroke="midnightblue" d="M333.283,-117.592C296.854,-105.677 256.463,-92.3748 219.5,-80 216.723,-79.0703 213.909,-78.1256 211.07,-77.1704"/>
<polygon fill="none" stroke="midnightblue" points="332.356,-120.971 342.948,-120.751 334.531,-114.317 332.356,-120.971"/>
</g>
<!-- Node3 -->
<g id="node3" class="node"><title>Node3</title>
<g id="a_node3"><a xlink:href="a00030.html" target="_top" xlink:title="This class represents a request for a test to use a particular browser type. ">
<polygon fill="white" stroke="black" points="229,-0.5 229,-79.5 440,-79.5 440,-0.5 229,-0.5"/>
<text text-anchor="start" x="237" y="-67.5" font-family="Helvetica,sans-Serif" font-size="10.00">beseenium.view.inputHandlers.requests.</text>
<text text-anchor="middle" x="334.5" y="-56.5" font-family="Helvetica,sans-Serif" font-size="10.00">BrowserRequest</text>
<polyline fill="none" stroke="black" points="229,-49.5 440,-49.5 "/>
<text text-anchor="middle" x="334.5" y="-37.5" font-family="Helvetica,sans-Serif" font-size="10.00"> </text>
<polyline fill="none" stroke="black" points="229,-30.5 440,-30.5 "/>
<text text-anchor="start" x="237" y="-18.5" font-family="Helvetica,sans-Serif" font-size="10.00">+ BrowserRequest()</text>
<text text-anchor="start" x="237" y="-7.5" font-family="Helvetica,sans-Serif" font-size="10.00">+ executeRequest()</text>
</a>
</g>
</g>
<!-- Node1&#45;&gt;Node3 -->
<g id="edge2" class="edge"><title>Node1&#45;&gt;Node3</title>
<path fill="none" stroke="midnightblue" d="M402.822,-109.322C392.955,-99.4553 382.617,-89.1173 373.055,-79.5555"/>
<polygon fill="none" stroke="midnightblue" points="400.359,-111.809 409.905,-116.405 405.309,-106.859 400.359,-111.809"/>
</g>
<!-- Node4 -->
<g id="node4" class="node"><title>Node4</title>
<g id="a_node4"><a xlink:href="a00031.html" target="_top" xlink:title="represents a request for a particular set of capabilities. ">
<polygon fill="white" stroke="black" points="458,-0.5 458,-79.5 669,-79.5 669,-0.5 458,-0.5"/>
<text text-anchor="start" x="466" y="-67.5" font-family="Helvetica,sans-Serif" font-size="10.00">beseenium.view.inputHandlers.requests.</text>
<text text-anchor="middle" x="563.5" y="-56.5" font-family="Helvetica,sans-Serif" font-size="10.00">CapabilitiesRequest</text>
<polyline fill="none" stroke="black" points="458,-49.5 669,-49.5 "/>
<text text-anchor="middle" x="563.5" y="-37.5" font-family="Helvetica,sans-Serif" font-size="10.00"> </text>
<polyline fill="none" stroke="black" points="458,-30.5 669,-30.5 "/>
<text text-anchor="start" x="466" y="-18.5" font-family="Helvetica,sans-Serif" font-size="10.00">+ CapabilitiesRequest()</text>
<text text-anchor="start" x="466" y="-7.5" font-family="Helvetica,sans-Serif" font-size="10.00">+ executeRequest()</text>
</a>
</g>
</g>
<!-- Node1&#45;&gt;Node4 -->
<g id="edge3" class="edge"><title>Node1&#45;&gt;Node4</title>
<path fill="none" stroke="midnightblue" d="M494.579,-109.322C504.532,-99.4553 514.961,-89.1173 524.606,-79.5555"/>
<polygon fill="none" stroke="midnightblue" points="492.072,-106.879 487.434,-116.405 497,-111.85 492.072,-106.879"/>
</g>
<!-- Node5 -->
<g id="node5" class="node"><title>Node5</title>
<g id="a_node5"><a xlink:href="a00038.html" target="_top" xlink:title="represents a request to execute the test. ">
<polygon fill="white" stroke="black" points="687,-0.5 687,-79.5 898,-79.5 898,-0.5 687,-0.5"/>
<text text-anchor="start" x="695" y="-67.5" font-family="Helvetica,sans-Serif" font-size="10.00">beseenium.view.inputHandlers.requests.</text>
<text text-anchor="middle" x="792.5" y="-56.5" font-family="Helvetica,sans-Serif" font-size="10.00">ExecuteRequest</text>
<polyline fill="none" stroke="black" points="687,-49.5 898,-49.5 "/>
<text text-anchor="middle" x="792.5" y="-37.5" font-family="Helvetica,sans-Serif" font-size="10.00"> </text>
<polyline fill="none" stroke="black" points="687,-30.5 898,-30.5 "/>
<text text-anchor="start" x="695" y="-18.5" font-family="Helvetica,sans-Serif" font-size="10.00">+ ExecuteRequest()</text>
<text text-anchor="start" x="695" y="-7.5" font-family="Helvetica,sans-Serif" font-size="10.00">+ executeRequest()</text>
</a>
</g>
</g>
<!-- Node1&#45;&gt;Node5 -->
<g id="edge4" class="edge"><title>Node1&#45;&gt;Node5</title>
<path fill="none" stroke="midnightblue" d="M563.959,-117.71C600.618,-105.774 641.292,-92.4303 678.5,-80 681.278,-79.0721 684.092,-78.129 686.932,-77.1752"/>
<polygon fill="none" stroke="midnightblue" points="562.66,-114.452 554.233,-120.874 564.826,-121.109 562.66,-114.452"/>
</g>
</g>
</svg>
