<?xml version="1.0" encoding="UTF-8" standalone="no"?>
<!DOCTYPE svg PUBLIC "-//W3C//DTD SVG 1.1//EN"
 "http://www.w3.org/Graphics/SVG/1.1/DTD/svg11.dtd">
<!-- Generated by graphviz version 2.38.0 (20140413.2041)
 -->
<!-- Title: beseenium.view.outputHandlers.requestHandlers.AbstractRequestHandler Pages: 1 -->
<svg width="4429pt" height="215pt"
 viewBox="0.00 0.00 4429.50 215.00" xmlns="http://www.w3.org/2000/svg" xmlns:xlink="http://www.w3.org/1999/xlink">
<g id="graph0" class="graph" transform="scale(1 1) rotate(0) translate(4 211)">
<title>beseenium.view.outputHandlers.requestHandlers.AbstractRequestHandler</title>
<polygon fill="white" stroke="none" points="-4,4 -4,-211 4425.5,-211 4425.5,4 -4,4"/>
<!-- Node1 -->
<g id="node1" class="node"><title>Node1</title>
<polygon fill="#bfbfbf" stroke="black" points="2098.5,-127.5 2098.5,-206.5 2308.5,-206.5 2308.5,-127.5 2098.5,-127.5"/>
<text text-anchor="start" x="2106.5" y="-194.5" font-family="Helvetica,sans-Serif" font-size="10.00">beseenium.view.outputHandlers.request</text>
<text text-anchor="middle" x="2203.5" y="-183.5" font-family="Helvetica,sans-Serif" font-size="10.00">Handlers.AbstractRequestHandler</text>
<polyline fill="none" stroke="black" points="2098.5,-176.5 2308.5,-176.5 "/>
<text text-anchor="start" x="2106.5" y="-164.5" font-family="Helvetica,sans-Serif" font-size="10.00"># successor</text>
<polyline fill="none" stroke="black" points="2098.5,-157.5 2308.5,-157.5 "/>
<text text-anchor="start" x="2106.5" y="-145.5" font-family="Helvetica,sans-Serif" font-size="10.00">+ setSuccessor()</text>
<text text-anchor="start" x="2106.5" y="-134.5" font-family="Helvetica,sans-Serif" font-size="10.00">+ handleRequest()</text>
</g>
<!-- Node2 -->
<g id="node2" class="node"><title>Node2</title>
<g id="a_node2"><a xlink:href="a00021.html" target="_top" xlink:title="This represents a handler for the case where the user has provided an index parameter for an action t...">
<polygon fill="white" stroke="black" points="0,-6 0,-85 225,-85 225,-6 0,-6"/>
<text text-anchor="start" x="8" y="-73" font-family="Helvetica,sans-Serif" font-size="10.00">beseenium.view.outputHandlers.request</text>
<text text-anchor="start" x="8" y="-62" font-family="Helvetica,sans-Serif" font-size="10.00">Handlers.addActionHandlers.ActionNumber</text>
<text text-anchor="middle" x="112.5" y="-51" font-family="Helvetica,sans-Serif" font-size="10.00">FormatHandler</text>
<polyline fill="none" stroke="black" points="0,-44 225,-44 "/>
<text text-anchor="start" x="8" y="-32" font-family="Helvetica,sans-Serif" font-size="10.00">&#45; logger</text>
<polyline fill="none" stroke="black" points="0,-25 225,-25 "/>
<text text-anchor="start" x="8" y="-13" font-family="Helvetica,sans-Serif" font-size="10.00">+ handleRequest()</text>
</a>
</g>
</g>
<!-- Node1&#45;&gt;Node2 -->
<g id="edge1" class="edge"><title>Node1&#45;&gt;Node2</title>
<path fill="none" stroke="midnightblue" d="M2088.35,-166.304C1722.98,-166.53 592.836,-161.371 234.5,-91 226.425,-89.4142 218.173,-87.376 209.958,-85.0467"/>
<polygon fill="none" stroke="midnightblue" points="2088.41,-169.804 2098.41,-166.296 2088.41,-162.804 2088.41,-169.804"/>
</g>
<!-- Node3 -->
<g id="node3" class="node"><title>Node3</title>
<g id="a_node3"><a xlink:href="a00022.html" target="_top" xlink:title="This represents a handler for the case where there has been a misuse of an ActionData object This is ...">
<polygon fill="white" stroke="black" points="243.5,-6 243.5,-85 471.5,-85 471.5,-6 243.5,-6"/>
<text text-anchor="start" x="251.5" y="-73" font-family="Helvetica,sans-Serif" font-size="10.00">beseenium.view.outputHandlers.request</text>
<text text-anchor="start" x="251.5" y="-62" font-family="Helvetica,sans-Serif" font-size="10.00">Handlers.addActionHandlers.AddActionData</text>
<text text-anchor="middle" x="357.5" y="-51" font-family="Helvetica,sans-Serif" font-size="10.00">Handler</text>
<polyline fill="none" stroke="black" points="243.5,-44 471.5,-44 "/>
<text text-anchor="start" x="251.5" y="-32" font-family="Helvetica,sans-Serif" font-size="10.00">&#45; logger</text>
<polyline fill="none" stroke="black" points="243.5,-25 471.5,-25 "/>
<text text-anchor="start" x="251.5" y="-13" font-family="Helvetica,sans-Serif" font-size="10.00">+ handleRequest()</text>
</a>
</g>
</g>
<!-- Node1&#45;&gt;Node3 -->
<g id="edge2" class="edge"><title>Node1&#45;&gt;Node3</title>
<path fill="none" stroke="midnightblue" d="M2088.08,-165.484C1753.99,-163.277 790.279,-151.679 481.5,-91 473.421,-89.4123 465.161,-87.3911 456.933,-85.0898"/>
<polygon fill="none" stroke="midnightblue" points="2088.24,-168.985 2098.26,-165.55 2088.28,-161.985 2088.24,-168.985"/>
</g>
<!-- Node4 -->
<g id="node4" class="node"><title>Node4</title>
<g id="a_node4"><a xlink:href="a00024.html" target="_top" xlink:title="This represents a handler for the case where the user has entered a badly formatted value for the add...">
<polygon fill="white" stroke="black" points="490,-6 490,-85 723,-85 723,-6 490,-6"/>
<text text-anchor="start" x="498" y="-73" font-family="Helvetica,sans-Serif" font-size="10.00">beseenium.view.outputHandlers.request</text>
<text text-anchor="start" x="498" y="-62" font-family="Helvetica,sans-Serif" font-size="10.00">Handlers.addActionHandlers.BadlyFormatted</text>
<text text-anchor="middle" x="606.5" y="-51" font-family="Helvetica,sans-Serif" font-size="10.00">ActionHandler</text>
<polyline fill="none" stroke="black" points="490,-44 723,-44 "/>
<text text-anchor="start" x="498" y="-32" font-family="Helvetica,sans-Serif" font-size="10.00">&#45; logger</text>
<polyline fill="none" stroke="black" points="490,-25 723,-25 "/>
<text text-anchor="start" x="498" y="-13" font-family="Helvetica,sans-Serif" font-size="10.00">+ handleRequest()</text>
</a>
</g>
</g>
<!-- Node1&#45;&gt;Node4 -->
<g id="edge3" class="edge"><title>Node1&#45;&gt;Node4</title>
<path fill="none" stroke="midnightblue" d="M2088.42,-164.41C1789.07,-159.591 991.391,-142.193 732.5,-91 724.307,-89.3799 715.926,-87.3355 707.573,-85.0181"/>
<polygon fill="none" stroke="midnightblue" points="2088.37,-167.91 2098.42,-164.57 2088.48,-160.911 2088.37,-167.91"/>
</g>
<!-- Node5 -->
<g id="node5" class="node"><title>Node5</title>
<g id="a_node5"><a xlink:href="a00101.html" target="_top" xlink:title="This represents a handler for the case where the user has forgotten to use the addAction parameter in...">
<polygon fill="white" stroke="black" points="741,-6 741,-85 972,-85 972,-6 741,-6"/>
<text text-anchor="start" x="749" y="-73" font-family="Helvetica,sans-Serif" font-size="10.00">beseenium.view.outputHandlers.request</text>
<text text-anchor="start" x="749" y="-62" font-family="Helvetica,sans-Serif" font-size="10.00">Handlers.addActionHandlers.NoActionParam</text>
<text text-anchor="middle" x="856.5" y="-51" font-family="Helvetica,sans-Serif" font-size="10.00">Handler</text>
<polyline fill="none" stroke="black" points="741,-44 972,-44 "/>
<text text-anchor="start" x="749" y="-32" font-family="Helvetica,sans-Serif" font-size="10.00">&#45; logger</text>
<polyline fill="none" stroke="black" points="741,-25 972,-25 "/>
<text text-anchor="start" x="749" y="-13" font-family="Helvetica,sans-Serif" font-size="10.00">+ handleRequest()</text>
</a>
</g>
</g>
<!-- Node1&#45;&gt;Node5 -->
<g id="edge4" class="edge"><title>Node1&#45;&gt;Node5</title>
<path fill="none" stroke="midnightblue" d="M2088.13,-163.088C1825.6,-155.787 1190.1,-134.121 980.5,-91 972.547,-89.3638 964.415,-87.3257 956.307,-85.0285"/>
<polygon fill="none" stroke="midnightblue" points="2088.36,-166.596 2098.45,-163.373 2088.55,-159.598 2088.36,-166.596"/>
</g>
<!-- Node6 -->
<g id="node6" class="node"><title>Node6</title>
<g id="a_node6"><a xlink:href="a00103.html" target="_top" xlink:title="This represents a handler for the case where the user attempts to create an action that does not exis...">
<polygon fill="white" stroke="black" points="989.5,-6 989.5,-85 1203.5,-85 1203.5,-6 989.5,-6"/>
<text text-anchor="start" x="997.5" y="-73" font-family="Helvetica,sans-Serif" font-size="10.00">beseenium.view.outputHandlers.request</text>
<text text-anchor="start" x="997.5" y="-62" font-family="Helvetica,sans-Serif" font-size="10.00">Handlers.addActionHandlers.NonExistant</text>
<text text-anchor="middle" x="1096.5" y="-51" font-family="Helvetica,sans-Serif" font-size="10.00">ActionHandler</text>
<polyline fill="none" stroke="black" points="989.5,-44 1203.5,-44 "/>
<text text-anchor="start" x="997.5" y="-32" font-family="Helvetica,sans-Serif" font-size="10.00">&#45; logger</text>
<polyline fill="none" stroke="black" points="989.5,-25 1203.5,-25 "/>
<text text-anchor="start" x="997.5" y="-13" font-family="Helvetica,sans-Serif" font-size="10.00">+ handleRequest()</text>
</a>
</g>
</g>
<!-- Node1&#45;&gt;Node6 -->
<g id="edge5" class="edge"><title>Node1&#45;&gt;Node6</title>
<path fill="none" stroke="midnightblue" d="M2088.21,-161.48C1863.88,-151.993 1376.33,-127.794 1212.5,-91 1205.13,-89.3457 1197.61,-87.3119 1190.12,-85.0334"/>
<polygon fill="none" stroke="midnightblue" points="2088.22,-164.984 2098.36,-161.907 2088.52,-157.99 2088.22,-164.984"/>
</g>
<!-- Node7 -->
<g id="node7" class="node"><title>Node7</title>
<g id="a_node7"><a xlink:href="a00110.html" target="_top" xlink:title="This class is the root of the addAction chain of responsibility, it takes care of defining the chain ...">
<polygon fill="white" stroke="black" points="1221.5,-6 1221.5,-85 1453.5,-85 1453.5,-6 1221.5,-6"/>
<text text-anchor="start" x="1229.5" y="-73" font-family="Helvetica,sans-Serif" font-size="10.00">beseenium.view.outputHandlers.request</text>
<text text-anchor="start" x="1229.5" y="-62" font-family="Helvetica,sans-Serif" font-size="10.00">Handlers.addActionHandlers.RootAddActions</text>
<text text-anchor="middle" x="1337.5" y="-51" font-family="Helvetica,sans-Serif" font-size="10.00">Handler</text>
<polyline fill="none" stroke="black" points="1221.5,-44 1453.5,-44 "/>
<text text-anchor="middle" x="1337.5" y="-32" font-family="Helvetica,sans-Serif" font-size="10.00"> </text>
<polyline fill="none" stroke="black" points="1221.5,-25 1453.5,-25 "/>
<text text-anchor="start" x="1229.5" y="-13" font-family="Helvetica,sans-Serif" font-size="10.00">+ handleRequest()</text>
</a>
</g>
</g>
<!-- Node1&#45;&gt;Node7 -->
<g id="edge6" class="edge"><title>Node1&#45;&gt;Node7</title>
<path fill="none" stroke="midnightblue" d="M2087.84,-162.902C1940.85,-157.008 1680.08,-139.985 1462.5,-91 1454.97,-89.3051 1447.27,-87.2918 1439.58,-85.0723"/>
<polygon fill="none" stroke="midnightblue" points="2088.09,-166.414 2098.22,-163.307 2088.37,-159.42 2088.09,-166.414"/>
</g>
<!-- Node8 -->
<g id="node8" class="node"><title>Node8</title>
<g id="a_node8"><a xlink:href="a00028.html" target="_top" xlink:title="This represents a handler for the case where something in the model has gone awry and the ActionData ...">
<polygon fill="white" stroke="black" points="1471.5,-6 1471.5,-85 1685.5,-85 1685.5,-6 1471.5,-6"/>
<text text-anchor="start" x="1479.5" y="-73" font-family="Helvetica,sans-Serif" font-size="10.00">beseenium.view.outputHandlers.request</text>
<text text-anchor="start" x="1479.5" y="-62" font-family="Helvetica,sans-Serif" font-size="10.00">Handlers.browserHandlers.BrowserAction</text>
<text text-anchor="middle" x="1578.5" y="-51" font-family="Helvetica,sans-Serif" font-size="10.00">DataHandler</text>
<polyline fill="none" stroke="black" points="1471.5,-44 1685.5,-44 "/>
<text text-anchor="start" x="1479.5" y="-32" font-family="Helvetica,sans-Serif" font-size="10.00">&#45; logger</text>
<polyline fill="none" stroke="black" points="1471.5,-25 1685.5,-25 "/>
<text text-anchor="start" x="1479.5" y="-13" font-family="Helvetica,sans-Serif" font-size="10.00">+ handleRequest()</text>
</a>
</g>
</g>
<!-- Node1&#45;&gt;Node8 -->
<g id="edge7" class="edge"><title>Node1&#45;&gt;Node8</title>
<path fill="none" stroke="midnightblue" d="M2088.11,-156.302C1983.98,-145.833 1827.25,-125.788 1694.5,-91 1687.82,-89.2502 1681,-87.2426 1674.18,-85.0689"/>
<polygon fill="none" stroke="midnightblue" points="2088.03,-159.811 2098.33,-157.316 2088.72,-152.846 2088.03,-159.811"/>
</g>
<!-- Node9 -->
<g id="node9" class="node"><title>Node9</title>
<g id="a_node9"><a xlink:href="a00102.html" target="_top" xlink:title="This represents a handler for the case where the browser parameter has been left out entirely...">
<polygon fill="white" stroke="black" points="1704,-6 1704,-85 1933,-85 1933,-6 1704,-6"/>
<text text-anchor="start" x="1712" y="-73" font-family="Helvetica,sans-Serif" font-size="10.00">beseenium.view.outputHandlers.request</text>
<text text-anchor="start" x="1712" y="-62" font-family="Helvetica,sans-Serif" font-size="10.00">Handlers.browserHandlers.NoBrowserParam</text>
<text text-anchor="middle" x="1818.5" y="-51" font-family="Helvetica,sans-Serif" font-size="10.00">Handler</text>
<polyline fill="none" stroke="black" points="1704,-44 1933,-44 "/>
<text text-anchor="start" x="1712" y="-32" font-family="Helvetica,sans-Serif" font-size="10.00">&#45; logger</text>
<polyline fill="none" stroke="black" points="1704,-25 1933,-25 "/>
<text text-anchor="start" x="1712" y="-13" font-family="Helvetica,sans-Serif" font-size="10.00">+ handleRequest()</text>
</a>
</g>
</g>
<!-- Node1&#45;&gt;Node9 -->
<g id="edge8" class="edge"><title>Node1&#45;&gt;Node9</title>
<path fill="none" stroke="midnightblue" d="M2088.76,-134.988C2042.77,-122.079 1989.41,-106.504 1941.5,-91 1935.67,-89.1122 1929.7,-87.1277 1923.68,-85.0877"/>
<polygon fill="none" stroke="midnightblue" points="2087.89,-138.377 2098.46,-137.701 2089.77,-131.636 2087.89,-138.377"/>
</g>
<!-- Node10 -->
<g id="node10" class="node"><title>Node10</title>
<g id="a_node10"><a xlink:href="a00111.html" target="_top" xlink:title="This class is the root of the browser chain of responsibility, it takes care of defining the chain an...">
<polygon fill="white" stroke="black" points="1951,-11.5 1951,-79.5 2194,-79.5 2194,-11.5 1951,-11.5"/>
<text text-anchor="start" x="1959" y="-67.5" font-family="Helvetica,sans-Serif" font-size="10.00">beseenium.view.outputHandlers.request</text>
<text text-anchor="middle" x="2072.5" y="-56.5" font-family="Helvetica,sans-Serif" font-size="10.00">Handlers.browserHandlers.RootBrowserHandler</text>
<polyline fill="none" stroke="black" points="1951,-49.5 2194,-49.5 "/>
<text text-anchor="middle" x="2072.5" y="-37.5" font-family="Helvetica,sans-Serif" font-size="10.00"> </text>
<polyline fill="none" stroke="black" points="1951,-30.5 2194,-30.5 "/>
<text text-anchor="start" x="1959" y="-18.5" font-family="Helvetica,sans-Serif" font-size="10.00">+ handleRequest()</text>
</a>
</g>
</g>
<!-- Node1&#45;&gt;Node10 -->
<g id="edge9" class="edge"><title>Node1&#45;&gt;Node10</title>
<path fill="none" stroke="midnightblue" d="M2153.38,-120.281C2138.65,-106.842 2122.82,-92.3998 2109.1,-79.8867"/>
<polygon fill="none" stroke="midnightblue" points="2151.22,-123.048 2160.97,-127.202 2155.94,-117.877 2151.22,-123.048"/>
</g>
<!-- Node11 -->
<g id="node11" class="node"><title>Node11</title>
<g id="a_node11"><a xlink:href="a00123.html" target="_top" xlink:title="This represents a handler for the case where the browser parameter has either been left blank or an i...">
<polygon fill="white" stroke="black" points="2212,-6 2212,-85 2457,-85 2457,-6 2212,-6"/>
<text text-anchor="start" x="2220" y="-73" font-family="Helvetica,sans-Serif" font-size="10.00">beseenium.view.outputHandlers.request</text>
<text text-anchor="start" x="2220" y="-62" font-family="Helvetica,sans-Serif" font-size="10.00">Handlers.browserHandlers.WrongBrowserParam</text>
<text text-anchor="middle" x="2334.5" y="-51" font-family="Helvetica,sans-Serif" font-size="10.00">Handler</text>
<polyline fill="none" stroke="black" points="2212,-44 2457,-44 "/>
<text text-anchor="start" x="2220" y="-32" font-family="Helvetica,sans-Serif" font-size="10.00">&#45; logger</text>
<polyline fill="none" stroke="black" points="2212,-25 2457,-25 "/>
<text text-anchor="start" x="2220" y="-13" font-family="Helvetica,sans-Serif" font-size="10.00">+ handleRequest()</text>
</a>
</g>
</g>
<!-- Node1&#45;&gt;Node11 -->
<g id="edge10" class="edge"><title>Node1&#45;&gt;Node11</title>
<path fill="none" stroke="midnightblue" d="M2253.44,-120.443C2266.22,-108.789 2279.83,-96.3704 2292.18,-85.1036"/>
<polygon fill="none" stroke="midnightblue" points="2251.06,-117.877 2246.03,-127.202 2255.78,-123.048 2251.06,-117.877"/>
</g>
<!-- Node12 -->
<g id="node12" class="node"><title>Node12</title>
<g id="a_node12"><a xlink:href="a00025.html" target="_top" xlink:title="This represents a handler for the case in which the user has made some elementary mistake in the leng...">
<polygon fill="white" stroke="black" points="2475.5,-6 2475.5,-85 2699.5,-85 2699.5,-6 2475.5,-6"/>
<text text-anchor="start" x="2483.5" y="-73" font-family="Helvetica,sans-Serif" font-size="10.00">beseenium.view.outputHandlers.request</text>
<text text-anchor="start" x="2483.5" y="-62" font-family="Helvetica,sans-Serif" font-size="10.00">Handlers.capabilitiesHandlers.BadlyFormed</text>
<text text-anchor="middle" x="2587.5" y="-51" font-family="Helvetica,sans-Serif" font-size="10.00">CapsStringHandler</text>
<polyline fill="none" stroke="black" points="2475.5,-44 2699.5,-44 "/>
<text text-anchor="start" x="2483.5" y="-32" font-family="Helvetica,sans-Serif" font-size="10.00">&#45; logger</text>
<polyline fill="none" stroke="black" points="2475.5,-25 2699.5,-25 "/>
<text text-anchor="start" x="2483.5" y="-13" font-family="Helvetica,sans-Serif" font-size="10.00">+ handleRequest()</text>
</a>
</g>
</g>
<!-- Node1&#45;&gt;Node12 -->
<g id="edge11" class="edge"><title>Node1&#45;&gt;Node12</title>
<path fill="none" stroke="midnightblue" d="M2318.42,-135.233C2364.67,-122.332 2418.35,-106.695 2466.5,-91 2472.35,-89.0924 2478.34,-87.0811 2484.38,-85.0105"/>
<polygon fill="none" stroke="midnightblue" points="2317.37,-131.894 2308.67,-137.944 2319.24,-138.638 2317.37,-131.894"/>
</g>
<!-- Node13 -->
<g id="node13" class="node"><title>Node13</title>
<g id="a_node13"><a xlink:href="a00032.html" target="_top" xlink:title="This represents a handler for the case in which the ActionData object has not been correctly used...">
<polygon fill="white" stroke="black" points="2718,-6 2718,-85 2933,-85 2933,-6 2718,-6"/>
<text text-anchor="start" x="2726" y="-73" font-family="Helvetica,sans-Serif" font-size="10.00">beseenium.view.outputHandlers.request</text>
<text text-anchor="start" x="2726" y="-62" font-family="Helvetica,sans-Serif" font-size="10.00">Handlers.capabilitiesHandlers.CapsAction</text>
<text text-anchor="middle" x="2825.5" y="-51" font-family="Helvetica,sans-Serif" font-size="10.00">DataHandler</text>
<polyline fill="none" stroke="black" points="2718,-44 2933,-44 "/>
<text text-anchor="start" x="2726" y="-32" font-family="Helvetica,sans-Serif" font-size="10.00">&#45; logger</text>
<polyline fill="none" stroke="black" points="2718,-25 2933,-25 "/>
<text text-anchor="start" x="2726" y="-13" font-family="Helvetica,sans-Serif" font-size="10.00">+ handleRequest()</text>
</a>
</g>
</g>
<!-- Node1&#45;&gt;Node13 -->
<g id="edge12" class="edge"><title>Node1&#45;&gt;Node13</title>
<path fill="none" stroke="midnightblue" d="M2318.94,-156.019C2422.23,-145.402 2577.16,-125.299 2708.5,-91 2715.23,-89.2428 2722.1,-87.2297 2728.98,-85.0519"/>
<polygon fill="none" stroke="midnightblue" points="2318.39,-152.556 2308.8,-157.048 2319.1,-159.52 2318.39,-152.556"/>
</g>
<!-- Node14 -->
<g id="node14" class="node"><title>Node14</title>
<g id="a_node14"><a xlink:href="a00037.html" target="_top" xlink:title="This class represents a handler for the case where a null pointer exception is thrown when attempting...">
<polygon fill="white" stroke="black" points="2951.5,-0.5 2951.5,-90.5 3167.5,-90.5 3167.5,-0.5 2951.5,-0.5"/>
<text text-anchor="start" x="2959.5" y="-78.5" font-family="Helvetica,sans-Serif" font-size="10.00">beseenium.view.outputHandlers.request</text>
<text text-anchor="start" x="2959.5" y="-67.5" font-family="Helvetica,sans-Serif" font-size="10.00">Handlers.capabilitiesHandlers.EmptyCaps</text>
<text text-anchor="middle" x="3059.5" y="-56.5" font-family="Helvetica,sans-Serif" font-size="10.00">ParamHandler</text>
<polyline fill="none" stroke="black" points="2951.5,-49.5 3167.5,-49.5 "/>
<text text-anchor="start" x="2959.5" y="-37.5" font-family="Helvetica,sans-Serif" font-size="10.00">&#45; logger</text>
<polyline fill="none" stroke="black" points="2951.5,-30.5 3167.5,-30.5 "/>
<text text-anchor="start" x="2959.5" y="-18.5" font-family="Helvetica,sans-Serif" font-size="10.00">+ EmptyCapsParamHandler()</text>
<text text-anchor="start" x="2959.5" y="-7.5" font-family="Helvetica,sans-Serif" font-size="10.00">+ handleRequest()</text>
</a>
</g>
</g>
<!-- Node1&#45;&gt;Node14 -->
<g id="edge13" class="edge"><title>Node1&#45;&gt;Node14</title>
<path fill="none" stroke="midnightblue" d="M2319.02,-163.611C2465.79,-158.458 2726.04,-142.206 2942.5,-91 2945.46,-90.2996 2948.45,-89.5427 2951.45,-88.7376"/>
<polygon fill="none" stroke="midnightblue" points="2318.53,-160.126 2308.65,-163.963 2318.76,-167.122 2318.53,-160.126"/>
</g>
<!-- Node15 -->
<g id="node15" class="node"><title>Node15</title>
<g id="a_node15"><a xlink:href="a00098.html" target="_top" xlink:title="This class represents a handler for the case in which the authorisation string of the remote capabili...">
<polygon fill="white" stroke="black" points="3185.5,-0.5 3185.5,-90.5 3397.5,-90.5 3397.5,-0.5 3185.5,-0.5"/>
<text text-anchor="start" x="3193.5" y="-78.5" font-family="Helvetica,sans-Serif" font-size="10.00">beseenium.view.outputHandlers.request</text>
<text text-anchor="start" x="3193.5" y="-67.5" font-family="Helvetica,sans-Serif" font-size="10.00">Handlers.capabilitiesHandlers.Malformed</text>
<text text-anchor="middle" x="3291.5" y="-56.5" font-family="Helvetica,sans-Serif" font-size="10.00">URLHandler</text>
<polyline fill="none" stroke="black" points="3185.5,-49.5 3397.5,-49.5 "/>
<text text-anchor="start" x="3193.5" y="-37.5" font-family="Helvetica,sans-Serif" font-size="10.00">&#45; logger</text>
<polyline fill="none" stroke="black" points="3185.5,-30.5 3397.5,-30.5 "/>
<text text-anchor="start" x="3193.5" y="-18.5" font-family="Helvetica,sans-Serif" font-size="10.00">+ MalformedURLHandler()</text>
<text text-anchor="start" x="3193.5" y="-7.5" font-family="Helvetica,sans-Serif" font-size="10.00">+ handleRequest()</text>
</a>
</g>
</g>
<!-- Node1&#45;&gt;Node15 -->
<g id="edge14" class="edge"><title>Node1&#45;&gt;Node15</title>
<path fill="none" stroke="midnightblue" d="M2318.81,-161.334C2540.01,-151.686 3016.22,-127.36 3176.5,-91 3179.42,-90.337 3182.37,-89.6134 3185.33,-88.8378"/>
<polygon fill="none" stroke="midnightblue" points="2318.63,-157.838 2308.79,-161.768 2318.93,-164.831 2318.63,-157.838"/>
</g>
<!-- Node16 -->
<g id="node16" class="node"><title>Node16</title>
<g id="a_node16"><a xlink:href="a00112.html" target="_top" xlink:title="This class is the root of the capabilities chain of responsibility, it takes care of defining the cha...">
<polygon fill="white" stroke="black" points="3415.5,-0.5 3415.5,-90.5 3653.5,-90.5 3653.5,-0.5 3415.5,-0.5"/>
<text text-anchor="start" x="3423.5" y="-78.5" font-family="Helvetica,sans-Serif" font-size="10.00">beseenium.view.outputHandlers.request</text>
<text text-anchor="start" x="3423.5" y="-67.5" font-family="Helvetica,sans-Serif" font-size="10.00">Handlers.capabilitiesHandlers.RootCapabilities</text>
<text text-anchor="middle" x="3534.5" y="-56.5" font-family="Helvetica,sans-Serif" font-size="10.00">Handler</text>
<polyline fill="none" stroke="black" points="3415.5,-49.5 3653.5,-49.5 "/>
<text text-anchor="middle" x="3534.5" y="-37.5" font-family="Helvetica,sans-Serif" font-size="10.00"> </text>
<polyline fill="none" stroke="black" points="3415.5,-30.5 3653.5,-30.5 "/>
<text text-anchor="start" x="3423.5" y="-18.5" font-family="Helvetica,sans-Serif" font-size="10.00">+ RootCapabilitiesHandler()</text>
<text text-anchor="start" x="3423.5" y="-7.5" font-family="Helvetica,sans-Serif" font-size="10.00">+ handleRequest()</text>
</a>
</g>
</g>
<!-- Node1&#45;&gt;Node16 -->
<g id="edge15" class="edge"><title>Node1&#45;&gt;Node16</title>
<path fill="none" stroke="midnightblue" d="M2318.86,-162.807C2578.19,-154.98 3200.63,-132.393 3406.5,-91 3409.38,-90.4203 3412.29,-89.7911 3415.21,-89.1186"/>
<polygon fill="none" stroke="midnightblue" points="2318.55,-159.314 2308.66,-163.113 2318.76,-166.311 2318.55,-159.314"/>
</g>
<!-- Node17 -->
<g id="node17" class="node"><title>Node17</title>
<g id="a_node17"><a xlink:href="a00013.html" target="_top" xlink:title="This represents a handler for the case where, an element scoped action has been performed before a fi...">
<polygon fill="white" stroke="black" points="3671.5,-6 3671.5,-85 3917.5,-85 3917.5,-6 3671.5,-6"/>
<text text-anchor="start" x="3679.5" y="-73" font-family="Helvetica,sans-Serif" font-size="10.00">beseenium.view.outputHandlers.request</text>
<text text-anchor="start" x="3679.5" y="-62" font-family="Helvetica,sans-Serif" font-size="10.00">Handlers.executeHandlers.ActionDataException</text>
<text text-anchor="middle" x="3794.5" y="-51" font-family="Helvetica,sans-Serif" font-size="10.00">Handler</text>
<polyline fill="none" stroke="black" points="3671.5,-44 3917.5,-44 "/>
<text text-anchor="start" x="3679.5" y="-32" font-family="Helvetica,sans-Serif" font-size="10.00">&#45; logger</text>
<polyline fill="none" stroke="black" points="3671.5,-25 3917.5,-25 "/>
<text text-anchor="start" x="3679.5" y="-13" font-family="Helvetica,sans-Serif" font-size="10.00">+ handleRequest()</text>
</a>
</g>
</g>
<!-- Node1&#45;&gt;Node17 -->
<g id="edge16" class="edge"><title>Node1&#45;&gt;Node17</title>
<path fill="none" stroke="midnightblue" d="M2319.11,-164.134C2617.09,-158.672 3405.8,-139.904 3662.5,-91 3670.93,-89.3933 3679.57,-87.3765 3688.18,-85.0941"/>
<polygon fill="none" stroke="midnightblue" points="2318.66,-160.642 2308.72,-164.323 2318.78,-167.641 2318.66,-160.642"/>
</g>
<!-- Node18 -->
<g id="node18" class="node"><title>Node18</title>
<g id="a_node18"><a xlink:href="a00017.html" target="_top" xlink:title="This represents a handler for the case where, actions have been requested in the incorrect order...">
<polygon fill="white" stroke="black" points="3936,-6 3936,-85 4159,-85 4159,-6 3936,-6"/>
<text text-anchor="start" x="3944" y="-73" font-family="Helvetica,sans-Serif" font-size="10.00">beseenium.view.outputHandlers.request</text>
<text text-anchor="start" x="3944" y="-62" font-family="Helvetica,sans-Serif" font-size="10.00">Handlers.executeHandlers.ActionException</text>
<text text-anchor="middle" x="4047.5" y="-51" font-family="Helvetica,sans-Serif" font-size="10.00">Handler</text>
<polyline fill="none" stroke="black" points="3936,-44 4159,-44 "/>
<text text-anchor="start" x="3944" y="-32" font-family="Helvetica,sans-Serif" font-size="10.00">&#45; logger</text>
<polyline fill="none" stroke="black" points="3936,-25 4159,-25 "/>
<text text-anchor="start" x="3944" y="-13" font-family="Helvetica,sans-Serif" font-size="10.00">+ handleRequest()</text>
</a>
</g>
</g>
<!-- Node1&#45;&gt;Node18 -->
<g id="edge17" class="edge"><title>Node1&#45;&gt;Node18</title>
<path fill="none" stroke="midnightblue" d="M2318.71,-165.605C2652.79,-163.728 3617.69,-152.942 3926.5,-91 3934.51,-89.3933 3942.7,-87.3401 3950.84,-85.0005"/>
<polygon fill="none" stroke="midnightblue" points="2318.52,-162.106 2308.54,-165.66 2318.55,-169.106 2318.52,-162.106"/>
</g>
<!-- Node19 -->
<g id="node19" class="node"><title>Node19</title>
<g id="a_node19"><a xlink:href="a00113.html" target="_top" xlink:title="This class is the root of the addAction chain of responsibility, it takes care of defining the chain ...">
<polygon fill="white" stroke="black" points="4177.5,-11.5 4177.5,-79.5 4421.5,-79.5 4421.5,-11.5 4177.5,-11.5"/>
<text text-anchor="start" x="4185.5" y="-67.5" font-family="Helvetica,sans-Serif" font-size="10.00">beseenium.view.outputHandlers.request</text>
<text text-anchor="middle" x="4299.5" y="-56.5" font-family="Helvetica,sans-Serif" font-size="10.00">Handlers.executeHandlers.RootExecuteHandler</text>
<polyline fill="none" stroke="black" points="4177.5,-49.5 4421.5,-49.5 "/>
<text text-anchor="start" x="4185.5" y="-37.5" font-family="Helvetica,sans-Serif" font-size="10.00">&#45; logger</text>
<polyline fill="none" stroke="black" points="4177.5,-30.5 4421.5,-30.5 "/>
<text text-anchor="start" x="4185.5" y="-18.5" font-family="Helvetica,sans-Serif" font-size="10.00">+ handleRequest()</text>
</a>
</g>
</g>
<!-- Node1&#45;&gt;Node19 -->
<g id="edge18" class="edge"><title>Node1&#45;&gt;Node19</title>
<path fill="none" stroke="midnightblue" d="M2318.61,-165.926C2683.17,-165.01 3809.34,-156.789 4167.5,-91 4182.49,-88.2474 4198.09,-84.1546 4213.1,-79.5479"/>
<polygon fill="none" stroke="midnightblue" points="2318.56,-162.426 2308.57,-165.949 2318.58,-169.425 2318.56,-162.426"/>
</g>
</g>
</svg>
