<?xml version="1.0" encoding="UTF-8" standalone="no"?>
<!DOCTYPE svg PUBLIC "-//W3C//DTD SVG 1.1//EN"
 "http://www.w3.org/Graphics/SVG/1.1/DTD/svg11.dtd">
<!-- Generated by graphviz version 2.38.0 (20140413.2041)
 -->
<!-- Title: beseenium.view.inputHandlers.InputHandler Pages: 1 -->
<svg width="226pt" height="259pt"
 viewBox="0.00 0.00 226.00 259.00" xmlns="http://www.w3.org/2000/svg" xmlns:xlink="http://www.w3.org/1999/xlink">
<g id="graph0" class="graph" transform="scale(1 1) rotate(0) translate(4 255)">
<title>beseenium.view.inputHandlers.InputHandler</title>
<polygon fill="white" stroke="none" points="-4,4 -4,-255 222,-255 222,4 -4,4"/>
<!-- Node1 -->
<g id="node1" class="node"><title>Node1</title>
<polygon fill="#bfbfbf" stroke="black" points="26,-0.5 26,-134.5 192,-134.5 192,-0.5 26,-0.5"/>
<text text-anchor="start" x="34" y="-122.5" font-family="Helvetica,sans-Serif" font-size="10.00">beseenium.view.inputHandlers.</text>
<text text-anchor="middle" x="109" y="-111.5" font-family="Helvetica,sans-Serif" font-size="10.00">InputHandler</text>
<polyline fill="none" stroke="black" points="26,-104.5 192,-104.5 "/>
<text text-anchor="middle" x="109" y="-92.5" font-family="Helvetica,sans-Serif" font-size="10.00"> </text>
<polyline fill="none" stroke="black" points="26,-85.5 192,-85.5 "/>
<text text-anchor="start" x="34" y="-73.5" font-family="Helvetica,sans-Serif" font-size="10.00">+ InputHandler()</text>
<text text-anchor="start" x="34" y="-62.5" font-family="Helvetica,sans-Serif" font-size="10.00">+ handleInput()</text>
<text text-anchor="start" x="34" y="-51.5" font-family="Helvetica,sans-Serif" font-size="10.00">+ getRequest()</text>
<text text-anchor="start" x="34" y="-40.5" font-family="Helvetica,sans-Serif" font-size="10.00">&#45; handleCapabilities()</text>
<text text-anchor="start" x="34" y="-29.5" font-family="Helvetica,sans-Serif" font-size="10.00">&#45; handleBrowser()</text>
<text text-anchor="start" x="34" y="-18.5" font-family="Helvetica,sans-Serif" font-size="10.00">&#45; handleAddActions()</text>
<text text-anchor="start" x="34" y="-7.5" font-family="Helvetica,sans-Serif" font-size="10.00">&#45; handleExecuteRequest()</text>
</g>
<!-- Node2 -->
<g id="node2" class="node"><title>Node2</title>
<polygon fill="white" stroke="#bfbfbf" points="0,-182.5 0,-250.5 218,-250.5 218,-182.5 0,-182.5"/>
<text text-anchor="start" x="8" y="-238.5" font-family="Helvetica,sans-Serif" font-size="10.00">Map&lt; String, beseenium.view.input</text>
<text text-anchor="middle" x="109" y="-227.5" font-family="Helvetica,sans-Serif" font-size="10.00">Handlers.requests.AbstractTestRequest &gt;</text>
<polyline fill="none" stroke="#bfbfbf" points="0,-220.5 218,-220.5 "/>
<text text-anchor="middle" x="109" y="-208.5" font-family="Helvetica,sans-Serif" font-size="10.00"> </text>
<polyline fill="none" stroke="#bfbfbf" points="0,-201.5 218,-201.5 "/>
<text text-anchor="middle" x="109" y="-189.5" font-family="Helvetica,sans-Serif" font-size="10.00"> </text>
</g>
<!-- Node2&#45;&gt;Node1 -->
<g id="edge1" class="edge"><title>Node2&#45;&gt;Node1</title>
<path fill="none" stroke="#404040" d="M109,-182.143C109,-171.597 109,-159.46 109,-147.13"/>
<polygon fill="none" stroke="#404040" points="109,-146.787 105,-140.787 109,-134.787 113,-140.787 109,-146.787"/>
<text text-anchor="middle" x="144" y="-156" font-family="Helvetica,sans-Serif" font-size="10.00"> &#45;testRequests</text>
</g>
</g>
</svg>
