<?xml version="1.0" encoding="UTF-8" standalone="no"?>
<!DOCTYPE svg PUBLIC "-//W3C//DTD SVG 1.1//EN"
 "http://www.w3.org/Graphics/SVG/1.1/DTD/svg11.dtd">
<!-- Generated by graphviz version 2.38.0 (20140413.2041)
 -->
<!-- Title: beseenium.model.action.findElementsBy.FindElementsByPartialLinkTxt Pages: 1 -->
<svg width="211pt" height="536pt"
 viewBox="0.00 0.00 211.50 536.00" xmlns="http://www.w3.org/2000/svg" xmlns:xlink="http://www.w3.org/1999/xlink">
<g id="graph0" class="graph" transform="scale(1 1) rotate(0) translate(4 532)">
<title>beseenium.model.action.findElementsBy.FindElementsByPartialLinkTxt</title>
<polygon fill="white" stroke="none" points="-4,4 -4,-532 207.5,-532 207.5,4 -4,4"/>
<!-- Node1 -->
<g id="node1" class="node"><title>Node1</title>
<polygon fill="#bfbfbf" stroke="black" points="20.5,-0.5 20.5,-90.5 203.5,-90.5 203.5,-0.5 20.5,-0.5"/>
<text text-anchor="start" x="28.5" y="-78.5" font-family="Helvetica,sans-Serif" font-size="10.00">beseenium.model.action.find</text>
<text text-anchor="start" x="28.5" y="-67.5" font-family="Helvetica,sans-Serif" font-size="10.00">ElementsBy.FindElementsByPartial</text>
<text text-anchor="middle" x="112" y="-56.5" font-family="Helvetica,sans-Serif" font-size="10.00">LinkTxt</text>
<polyline fill="none" stroke="black" points="20.5,-49.5 203.5,-49.5 "/>
<text text-anchor="middle" x="112" y="-37.5" font-family="Helvetica,sans-Serif" font-size="10.00"> </text>
<polyline fill="none" stroke="black" points="20.5,-30.5 203.5,-30.5 "/>
<text text-anchor="start" x="28.5" y="-18.5" font-family="Helvetica,sans-Serif" font-size="10.00">+ FindElementsByPartialLinkTxt()</text>
<text text-anchor="start" x="28.5" y="-7.5" font-family="Helvetica,sans-Serif" font-size="10.00">+ execute()</text>
</g>
<!-- Node2 -->
<g id="node2" class="node"><title>Node2</title>
<g id="a_node2"><a xlink:href="a00009.html" target="_top" xlink:title="this is the root class for all derived Actions ">
<polygon fill="white" stroke="black" points="22.5,-128.5 22.5,-229.5 201.5,-229.5 201.5,-128.5 22.5,-128.5"/>
<text text-anchor="start" x="30.5" y="-217.5" font-family="Helvetica,sans-Serif" font-size="10.00">beseenium.model.action.Abstract</text>
<text text-anchor="middle" x="112" y="-206.5" font-family="Helvetica,sans-Serif" font-size="10.00">Action</text>
<polyline fill="none" stroke="black" points="22.5,-199.5 201.5,-199.5 "/>
<text text-anchor="middle" x="112" y="-187.5" font-family="Helvetica,sans-Serif" font-size="10.00"> </text>
<polyline fill="none" stroke="black" points="22.5,-180.5 201.5,-180.5 "/>
<text text-anchor="start" x="30.5" y="-168.5" font-family="Helvetica,sans-Serif" font-size="10.00">+ getActionData()</text>
<text text-anchor="start" x="30.5" y="-157.5" font-family="Helvetica,sans-Serif" font-size="10.00">+ setActionData()</text>
<text text-anchor="start" x="30.5" y="-146.5" font-family="Helvetica,sans-Serif" font-size="10.00">+ execute()</text>
<text text-anchor="start" x="30.5" y="-135.5" font-family="Helvetica,sans-Serif" font-size="10.00"># AbstractAction()</text>
</a>
</g>
</g>
<!-- Node2&#45;&gt;Node1 -->
<g id="edge1" class="edge"><title>Node2&#45;&gt;Node1</title>
<path fill="none" stroke="midnightblue" d="M112,-118.001C112,-108.8 112,-99.4486 112,-90.6734"/>
<polygon fill="none" stroke="midnightblue" points="108.5,-118.285 112,-128.285 115.5,-118.286 108.5,-118.285"/>
</g>
<!-- Node3 -->
<g id="node3" class="node"><title>Node3</title>
<g id="a_node3"><a xlink:href="a00013.html" target="_top" xlink:title="This class encapsulates the data needed to perform an action into 4 distinct areas: &#160;&#160;&#160;...">
<polygon fill="white" stroke="black" points="31.5,-277.5 31.5,-422.5 192.5,-422.5 192.5,-277.5 31.5,-277.5"/>
<text text-anchor="start" x="39.5" y="-410.5" font-family="Helvetica,sans-Serif" font-size="10.00">beseenium.model.actionData.</text>
<text text-anchor="middle" x="112" y="-399.5" font-family="Helvetica,sans-Serif" font-size="10.00">ActionData</text>
<polyline fill="none" stroke="black" points="31.5,-392.5 192.5,-392.5 "/>
<text text-anchor="start" x="39.5" y="-380.5" font-family="Helvetica,sans-Serif" font-size="10.00">&#45; inputParam</text>
<polyline fill="none" stroke="black" points="31.5,-373.5 192.5,-373.5 "/>
<text text-anchor="start" x="39.5" y="-361.5" font-family="Helvetica,sans-Serif" font-size="10.00">+ ActionData()</text>
<text text-anchor="start" x="39.5" y="-350.5" font-family="Helvetica,sans-Serif" font-size="10.00">+ ActionData()</text>
<text text-anchor="start" x="39.5" y="-339.5" font-family="Helvetica,sans-Serif" font-size="10.00">+ getInputParam()</text>
<text text-anchor="start" x="39.5" y="-328.5" font-family="Helvetica,sans-Serif" font-size="10.00">+ getElement()</text>
<text text-anchor="start" x="39.5" y="-317.5" font-family="Helvetica,sans-Serif" font-size="10.00">+ getDriver()</text>
<text text-anchor="start" x="39.5" y="-306.5" font-family="Helvetica,sans-Serif" font-size="10.00">+ setElement()</text>
<text text-anchor="start" x="39.5" y="-295.5" font-family="Helvetica,sans-Serif" font-size="10.00">+ setInputParam()</text>
<text text-anchor="start" x="39.5" y="-284.5" font-family="Helvetica,sans-Serif" font-size="10.00">+ setDriver()</text>
</a>
</g>
</g>
<!-- Node3&#45;&gt;Node2 -->
<g id="edge2" class="edge"><title>Node3&#45;&gt;Node2</title>
<path fill="none" stroke="#404040" d="M112,-277.329C112,-265.503 112,-253.334 112,-241.777"/>
<polygon fill="none" stroke="#404040" points="112,-241.523 108,-235.523 112,-229.523 116,-235.523 112,-241.523"/>
<text text-anchor="middle" x="136" y="-251" font-family="Helvetica,sans-Serif" font-size="10.00"> #context</text>
</g>
<!-- Node4 -->
<g id="node4" class="node"><title>Node4</title>
<polygon fill="white" stroke="#bfbfbf" points="0,-470.5 0,-527.5 116,-527.5 116,-470.5 0,-470.5"/>
<text text-anchor="middle" x="58" y="-515.5" font-family="Helvetica,sans-Serif" font-size="10.00">List&lt; WebElement &gt;</text>
<polyline fill="none" stroke="#bfbfbf" points="0,-508.5 116,-508.5 "/>
<text text-anchor="middle" x="58" y="-496.5" font-family="Helvetica,sans-Serif" font-size="10.00"> </text>
<polyline fill="none" stroke="#bfbfbf" points="0,-489.5 116,-489.5 "/>
<text text-anchor="middle" x="58" y="-477.5" font-family="Helvetica,sans-Serif" font-size="10.00"> </text>
</g>
<!-- Node4&#45;&gt;Node3 -->
<g id="edge3" class="edge"><title>Node4&#45;&gt;Node3</title>
<path fill="none" stroke="#404040" d="M68.157,-470.35C72.0323,-459.801 76.6783,-447.153 81.4754,-434.095"/>
<polygon fill="none" stroke="#404040" points="81.5764,-433.82 79.8907,-426.808 85.7143,-422.555 87.4001,-429.567 81.5764,-433.82"/>
<text text-anchor="middle" x="102.5" y="-444" font-family="Helvetica,sans-Serif" font-size="10.00"> &#45;element</text>
</g>
<!-- Node5 -->
<g id="node5" class="node"><title>Node5</title>
<polygon fill="white" stroke="#bfbfbf" points="134.5,-470.5 134.5,-527.5 199.5,-527.5 199.5,-470.5 134.5,-470.5"/>
<text text-anchor="middle" x="167" y="-515.5" font-family="Helvetica,sans-Serif" font-size="10.00">WebDriver</text>
<polyline fill="none" stroke="#bfbfbf" points="134.5,-508.5 199.5,-508.5 "/>
<text text-anchor="middle" x="167" y="-496.5" font-family="Helvetica,sans-Serif" font-size="10.00"> </text>
<polyline fill="none" stroke="#bfbfbf" points="134.5,-489.5 199.5,-489.5 "/>
<text text-anchor="middle" x="167" y="-477.5" font-family="Helvetica,sans-Serif" font-size="10.00"> </text>
</g>
<!-- Node5&#45;&gt;Node3 -->
<g id="edge4" class="edge"><title>Node5&#45;&gt;Node3</title>
<path fill="none" stroke="#404040" d="M156.655,-470.35C152.708,-459.801 147.976,-447.153 143.09,-434.095"/>
<polygon fill="none" stroke="#404040" points="142.978,-433.795 137.129,-429.577 138.772,-422.555 144.621,-426.773 142.978,-433.795"/>
<text text-anchor="middle" x="167" y="-444" font-family="Helvetica,sans-Serif" font-size="10.00"> &#45;driver</text>
</g>
</g>
</svg>
