<?xml version="1.0" encoding="UTF-8" standalone="no"?>
<!DOCTYPE svg PUBLIC "-//W3C//DTD SVG 1.1//EN"
 "http://www.w3.org/Graphics/SVG/1.1/DTD/svg11.dtd">
<!-- Generated by graphviz version 2.38.0 (20140413.2041)
 -->
<!-- Title: beseenium.view.inputHandlers.requests.AbstractTestRequest Pages: 1 -->
<!--zoomable 204 -->
<svg id="main" version="1.1" xmlns="http://www.w3.org/2000/svg" xmlns:xlink="http://www.w3.org/1999/xlink" xml:space="preserve" onload="init(evt)">
<style type="text/css"><![CDATA[
.edge:hover path { stroke: red; }
.edge:hover polygon { stroke: red; fill: red; }
]]></style>
<script type="text/javascript"><![CDATA[
var edges = document.getElementsByTagName('g');
if (edges && edges.length) {
  for (var i=0;i<edges.length;i++) {
    if (edges[i].id.substr(0,4)=='edge') {
      edges[i].setAttribute('class','edge');
    }
  }
}
]]></script>
        <defs>
                <circle id="rim" cx="0" cy="0" r="7"/>
                <circle id="rim2" cx="0" cy="0" r="3.5"/>
                <g id="zoomPlus">
                        <use xlink:href="#rim" fill="#404040">
                                <set attributeName="fill" to="#808080" begin="zoomplus.mouseover" end="zoomplus.mouseout"/>
                        </use>
                        <path d="M-4,0h8M0,-4v8" fill="none" stroke="white" stroke-width="1.5" pointer-events="none"/>
                </g>
                <g id="zoomMin">
                        <use xlink:href="#rim" fill="#404040">
                                <set attributeName="fill" to="#808080" begin="zoomminus.mouseover" end="zoomminus.mouseout"/>
                        </use>
                        <path d="M-4,0h8" fill="none" stroke="white" stroke-width="1.5" pointer-events="none"/>
                </g>
                <g id="dirArrow">
                        <path fill="none" stroke="white" stroke-width="1.5" d="M0,-3.0v7 M-2.5,-0.5L0,-3.0L2.5,-0.5"/>
                </g>
               <g id="resetDef">
                       <use xlink:href="#rim2" fill="#404040">
                               <set attributeName="fill" to="#808080" begin="reset.mouseover" end="reset.mouseout"/>
                       </use>
               </g>
        </defs>

<script type="text/javascript">
var viewWidth = 906;
var viewHeight = 204;
var sectionId = 'dynsection-0';
</script>
<script xlink:href="svgpan.js"/>
<svg id="graph" class="graph">
<g id="viewport">
<title>beseenium.view.inputHandlers.requests.AbstractTestRequest</title>
<polygon fill="white" stroke="none" points="-4,4 -4,-200 902,-200 902,4 -4,4"/>
<!-- Node1 -->
<g id="node1" class="node"><title>Node1</title>
<polygon fill="#bfbfbf" stroke="black" points="343,-116.5 343,-195.5 554,-195.5 554,-116.5 343,-116.5"/>
<text text-anchor="start" x="351" y="-183.5" font-family="Helvetica,sans-Serif" font-size="10.00">beseenium.view.inputHandlers.requests.</text>
<text text-anchor="middle" x="448.5" y="-172.5" font-family="Helvetica,sans-Serif" font-size="10.00">AbstractTestRequest</text>
<polyline fill="none" stroke="black" points="343,-165.5 554,-165.5 "/>
<text text-anchor="start" x="351" y="-153.5" font-family="Helvetica,sans-Serif" font-size="10.00"># requestData</text>
<polyline fill="none" stroke="black" points="343,-146.5 554,-146.5 "/>
<text text-anchor="start" x="351" y="-134.5" font-family="Helvetica,sans-Serif" font-size="10.00">+ executeRequest()</text>
<text text-anchor="start" x="351" y="-123.5" font-family="Helvetica,sans-Serif" font-size="10.00"># AbstractTestRequest()</text>
</g>
<!-- Node2 -->
<g id="node2" class="node"><title>Node2</title>
<g id="a_node2"><a xlink:href="a00025.html" target="_top" xlink:title="represents a request to add a series of actions to a test. ">
<polygon fill="white" stroke="black" points="0,-0.5 0,-79.5 211,-79.5 211,-0.5 0,-0.5"/>
<text text-anchor="start" x="8" y="-67.5" font-family="Helvetica,sans-Serif" font-size="10.00">beseenium.view.inputHandlers.requests.</text>
<text text-anchor="middle" x="105.5" y="-56.5" font-family="Helvetica,sans-Serif" font-size="10.00">AddActionsRequest</text>
<polyline fill="none" stroke="black" points="0,-49.5 211,-49.5 "/>
<text text-anchor="middle" x="105.5" y="-37.5" font-family="Helvetica,sans-Serif" font-size="10.00"> </text>
<polyline fill="none" stroke="black" points="0,-30.5 211,-30.5 "/>
<text text-anchor="start" x="8" y="-18.5" font-family="Helvetica,sans-Serif" font-size="10.00">+ AddActionsRequest()</text>
<text text-anchor="start" x="8" y="-7.5" font-family="Helvetica,sans-Serif" font-size="10.00">+ executeRequest()</text>
</a>
</g>
</g>
<!-- Node1&#45;&gt;Node2 -->
<g id="edge1" class="edge"><title>Node1&#45;&gt;Node2</title>
<path fill="none" stroke="midnightblue" d="M333.283,-117.592C296.854,-105.677 256.463,-92.3748 219.5,-80 216.723,-79.0703 213.909,-78.1256 211.07,-77.1704"/>
<polygon fill="none" stroke="midnightblue" points="332.356,-120.971 342.948,-120.751 334.531,-114.317 332.356,-120.971"/>
</g>
<!-- Node3 -->
<g id="node3" class="node"><title>Node3</title>
<g id="a_node3"><a xlink:href="a00032.html" target="_top" xlink:title="This class represents a request for a test to use a particular browser type. ">
<polygon fill="white" stroke="black" points="229,-0.5 229,-79.5 440,-79.5 440,-0.5 229,-0.5"/>
<text text-anchor="start" x="237" y="-67.5" font-family="Helvetica,sans-Serif" font-size="10.00">beseenium.view.inputHandlers.requests.</text>
<text text-anchor="middle" x="334.5" y="-56.5" font-family="Helvetica,sans-Serif" font-size="10.00">BrowserRequest</text>
<polyline fill="none" stroke="black" points="229,-49.5 440,-49.5 "/>
<text text-anchor="middle" x="334.5" y="-37.5" font-family="Helvetica,sans-Serif" font-size="10.00"> </text>
<polyline fill="none" stroke="black" points="229,-30.5 440,-30.5 "/>
<text text-anchor="start" x="237" y="-18.5" font-family="Helvetica,sans-Serif" font-size="10.00">+ BrowserRequest()</text>
<text text-anchor="start" x="237" y="-7.5" font-family="Helvetica,sans-Serif" font-size="10.00">+ executeRequest()</text>
</a>
</g>
</g>
<!-- Node1&#45;&gt;Node3 -->
<g id="edge2" class="edge"><title>Node1&#45;&gt;Node3</title>
<path fill="none" stroke="midnightblue" d="M402.822,-109.322C392.955,-99.4553 382.617,-89.1173 373.055,-79.5555"/>
<polygon fill="none" stroke="midnightblue" points="400.359,-111.809 409.905,-116.405 405.309,-106.859 400.359,-111.809"/>
</g>
<!-- Node4 -->
<g id="node4" class="node"><title>Node4</title>
<g id="a_node4"><a xlink:href="a00033.html" target="_top" xlink:title="represents a request for a particular set of capabilities. ">
<polygon fill="white" stroke="black" points="458,-0.5 458,-79.5 669,-79.5 669,-0.5 458,-0.5"/>
<text text-anchor="start" x="466" y="-67.5" font-family="Helvetica,sans-Serif" font-size="10.00">beseenium.view.inputHandlers.requests.</text>
<text text-anchor="middle" x="563.5" y="-56.5" font-family="Helvetica,sans-Serif" font-size="10.00">CapabilitiesRequest</text>
<polyline fill="none" stroke="black" points="458,-49.5 669,-49.5 "/>
<text text-anchor="middle" x="563.5" y="-37.5" font-family="Helvetica,sans-Serif" font-size="10.00"> </text>
<polyline fill="none" stroke="black" points="458,-30.5 669,-30.5 "/>
<text text-anchor="start" x="466" y="-18.5" font-family="Helvetica,sans-Serif" font-size="10.00">+ CapabilitiesRequest()</text>
<text text-anchor="start" x="466" y="-7.5" font-family="Helvetica,sans-Serif" font-size="10.00">+ executeRequest()</text>
</a>
</g>
</g>
<!-- Node1&#45;&gt;Node4 -->
<g id="edge3" class="edge"><title>Node1&#45;&gt;Node4</title>
<path fill="none" stroke="midnightblue" d="M494.579,-109.322C504.532,-99.4553 514.961,-89.1173 524.606,-79.5555"/>
<polygon fill="none" stroke="midnightblue" points="492.072,-106.879 487.434,-116.405 497,-111.85 492.072,-106.879"/>
</g>
<!-- Node5 -->
<g id="node5" class="node"><title>Node5</title>
<g id="a_node5"><a xlink:href="a00041.html" target="_top" xlink:title="represents a request to execute the test. ">
<polygon fill="white" stroke="black" points="687,-0.5 687,-79.5 898,-79.5 898,-0.5 687,-0.5"/>
<text text-anchor="start" x="695" y="-67.5" font-family="Helvetica,sans-Serif" font-size="10.00">beseenium.view.inputHandlers.requests.</text>
<text text-anchor="middle" x="792.5" y="-56.5" font-family="Helvetica,sans-Serif" font-size="10.00">ExecuteRequest</text>
<polyline fill="none" stroke="black" points="687,-49.5 898,-49.5 "/>
<text text-anchor="middle" x="792.5" y="-37.5" font-family="Helvetica,sans-Serif" font-size="10.00"> </text>
<polyline fill="none" stroke="black" points="687,-30.5 898,-30.5 "/>
<text text-anchor="start" x="695" y="-18.5" font-family="Helvetica,sans-Serif" font-size="10.00">+ ExecuteRequest()</text>
<text text-anchor="start" x="695" y="-7.5" font-family="Helvetica,sans-Serif" font-size="10.00">+ executeRequest()</text>
</a>
</g>
</g>
<!-- Node1&#45;&gt;Node5 -->
<g id="edge4" class="edge"><title>Node1&#45;&gt;Node5</title>
<path fill="none" stroke="midnightblue" d="M563.959,-117.71C600.618,-105.774 641.292,-92.4303 678.5,-80 681.278,-79.0721 684.092,-78.129 686.932,-77.1752"/>
<polygon fill="none" stroke="midnightblue" points="562.66,-114.452 554.233,-120.874 564.826,-121.109 562.66,-114.452"/>
</g>
</g>
</svg>
        <g id="navigator" transform="translate(0 0)" fill="#404254">
                <rect fill="#f2f5e9" fill-opacity="0.5" stroke="#606060" stroke-width=".5" x="0" y="0" width="60" height="60"/>
                <use id="zoomplus" xlink:href="#zoomPlus" x="17" y="9" onmousedown="handleZoom(evt,'in')"/>
                <use id="zoomminus" xlink:href="#zoomMin" x="42" y="9" onmousedown="handleZoom(evt,'out')"/>
                <use id="reset" xlink:href="#resetDef" x="30" y="36" onmousedown="handleReset()"/>
                <g id="arrowUp" xlink:href="#dirArrow" transform="translate(30 24)" onmousedown="handlePan(0,-1)">
                  <use xlink:href="#rim" fill="#404040">
                        <set attributeName="fill" to="#808080" begin="arrowUp.mouseover" end="arrowUp.mouseout"/>
                  </use>
                  <path fill="none" stroke="white" stroke-width="1.5" d="M0,-3.0v7 M-2.5,-0.5L0,-3.0L2.5,-0.5"/>
                </g>
                <g id="arrowRight" xlink:href="#dirArrow" transform="rotate(90) translate(36 -43)" onmousedown="handlePan(1,0)">
                  <use xlink:href="#rim" fill="#404040">
                        <set attributeName="fill" to="#808080" begin="arrowRight.mouseover" end="arrowRight.mouseout"/>
                  </use>
                  <path fill="none" stroke="white" stroke-width="1.5" d="M0,-3.0v7 M-2.5,-0.5L0,-3.0L2.5,-0.5"/>
                </g>
                <g id="arrowDown" xlink:href="#dirArrow" transform="rotate(180) translate(-30 -48)" onmousedown="handlePan(0,1)">
                  <use xlink:href="#rim" fill="#404040">
                        <set attributeName="fill" to="#808080" begin="arrowDown.mouseover" end="arrowDown.mouseout"/>
                  </use>
                  <path fill="none" stroke="white" stroke-width="1.5" d="M0,-3.0v7 M-2.5,-0.5L0,-3.0L2.5,-0.5"/>
                </g>
                <g id="arrowLeft" xlink:href="#dirArrow" transform="rotate(270) translate(-36 17)" onmousedown="handlePan(-1,0)">
                  <use xlink:href="#rim" fill="#404040">
                        <set attributeName="fill" to="#808080" begin="arrowLeft.mouseover" end="arrowLeft.mouseout"/>
                  </use>
                  <path fill="none" stroke="white" stroke-width="1.5" d="M0,-3.0v7 M-2.5,-0.5L0,-3.0L2.5,-0.5"/>
                </g>
        </g>
        <svg viewBox="0 0 15 15" width="100%" height="30px" preserveAspectRatio="xMaxYMin meet">
         <g id="arrow_out" transform="scale(0.3 0.3)">
          <a xlink:href="a00578_org.svg" target="_base">
           <rect id="button" ry="5" rx="5" y="6" x="6" height="38" width="38"
                fill="#f2f5e9" fill-opacity="0.5" stroke="#606060" stroke-width="1.0"/>
           <path id="arrow"
             d="M 11.500037,31.436501 C 11.940474,20.09759 22.043105,11.32322 32.158766,21.979434 L 37.068811,17.246167 C 37.068811,17.246167 37.088388,32 37.088388,32 L 22.160133,31.978069 C 22.160133,31.978069 26.997745,27.140456 26.997745,27.140456 C 18.528582,18.264221 13.291696,25.230495 11.500037,31.436501 z"
             style="fill:#404040;"/>
          </a>
         </g>
        </svg>
</svg>
