<?xml version="1.0" encoding="UTF-8" standalone="no"?>
<!DOCTYPE svg PUBLIC "-//W3C//DTD SVG 1.1//EN"
 "http://www.w3.org/Graphics/SVG/1.1/DTD/svg11.dtd">
<!-- Generated by graphviz version 2.38.0 (20140413.2041)
 -->
<!-- Title: beseenium.view.URLHandler Pages: 1 -->
<svg width="973pt" height="910pt"
 viewBox="0.00 0.00 973.50 910.00" xmlns="http://www.w3.org/2000/svg" xmlns:xlink="http://www.w3.org/1999/xlink">
<g id="graph0" class="graph" transform="scale(1 1) rotate(0) translate(4 906)">
<title>beseenium.view.URLHandler</title>
<polygon fill="white" stroke="none" points="-4,4 -4,-906 969.5,-906 969.5,4 -4,4"/>
<!-- Node1 -->
<g id="node1" class="node"><title>Node1</title>
<polygon fill="#bfbfbf" stroke="black" points="452.5,-0.5 452.5,-123.5 604.5,-123.5 604.5,-0.5 452.5,-0.5"/>
<text text-anchor="middle" x="528.5" y="-111.5" font-family="Helvetica,sans-Serif" font-size="10.00">beseenium.view.URLHandler</text>
<polyline fill="none" stroke="black" points="452.5,-104.5 604.5,-104.5 "/>
<text text-anchor="start" x="460.5" y="-92.5" font-family="Helvetica,sans-Serif" font-size="10.00">~ EOL</text>
<polyline fill="none" stroke="black" points="452.5,-85.5 604.5,-85.5 "/>
<text text-anchor="start" x="460.5" y="-73.5" font-family="Helvetica,sans-Serif" font-size="10.00">+ URLHandler()</text>
<text text-anchor="start" x="460.5" y="-62.5" font-family="Helvetica,sans-Serif" font-size="10.00">+ handleURL()</text>
<text text-anchor="start" x="460.5" y="-51.5" font-family="Helvetica,sans-Serif" font-size="10.00">&#45; handleCapabilities()</text>
<text text-anchor="start" x="460.5" y="-40.5" font-family="Helvetica,sans-Serif" font-size="10.00">&#45; handleBrowser()</text>
<text text-anchor="start" x="460.5" y="-29.5" font-family="Helvetica,sans-Serif" font-size="10.00">&#45; handleAddActions()</text>
<text text-anchor="start" x="460.5" y="-18.5" font-family="Helvetica,sans-Serif" font-size="10.00">&#45; splitString()</text>
<text text-anchor="start" x="460.5" y="-7.5" font-family="Helvetica,sans-Serif" font-size="10.00">&#45; shutdown()</text>
</g>
<!-- Node2 -->
<g id="node2" class="node"><title>Node2</title>
<polygon fill="white" stroke="#bfbfbf" points="459.5,-204.5 459.5,-261.5 509.5,-261.5 509.5,-204.5 459.5,-204.5"/>
<text text-anchor="middle" x="484.5" y="-249.5" font-family="Helvetica,sans-Serif" font-size="10.00">Logger</text>
<polyline fill="none" stroke="#bfbfbf" points="459.5,-242.5 509.5,-242.5 "/>
<text text-anchor="middle" x="484.5" y="-230.5" font-family="Helvetica,sans-Serif" font-size="10.00"> </text>
<polyline fill="none" stroke="#bfbfbf" points="459.5,-223.5 509.5,-223.5 "/>
<text text-anchor="middle" x="484.5" y="-211.5" font-family="Helvetica,sans-Serif" font-size="10.00"> </text>
</g>
<!-- Node2&#45;&gt;Node1 -->
<g id="edge1" class="edge"><title>Node2&#45;&gt;Node1</title>
<path fill="none" stroke="#404040" d="M491.667,-204.471C496.543,-185.743 503.239,-160.026 509.585,-135.651"/>
<polygon fill="none" stroke="#404040" points="509.639,-135.442 507.28,-128.628 512.663,-123.829 515.022,-130.643 509.639,-135.442"/>
<text text-anchor="middle" x="527" y="-145" font-family="Helvetica,sans-Serif" font-size="10.00"> &#45;logger</text>
</g>
<!-- Node3 -->
<g id="node3" class="node"><title>Node3</title>
<g id="a_node3"><a xlink:href="a00121.html" target="_top" xlink:title="blueprint for creating Test objects, a Test is ostensibly a series of actions that are performed one ...">
<polygon fill="white" stroke="black" points="527.5,-171.5 527.5,-294.5 673.5,-294.5 673.5,-171.5 527.5,-171.5"/>
<text text-anchor="middle" x="600.5" y="-282.5" font-family="Helvetica,sans-Serif" font-size="10.00">beseenium.controller.Test</text>
<polyline fill="none" stroke="black" points="527.5,-275.5 673.5,-275.5 "/>
<text text-anchor="middle" x="600.5" y="-263.5" font-family="Helvetica,sans-Serif" font-size="10.00"> </text>
<polyline fill="none" stroke="black" points="527.5,-256.5 673.5,-256.5 "/>
<text text-anchor="start" x="535.5" y="-244.5" font-family="Helvetica,sans-Serif" font-size="10.00">+ Test()</text>
<text text-anchor="start" x="535.5" y="-233.5" font-family="Helvetica,sans-Serif" font-size="10.00">+ setBrowser()</text>
<text text-anchor="start" x="535.5" y="-222.5" font-family="Helvetica,sans-Serif" font-size="10.00">+ configureRemoteDriver()</text>
<text text-anchor="start" x="535.5" y="-211.5" font-family="Helvetica,sans-Serif" font-size="10.00">+ addAction()</text>
<text text-anchor="start" x="535.5" y="-200.5" font-family="Helvetica,sans-Serif" font-size="10.00">+ removeAction()</text>
<text text-anchor="start" x="535.5" y="-189.5" font-family="Helvetica,sans-Serif" font-size="10.00">+ executeActions()</text>
<text text-anchor="start" x="535.5" y="-178.5" font-family="Helvetica,sans-Serif" font-size="10.00">+ emergencyShutdown()</text>
</a>
</g>
</g>
<!-- Node3&#45;&gt;Node1 -->
<g id="edge2" class="edge"><title>Node3&#45;&gt;Node1</title>
<path fill="none" stroke="#404040" d="M574.71,-171.464C569.643,-159.572 564.282,-146.989 559.077,-134.77"/>
<polygon fill="none" stroke="#404040" points="559.056,-134.721 553.024,-130.769 554.352,-123.681 560.384,-127.633 559.056,-134.721"/>
<text text-anchor="middle" x="582" y="-145" font-family="Helvetica,sans-Serif" font-size="10.00"> ~test</text>
</g>
<!-- Node4 -->
<g id="node4" class="node"><title>Node4</title>
<g id="a_node4"><a xlink:href="a00014.html" target="_top" xlink:title="This Class conforms to a &#39;factory&#39; pattern, it allows the creation of different ActionData instances...">
<polygon fill="white" stroke="black" points="470,-480.5 470,-592.5 637,-592.5 637,-480.5 470,-480.5"/>
<text text-anchor="start" x="478" y="-580.5" font-family="Helvetica,sans-Serif" font-size="10.00">beseenium.controller.Action</text>
<text text-anchor="middle" x="553.5" y="-569.5" font-family="Helvetica,sans-Serif" font-size="10.00">DataFactory.ActionDataFactory</text>
<polyline fill="none" stroke="black" points="470,-562.5 637,-562.5 "/>
<text text-anchor="middle" x="553.5" y="-550.5" font-family="Helvetica,sans-Serif" font-size="10.00"> </text>
<polyline fill="none" stroke="black" points="470,-543.5 637,-543.5 "/>
<text text-anchor="start" x="478" y="-531.5" font-family="Helvetica,sans-Serif" font-size="10.00">+ ActionDataFactory()</text>
<text text-anchor="start" x="478" y="-520.5" font-family="Helvetica,sans-Serif" font-size="10.00">+ setCapabilities()</text>
<text text-anchor="start" x="478" y="-509.5" font-family="Helvetica,sans-Serif" font-size="10.00">+ makeActionData()</text>
<text text-anchor="start" x="478" y="-498.5" font-family="Helvetica,sans-Serif" font-size="10.00">+ makeActionData()</text>
<text text-anchor="start" x="478" y="-487.5" font-family="Helvetica,sans-Serif" font-size="10.00">&#45; mapEntries()</text>
</a>
</g>
</g>
<!-- Node4&#45;&gt;Node3 -->
<g id="edge3" class="edge"><title>Node4&#45;&gt;Node3</title>
<path fill="none" stroke="#404040" d="M580.729,-480.47C582.997,-474.345 584.994,-468.111 586.5,-462 599.019,-411.209 602.354,-352.227 602.645,-306.979"/>
<polygon fill="none" stroke="#404040" points="602.645,-306.897 598.649,-300.894 602.653,-294.897 606.649,-300.9 602.645,-306.897"/>
<text text-anchor="middle" x="649" y="-385" font-family="Helvetica,sans-Serif" font-size="10.00"> &#45;actionDataFactory</text>
</g>
<!-- Node16 -->
<g id="node16" class="node"><title>Node16</title>
<g id="a_node16"><a xlink:href="a00018.html" target="_top" xlink:title="this class is a factory for creating actions, it uses a factory method style pattern and a map implem...">
<polygon fill="white" stroke="black" points="413,-342.5 413,-432.5 564,-432.5 564,-342.5 413,-342.5"/>
<text text-anchor="start" x="421" y="-420.5" font-family="Helvetica,sans-Serif" font-size="10.00">beseenium.controller.Action</text>
<text text-anchor="middle" x="488.5" y="-409.5" font-family="Helvetica,sans-Serif" font-size="10.00">Factory.ActionFactory</text>
<polyline fill="none" stroke="black" points="413,-402.5 564,-402.5 "/>
<text text-anchor="middle" x="488.5" y="-390.5" font-family="Helvetica,sans-Serif" font-size="10.00"> </text>
<polyline fill="none" stroke="black" points="413,-383.5 564,-383.5 "/>
<text text-anchor="start" x="421" y="-371.5" font-family="Helvetica,sans-Serif" font-size="10.00">+ ActionFactory()</text>
<text text-anchor="start" x="421" y="-360.5" font-family="Helvetica,sans-Serif" font-size="10.00">+ makeAction()</text>
<text text-anchor="start" x="421" y="-349.5" font-family="Helvetica,sans-Serif" font-size="10.00">&#45; populateActionMap()</text>
</a>
</g>
</g>
<!-- Node4&#45;&gt;Node16 -->
<g id="edge17" class="edge"><title>Node4&#45;&gt;Node16</title>
<path fill="none" stroke="#404040" d="M500.735,-480.115C497.097,-474.297 493.919,-468.224 491.5,-462 489.384,-456.558 487.929,-450.716 486.965,-444.789"/>
<polygon fill="none" stroke="#404040" points="486.937,-444.536 482.304,-439.01 485.623,-432.608 490.256,-438.134 486.937,-444.536"/>
<text text-anchor="middle" x="539" y="-454" font-family="Helvetica,sans-Serif" font-size="10.00"> &#45;actionDataFactory</text>
</g>
<!-- Node5 -->
<g id="node5" class="node"><title>Node5</title>
<g id="a_node5"><a xlink:href="a00069.html" target="_top" xlink:title="interface which describes a prototype for creating MakeData objects. ">
<polygon fill="white" stroke="black" points="384,-679 384,-747 535,-747 535,-679 384,-679"/>
<text text-anchor="start" x="392" y="-735" font-family="Helvetica,sans-Serif" font-size="10.00">beseenium.controller.Action</text>
<text text-anchor="middle" x="459.5" y="-724" font-family="Helvetica,sans-Serif" font-size="10.00">DataFactory.MakeData</text>
<polyline fill="none" stroke="black" points="384,-717 535,-717 "/>
<text text-anchor="middle" x="459.5" y="-705" font-family="Helvetica,sans-Serif" font-size="10.00"> </text>
<polyline fill="none" stroke="black" points="384,-698 535,-698 "/>
<text text-anchor="start" x="392" y="-686" font-family="Helvetica,sans-Serif" font-size="10.00">+ makeActionData()</text>
</a>
</g>
</g>
<!-- Node5&#45;&gt;Node4 -->
<g id="edge4" class="edge"><title>Node5&#45;&gt;Node4</title>
<path fill="none" stroke="midnightblue" d="M482.201,-669.858C494.704,-646.647 510.372,-617.562 523.833,-592.573"/>
<polygon fill="none" stroke="midnightblue" points="479.063,-668.303 477.402,-678.767 485.226,-671.623 479.063,-668.303"/>
</g>
<!-- Node6 -->
<g id="node6" class="node"><title>Node6</title>
<polygon fill="white" stroke="#bfbfbf" points="0,-679 0,-747 187,-747 187,-679 0,-679"/>
<text text-anchor="start" x="8" y="-735" font-family="Helvetica,sans-Serif" font-size="10.00">Map&lt; String, beseenium.controller.</text>
<text text-anchor="middle" x="93.5" y="-724" font-family="Helvetica,sans-Serif" font-size="10.00">ActionDataFactory.MakeData &gt;</text>
<polyline fill="none" stroke="#bfbfbf" points="0,-717 187,-717 "/>
<text text-anchor="middle" x="93.5" y="-705" font-family="Helvetica,sans-Serif" font-size="10.00"> </text>
<polyline fill="none" stroke="#bfbfbf" points="0,-698 187,-698 "/>
<text text-anchor="middle" x="93.5" y="-686" font-family="Helvetica,sans-Serif" font-size="10.00"> </text>
</g>
<!-- Node6&#45;&gt;Node4 -->
<g id="edge5" class="edge"><title>Node6&#45;&gt;Node4</title>
<path fill="none" stroke="#404040" d="M133.036,-678.825C151.116,-665.088 173.401,-650.051 195.5,-640 245.052,-617.463 260.951,-620.791 314.5,-611 375.171,-599.906 396.265,-612.598 458.228,-593.31"/>
<polygon fill="none" stroke="#404040" points="458.453,-593.236 462.898,-587.559 469.849,-589.478 465.403,-595.156 458.453,-593.236"/>
<text text-anchor="middle" x="355" y="-614" font-family="Helvetica,sans-Serif" font-size="10.00"> &#45;ActionDataMap</text>
</g>
<!-- Node7 -->
<g id="node7" class="node"><title>Node7</title>
<g id="a_node7"><a xlink:href="a00011.html" target="_top" xlink:title="This class encapsulates the data needed to perform an action into 4 distinct areas: &#160;&#160;&#160;...">
<polygon fill="white" stroke="black" points="205,-640.5 205,-785.5 366,-785.5 366,-640.5 205,-640.5"/>
<text text-anchor="start" x="213" y="-773.5" font-family="Helvetica,sans-Serif" font-size="10.00">beseenium.model.actionData.</text>
<text text-anchor="middle" x="285.5" y="-762.5" font-family="Helvetica,sans-Serif" font-size="10.00">ActionData</text>
<polyline fill="none" stroke="black" points="205,-755.5 366,-755.5 "/>
<text text-anchor="start" x="213" y="-743.5" font-family="Helvetica,sans-Serif" font-size="10.00">&#45; inputParam</text>
<polyline fill="none" stroke="black" points="205,-736.5 366,-736.5 "/>
<text text-anchor="start" x="213" y="-724.5" font-family="Helvetica,sans-Serif" font-size="10.00">+ ActionData()</text>
<text text-anchor="start" x="213" y="-713.5" font-family="Helvetica,sans-Serif" font-size="10.00">+ ActionData()</text>
<text text-anchor="start" x="213" y="-702.5" font-family="Helvetica,sans-Serif" font-size="10.00">+ getInputParam()</text>
<text text-anchor="start" x="213" y="-691.5" font-family="Helvetica,sans-Serif" font-size="10.00">+ getElement()</text>
<text text-anchor="start" x="213" y="-680.5" font-family="Helvetica,sans-Serif" font-size="10.00">+ getDriver()</text>
<text text-anchor="start" x="213" y="-669.5" font-family="Helvetica,sans-Serif" font-size="10.00">+ setElement()</text>
<text text-anchor="start" x="213" y="-658.5" font-family="Helvetica,sans-Serif" font-size="10.00">+ setInputParam()</text>
<text text-anchor="start" x="213" y="-647.5" font-family="Helvetica,sans-Serif" font-size="10.00">+ setDriver()</text>
</a>
</g>
</g>
<!-- Node7&#45;&gt;Node4 -->
<g id="edge6" class="edge"><title>Node7&#45;&gt;Node4</title>
<path fill="none" stroke="#404040" d="M366.328,-642.294C381.724,-630.909 398.151,-619.934 414.5,-611 431.056,-601.952 438.568,-602.295 458.866,-593.407"/>
<polygon fill="none" stroke="#404040" points="459.083,-593.306 462.823,-587.14 469.953,-588.221 466.213,-594.387 459.083,-593.306"/>
<text text-anchor="middle" x="460" y="-614" font-family="Helvetica,sans-Serif" font-size="10.00"> &#45;emptyActionData</text>
</g>
<!-- Node8 -->
<g id="node8" class="node"><title>Node8</title>
<polygon fill="white" stroke="#bfbfbf" points="227.5,-839 227.5,-896 343.5,-896 343.5,-839 227.5,-839"/>
<text text-anchor="middle" x="285.5" y="-884" font-family="Helvetica,sans-Serif" font-size="10.00">List&lt; WebElement &gt;</text>
<polyline fill="none" stroke="#bfbfbf" points="227.5,-877 343.5,-877 "/>
<text text-anchor="middle" x="285.5" y="-865" font-family="Helvetica,sans-Serif" font-size="10.00"> </text>
<polyline fill="none" stroke="#bfbfbf" points="227.5,-858 343.5,-858 "/>
<text text-anchor="middle" x="285.5" y="-846" font-family="Helvetica,sans-Serif" font-size="10.00"> </text>
</g>
<!-- Node8&#45;&gt;Node7 -->
<g id="edge7" class="edge"><title>Node8&#45;&gt;Node7</title>
<path fill="none" stroke="#404040" d="M285.5,-838.883C285.5,-827.031 285.5,-812.488 285.5,-797.568"/>
<polygon fill="none" stroke="#404040" points="285.5,-797.566 281.5,-791.566 285.5,-785.566 289.5,-791.566 285.5,-797.566"/>
<text text-anchor="middle" x="309" y="-807" font-family="Helvetica,sans-Serif" font-size="10.00"> &#45;element</text>
</g>
<!-- Node9 -->
<g id="node9" class="node"><title>Node9</title>
<polygon fill="white" stroke="#bfbfbf" points="455,-839 455,-896 520,-896 520,-839 455,-839"/>
<text text-anchor="middle" x="487.5" y="-884" font-family="Helvetica,sans-Serif" font-size="10.00">WebDriver</text>
<polyline fill="none" stroke="#bfbfbf" points="455,-877 520,-877 "/>
<text text-anchor="middle" x="487.5" y="-865" font-family="Helvetica,sans-Serif" font-size="10.00"> </text>
<polyline fill="none" stroke="#bfbfbf" points="455,-858 520,-858 "/>
<text text-anchor="middle" x="487.5" y="-846" font-family="Helvetica,sans-Serif" font-size="10.00"> </text>
</g>
<!-- Node9&#45;&gt;Node7 -->
<g id="edge8" class="edge"><title>Node9&#45;&gt;Node7</title>
<path fill="none" stroke="#404040" d="M454.973,-844.116C434.321,-829.732 406.906,-810.321 376.03,-787.08"/>
<polygon fill="none" stroke="#404040" points="375.908,-786.988 368.71,-786.557 366.34,-779.746 373.538,-780.178 375.908,-786.988"/>
<text text-anchor="middle" x="428.5" y="-807" font-family="Helvetica,sans-Serif" font-size="10.00"> &#45;driver</text>
</g>
<!-- Node12 -->
<g id="node12" class="node"><title>Node12</title>
<g id="a_node12"><a xlink:href="a00020.html" target="_top" xlink:title="This class acts as the invoker in a GOF command style pattern. ">
<polygon fill="white" stroke="black" points="732.5,-662.5 732.5,-763.5 902.5,-763.5 902.5,-662.5 732.5,-662.5"/>
<text text-anchor="middle" x="817.5" y="-751.5" font-family="Helvetica,sans-Serif" font-size="10.00">beseenium.model.ActionInvoker</text>
<polyline fill="none" stroke="black" points="732.5,-744.5 902.5,-744.5 "/>
<text text-anchor="middle" x="817.5" y="-732.5" font-family="Helvetica,sans-Serif" font-size="10.00"> </text>
<polyline fill="none" stroke="black" points="732.5,-725.5 902.5,-725.5 "/>
<text text-anchor="start" x="740.5" y="-713.5" font-family="Helvetica,sans-Serif" font-size="10.00">+ ActionInvoker()</text>
<text text-anchor="start" x="740.5" y="-702.5" font-family="Helvetica,sans-Serif" font-size="10.00">+ add()</text>
<text text-anchor="start" x="740.5" y="-691.5" font-family="Helvetica,sans-Serif" font-size="10.00">+ remove()</text>
<text text-anchor="start" x="740.5" y="-680.5" font-family="Helvetica,sans-Serif" font-size="10.00">+ execute()</text>
<text text-anchor="start" x="740.5" y="-669.5" font-family="Helvetica,sans-Serif" font-size="10.00">+ size()</text>
</a>
</g>
</g>
<!-- Node9&#45;&gt;Node12 -->
<g id="edge14" class="edge"><title>Node9&#45;&gt;Node12</title>
<path fill="none" stroke="#404040" d="M520.191,-854.293C537.726,-847.821 559.736,-839.821 579.5,-833 643.139,-811.035 663.928,-817.36 723.5,-786 732.035,-781.507 740.599,-776.242 748.895,-770.639"/>
<polygon fill="none" stroke="#404040" points="749.029,-770.546 751.652,-763.829 758.862,-763.667 756.238,-770.384 749.029,-770.546"/>
<text text-anchor="middle" x="697.5" y="-807" font-family="Helvetica,sans-Serif" font-size="10.00"> &#45;driver</text>
</g>
<!-- Node10 -->
<g id="node10" class="node"><title>Node10</title>
<polygon fill="white" stroke="#bfbfbf" points="553,-684.5 553,-741.5 588,-741.5 588,-684.5 553,-684.5"/>
<text text-anchor="middle" x="570.5" y="-729.5" font-family="Helvetica,sans-Serif" font-size="10.00">URL</text>
<polyline fill="none" stroke="#bfbfbf" points="553,-722.5 588,-722.5 "/>
<text text-anchor="middle" x="570.5" y="-710.5" font-family="Helvetica,sans-Serif" font-size="10.00"> </text>
<polyline fill="none" stroke="#bfbfbf" points="553,-703.5 588,-703.5 "/>
<text text-anchor="middle" x="570.5" y="-691.5" font-family="Helvetica,sans-Serif" font-size="10.00"> </text>
</g>
<!-- Node10&#45;&gt;Node4 -->
<g id="edge9" class="edge"><title>Node10&#45;&gt;Node4</title>
<path fill="none" stroke="#404040" d="M567.806,-684.35C565.727,-663.003 562.759,-632.538 560.065,-604.885"/>
<polygon fill="none" stroke="#404040" points="560.054,-604.775 555.491,-599.191 558.89,-592.832 563.453,-598.416 560.054,-604.775"/>
<text text-anchor="middle" x="573.5" y="-614" font-family="Helvetica,sans-Serif" font-size="10.00"> &#45;URL</text>
</g>
<!-- Node11 -->
<g id="node11" class="node"><title>Node11</title>
<polygon fill="white" stroke="#bfbfbf" points="606.5,-684.5 606.5,-741.5 714.5,-741.5 714.5,-684.5 606.5,-684.5"/>
<text text-anchor="middle" x="660.5" y="-729.5" font-family="Helvetica,sans-Serif" font-size="10.00">DesiredCapabilities</text>
<polyline fill="none" stroke="#bfbfbf" points="606.5,-722.5 714.5,-722.5 "/>
<text text-anchor="middle" x="660.5" y="-710.5" font-family="Helvetica,sans-Serif" font-size="10.00"> </text>
<polyline fill="none" stroke="#bfbfbf" points="606.5,-703.5 714.5,-703.5 "/>
<text text-anchor="middle" x="660.5" y="-691.5" font-family="Helvetica,sans-Serif" font-size="10.00"> </text>
</g>
<!-- Node11&#45;&gt;Node4 -->
<g id="edge10" class="edge"><title>Node11&#45;&gt;Node4</title>
<path fill="none" stroke="#404040" d="M643.546,-684.35C630.221,-662.62 611.104,-631.442 593.908,-603.4"/>
<polygon fill="none" stroke="#404040" points="593.701,-603.062 587.155,-600.038 587.428,-592.832 593.975,-595.856 593.701,-603.062"/>
<text text-anchor="middle" x="634" y="-614" font-family="Helvetica,sans-Serif" font-size="10.00"> &#45;capabilities</text>
</g>
<!-- Node12&#45;&gt;Node3 -->
<g id="edge11" class="edge"><title>Node12&#45;&gt;Node3</title>
<path fill="none" stroke="#404040" d="M809.039,-662.481C794.899,-588.73 761.789,-447.421 700.5,-342 692.899,-328.926 683.469,-316.126 673.461,-304.171"/>
<polygon fill="none" stroke="#404040" points="673.184,-303.851 666.234,-301.93 665.334,-294.775 672.285,-296.696 673.184,-303.851"/>
<text text-anchor="middle" x="775.5" y="-454" font-family="Helvetica,sans-Serif" font-size="10.00"> &#45;invoker</text>
</g>
<!-- Node13 -->
<g id="node13" class="node"><title>Node13</title>
<polygon fill="white" stroke="#bfbfbf" points="879.5,-839 879.5,-896 963.5,-896 963.5,-839 879.5,-839"/>
<text text-anchor="middle" x="921.5" y="-884" font-family="Helvetica,sans-Serif" font-size="10.00">List&lt; String &gt;</text>
<polyline fill="none" stroke="#bfbfbf" points="879.5,-877 963.5,-877 "/>
<text text-anchor="middle" x="921.5" y="-865" font-family="Helvetica,sans-Serif" font-size="10.00"> </text>
<polyline fill="none" stroke="#bfbfbf" points="879.5,-858 963.5,-858 "/>
<text text-anchor="middle" x="921.5" y="-846" font-family="Helvetica,sans-Serif" font-size="10.00"> </text>
</g>
<!-- Node13&#45;&gt;Node12 -->
<g id="edge12" class="edge"><title>Node13&#45;&gt;Node12</title>
<path fill="none" stroke="#404040" d="M910.56,-838.929C905.654,-827.743 899.412,-814.914 892.5,-804 885.902,-793.583 878.223,-783.052 870.345,-773.046"/>
<polygon fill="none" stroke="#404040" points="870.29,-772.978 863.41,-770.816 862.76,-763.634 869.639,-765.796 870.29,-772.978"/>
<text text-anchor="middle" x="931.5" y="-807" font-family="Helvetica,sans-Serif" font-size="10.00"> &#45;inputParams</text>
</g>
<!-- Node14 -->
<g id="node14" class="node"><title>Node14</title>
<polygon fill="white" stroke="#bfbfbf" points="588.5,-833.5 588.5,-901.5 754.5,-901.5 754.5,-833.5 588.5,-833.5"/>
<text text-anchor="start" x="596.5" y="-889.5" font-family="Helvetica,sans-Serif" font-size="10.00">List&lt; beseenium.model.action.</text>
<text text-anchor="middle" x="671.5" y="-878.5" font-family="Helvetica,sans-Serif" font-size="10.00">AbstractAction &gt;</text>
<polyline fill="none" stroke="#bfbfbf" points="588.5,-871.5 754.5,-871.5 "/>
<text text-anchor="middle" x="671.5" y="-859.5" font-family="Helvetica,sans-Serif" font-size="10.00"> </text>
<polyline fill="none" stroke="#bfbfbf" points="588.5,-852.5 754.5,-852.5 "/>
<text text-anchor="middle" x="671.5" y="-840.5" font-family="Helvetica,sans-Serif" font-size="10.00"> </text>
</g>
<!-- Node14&#45;&gt;Node12 -->
<g id="edge13" class="edge"><title>Node14&#45;&gt;Node12</title>
<path fill="none" stroke="#404040" d="M703.18,-833.41C720.278,-815.55 741.886,-792.98 761.701,-772.283"/>
<polygon fill="none" stroke="#404040" points="761.766,-772.215 763.026,-765.115 770.065,-763.547 768.805,-770.647 761.766,-772.215"/>
<text text-anchor="middle" x="747.5" y="-807" font-family="Helvetica,sans-Serif" font-size="10.00"> &#45;actions</text>
</g>
<!-- Node15 -->
<g id="node15" class="node"><title>Node15</title>
<polygon fill="white" stroke="#bfbfbf" points="773,-839 773,-896 862,-896 862,-839 773,-839"/>
<text text-anchor="middle" x="817.5" y="-884" font-family="Helvetica,sans-Serif" font-size="10.00">List&lt; Integer &gt;</text>
<polyline fill="none" stroke="#bfbfbf" points="773,-877 862,-877 "/>
<text text-anchor="middle" x="817.5" y="-865" font-family="Helvetica,sans-Serif" font-size="10.00"> </text>
<polyline fill="none" stroke="#bfbfbf" points="773,-858 862,-858 "/>
<text text-anchor="middle" x="817.5" y="-846" font-family="Helvetica,sans-Serif" font-size="10.00"> </text>
</g>
<!-- Node15&#45;&gt;Node12 -->
<g id="edge15" class="edge"><title>Node15&#45;&gt;Node12</title>
<path fill="none" stroke="#404040" d="M817.5,-838.883C817.5,-821.294 817.5,-797.78 817.5,-775.901"/>
<polygon fill="none" stroke="#404040" points="817.5,-775.614 813.5,-769.614 817.5,-763.614 821.5,-769.614 817.5,-775.614"/>
<text text-anchor="middle" x="853" y="-807" font-family="Helvetica,sans-Serif" font-size="10.00"> &#45;optionalIndex</text>
</g>
<!-- Node16&#45;&gt;Node3 -->
<g id="edge16" class="edge"><title>Node16&#45;&gt;Node3</title>
<path fill="none" stroke="#404040" d="M500.146,-342.473C503.873,-332.336 508.605,-321.921 514.5,-313 516.438,-310.066 518.509,-307.168 520.685,-304.312"/>
<polygon fill="none" stroke="#404040" points="520.868,-304.088 521.558,-296.91 528.449,-294.786 527.759,-301.964 520.868,-304.088"/>
<text text-anchor="middle" x="551.5" y="-316" font-family="Helvetica,sans-Serif" font-size="10.00"> &#45;actionFactory</text>
</g>
<!-- Node17 -->
<g id="node17" class="node"><title>Node17</title>
<polygon fill="white" stroke="#bfbfbf" points="265,-502.5 265,-570.5 452,-570.5 452,-502.5 265,-502.5"/>
<text text-anchor="start" x="273" y="-558.5" font-family="Helvetica,sans-Serif" font-size="10.00">Map&lt; String, beseenium.controller.</text>
<text text-anchor="middle" x="358.5" y="-547.5" font-family="Helvetica,sans-Serif" font-size="10.00">ActionFactory.MakeAction &gt;</text>
<polyline fill="none" stroke="#bfbfbf" points="265,-540.5 452,-540.5 "/>
<text text-anchor="middle" x="358.5" y="-528.5" font-family="Helvetica,sans-Serif" font-size="10.00"> </text>
<polyline fill="none" stroke="#bfbfbf" points="265,-521.5 452,-521.5 "/>
<text text-anchor="middle" x="358.5" y="-509.5" font-family="Helvetica,sans-Serif" font-size="10.00"> </text>
</g>
<!-- Node17&#45;&gt;Node16 -->
<g id="edge18" class="edge"><title>Node17&#45;&gt;Node16</title>
<path fill="none" stroke="#404040" d="M385.209,-502.121C398.038,-486.386 413.79,-467.49 428.5,-451 431.288,-447.875 434.179,-444.69 437.118,-441.495"/>
<polygon fill="none" stroke="#404040" points="437.307,-441.293 438.466,-434.176 445.482,-432.509 444.322,-439.626 437.307,-441.293"/>
<text text-anchor="middle" x="457" y="-454" font-family="Helvetica,sans-Serif" font-size="10.00"> &#45;actionMap</text>
</g>
</g>
</svg>
