<?xml version="1.0" encoding="UTF-8" standalone="no"?>
<!DOCTYPE svg PUBLIC "-//W3C//DTD SVG 1.1//EN"
 "http://www.w3.org/Graphics/SVG/1.1/DTD/svg11.dtd">
<!-- Generated by graphviz version 2.38.0 (20140413.2041)
 -->
<!-- Title: beseenium.view.outputFormatters.JsonFormatter Pages: 1 -->
<svg width="192pt" height="259pt"
 viewBox="0.00 0.00 192.00 259.00" xmlns="http://www.w3.org/2000/svg" xmlns:xlink="http://www.w3.org/1999/xlink">
<g id="graph0" class="graph" transform="scale(1 1) rotate(0) translate(4 255)">
<title>beseenium.view.outputFormatters.JsonFormatter</title>
<polygon fill="white" stroke="none" points="-4,4 -4,-255 188,-255 188,4 -4,4"/>
<!-- Node1 -->
<g id="node1" class="node"><title>Node1</title>
<polygon fill="#bfbfbf" stroke="black" points="0,-0.5 0,-112.5 184,-112.5 184,-0.5 0,-0.5"/>
<text text-anchor="start" x="8" y="-100.5" font-family="Helvetica,sans-Serif" font-size="10.00">beseenium.view.outputFormatters.</text>
<text text-anchor="middle" x="92" y="-89.5" font-family="Helvetica,sans-Serif" font-size="10.00">JsonFormatter</text>
<polyline fill="none" stroke="black" points="0,-82.5 184,-82.5 "/>
<text text-anchor="middle" x="92" y="-70.5" font-family="Helvetica,sans-Serif" font-size="10.00"> </text>
<polyline fill="none" stroke="black" points="0,-63.5 184,-63.5 "/>
<text text-anchor="start" x="8" y="-51.5" font-family="Helvetica,sans-Serif" font-size="10.00">+ JsonFormatter()</text>
<text text-anchor="start" x="8" y="-40.5" font-family="Helvetica,sans-Serif" font-size="10.00">+ finalForm()</text>
<text text-anchor="start" x="8" y="-29.5" font-family="Helvetica,sans-Serif" font-size="10.00">+ asKVsuperSet()</text>
<text text-anchor="start" x="8" y="-18.5" font-family="Helvetica,sans-Serif" font-size="10.00">+ asKVset()</text>
<text text-anchor="start" x="8" y="-7.5" font-family="Helvetica,sans-Serif" font-size="10.00">+ asKeyVal()</text>
</g>
<!-- Node2 -->
<g id="node2" class="node"><title>Node2</title>
<g id="a_node2"><a xlink:href="a00011.html" target="_top" xlink:title="Interface that all output formatter classes should subscribe to, allowing the servlet to request an a...">
<polygon fill="white" stroke="black" points="0,-149.5 0,-250.5 184,-250.5 184,-149.5 0,-149.5"/>
<text text-anchor="start" x="8" y="-238.5" font-family="Helvetica,sans-Serif" font-size="10.00">beseenium.view.outputFormatters.</text>
<text text-anchor="middle" x="92" y="-227.5" font-family="Helvetica,sans-Serif" font-size="10.00">AbstractOutputFormatter</text>
<polyline fill="none" stroke="black" points="0,-220.5 184,-220.5 "/>
<text text-anchor="middle" x="92" y="-208.5" font-family="Helvetica,sans-Serif" font-size="10.00"> </text>
<polyline fill="none" stroke="black" points="0,-201.5 184,-201.5 "/>
<text text-anchor="start" x="8" y="-189.5" font-family="Helvetica,sans-Serif" font-size="10.00">+ asKeyVal()</text>
<text text-anchor="start" x="8" y="-178.5" font-family="Helvetica,sans-Serif" font-size="10.00">+ asKVset()</text>
<text text-anchor="start" x="8" y="-167.5" font-family="Helvetica,sans-Serif" font-size="10.00">+ asKVsuperSet()</text>
<text text-anchor="start" x="8" y="-156.5" font-family="Helvetica,sans-Serif" font-size="10.00">+ finalForm()</text>
</a>
</g>
</g>
<!-- Node2&#45;&gt;Node1 -->
<g id="edge1" class="edge"><title>Node2&#45;&gt;Node1</title>
<path fill="none" stroke="midnightblue" d="M92,-139.008C92,-130.286 92,-121.34 92,-112.717"/>
<polygon fill="none" stroke="midnightblue" points="88.5001,-139.112 92,-149.112 95.5001,-139.112 88.5001,-139.112"/>
</g>
</g>
</svg>
