<?xml version="1.0" encoding="UTF-8" standalone="no"?>
<!DOCTYPE svg PUBLIC "-//W3C//DTD SVG 1.1//EN"
 "http://www.w3.org/Graphics/SVG/1.1/DTD/svg11.dtd">
<!-- Generated by graphviz version 2.38.0 (20140413.2041)
 -->
<!-- Title: beseenium.view.outputHandlers.requestHandlers.capabilitiesHandlers.MalformedURLHandler Pages: 1 -->
<svg width="388pt" height="226pt"
 viewBox="0.00 0.00 388.00 226.00" xmlns="http://www.w3.org/2000/svg" xmlns:xlink="http://www.w3.org/1999/xlink">
<g id="graph0" class="graph" transform="scale(1 1) rotate(0) translate(4 222)">
<title>beseenium.view.outputHandlers.requestHandlers.capabilitiesHandlers.MalformedURLHandler</title>
<polygon fill="white" stroke="none" points="-4,4 -4,-222 384,-222 384,4 -4,4"/>
<!-- Node1 -->
<g id="node1" class="node"><title>Node1</title>
<polygon fill="#bfbfbf" stroke="black" points="168,-0.5 168,-90.5 380,-90.5 380,-0.5 168,-0.5"/>
<text text-anchor="start" x="176" y="-78.5" font-family="Helvetica,sans-Serif" font-size="10.00">beseenium.view.outputHandlers.request</text>
<text text-anchor="start" x="176" y="-67.5" font-family="Helvetica,sans-Serif" font-size="10.00">Handlers.capabilitiesHandlers.Malformed</text>
<text text-anchor="middle" x="274" y="-56.5" font-family="Helvetica,sans-Serif" font-size="10.00">URLHandler</text>
<polyline fill="none" stroke="black" points="168,-49.5 380,-49.5 "/>
<text text-anchor="middle" x="274" y="-37.5" font-family="Helvetica,sans-Serif" font-size="10.00"> </text>
<polyline fill="none" stroke="black" points="168,-30.5 380,-30.5 "/>
<text text-anchor="start" x="176" y="-18.5" font-family="Helvetica,sans-Serif" font-size="10.00">+ MalformedURLHandler()</text>
<text text-anchor="start" x="176" y="-7.5" font-family="Helvetica,sans-Serif" font-size="10.00">+ handleRequest()</text>
</g>
<!-- Node2 -->
<g id="node2" class="node"><title>Node2</title>
<g id="a_node2"><a xlink:href="a00012.html" target="_top" xlink:title="abstract base for a chain of responsibility that takes abstractTestRequests and uses them to generate...">
<polygon fill="white" stroke="black" points="0,-138.5 0,-217.5 210,-217.5 210,-138.5 0,-138.5"/>
<text text-anchor="start" x="8" y="-205.5" font-family="Helvetica,sans-Serif" font-size="10.00">beseenium.view.outputHandlers.request</text>
<text text-anchor="middle" x="105" y="-194.5" font-family="Helvetica,sans-Serif" font-size="10.00">Handlers.AbstractRequestHandler</text>
<polyline fill="none" stroke="black" points="0,-187.5 210,-187.5 "/>
<text text-anchor="middle" x="105" y="-175.5" font-family="Helvetica,sans-Serif" font-size="10.00"> </text>
<polyline fill="none" stroke="black" points="0,-168.5 210,-168.5 "/>
<text text-anchor="start" x="8" y="-156.5" font-family="Helvetica,sans-Serif" font-size="10.00">+ setSuccessor()</text>
<text text-anchor="start" x="8" y="-145.5" font-family="Helvetica,sans-Serif" font-size="10.00">+ handleRequest()</text>
</a>
</g>
</g>
<!-- Node2&#45;&gt;Node1 -->
<g id="edge1" class="edge"><title>Node2&#45;&gt;Node1</title>
<path fill="none" stroke="midnightblue" d="M163.573,-131.77C180.823,-118.45 199.669,-103.898 216.829,-90.6465"/>
<polygon fill="none" stroke="midnightblue" points="161.024,-129.317 155.248,-138.199 165.302,-134.857 161.024,-129.317"/>
</g>
<!-- Node2&#45;&gt;Node2 -->
<g id="edge2" class="edge"><title>Node2&#45;&gt;Node2</title>
<path fill="none" stroke="#404040" d="M210.416,-187.556C221.148,-185.666 228,-182.48 228,-178 228,-175.48 225.832,-173.369 222.025,-171.669"/>
<polygon fill="none" stroke="#404040" points="221.978,-171.656 215.126,-173.904 210.416,-168.444 217.267,-166.196 221.978,-171.656"/>
<text text-anchor="middle" x="258" y="-175.5" font-family="Helvetica,sans-Serif" font-size="10.00"> #successor</text>
</g>
<!-- Node3 -->
<g id="node3" class="node"><title>Node3</title>
<polygon fill="white" stroke="#bfbfbf" points="306,-149.5 306,-206.5 356,-206.5 356,-149.5 306,-149.5"/>
<text text-anchor="middle" x="331" y="-194.5" font-family="Helvetica,sans-Serif" font-size="10.00">Logger</text>
<polyline fill="none" stroke="#bfbfbf" points="306,-187.5 356,-187.5 "/>
<text text-anchor="middle" x="331" y="-175.5" font-family="Helvetica,sans-Serif" font-size="10.00"> </text>
<polyline fill="none" stroke="#bfbfbf" points="306,-168.5 356,-168.5 "/>
<text text-anchor="middle" x="331" y="-156.5" font-family="Helvetica,sans-Serif" font-size="10.00"> </text>
</g>
<!-- Node3&#45;&gt;Node1 -->
<g id="edge3" class="edge"><title>Node3&#45;&gt;Node1</title>
<path fill="none" stroke="#404040" d="M318.912,-149.324C312.858,-135.464 305.305,-118.173 298.131,-101.748"/>
<polygon fill="none" stroke="#404040" points="298.051,-101.564 291.984,-97.6671 293.248,-90.5676 299.315,-94.4649 298.051,-101.564"/>
<text text-anchor="middle" x="323.5" y="-112" font-family="Helvetica,sans-Serif" font-size="10.00"> &#45;logger</text>
</g>
</g>
</svg>
