<?xml version="1.0" encoding="UTF-8" standalone="no"?>
<!DOCTYPE svg PUBLIC "-//W3C//DTD SVG 1.1//EN"
 "http://www.w3.org/Graphics/SVG/1.1/DTD/svg11.dtd">
<!-- Generated by graphviz version 2.38.0 (20140413.2041)
 -->
<!-- Title: beseenium.view.outputHandlers.requestHandlers.addActionHandlers.RootAddActionsHandler Pages: 1 -->
<svg width="307pt" height="205pt"
 viewBox="0.00 0.00 307.00 205.00" xmlns="http://www.w3.org/2000/svg" xmlns:xlink="http://www.w3.org/1999/xlink">
<g id="graph0" class="graph" transform="scale(1 1) rotate(0) translate(4 201)">
<title>beseenium.view.outputHandlers.requestHandlers.addActionHandlers.RootAddActionsHandler</title>
<polygon fill="white" stroke="none" points="-4,4 -4,-201 303,-201 303,4 -4,4"/>
<!-- Node1 -->
<g id="node1" class="node"><title>Node1</title>
<polygon fill="#bfbfbf" stroke="black" points="-1.42109e-14,-0.5 -1.42109e-14,-79.5 232,-79.5 232,-0.5 -1.42109e-14,-0.5"/>
<text text-anchor="start" x="8" y="-67.5" font-family="Helvetica,sans-Serif" font-size="10.00">beseenium.view.outputHandlers.request</text>
<text text-anchor="start" x="8" y="-56.5" font-family="Helvetica,sans-Serif" font-size="10.00">Handlers.addActionHandlers.RootAddActions</text>
<text text-anchor="middle" x="116" y="-45.5" font-family="Helvetica,sans-Serif" font-size="10.00">Handler</text>
<polyline fill="none" stroke="black" points="-1.42109e-14,-38.5 232,-38.5 "/>
<text text-anchor="middle" x="116" y="-26.5" font-family="Helvetica,sans-Serif" font-size="10.00"> </text>
<polyline fill="none" stroke="black" points="-1.42109e-14,-19.5 232,-19.5 "/>
<text text-anchor="start" x="8" y="-7.5" font-family="Helvetica,sans-Serif" font-size="10.00">+ handleRequest()</text>
</g>
<!-- Node2 -->
<g id="node2" class="node"><title>Node2</title>
<g id="a_node2"><a xlink:href="a00012.html" target="_top" xlink:title="abstract base for a chain of responsibility that takes abstractTestRequests and uses them to generate...">
<polygon fill="white" stroke="black" points="11,-117.5 11,-196.5 221,-196.5 221,-117.5 11,-117.5"/>
<text text-anchor="start" x="19" y="-184.5" font-family="Helvetica,sans-Serif" font-size="10.00">beseenium.view.outputHandlers.request</text>
<text text-anchor="middle" x="116" y="-173.5" font-family="Helvetica,sans-Serif" font-size="10.00">Handlers.AbstractRequestHandler</text>
<polyline fill="none" stroke="black" points="11,-166.5 221,-166.5 "/>
<text text-anchor="middle" x="116" y="-154.5" font-family="Helvetica,sans-Serif" font-size="10.00"> </text>
<polyline fill="none" stroke="black" points="11,-147.5 221,-147.5 "/>
<text text-anchor="start" x="19" y="-135.5" font-family="Helvetica,sans-Serif" font-size="10.00">+ setSuccessor()</text>
<text text-anchor="start" x="19" y="-124.5" font-family="Helvetica,sans-Serif" font-size="10.00">+ handleRequest()</text>
</a>
</g>
</g>
<!-- Node2&#45;&gt;Node1 -->
<g id="edge1" class="edge"><title>Node2&#45;&gt;Node1</title>
<path fill="none" stroke="midnightblue" d="M116,-107.199C116,-98.016 116,-88.5299 116,-79.7071"/>
<polygon fill="none" stroke="midnightblue" points="112.5,-107.387 116,-117.387 119.5,-107.387 112.5,-107.387"/>
</g>
<!-- Node2&#45;&gt;Node2 -->
<g id="edge2" class="edge"><title>Node2&#45;&gt;Node2</title>
<path fill="none" stroke="#404040" d="M221.416,-165.939C232.148,-164.171 239,-161.191 239,-157 239,-154.708 236.951,-152.778 233.338,-151.211"/>
<polygon fill="none" stroke="#404040" points="233.018,-151.126 226.195,-153.46 221.416,-148.061 228.239,-145.726 233.018,-151.126"/>
<text text-anchor="middle" x="269" y="-154.5" font-family="Helvetica,sans-Serif" font-size="10.00"> #successor</text>
</g>
</g>
</svg>
