<?xml version="1.0" encoding="UTF-8" standalone="no"?>
<!DOCTYPE svg PUBLIC "-//W3C//DTD SVG 1.1//EN"
 "http://www.w3.org/Graphics/SVG/1.1/DTD/svg11.dtd">
<!-- Generated by graphviz version 2.38.0 (20140413.2041)
 -->
<!-- Title: beseenium.view.outputHandlers.requestHandlers.AbstractRequestHandler Pages: 1 -->
<svg width="296pt" height="88pt"
 viewBox="0.00 0.00 296.00 88.00" xmlns="http://www.w3.org/2000/svg" xmlns:xlink="http://www.w3.org/1999/xlink">
<g id="graph0" class="graph" transform="scale(1 1) rotate(0) translate(4 84)">
<title>beseenium.view.outputHandlers.requestHandlers.AbstractRequestHandler</title>
<polygon fill="white" stroke="none" points="-4,4 -4,-84 292,-84 292,4 -4,4"/>
<!-- Node1 -->
<g id="node1" class="node"><title>Node1</title>
<polygon fill="#bfbfbf" stroke="black" points="0,-0.5 0,-79.5 210,-79.5 210,-0.5 0,-0.5"/>
<text text-anchor="start" x="8" y="-67.5" font-family="Helvetica,sans-Serif" font-size="10.00">beseenium.view.outputHandlers.request</text>
<text text-anchor="middle" x="105" y="-56.5" font-family="Helvetica,sans-Serif" font-size="10.00">Handlers.AbstractRequestHandler</text>
<polyline fill="none" stroke="black" points="0,-49.5 210,-49.5 "/>
<text text-anchor="middle" x="105" y="-37.5" font-family="Helvetica,sans-Serif" font-size="10.00"> </text>
<polyline fill="none" stroke="black" points="0,-30.5 210,-30.5 "/>
<text text-anchor="start" x="8" y="-18.5" font-family="Helvetica,sans-Serif" font-size="10.00">+ setSuccessor()</text>
<text text-anchor="start" x="8" y="-7.5" font-family="Helvetica,sans-Serif" font-size="10.00">+ handleRequest()</text>
</g>
<!-- Node1&#45;&gt;Node1 -->
<g id="edge1" class="edge"><title>Node1&#45;&gt;Node1</title>
<path fill="none" stroke="#404040" d="M210.416,-52.3303C221.148,-49.8914 228,-45.7812 228,-40 228,-36.748 225.832,-34.0249 222.025,-31.8304"/>
<polygon fill="none" stroke="#404040" points="221.712,-31.7184 214.714,-33.4595 210.416,-27.6697 217.414,-25.9286 221.712,-31.7184"/>
<text text-anchor="middle" x="258" y="-37.5" font-family="Helvetica,sans-Serif" font-size="10.00"> #successor</text>
</g>
</g>
</svg>
