<?xml version="1.0" encoding="UTF-8" standalone="no"?>
<!DOCTYPE svg PUBLIC "-//W3C//DTD SVG 1.1//EN"
 "http://www.w3.org/Graphics/SVG/1.1/DTD/svg11.dtd">
<!-- Generated by graphviz version 2.38.0 (20140413.2041)
 -->
<!-- Title: beseenium.view.outputHandlers.compositors.AbstractCompositor Pages: 1 -->
<svg width="1260pt" height="237pt"
 viewBox="0.00 0.00 1260.00 237.00" xmlns="http://www.w3.org/2000/svg" xmlns:xlink="http://www.w3.org/1999/xlink">
<g id="graph0" class="graph" transform="scale(1 1) rotate(0) translate(4 233)">
<title>beseenium.view.outputHandlers.compositors.AbstractCompositor</title>
<polygon fill="white" stroke="none" points="-4,4 -4,-233 1256,-233 1256,4 -4,4"/>
<!-- Node1 -->
<g id="node1" class="node"><title>Node1</title>
<polygon fill="#bfbfbf" stroke="black" points="508,-149.5 508,-228.5 744,-228.5 744,-149.5 508,-149.5"/>
<text text-anchor="start" x="516" y="-216.5" font-family="Helvetica,sans-Serif" font-size="10.00">beseenium.view.outputHandlers.compositors.</text>
<text text-anchor="middle" x="626" y="-205.5" font-family="Helvetica,sans-Serif" font-size="10.00">AbstractCompositor</text>
<polyline fill="none" stroke="black" points="508,-198.5 744,-198.5 "/>
<text text-anchor="start" x="516" y="-186.5" font-family="Helvetica,sans-Serif" font-size="10.00"># formatter</text>
<polyline fill="none" stroke="black" points="508,-179.5 744,-179.5 "/>
<text text-anchor="start" x="516" y="-167.5" font-family="Helvetica,sans-Serif" font-size="10.00">~ composite()</text>
<text text-anchor="start" x="516" y="-156.5" font-family="Helvetica,sans-Serif" font-size="10.00"># AbstractCompositor()</text>
</g>
<!-- Node2 -->
<g id="node2" class="node"><title>Node2</title>
<g id="a_node2"><a xlink:href="a00025.html" target="_top" xlink:title="{beseenium.view.outputHandlers.compositors.\lAddActionCompositor\n||+ composite()\l# AddActionCompositor()\l&#45; format()\l&#45; finalFormat()\l&#45; containsError()\l}">
<polygon fill="white" stroke="black" points="0,-0.5 0,-112.5 236,-112.5 236,-0.5 0,-0.5"/>
<text text-anchor="start" x="8" y="-100.5" font-family="Helvetica,sans-Serif" font-size="10.00">beseenium.view.outputHandlers.compositors.</text>
<text text-anchor="middle" x="118" y="-89.5" font-family="Helvetica,sans-Serif" font-size="10.00">AddActionCompositor</text>
<polyline fill="none" stroke="black" points="0,-82.5 236,-82.5 "/>
<text text-anchor="middle" x="118" y="-70.5" font-family="Helvetica,sans-Serif" font-size="10.00"> </text>
<polyline fill="none" stroke="black" points="0,-63.5 236,-63.5 "/>
<text text-anchor="start" x="8" y="-51.5" font-family="Helvetica,sans-Serif" font-size="10.00">+ composite()</text>
<text text-anchor="start" x="8" y="-40.5" font-family="Helvetica,sans-Serif" font-size="10.00"># AddActionCompositor()</text>
<text text-anchor="start" x="8" y="-29.5" font-family="Helvetica,sans-Serif" font-size="10.00">&#45; format()</text>
<text text-anchor="start" x="8" y="-18.5" font-family="Helvetica,sans-Serif" font-size="10.00">&#45; finalFormat()</text>
<text text-anchor="start" x="8" y="-7.5" font-family="Helvetica,sans-Serif" font-size="10.00">&#45; containsError()</text>
</a>
</g>
</g>
<!-- Node1&#45;&gt;Node2 -->
<g id="edge1" class="edge"><title>Node1&#45;&gt;Node2</title>
<path fill="none" stroke="midnightblue" d="M497.69,-169.892C422.966,-157.584 327.512,-138.812 245,-113 242.129,-112.102 239.236,-111.159 236.33,-110.179"/>
<polygon fill="none" stroke="midnightblue" points="497.194,-173.357 507.627,-171.511 498.32,-166.448 497.194,-173.357"/>
</g>
<!-- Node3 -->
<g id="node3" class="node"><title>Node3</title>
<g id="a_node3"><a xlink:href="a00034.html" target="_top" xlink:title="Copyright(C) 2015 Jan P.C. ">
<polygon fill="white" stroke="black" points="254,-17 254,-96 490,-96 490,-17 254,-17"/>
<text text-anchor="start" x="262" y="-84" font-family="Helvetica,sans-Serif" font-size="10.00">beseenium.view.outputHandlers.compositors.</text>
<text text-anchor="middle" x="372" y="-73" font-family="Helvetica,sans-Serif" font-size="10.00">BrowserCompositor</text>
<polyline fill="none" stroke="black" points="254,-66 490,-66 "/>
<text text-anchor="middle" x="372" y="-54" font-family="Helvetica,sans-Serif" font-size="10.00"> </text>
<polyline fill="none" stroke="black" points="254,-47 490,-47 "/>
<text text-anchor="start" x="262" y="-35" font-family="Helvetica,sans-Serif" font-size="10.00">~ composite()</text>
<text text-anchor="start" x="262" y="-24" font-family="Helvetica,sans-Serif" font-size="10.00"># BrowserCompositor()</text>
</a>
</g>
</g>
<!-- Node1&#45;&gt;Node3 -->
<g id="edge2" class="edge"><title>Node1&#45;&gt;Node3</title>
<path fill="none" stroke="midnightblue" d="M541.864,-144.773C511.213,-129.025 476.789,-111.338 446.985,-96.0255"/>
<polygon fill="none" stroke="midnightblue" points="540.328,-147.919 550.823,-149.375 543.527,-141.692 540.328,-147.919"/>
</g>
<!-- Node4 -->
<g id="node4" class="node"><title>Node4</title>
<g id="a_node4"><a xlink:href="a00037.html" target="_top" xlink:title="Copyright(C) 2015 Jan P.C. ">
<polygon fill="white" stroke="black" points="508,-6 508,-107 744,-107 744,-6 508,-6"/>
<text text-anchor="start" x="516" y="-95" font-family="Helvetica,sans-Serif" font-size="10.00">beseenium.view.outputHandlers.compositors.</text>
<text text-anchor="middle" x="626" y="-84" font-family="Helvetica,sans-Serif" font-size="10.00">CapabilitiesCompositor</text>
<polyline fill="none" stroke="black" points="508,-77 744,-77 "/>
<text text-anchor="middle" x="626" y="-65" font-family="Helvetica,sans-Serif" font-size="10.00"> </text>
<polyline fill="none" stroke="black" points="508,-58 744,-58 "/>
<text text-anchor="start" x="516" y="-46" font-family="Helvetica,sans-Serif" font-size="10.00">+ CapabilitiesCompositor()</text>
<text text-anchor="start" x="516" y="-35" font-family="Helvetica,sans-Serif" font-size="10.00">+ composite()</text>
<text text-anchor="start" x="516" y="-24" font-family="Helvetica,sans-Serif" font-size="10.00">&#45; format()</text>
<text text-anchor="start" x="516" y="-13" font-family="Helvetica,sans-Serif" font-size="10.00">&#45; finalFormat()</text>
</a>
</g>
</g>
<!-- Node1&#45;&gt;Node4 -->
<g id="edge3" class="edge"><title>Node1&#45;&gt;Node4</title>
<path fill="none" stroke="midnightblue" d="M626,-138.998C626,-128.555 626,-117.52 626,-107.057"/>
<polygon fill="none" stroke="midnightblue" points="622.5,-139.199 626,-149.199 629.5,-139.199 622.5,-139.199"/>
</g>
<!-- Node5 -->
<g id="node5" class="node"><title>Node5</title>
<g id="a_node5"><a xlink:href="a00046.html" target="_top" xlink:title="Copyright(C) 2015 Jan P.C. ">
<polygon fill="white" stroke="black" points="762,-6 762,-107 998,-107 998,-6 762,-6"/>
<text text-anchor="start" x="770" y="-95" font-family="Helvetica,sans-Serif" font-size="10.00">beseenium.view.outputHandlers.compositors.</text>
<text text-anchor="middle" x="880" y="-84" font-family="Helvetica,sans-Serif" font-size="10.00">ExecuteCompositor</text>
<polyline fill="none" stroke="black" points="762,-77 998,-77 "/>
<text text-anchor="middle" x="880" y="-65" font-family="Helvetica,sans-Serif" font-size="10.00"> </text>
<polyline fill="none" stroke="black" points="762,-58 998,-58 "/>
<text text-anchor="start" x="770" y="-46" font-family="Helvetica,sans-Serif" font-size="10.00">+ ExecuteCompositor()</text>
<text text-anchor="start" x="770" y="-35" font-family="Helvetica,sans-Serif" font-size="10.00">+ composite()</text>
<text text-anchor="start" x="770" y="-24" font-family="Helvetica,sans-Serif" font-size="10.00">&#45; format()</text>
<text text-anchor="start" x="770" y="-13" font-family="Helvetica,sans-Serif" font-size="10.00">&#45; finalFormat()</text>
</a>
</g>
</g>
<!-- Node1&#45;&gt;Node5 -->
<g id="edge4" class="edge"><title>Node1&#45;&gt;Node5</title>
<path fill="none" stroke="midnightblue" d="M710.361,-144.657C733.735,-132.648 759.288,-119.519 783.306,-107.18"/>
<polygon fill="none" stroke="midnightblue" points="708.473,-141.692 701.177,-149.375 711.672,-147.919 708.473,-141.692"/>
</g>
<!-- Node6 -->
<g id="node6" class="node"><title>Node6</title>
<g id="a_node6"><a xlink:href="a00122.html" target="_top" xlink:title="Copyright(C) 2015 Jan P.C. ">
<polygon fill="white" stroke="black" points="1016,-17 1016,-96 1252,-96 1252,-17 1016,-17"/>
<text text-anchor="start" x="1024" y="-84" font-family="Helvetica,sans-Serif" font-size="10.00">beseenium.view.outputHandlers.compositors.</text>
<text text-anchor="middle" x="1134" y="-73" font-family="Helvetica,sans-Serif" font-size="10.00">RootCompositor</text>
<polyline fill="none" stroke="black" points="1016,-66 1252,-66 "/>
<text text-anchor="start" x="1024" y="-54" font-family="Helvetica,sans-Serif" font-size="10.00">&#45; compositorMap</text>
<polyline fill="none" stroke="black" points="1016,-47 1252,-47 "/>
<text text-anchor="start" x="1024" y="-35" font-family="Helvetica,sans-Serif" font-size="10.00">+ RootCompositor()</text>
<text text-anchor="start" x="1024" y="-24" font-family="Helvetica,sans-Serif" font-size="10.00">+ composite()</text>
</a>
</g>
</g>
<!-- Node1&#45;&gt;Node6 -->
<g id="edge5" class="edge"><title>Node1&#45;&gt;Node6</title>
<path fill="none" stroke="midnightblue" d="M754.31,-169.892C829.034,-157.584 924.488,-138.812 1007,-113 1022.16,-108.259 1037.94,-102.273 1053.02,-96"/>
<polygon fill="none" stroke="midnightblue" points="753.68,-166.448 744.373,-171.511 754.806,-173.357 753.68,-166.448"/>
</g>
</g>
</svg>
