<?xml version="1.0" encoding="UTF-8" standalone="no"?>
<!DOCTYPE svg PUBLIC "-//W3C//DTD SVG 1.1//EN"
 "http://www.w3.org/Graphics/SVG/1.1/DTD/svg11.dtd">
<!-- Generated by graphviz version 2.38.0 (20140413.2041)
 -->
<!-- Title: beseenium.view.outputFormatters.AbstractCompositor Pages: 1 -->
<svg width="1000pt" height="204pt"
 viewBox="0.00 0.00 1000.00 204.00" xmlns="http://www.w3.org/2000/svg" xmlns:xlink="http://www.w3.org/1999/xlink">
<g id="graph0" class="graph" transform="scale(1 1) rotate(0) translate(4 200)">
<title>beseenium.view.outputFormatters.AbstractCompositor</title>
<polygon fill="white" stroke="none" points="-4,4 -4,-200 996,-200 996,4 -4,4"/>
<!-- Node1 -->
<g id="node1" class="node"><title>Node1</title>
<polygon fill="#bfbfbf" stroke="black" points="404,-116.5 404,-195.5 588,-195.5 588,-116.5 404,-116.5"/>
<text text-anchor="start" x="412" y="-183.5" font-family="Helvetica,sans-Serif" font-size="10.00">beseenium.view.outputFormatters.</text>
<text text-anchor="middle" x="496" y="-172.5" font-family="Helvetica,sans-Serif" font-size="10.00">AbstractCompositor</text>
<polyline fill="none" stroke="black" points="404,-165.5 588,-165.5 "/>
<text text-anchor="start" x="412" y="-153.5" font-family="Helvetica,sans-Serif" font-size="10.00"># formatter</text>
<polyline fill="none" stroke="black" points="404,-146.5 588,-146.5 "/>
<text text-anchor="start" x="412" y="-134.5" font-family="Helvetica,sans-Serif" font-size="10.00">~ composite()</text>
<text text-anchor="start" x="412" y="-123.5" font-family="Helvetica,sans-Serif" font-size="10.00"># AbstractCompositor()</text>
</g>
<!-- Node2 -->
<g id="node2" class="node"><title>Node2</title>
<g id="a_node2"><a xlink:href="a00025.html" target="_top" xlink:title="Copyright(C) 2015 Jan P.C. ">
<polygon fill="white" stroke="black" points="0,-0.5 0,-79.5 184,-79.5 184,-0.5 0,-0.5"/>
<text text-anchor="start" x="8" y="-67.5" font-family="Helvetica,sans-Serif" font-size="10.00">beseenium.view.outputFormatters.</text>
<text text-anchor="middle" x="92" y="-56.5" font-family="Helvetica,sans-Serif" font-size="10.00">AddActionCompositor</text>
<polyline fill="none" stroke="black" points="0,-49.5 184,-49.5 "/>
<text text-anchor="middle" x="92" y="-37.5" font-family="Helvetica,sans-Serif" font-size="10.00"> </text>
<polyline fill="none" stroke="black" points="0,-30.5 184,-30.5 "/>
<text text-anchor="start" x="8" y="-18.5" font-family="Helvetica,sans-Serif" font-size="10.00">~ composite()</text>
<text text-anchor="start" x="8" y="-7.5" font-family="Helvetica,sans-Serif" font-size="10.00"># AddActionCompositor()</text>
</a>
</g>
</g>
<!-- Node1&#45;&gt;Node2 -->
<g id="edge1" class="edge"><title>Node1&#45;&gt;Node2</title>
<path fill="none" stroke="midnightblue" d="M393.582,-133.029C334.449,-119.506 258.954,-100.806 193,-80 190.042,-79.067 187.046,-78.0922 184.029,-77.0849"/>
<polygon fill="none" stroke="midnightblue" points="393.149,-136.52 403.676,-135.324 394.7,-129.694 393.149,-136.52"/>
</g>
<!-- Node3 -->
<g id="node3" class="node"><title>Node3</title>
<g id="a_node3"><a xlink:href="a00034.html" target="_top" xlink:title="Copyright(C) 2015 Jan P.C. ">
<polygon fill="white" stroke="black" points="202,-0.5 202,-79.5 386,-79.5 386,-0.5 202,-0.5"/>
<text text-anchor="start" x="210" y="-67.5" font-family="Helvetica,sans-Serif" font-size="10.00">beseenium.view.outputFormatters.</text>
<text text-anchor="middle" x="294" y="-56.5" font-family="Helvetica,sans-Serif" font-size="10.00">BrowserCompositor</text>
<polyline fill="none" stroke="black" points="202,-49.5 386,-49.5 "/>
<text text-anchor="middle" x="294" y="-37.5" font-family="Helvetica,sans-Serif" font-size="10.00"> </text>
<polyline fill="none" stroke="black" points="202,-30.5 386,-30.5 "/>
<text text-anchor="start" x="210" y="-18.5" font-family="Helvetica,sans-Serif" font-size="10.00">~ composite()</text>
<text text-anchor="start" x="210" y="-7.5" font-family="Helvetica,sans-Serif" font-size="10.00"># BrowserCompositor()</text>
</a>
</g>
</g>
<!-- Node1&#45;&gt;Node3 -->
<g id="edge2" class="edge"><title>Node1&#45;&gt;Node3</title>
<path fill="none" stroke="midnightblue" d="M418.866,-111.469C400.254,-100.965 380.494,-89.8135 362.318,-79.5555"/>
<polygon fill="none" stroke="midnightblue" points="417.183,-114.538 427.612,-116.405 420.623,-108.442 417.183,-114.538"/>
</g>
<!-- Node4 -->
<g id="node4" class="node"><title>Node4</title>
<g id="a_node4"><a xlink:href="a00037.html" target="_top" xlink:title="Copyright(C) 2015 Jan P.C. ">
<polygon fill="white" stroke="black" points="404,-0.5 404,-79.5 588,-79.5 588,-0.5 404,-0.5"/>
<text text-anchor="start" x="412" y="-67.5" font-family="Helvetica,sans-Serif" font-size="10.00">beseenium.view.outputFormatters.</text>
<text text-anchor="middle" x="496" y="-56.5" font-family="Helvetica,sans-Serif" font-size="10.00">CapabilitiesCompositor</text>
<polyline fill="none" stroke="black" points="404,-49.5 588,-49.5 "/>
<text text-anchor="middle" x="496" y="-37.5" font-family="Helvetica,sans-Serif" font-size="10.00"> </text>
<polyline fill="none" stroke="black" points="404,-30.5 588,-30.5 "/>
<text text-anchor="start" x="412" y="-18.5" font-family="Helvetica,sans-Serif" font-size="10.00">+ CapabilitiesCompositor()</text>
<text text-anchor="start" x="412" y="-7.5" font-family="Helvetica,sans-Serif" font-size="10.00">~ composite()</text>
</a>
</g>
</g>
<!-- Node1&#45;&gt;Node4 -->
<g id="edge3" class="edge"><title>Node1&#45;&gt;Node4</title>
<path fill="none" stroke="midnightblue" d="M496,-106.146C496,-97.256 496,-88.0961 496,-79.5555"/>
<polygon fill="none" stroke="midnightblue" points="492.5,-106.405 496,-116.405 499.5,-106.405 492.5,-106.405"/>
</g>
<!-- Node5 -->
<g id="node5" class="node"><title>Node5</title>
<g id="a_node5"><a xlink:href="a00046.html" target="_top" xlink:title="Copyright(C) 2015 Jan P.C. ">
<polygon fill="white" stroke="black" points="606,-0.5 606,-79.5 790,-79.5 790,-0.5 606,-0.5"/>
<text text-anchor="start" x="614" y="-67.5" font-family="Helvetica,sans-Serif" font-size="10.00">beseenium.view.outputFormatters.</text>
<text text-anchor="middle" x="698" y="-56.5" font-family="Helvetica,sans-Serif" font-size="10.00">ExecuteCompositor</text>
<polyline fill="none" stroke="black" points="606,-49.5 790,-49.5 "/>
<text text-anchor="middle" x="698" y="-37.5" font-family="Helvetica,sans-Serif" font-size="10.00"> </text>
<polyline fill="none" stroke="black" points="606,-30.5 790,-30.5 "/>
<text text-anchor="start" x="614" y="-18.5" font-family="Helvetica,sans-Serif" font-size="10.00">+ ExecuteCompositor()</text>
<text text-anchor="start" x="614" y="-7.5" font-family="Helvetica,sans-Serif" font-size="10.00">+ composite()</text>
</a>
</g>
</g>
<!-- Node1&#45;&gt;Node5 -->
<g id="edge4" class="edge"><title>Node1&#45;&gt;Node5</title>
<path fill="none" stroke="midnightblue" d="M573.134,-111.469C591.746,-100.965 611.506,-89.8135 629.682,-79.5555"/>
<polygon fill="none" stroke="midnightblue" points="571.377,-108.442 564.388,-116.405 574.817,-114.538 571.377,-108.442"/>
</g>
<!-- Node6 -->
<g id="node6" class="node"><title>Node6</title>
<g id="a_node6"><a xlink:href="a00122.html" target="_top" xlink:title="Copyright(C) 2015 Jan P.C. ">
<polygon fill="white" stroke="black" points="808,-0.5 808,-79.5 992,-79.5 992,-0.5 808,-0.5"/>
<text text-anchor="start" x="816" y="-67.5" font-family="Helvetica,sans-Serif" font-size="10.00">beseenium.view.outputFormatters.</text>
<text text-anchor="middle" x="900" y="-56.5" font-family="Helvetica,sans-Serif" font-size="10.00">RootCompositor</text>
<polyline fill="none" stroke="black" points="808,-49.5 992,-49.5 "/>
<text text-anchor="start" x="816" y="-37.5" font-family="Helvetica,sans-Serif" font-size="10.00">&#45; compositorMap</text>
<polyline fill="none" stroke="black" points="808,-30.5 992,-30.5 "/>
<text text-anchor="start" x="816" y="-18.5" font-family="Helvetica,sans-Serif" font-size="10.00">+ RootCompositor()</text>
<text text-anchor="start" x="816" y="-7.5" font-family="Helvetica,sans-Serif" font-size="10.00">+ composite()</text>
</a>
</g>
</g>
<!-- Node1&#45;&gt;Node6 -->
<g id="edge5" class="edge"><title>Node1&#45;&gt;Node6</title>
<path fill="none" stroke="midnightblue" d="M598.418,-133.029C657.551,-119.506 733.046,-100.806 799,-80 801.958,-79.067 804.954,-78.0922 807.971,-77.0849"/>
<polygon fill="none" stroke="midnightblue" points="597.3,-129.694 588.324,-135.324 598.851,-136.52 597.3,-129.694"/>
</g>
</g>
</svg>
