<?xml version="1.0" encoding="UTF-8" standalone="no"?>
<!DOCTYPE svg PUBLIC "-//W3C//DTD SVG 1.1//EN"
 "http://www.w3.org/Graphics/SVG/1.1/DTD/svg11.dtd">
<!-- Generated by graphviz version 2.38.0 (20140413.2041)
 -->
<!-- Title: beseenium.view.outputHandlers.compositors.AddActionCompositor Pages: 1 -->
<svg width="244pt" height="387pt"
 viewBox="0.00 0.00 244.00 387.00" xmlns="http://www.w3.org/2000/svg" xmlns:xlink="http://www.w3.org/1999/xlink">
<g id="graph0" class="graph" transform="scale(1 1) rotate(0) translate(4 383)">
<title>beseenium.view.outputHandlers.compositors.AddActionCompositor</title>
<polygon fill="white" stroke="none" points="-4,4 -4,-383 240,-383 240,4 -4,4"/>
<!-- Node1 -->
<g id="node1" class="node"><title>Node1</title>
<polygon fill="#bfbfbf" stroke="black" points="0,-0.5 0,-112.5 236,-112.5 236,-0.5 0,-0.5"/>
<text text-anchor="start" x="8" y="-100.5" font-family="Helvetica,sans-Serif" font-size="10.00">beseenium.view.outputHandlers.compositors.</text>
<text text-anchor="middle" x="118" y="-89.5" font-family="Helvetica,sans-Serif" font-size="10.00">AddActionCompositor</text>
<polyline fill="none" stroke="black" points="0,-82.5 236,-82.5 "/>
<text text-anchor="middle" x="118" y="-70.5" font-family="Helvetica,sans-Serif" font-size="10.00"> </text>
<polyline fill="none" stroke="black" points="0,-63.5 236,-63.5 "/>
<text text-anchor="start" x="8" y="-51.5" font-family="Helvetica,sans-Serif" font-size="10.00">+ composite()</text>
<text text-anchor="start" x="8" y="-40.5" font-family="Helvetica,sans-Serif" font-size="10.00"># AddActionCompositor()</text>
<text text-anchor="start" x="8" y="-29.5" font-family="Helvetica,sans-Serif" font-size="10.00">&#45; format()</text>
<text text-anchor="start" x="8" y="-18.5" font-family="Helvetica,sans-Serif" font-size="10.00">&#45; finalFormat()</text>
<text text-anchor="start" x="8" y="-7.5" font-family="Helvetica,sans-Serif" font-size="10.00">&#45; containsError()</text>
</g>
<!-- Node2 -->
<g id="node2" class="node"><title>Node2</title>
<g id="a_node2"><a xlink:href="a00010.html" target="_top" xlink:title="Copyright(C) 2015 Jan P.C. ">
<polygon fill="white" stroke="black" points="0,-150.5 0,-229.5 236,-229.5 236,-150.5 0,-150.5"/>
<text text-anchor="start" x="8" y="-217.5" font-family="Helvetica,sans-Serif" font-size="10.00">beseenium.view.outputHandlers.compositors.</text>
<text text-anchor="middle" x="118" y="-206.5" font-family="Helvetica,sans-Serif" font-size="10.00">AbstractCompositor</text>
<polyline fill="none" stroke="black" points="0,-199.5 236,-199.5 "/>
<text text-anchor="middle" x="118" y="-187.5" font-family="Helvetica,sans-Serif" font-size="10.00"> </text>
<polyline fill="none" stroke="black" points="0,-180.5 236,-180.5 "/>
<text text-anchor="start" x="8" y="-168.5" font-family="Helvetica,sans-Serif" font-size="10.00">~ composite()</text>
<text text-anchor="start" x="8" y="-157.5" font-family="Helvetica,sans-Serif" font-size="10.00"># AbstractCompositor()</text>
</a>
</g>
</g>
<!-- Node2&#45;&gt;Node1 -->
<g id="edge1" class="edge"><title>Node2&#45;&gt;Node1</title>
<path fill="none" stroke="midnightblue" d="M118,-139.994C118,-131.041 118,-121.644 118,-112.53"/>
<polygon fill="none" stroke="midnightblue" points="114.5,-140.257 118,-150.257 121.5,-140.257 114.5,-140.257"/>
</g>
<!-- Node3 -->
<g id="node3" class="node"><title>Node3</title>
<g id="a_node3"><a xlink:href="a00011.html" target="_top" xlink:title="Interface that all output formatter classes should subscribe to, allowing the servlet to request an a...">
<polygon fill="white" stroke="black" points="4.5,-277.5 4.5,-378.5 231.5,-378.5 231.5,-277.5 4.5,-277.5"/>
<text text-anchor="start" x="12.5" y="-366.5" font-family="Helvetica,sans-Serif" font-size="10.00">beseenium.view.outputHandlers.formatters.</text>
<text text-anchor="middle" x="118" y="-355.5" font-family="Helvetica,sans-Serif" font-size="10.00">AbstractOutputFormatter</text>
<polyline fill="none" stroke="black" points="4.5,-348.5 231.5,-348.5 "/>
<text text-anchor="middle" x="118" y="-336.5" font-family="Helvetica,sans-Serif" font-size="10.00"> </text>
<polyline fill="none" stroke="black" points="4.5,-329.5 231.5,-329.5 "/>
<text text-anchor="start" x="12.5" y="-317.5" font-family="Helvetica,sans-Serif" font-size="10.00">+ asKeyVal()</text>
<text text-anchor="start" x="12.5" y="-306.5" font-family="Helvetica,sans-Serif" font-size="10.00">+ asKVset()</text>
<text text-anchor="start" x="12.5" y="-295.5" font-family="Helvetica,sans-Serif" font-size="10.00">+ asKVsuperSet()</text>
<text text-anchor="start" x="12.5" y="-284.5" font-family="Helvetica,sans-Serif" font-size="10.00">+ finalForm()</text>
</a>
</g>
</g>
<!-- Node3&#45;&gt;Node2 -->
<g id="edge2" class="edge"><title>Node3&#45;&gt;Node2</title>
<path fill="none" stroke="#404040" d="M118,-277.131C118,-265.662 118,-253.452 118,-241.938"/>
<polygon fill="none" stroke="#404040" points="118,-241.787 114,-235.787 118,-229.787 122,-235.787 118,-241.787"/>
<text text-anchor="middle" x="147" y="-251" font-family="Helvetica,sans-Serif" font-size="10.00"> #formatter</text>
</g>
</g>
</svg>
