<?xml version="1.0" encoding="UTF-8" standalone="no"?>
<!DOCTYPE svg PUBLIC "-//W3C//DTD SVG 1.1//EN"
 "http://www.w3.org/Graphics/SVG/1.1/DTD/svg11.dtd">
<!-- Generated by graphviz version 2.38.0 (20140413.2041)
 -->
<!-- Title: beseenium.view.outputHandlers.requestHandlers.executeHandlers.RootExecuteHandler Pages: 1 -->
<svg width="404pt" height="204pt"
 viewBox="0.00 0.00 404.00 204.00" xmlns="http://www.w3.org/2000/svg" xmlns:xlink="http://www.w3.org/1999/xlink">
<g id="graph0" class="graph" transform="scale(1 1) rotate(0) translate(4 200)">
<title>beseenium.view.outputHandlers.requestHandlers.executeHandlers.RootExecuteHandler</title>
<polygon fill="white" stroke="none" points="-4,4 -4,-200 400,-200 400,4 -4,4"/>
<!-- Node1 -->
<g id="node1" class="node"><title>Node1</title>
<polygon fill="#bfbfbf" stroke="black" points="152,-0.5 152,-68.5 396,-68.5 396,-0.5 152,-0.5"/>
<text text-anchor="start" x="160" y="-56.5" font-family="Helvetica,sans-Serif" font-size="10.00">beseenium.view.outputHandlers.request</text>
<text text-anchor="middle" x="274" y="-45.5" font-family="Helvetica,sans-Serif" font-size="10.00">Handlers.executeHandlers.RootExecuteHandler</text>
<polyline fill="none" stroke="black" points="152,-38.5 396,-38.5 "/>
<text text-anchor="middle" x="274" y="-26.5" font-family="Helvetica,sans-Serif" font-size="10.00"> </text>
<polyline fill="none" stroke="black" points="152,-19.5 396,-19.5 "/>
<text text-anchor="start" x="160" y="-7.5" font-family="Helvetica,sans-Serif" font-size="10.00">+ handleRequest()</text>
</g>
<!-- Node2 -->
<g id="node2" class="node"><title>Node2</title>
<g id="a_node2"><a xlink:href="a00012.html" target="_top" xlink:title="abstract base for a chain of responsibility that takes abstractTestRequests and uses them to generate...">
<polygon fill="white" stroke="black" points="0,-116.5 0,-195.5 210,-195.5 210,-116.5 0,-116.5"/>
<text text-anchor="start" x="8" y="-183.5" font-family="Helvetica,sans-Serif" font-size="10.00">beseenium.view.outputHandlers.request</text>
<text text-anchor="middle" x="105" y="-172.5" font-family="Helvetica,sans-Serif" font-size="10.00">Handlers.AbstractRequestHandler</text>
<polyline fill="none" stroke="black" points="0,-165.5 210,-165.5 "/>
<text text-anchor="middle" x="105" y="-153.5" font-family="Helvetica,sans-Serif" font-size="10.00"> </text>
<polyline fill="none" stroke="black" points="0,-146.5 210,-146.5 "/>
<text text-anchor="start" x="8" y="-134.5" font-family="Helvetica,sans-Serif" font-size="10.00">+ setSuccessor()</text>
<text text-anchor="start" x="8" y="-123.5" font-family="Helvetica,sans-Serif" font-size="10.00">+ handleRequest()</text>
</a>
</g>
</g>
<!-- Node2&#45;&gt;Node1 -->
<g id="edge1" class="edge"><title>Node2&#45;&gt;Node1</title>
<path fill="none" stroke="midnightblue" d="M168.128,-110.362C187.662,-96.5496 208.827,-81.584 227.062,-68.6901"/>
<polygon fill="none" stroke="midnightblue" points="166.014,-107.571 159.869,-116.202 170.055,-113.286 166.014,-107.571"/>
</g>
<!-- Node2&#45;&gt;Node2 -->
<g id="edge2" class="edge"><title>Node2&#45;&gt;Node2</title>
<path fill="none" stroke="#404040" d="M210.416,-165.556C221.148,-163.666 228,-160.48 228,-156 228,-153.48 225.832,-151.369 222.025,-149.669"/>
<polygon fill="none" stroke="#404040" points="221.978,-149.656 215.126,-151.904 210.416,-146.444 217.267,-144.196 221.978,-149.656"/>
<text text-anchor="middle" x="258" y="-153.5" font-family="Helvetica,sans-Serif" font-size="10.00"> #successor</text>
</g>
<!-- Node3 -->
<g id="node3" class="node"><title>Node3</title>
<polygon fill="white" stroke="#bfbfbf" points="306,-127.5 306,-184.5 356,-184.5 356,-127.5 306,-127.5"/>
<text text-anchor="middle" x="331" y="-172.5" font-family="Helvetica,sans-Serif" font-size="10.00">Logger</text>
<polyline fill="none" stroke="#bfbfbf" points="306,-165.5 356,-165.5 "/>
<text text-anchor="middle" x="331" y="-153.5" font-family="Helvetica,sans-Serif" font-size="10.00"> </text>
<polyline fill="none" stroke="#bfbfbf" points="306,-146.5 356,-146.5 "/>
<text text-anchor="middle" x="331" y="-134.5" font-family="Helvetica,sans-Serif" font-size="10.00"> </text>
</g>
<!-- Node3&#45;&gt;Node1 -->
<g id="edge3" class="edge"><title>Node3&#45;&gt;Node1</title>
<path fill="none" stroke="#404040" d="M317.78,-127.284C311.058,-113.192 302.726,-95.7238 295.141,-79.8213"/>
<polygon fill="none" stroke="#404040" points="294.949,-79.4201 288.756,-75.7267 289.783,-68.5891 295.977,-72.2825 294.949,-79.4201"/>
<text text-anchor="middle" x="320.5" y="-90" font-family="Helvetica,sans-Serif" font-size="10.00"> &#45;logger</text>
</g>
</g>
</svg>
