<?xml version="1.0" encoding="UTF-8" standalone="no"?>
<!DOCTYPE svg PUBLIC "-//W3C//DTD SVG 1.1//EN"
 "http://www.w3.org/Graphics/SVG/1.1/DTD/svg11.dtd">
<!-- Generated by graphviz version 2.38.0 (20140413.2041)
 -->
<!-- Title: beseenium.view.outputHandlers.compositors.CapabilitiesCompositor Pages: 1 -->
<svg width="244pt" height="226pt"
 viewBox="0.00 0.00 244.00 226.00" xmlns="http://www.w3.org/2000/svg" xmlns:xlink="http://www.w3.org/1999/xlink">
<g id="graph0" class="graph" transform="scale(1 1) rotate(0) translate(4 222)">
<title>beseenium.view.outputHandlers.compositors.CapabilitiesCompositor</title>
<polygon fill="white" stroke="none" points="-4,4 -4,-222 240,-222 240,4 -4,4"/>
<!-- Node1 -->
<g id="node1" class="node"><title>Node1</title>
<polygon fill="#bfbfbf" stroke="black" points="0,-0.5 0,-101.5 236,-101.5 236,-0.5 0,-0.5"/>
<text text-anchor="start" x="8" y="-89.5" font-family="Helvetica,sans-Serif" font-size="10.00">beseenium.view.outputHandlers.compositors.</text>
<text text-anchor="middle" x="118" y="-78.5" font-family="Helvetica,sans-Serif" font-size="10.00">CapabilitiesCompositor</text>
<polyline fill="none" stroke="black" points="0,-71.5 236,-71.5 "/>
<text text-anchor="middle" x="118" y="-59.5" font-family="Helvetica,sans-Serif" font-size="10.00"> </text>
<polyline fill="none" stroke="black" points="0,-52.5 236,-52.5 "/>
<text text-anchor="start" x="8" y="-40.5" font-family="Helvetica,sans-Serif" font-size="10.00">+ CapabilitiesCompositor()</text>
<text text-anchor="start" x="8" y="-29.5" font-family="Helvetica,sans-Serif" font-size="10.00">+ composite()</text>
<text text-anchor="start" x="8" y="-18.5" font-family="Helvetica,sans-Serif" font-size="10.00">&#45; format()</text>
<text text-anchor="start" x="8" y="-7.5" font-family="Helvetica,sans-Serif" font-size="10.00">&#45; finalFormat()</text>
</g>
<!-- Node2 -->
<g id="node2" class="node"><title>Node2</title>
<g id="a_node2"><a xlink:href="a00010.html" target="_top" xlink:title="Copyright(C) 2015 Jan P.C. ">
<polygon fill="white" stroke="black" points="0,-138.5 0,-217.5 236,-217.5 236,-138.5 0,-138.5"/>
<text text-anchor="start" x="8" y="-205.5" font-family="Helvetica,sans-Serif" font-size="10.00">beseenium.view.outputHandlers.compositors.</text>
<text text-anchor="middle" x="118" y="-194.5" font-family="Helvetica,sans-Serif" font-size="10.00">AbstractCompositor</text>
<polyline fill="none" stroke="black" points="0,-187.5 236,-187.5 "/>
<text text-anchor="start" x="8" y="-175.5" font-family="Helvetica,sans-Serif" font-size="10.00"># formatter</text>
<polyline fill="none" stroke="black" points="0,-168.5 236,-168.5 "/>
<text text-anchor="start" x="8" y="-156.5" font-family="Helvetica,sans-Serif" font-size="10.00">~ composite()</text>
<text text-anchor="start" x="8" y="-145.5" font-family="Helvetica,sans-Serif" font-size="10.00"># AbstractCompositor()</text>
</a>
</g>
</g>
<!-- Node2&#45;&gt;Node1 -->
<g id="edge1" class="edge"><title>Node2&#45;&gt;Node1</title>
<path fill="none" stroke="midnightblue" d="M118,-128.406C118,-119.639 118,-110.488 118,-101.691"/>
<polygon fill="none" stroke="midnightblue" points="114.5,-128.476 118,-138.476 121.5,-128.476 114.5,-128.476"/>
</g>
</g>
</svg>
