<?xml version="1.0" encoding="UTF-8" standalone="no"?>
<!DOCTYPE svg PUBLIC "-//W3C//DTD SVG 1.1//EN"
 "http://www.w3.org/Graphics/SVG/1.1/DTD/svg11.dtd">
<!-- Generated by graphviz version 2.38.0 (20140413.2041)
 -->
<!-- Title: beseenium.view.outputHandlers.formatters.AbstractOutputFormatter Pages: 1 -->
<svg width="480pt" height="259pt"
 viewBox="0.00 0.00 480.00 259.00" xmlns="http://www.w3.org/2000/svg" xmlns:xlink="http://www.w3.org/1999/xlink">
<g id="graph0" class="graph" transform="scale(1 1) rotate(0) translate(4 255)">
<title>beseenium.view.outputHandlers.formatters.AbstractOutputFormatter</title>
<polygon fill="white" stroke="none" points="-4,4 -4,-255 476,-255 476,4 -4,4"/>
<!-- Node1 -->
<g id="node1" class="node"><title>Node1</title>
<polygon fill="#bfbfbf" stroke="black" points="122,-149.5 122,-250.5 349,-250.5 349,-149.5 122,-149.5"/>
<text text-anchor="start" x="130" y="-238.5" font-family="Helvetica,sans-Serif" font-size="10.00">beseenium.view.outputHandlers.formatters.</text>
<text text-anchor="middle" x="235.5" y="-227.5" font-family="Helvetica,sans-Serif" font-size="10.00">AbstractOutputFormatter</text>
<polyline fill="none" stroke="black" points="122,-220.5 349,-220.5 "/>
<text text-anchor="middle" x="235.5" y="-208.5" font-family="Helvetica,sans-Serif" font-size="10.00"> </text>
<polyline fill="none" stroke="black" points="122,-201.5 349,-201.5 "/>
<text text-anchor="start" x="130" y="-189.5" font-family="Helvetica,sans-Serif" font-size="10.00">+ asKeyVal()</text>
<text text-anchor="start" x="130" y="-178.5" font-family="Helvetica,sans-Serif" font-size="10.00">+ asKVset()</text>
<text text-anchor="start" x="130" y="-167.5" font-family="Helvetica,sans-Serif" font-size="10.00">+ asKVsuperSet()</text>
<text text-anchor="start" x="130" y="-156.5" font-family="Helvetica,sans-Serif" font-size="10.00">+ finalForm()</text>
</g>
<!-- Node2 -->
<g id="node2" class="node"><title>Node2</title>
<g id="a_node2"><a xlink:href="a00030.html" target="_top" xlink:title="Copyright(C) 2015 Jan P.C. ">
<polygon fill="white" stroke="black" points="0,-0.5 0,-112.5 227,-112.5 227,-0.5 0,-0.5"/>
<text text-anchor="start" x="8" y="-100.5" font-family="Helvetica,sans-Serif" font-size="10.00">beseenium.view.outputHandlers.formatters.</text>
<text text-anchor="middle" x="113.5" y="-89.5" font-family="Helvetica,sans-Serif" font-size="10.00">BasicFormatter</text>
<polyline fill="none" stroke="black" points="0,-82.5 227,-82.5 "/>
<text text-anchor="middle" x="113.5" y="-70.5" font-family="Helvetica,sans-Serif" font-size="10.00"> </text>
<polyline fill="none" stroke="black" points="0,-63.5 227,-63.5 "/>
<text text-anchor="start" x="8" y="-51.5" font-family="Helvetica,sans-Serif" font-size="10.00">+ BasicFormatter()</text>
<text text-anchor="start" x="8" y="-40.5" font-family="Helvetica,sans-Serif" font-size="10.00">+ asKeyVal()</text>
<text text-anchor="start" x="8" y="-29.5" font-family="Helvetica,sans-Serif" font-size="10.00">+ asKVset()</text>
<text text-anchor="start" x="8" y="-18.5" font-family="Helvetica,sans-Serif" font-size="10.00">+ asKVsuperSet()</text>
<text text-anchor="start" x="8" y="-7.5" font-family="Helvetica,sans-Serif" font-size="10.00">+ finalForm()</text>
</a>
</g>
</g>
<!-- Node1&#45;&gt;Node2 -->
<g id="edge1" class="edge"><title>Node1&#45;&gt;Node2</title>
<path fill="none" stroke="midnightblue" d="M185.733,-141.278C177.599,-131.844 169.188,-122.089 161.108,-112.717"/>
<polygon fill="none" stroke="midnightblue" points="183.307,-143.824 192.487,-149.112 188.608,-139.253 183.307,-143.824"/>
</g>
<!-- Node3 -->
<g id="node3" class="node"><title>Node3</title>
<g id="a_node3"><a xlink:href="a00071.html" target="_top" xlink:title="This class provides methods to transform strings into JSON format. ">
<polygon fill="white" stroke="black" points="245,-0.5 245,-112.5 472,-112.5 472,-0.5 245,-0.5"/>
<text text-anchor="start" x="253" y="-100.5" font-family="Helvetica,sans-Serif" font-size="10.00">beseenium.view.outputHandlers.formatters.</text>
<text text-anchor="middle" x="358.5" y="-89.5" font-family="Helvetica,sans-Serif" font-size="10.00">JsonFormatter</text>
<polyline fill="none" stroke="black" points="245,-82.5 472,-82.5 "/>
<text text-anchor="middle" x="358.5" y="-70.5" font-family="Helvetica,sans-Serif" font-size="10.00"> </text>
<polyline fill="none" stroke="black" points="245,-63.5 472,-63.5 "/>
<text text-anchor="start" x="253" y="-51.5" font-family="Helvetica,sans-Serif" font-size="10.00">+ JsonFormatter()</text>
<text text-anchor="start" x="253" y="-40.5" font-family="Helvetica,sans-Serif" font-size="10.00">+ finalForm()</text>
<text text-anchor="start" x="253" y="-29.5" font-family="Helvetica,sans-Serif" font-size="10.00">+ asKVsuperSet()</text>
<text text-anchor="start" x="253" y="-18.5" font-family="Helvetica,sans-Serif" font-size="10.00">+ asKVset()</text>
<text text-anchor="start" x="253" y="-7.5" font-family="Helvetica,sans-Serif" font-size="10.00">+ asKeyVal()</text>
</a>
</g>
</g>
<!-- Node1&#45;&gt;Node3 -->
<g id="edge2" class="edge"><title>Node1&#45;&gt;Node3</title>
<path fill="none" stroke="midnightblue" d="M285.429,-141.561C293.706,-132.039 302.274,-122.183 310.502,-112.717"/>
<polygon fill="none" stroke="midnightblue" points="282.784,-139.269 278.865,-149.112 288.067,-143.861 282.784,-139.269"/>
</g>
</g>
</svg>
