<?xml version="1.0" encoding="UTF-8" standalone="no"?>
<!DOCTYPE svg PUBLIC "-//W3C//DTD SVG 1.1//EN"
 "http://www.w3.org/Graphics/SVG/1.1/DTD/svg11.dtd">
<!-- Generated by graphviz version 2.38.0 (20140413.2041)
 -->
<!-- Title: beseenium.view.outputHandlers.requestHandlers.capabilitiesHandlers.EmptyCapsParamHandler Pages: 1 -->
<svg width="224pt" height="215pt"
 viewBox="0.00 0.00 224.00 215.00" xmlns="http://www.w3.org/2000/svg" xmlns:xlink="http://www.w3.org/1999/xlink">
<g id="graph0" class="graph" transform="scale(1 1) rotate(0) translate(4 211)">
<title>beseenium.view.outputHandlers.requestHandlers.capabilitiesHandlers.EmptyCapsParamHandler</title>
<polygon fill="white" stroke="none" points="-4,4 -4,-211 220,-211 220,4 -4,4"/>
<!-- Node1 -->
<g id="node1" class="node"><title>Node1</title>
<polygon fill="#bfbfbf" stroke="black" points="0,-0.5 0,-90.5 216,-90.5 216,-0.5 0,-0.5"/>
<text text-anchor="start" x="8" y="-78.5" font-family="Helvetica,sans-Serif" font-size="10.00">beseenium.view.outputHandlers.request</text>
<text text-anchor="start" x="8" y="-67.5" font-family="Helvetica,sans-Serif" font-size="10.00">Handlers.capabilitiesHandlers.EmptyCaps</text>
<text text-anchor="middle" x="108" y="-56.5" font-family="Helvetica,sans-Serif" font-size="10.00">ParamHandler</text>
<polyline fill="none" stroke="black" points="0,-49.5 216,-49.5 "/>
<text text-anchor="start" x="8" y="-37.5" font-family="Helvetica,sans-Serif" font-size="10.00">&#45; logger</text>
<polyline fill="none" stroke="black" points="0,-30.5 216,-30.5 "/>
<text text-anchor="start" x="8" y="-18.5" font-family="Helvetica,sans-Serif" font-size="10.00">+ EmptyCapsParamHandler()</text>
<text text-anchor="start" x="8" y="-7.5" font-family="Helvetica,sans-Serif" font-size="10.00">+ handleRequest()</text>
</g>
<!-- Node2 -->
<g id="node2" class="node"><title>Node2</title>
<g id="a_node2"><a xlink:href="a00012.html" target="_top" xlink:title="abstract base for a chain of responsibility that takes abstractTestRequests and uses them to generate...">
<polygon fill="white" stroke="black" points="3,-127.5 3,-206.5 213,-206.5 213,-127.5 3,-127.5"/>
<text text-anchor="start" x="11" y="-194.5" font-family="Helvetica,sans-Serif" font-size="10.00">beseenium.view.outputHandlers.request</text>
<text text-anchor="middle" x="108" y="-183.5" font-family="Helvetica,sans-Serif" font-size="10.00">Handlers.AbstractRequestHandler</text>
<polyline fill="none" stroke="black" points="3,-176.5 213,-176.5 "/>
<text text-anchor="start" x="11" y="-164.5" font-family="Helvetica,sans-Serif" font-size="10.00"># successor</text>
<polyline fill="none" stroke="black" points="3,-157.5 213,-157.5 "/>
<text text-anchor="start" x="11" y="-145.5" font-family="Helvetica,sans-Serif" font-size="10.00">+ setSuccessor()</text>
<text text-anchor="start" x="11" y="-134.5" font-family="Helvetica,sans-Serif" font-size="10.00">+ handleRequest()</text>
</a>
</g>
</g>
<!-- Node2&#45;&gt;Node1 -->
<g id="edge1" class="edge"><title>Node2&#45;&gt;Node1</title>
<path fill="none" stroke="midnightblue" d="M108,-117.187C108,-108.491 108,-99.4758 108,-90.9111"/>
<polygon fill="none" stroke="midnightblue" points="104.5,-117.202 108,-127.202 111.5,-117.202 104.5,-117.202"/>
</g>
</g>
</svg>
