<?xml version="1.0" encoding="UTF-8" standalone="no"?>
<!DOCTYPE svg PUBLIC "-//W3C//DTD SVG 1.1//EN"
 "http://www.w3.org/Graphics/SVG/1.1/DTD/svg11.dtd">
<!-- Generated by graphviz version 2.38.0 (20140413.2041)
 -->
<!-- Title: beseenium.view.outputHandlers.requestHandlers.browserHandlers.RootBrowserHandler Pages: 1 -->
<svg width="312pt" height="194pt"
 viewBox="0.00 0.00 312.50 194.00" xmlns="http://www.w3.org/2000/svg" xmlns:xlink="http://www.w3.org/1999/xlink">
<g id="graph0" class="graph" transform="scale(1 1) rotate(0) translate(4 190)">
<title>beseenium.view.outputHandlers.requestHandlers.browserHandlers.RootBrowserHandler</title>
<polygon fill="white" stroke="none" points="-4,4 -4,-190 308.5,-190 308.5,4 -4,4"/>
<!-- Node1 -->
<g id="node1" class="node"><title>Node1</title>
<polygon fill="#bfbfbf" stroke="black" points="0,-0.5 0,-68.5 243,-68.5 243,-0.5 0,-0.5"/>
<text text-anchor="start" x="8" y="-56.5" font-family="Helvetica,sans-Serif" font-size="10.00">beseenium.view.outputHandlers.request</text>
<text text-anchor="middle" x="121.5" y="-45.5" font-family="Helvetica,sans-Serif" font-size="10.00">Handlers.browserHandlers.RootBrowserHandler</text>
<polyline fill="none" stroke="black" points="0,-38.5 243,-38.5 "/>
<text text-anchor="middle" x="121.5" y="-26.5" font-family="Helvetica,sans-Serif" font-size="10.00"> </text>
<polyline fill="none" stroke="black" points="0,-19.5 243,-19.5 "/>
<text text-anchor="start" x="8" y="-7.5" font-family="Helvetica,sans-Serif" font-size="10.00">+ handleRequest()</text>
</g>
<!-- Node2 -->
<g id="node2" class="node"><title>Node2</title>
<g id="a_node2"><a xlink:href="a00012.html" target="_top" xlink:title="abstract base for a chain of responsibility that takes abstractTestRequests and uses them to generate...">
<polygon fill="white" stroke="black" points="16.5,-106.5 16.5,-185.5 226.5,-185.5 226.5,-106.5 16.5,-106.5"/>
<text text-anchor="start" x="24.5" y="-173.5" font-family="Helvetica,sans-Serif" font-size="10.00">beseenium.view.outputHandlers.request</text>
<text text-anchor="middle" x="121.5" y="-162.5" font-family="Helvetica,sans-Serif" font-size="10.00">Handlers.AbstractRequestHandler</text>
<polyline fill="none" stroke="black" points="16.5,-155.5 226.5,-155.5 "/>
<text text-anchor="middle" x="121.5" y="-143.5" font-family="Helvetica,sans-Serif" font-size="10.00"> </text>
<polyline fill="none" stroke="black" points="16.5,-136.5 226.5,-136.5 "/>
<text text-anchor="start" x="24.5" y="-124.5" font-family="Helvetica,sans-Serif" font-size="10.00">+ setSuccessor()</text>
<text text-anchor="start" x="24.5" y="-113.5" font-family="Helvetica,sans-Serif" font-size="10.00">+ handleRequest()</text>
</a>
</g>
</g>
<!-- Node2&#45;&gt;Node1 -->
<g id="edge1" class="edge"><title>Node2&#45;&gt;Node1</title>
<path fill="none" stroke="midnightblue" d="M121.5,-96.3805C121.5,-87.0158 121.5,-77.4088 121.5,-68.674"/>
<polygon fill="none" stroke="midnightblue" points="118,-96.3944 121.5,-106.394 125,-96.3944 118,-96.3944"/>
</g>
<!-- Node2&#45;&gt;Node2 -->
<g id="edge2" class="edge"><title>Node2&#45;&gt;Node2</title>
<path fill="none" stroke="#404040" d="M226.916,-154.939C237.648,-153.171 244.5,-150.191 244.5,-146 244.5,-143.708 242.451,-141.778 238.838,-140.211"/>
<polygon fill="none" stroke="#404040" points="238.518,-140.126 231.695,-142.46 226.916,-137.061 233.739,-134.726 238.518,-140.126"/>
<text text-anchor="middle" x="274.5" y="-143.5" font-family="Helvetica,sans-Serif" font-size="10.00"> #successor</text>
</g>
</g>
</svg>
