<?xml version="1.0" encoding="UTF-8" standalone="no"?>
<!DOCTYPE svg PUBLIC "-//W3C//DTD SVG 1.1//EN"
 "http://www.w3.org/Graphics/SVG/1.1/DTD/svg11.dtd">
<!-- Generated by graphviz version 2.38.0 (20140413.2041)
 -->
<!-- Title: beseenium.view.outputHandlers.requestHandlers.addActionHandlers.AddActionDataHandler Pages: 1 -->
<svg width="236pt" height="204pt"
 viewBox="0.00 0.00 236.00 204.00" xmlns="http://www.w3.org/2000/svg" xmlns:xlink="http://www.w3.org/1999/xlink">
<g id="graph0" class="graph" transform="scale(1 1) rotate(0) translate(4 200)">
<title>beseenium.view.outputHandlers.requestHandlers.addActionHandlers.AddActionDataHandler</title>
<polygon fill="white" stroke="none" points="-4,4 -4,-200 232,-200 232,4 -4,4"/>
<!-- Node1 -->
<g id="node1" class="node"><title>Node1</title>
<polygon fill="#bfbfbf" stroke="black" points="0,-0.5 0,-79.5 228,-79.5 228,-0.5 0,-0.5"/>
<text text-anchor="start" x="8" y="-67.5" font-family="Helvetica,sans-Serif" font-size="10.00">beseenium.view.outputHandlers.request</text>
<text text-anchor="start" x="8" y="-56.5" font-family="Helvetica,sans-Serif" font-size="10.00">Handlers.addActionHandlers.AddActionData</text>
<text text-anchor="middle" x="114" y="-45.5" font-family="Helvetica,sans-Serif" font-size="10.00">Handler</text>
<polyline fill="none" stroke="black" points="0,-38.5 228,-38.5 "/>
<text text-anchor="start" x="8" y="-26.5" font-family="Helvetica,sans-Serif" font-size="10.00">&#45; logger</text>
<polyline fill="none" stroke="black" points="0,-19.5 228,-19.5 "/>
<text text-anchor="start" x="8" y="-7.5" font-family="Helvetica,sans-Serif" font-size="10.00">+ handleRequest()</text>
</g>
<!-- Node2 -->
<g id="node2" class="node"><title>Node2</title>
<g id="a_node2"><a xlink:href="a00012.html" target="_top" xlink:title="abstract base for a chain of responsibility that takes abstractTestRequests and uses them to generate...">
<polygon fill="white" stroke="black" points="9,-116.5 9,-195.5 219,-195.5 219,-116.5 9,-116.5"/>
<text text-anchor="start" x="17" y="-183.5" font-family="Helvetica,sans-Serif" font-size="10.00">beseenium.view.outputHandlers.request</text>
<text text-anchor="middle" x="114" y="-172.5" font-family="Helvetica,sans-Serif" font-size="10.00">Handlers.AbstractRequestHandler</text>
<polyline fill="none" stroke="black" points="9,-165.5 219,-165.5 "/>
<text text-anchor="start" x="17" y="-153.5" font-family="Helvetica,sans-Serif" font-size="10.00"># successor</text>
<polyline fill="none" stroke="black" points="9,-146.5 219,-146.5 "/>
<text text-anchor="start" x="17" y="-134.5" font-family="Helvetica,sans-Serif" font-size="10.00">+ setSuccessor()</text>
<text text-anchor="start" x="17" y="-123.5" font-family="Helvetica,sans-Serif" font-size="10.00">+ handleRequest()</text>
</a>
</g>
</g>
<!-- Node2&#45;&gt;Node1 -->
<g id="edge1" class="edge"><title>Node2&#45;&gt;Node1</title>
<path fill="none" stroke="midnightblue" d="M114,-106.146C114,-97.256 114,-88.0961 114,-79.5555"/>
<polygon fill="none" stroke="midnightblue" points="110.5,-106.405 114,-116.405 117.5,-106.405 110.5,-106.405"/>
</g>
</g>
</svg>
