<?xml version="1.0" encoding="UTF-8" standalone="no"?>
<!DOCTYPE svg PUBLIC "-//W3C//DTD SVG 1.1//EN"
 "http://www.w3.org/Graphics/SVG/1.1/DTD/svg11.dtd">
<!-- Generated by graphviz version 2.38.0 (20140413.2041)
 -->
<!-- Title: beseenium.view.outputHandlers.requestHandlers.executeHandlers.ActionExceptionHandler Pages: 1 -->
<svg width="393pt" height="215pt"
 viewBox="0.00 0.00 393.50 215.00" xmlns="http://www.w3.org/2000/svg" xmlns:xlink="http://www.w3.org/1999/xlink">
<g id="graph0" class="graph" transform="scale(1 1) rotate(0) translate(4 211)">
<title>beseenium.view.outputHandlers.requestHandlers.executeHandlers.ActionExceptionHandler</title>
<polygon fill="white" stroke="none" points="-4,4 -4,-211 389.5,-211 389.5,4 -4,4"/>
<!-- Node1 -->
<g id="node1" class="node"><title>Node1</title>
<polygon fill="#bfbfbf" stroke="black" points="162.5,-0.5 162.5,-79.5 385.5,-79.5 385.5,-0.5 162.5,-0.5"/>
<text text-anchor="start" x="170.5" y="-67.5" font-family="Helvetica,sans-Serif" font-size="10.00">beseenium.view.outputHandlers.request</text>
<text text-anchor="start" x="170.5" y="-56.5" font-family="Helvetica,sans-Serif" font-size="10.00">Handlers.executeHandlers.ActionException</text>
<text text-anchor="middle" x="274" y="-45.5" font-family="Helvetica,sans-Serif" font-size="10.00">Handler</text>
<polyline fill="none" stroke="black" points="162.5,-38.5 385.5,-38.5 "/>
<text text-anchor="middle" x="274" y="-26.5" font-family="Helvetica,sans-Serif" font-size="10.00"> </text>
<polyline fill="none" stroke="black" points="162.5,-19.5 385.5,-19.5 "/>
<text text-anchor="start" x="170.5" y="-7.5" font-family="Helvetica,sans-Serif" font-size="10.00">+ handleRequest()</text>
</g>
<!-- Node2 -->
<g id="node2" class="node"><title>Node2</title>
<g id="a_node2"><a xlink:href="a00012.html" target="_top" xlink:title="abstract base for a chain of responsibility that takes abstractTestRequests and uses them to generate...">
<polygon fill="white" stroke="black" points="0,-127.5 0,-206.5 210,-206.5 210,-127.5 0,-127.5"/>
<text text-anchor="start" x="8" y="-194.5" font-family="Helvetica,sans-Serif" font-size="10.00">beseenium.view.outputHandlers.request</text>
<text text-anchor="middle" x="105" y="-183.5" font-family="Helvetica,sans-Serif" font-size="10.00">Handlers.AbstractRequestHandler</text>
<polyline fill="none" stroke="black" points="0,-176.5 210,-176.5 "/>
<text text-anchor="middle" x="105" y="-164.5" font-family="Helvetica,sans-Serif" font-size="10.00"> </text>
<polyline fill="none" stroke="black" points="0,-157.5 210,-157.5 "/>
<text text-anchor="start" x="8" y="-145.5" font-family="Helvetica,sans-Serif" font-size="10.00">+ setSuccessor()</text>
<text text-anchor="start" x="8" y="-134.5" font-family="Helvetica,sans-Serif" font-size="10.00">+ handleRequest()</text>
</a>
</g>
</g>
<!-- Node2&#45;&gt;Node1 -->
<g id="edge1" class="edge"><title>Node2&#45;&gt;Node1</title>
<path fill="none" stroke="midnightblue" d="M165.422,-121.309C183.855,-107.675 203.956,-92.8074 221.797,-79.6121"/>
<polygon fill="none" stroke="midnightblue" points="163.043,-118.715 157.085,-127.476 167.206,-124.343 163.043,-118.715"/>
</g>
<!-- Node2&#45;&gt;Node2 -->
<g id="edge2" class="edge"><title>Node2&#45;&gt;Node2</title>
<path fill="none" stroke="#404040" d="M210.416,-176.556C221.148,-174.666 228,-171.48 228,-167 228,-164.48 225.832,-162.369 222.025,-160.669"/>
<polygon fill="none" stroke="#404040" points="221.978,-160.656 215.126,-162.904 210.416,-157.444 217.267,-155.196 221.978,-160.656"/>
<text text-anchor="middle" x="258" y="-164.5" font-family="Helvetica,sans-Serif" font-size="10.00"> #successor</text>
</g>
<!-- Node3 -->
<g id="node3" class="node"><title>Node3</title>
<polygon fill="white" stroke="#bfbfbf" points="306,-138.5 306,-195.5 356,-195.5 356,-138.5 306,-138.5"/>
<text text-anchor="middle" x="331" y="-183.5" font-family="Helvetica,sans-Serif" font-size="10.00">Logger</text>
<polyline fill="none" stroke="#bfbfbf" points="306,-176.5 356,-176.5 "/>
<text text-anchor="middle" x="331" y="-164.5" font-family="Helvetica,sans-Serif" font-size="10.00"> </text>
<polyline fill="none" stroke="#bfbfbf" points="306,-157.5 356,-157.5 "/>
<text text-anchor="middle" x="331" y="-145.5" font-family="Helvetica,sans-Serif" font-size="10.00"> </text>
</g>
<!-- Node3&#45;&gt;Node1 -->
<g id="edge3" class="edge"><title>Node3&#45;&gt;Node1</title>
<path fill="none" stroke="#404040" d="M318.35,-138.258C311.954,-124.233 303.997,-106.783 296.596,-90.552"/>
<polygon fill="none" stroke="#404040" points="296.565,-90.4851 290.436,-86.6856 291.586,-79.5667 297.715,-83.3663 296.565,-90.4851"/>
<text text-anchor="middle" x="322.5" y="-101" font-family="Helvetica,sans-Serif" font-size="10.00"> &#45;logger</text>
</g>
</g>
</svg>
