<?xml version="1.0" encoding="UTF-8" standalone="no"?>
<!DOCTYPE svg PUBLIC "-//W3C//DTD SVG 1.1//EN"
 "http://www.w3.org/Graphics/SVG/1.1/DTD/svg11.dtd">
<!-- Generated by graphviz version 2.38.0 (20140413.2041)
 -->
<!-- Title: beseenium.view.outputHandlers.OutputHandler Pages: 1 -->
<svg width="1026pt" height="899pt"
 viewBox="0.00 0.00 1026.00 899.00" xmlns="http://www.w3.org/2000/svg" xmlns:xlink="http://www.w3.org/1999/xlink">
<g id="graph0" class="graph" transform="scale(1 1) rotate(0) translate(4 895)">
<title>beseenium.view.outputHandlers.OutputHandler</title>
<polygon fill="white" stroke="none" points="-4,4 -4,-895 1022,-895 1022,4 -4,4"/>
<!-- Node1 -->
<g id="node1" class="node"><title>Node1</title>
<polygon fill="#bfbfbf" stroke="black" points="399.5,-0.5 399.5,-112.5 572.5,-112.5 572.5,-0.5 399.5,-0.5"/>
<text text-anchor="start" x="407.5" y="-100.5" font-family="Helvetica,sans-Serif" font-size="10.00">beseenium.view.outputHandlers.</text>
<text text-anchor="middle" x="486" y="-89.5" font-family="Helvetica,sans-Serif" font-size="10.00">OutputHandler</text>
<polyline fill="none" stroke="black" points="399.5,-82.5 572.5,-82.5 "/>
<text text-anchor="middle" x="486" y="-70.5" font-family="Helvetica,sans-Serif" font-size="10.00"> </text>
<polyline fill="none" stroke="black" points="399.5,-63.5 572.5,-63.5 "/>
<text text-anchor="start" x="407.5" y="-51.5" font-family="Helvetica,sans-Serif" font-size="10.00">+ OutputHandler()</text>
<text text-anchor="start" x="407.5" y="-40.5" font-family="Helvetica,sans-Serif" font-size="10.00">+ setRequests()</text>
<text text-anchor="start" x="407.5" y="-29.5" font-family="Helvetica,sans-Serif" font-size="10.00">+ setSuccessor()</text>
<text text-anchor="start" x="407.5" y="-18.5" font-family="Helvetica,sans-Serif" font-size="10.00">+ handleRequests()</text>
<text text-anchor="start" x="407.5" y="-7.5" font-family="Helvetica,sans-Serif" font-size="10.00">&#45; checkListForERROR()</text>
</g>
<!-- Node2 -->
<g id="node2" class="node"><title>Node2</title>
<g id="a_node2"><a xlink:href="a00012.html" target="_top" xlink:title="abstract base for a chain of responsibility that takes abstractTestRequests and uses them to generate...">
<polygon fill="white" stroke="black" points="0,-182.5 0,-261.5 210,-261.5 210,-182.5 0,-182.5"/>
<text text-anchor="start" x="8" y="-249.5" font-family="Helvetica,sans-Serif" font-size="10.00">beseenium.view.outputHandlers.request</text>
<text text-anchor="middle" x="105" y="-238.5" font-family="Helvetica,sans-Serif" font-size="10.00">Handlers.AbstractRequestHandler</text>
<polyline fill="none" stroke="black" points="0,-231.5 210,-231.5 "/>
<text text-anchor="middle" x="105" y="-219.5" font-family="Helvetica,sans-Serif" font-size="10.00"> </text>
<polyline fill="none" stroke="black" points="0,-212.5 210,-212.5 "/>
<text text-anchor="start" x="8" y="-200.5" font-family="Helvetica,sans-Serif" font-size="10.00">+ setSuccessor()</text>
<text text-anchor="start" x="8" y="-189.5" font-family="Helvetica,sans-Serif" font-size="10.00">+ handleRequest()</text>
</a>
</g>
</g>
<!-- Node2&#45;&gt;Node1 -->
<g id="edge1" class="edge"><title>Node2&#45;&gt;Node1</title>
<path fill="none" stroke="#404040" d="M194.809,-182.46C252.886,-157.537 328.485,-125.095 388.098,-99.513"/>
<polygon fill="none" stroke="#404040" points="388.388,-99.3885 392.325,-93.3465 399.416,-94.6562 395.48,-100.698 388.388,-99.3885"/>
<text text-anchor="middle" x="334.5" y="-134" font-family="Helvetica,sans-Serif" font-size="10.00"> &#45;successor</text>
</g>
<!-- Node2&#45;&gt;Node2 -->
<g id="edge2" class="edge"><title>Node2&#45;&gt;Node2</title>
<path fill="none" stroke="#404040" d="M210.416,-234.947C221.148,-232.386 228,-228.07 228,-222 228,-218.491 225.71,-215.568 221.704,-213.231"/>
<polygon fill="none" stroke="#404040" points="221.67,-213.219 214.654,-214.887 210.416,-209.053 217.431,-207.385 221.67,-213.219"/>
<text text-anchor="middle" x="258" y="-219.5" font-family="Helvetica,sans-Serif" font-size="10.00"> #successor</text>
</g>
<!-- Node3 -->
<g id="node3" class="node"><title>Node3</title>
<polygon fill="white" stroke="#bfbfbf" points="306,-188 306,-256 524,-256 524,-188 306,-188"/>
<text text-anchor="start" x="314" y="-244" font-family="Helvetica,sans-Serif" font-size="10.00">Map&lt; String, beseenium.view.input</text>
<text text-anchor="middle" x="415" y="-233" font-family="Helvetica,sans-Serif" font-size="10.00">Handlers.requests.AbstractTestRequest &gt;</text>
<polyline fill="none" stroke="#bfbfbf" points="306,-226 524,-226 "/>
<text text-anchor="middle" x="415" y="-214" font-family="Helvetica,sans-Serif" font-size="10.00"> </text>
<polyline fill="none" stroke="#bfbfbf" points="306,-207 524,-207 "/>
<text text-anchor="middle" x="415" y="-195" font-family="Helvetica,sans-Serif" font-size="10.00"> </text>
</g>
<!-- Node3&#45;&gt;Node1 -->
<g id="edge3" class="edge"><title>Node3&#45;&gt;Node1</title>
<path fill="none" stroke="#404040" d="M429.368,-187.913C437.375,-169.474 447.638,-145.841 457.222,-123.77"/>
<polygon fill="none" stroke="#404040" points="457.228,-123.757 455.949,-116.661 462.008,-112.75 463.287,-119.847 457.228,-123.757"/>
<text text-anchor="middle" x="485" y="-134" font-family="Helvetica,sans-Serif" font-size="10.00"> &#45;requestMap</text>
</g>
<!-- Node4 -->
<g id="node4" class="node"><title>Node4</title>
<g id="a_node4"><a xlink:href="a00130.html" target="_top" xlink:title="blueprint for creating Test objects, a Test is ostensibly a series of actions that are performed one ...">
<polygon fill="white" stroke="black" points="542,-160.5 542,-283.5 688,-283.5 688,-160.5 542,-160.5"/>
<text text-anchor="middle" x="615" y="-271.5" font-family="Helvetica,sans-Serif" font-size="10.00">beseenium.controller.Test</text>
<polyline fill="none" stroke="black" points="542,-264.5 688,-264.5 "/>
<text text-anchor="middle" x="615" y="-252.5" font-family="Helvetica,sans-Serif" font-size="10.00"> </text>
<polyline fill="none" stroke="black" points="542,-245.5 688,-245.5 "/>
<text text-anchor="start" x="550" y="-233.5" font-family="Helvetica,sans-Serif" font-size="10.00">+ Test()</text>
<text text-anchor="start" x="550" y="-222.5" font-family="Helvetica,sans-Serif" font-size="10.00">+ setBrowser()</text>
<text text-anchor="start" x="550" y="-211.5" font-family="Helvetica,sans-Serif" font-size="10.00">+ configureRemoteDriver()</text>
<text text-anchor="start" x="550" y="-200.5" font-family="Helvetica,sans-Serif" font-size="10.00">+ addAction()</text>
<text text-anchor="start" x="550" y="-189.5" font-family="Helvetica,sans-Serif" font-size="10.00">+ removeAction()</text>
<text text-anchor="start" x="550" y="-178.5" font-family="Helvetica,sans-Serif" font-size="10.00">+ executeActions()</text>
<text text-anchor="start" x="550" y="-167.5" font-family="Helvetica,sans-Serif" font-size="10.00">+ emergencyShutdown()</text>
</a>
</g>
</g>
<!-- Node4&#45;&gt;Node1 -->
<g id="edge4" class="edge"><title>Node4&#45;&gt;Node1</title>
<path fill="none" stroke="#404040" d="M566.965,-160.119C557.204,-147.747 546.904,-134.692 537.042,-122.193"/>
<polygon fill="none" stroke="#404040" points="537.036,-122.185 530.179,-119.953 529.603,-112.765 536.46,-114.997 537.036,-122.185"/>
<text text-anchor="middle" x="564" y="-134" font-family="Helvetica,sans-Serif" font-size="10.00"> &#45;test</text>
</g>
<!-- Node5 -->
<g id="node5" class="node"><title>Node5</title>
<g id="a_node5"><a xlink:href="a00017.html" target="_top" xlink:title="This Class conforms to a &#39;factory&#39; pattern, it allows the creation of different ActionData instances...">
<polygon fill="white" stroke="black" points="476.5,-469.5 476.5,-581.5 643.5,-581.5 643.5,-469.5 476.5,-469.5"/>
<text text-anchor="start" x="484.5" y="-569.5" font-family="Helvetica,sans-Serif" font-size="10.00">beseenium.controller.Action</text>
<text text-anchor="middle" x="560" y="-558.5" font-family="Helvetica,sans-Serif" font-size="10.00">DataFactory.ActionDataFactory</text>
<polyline fill="none" stroke="black" points="476.5,-551.5 643.5,-551.5 "/>
<text text-anchor="middle" x="560" y="-539.5" font-family="Helvetica,sans-Serif" font-size="10.00"> </text>
<polyline fill="none" stroke="black" points="476.5,-532.5 643.5,-532.5 "/>
<text text-anchor="start" x="484.5" y="-520.5" font-family="Helvetica,sans-Serif" font-size="10.00">+ ActionDataFactory()</text>
<text text-anchor="start" x="484.5" y="-509.5" font-family="Helvetica,sans-Serif" font-size="10.00">+ setCapabilities()</text>
<text text-anchor="start" x="484.5" y="-498.5" font-family="Helvetica,sans-Serif" font-size="10.00">+ makeActionData()</text>
<text text-anchor="start" x="484.5" y="-487.5" font-family="Helvetica,sans-Serif" font-size="10.00">+ makeActionData()</text>
<text text-anchor="start" x="484.5" y="-476.5" font-family="Helvetica,sans-Serif" font-size="10.00">&#45; mapEntries()</text>
</a>
</g>
</g>
<!-- Node5&#45;&gt;Node4 -->
<g id="edge5" class="edge"><title>Node5&#45;&gt;Node4</title>
<path fill="none" stroke="#404040" d="M594.063,-469.461C596.794,-463.39 599.192,-457.17 601,-451 615.763,-400.626 619.002,-341.39 618.688,-295.924"/>
<polygon fill="none" stroke="#404040" points="618.686,-295.781 614.602,-289.838 618.518,-283.783 622.601,-289.726 618.686,-295.781"/>
<text text-anchor="middle" x="666.5" y="-374" font-family="Helvetica,sans-Serif" font-size="10.00"> &#45;actionDataFactory</text>
</g>
<!-- Node17 -->
<g id="node17" class="node"><title>Node17</title>
<g id="a_node17"><a xlink:href="a00021.html" target="_top" xlink:title="this class is a factory for creating actions, it uses a factory method style pattern and a map implem...">
<polygon fill="white" stroke="black" points="427.5,-331.5 427.5,-421.5 578.5,-421.5 578.5,-331.5 427.5,-331.5"/>
<text text-anchor="start" x="435.5" y="-409.5" font-family="Helvetica,sans-Serif" font-size="10.00">beseenium.controller.Action</text>
<text text-anchor="middle" x="503" y="-398.5" font-family="Helvetica,sans-Serif" font-size="10.00">Factory.ActionFactory</text>
<polyline fill="none" stroke="black" points="427.5,-391.5 578.5,-391.5 "/>
<text text-anchor="middle" x="503" y="-379.5" font-family="Helvetica,sans-Serif" font-size="10.00"> </text>
<polyline fill="none" stroke="black" points="427.5,-372.5 578.5,-372.5 "/>
<text text-anchor="start" x="435.5" y="-360.5" font-family="Helvetica,sans-Serif" font-size="10.00">+ ActionFactory()</text>
<text text-anchor="start" x="435.5" y="-349.5" font-family="Helvetica,sans-Serif" font-size="10.00">+ makeAction()</text>
<text text-anchor="start" x="435.5" y="-338.5" font-family="Helvetica,sans-Serif" font-size="10.00">&#45; populateActionMap()</text>
</a>
</g>
</g>
<!-- Node5&#45;&gt;Node17 -->
<g id="edge19" class="edge"><title>Node5&#45;&gt;Node17</title>
<path fill="none" stroke="#404040" d="M514.496,-469.442C511.132,-463.471 508.2,-457.276 506,-451 504.093,-445.562 502.766,-439.757 501.872,-433.884"/>
<polygon fill="none" stroke="#404040" points="501.859,-433.762 497.252,-428.214 500.601,-421.828 505.208,-427.375 501.859,-433.762"/>
<text text-anchor="middle" x="553.5" y="-443" font-family="Helvetica,sans-Serif" font-size="10.00"> &#45;actionDataFactory</text>
</g>
<!-- Node6 -->
<g id="node6" class="node"><title>Node6</title>
<g id="a_node6"><a xlink:href="a00077.html" target="_top" xlink:title="interface which describes a prototype for creating MakeData objects. ">
<polygon fill="white" stroke="black" points="435.5,-668 435.5,-736 586.5,-736 586.5,-668 435.5,-668"/>
<text text-anchor="start" x="443.5" y="-724" font-family="Helvetica,sans-Serif" font-size="10.00">beseenium.controller.Action</text>
<text text-anchor="middle" x="511" y="-713" font-family="Helvetica,sans-Serif" font-size="10.00">DataFactory.MakeData</text>
<polyline fill="none" stroke="black" points="435.5,-706 586.5,-706 "/>
<text text-anchor="middle" x="511" y="-694" font-family="Helvetica,sans-Serif" font-size="10.00"> </text>
<polyline fill="none" stroke="black" points="435.5,-687 586.5,-687 "/>
<text text-anchor="start" x="443.5" y="-675" font-family="Helvetica,sans-Serif" font-size="10.00">+ makeActionData()</text>
</a>
</g>
</g>
<!-- Node6&#45;&gt;Node5 -->
<g id="edge6" class="edge"><title>Node6&#45;&gt;Node5</title>
<path fill="none" stroke="midnightblue" d="M523.094,-657.93C529.568,-634.876 537.611,-606.23 544.536,-581.573"/>
<polygon fill="none" stroke="midnightblue" points="519.666,-657.193 520.332,-667.767 526.405,-659.086 519.666,-657.193"/>
</g>
<!-- Node7 -->
<g id="node7" class="node"><title>Node7</title>
<polygon fill="white" stroke="#bfbfbf" points="51.5,-668 51.5,-736 238.5,-736 238.5,-668 51.5,-668"/>
<text text-anchor="start" x="59.5" y="-724" font-family="Helvetica,sans-Serif" font-size="10.00">Map&lt; String, beseenium.controller.</text>
<text text-anchor="middle" x="145" y="-713" font-family="Helvetica,sans-Serif" font-size="10.00">ActionDataFactory.MakeData &gt;</text>
<polyline fill="none" stroke="#bfbfbf" points="51.5,-706 238.5,-706 "/>
<text text-anchor="middle" x="145" y="-694" font-family="Helvetica,sans-Serif" font-size="10.00"> </text>
<polyline fill="none" stroke="#bfbfbf" points="51.5,-687 238.5,-687 "/>
<text text-anchor="middle" x="145" y="-675" font-family="Helvetica,sans-Serif" font-size="10.00"> </text>
</g>
<!-- Node7&#45;&gt;Node5 -->
<g id="edge7" class="edge"><title>Node7&#45;&gt;Node5</title>
<path fill="none" stroke="#404040" d="M185.261,-667.967C203.296,-654.421 225.348,-639.491 247,-629 287.877,-609.194 300.644,-609.784 345,-600 394.968,-588.978 412.971,-598.881 464.733,-582.332"/>
<polygon fill="none" stroke="#404040" points="464.958,-582.255 469.345,-576.533 476.315,-578.382 471.928,-584.105 464.958,-582.255"/>
<text text-anchor="middle" x="385.5" y="-603" font-family="Helvetica,sans-Serif" font-size="10.00"> &#45;ActionDataMap</text>
</g>
<!-- Node8 -->
<g id="node8" class="node"><title>Node8</title>
<g id="a_node8"><a xlink:href="a00014.html" target="_top" xlink:title="This class encapsulates the data needed to perform an action into 4 distinct areas: &#160;&#160;&#160;...">
<polygon fill="white" stroke="black" points="256.5,-629.5 256.5,-774.5 417.5,-774.5 417.5,-629.5 256.5,-629.5"/>
<text text-anchor="start" x="264.5" y="-762.5" font-family="Helvetica,sans-Serif" font-size="10.00">beseenium.model.actionData.</text>
<text text-anchor="middle" x="337" y="-751.5" font-family="Helvetica,sans-Serif" font-size="10.00">ActionData</text>
<polyline fill="none" stroke="black" points="256.5,-744.5 417.5,-744.5 "/>
<text text-anchor="start" x="264.5" y="-732.5" font-family="Helvetica,sans-Serif" font-size="10.00">&#45; inputParam</text>
<polyline fill="none" stroke="black" points="256.5,-725.5 417.5,-725.5 "/>
<text text-anchor="start" x="264.5" y="-713.5" font-family="Helvetica,sans-Serif" font-size="10.00">+ ActionData()</text>
<text text-anchor="start" x="264.5" y="-702.5" font-family="Helvetica,sans-Serif" font-size="10.00">+ ActionData()</text>
<text text-anchor="start" x="264.5" y="-691.5" font-family="Helvetica,sans-Serif" font-size="10.00">+ getInputParam()</text>
<text text-anchor="start" x="264.5" y="-680.5" font-family="Helvetica,sans-Serif" font-size="10.00">+ getElement()</text>
<text text-anchor="start" x="264.5" y="-669.5" font-family="Helvetica,sans-Serif" font-size="10.00">+ getDriver()</text>
<text text-anchor="start" x="264.5" y="-658.5" font-family="Helvetica,sans-Serif" font-size="10.00">+ setElement()</text>
<text text-anchor="start" x="264.5" y="-647.5" font-family="Helvetica,sans-Serif" font-size="10.00">+ setInputParam()</text>
<text text-anchor="start" x="264.5" y="-636.5" font-family="Helvetica,sans-Serif" font-size="10.00">+ setDriver()</text>
</a>
</g>
</g>
<!-- Node8&#45;&gt;Node5 -->
<g id="edge8" class="edge"><title>Node8&#45;&gt;Node5</title>
<path fill="none" stroke="#404040" d="M407.499,-629.378C418.704,-619.125 430.424,-609.012 442,-600 447.304,-595.871 455.885,-590.059 466.068,-583.492"/>
<polygon fill="none" stroke="#404040" points="466.145,-583.443 469.056,-576.846 476.266,-576.995 473.355,-583.593 466.145,-583.443"/>
<text text-anchor="middle" x="487.5" y="-603" font-family="Helvetica,sans-Serif" font-size="10.00"> &#45;emptyActionData</text>
</g>
<!-- Node9 -->
<g id="node9" class="node"><title>Node9</title>
<polygon fill="white" stroke="#bfbfbf" points="279,-828 279,-885 395,-885 395,-828 279,-828"/>
<text text-anchor="middle" x="337" y="-873" font-family="Helvetica,sans-Serif" font-size="10.00">List&lt; WebElement &gt;</text>
<polyline fill="none" stroke="#bfbfbf" points="279,-866 395,-866 "/>
<text text-anchor="middle" x="337" y="-854" font-family="Helvetica,sans-Serif" font-size="10.00"> </text>
<polyline fill="none" stroke="#bfbfbf" points="279,-847 395,-847 "/>
<text text-anchor="middle" x="337" y="-835" font-family="Helvetica,sans-Serif" font-size="10.00"> </text>
</g>
<!-- Node9&#45;&gt;Node8 -->
<g id="edge9" class="edge"><title>Node9&#45;&gt;Node8</title>
<path fill="none" stroke="#404040" d="M337,-827.883C337,-816.031 337,-801.488 337,-786.568"/>
<polygon fill="none" stroke="#404040" points="337,-786.566 333,-780.566 337,-774.566 341,-780.566 337,-786.566"/>
<text text-anchor="middle" x="360.5" y="-796" font-family="Helvetica,sans-Serif" font-size="10.00"> &#45;element</text>
</g>
<!-- Node10 -->
<g id="node10" class="node"><title>Node10</title>
<polygon fill="white" stroke="#bfbfbf" points="511.5,-828 511.5,-885 576.5,-885 576.5,-828 511.5,-828"/>
<text text-anchor="middle" x="544" y="-873" font-family="Helvetica,sans-Serif" font-size="10.00">WebDriver</text>
<polyline fill="none" stroke="#bfbfbf" points="511.5,-866 576.5,-866 "/>
<text text-anchor="middle" x="544" y="-854" font-family="Helvetica,sans-Serif" font-size="10.00"> </text>
<polyline fill="none" stroke="#bfbfbf" points="511.5,-847 576.5,-847 "/>
<text text-anchor="middle" x="544" y="-835" font-family="Helvetica,sans-Serif" font-size="10.00"> </text>
</g>
<!-- Node10&#45;&gt;Node8 -->
<g id="edge10" class="edge"><title>Node10&#45;&gt;Node8</title>
<path fill="none" stroke="#404040" d="M511.452,-834.329C489.627,-819.908 460.151,-799.998 427.533,-776.032"/>
<polygon fill="none" stroke="#404040" points="427.431,-775.957 420.229,-775.602 417.786,-768.818 424.988,-769.172 427.431,-775.957"/>
<text text-anchor="middle" x="482" y="-796" font-family="Helvetica,sans-Serif" font-size="10.00"> &#45;driver</text>
</g>
<!-- Node13 -->
<g id="node13" class="node"><title>Node13</title>
<g id="a_node13"><a xlink:href="a00023.html" target="_top" xlink:title="This class acts as the invoker in a GOF command style pattern. ">
<polygon fill="white" stroke="black" points="784,-651.5 784,-752.5 954,-752.5 954,-651.5 784,-651.5"/>
<text text-anchor="middle" x="869" y="-740.5" font-family="Helvetica,sans-Serif" font-size="10.00">beseenium.model.ActionInvoker</text>
<polyline fill="none" stroke="black" points="784,-733.5 954,-733.5 "/>
<text text-anchor="middle" x="869" y="-721.5" font-family="Helvetica,sans-Serif" font-size="10.00"> </text>
<polyline fill="none" stroke="black" points="784,-714.5 954,-714.5 "/>
<text text-anchor="start" x="792" y="-702.5" font-family="Helvetica,sans-Serif" font-size="10.00">+ ActionInvoker()</text>
<text text-anchor="start" x="792" y="-691.5" font-family="Helvetica,sans-Serif" font-size="10.00">+ add()</text>
<text text-anchor="start" x="792" y="-680.5" font-family="Helvetica,sans-Serif" font-size="10.00">+ remove()</text>
<text text-anchor="start" x="792" y="-669.5" font-family="Helvetica,sans-Serif" font-size="10.00">+ execute()</text>
<text text-anchor="start" x="792" y="-658.5" font-family="Helvetica,sans-Serif" font-size="10.00">+ size()</text>
</a>
</g>
</g>
<!-- Node10&#45;&gt;Node13 -->
<g id="edge16" class="edge"><title>Node10&#45;&gt;Node13</title>
<path fill="none" stroke="#404040" d="M576.899,-842.367C593.114,-836.014 613.004,-828.397 631,-822 694.435,-799.452 715.428,-806.36 775,-775 783.535,-770.507 792.099,-765.242 800.395,-759.639"/>
<polygon fill="none" stroke="#404040" points="800.529,-759.546 803.152,-752.829 810.362,-752.667 807.738,-759.384 800.529,-759.546"/>
<text text-anchor="middle" x="750" y="-796" font-family="Helvetica,sans-Serif" font-size="10.00"> &#45;driver</text>
</g>
<!-- Node11 -->
<g id="node11" class="node"><title>Node11</title>
<polygon fill="white" stroke="#bfbfbf" points="604.5,-673.5 604.5,-730.5 639.5,-730.5 639.5,-673.5 604.5,-673.5"/>
<text text-anchor="middle" x="622" y="-718.5" font-family="Helvetica,sans-Serif" font-size="10.00">URL</text>
<polyline fill="none" stroke="#bfbfbf" points="604.5,-711.5 639.5,-711.5 "/>
<text text-anchor="middle" x="622" y="-699.5" font-family="Helvetica,sans-Serif" font-size="10.00"> </text>
<polyline fill="none" stroke="#bfbfbf" points="604.5,-692.5 639.5,-692.5 "/>
<text text-anchor="middle" x="622" y="-680.5" font-family="Helvetica,sans-Serif" font-size="10.00"> </text>
</g>
<!-- Node11&#45;&gt;Node5 -->
<g id="edge11" class="edge"><title>Node11&#45;&gt;Node5</title>
<path fill="none" stroke="#404040" d="M612.176,-673.35C604.523,-651.811 593.573,-620.991 583.678,-593.142"/>
<polygon fill="none" stroke="#404040" points="583.677,-593.139 577.899,-588.825 579.659,-581.832 585.437,-586.146 583.677,-593.139"/>
<text text-anchor="middle" x="603" y="-603" font-family="Helvetica,sans-Serif" font-size="10.00"> &#45;URL</text>
</g>
<!-- Node12 -->
<g id="node12" class="node"><title>Node12</title>
<polygon fill="white" stroke="#bfbfbf" points="658,-673.5 658,-730.5 766,-730.5 766,-673.5 658,-673.5"/>
<text text-anchor="middle" x="712" y="-718.5" font-family="Helvetica,sans-Serif" font-size="10.00">DesiredCapabilities</text>
<polyline fill="none" stroke="#bfbfbf" points="658,-711.5 766,-711.5 "/>
<text text-anchor="middle" x="712" y="-699.5" font-family="Helvetica,sans-Serif" font-size="10.00"> </text>
<polyline fill="none" stroke="#bfbfbf" points="658,-692.5 766,-692.5 "/>
<text text-anchor="middle" x="712" y="-680.5" font-family="Helvetica,sans-Serif" font-size="10.00"> </text>
</g>
<!-- Node12&#45;&gt;Node5 -->
<g id="edge12" class="edge"><title>Node12&#45;&gt;Node5</title>
<path fill="none" stroke="#404040" d="M687.915,-673.35C668.654,-651.237 640.87,-619.341 616.114,-590.92"/>
<polygon fill="none" stroke="#404040" points="616.079,-590.88 609.122,-588.983 608.197,-581.832 615.154,-583.729 616.079,-590.88"/>
<text text-anchor="middle" x="662.5" y="-603" font-family="Helvetica,sans-Serif" font-size="10.00"> &#45;capabilities</text>
</g>
<!-- Node13&#45;&gt;Node4 -->
<g id="edge13" class="edge"><title>Node13&#45;&gt;Node4</title>
<path fill="none" stroke="#404040" d="M855.287,-651.478C833.474,-577.725 786.25,-436.411 718,-331 709.472,-317.828 699.214,-304.844 688.522,-292.696"/>
<polygon fill="none" stroke="#404040" points="688.33,-292.483 681.339,-290.714 680.283,-283.58 687.274,-285.35 688.33,-292.483"/>
<text text-anchor="middle" x="803" y="-443" font-family="Helvetica,sans-Serif" font-size="10.00"> &#45;invoker</text>
</g>
<!-- Node14 -->
<g id="node14" class="node"><title>Node14</title>
<polygon fill="white" stroke="#bfbfbf" points="931,-828 931,-885 1015,-885 1015,-828 931,-828"/>
<text text-anchor="middle" x="973" y="-873" font-family="Helvetica,sans-Serif" font-size="10.00">List&lt; String &gt;</text>
<polyline fill="none" stroke="#bfbfbf" points="931,-866 1015,-866 "/>
<text text-anchor="middle" x="973" y="-854" font-family="Helvetica,sans-Serif" font-size="10.00"> </text>
<polyline fill="none" stroke="#bfbfbf" points="931,-847 1015,-847 "/>
<text text-anchor="middle" x="973" y="-835" font-family="Helvetica,sans-Serif" font-size="10.00"> </text>
</g>
<!-- Node14&#45;&gt;Node13 -->
<g id="edge14" class="edge"><title>Node14&#45;&gt;Node13</title>
<path fill="none" stroke="#404040" d="M962.06,-827.929C957.154,-816.743 950.912,-803.914 944,-793 937.402,-782.583 929.723,-772.052 921.845,-762.046"/>
<polygon fill="none" stroke="#404040" points="921.79,-761.978 914.91,-759.816 914.26,-752.634 921.139,-754.796 921.79,-761.978"/>
<text text-anchor="middle" x="984" y="-796" font-family="Helvetica,sans-Serif" font-size="10.00"> &#45;inputParams</text>
</g>
<!-- Node15 -->
<g id="node15" class="node"><title>Node15</title>
<polygon fill="white" stroke="#bfbfbf" points="640,-822.5 640,-890.5 806,-890.5 806,-822.5 640,-822.5"/>
<text text-anchor="start" x="648" y="-878.5" font-family="Helvetica,sans-Serif" font-size="10.00">List&lt; beseenium.model.action.</text>
<text text-anchor="middle" x="723" y="-867.5" font-family="Helvetica,sans-Serif" font-size="10.00">AbstractAction &gt;</text>
<polyline fill="none" stroke="#bfbfbf" points="640,-860.5 806,-860.5 "/>
<text text-anchor="middle" x="723" y="-848.5" font-family="Helvetica,sans-Serif" font-size="10.00"> </text>
<polyline fill="none" stroke="#bfbfbf" points="640,-841.5 806,-841.5 "/>
<text text-anchor="middle" x="723" y="-829.5" font-family="Helvetica,sans-Serif" font-size="10.00"> </text>
</g>
<!-- Node15&#45;&gt;Node13 -->
<g id="edge15" class="edge"><title>Node15&#45;&gt;Node13</title>
<path fill="none" stroke="#404040" d="M754.68,-822.41C771.778,-804.55 793.386,-781.98 813.201,-761.283"/>
<polygon fill="none" stroke="#404040" points="813.266,-761.215 814.526,-754.115 821.565,-752.547 820.305,-759.647 813.266,-761.215"/>
<text text-anchor="middle" x="800" y="-796" font-family="Helvetica,sans-Serif" font-size="10.00"> &#45;actions</text>
</g>
<!-- Node16 -->
<g id="node16" class="node"><title>Node16</title>
<polygon fill="white" stroke="#bfbfbf" points="824.5,-828 824.5,-885 913.5,-885 913.5,-828 824.5,-828"/>
<text text-anchor="middle" x="869" y="-873" font-family="Helvetica,sans-Serif" font-size="10.00">List&lt; Integer &gt;</text>
<polyline fill="none" stroke="#bfbfbf" points="824.5,-866 913.5,-866 "/>
<text text-anchor="middle" x="869" y="-854" font-family="Helvetica,sans-Serif" font-size="10.00"> </text>
<polyline fill="none" stroke="#bfbfbf" points="824.5,-847 913.5,-847 "/>
<text text-anchor="middle" x="869" y="-835" font-family="Helvetica,sans-Serif" font-size="10.00"> </text>
</g>
<!-- Node16&#45;&gt;Node13 -->
<g id="edge17" class="edge"><title>Node16&#45;&gt;Node13</title>
<path fill="none" stroke="#404040" d="M869,-827.883C869,-810.294 869,-786.78 869,-764.901"/>
<polygon fill="none" stroke="#404040" points="869,-764.614 865,-758.614 869,-752.614 873,-758.614 869,-764.614"/>
<text text-anchor="middle" x="904.5" y="-796" font-family="Helvetica,sans-Serif" font-size="10.00"> &#45;optionalIndex</text>
</g>
<!-- Node17&#45;&gt;Node4 -->
<g id="edge18" class="edge"><title>Node17&#45;&gt;Node4</title>
<path fill="none" stroke="#404040" d="M514.646,-331.473C518.373,-321.336 523.105,-310.921 529,-302 530.938,-299.066 533.009,-296.168 535.185,-293.312"/>
<polygon fill="none" stroke="#404040" points="535.368,-293.088 536.058,-285.91 542.949,-283.786 542.259,-290.964 535.368,-293.088"/>
<text text-anchor="middle" x="565" y="-305" font-family="Helvetica,sans-Serif" font-size="10.00"> &#45;actionFactory</text>
</g>
<!-- Node18 -->
<g id="node18" class="node"><title>Node18</title>
<polygon fill="white" stroke="#bfbfbf" points="271.5,-491.5 271.5,-559.5 458.5,-559.5 458.5,-491.5 271.5,-491.5"/>
<text text-anchor="start" x="279.5" y="-547.5" font-family="Helvetica,sans-Serif" font-size="10.00">Map&lt; String, beseenium.controller.</text>
<text text-anchor="middle" x="365" y="-536.5" font-family="Helvetica,sans-Serif" font-size="10.00">ActionFactory.MakeAction &gt;</text>
<polyline fill="none" stroke="#bfbfbf" points="271.5,-529.5 458.5,-529.5 "/>
<text text-anchor="middle" x="365" y="-517.5" font-family="Helvetica,sans-Serif" font-size="10.00"> </text>
<polyline fill="none" stroke="#bfbfbf" points="271.5,-510.5 458.5,-510.5 "/>
<text text-anchor="middle" x="365" y="-498.5" font-family="Helvetica,sans-Serif" font-size="10.00"> </text>
</g>
<!-- Node18&#45;&gt;Node17 -->
<g id="edge20" class="edge"><title>Node18&#45;&gt;Node17</title>
<path fill="none" stroke="#404040" d="M395.226,-491.456C409.623,-475.793 427.126,-456.863 443,-440 445.871,-436.951 448.827,-433.825 451.816,-430.676"/>
<polygon fill="none" stroke="#404040" points="452.007,-430.475 453.248,-423.371 460.282,-421.784 459.042,-428.887 452.007,-430.475"/>
<text text-anchor="middle" x="471.5" y="-443" font-family="Helvetica,sans-Serif" font-size="10.00"> &#45;actionMap</text>
</g>
<!-- Node19 -->
<g id="node19" class="node"><title>Node19</title>
<polygon fill="white" stroke="#bfbfbf" points="706.5,-177 706.5,-267 961.5,-267 961.5,-177 706.5,-177"/>
<text text-anchor="start" x="714.5" y="-255" font-family="Helvetica,sans-Serif" font-size="10.00">Map&lt; beseenium.view.input</text>
<text text-anchor="start" x="714.5" y="-244" font-family="Helvetica,sans-Serif" font-size="10.00">Handlers.requests.AbstractTest</text>
<text text-anchor="start" x="714.5" y="-233" font-family="Helvetica,sans-Serif" font-size="10.00">Request, beseenium.view.outputHandlers.request</text>
<text text-anchor="middle" x="834" y="-222" font-family="Helvetica,sans-Serif" font-size="10.00">Handlers.AbstractRequestHandler &gt;</text>
<polyline fill="none" stroke="#bfbfbf" points="706.5,-215 961.5,-215 "/>
<text text-anchor="middle" x="834" y="-203" font-family="Helvetica,sans-Serif" font-size="10.00"> </text>
<polyline fill="none" stroke="#bfbfbf" points="706.5,-196 961.5,-196 "/>
<text text-anchor="middle" x="834" y="-184" font-family="Helvetica,sans-Serif" font-size="10.00"> </text>
</g>
<!-- Node19&#45;&gt;Node1 -->
<g id="edge21" class="edge"><title>Node19&#45;&gt;Node1</title>
<path fill="none" stroke="#404040" d="M740.285,-176.97C691.811,-154.195 632.689,-126.419 583.657,-103.382"/>
<polygon fill="none" stroke="#404040" points="583.575,-103.343 576.443,-104.412 572.714,-98.2404 579.845,-97.1715 583.575,-103.343"/>
<text text-anchor="middle" x="698" y="-134" font-family="Helvetica,sans-Serif" font-size="10.00"> &#45;successorMap</text>
</g>
</g>
</svg>
