<?xml version="1.0" encoding="UTF-8" standalone="no"?>
<!DOCTYPE svg PUBLIC "-//W3C//DTD SVG 1.1//EN"
 "http://www.w3.org/Graphics/SVG/1.1/DTD/svg11.dtd">
<!-- Generated by graphviz version 2.38.0 (20140413.2041)
 -->
<!-- Title: beseenium.view.outputHandlers.requestHandlers.executeHandlers.RootExecuteHandler Pages: 1 -->
<svg width="252pt" height="193pt"
 viewBox="0.00 0.00 252.00 193.00" xmlns="http://www.w3.org/2000/svg" xmlns:xlink="http://www.w3.org/1999/xlink">
<g id="graph0" class="graph" transform="scale(1 1) rotate(0) translate(4 189)">
<title>beseenium.view.outputHandlers.requestHandlers.executeHandlers.RootExecuteHandler</title>
<polygon fill="white" stroke="none" points="-4,4 -4,-189 248,-189 248,4 -4,4"/>
<!-- Node1 -->
<g id="node1" class="node"><title>Node1</title>
<polygon fill="#bfbfbf" stroke="black" points="0,-0.5 0,-68.5 244,-68.5 244,-0.5 0,-0.5"/>
<text text-anchor="start" x="8" y="-56.5" font-family="Helvetica,sans-Serif" font-size="10.00">beseenium.view.outputHandlers.request</text>
<text text-anchor="middle" x="122" y="-45.5" font-family="Helvetica,sans-Serif" font-size="10.00">Handlers.executeHandlers.RootExecuteHandler</text>
<polyline fill="none" stroke="black" points="0,-38.5 244,-38.5 "/>
<text text-anchor="start" x="8" y="-26.5" font-family="Helvetica,sans-Serif" font-size="10.00">&#45; logger</text>
<polyline fill="none" stroke="black" points="0,-19.5 244,-19.5 "/>
<text text-anchor="start" x="8" y="-7.5" font-family="Helvetica,sans-Serif" font-size="10.00">+ handleRequest()</text>
</g>
<!-- Node2 -->
<g id="node2" class="node"><title>Node2</title>
<g id="a_node2"><a xlink:href="a00012.html" target="_top" xlink:title="abstract base for a chain of responsibility that takes abstractTestRequests and uses them to generate...">
<polygon fill="white" stroke="black" points="17,-105.5 17,-184.5 227,-184.5 227,-105.5 17,-105.5"/>
<text text-anchor="start" x="25" y="-172.5" font-family="Helvetica,sans-Serif" font-size="10.00">beseenium.view.outputHandlers.request</text>
<text text-anchor="middle" x="122" y="-161.5" font-family="Helvetica,sans-Serif" font-size="10.00">Handlers.AbstractRequestHandler</text>
<polyline fill="none" stroke="black" points="17,-154.5 227,-154.5 "/>
<text text-anchor="start" x="25" y="-142.5" font-family="Helvetica,sans-Serif" font-size="10.00"># successor</text>
<polyline fill="none" stroke="black" points="17,-135.5 227,-135.5 "/>
<text text-anchor="start" x="25" y="-123.5" font-family="Helvetica,sans-Serif" font-size="10.00">+ setSuccessor()</text>
<text text-anchor="start" x="25" y="-112.5" font-family="Helvetica,sans-Serif" font-size="10.00">+ handleRequest()</text>
</a>
</g>
</g>
<!-- Node2&#45;&gt;Node1 -->
<g id="edge1" class="edge"><title>Node2&#45;&gt;Node1</title>
<path fill="none" stroke="midnightblue" d="M122,-95.3492C122,-86.2824 122,-77.0048 122,-68.5439"/>
<polygon fill="none" stroke="midnightblue" points="118.5,-95.4414 122,-105.441 125.5,-95.4415 118.5,-95.4414"/>
</g>
</g>
</svg>
