<?xml version="1.0" encoding="UTF-8" standalone="no"?>
<!DOCTYPE svg PUBLIC "-//W3C//DTD SVG 1.1//EN"
 "http://www.w3.org/Graphics/SVG/1.1/DTD/svg11.dtd">
<!-- Generated by graphviz version 2.38.0 (20140413.2041)
 -->
<!-- Title: beseenium.view.outputHandlers.compositors.ExecuteCompositor Pages: 1 -->
<svg width="244pt" height="376pt"
 viewBox="0.00 0.00 244.00 376.00" xmlns="http://www.w3.org/2000/svg" xmlns:xlink="http://www.w3.org/1999/xlink">
<g id="graph0" class="graph" transform="scale(1 1) rotate(0) translate(4 372)">
<title>beseenium.view.outputHandlers.compositors.ExecuteCompositor</title>
<polygon fill="white" stroke="none" points="-4,4 -4,-372 240,-372 240,4 -4,4"/>
<!-- Node1 -->
<g id="node1" class="node"><title>Node1</title>
<polygon fill="#bfbfbf" stroke="black" points="0,-0.5 0,-101.5 236,-101.5 236,-0.5 0,-0.5"/>
<text text-anchor="start" x="8" y="-89.5" font-family="Helvetica,sans-Serif" font-size="10.00">beseenium.view.outputHandlers.compositors.</text>
<text text-anchor="middle" x="118" y="-78.5" font-family="Helvetica,sans-Serif" font-size="10.00">ExecuteCompositor</text>
<polyline fill="none" stroke="black" points="0,-71.5 236,-71.5 "/>
<text text-anchor="middle" x="118" y="-59.5" font-family="Helvetica,sans-Serif" font-size="10.00"> </text>
<polyline fill="none" stroke="black" points="0,-52.5 236,-52.5 "/>
<text text-anchor="start" x="8" y="-40.5" font-family="Helvetica,sans-Serif" font-size="10.00">+ ExecuteCompositor()</text>
<text text-anchor="start" x="8" y="-29.5" font-family="Helvetica,sans-Serif" font-size="10.00">+ composite()</text>
<text text-anchor="start" x="8" y="-18.5" font-family="Helvetica,sans-Serif" font-size="10.00">&#45; format()</text>
<text text-anchor="start" x="8" y="-7.5" font-family="Helvetica,sans-Serif" font-size="10.00">&#45; finalFormat()</text>
</g>
<!-- Node2 -->
<g id="node2" class="node"><title>Node2</title>
<g id="a_node2"><a xlink:href="a00010.html" target="_top" xlink:title="Copyright(C) 2015 Jan P.C. ">
<polygon fill="white" stroke="black" points="0,-139.5 0,-218.5 236,-218.5 236,-139.5 0,-139.5"/>
<text text-anchor="start" x="8" y="-206.5" font-family="Helvetica,sans-Serif" font-size="10.00">beseenium.view.outputHandlers.compositors.</text>
<text text-anchor="middle" x="118" y="-195.5" font-family="Helvetica,sans-Serif" font-size="10.00">AbstractCompositor</text>
<polyline fill="none" stroke="black" points="0,-188.5 236,-188.5 "/>
<text text-anchor="middle" x="118" y="-176.5" font-family="Helvetica,sans-Serif" font-size="10.00"> </text>
<polyline fill="none" stroke="black" points="0,-169.5 236,-169.5 "/>
<text text-anchor="start" x="8" y="-157.5" font-family="Helvetica,sans-Serif" font-size="10.00">~ composite()</text>
<text text-anchor="start" x="8" y="-146.5" font-family="Helvetica,sans-Serif" font-size="10.00"># AbstractCompositor()</text>
</a>
</g>
</g>
<!-- Node2&#45;&gt;Node1 -->
<g id="edge1" class="edge"><title>Node2&#45;&gt;Node1</title>
<path fill="none" stroke="midnightblue" d="M118,-128.889C118,-119.939 118,-110.596 118,-101.632"/>
<polygon fill="none" stroke="midnightblue" points="114.5,-129.168 118,-139.168 121.5,-129.168 114.5,-129.168"/>
</g>
<!-- Node3 -->
<g id="node3" class="node"><title>Node3</title>
<g id="a_node3"><a xlink:href="a00011.html" target="_top" xlink:title="Interface that all output formatter classes should subscribe to, allowing the servlet to request an a...">
<polygon fill="white" stroke="black" points="4.5,-266.5 4.5,-367.5 231.5,-367.5 231.5,-266.5 4.5,-266.5"/>
<text text-anchor="start" x="12.5" y="-355.5" font-family="Helvetica,sans-Serif" font-size="10.00">beseenium.view.outputHandlers.formatters.</text>
<text text-anchor="middle" x="118" y="-344.5" font-family="Helvetica,sans-Serif" font-size="10.00">AbstractOutputFormatter</text>
<polyline fill="none" stroke="black" points="4.5,-337.5 231.5,-337.5 "/>
<text text-anchor="middle" x="118" y="-325.5" font-family="Helvetica,sans-Serif" font-size="10.00"> </text>
<polyline fill="none" stroke="black" points="4.5,-318.5 231.5,-318.5 "/>
<text text-anchor="start" x="12.5" y="-306.5" font-family="Helvetica,sans-Serif" font-size="10.00">+ asKeyVal()</text>
<text text-anchor="start" x="12.5" y="-295.5" font-family="Helvetica,sans-Serif" font-size="10.00">+ asKVset()</text>
<text text-anchor="start" x="12.5" y="-284.5" font-family="Helvetica,sans-Serif" font-size="10.00">+ asKVsuperSet()</text>
<text text-anchor="start" x="12.5" y="-273.5" font-family="Helvetica,sans-Serif" font-size="10.00">+ finalForm()</text>
</a>
</g>
</g>
<!-- Node3&#45;&gt;Node2 -->
<g id="edge2" class="edge"><title>Node3&#45;&gt;Node2</title>
<path fill="none" stroke="#404040" d="M118,-266.131C118,-254.662 118,-242.452 118,-230.938"/>
<polygon fill="none" stroke="#404040" points="118,-230.787 114,-224.787 118,-218.787 122,-224.787 118,-230.787"/>
<text text-anchor="middle" x="147" y="-240" font-family="Helvetica,sans-Serif" font-size="10.00"> #formatter</text>
</g>
</g>
</svg>
