<?xml version="1.0" encoding="UTF-8" standalone="no"?>
<!DOCTYPE svg PUBLIC "-//W3C//DTD SVG 1.1//EN"
 "http://www.w3.org/Graphics/SVG/1.1/DTD/svg11.dtd">
<!-- Generated by graphviz version 2.38.0 (20140413.2041)
 -->
<!-- Title: beseenium.view.outputHandlers.compositors.RootCompositor Pages: 1 -->
<svg width="494pt" height="364pt"
 viewBox="0.00 0.00 494.00 364.00" xmlns="http://www.w3.org/2000/svg" xmlns:xlink="http://www.w3.org/1999/xlink">
<g id="graph0" class="graph" transform="scale(1 1) rotate(0) translate(4 360)">
<title>beseenium.view.outputHandlers.compositors.RootCompositor</title>
<polygon fill="white" stroke="none" points="-4,4 -4,-360 490,-360 490,4 -4,4"/>
<!-- Node1 -->
<g id="node1" class="node"><title>Node1</title>
<polygon fill="#bfbfbf" stroke="black" points="189,-0.5 189,-79.5 425,-79.5 425,-0.5 189,-0.5"/>
<text text-anchor="start" x="197" y="-67.5" font-family="Helvetica,sans-Serif" font-size="10.00">beseenium.view.outputHandlers.compositors.</text>
<text text-anchor="middle" x="307" y="-56.5" font-family="Helvetica,sans-Serif" font-size="10.00">RootCompositor</text>
<polyline fill="none" stroke="black" points="189,-49.5 425,-49.5 "/>
<text text-anchor="middle" x="307" y="-37.5" font-family="Helvetica,sans-Serif" font-size="10.00"> </text>
<polyline fill="none" stroke="black" points="189,-30.5 425,-30.5 "/>
<text text-anchor="start" x="197" y="-18.5" font-family="Helvetica,sans-Serif" font-size="10.00">+ RootCompositor()</text>
<text text-anchor="start" x="197" y="-7.5" font-family="Helvetica,sans-Serif" font-size="10.00">+ composite()</text>
</g>
<!-- Node2 -->
<g id="node2" class="node"><title>Node2</title>
<g id="a_node2"><a xlink:href="a00010.html" target="_top" xlink:title="Copyright(C) 2015 Jan P.C. ">
<polygon fill="white" stroke="black" points="0,-127.5 0,-206.5 236,-206.5 236,-127.5 0,-127.5"/>
<text text-anchor="start" x="8" y="-194.5" font-family="Helvetica,sans-Serif" font-size="10.00">beseenium.view.outputHandlers.compositors.</text>
<text text-anchor="middle" x="118" y="-183.5" font-family="Helvetica,sans-Serif" font-size="10.00">AbstractCompositor</text>
<polyline fill="none" stroke="black" points="0,-176.5 236,-176.5 "/>
<text text-anchor="middle" x="118" y="-164.5" font-family="Helvetica,sans-Serif" font-size="10.00"> </text>
<polyline fill="none" stroke="black" points="0,-157.5 236,-157.5 "/>
<text text-anchor="start" x="8" y="-145.5" font-family="Helvetica,sans-Serif" font-size="10.00">~ composite()</text>
<text text-anchor="start" x="8" y="-134.5" font-family="Helvetica,sans-Serif" font-size="10.00"># AbstractCompositor()</text>
</a>
</g>
</g>
<!-- Node2&#45;&gt;Node1 -->
<g id="edge1" class="edge"><title>Node2&#45;&gt;Node1</title>
<path fill="none" stroke="midnightblue" d="M184.738,-121.861C205.579,-108.077 228.398,-92.9857 248.619,-79.6121"/>
<polygon fill="none" stroke="midnightblue" points="182.658,-119.04 176.248,-127.476 186.52,-124.879 182.658,-119.04"/>
</g>
<!-- Node3 -->
<g id="node3" class="node"><title>Node3</title>
<g id="a_node3"><a xlink:href="a00011.html" target="_top" xlink:title="Interface that all output formatter classes should subscribe to, allowing the servlet to request an a...">
<polygon fill="white" stroke="black" points="4.5,-254.5 4.5,-355.5 231.5,-355.5 231.5,-254.5 4.5,-254.5"/>
<text text-anchor="start" x="12.5" y="-343.5" font-family="Helvetica,sans-Serif" font-size="10.00">beseenium.view.outputHandlers.formatters.</text>
<text text-anchor="middle" x="118" y="-332.5" font-family="Helvetica,sans-Serif" font-size="10.00">AbstractOutputFormatter</text>
<polyline fill="none" stroke="black" points="4.5,-325.5 231.5,-325.5 "/>
<text text-anchor="middle" x="118" y="-313.5" font-family="Helvetica,sans-Serif" font-size="10.00"> </text>
<polyline fill="none" stroke="black" points="4.5,-306.5 231.5,-306.5 "/>
<text text-anchor="start" x="12.5" y="-294.5" font-family="Helvetica,sans-Serif" font-size="10.00">+ asKeyVal()</text>
<text text-anchor="start" x="12.5" y="-283.5" font-family="Helvetica,sans-Serif" font-size="10.00">+ asKVset()</text>
<text text-anchor="start" x="12.5" y="-272.5" font-family="Helvetica,sans-Serif" font-size="10.00">+ asKVsuperSet()</text>
<text text-anchor="start" x="12.5" y="-261.5" font-family="Helvetica,sans-Serif" font-size="10.00">+ finalForm()</text>
</a>
</g>
</g>
<!-- Node3&#45;&gt;Node2 -->
<g id="edge2" class="edge"><title>Node3&#45;&gt;Node2</title>
<path fill="none" stroke="#404040" d="M118,-254.131C118,-242.662 118,-230.452 118,-218.938"/>
<polygon fill="none" stroke="#404040" points="118,-218.787 114,-212.787 118,-206.787 122,-212.787 118,-218.787"/>
<text text-anchor="middle" x="147" y="-228" font-family="Helvetica,sans-Serif" font-size="10.00"> #formatter</text>
</g>
<!-- Node4 -->
<g id="node4" class="node"><title>Node4</title>
<polygon fill="white" stroke="#bfbfbf" points="254,-133 254,-201 486,-201 486,-133 254,-133"/>
<text text-anchor="start" x="262" y="-189" font-family="Helvetica,sans-Serif" font-size="10.00">Map&lt; String, beseenium.view.output</text>
<text text-anchor="middle" x="370" y="-178" font-family="Helvetica,sans-Serif" font-size="10.00">Handlers.compositors.AbstractCompositor &gt;</text>
<polyline fill="none" stroke="#bfbfbf" points="254,-171 486,-171 "/>
<text text-anchor="middle" x="370" y="-159" font-family="Helvetica,sans-Serif" font-size="10.00"> </text>
<polyline fill="none" stroke="#bfbfbf" points="254,-152 486,-152 "/>
<text text-anchor="middle" x="370" y="-140" font-family="Helvetica,sans-Serif" font-size="10.00"> </text>
</g>
<!-- Node4&#45;&gt;Node1 -->
<g id="edge3" class="edge"><title>Node4&#45;&gt;Node1</title>
<path fill="none" stroke="#404040" d="M353.283,-132.83C346.782,-119.932 339.195,-104.879 332.067,-90.7363"/>
<polygon fill="none" stroke="#404040" points="331.88,-90.364 325.607,-86.8063 326.479,-79.6481 332.751,-83.2057 331.88,-90.364"/>
<text text-anchor="middle" x="381" y="-101" font-family="Helvetica,sans-Serif" font-size="10.00"> &#45;compositorMap</text>
</g>
</g>
</svg>
