<?xml version="1.0" encoding="UTF-8" standalone="no"?>
<!DOCTYPE svg PUBLIC "-//W3C//DTD SVG 1.1//EN"
 "http://www.w3.org/Graphics/SVG/1.1/DTD/svg11.dtd">
<!-- Generated by graphviz version 2.38.0 (20140413.2041)
 -->
<!-- Title: ActionFactory Pages: 1 -->
<svg width="563pt" height="111pt"
 viewBox="0.00 0.00 563.00 111.00" xmlns="http://www.w3.org/2000/svg" xmlns:xlink="http://www.w3.org/1999/xlink">
<g id="graph0" class="graph" transform="scale(1 1) rotate(0) translate(4 107)">
<title>ActionFactory</title>
<polygon fill="white" stroke="none" points="-4,4 -4,-107 559,-107 559,4 -4,4"/>
<g id="clust1" class="cluster"><title>clusterdir_f870e6710350f8c9dcf68f1cffa8808d</title>
<g id="a_clust1"><a xlink:href="dir_f870e6710350f8c9dcf68f1cffa8808d.html" target="_top" xlink:title="controller">
<polygon fill="#ddddee" stroke="black" points="8,-8 8,-95 547,-95 547,-8 8,-8"/>
<text text-anchor="middle" x="277.5" y="-83" font-family="Helvetica,sans-Serif" font-size="10.00">controller</text>
</a>
</g>
</g>
<g id="clust2" class="cluster"><title>clusterdir_5103ac33ce189e2c9e6e45299d495e4c</title>
<g id="a_clust2"><a xlink:href="dir_5103ac33ce189e2c9e6e45299d495e4c.html" target="_top">
<polygon fill="#eeeeff" stroke="black" points="16,-16 16,-68 539,-68 539,-16 16,-16"/>
</a>
</g>
</g>
<!-- dir_5103ac33ce189e2c9e6e45299d495e4c -->
<g id="node1" class="node"><title>dir_5103ac33ce189e2c9e6e45299d495e4c</title>
<text text-anchor="middle" x="490" y="-39.5" font-family="Helvetica,sans-Serif" font-size="10.00">ActionFactory</text>
</g>
<!-- dir_ea34c5bb8fecfb725bfc1772b2869eef -->
<g id="node2" class="node"><title>dir_ea34c5bb8fecfb725bfc1772b2869eef</title>
<g id="a_node2"><a xlink:href="dir_ea34c5bb8fecfb725bfc1772b2869eef.html" target="_top" xlink:title="elementActions">
<polygon fill="white" stroke="black" points="431,-60 339,-60 339,-24 431,-24 431,-60"/>
<text text-anchor="middle" x="385" y="-39.5" font-family="Helvetica,sans-Serif" font-size="10.00">elementActions</text>
</a>
</g>
</g>
<!-- dir_7edfb0fb576ade402a5ff3e8b5e13e84 -->
<g id="node3" class="node"><title>dir_7edfb0fb576ade402a5ff3e8b5e13e84</title>
<g id="a_node3"><a xlink:href="dir_7edfb0fb576ade402a5ff3e8b5e13e84.html" target="_top" xlink:title="findElementsBy">
<polygon fill="white" stroke="black" points="320.5,-60 229.5,-60 229.5,-24 320.5,-24 320.5,-60"/>
<text text-anchor="middle" x="275" y="-39.5" font-family="Helvetica,sans-Serif" font-size="10.00">findElementsBy</text>
</a>
</g>
</g>
<!-- dir_38aa9c60318682562e9c12ca83226463 -->
<g id="node4" class="node"><title>dir_38aa9c60318682562e9c12ca83226463</title>
<g id="a_node4"><a xlink:href="dir_38aa9c60318682562e9c12ca83226463.html" target="_top" xlink:title="navigateActions">
<polygon fill="white" stroke="black" points="211.5,-60 118.5,-60 118.5,-24 211.5,-24 211.5,-60"/>
<text text-anchor="middle" x="165" y="-39.5" font-family="Helvetica,sans-Serif" font-size="10.00">navigateActions</text>
</a>
</g>
</g>
<!-- dir_20ceaf6d976831f909692d9b6e3ab214 -->
<g id="node5" class="node"><title>dir_20ceaf6d976831f909692d9b6e3ab214</title>
<g id="a_node5"><a xlink:href="dir_20ceaf6d976831f909692d9b6e3ab214.html" target="_top" xlink:title="pageActions">
<polygon fill="white" stroke="black" points="100,-60 24,-60 24,-24 100,-24 100,-60"/>
<text text-anchor="middle" x="62" y="-39.5" font-family="Helvetica,sans-Serif" font-size="10.00">pageActions</text>
</a>
</g>
</g>
</g>
</svg>
