<?xml version="1.0" encoding="UTF-8" standalone="no"?>
<!DOCTYPE svg PUBLIC "-//W3C//DTD SVG 1.1//EN"
 "http://www.w3.org/Graphics/SVG/1.1/DTD/svg11.dtd">
<!-- Generated by graphviz version 2.38.0 (20140413.2041)
 -->
<!-- Title: controller Pages: 1 -->
<svg width="342pt" height="111pt"
 viewBox="0.00 0.00 342.00 111.00" xmlns="http://www.w3.org/2000/svg" xmlns:xlink="http://www.w3.org/1999/xlink">
<g id="graph0" class="graph" transform="scale(1 1) rotate(0) translate(4 107)">
<title>controller</title>
<polygon fill="white" stroke="none" points="-4,4 -4,-107 338,-107 338,4 -4,4"/>
<g id="clust1" class="cluster"><title>clusterdir_c3aa92b7dbb40c27fcffaccb7f9ad0b0</title>
<g id="a_clust1"><a xlink:href="dir_c3aa92b7dbb40c27fcffaccb7f9ad0b0.html" target="_top" xlink:title="beseenium">
<polygon fill="#ddddee" stroke="black" points="8,-8 8,-95 326,-95 326,-8 8,-8"/>
<text text-anchor="middle" x="167" y="-83" font-family="Helvetica,sans-Serif" font-size="10.00">beseenium</text>
</a>
</g>
</g>
<g id="clust2" class="cluster"><title>clusterdir_f870e6710350f8c9dcf68f1cffa8808d</title>
<g id="a_clust2"><a xlink:href="dir_f870e6710350f8c9dcf68f1cffa8808d.html" target="_top">
<polygon fill="#eeeeff" stroke="black" points="16,-16 16,-68 318,-68 318,-16 16,-16"/>
</a>
</g>
</g>
<!-- dir_f870e6710350f8c9dcf68f1cffa8808d -->
<g id="node1" class="node"><title>dir_f870e6710350f8c9dcf68f1cffa8808d</title>
<text text-anchor="middle" x="279" y="-39.5" font-family="Helvetica,sans-Serif" font-size="10.00">controller</text>
</g>
<!-- dir_5bbe2df8b9144465e599bb26fc8ecf62 -->
<g id="node2" class="node"><title>dir_5bbe2df8b9144465e599bb26fc8ecf62</title>
<g id="a_node2"><a xlink:href="dir_5bbe2df8b9144465e599bb26fc8ecf62.html" target="_top" xlink:title="ActionDataFactory">
<polygon fill="white" stroke="black" points="229.5,-60 124.5,-60 124.5,-24 229.5,-24 229.5,-60"/>
<text text-anchor="middle" x="177" y="-39.5" font-family="Helvetica,sans-Serif" font-size="10.00">ActionDataFactory</text>
</a>
</g>
</g>
<!-- dir_5103ac33ce189e2c9e6e45299d495e4c -->
<g id="node3" class="node"><title>dir_5103ac33ce189e2c9e6e45299d495e4c</title>
<g id="a_node3"><a xlink:href="dir_5103ac33ce189e2c9e6e45299d495e4c.html" target="_top" xlink:title="ActionFactory">
<polygon fill="white" stroke="red" points="106,-60 24,-60 24,-24 106,-24 106,-60"/>
<text text-anchor="middle" x="65" y="-39.5" font-family="Helvetica,sans-Serif" font-size="10.00">ActionFactory</text>
</a>
</g>
</g>
</g>
</svg>
