<?xml version="1.0" encoding="UTF-8" standalone="no"?>
<!DOCTYPE svg PUBLIC "-//W3C//DTD SVG 1.1//EN"
 "http://www.w3.org/Graphics/SVG/1.1/DTD/svg11.dtd">
<!-- Generated by graphviz version 2.38.0 (20140413.2041)
 -->
<!-- Title: model Pages: 1 -->
<svg width="342pt" height="111pt"
 viewBox="0.00 0.00 342.00 111.00" xmlns="http://www.w3.org/2000/svg" xmlns:xlink="http://www.w3.org/1999/xlink">
<g id="graph0" class="graph" transform="scale(1 1) rotate(0) translate(4 107)">
<title>model</title>
<polygon fill="white" stroke="none" points="-4,4 -4,-107 338,-107 338,4 -4,4"/>
<g id="clust1" class="cluster"><title>clusterdir_c3aa92b7dbb40c27fcffaccb7f9ad0b0</title>
<g id="a_clust1"><a xlink:href="dir_c3aa92b7dbb40c27fcffaccb7f9ad0b0.html" target="_top" xlink:title="beseenium">
<polygon fill="#ddddee" stroke="black" points="8,-8 8,-95 326,-95 326,-8 8,-8"/>
<text text-anchor="middle" x="167" y="-83" font-family="Helvetica,sans-Serif" font-size="10.00">beseenium</text>
</a>
</g>
</g>
<g id="clust2" class="cluster"><title>clusterdir_a143349b75ba2ffaa5efaa578520d118</title>
<g id="a_clust2"><a xlink:href="dir_a143349b75ba2ffaa5efaa578520d118.html" target="_top">
<polygon fill="#eeeeff" stroke="black" points="16,-16 16,-68 318,-68 318,-16 16,-16"/>
</a>
</g>
</g>
<!-- dir_a143349b75ba2ffaa5efaa578520d118 -->
<g id="node1" class="node"><title>dir_a143349b75ba2ffaa5efaa578520d118</title>
<text text-anchor="middle" x="283" y="-39.5" font-family="Helvetica,sans-Serif" font-size="10.00">model</text>
</g>
<!-- dir_bb80e465773810ac47fcf9fb349090dd -->
<g id="node2" class="node"><title>dir_bb80e465773810ac47fcf9fb349090dd</title>
<g id="a_node2"><a xlink:href="dir_bb80e465773810ac47fcf9fb349090dd.html" target="_top" xlink:title="action">
<polygon fill="white" stroke="red" points="238,-60 184,-60 184,-24 238,-24 238,-60"/>
<text text-anchor="middle" x="211" y="-39.5" font-family="Helvetica,sans-Serif" font-size="10.00">action</text>
</a>
</g>
</g>
<!-- dir_1a55e67bf54ad3429266dd13e9bf36f0 -->
<g id="node3" class="node"><title>dir_1a55e67bf54ad3429266dd13e9bf36f0</title>
<g id="a_node3"><a xlink:href="dir_1a55e67bf54ad3429266dd13e9bf36f0.html" target="_top" xlink:title="actionData">
<polygon fill="white" stroke="black" points="165.5,-60 96.5,-60 96.5,-24 165.5,-24 165.5,-60"/>
<text text-anchor="middle" x="131" y="-39.5" font-family="Helvetica,sans-Serif" font-size="10.00">actionData</text>
</a>
</g>
</g>
<!-- dir_14d2872d9f4394d49922489c6d41d27a -->
<g id="node4" class="node"><title>dir_14d2872d9f4394d49922489c6d41d27a</title>
<g id="a_node4"><a xlink:href="dir_14d2872d9f4394d49922489c6d41d27a.html" target="_top" xlink:title="helpers">
<polygon fill="white" stroke="black" points="78,-60 24,-60 24,-24 78,-24 78,-60"/>
<text text-anchor="middle" x="51" y="-39.5" font-family="Helvetica,sans-Serif" font-size="10.00">helpers</text>
</a>
</g>
</g>
</g>
</svg>
