<?xml version="1.0" encoding="UTF-8" standalone="no"?>
<!DOCTYPE svg PUBLIC "-//W3C//DTD SVG 1.1//EN"
 "http://www.w3.org/Graphics/SVG/1.1/DTD/svg11.dtd">
<!-- Generated by graphviz version 2.38.0 (20140413.2041)
 -->
<!-- Title: exceptions Pages: 1 -->
<svg width="485pt" height="111pt"
 viewBox="0.00 0.00 485.00 111.00" xmlns="http://www.w3.org/2000/svg" xmlns:xlink="http://www.w3.org/1999/xlink">
<g id="graph0" class="graph" transform="scale(1 1) rotate(0) translate(4 107)">
<title>exceptions</title>
<polygon fill="white" stroke="none" points="-4,4 -4,-107 481,-107 481,4 -4,4"/>
<g id="clust1" class="cluster"><title>clusterdir_c3aa92b7dbb40c27fcffaccb7f9ad0b0</title>
<g id="a_clust1"><a xlink:href="dir_c3aa92b7dbb40c27fcffaccb7f9ad0b0.html" target="_top" xlink:title="beseenium">
<polygon fill="#ddddee" stroke="black" points="8,-8 8,-95 469,-95 469,-8 8,-8"/>
<text text-anchor="middle" x="238.5" y="-83" font-family="Helvetica,sans-Serif" font-size="10.00">beseenium</text>
</a>
</g>
</g>
<g id="clust2" class="cluster"><title>clusterdir_d177027ee475308bd68cc7f3a47e10e9</title>
<g id="a_clust2"><a xlink:href="dir_d177027ee475308bd68cc7f3a47e10e9.html" target="_top">
<polygon fill="#eeeeff" stroke="black" points="16,-16 16,-68 461,-68 461,-16 16,-16"/>
</a>
</g>
</g>
<!-- dir_d177027ee475308bd68cc7f3a47e10e9 -->
<g id="node1" class="node"><title>dir_d177027ee475308bd68cc7f3a47e10e9</title>
<text text-anchor="middle" x="419" y="-39.5" font-family="Helvetica,sans-Serif" font-size="10.00">exceptions</text>
</g>
<!-- dir_178d7cdaa5f62440f138cb3e9e13549d -->
<g id="node2" class="node"><title>dir_178d7cdaa5f62440f138cb3e9e13549d</title>
<g id="a_node2"><a xlink:href="dir_178d7cdaa5f62440f138cb3e9e13549d.html" target="_top" xlink:title="actionDataExceptions">
<polygon fill="white" stroke="black" points="366.5,-60 245.5,-60 245.5,-24 366.5,-24 366.5,-60"/>
<text text-anchor="middle" x="306" y="-39.5" font-family="Helvetica,sans-Serif" font-size="10.00">actionDataExceptions</text>
</a>
</g>
</g>
<!-- dir_58237547d5618ae9dd3b7735780b1594 -->
<g id="node3" class="node"><title>dir_58237547d5618ae9dd3b7735780b1594</title>
<g id="a_node3"><a xlink:href="dir_58237547d5618ae9dd3b7735780b1594.html" target="_top" xlink:title="actionExceptions">
<polygon fill="white" stroke="black" points="228,-60 130,-60 130,-24 228,-24 228,-60"/>
<text text-anchor="middle" x="179" y="-39.5" font-family="Helvetica,sans-Serif" font-size="10.00">actionExceptions</text>
</a>
</g>
</g>
<!-- dir_da8e237ce9490d2c259f86fdcfd7fe98 -->
<g id="node4" class="node"><title>dir_da8e237ce9490d2c259f86fdcfd7fe98</title>
<g id="a_node4"><a xlink:href="dir_da8e237ce9490d2c259f86fdcfd7fe98.html" target="_top" xlink:title="testExceptions">
<polygon fill="white" stroke="black" points="111.5,-60 24.5,-60 24.5,-24 111.5,-24 111.5,-60"/>
<text text-anchor="middle" x="68" y="-39.5" font-family="Helvetica,sans-Serif" font-size="10.00">testExceptions</text>
</a>
</g>
</g>
</g>
</svg>
