<?xml version="1.0" encoding="UTF-8" standalone="no"?>
<!DOCTYPE svg PUBLIC "-//W3C//DTD SVG 1.1//EN"
 "http://www.w3.org/Graphics/SVG/1.1/DTD/svg11.dtd">
<!-- Generated by graphviz version 2.38.0 (20140413.2041)
 -->
<!-- Title: beseenium Pages: 1 -->
<svg width="508pt" height="111pt"
 viewBox="0.00 0.00 508.00 111.00" xmlns="http://www.w3.org/2000/svg" xmlns:xlink="http://www.w3.org/1999/xlink">
<g id="graph0" class="graph" transform="scale(1 1) rotate(0) translate(4 107)">
<title>beseenium</title>
<polygon fill="white" stroke="none" points="-4,4 -4,-107 504,-107 504,4 -4,4"/>
<g id="clust1" class="cluster"><title>clusterdir_68267d1309a1af8e8297ef4c3efbcdba</title>
<g id="a_clust1"><a xlink:href="dir_68267d1309a1af8e8297ef4c3efbcdba.html" target="_top" xlink:title="src">
<polygon fill="#ddddee" stroke="black" points="8,-8 8,-95 492,-95 492,-8 8,-8"/>
<text text-anchor="middle" x="250" y="-83" font-family="Helvetica,sans-Serif" font-size="10.00">src</text>
</a>
</g>
</g>
<g id="clust2" class="cluster"><title>clusterdir_c3aa92b7dbb40c27fcffaccb7f9ad0b0</title>
<g id="a_clust2"><a xlink:href="dir_c3aa92b7dbb40c27fcffaccb7f9ad0b0.html" target="_top">
<polygon fill="#eeeeff" stroke="black" points="16,-16 16,-68 484,-68 484,-16 16,-16"/>
</a>
</g>
</g>
<!-- dir_c3aa92b7dbb40c27fcffaccb7f9ad0b0 -->
<g id="node1" class="node"><title>dir_c3aa92b7dbb40c27fcffaccb7f9ad0b0</title>
<text text-anchor="middle" x="441" y="-39.5" font-family="Helvetica,sans-Serif" font-size="10.00">beseenium</text>
</g>
<!-- dir_f870e6710350f8c9dcf68f1cffa8808d -->
<g id="node2" class="node"><title>dir_f870e6710350f8c9dcf68f1cffa8808d</title>
<g id="a_node2"><a xlink:href="dir_f870e6710350f8c9dcf68f1cffa8808d.html" target="_top" xlink:title="controller">
<polygon fill="white" stroke="red" points="388,-60 326,-60 326,-24 388,-24 388,-60"/>
<text text-anchor="middle" x="357" y="-39.5" font-family="Helvetica,sans-Serif" font-size="10.00">controller</text>
</a>
</g>
</g>
<!-- dir_d177027ee475308bd68cc7f3a47e10e9 -->
<g id="node3" class="node"><title>dir_d177027ee475308bd68cc7f3a47e10e9</title>
<g id="a_node3"><a xlink:href="dir_d177027ee475308bd68cc7f3a47e10e9.html" target="_top" xlink:title="exceptions">
<polygon fill="white" stroke="red" points="308,-60 240,-60 240,-24 308,-24 308,-60"/>
<text text-anchor="middle" x="274" y="-39.5" font-family="Helvetica,sans-Serif" font-size="10.00">exceptions</text>
</a>
</g>
</g>
<!-- dir_2915ee7811b8f2565ec2a2bf761e4718 -->
<g id="node4" class="node"><title>dir_2915ee7811b8f2565ec2a2bf761e4718</title>
<g id="a_node4"><a xlink:href="dir_2915ee7811b8f2565ec2a2bf761e4718.html" target="_top" xlink:title="helpers">
<polygon fill="white" stroke="black" points="222,-60 168,-60 168,-24 222,-24 222,-60"/>
<text text-anchor="middle" x="195" y="-39.5" font-family="Helvetica,sans-Serif" font-size="10.00">helpers</text>
</a>
</g>
</g>
<!-- dir_a143349b75ba2ffaa5efaa578520d118 -->
<g id="node5" class="node"><title>dir_a143349b75ba2ffaa5efaa578520d118</title>
<g id="a_node5"><a xlink:href="dir_a143349b75ba2ffaa5efaa578520d118.html" target="_top" xlink:title="model">
<polygon fill="white" stroke="red" points="150,-60 96,-60 96,-24 150,-24 150,-60"/>
<text text-anchor="middle" x="123" y="-39.5" font-family="Helvetica,sans-Serif" font-size="10.00">model</text>
</a>
</g>
</g>
<!-- dir_6f67b778e642d7f003b1565c8b5f8bdf -->
<g id="node6" class="node"><title>dir_6f67b778e642d7f003b1565c8b5f8bdf</title>
<g id="a_node6"><a xlink:href="dir_6f67b778e642d7f003b1565c8b5f8bdf.html" target="_top" xlink:title="view">
<polygon fill="white" stroke="red" points="78,-60 24,-60 24,-24 78,-24 78,-60"/>
<text text-anchor="middle" x="51" y="-39.5" font-family="Helvetica,sans-Serif" font-size="10.00">view</text>
</a>
</g>
</g>
</g>
</svg>
