<?xml version="1.0" encoding="UTF-8" standalone="no"?>
<!DOCTYPE svg PUBLIC "-//W3C//DTD SVG 1.1//EN"
 "http://www.w3.org/Graphics/SVG/1.1/DTD/svg11.dtd">
<!-- Generated by graphviz version 2.38.0 (20140413.2041)
 -->
<!-- Title: view Pages: 1 -->
<svg width="512pt" height="111pt"
 viewBox="0.00 0.00 512.00 111.00" xmlns="http://www.w3.org/2000/svg" xmlns:xlink="http://www.w3.org/1999/xlink">
<g id="graph0" class="graph" transform="scale(1 1) rotate(0) translate(4 107)">
<title>view</title>
<polygon fill="white" stroke="none" points="-4,4 -4,-107 508,-107 508,4 -4,4"/>
<g id="clust1" class="cluster"><title>clusterdir_c3aa92b7dbb40c27fcffaccb7f9ad0b0</title>
<g id="a_clust1"><a xlink:href="dir_c3aa92b7dbb40c27fcffaccb7f9ad0b0.html" target="_top" xlink:title="beseenium">
<polygon fill="#ddddee" stroke="black" points="8,-8 8,-95 496,-95 496,-8 8,-8"/>
<text text-anchor="middle" x="252" y="-83" font-family="Helvetica,sans-Serif" font-size="10.00">beseenium</text>
</a>
</g>
</g>
<g id="clust2" class="cluster"><title>clusterdir_6f67b778e642d7f003b1565c8b5f8bdf</title>
<g id="a_clust2"><a xlink:href="dir_6f67b778e642d7f003b1565c8b5f8bdf.html" target="_top">
<polygon fill="#eeeeff" stroke="black" points="16,-16 16,-68 488,-68 488,-16 16,-16"/>
</a>
</g>
</g>
<!-- dir_6f67b778e642d7f003b1565c8b5f8bdf -->
<g id="node1" class="node"><title>dir_6f67b778e642d7f003b1565c8b5f8bdf</title>
<text text-anchor="middle" x="453" y="-39.5" font-family="Helvetica,sans-Serif" font-size="10.00">view</text>
</g>
<!-- dir_50d5bac53a27960ba5881699e369f52a -->
<g id="node2" class="node"><title>dir_50d5bac53a27960ba5881699e369f52a</title>
<g id="a_node2"><a xlink:href="dir_50d5bac53a27960ba5881699e369f52a.html" target="_top" xlink:title="helpers">
<polygon fill="white" stroke="black" points="408,-60 354,-60 354,-24 408,-24 408,-60"/>
<text text-anchor="middle" x="381" y="-39.5" font-family="Helvetica,sans-Serif" font-size="10.00">helpers</text>
</a>
</g>
</g>
<!-- dir_6b5e86fabecd0c4513b88847fb2ad3b0 -->
<g id="node3" class="node"><title>dir_6b5e86fabecd0c4513b88847fb2ad3b0</title>
<g id="a_node3"><a xlink:href="dir_6b5e86fabecd0c4513b88847fb2ad3b0.html" target="_top" xlink:title="inputHandlers">
<polygon fill="white" stroke="red" points="335.5,-60 252.5,-60 252.5,-24 335.5,-24 335.5,-60"/>
<text text-anchor="middle" x="294" y="-39.5" font-family="Helvetica,sans-Serif" font-size="10.00">inputHandlers</text>
</a>
</g>
</g>
<!-- dir_9e924e93b90eacfe36265cf995e80c64 -->
<g id="node4" class="node"><title>dir_9e924e93b90eacfe36265cf995e80c64</title>
<g id="a_node4"><a xlink:href="dir_9e924e93b90eacfe36265cf995e80c64.html" target="_top" xlink:title="outputFormatters">
<polygon fill="white" stroke="black" points="234.5,-60 133.5,-60 133.5,-24 234.5,-24 234.5,-60"/>
<text text-anchor="middle" x="184" y="-39.5" font-family="Helvetica,sans-Serif" font-size="10.00">outputFormatters</text>
</a>
</g>
</g>
<!-- dir_61a8b099e71abd8cee6031c28cc171b7 -->
<g id="node5" class="node"><title>dir_61a8b099e71abd8cee6031c28cc171b7</title>
<g id="a_node5"><a xlink:href="dir_61a8b099e71abd8cee6031c28cc171b7.html" target="_top" xlink:title="outputHandlers">
<polygon fill="white" stroke="red" points="115.5,-60 24.5,-60 24.5,-24 115.5,-24 115.5,-60"/>
<text text-anchor="middle" x="70" y="-39.5" font-family="Helvetica,sans-Serif" font-size="10.00">outputHandlers</text>
</a>
</g>
</g>
</g>
</svg>
