<?xml version="1.0" encoding="UTF-8" standalone="no"?>
<!DOCTYPE svg PUBLIC "-//W3C//DTD SVG 1.1//EN"
 "http://www.w3.org/Graphics/SVG/1.1/DTD/svg11.dtd">
<!-- Generated by graphviz version 2.38.0 (20140413.2041)
 -->
<!-- Title: action Pages: 1 -->
<svg width="635pt" height="111pt"
 viewBox="0.00 0.00 635.00 111.00" xmlns="http://www.w3.org/2000/svg" xmlns:xlink="http://www.w3.org/1999/xlink">
<g id="graph0" class="graph" transform="scale(1 1) rotate(0) translate(4 107)">
<title>action</title>
<polygon fill="white" stroke="none" points="-4,4 -4,-107 631,-107 631,4 -4,4"/>
<g id="clust1" class="cluster"><title>clusterdir_a143349b75ba2ffaa5efaa578520d118</title>
<g id="a_clust1"><a xlink:href="dir_a143349b75ba2ffaa5efaa578520d118.html" target="_top" xlink:title="model">
<polygon fill="#ddddee" stroke="black" points="8,-8 8,-95 619,-95 619,-8 8,-8"/>
<text text-anchor="middle" x="313.5" y="-83" font-family="Helvetica,sans-Serif" font-size="10.00">model</text>
</a>
</g>
</g>
<g id="clust2" class="cluster"><title>clusterdir_bb80e465773810ac47fcf9fb349090dd</title>
<g id="a_clust2"><a xlink:href="dir_bb80e465773810ac47fcf9fb349090dd.html" target="_top">
<polygon fill="#eeeeff" stroke="black" points="16,-16 16,-68 611,-68 611,-16 16,-16"/>
</a>
</g>
</g>
<!-- dir_bb80e465773810ac47fcf9fb349090dd -->
<g id="node1" class="node"><title>dir_bb80e465773810ac47fcf9fb349090dd</title>
<text text-anchor="middle" x="576" y="-39.5" font-family="Helvetica,sans-Serif" font-size="10.00">action</text>
</g>
<!-- dir_5228261402f98a3d53e9cf5373e19e15 -->
<g id="node2" class="node"><title>dir_5228261402f98a3d53e9cf5373e19e15</title>
<g id="a_node2"><a xlink:href="dir_5228261402f98a3d53e9cf5373e19e15.html" target="_top" xlink:title="elementActions">
<polygon fill="white" stroke="black" points="531,-60 439,-60 439,-24 531,-24 531,-60"/>
<text text-anchor="middle" x="485" y="-39.5" font-family="Helvetica,sans-Serif" font-size="10.00">elementActions</text>
</a>
</g>
</g>
<!-- dir_f70fce310b823180791e078d0fd1a137 -->
<g id="node3" class="node"><title>dir_f70fce310b823180791e078d0fd1a137</title>
<g id="a_node3"><a xlink:href="dir_f70fce310b823180791e078d0fd1a137.html" target="_top" xlink:title="findElementsBy">
<polygon fill="white" stroke="black" points="420.5,-60 329.5,-60 329.5,-24 420.5,-24 420.5,-60"/>
<text text-anchor="middle" x="375" y="-39.5" font-family="Helvetica,sans-Serif" font-size="10.00">findElementsBy</text>
</a>
</g>
</g>
<!-- dir_d5f66d1df8010c6a903d946c594d4a4c -->
<g id="node4" class="node"><title>dir_d5f66d1df8010c6a903d946c594d4a4c</title>
<g id="a_node4"><a xlink:href="dir_d5f66d1df8010c6a903d946c594d4a4c.html" target="_top" xlink:title="navigateActions">
<polygon fill="white" stroke="black" points="311.5,-60 218.5,-60 218.5,-24 311.5,-24 311.5,-60"/>
<text text-anchor="middle" x="265" y="-39.5" font-family="Helvetica,sans-Serif" font-size="10.00">navigateActions</text>
</a>
</g>
</g>
<!-- dir_a988745f64d1f1d4e0c36b8ca07d7583 -->
<g id="node5" class="node"><title>dir_a988745f64d1f1d4e0c36b8ca07d7583</title>
<g id="a_node5"><a xlink:href="dir_a988745f64d1f1d4e0c36b8ca07d7583.html" target="_top" xlink:title="pageActions">
<polygon fill="white" stroke="black" points="200,-60 124,-60 124,-24 200,-24 200,-60"/>
<text text-anchor="middle" x="162" y="-39.5" font-family="Helvetica,sans-Serif" font-size="10.00">pageActions</text>
</a>
</g>
</g>
<!-- dir_406737cf85f9e419137029962918e687 -->
<g id="node6" class="node"><title>dir_406737cf85f9e419137029962918e687</title>
<g id="a_node6"><a xlink:href="dir_406737cf85f9e419137029962918e687.html" target="_top" xlink:title="switchActions">
<polygon fill="white" stroke="black" points="105.5,-60 24.5,-60 24.5,-24 105.5,-24 105.5,-60"/>
<text text-anchor="middle" x="65" y="-39.5" font-family="Helvetica,sans-Serif" font-size="10.00">switchActions</text>
</a>
</g>
</g>
</g>
</svg>
