<?xml version="1.0" encoding="UTF-8" standalone="no"?>
<!DOCTYPE svg PUBLIC "-//W3C//DTD SVG 1.1//EN"
 "http://www.w3.org/Graphics/SVG/1.1/DTD/svg11.dtd">
<!-- Generated by graphviz version 2.38.0 (20140413.2041)
 -->
<!-- Title: outputHandlers Pages: 1 -->
<svg width="442pt" height="111pt"
 viewBox="0.00 0.00 442.00 111.00" xmlns="http://www.w3.org/2000/svg" xmlns:xlink="http://www.w3.org/1999/xlink">
<g id="graph0" class="graph" transform="scale(1 1) rotate(0) translate(4 107)">
<title>outputHandlers</title>
<polygon fill="white" stroke="none" points="-4,4 -4,-107 438,-107 438,4 -4,4"/>
<g id="clust1" class="cluster"><title>clusterdir_6f67b778e642d7f003b1565c8b5f8bdf</title>
<g id="a_clust1"><a xlink:href="dir_6f67b778e642d7f003b1565c8b5f8bdf.html" target="_top" xlink:title="view">
<polygon fill="#ddddee" stroke="black" points="8,-8 8,-95 426,-95 426,-8 8,-8"/>
<text text-anchor="middle" x="217" y="-83" font-family="Helvetica,sans-Serif" font-size="10.00">view</text>
</a>
</g>
</g>
<g id="clust2" class="cluster"><title>clusterdir_61a8b099e71abd8cee6031c28cc171b7</title>
<g id="a_clust2"><a xlink:href="dir_61a8b099e71abd8cee6031c28cc171b7.html" target="_top">
<polygon fill="#eeeeff" stroke="black" points="16,-16 16,-68 418,-68 418,-16 16,-16"/>
</a>
</g>
</g>
<!-- dir_61a8b099e71abd8cee6031c28cc171b7 -->
<g id="node1" class="node"><title>dir_61a8b099e71abd8cee6031c28cc171b7</title>
<text text-anchor="middle" x="364" y="-39.5" font-family="Helvetica,sans-Serif" font-size="10.00">outputHandlers</text>
</g>
<!-- dir_f4dfa6975d7a328e22c1854832d0d9b7 -->
<g id="node2" class="node"><title>dir_f4dfa6975d7a328e22c1854832d0d9b7</title>
<g id="a_node2"><a xlink:href="dir_f4dfa6975d7a328e22c1854832d0d9b7.html" target="_top" xlink:title="compositors">
<polygon fill="white" stroke="black" points="300,-60 224,-60 224,-24 300,-24 300,-60"/>
<text text-anchor="middle" x="262" y="-39.5" font-family="Helvetica,sans-Serif" font-size="10.00">compositors</text>
</a>
</g>
</g>
<!-- dir_7ba29d957344e64a72045906445467f3 -->
<g id="node3" class="node"><title>dir_7ba29d957344e64a72045906445467f3</title>
<g id="a_node3"><a xlink:href="dir_7ba29d957344e64a72045906445467f3.html" target="_top" xlink:title="formatters">
<polygon fill="white" stroke="black" points="206,-60 138,-60 138,-24 206,-24 206,-60"/>
<text text-anchor="middle" x="172" y="-39.5" font-family="Helvetica,sans-Serif" font-size="10.00">formatters</text>
</a>
</g>
</g>
<!-- dir_c680503aff1ea47da9dabd9759bcdafc -->
<g id="node4" class="node"><title>dir_c680503aff1ea47da9dabd9759bcdafc</title>
<g id="a_node4"><a xlink:href="dir_c680503aff1ea47da9dabd9759bcdafc.html" target="_top" xlink:title="requestHandlers">
<polygon fill="white" stroke="red" points="120,-60 24,-60 24,-24 120,-24 120,-60"/>
<text text-anchor="middle" x="72" y="-39.5" font-family="Helvetica,sans-Serif" font-size="10.00">requestHandlers</text>
</a>
</g>
</g>
</g>
</svg>
