<?xml version="1.0" encoding="UTF-8" standalone="no"?>
<!DOCTYPE svg PUBLIC "-//W3C//DTD SVG 1.1//EN"
 "http://www.w3.org/Graphics/SVG/1.1/DTD/svg11.dtd">
<!-- Generated by graphviz version 2.38.0 (20140413.2041)
 -->
<!-- Title: requestHandlers Pages: 1 -->
<svg width="640pt" height="111pt"
 viewBox="0.00 0.00 640.00 111.00" xmlns="http://www.w3.org/2000/svg" xmlns:xlink="http://www.w3.org/1999/xlink">
<g id="graph0" class="graph" transform="scale(1 1) rotate(0) translate(4 107)">
<title>requestHandlers</title>
<polygon fill="white" stroke="none" points="-4,4 -4,-107 636,-107 636,4 -4,4"/>
<g id="clust1" class="cluster"><title>clusterdir_61a8b099e71abd8cee6031c28cc171b7</title>
<g id="a_clust1"><a xlink:href="dir_61a8b099e71abd8cee6031c28cc171b7.html" target="_top" xlink:title="outputHandlers">
<polygon fill="#ddddee" stroke="black" points="8,-8 8,-95 624,-95 624,-8 8,-8"/>
<text text-anchor="middle" x="316" y="-83" font-family="Helvetica,sans-Serif" font-size="10.00">outputHandlers</text>
</a>
</g>
</g>
<g id="clust2" class="cluster"><title>clusterdir_c680503aff1ea47da9dabd9759bcdafc</title>
<g id="a_clust2"><a xlink:href="dir_c680503aff1ea47da9dabd9759bcdafc.html" target="_top">
<polygon fill="#eeeeff" stroke="black" points="16,-16 16,-68 616,-68 616,-16 16,-16"/>
</a>
</g>
</g>
<!-- dir_c680503aff1ea47da9dabd9759bcdafc -->
<g id="node1" class="node"><title>dir_c680503aff1ea47da9dabd9759bcdafc</title>
<text text-anchor="middle" x="560" y="-39.5" font-family="Helvetica,sans-Serif" font-size="10.00">requestHandlers</text>
</g>
<!-- dir_27c8a0040d16fc172a2834cdd6cd6717 -->
<g id="node2" class="node"><title>dir_27c8a0040d16fc172a2834cdd6cd6717</title>
<g id="a_node2"><a xlink:href="dir_27c8a0040d16fc172a2834cdd6cd6717.html" target="_top" xlink:title="addActionHandlers">
<polygon fill="white" stroke="black" points="493.5,-60 386.5,-60 386.5,-24 493.5,-24 493.5,-60"/>
<text text-anchor="middle" x="440" y="-39.5" font-family="Helvetica,sans-Serif" font-size="10.00">addActionHandlers</text>
</a>
</g>
</g>
<!-- dir_706877631986011d7edb8da7d80d0cf5 -->
<g id="node3" class="node"><title>dir_706877631986011d7edb8da7d80d0cf5</title>
<g id="a_node3"><a xlink:href="dir_706877631986011d7edb8da7d80d0cf5.html" target="_top" xlink:title="browserHandlers">
<polygon fill="white" stroke="black" points="368.5,-60 271.5,-60 271.5,-24 368.5,-24 368.5,-60"/>
<text text-anchor="middle" x="320" y="-39.5" font-family="Helvetica,sans-Serif" font-size="10.00">browserHandlers</text>
</a>
</g>
</g>
<!-- dir_77116085250b5b6d447d567baabb8d32 -->
<g id="node4" class="node"><title>dir_77116085250b5b6d447d567baabb8d32</title>
<g id="a_node4"><a xlink:href="dir_77116085250b5b6d447d567baabb8d32.html" target="_top" xlink:title="capabilitiesHandlers">
<polygon fill="white" stroke="black" points="253.5,-60 140.5,-60 140.5,-24 253.5,-24 253.5,-60"/>
<text text-anchor="middle" x="197" y="-39.5" font-family="Helvetica,sans-Serif" font-size="10.00">capabilitiesHandlers</text>
</a>
</g>
</g>
<!-- dir_d911dffe71fab996aaf393fa9100832d -->
<g id="node5" class="node"><title>dir_d911dffe71fab996aaf393fa9100832d</title>
<g id="a_node5"><a xlink:href="dir_d911dffe71fab996aaf393fa9100832d.html" target="_top" xlink:title="executeHandlers">
<polygon fill="white" stroke="black" points="122,-60 24,-60 24,-24 122,-24 122,-60"/>
<text text-anchor="middle" x="73" y="-39.5" font-family="Helvetica,sans-Serif" font-size="10.00">executeHandlers</text>
</a>
</g>
</g>
</g>
</svg>
