<?xml version="1.0" encoding="UTF-8" standalone="no"?>
<!DOCTYPE svg PUBLIC "-//W3C//DTD SVG 1.1//EN"
 "http://www.w3.org/Graphics/SVG/1.1/DTD/svg11.dtd">
<!-- Generated by graphviz version 2.38.0 (20140413.2041)
 -->
<!-- Title: Graphical Class Hierarchy Pages: 1 -->
<svg width="466pt" height="186pt"
 viewBox="0.00 0.00 466.00 186.00" xmlns="http://www.w3.org/2000/svg" xmlns:xlink="http://www.w3.org/1999/xlink">
<g id="graph0" class="graph" transform="scale(1 1) rotate(0) translate(4 182)">
<title>Graphical Class Hierarchy</title>
<polygon fill="white" stroke="none" points="-4,4 -4,-182 462,-182 462,4 -4,4"/>
<!-- Node1 -->
<g id="node1" class="node"><title>Node1</title>
<g id="a_node1"><a xlink:href="a00013.html" target="_top" xlink:title="This class is the abstract base class for a series of request objects relating to various parts of a ...">
<polygon fill="white" stroke="black" points="0,-73.5 0,-103.5 211,-103.5 211,-73.5 0,-73.5"/>
<text text-anchor="start" x="8" y="-91.5" font-family="Helvetica,sans-Serif" font-size="10.00">beseenium.view.inputHandlers.requests.</text>
<text text-anchor="middle" x="105.5" y="-80.5" font-family="Helvetica,sans-Serif" font-size="10.00">AbstractTestRequest</text>
</a>
</g>
</g>
<!-- Node2 -->
<g id="node2" class="node"><title>Node2</title>
<g id="a_node2"><a xlink:href="a00027.html" target="_top" xlink:title="represents a request to add a series of actions to a test. ">
<polygon fill="white" stroke="black" points="247,-147.5 247,-177.5 458,-177.5 458,-147.5 247,-147.5"/>
<text text-anchor="start" x="255" y="-165.5" font-family="Helvetica,sans-Serif" font-size="10.00">beseenium.view.inputHandlers.requests.</text>
<text text-anchor="middle" x="352.5" y="-154.5" font-family="Helvetica,sans-Serif" font-size="10.00">AddActionsRequest</text>
</a>
</g>
</g>
<!-- Node1&#45;&gt;Node2 -->
<g id="edge1" class="edge"><title>Node1&#45;&gt;Node2</title>
<path fill="none" stroke="midnightblue" d="M155.656,-107.008C182.447,-116.748 216.311,-128.502 247,-137.5 258.994,-141.016 271.867,-144.404 284.339,-147.491"/>
<polygon fill="midnightblue" stroke="midnightblue" points="156.718,-103.669 146.124,-103.519 154.312,-110.243 156.718,-103.669"/>
</g>
<!-- Node3 -->
<g id="node3" class="node"><title>Node3</title>
<g id="a_node3"><a xlink:href="a00036.html" target="_top" xlink:title="This class represents a request for a test to use a particular browser type. ">
<polygon fill="white" stroke="black" points="247,-98.5 247,-128.5 458,-128.5 458,-98.5 247,-98.5"/>
<text text-anchor="start" x="255" y="-116.5" font-family="Helvetica,sans-Serif" font-size="10.00">beseenium.view.inputHandlers.requests.</text>
<text text-anchor="middle" x="352.5" y="-105.5" font-family="Helvetica,sans-Serif" font-size="10.00">BrowserRequest</text>
</a>
</g>
</g>
<!-- Node1&#45;&gt;Node3 -->
<g id="edge2" class="edge"><title>Node1&#45;&gt;Node3</title>
<path fill="none" stroke="midnightblue" d="M221.143,-100.198C229.716,-101.073 238.34,-101.953 246.847,-102.821"/>
<polygon fill="midnightblue" stroke="midnightblue" points="221.416,-96.7081 211.113,-99.1748 220.706,-103.672 221.416,-96.7081"/>
</g>
<!-- Node4 -->
<g id="node4" class="node"><title>Node4</title>
<g id="a_node4"><a xlink:href="a00038.html" target="_top" xlink:title="represents a request for a particular set of capabilities. ">
<polygon fill="white" stroke="black" points="247,-49.5 247,-79.5 458,-79.5 458,-49.5 247,-49.5"/>
<text text-anchor="start" x="255" y="-67.5" font-family="Helvetica,sans-Serif" font-size="10.00">beseenium.view.inputHandlers.requests.</text>
<text text-anchor="middle" x="352.5" y="-56.5" font-family="Helvetica,sans-Serif" font-size="10.00">CapabilitiesRequest</text>
</a>
</g>
</g>
<!-- Node1&#45;&gt;Node4 -->
<g id="edge3" class="edge"><title>Node1&#45;&gt;Node4</title>
<path fill="none" stroke="midnightblue" d="M221.143,-77.2697C229.716,-76.4299 238.34,-75.5851 246.847,-74.7517"/>
<polygon fill="midnightblue" stroke="midnightblue" points="220.724,-73.7939 211.113,-78.2522 221.406,-80.7605 220.724,-73.7939"/>
</g>
<!-- Node5 -->
<g id="node5" class="node"><title>Node5</title>
<g id="a_node5"><a xlink:href="a00047.html" target="_top" xlink:title="represents a request to execute the test. ">
<polygon fill="white" stroke="black" points="247,-0.5 247,-30.5 458,-30.5 458,-0.5 247,-0.5"/>
<text text-anchor="start" x="255" y="-18.5" font-family="Helvetica,sans-Serif" font-size="10.00">beseenium.view.inputHandlers.requests.</text>
<text text-anchor="middle" x="352.5" y="-7.5" font-family="Helvetica,sans-Serif" font-size="10.00">ExecuteRequest</text>
</a>
</g>
</g>
<!-- Node1&#45;&gt;Node5 -->
<g id="edge4" class="edge"><title>Node1&#45;&gt;Node5</title>
<path fill="none" stroke="midnightblue" d="M156.848,-70.0107C183.461,-60.566 216.791,-49.2526 247,-40.5 259.094,-36.9959 272.076,-33.6015 284.636,-30.5027"/>
<polygon fill="midnightblue" stroke="midnightblue" points="155.606,-66.7379 147.365,-73.3976 157.96,-73.3301 155.606,-66.7379"/>
</g>
</g>
</svg>
