<?xml version="1.0" encoding="UTF-8" standalone="no"?>
<!DOCTYPE svg PUBLIC "-//W3C//DTD SVG 1.1//EN"
 "http://www.w3.org/Graphics/SVG/1.1/DTD/svg11.dtd">
<!-- Generated by graphviz version 2.38.0 (20140413.2041)
 -->
<!-- Title: Graphical Class Hierarchy Pages: 1 -->
<svg width="423pt" height="1617pt"
 viewBox="0.00 0.00 423.00 1617.00" xmlns="http://www.w3.org/2000/svg" xmlns:xlink="http://www.w3.org/1999/xlink">
<g id="graph0" class="graph" transform="scale(1 1) rotate(0) translate(4 1613)">
<title>Graphical Class Hierarchy</title>
<polygon fill="white" stroke="none" points="-4,4 -4,-1613 419,-1613 419,4 -4,4"/>
<!-- Node1 -->
<g id="node1" class="node"><title>Node1</title>
<g id="a_node1"><a xlink:href="a00009.html" target="_top" xlink:title="this is the root class for all derived Actions ">
<polygon fill="white" stroke="black" points="0,-794.5 0,-824.5 179,-824.5 179,-794.5 0,-794.5"/>
<text text-anchor="start" x="8" y="-812.5" font-family="Helvetica,sans-Serif" font-size="10.00">beseenium.model.action.Abstract</text>
<text text-anchor="middle" x="89.5" y="-801.5" font-family="Helvetica,sans-Serif" font-size="10.00">Action</text>
</a>
</g>
</g>
<!-- Node2 -->
<g id="node2" class="node"><title>Node2</title>
<g id="a_node2"><a xlink:href="a00040.html" target="_top" xlink:title="This represents a clear action, it will have no effect unless the element that this action is perform...">
<polygon fill="white" stroke="black" points="226,-1578.5 226,-1608.5 404,-1608.5 404,-1578.5 226,-1578.5"/>
<text text-anchor="start" x="234" y="-1596.5" font-family="Helvetica,sans-Serif" font-size="10.00">beseenium.model.action.element</text>
<text text-anchor="middle" x="315" y="-1585.5" font-family="Helvetica,sans-Serif" font-size="10.00">Actions.Clear</text>
</a>
</g>
</g>
<!-- Node1&#45;&gt;Node2 -->
<g id="edge1" class="edge"><title>Node1&#45;&gt;Node2</title>
<path fill="none" stroke="midnightblue" d="M91.0542,-834.953C94.174,-954.35 113.267,-1457.76 215,-1568.5 218.478,-1572.29 222.438,-1575.53 226.727,-1578.32"/>
<polygon fill="midnightblue" stroke="midnightblue" points="94.5451,-834.534 90.8,-824.623 87.5472,-834.706 94.5451,-834.534"/>
</g>
<!-- Node3 -->
<g id="node3" class="node"><title>Node3</title>
<g id="a_node3"><a xlink:href="a00041.html" target="_top" xlink:title="This is a click action,. ">
<polygon fill="white" stroke="black" points="226,-1529.5 226,-1559.5 404,-1559.5 404,-1529.5 226,-1529.5"/>
<text text-anchor="start" x="234" y="-1547.5" font-family="Helvetica,sans-Serif" font-size="10.00">beseenium.model.action.element</text>
<text text-anchor="middle" x="315" y="-1536.5" font-family="Helvetica,sans-Serif" font-size="10.00">Actions.Click</text>
</a>
</g>
</g>
<!-- Node1&#45;&gt;Node3 -->
<g id="edge2" class="edge"><title>Node1&#45;&gt;Node3</title>
<path fill="none" stroke="midnightblue" d="M91.3616,-834.762C95.7732,-949.059 119.493,-1416.67 215,-1519.5 218.499,-1523.27 222.475,-1526.5 226.776,-1529.27"/>
<polygon fill="midnightblue" stroke="midnightblue" points="94.8511,-834.409 90.9832,-824.546 87.8558,-834.668 94.8511,-834.409"/>
</g>
<!-- Node4 -->
<g id="node4" class="node"><title>Node4</title>
<g id="a_node4"><a xlink:href="a00057.html" target="_top" xlink:title="This is a getAttribute action, it takes the input parameter from the ActionData object to perform thi...">
<polygon fill="white" stroke="black" points="226,-1480.5 226,-1510.5 404,-1510.5 404,-1480.5 226,-1480.5"/>
<text text-anchor="start" x="234" y="-1498.5" font-family="Helvetica,sans-Serif" font-size="10.00">beseenium.model.action.element</text>
<text text-anchor="middle" x="315" y="-1487.5" font-family="Helvetica,sans-Serif" font-size="10.00">Actions.GetAttribute</text>
</a>
</g>
</g>
<!-- Node1&#45;&gt;Node4 -->
<g id="edge3" class="edge"><title>Node1&#45;&gt;Node4</title>
<path fill="none" stroke="midnightblue" d="M91.719,-834.761C97.5073,-944.137 125.756,-1375.62 215,-1470.5 218.522,-1474.24 222.517,-1477.46 226.832,-1480.22"/>
<polygon fill="midnightblue" stroke="midnightblue" points="95.2086,-834.466 91.2006,-824.659 88.2178,-834.825 95.2086,-834.466"/>
</g>
<!-- Node5 -->
<g id="node5" class="node"><title>Node5</title>
<g id="a_node5"><a xlink:href="a00058.html" target="_top" xlink:title="this is a Get CSS Action, it retrieves the value of a specific CSS property. ">
<polygon fill="white" stroke="black" points="226,-1431.5 226,-1461.5 404,-1461.5 404,-1431.5 226,-1431.5"/>
<text text-anchor="start" x="234" y="-1449.5" font-family="Helvetica,sans-Serif" font-size="10.00">beseenium.model.action.element</text>
<text text-anchor="middle" x="315" y="-1438.5" font-family="Helvetica,sans-Serif" font-size="10.00">Actions.GetCssValue</text>
</a>
</g>
</g>
<!-- Node1&#45;&gt;Node5 -->
<g id="edge4" class="edge"><title>Node1&#45;&gt;Node5</title>
<path fill="none" stroke="midnightblue" d="M92.1397,-834.871C99.3986,-939.308 132.028,-1334.56 215,-1421.5 218.672,-1425.35 222.842,-1428.64 227.345,-1431.44"/>
<polygon fill="midnightblue" stroke="midnightblue" points="95.6147,-834.383 91.4461,-824.642 88.6308,-834.856 95.6147,-834.383"/>
</g>
<!-- Node6 -->
<g id="node6" class="node"><title>Node6</title>
<g id="a_node6"><a xlink:href="a00059.html" target="_top" xlink:title="This is a GetLocation Action, It retrieves the location of the top left corner of the element current...">
<polygon fill="white" stroke="black" points="226,-1382.5 226,-1412.5 404,-1412.5 404,-1382.5 226,-1382.5"/>
<text text-anchor="start" x="234" y="-1400.5" font-family="Helvetica,sans-Serif" font-size="10.00">beseenium.model.action.element</text>
<text text-anchor="middle" x="315" y="-1389.5" font-family="Helvetica,sans-Serif" font-size="10.00">Actions.GetLocation</text>
</a>
</g>
</g>
<!-- Node1&#45;&gt;Node6 -->
<g id="edge5" class="edge"><title>Node1&#45;&gt;Node6</title>
<path fill="none" stroke="midnightblue" d="M92.6142,-834.753C101.401,-933.693 138.218,-1293.4 215,-1372.5 218.704,-1376.32 222.9,-1379.58 227.421,-1382.37"/>
<polygon fill="midnightblue" stroke="midnightblue" points="96.0979,-834.412 91.7436,-824.753 89.1243,-835.019 96.0979,-834.412"/>
</g>
<!-- Node7 -->
<g id="node7" class="node"><title>Node7</title>
<g id="a_node7"><a xlink:href="a00061.html" target="_top" xlink:title="This is a GetSize Action, It retrieves the size of the WebElement currently stored in the ActionData...">
<polygon fill="white" stroke="black" points="226,-1333.5 226,-1363.5 404,-1363.5 404,-1333.5 226,-1333.5"/>
<text text-anchor="start" x="234" y="-1351.5" font-family="Helvetica,sans-Serif" font-size="10.00">beseenium.model.action.element</text>
<text text-anchor="middle" x="315" y="-1340.5" font-family="Helvetica,sans-Serif" font-size="10.00">Actions.GetSize</text>
</a>
</g>
</g>
<!-- Node1&#45;&gt;Node7 -->
<g id="edge6" class="edge"><title>Node1&#45;&gt;Node7</title>
<path fill="none" stroke="midnightblue" d="M93.1745,-834.647C103.589,-927.894 144.385,-1252.2 215,-1323.5 218.742,-1327.28 222.967,-1330.52 227.509,-1333.28"/>
<polygon fill="midnightblue" stroke="midnightblue" points="96.6515,-834.245 92.0804,-824.687 89.6934,-835.01 96.6515,-834.245"/>
</g>
<!-- Node8 -->
<g id="node8" class="node"><title>Node8</title>
<g id="a_node8"><a xlink:href="a00062.html" target="_top" xlink:title="This is a GetTagName Action, it retrieves the tag name of the web element selected. ">
<polygon fill="white" stroke="black" points="226,-1284.5 226,-1314.5 404,-1314.5 404,-1284.5 226,-1284.5"/>
<text text-anchor="start" x="234" y="-1302.5" font-family="Helvetica,sans-Serif" font-size="10.00">beseenium.model.action.element</text>
<text text-anchor="middle" x="315" y="-1291.5" font-family="Helvetica,sans-Serif" font-size="10.00">Actions.GetTagName</text>
</a>
</g>
</g>
<!-- Node1&#45;&gt;Node8 -->
<g id="edge7" class="edge"><title>Node1&#45;&gt;Node8</title>
<path fill="none" stroke="midnightblue" d="M93.9183,-835.062C106.177,-922.99 150.65,-1211.06 215,-1274.5 218.913,-1278.36 223.331,-1281.65 228.073,-1284.45"/>
<polygon fill="midnightblue" stroke="midnightblue" points="97.3523,-834.342 92.5231,-824.912 90.4175,-835.295 97.3523,-834.342"/>
</g>
<!-- Node9 -->
<g id="node9" class="node"><title>Node9</title>
<g id="a_node9"><a xlink:href="a00063.html" target="_top" xlink:title="This is a GetText action, it returns the inner html of the current WebElement (and any child nodes) n...">
<polygon fill="white" stroke="black" points="226,-1235.5 226,-1265.5 404,-1265.5 404,-1235.5 226,-1235.5"/>
<text text-anchor="start" x="234" y="-1253.5" font-family="Helvetica,sans-Serif" font-size="10.00">beseenium.model.action.element</text>
<text text-anchor="middle" x="315" y="-1242.5" font-family="Helvetica,sans-Serif" font-size="10.00">Actions.GetText</text>
</a>
</g>
</g>
<!-- Node1&#45;&gt;Node9 -->
<g id="edge8" class="edge"><title>Node1&#45;&gt;Node9</title>
<path fill="none" stroke="midnightblue" d="M90.0399,-835.083C90.1991,-907.614 101.03,-1116.38 215,-1225.5 218.969,-1229.3 223.429,-1232.55 228.202,-1235.32"/>
<polygon fill="midnightblue" stroke="midnightblue" points="93.5419,-834.666 90.0918,-824.648 86.542,-834.631 93.5419,-834.666"/>
</g>
<!-- Node10 -->
<g id="node10" class="node"><title>Node10</title>
<g id="a_node10"><a xlink:href="a00068.html" target="_top" xlink:title="This is an IsDisplayed Action, checks to see whether the element currently held in the ActionData is ...">
<polygon fill="white" stroke="black" points="226,-1186.5 226,-1216.5 404,-1216.5 404,-1186.5 226,-1186.5"/>
<text text-anchor="start" x="234" y="-1204.5" font-family="Helvetica,sans-Serif" font-size="10.00">beseenium.model.action.element</text>
<text text-anchor="middle" x="315" y="-1193.5" font-family="Helvetica,sans-Serif" font-size="10.00">Actions.IsDisplayed</text>
</a>
</g>
</g>
<!-- Node1&#45;&gt;Node10 -->
<g id="edge9" class="edge"><title>Node1&#45;&gt;Node10</title>
<path fill="none" stroke="midnightblue" d="M91.2145,-834.782C94.5151,-901.249 112.919,-1082.25 215,-1176.5 219.168,-1180.35 223.841,-1183.62 228.827,-1186.41"/>
<polygon fill="midnightblue" stroke="midnightblue" points="94.7111,-834.625 90.7919,-824.781 87.7173,-834.92 94.7111,-834.625"/>
</g>
<!-- Node11 -->
<g id="node11" class="node"><title>Node11</title>
<g id="a_node11"><a xlink:href="a00069.html" target="_top" xlink:title="This is an IsEnabled Action, checks to see whether the element currently held in the ActionData is cu...">
<polygon fill="white" stroke="black" points="226,-1137.5 226,-1167.5 404,-1167.5 404,-1137.5 226,-1137.5"/>
<text text-anchor="start" x="234" y="-1155.5" font-family="Helvetica,sans-Serif" font-size="10.00">beseenium.model.action.element</text>
<text text-anchor="middle" x="315" y="-1144.5" font-family="Helvetica,sans-Serif" font-size="10.00">Actions.IsEnabled</text>
</a>
</g>
</g>
<!-- Node1&#45;&gt;Node11 -->
<g id="edge10" class="edge"><title>Node1&#45;&gt;Node11</title>
<path fill="none" stroke="midnightblue" d="M92.7023,-834.626C99.3621,-894.78 124.77,-1047.96 215,-1127.5 219.388,-1131.37 224.29,-1134.65 229.501,-1137.45"/>
<polygon fill="midnightblue" stroke="midnightblue" points="96.1674,-834.106 91.6656,-824.515 89.204,-834.82 96.1674,-834.106"/>
</g>
<!-- Node12 -->
<g id="node12" class="node"><title>Node12</title>
<g id="a_node12"><a xlink:href="a00070.html" target="_top" xlink:title="This is an IsSelected Action, checks to see whether the element currently held in the ActionData is c...">
<polygon fill="white" stroke="black" points="226,-1088.5 226,-1118.5 404,-1118.5 404,-1088.5 226,-1088.5"/>
<text text-anchor="start" x="234" y="-1106.5" font-family="Helvetica,sans-Serif" font-size="10.00">beseenium.model.action.element</text>
<text text-anchor="middle" x="315" y="-1095.5" font-family="Helvetica,sans-Serif" font-size="10.00">Actions.IsSelected</text>
</a>
</g>
</g>
<!-- Node1&#45;&gt;Node12 -->
<g id="edge11" class="edge"><title>Node1&#45;&gt;Node12</title>
<path fill="none" stroke="midnightblue" d="M94.7189,-834.758C105.026,-888.277 136.62,-1013.5 215,-1078.5 219.639,-1082.35 224.793,-1085.61 230.242,-1088.39"/>
<polygon fill="midnightblue" stroke="midnightblue" points="98.1318,-833.964 92.8834,-824.761 91.2468,-835.228 98.1318,-833.964"/>
</g>
<!-- Node13 -->
<g id="node13" class="node"><title>Node13</title>
<g id="a_node13"><a xlink:href="a00124.html" target="_top" xlink:title="This is a sendKeys Action, it simulates a human typing into an element, which may set its value...">
<polygon fill="white" stroke="black" points="226,-1039.5 226,-1069.5 404,-1069.5 404,-1039.5 226,-1039.5"/>
<text text-anchor="start" x="234" y="-1057.5" font-family="Helvetica,sans-Serif" font-size="10.00">beseenium.model.action.element</text>
<text text-anchor="middle" x="315" y="-1046.5" font-family="Helvetica,sans-Serif" font-size="10.00">Actions.SendKeys</text>
</a>
</g>
</g>
<!-- Node1&#45;&gt;Node13 -->
<g id="edge12" class="edge"><title>Node1&#45;&gt;Node13</title>
<path fill="none" stroke="midnightblue" d="M97.3819,-834.264C111.454,-880.158 147.987,-978.389 215,-1029.5 220.074,-1033.37 225.679,-1036.65 231.565,-1039.42"/>
<polygon fill="midnightblue" stroke="midnightblue" points="100.697,-833.132 94.4986,-824.539 93.9856,-835.122 100.697,-833.132"/>
</g>
<!-- Node14 -->
<g id="node14" class="node"><title>Node14</title>
<g id="a_node14"><a xlink:href="a00126.html" target="_top" xlink:title="This will submit a form if the element in question is a form or a form element. ">
<polygon fill="white" stroke="black" points="226,-990.5 226,-1020.5 404,-1020.5 404,-990.5 226,-990.5"/>
<text text-anchor="start" x="234" y="-1008.5" font-family="Helvetica,sans-Serif" font-size="10.00">beseenium.model.action.element</text>
<text text-anchor="middle" x="315" y="-997.5" font-family="Helvetica,sans-Serif" font-size="10.00">Actions.Submit</text>
</a>
</g>
</g>
<!-- Node1&#45;&gt;Node14 -->
<g id="edge13" class="edge"><title>Node1&#45;&gt;Node14</title>
<path fill="none" stroke="midnightblue" d="M101.34,-833.739C119.371,-871.193 159.144,-942.743 215,-980.5 220.728,-984.372 227.008,-987.644 233.539,-990.41"/>
<polygon fill="midnightblue" stroke="midnightblue" points="104.45,-832.127 97.0312,-824.563 98.1138,-835.103 104.45,-832.127"/>
</g>
<!-- Node15 -->
<g id="node15" class="node"><title>Node15</title>
<g id="a_node15"><a xlink:href="a00048.html" target="_top" xlink:title="This class represents a FindElementByClass Action, it takes an ActionData object in initialiseation w...">
<polygon fill="white" stroke="black" points="225.5,-941.5 225.5,-971.5 404.5,-971.5 404.5,-941.5 225.5,-941.5"/>
<text text-anchor="start" x="233.5" y="-959.5" font-family="Helvetica,sans-Serif" font-size="10.00">beseenium.model.action.find</text>
<text text-anchor="middle" x="315" y="-948.5" font-family="Helvetica,sans-Serif" font-size="10.00">ElementsBy.FindElementsByClass</text>
</a>
</g>
</g>
<!-- Node1&#45;&gt;Node15 -->
<g id="edge14" class="edge"><title>Node1&#45;&gt;Node15</title>
<path fill="none" stroke="midnightblue" d="M107.876,-832.848C129.776,-860.586 170.035,-906.271 215,-931.5 221.88,-935.36 229.359,-938.633 237.022,-941.408"/>
<polygon fill="midnightblue" stroke="midnightblue" points="110.576,-830.618 101.684,-824.858 105.043,-834.906 110.576,-830.618"/>
</g>
<!-- Node16 -->
<g id="node16" class="node"><title>Node16</title>
<g id="a_node16"><a xlink:href="a00049.html" target="_top" xlink:title="this is a FindElementByCss Action, it takes an ActionData object in initialiseation which should cont...">
<polygon fill="white" stroke="black" points="230,-892.5 230,-922.5 400,-922.5 400,-892.5 230,-892.5"/>
<text text-anchor="start" x="238" y="-910.5" font-family="Helvetica,sans-Serif" font-size="10.00">beseenium.model.action.find</text>
<text text-anchor="middle" x="315" y="-899.5" font-family="Helvetica,sans-Serif" font-size="10.00">ElementsBy.FindElementsByCss</text>
</a>
</g>
</g>
<!-- Node1&#45;&gt;Node16 -->
<g id="edge15" class="edge"><title>Node1&#45;&gt;Node16</title>
<path fill="none" stroke="midnightblue" d="M120.478,-830.354C144.948,-846.553 180.928,-868.541 215,-882.5 224.186,-886.263 234.091,-889.577 243.96,-892.457"/>
<polygon fill="midnightblue" stroke="midnightblue" points="122.263,-827.337 112.009,-824.673 118.364,-833.15 122.263,-827.337"/>
</g>
<!-- Node17 -->
<g id="node17" class="node"><title>Node17</title>
<g id="a_node17"><a xlink:href="a00050.html" target="_top" xlink:title="This class represents a FindElementById Action, it takes an ActionData object in initialiseation whic...">
<polygon fill="white" stroke="black" points="234.5,-843.5 234.5,-873.5 395.5,-873.5 395.5,-843.5 234.5,-843.5"/>
<text text-anchor="start" x="242.5" y="-861.5" font-family="Helvetica,sans-Serif" font-size="10.00">beseenium.model.action.find</text>
<text text-anchor="middle" x="315" y="-850.5" font-family="Helvetica,sans-Serif" font-size="10.00">ElementsBy.FindElementsById</text>
</a>
</g>
</g>
<!-- Node1&#45;&gt;Node17 -->
<g id="edge16" class="edge"><title>Node1&#45;&gt;Node17</title>
<path fill="none" stroke="midnightblue" d="M168.886,-826.685C193.879,-832.165 221.323,-838.182 245.553,-843.494"/>
<polygon fill="midnightblue" stroke="midnightblue" points="169.594,-823.257 159.076,-824.535 168.095,-830.095 169.594,-823.257"/>
</g>
<!-- Node18 -->
<g id="node18" class="node"><title>Node18</title>
<g id="a_node18"><a xlink:href="a00051.html" target="_top" xlink:title="this is a find element by link text action, it searches for an element using a string containing &#39;lin...">
<polygon fill="white" stroke="black" points="222,-794.5 222,-824.5 408,-824.5 408,-794.5 222,-794.5"/>
<text text-anchor="start" x="230" y="-812.5" font-family="Helvetica,sans-Serif" font-size="10.00">beseenium.model.action.find</text>
<text text-anchor="middle" x="315" y="-801.5" font-family="Helvetica,sans-Serif" font-size="10.00">ElementsBy.FindElementsByLinkTxt</text>
</a>
</g>
</g>
<!-- Node1&#45;&gt;Node18 -->
<g id="edge17" class="edge"><title>Node1&#45;&gt;Node18</title>
<path fill="none" stroke="midnightblue" d="M189.413,-809.5C200.179,-809.5 211.106,-809.5 221.787,-809.5"/>
<polygon fill="midnightblue" stroke="midnightblue" points="189.154,-806 179.154,-809.5 189.154,-813 189.154,-806"/>
</g>
<!-- Node19 -->
<g id="node19" class="node"><title>Node19</title>
<g id="a_node19"><a xlink:href="a00052.html" target="_top" xlink:title="this is a find elements by name action, it attempts to find an element using a name provided i...">
<polygon fill="white" stroke="black" points="224,-745.5 224,-775.5 406,-775.5 406,-745.5 224,-745.5"/>
<text text-anchor="start" x="232" y="-763.5" font-family="Helvetica,sans-Serif" font-size="10.00">beseenium.model.action.find</text>
<text text-anchor="middle" x="315" y="-752.5" font-family="Helvetica,sans-Serif" font-size="10.00">ElementsBy.FindElementsByName</text>
</a>
</g>
</g>
<!-- Node1&#45;&gt;Node19 -->
<g id="edge18" class="edge"><title>Node1&#45;&gt;Node19</title>
<path fill="none" stroke="midnightblue" d="M168.886,-792.315C193.879,-786.835 221.323,-780.818 245.553,-775.506"/>
<polygon fill="midnightblue" stroke="midnightblue" points="168.095,-788.905 159.076,-794.465 169.594,-795.743 168.095,-788.905"/>
</g>
<!-- Node20 -->
<g id="node20" class="node"><title>Node20</title>
<g id="a_node20"><a xlink:href="a00053.html" target="_top" xlink:title="this is a find element by partial link text action, it searches for an element using a string contain...">
<polygon fill="white" stroke="black" points="223.5,-686 223.5,-727 406.5,-727 406.5,-686 223.5,-686"/>
<text text-anchor="start" x="231.5" y="-715" font-family="Helvetica,sans-Serif" font-size="10.00">beseenium.model.action.find</text>
<text text-anchor="start" x="231.5" y="-704" font-family="Helvetica,sans-Serif" font-size="10.00">ElementsBy.FindElementsByPartial</text>
<text text-anchor="middle" x="315" y="-693" font-family="Helvetica,sans-Serif" font-size="10.00">LinkTxt</text>
</a>
</g>
</g>
<!-- Node1&#45;&gt;Node20 -->
<g id="edge19" class="edge"><title>Node1&#45;&gt;Node20</title>
<path fill="none" stroke="midnightblue" d="M121.109,-788.788C145.671,-772.859 181.469,-751.165 215,-736.5 222.734,-733.118 230.965,-729.966 239.249,-727.075"/>
<polygon fill="midnightblue" stroke="midnightblue" points="119.037,-785.962 112.594,-794.372 122.875,-791.815 119.037,-785.962"/>
</g>
<!-- Node21 -->
<g id="node21" class="node"><title>Node21</title>
<g id="a_node21"><a xlink:href="a00054.html" target="_top" xlink:title="this is a find elements by tag name, it finds an element using a provided tag name string...">
<polygon fill="white" stroke="black" points="215,-637.5 215,-667.5 415,-667.5 415,-637.5 215,-637.5"/>
<text text-anchor="start" x="223" y="-655.5" font-family="Helvetica,sans-Serif" font-size="10.00">beseenium.model.action.find</text>
<text text-anchor="middle" x="315" y="-644.5" font-family="Helvetica,sans-Serif" font-size="10.00">ElementsBy.FindElementsByTagName</text>
</a>
</g>
</g>
<!-- Node1&#45;&gt;Node21 -->
<g id="edge20" class="edge"><title>Node1&#45;&gt;Node21</title>
<path fill="none" stroke="midnightblue" d="M106.007,-785.84C127.032,-755.708 167.465,-704.232 215,-676.5 220.958,-673.024 227.398,-670.051 234.035,-667.507"/>
<polygon fill="midnightblue" stroke="midnightblue" points="102.871,-784.225 100.118,-794.456 108.65,-788.175 102.871,-784.225"/>
</g>
<!-- Node22 -->
<g id="node22" class="node"><title>Node22</title>
<g id="a_node22"><a xlink:href="a00055.html" target="_top" xlink:title="is a Find element by Xpath action, it provides a method to find an element using an xpath string...">
<polygon fill="white" stroke="black" points="224,-588.5 224,-618.5 406,-618.5 406,-588.5 224,-588.5"/>
<text text-anchor="start" x="232" y="-606.5" font-family="Helvetica,sans-Serif" font-size="10.00">beseenium.model.action.find</text>
<text text-anchor="middle" x="315" y="-595.5" font-family="Helvetica,sans-Serif" font-size="10.00">ElementsBy.FindElementsByXpath</text>
</a>
</g>
</g>
<!-- Node1&#45;&gt;Node22 -->
<g id="edge21" class="edge"><title>Node1&#45;&gt;Node22</title>
<path fill="none" stroke="midnightblue" d="M100.45,-784.986C117.7,-745.676 156.965,-668.873 215,-628.5 220.603,-624.602 226.759,-621.312 233.176,-618.534"/>
<polygon fill="midnightblue" stroke="midnightblue" points="97.1592,-783.779 96.4476,-794.35 103.596,-786.53 97.1592,-783.779"/>
</g>
<!-- Node23 -->
<g id="node23" class="node"><title>Node23</title>
<g id="a_node23"><a xlink:href="a00108.html" target="_top" xlink:title="This is a navigate back action, it attempts to use the back/forward history to navigate back a specif...">
<polygon fill="white" stroke="black" points="225.5,-539.5 225.5,-569.5 404.5,-569.5 404.5,-539.5 225.5,-539.5"/>
<text text-anchor="start" x="233.5" y="-557.5" font-family="Helvetica,sans-Serif" font-size="10.00">beseenium.model.action.navigate</text>
<text text-anchor="middle" x="315" y="-546.5" font-family="Helvetica,sans-Serif" font-size="10.00">Actions.NavigateBack</text>
</a>
</g>
</g>
<!-- Node1&#45;&gt;Node23 -->
<g id="edge22" class="edge"><title>Node1&#45;&gt;Node23</title>
<path fill="none" stroke="midnightblue" d="M96.7632,-784.619C110.052,-737.107 145.691,-633.403 215,-579.5 219.898,-575.691 225.307,-572.456 230.996,-569.71"/>
<polygon fill="midnightblue" stroke="midnightblue" points="93.353,-783.823 94.1267,-794.389 100.111,-785.647 93.353,-783.823"/>
</g>
<!-- Node24 -->
<g id="node24" class="node"><title>Node24</title>
<g id="a_node24"><a xlink:href="a00109.html" target="_top" xlink:title="This is a navigate forward action, it attempts to use the back/foward history to navigate forward a s...">
<polygon fill="white" stroke="black" points="225.5,-490.5 225.5,-520.5 404.5,-520.5 404.5,-490.5 225.5,-490.5"/>
<text text-anchor="start" x="233.5" y="-508.5" font-family="Helvetica,sans-Serif" font-size="10.00">beseenium.model.action.navigate</text>
<text text-anchor="middle" x="315" y="-497.5" font-family="Helvetica,sans-Serif" font-size="10.00">Actions.NavigateForward</text>
</a>
</g>
</g>
<!-- Node1&#45;&gt;Node24 -->
<g id="edge23" class="edge"><title>Node1&#45;&gt;Node24</title>
<path fill="none" stroke="midnightblue" d="M94.2218,-784.449C103.728,-729.63 134.127,-598.51 215,-530.5 219.613,-526.621 224.747,-523.331 230.182,-520.543"/>
<polygon fill="midnightblue" stroke="midnightblue" points="90.7621,-783.918 92.5903,-794.354 97.6691,-785.056 90.7621,-783.918"/>
</g>
<!-- Node25 -->
<g id="node25" class="node"><title>Node25</title>
<g id="a_node25"><a xlink:href="a00117.html" target="_top" xlink:title="this is a refresh page action, it (surprise surprise) refreshes the page. ">
<polygon fill="white" stroke="black" points="225.5,-441.5 225.5,-471.5 404.5,-471.5 404.5,-441.5 225.5,-441.5"/>
<text text-anchor="start" x="233.5" y="-459.5" font-family="Helvetica,sans-Serif" font-size="10.00">beseenium.model.action.navigate</text>
<text text-anchor="middle" x="315" y="-448.5" font-family="Helvetica,sans-Serif" font-size="10.00">Actions.RefreshPage</text>
</a>
</g>
</g>
<!-- Node1&#45;&gt;Node25 -->
<g id="edge24" class="edge"><title>Node1&#45;&gt;Node25</title>
<path fill="none" stroke="midnightblue" d="M92.3596,-784.417C98.3038,-722.993 122.325,-564.052 215,-481.5 219.368,-477.609 224.255,-474.306 229.455,-471.503"/>
<polygon fill="midnightblue" stroke="midnightblue" points="88.8725,-784.118 91.4735,-794.388 95.845,-784.737 88.8725,-784.118"/>
</g>
<!-- Node26 -->
<g id="node26" class="node"><title>Node26</title>
<g id="a_node26"><a xlink:href="a00035.html" target="_top" xlink:title="This is a quit Action, it essentially closes the bowser. ">
<polygon fill="white" stroke="black" points="234,-392.5 234,-422.5 396,-422.5 396,-392.5 234,-392.5"/>
<text text-anchor="start" x="242" y="-410.5" font-family="Helvetica,sans-Serif" font-size="10.00">beseenium.model.action.page</text>
<text text-anchor="middle" x="315" y="-399.5" font-family="Helvetica,sans-Serif" font-size="10.00">Actions.BrowserQuit</text>
</a>
</g>
</g>
<!-- Node1&#45;&gt;Node26 -->
<g id="edge25" class="edge"><title>Node1&#45;&gt;Node26</title>
<path fill="none" stroke="midnightblue" d="M90.9598,-784.014C93.6226,-716.166 110.574,-529.704 215,-432.5 220.45,-427.427 226.776,-423.346 233.545,-420.068"/>
<polygon fill="midnightblue" stroke="midnightblue" points="87.4554,-784.101 90.6353,-794.207 94.4518,-784.323 87.4554,-784.101"/>
</g>
<!-- Node27 -->
<g id="node27" class="node"><title>Node27</title>
<g id="a_node27"><a xlink:href="a00060.html" target="_top" xlink:title="this is a get page source action, it retrieves the source code of the page that you are currently on...">
<polygon fill="white" stroke="black" points="234,-343.5 234,-373.5 396,-373.5 396,-343.5 234,-343.5"/>
<text text-anchor="start" x="242" y="-361.5" font-family="Helvetica,sans-Serif" font-size="10.00">beseenium.model.action.page</text>
<text text-anchor="middle" x="315" y="-350.5" font-family="Helvetica,sans-Serif" font-size="10.00">Actions.GetPageSrc</text>
</a>
</g>
</g>
<!-- Node1&#45;&gt;Node27 -->
<g id="edge26" class="edge"><title>Node1&#45;&gt;Node27</title>
<path fill="none" stroke="midnightblue" d="M89.8305,-784.275C89.3326,-710.939 98.3716,-495.893 215,-383.5 220.489,-378.211 226.927,-373.993 233.84,-370.636"/>
<polygon fill="midnightblue" stroke="midnightblue" points="86.3327,-784.464 89.9693,-794.415 93.332,-784.368 86.3327,-784.464"/>
</g>
<!-- Node28 -->
<g id="node28" class="node"><title>Node28</title>
<g id="a_node28"><a xlink:href="a00064.html" target="_top" xlink:title="retrieves the title of the html document currently selected. ">
<polygon fill="white" stroke="black" points="234,-294.5 234,-324.5 396,-324.5 396,-294.5 234,-294.5"/>
<text text-anchor="start" x="242" y="-312.5" font-family="Helvetica,sans-Serif" font-size="10.00">beseenium.model.action.page</text>
<text text-anchor="middle" x="315" y="-301.5" font-family="Helvetica,sans-Serif" font-size="10.00">Actions.GetTitle</text>
</a>
</g>
</g>
<!-- Node1&#45;&gt;Node28 -->
<g id="edge27" class="edge"><title>Node1&#45;&gt;Node28</title>
<path fill="none" stroke="midnightblue" d="M93.7217,-784.26C105.546,-695.503 149.316,-399.596 215,-334.5 220.414,-329.134 226.803,-324.866 233.685,-321.477"/>
<polygon fill="midnightblue" stroke="midnightblue" points="90.2413,-783.883 92.4096,-794.253 97.1817,-784.794 90.2413,-783.883"/>
</g>
<!-- Node29 -->
<g id="node29" class="node"><title>Node29</title>
<g id="a_node29"><a xlink:href="a00065.html" target="_top" xlink:title="This is a GetURL Action, it retrieves the URL of the current page. ">
<polygon fill="white" stroke="black" points="234,-245.5 234,-275.5 396,-275.5 396,-245.5 234,-245.5"/>
<text text-anchor="start" x="242" y="-263.5" font-family="Helvetica,sans-Serif" font-size="10.00">beseenium.model.action.page</text>
<text text-anchor="middle" x="315" y="-252.5" font-family="Helvetica,sans-Serif" font-size="10.00">Actions.GetURL</text>
</a>
</g>
</g>
<!-- Node1&#45;&gt;Node29 -->
<g id="edge28" class="edge"><title>Node1&#45;&gt;Node29</title>
<path fill="none" stroke="midnightblue" d="M93.0681,-784.182C103.168,-689.554 143.167,-358.352 215,-285.5 220.352,-280.072 226.699,-275.762 233.556,-272.348"/>
<polygon fill="midnightblue" stroke="midnightblue" points="89.5714,-783.968 92.0089,-794.279 96.5332,-784.699 89.5714,-783.968"/>
</g>
<!-- Node30 -->
<g id="node30" class="node"><title>Node30</title>
<g id="a_node30"><a xlink:href="a00115.html" target="_top" xlink:title="This is a Close Action, it essentially closes the current tab, if it is the last or only tab open it ...">
<polygon fill="white" stroke="black" points="234,-196.5 234,-226.5 396,-226.5 396,-196.5 234,-196.5"/>
<text text-anchor="start" x="242" y="-214.5" font-family="Helvetica,sans-Serif" font-size="10.00">beseenium.model.action.page</text>
<text text-anchor="middle" x="315" y="-203.5" font-family="Helvetica,sans-Serif" font-size="10.00">Actions.PageClose</text>
</a>
</g>
</g>
<!-- Node1&#45;&gt;Node30 -->
<g id="edge29" class="edge"><title>Node1&#45;&gt;Node30</title>
<path fill="none" stroke="midnightblue" d="M92.5189,-784.133C101,-683.925 136.98,-317.171 215,-236.5 220.422,-230.893 226.906,-226.475 233.924,-223.003"/>
<polygon fill="midnightblue" stroke="midnightblue" points="89.0184,-783.995 91.6802,-794.25 95.9945,-784.573 89.0184,-783.995"/>
</g>
<!-- Node31 -->
<g id="node31" class="node"><title>Node31</title>
<g id="a_node31"><a xlink:href="a00116.html" target="_top" xlink:title="this is a page get action, it navigates to a page set in the input parameter of the ActionData object...">
<polygon fill="white" stroke="black" points="234,-147.5 234,-177.5 396,-177.5 396,-147.5 234,-147.5"/>
<text text-anchor="start" x="242" y="-165.5" font-family="Helvetica,sans-Serif" font-size="10.00">beseenium.model.action.page</text>
<text text-anchor="middle" x="315" y="-154.5" font-family="Helvetica,sans-Serif" font-size="10.00">Actions.PageGet</text>
</a>
</g>
</g>
<!-- Node1&#45;&gt;Node31 -->
<g id="edge30" class="edge"><title>Node1&#45;&gt;Node31</title>
<path fill="none" stroke="midnightblue" d="M92.0331,-784.383C98.9532,-679.281 130.688,-276.119 215,-187.5 220.376,-181.849 226.829,-177.402 233.829,-173.912"/>
<polygon fill="midnightblue" stroke="midnightblue" points="88.5383,-784.191 91.3904,-794.395 95.524,-784.64 88.5383,-784.191"/>
</g>
<!-- Node32 -->
<g id="node32" class="node"><title>Node32</title>
<g id="a_node32"><a xlink:href="a00118.html" target="_top" xlink:title="this resets various attributes of the ActionData ">
<polygon fill="white" stroke="black" points="232.5,-98.5 232.5,-128.5 397.5,-128.5 397.5,-98.5 232.5,-98.5"/>
<text text-anchor="start" x="240.5" y="-116.5" font-family="Helvetica,sans-Serif" font-size="10.00">beseenium.model.action.Reset</text>
<text text-anchor="middle" x="315" y="-105.5" font-family="Helvetica,sans-Serif" font-size="10.00">ActionData</text>
</a>
</g>
</g>
<!-- Node1&#45;&gt;Node32 -->
<g id="edge31" class="edge"><title>Node1&#45;&gt;Node32</title>
<path fill="none" stroke="midnightblue" d="M91.6429,-784.22C97.1463,-673.794 124.484,-234.992 215,-138.5 219.973,-133.199 225.892,-128.955 232.327,-125.565"/>
<polygon fill="midnightblue" stroke="midnightblue" points="88.1374,-784.251 91.1515,-794.408 95.1293,-784.588 88.1374,-784.251"/>
</g>
<!-- Node33 -->
<g id="node33" class="node"><title>Node33</title>
<g id="a_node33"><a xlink:href="a00128.html" target="_top" xlink:title="this is a SwitchToActiveElement, it Switches to the element that currently has focus within the docum...">
<polygon fill="white" stroke="black" points="231.5,-49.5 231.5,-79.5 398.5,-79.5 398.5,-49.5 231.5,-49.5"/>
<text text-anchor="start" x="239.5" y="-67.5" font-family="Helvetica,sans-Serif" font-size="10.00">beseenium.model.action.switch</text>
<text text-anchor="middle" x="315" y="-56.5" font-family="Helvetica,sans-Serif" font-size="10.00">Actions.SwitchToActiveElement</text>
</a>
</g>
</g>
<!-- Node1&#45;&gt;Node33 -->
<g id="edge32" class="edge"><title>Node1&#45;&gt;Node33</title>
<path fill="none" stroke="midnightblue" d="M91.2946,-784.235C95.4343,-668.951 118.213,-193.951 215,-89.5 219.699,-84.4289 225.264,-80.3227 231.322,-77.005"/>
<polygon fill="midnightblue" stroke="midnightblue" points="87.7963,-784.13 90.9503,-794.244 94.7921,-784.371 87.7963,-784.13"/>
</g>
<!-- Node34 -->
<g id="node34" class="node"><title>Node34</title>
<g id="a_node34"><a xlink:href="a00129.html" target="_top" xlink:title="represents a SwitchToDefaultContent action which Selects either the first frame on the page...">
<polygon fill="white" stroke="black" points="230,-0.5 230,-30.5 400,-30.5 400,-0.5 230,-0.5"/>
<text text-anchor="start" x="238" y="-18.5" font-family="Helvetica,sans-Serif" font-size="10.00">beseenium.model.action.switch</text>
<text text-anchor="middle" x="315" y="-7.5" font-family="Helvetica,sans-Serif" font-size="10.00">Actions.SwitchToDefaultContent</text>
</a>
</g>
</g>
<!-- Node1&#45;&gt;Node34 -->
<g id="edge33" class="edge"><title>Node1&#45;&gt;Node34</title>
<path fill="none" stroke="midnightblue" d="M90.9849,-784.466C93.8128,-664.886 111.863,-153.007 215,-40.5 219.312,-35.7958 224.37,-31.9203 229.877,-28.7334"/>
<polygon fill="midnightblue" stroke="midnightblue" points="87.4852,-784.419 90.7624,-794.494 94.4834,-784.574 87.4852,-784.419"/>
</g>
</g>
</svg>
