<?xml version="1.0" encoding="UTF-8" standalone="no"?>
<!DOCTYPE svg PUBLIC "-//W3C//DTD SVG 1.1//EN"
 "http://www.w3.org/Graphics/SVG/1.1/DTD/svg11.dtd">
<!-- Generated by graphviz version 2.38.0 (20140413.2041)
 -->
<!-- Title: Graphical Class Hierarchy Pages: 1 -->
<svg width="762pt" height="245pt"
 viewBox="0.00 0.00 762.00 245.50" xmlns="http://www.w3.org/2000/svg" xmlns:xlink="http://www.w3.org/1999/xlink">
<g id="graph0" class="graph" transform="scale(1 1) rotate(0) translate(4 241.5)">
<title>Graphical Class Hierarchy</title>
<polygon fill="white" stroke="none" points="-4,4 -4,-241.5 758,-241.5 758,4 -4,4"/>
<!-- Node1 -->
<g id="node1" class="node"><title>Node1</title>
<polygon fill="white" stroke="#bfbfbf" points="0,-104 0,-123 63,-123 63,-104 0,-104"/>
<text text-anchor="middle" x="31.5" y="-111" font-family="Helvetica,sans-Serif" font-size="10.00">Exception</text>
</g>
<!-- Node2 -->
<g id="node2" class="node"><title>Node2</title>
<g id="a_node2"><a xlink:href="a00031.html" target="_top" xlink:title="Copyright(C) 2015 Jan P.C. ">
<polygon fill="white" stroke="black" points="99,-98.5 99,-128.5 282,-128.5 282,-98.5 99,-98.5"/>
<text text-anchor="start" x="107" y="-116.5" font-family="Helvetica,sans-Serif" font-size="10.00">beseenium.exceptions.BeSeenium</text>
<text text-anchor="middle" x="190.5" y="-105.5" font-family="Helvetica,sans-Serif" font-size="10.00">Exception</text>
</a>
</g>
</g>
<!-- Node1&#45;&gt;Node2 -->
<g id="edge1" class="edge"><title>Node1&#45;&gt;Node2</title>
<path fill="none" stroke="midnightblue" d="M73.2464,-113.5C81.2639,-113.5 89.971,-113.5 98.8919,-113.5"/>
<polygon fill="midnightblue" stroke="midnightblue" points="73.1439,-110 63.1439,-113.5 73.1438,-117 73.1439,-110"/>
</g>
<!-- Node3 -->
<g id="node3" class="node"><title>Node3</title>
<g id="a_node3"><a xlink:href="a00015.html" target="_top" xlink:title="Exception applicable to ActionData. ">
<polygon fill="white" stroke="black" points="318,-174.5 318,-204.5 512,-204.5 512,-174.5 318,-174.5"/>
<text text-anchor="start" x="326" y="-192.5" font-family="Helvetica,sans-Serif" font-size="10.00">beseenium.exceptions.action</text>
<text text-anchor="middle" x="415" y="-181.5" font-family="Helvetica,sans-Serif" font-size="10.00">DataExceptions.ActionDataException</text>
</a>
</g>
</g>
<!-- Node2&#45;&gt;Node3 -->
<g id="edge2" class="edge"><title>Node2&#45;&gt;Node3</title>
<path fill="none" stroke="midnightblue" d="M245.362,-131.898C283.482,-144.919 333.981,-162.168 369.752,-174.386"/>
<polygon fill="midnightblue" stroke="midnightblue" points="246.053,-128.435 235.459,-128.515 243.791,-135.06 246.053,-128.435"/>
</g>
<!-- Node5 -->
<g id="node5" class="node"><title>Node5</title>
<g id="a_node5"><a xlink:href="a00019.html" target="_top" xlink:title="exception applicable to Actions ">
<polygon fill="white" stroke="black" points="336.5,-98.5 336.5,-128.5 493.5,-128.5 493.5,-98.5 336.5,-98.5"/>
<text text-anchor="start" x="344.5" y="-116.5" font-family="Helvetica,sans-Serif" font-size="10.00">beseenium.exceptions.action</text>
<text text-anchor="middle" x="415" y="-105.5" font-family="Helvetica,sans-Serif" font-size="10.00">Exceptions.ActionException</text>
</a>
</g>
</g>
<!-- Node2&#45;&gt;Node5 -->
<g id="edge4" class="edge"><title>Node2&#45;&gt;Node5</title>
<path fill="none" stroke="midnightblue" d="M292.456,-113.5C307.17,-113.5 322.127,-113.5 336.285,-113.5"/>
<polygon fill="midnightblue" stroke="midnightblue" points="292.32,-110 282.32,-113.5 292.32,-117 292.32,-110"/>
</g>
<!-- Node10 -->
<g id="node10" class="node"><title>Node10</title>
<g id="a_node10"><a xlink:href="a00131.html" target="_top" xlink:title="Exception that apply to Test&#39;s. ">
<polygon fill="white" stroke="black" points="342,-49.5 342,-79.5 488,-79.5 488,-49.5 342,-49.5"/>
<text text-anchor="start" x="350" y="-67.5" font-family="Helvetica,sans-Serif" font-size="10.00">beseenium.exceptions.test</text>
<text text-anchor="middle" x="415" y="-56.5" font-family="Helvetica,sans-Serif" font-size="10.00">Exceptions.TestException</text>
</a>
</g>
</g>
<!-- Node2&#45;&gt;Node10 -->
<g id="edge9" class="edge"><title>Node2&#45;&gt;Node10</title>
<path fill="none" stroke="midnightblue" d="M269.536,-96.3146C294.416,-90.8353 321.737,-84.8185 345.86,-79.5062"/>
<polygon fill="midnightblue" stroke="midnightblue" points="268.783,-92.8965 259.769,-98.4654 270.288,-99.7327 268.783,-92.8965"/>
</g>
<!-- Node4 -->
<g id="node4" class="node"><title>Node4</title>
<g id="a_node4"><a xlink:href="a00018.html" target="_top" xlink:title="Copyright(C) 2015 Jan P.C. ">
<polygon fill="white" stroke="black" points="559.5,-196 559.5,-237 742.5,-237 742.5,-196 559.5,-196"/>
<text text-anchor="start" x="567.5" y="-225" font-family="Helvetica,sans-Serif" font-size="10.00">beseenium.exceptions.action</text>
<text text-anchor="start" x="567.5" y="-214" font-family="Helvetica,sans-Serif" font-size="10.00">DataExceptions.ActionDataFactory</text>
<text text-anchor="middle" x="651" y="-203" font-family="Helvetica,sans-Serif" font-size="10.00">Exception</text>
</a>
</g>
</g>
<!-- Node3&#45;&gt;Node4 -->
<g id="edge3" class="edge"><title>Node3&#45;&gt;Node4</title>
<path fill="none" stroke="midnightblue" d="M522.139,-201.747C534.602,-203.185 547.231,-204.642 559.454,-206.052"/>
<polygon fill="midnightblue" stroke="midnightblue" points="522.525,-198.268 512.19,-200.599 521.723,-205.222 522.525,-198.268"/>
</g>
<!-- Node6 -->
<g id="node6" class="node"><title>Node6</title>
<g id="a_node6"><a xlink:href="a00022.html" target="_top" xlink:title="Copyright(C) 2015 Jan P.C. ">
<polygon fill="white" stroke="black" points="559.5,-147.5 559.5,-177.5 742.5,-177.5 742.5,-147.5 559.5,-147.5"/>
<text text-anchor="start" x="567.5" y="-165.5" font-family="Helvetica,sans-Serif" font-size="10.00">beseenium.exceptions.action</text>
<text text-anchor="middle" x="651" y="-154.5" font-family="Helvetica,sans-Serif" font-size="10.00">Exceptions.ActionFactoryException</text>
</a>
</g>
</g>
<!-- Node5&#45;&gt;Node6 -->
<g id="edge5" class="edge"><title>Node5&#45;&gt;Node6</title>
<path fill="none" stroke="midnightblue" d="M497.722,-130.613C523.981,-136.111 552.857,-142.158 578.338,-147.494"/>
<polygon fill="midnightblue" stroke="midnightblue" points="498.303,-127.159 487.798,-128.535 496.868,-134.01 498.303,-127.159"/>
</g>
<!-- Node7 -->
<g id="node7" class="node"><title>Node7</title>
<g id="a_node7"><a xlink:href="a00042.html" target="_top" xlink:title="Copyright(C) 2015 Jan P.C. ">
<polygon fill="white" stroke="black" points="572.5,-98.5 572.5,-128.5 729.5,-128.5 729.5,-98.5 572.5,-98.5"/>
<text text-anchor="start" x="580.5" y="-116.5" font-family="Helvetica,sans-Serif" font-size="10.00">beseenium.exceptions.action</text>
<text text-anchor="middle" x="651" y="-105.5" font-family="Helvetica,sans-Serif" font-size="10.00">Exceptions.ClickException</text>
</a>
</g>
</g>
<!-- Node5&#45;&gt;Node7 -->
<g id="edge6" class="edge"><title>Node5&#45;&gt;Node7</title>
<path fill="none" stroke="midnightblue" d="M503.799,-113.5C526.274,-113.5 550.285,-113.5 572.217,-113.5"/>
<polygon fill="midnightblue" stroke="midnightblue" points="503.594,-110 493.594,-113.5 503.594,-117 503.594,-110"/>
</g>
<!-- Node8 -->
<g id="node8" class="node"><title>Node8</title>
<g id="a_node8"><a xlink:href="a00113.html" target="_top" xlink:title="Copyright(C) 2015 Jan P.C. ">
<polygon fill="white" stroke="black" points="548,-49.5 548,-79.5 754,-79.5 754,-49.5 548,-49.5"/>
<text text-anchor="start" x="556" y="-67.5" font-family="Helvetica,sans-Serif" font-size="10.00">beseenium.exceptions.action</text>
<text text-anchor="middle" x="651" y="-56.5" font-family="Helvetica,sans-Serif" font-size="10.00">Exceptions.NoSuchParameterException</text>
</a>
</g>
</g>
<!-- Node5&#45;&gt;Node8 -->
<g id="edge7" class="edge"><title>Node5&#45;&gt;Node8</title>
<path fill="none" stroke="midnightblue" d="M497.722,-96.3873C523.981,-90.8885 552.857,-84.842 578.338,-79.5062"/>
<polygon fill="midnightblue" stroke="midnightblue" points="496.868,-92.99 487.798,-98.4654 498.303,-99.8414 496.868,-92.99"/>
</g>
<!-- Node9 -->
<g id="node9" class="node"><title>Node9</title>
<g id="a_node9"><a xlink:href="a00127.html" target="_top" xlink:title="Copyright(C) 2015 Jan P.C. ">
<polygon fill="white" stroke="black" points="572.5,-0.5 572.5,-30.5 729.5,-30.5 729.5,-0.5 572.5,-0.5"/>
<text text-anchor="start" x="580.5" y="-18.5" font-family="Helvetica,sans-Serif" font-size="10.00">beseenium.exceptions.action</text>
<text text-anchor="middle" x="651" y="-7.5" font-family="Helvetica,sans-Serif" font-size="10.00">Exceptions.SubmitException</text>
</a>
</g>
</g>
<!-- Node5&#45;&gt;Node9 -->
<g id="edge8" class="edge"><title>Node5&#45;&gt;Node9</title>
<path fill="none" stroke="midnightblue" d="M502.751,-93.9803C505.953,-92.302 509.05,-90.4793 512,-88.5 534.143,-73.641 525.75,-55.1992 548,-40.5 555.454,-35.5754 563.792,-31.6201 572.401,-28.4435"/>
<polygon fill="midnightblue" stroke="midnightblue" points="501.043,-90.9155 493.484,-98.3387 504.023,-97.2499 501.043,-90.9155"/>
</g>
</g>
</svg>
