<?xml version="1.0" encoding="UTF-8" standalone="no"?>
<!DOCTYPE svg PUBLIC "-//W3C//DTD SVG 1.1//EN"
 "http://www.w3.org/Graphics/SVG/1.1/DTD/svg11.dtd">
<!-- Generated by graphviz version 2.38.0 (20140413.2041)
 -->
<!-- Title: Graphical Class Hierarchy Pages: 1 -->
<svg width="500pt" height="1046pt"
 viewBox="0.00 0.00 500.00 1046.50" xmlns="http://www.w3.org/2000/svg" xmlns:xlink="http://www.w3.org/1999/xlink">
<g id="graph0" class="graph" transform="scale(1 1) rotate(0) translate(4 1042.5)">
<title>Graphical Class Hierarchy</title>
<polygon fill="white" stroke="none" points="-4,4 -4,-1042.5 496,-1042.5 496,4 -4,4"/>
<!-- Node1 -->
<g id="node1" class="node"><title>Node1</title>
<g id="a_node1"><a xlink:href="a00012.html" target="_top" xlink:title="abstract base for a chain of responsibility that takes abstractTestRequests and uses them to generate...">
<polygon fill="white" stroke="black" points="0,-501.5 0,-531.5 210,-531.5 210,-501.5 0,-501.5"/>
<text text-anchor="start" x="8" y="-519.5" font-family="Helvetica,sans-Serif" font-size="10.00">beseenium.view.outputHandlers.request</text>
<text text-anchor="middle" x="105" y="-508.5" font-family="Helvetica,sans-Serif" font-size="10.00">Handlers.AbstractRequestHandler</text>
</a>
</g>
</g>
<!-- Node2 -->
<g id="node2" class="node"><title>Node2</title>
<g id="a_node2"><a xlink:href="a00024.html" target="_top" xlink:title="This represents a handler for the case where the user has provided an index parameter for an action t...">
<polygon fill="white" stroke="black" points="256.5,-997 256.5,-1038 481.5,-1038 481.5,-997 256.5,-997"/>
<text text-anchor="start" x="264.5" y="-1026" font-family="Helvetica,sans-Serif" font-size="10.00">beseenium.view.outputHandlers.request</text>
<text text-anchor="start" x="264.5" y="-1015" font-family="Helvetica,sans-Serif" font-size="10.00">Handlers.addActionHandlers.ActionNumber</text>
<text text-anchor="middle" x="369" y="-1004" font-family="Helvetica,sans-Serif" font-size="10.00">FormatHandler</text>
</a>
</g>
</g>
<!-- Node1&#45;&gt;Node2 -->
<g id="edge1" class="edge"><title>Node1&#45;&gt;Node2</title>
<path fill="none" stroke="midnightblue" d="M105.385,-542.321C104.986,-621.437 115.056,-862.671 246,-987.5 249.71,-991.037 253.767,-994.177 258.076,-996.964"/>
<polygon fill="midnightblue" stroke="midnightblue" points="108.89,-541.898 105.507,-531.857 101.891,-541.816 108.89,-541.898"/>
</g>
<!-- Node3 -->
<g id="node3" class="node"><title>Node3</title>
<g id="a_node3"><a xlink:href="a00026.html" target="_top" xlink:title="This represents a handler for the case where there has been a misuse of an ActionData object This is ...">
<polygon fill="white" stroke="black" points="255,-937 255,-978 483,-978 483,-937 255,-937"/>
<text text-anchor="start" x="263" y="-966" font-family="Helvetica,sans-Serif" font-size="10.00">beseenium.view.outputHandlers.request</text>
<text text-anchor="start" x="263" y="-955" font-family="Helvetica,sans-Serif" font-size="10.00">Handlers.addActionHandlers.AddActionData</text>
<text text-anchor="middle" x="369" y="-944" font-family="Helvetica,sans-Serif" font-size="10.00">Handler</text>
</a>
</g>
</g>
<!-- Node1&#45;&gt;Node3 -->
<g id="edge2" class="edge"><title>Node1&#45;&gt;Node3</title>
<path fill="none" stroke="midnightblue" d="M106.664,-541.897C109.981,-613.878 129.682,-820.906 246,-927.5 249.859,-931.037 254.067,-934.174 258.525,-936.956"/>
<polygon fill="midnightblue" stroke="midnightblue" points="110.148,-541.396 106.261,-531.54 103.153,-541.669 110.148,-541.396"/>
</g>
<!-- Node4 -->
<g id="node4" class="node"><title>Node4</title>
<g id="a_node4"><a xlink:href="a00028.html" target="_top" xlink:title="This represents a handler for the case where the user has entered a badly formatted value for the add...">
<polygon fill="white" stroke="black" points="252.5,-877 252.5,-918 485.5,-918 485.5,-877 252.5,-877"/>
<text text-anchor="start" x="260.5" y="-906" font-family="Helvetica,sans-Serif" font-size="10.00">beseenium.view.outputHandlers.request</text>
<text text-anchor="start" x="260.5" y="-895" font-family="Helvetica,sans-Serif" font-size="10.00">Handlers.addActionHandlers.BadlyFormatted</text>
<text text-anchor="middle" x="369" y="-884" font-family="Helvetica,sans-Serif" font-size="10.00">ActionHandler</text>
</a>
</g>
</g>
<!-- Node1&#45;&gt;Node4 -->
<g id="edge3" class="edge"><title>Node1&#45;&gt;Node4</title>
<path fill="none" stroke="midnightblue" d="M108.311,-541.655C115.635,-606.224 144.252,-778.942 246,-867.5 250.031,-871.008 254.408,-874.12 259.027,-876.879"/>
<polygon fill="midnightblue" stroke="midnightblue" points="111.777,-541.148 107.244,-531.572 104.816,-541.885 111.777,-541.148"/>
</g>
<!-- Node5 -->
<g id="node5" class="node"><title>Node5</title>
<g id="a_node5"><a xlink:href="a00110.html" target="_top" xlink:title="This represents a handler for the case where the user has forgotten to use the addAction parameter in...">
<polygon fill="white" stroke="black" points="253.5,-817 253.5,-858 484.5,-858 484.5,-817 253.5,-817"/>
<text text-anchor="start" x="261.5" y="-846" font-family="Helvetica,sans-Serif" font-size="10.00">beseenium.view.outputHandlers.request</text>
<text text-anchor="start" x="261.5" y="-835" font-family="Helvetica,sans-Serif" font-size="10.00">Handlers.addActionHandlers.NoActionParam</text>
<text text-anchor="middle" x="369" y="-824" font-family="Helvetica,sans-Serif" font-size="10.00">Handler</text>
</a>
</g>
</g>
<!-- Node1&#45;&gt;Node5 -->
<g id="edge4" class="edge"><title>Node1&#45;&gt;Node5</title>
<path fill="none" stroke="midnightblue" d="M110.568,-541.552C122.252,-598.184 158.687,-736.64 246,-807.5 250.319,-811.005 254.987,-814.109 259.894,-816.858"/>
<polygon fill="midnightblue" stroke="midnightblue" points="113.985,-540.791 108.61,-531.661 107.118,-542.151 113.985,-540.791"/>
</g>
<!-- Node6 -->
<g id="node6" class="node"><title>Node6</title>
<g id="a_node6"><a xlink:href="a00112.html" target="_top" xlink:title="This represents a handler for the case where the user attempts to create an action that does not exis...">
<polygon fill="white" stroke="black" points="262,-757 262,-798 476,-798 476,-757 262,-757"/>
<text text-anchor="start" x="270" y="-786" font-family="Helvetica,sans-Serif" font-size="10.00">beseenium.view.outputHandlers.request</text>
<text text-anchor="start" x="270" y="-775" font-family="Helvetica,sans-Serif" font-size="10.00">Handlers.addActionHandlers.NonExistant</text>
<text text-anchor="middle" x="369" y="-764" font-family="Helvetica,sans-Serif" font-size="10.00">ActionHandler</text>
</a>
</g>
</g>
<!-- Node1&#45;&gt;Node6 -->
<g id="edge5" class="edge"><title>Node1&#45;&gt;Node6</title>
<path fill="none" stroke="midnightblue" d="M113.811,-541.269C130.182,-588.991 172.761,-693.704 246,-747.5 250.922,-751.115 256.227,-754.299 261.772,-757.102"/>
<polygon fill="midnightblue" stroke="midnightblue" points="117.113,-540.107 110.629,-531.728 110.472,-542.321 117.113,-540.107"/>
</g>
<!-- Node7 -->
<g id="node7" class="node"><title>Node7</title>
<g id="a_node7"><a xlink:href="a00119.html" target="_top" xlink:title="This class is the root of the addAction chain of responsibility, it takes care of defining the chain ...">
<polygon fill="white" stroke="black" points="253,-697 253,-738 485,-738 485,-697 253,-697"/>
<text text-anchor="start" x="261" y="-726" font-family="Helvetica,sans-Serif" font-size="10.00">beseenium.view.outputHandlers.request</text>
<text text-anchor="start" x="261" y="-715" font-family="Helvetica,sans-Serif" font-size="10.00">Handlers.addActionHandlers.RootAddActions</text>
<text text-anchor="middle" x="369" y="-704" font-family="Helvetica,sans-Serif" font-size="10.00">Handler</text>
</a>
</g>
</g>
<!-- Node1&#45;&gt;Node7 -->
<g id="edge6" class="edge"><title>Node1&#45;&gt;Node7</title>
<path fill="none" stroke="midnightblue" d="M118.967,-540.778C140.297,-578.286 186.428,-649.908 246,-687.5 251.626,-691.05 257.643,-694.18 263.878,-696.94"/>
<polygon fill="midnightblue" stroke="midnightblue" points="121.773,-538.624 113.851,-531.589 115.657,-542.029 121.773,-538.624"/>
</g>
<!-- Node8 -->
<g id="node8" class="node"><title>Node8</title>
<g id="a_node8"><a xlink:href="a00033.html" target="_top" xlink:title="This represents a handler for the case where something in the model has gone awry and the ActionData ...">
<polygon fill="white" stroke="black" points="262,-637 262,-678 476,-678 476,-637 262,-637"/>
<text text-anchor="start" x="270" y="-666" font-family="Helvetica,sans-Serif" font-size="10.00">beseenium.view.outputHandlers.request</text>
<text text-anchor="start" x="270" y="-655" font-family="Helvetica,sans-Serif" font-size="10.00">Handlers.browserHandlers.BrowserAction</text>
<text text-anchor="middle" x="369" y="-644" font-family="Helvetica,sans-Serif" font-size="10.00">DataHandler</text>
</a>
</g>
</g>
<!-- Node1&#45;&gt;Node8 -->
<g id="edge7" class="edge"><title>Node1&#45;&gt;Node8</title>
<path fill="none" stroke="midnightblue" d="M127.827,-538.856C153.725,-564.094 199.304,-604.612 246,-627.5 253.247,-631.052 260.947,-634.204 268.818,-636.997"/>
<polygon fill="midnightblue" stroke="midnightblue" points="130.013,-536.095 120.443,-531.55 125.09,-541.071 130.013,-536.095"/>
</g>
<!-- Node9 -->
<g id="node9" class="node"><title>Node9</title>
<g id="a_node9"><a xlink:href="a00111.html" target="_top" xlink:title="This represents a handler for the case where the browser parameter has been left out entirely...">
<polygon fill="white" stroke="black" points="254.5,-577 254.5,-618 483.5,-618 483.5,-577 254.5,-577"/>
<text text-anchor="start" x="262.5" y="-606" font-family="Helvetica,sans-Serif" font-size="10.00">beseenium.view.outputHandlers.request</text>
<text text-anchor="start" x="262.5" y="-595" font-family="Helvetica,sans-Serif" font-size="10.00">Handlers.browserHandlers.NoBrowserParam</text>
<text text-anchor="middle" x="369" y="-584" font-family="Helvetica,sans-Serif" font-size="10.00">Handler</text>
</a>
</g>
</g>
<!-- Node1&#45;&gt;Node9 -->
<g id="edge8" class="edge"><title>Node1&#45;&gt;Node9</title>
<path fill="none" stroke="midnightblue" d="M153.501,-535.255C180.402,-545.509 214.811,-558.015 246,-567.5 256.851,-570.8 268.328,-573.997 279.728,-576.997"/>
<polygon fill="midnightblue" stroke="midnightblue" points="154.54,-531.905 143.95,-531.589 152.032,-538.44 154.54,-531.905"/>
</g>
<!-- Node10 -->
<g id="node10" class="node"><title>Node10</title>
<g id="a_node10"><a xlink:href="a00120.html" target="_top" xlink:title="This class is the root of the browser chain of responsibility, it takes care of defining the chain an...">
<polygon fill="white" stroke="black" points="247.5,-528.5 247.5,-558.5 490.5,-558.5 490.5,-528.5 247.5,-528.5"/>
<text text-anchor="start" x="255.5" y="-546.5" font-family="Helvetica,sans-Serif" font-size="10.00">beseenium.view.outputHandlers.request</text>
<text text-anchor="middle" x="369" y="-535.5" font-family="Helvetica,sans-Serif" font-size="10.00">Handlers.browserHandlers.RootBrowserHandler</text>
</a>
</g>
</g>
<!-- Node1&#45;&gt;Node10 -->
<g id="edge9" class="edge"><title>Node1&#45;&gt;Node10</title>
<path fill="none" stroke="midnightblue" d="M220.315,-528.281C229.231,-529.199 238.251,-530.129 247.208,-531.052"/>
<polygon fill="midnightblue" stroke="midnightblue" points="220.608,-524.792 210.302,-527.249 219.891,-531.755 220.608,-524.792"/>
</g>
<!-- Node11 -->
<g id="node11" class="node"><title>Node11</title>
<g id="a_node11"><a xlink:href="a00133.html" target="_top" xlink:title="This represents a handler for the case where the browser parameter has either been left blank or an i...">
<polygon fill="white" stroke="black" points="246.5,-469 246.5,-510 491.5,-510 491.5,-469 246.5,-469"/>
<text text-anchor="start" x="254.5" y="-498" font-family="Helvetica,sans-Serif" font-size="10.00">beseenium.view.outputHandlers.request</text>
<text text-anchor="start" x="254.5" y="-487" font-family="Helvetica,sans-Serif" font-size="10.00">Handlers.browserHandlers.WrongBrowserParam</text>
<text text-anchor="middle" x="369" y="-476" font-family="Helvetica,sans-Serif" font-size="10.00">Handler</text>
</a>
</g>
</g>
<!-- Node1&#45;&gt;Node11 -->
<g id="edge10" class="edge"><title>Node1&#45;&gt;Node11</title>
<path fill="none" stroke="midnightblue" d="M220.359,-504.715C228.971,-503.827 237.682,-502.93 246.337,-502.038"/>
<polygon fill="midnightblue" stroke="midnightblue" points="219.891,-501.245 210.302,-505.751 220.608,-508.208 219.891,-501.245"/>
</g>
<!-- Node12 -->
<g id="node12" class="node"><title>Node12</title>
<g id="a_node12"><a xlink:href="a00029.html" target="_top" xlink:title="This represents a handler for the case in which the user has made some elementary mistake in the leng...">
<polygon fill="white" stroke="black" points="257,-409 257,-450 481,-450 481,-409 257,-409"/>
<text text-anchor="start" x="265" y="-438" font-family="Helvetica,sans-Serif" font-size="10.00">beseenium.view.outputHandlers.request</text>
<text text-anchor="start" x="265" y="-427" font-family="Helvetica,sans-Serif" font-size="10.00">Handlers.capabilitiesHandlers.BadlyFormed</text>
<text text-anchor="middle" x="369" y="-416" font-family="Helvetica,sans-Serif" font-size="10.00">CapsStringHandler</text>
</a>
</g>
</g>
<!-- Node1&#45;&gt;Node12 -->
<g id="edge11" class="edge"><title>Node1&#45;&gt;Node12</title>
<path fill="none" stroke="midnightblue" d="M148.458,-497.328C175.909,-485.405 212.619,-470.336 246,-459.5 256.269,-456.166 267.128,-453 277.966,-450.062"/>
<polygon fill="midnightblue" stroke="midnightblue" points="146.911,-494.185 139.154,-501.402 149.718,-500.597 146.911,-494.185"/>
</g>
<!-- Node13 -->
<g id="node13" class="node"><title>Node13</title>
<g id="a_node13"><a xlink:href="a00039.html" target="_top" xlink:title="This represents a handler for the case in which the ActionData object has not been correctly used...">
<polygon fill="white" stroke="black" points="261.5,-349 261.5,-390 476.5,-390 476.5,-349 261.5,-349"/>
<text text-anchor="start" x="269.5" y="-378" font-family="Helvetica,sans-Serif" font-size="10.00">beseenium.view.outputHandlers.request</text>
<text text-anchor="start" x="269.5" y="-367" font-family="Helvetica,sans-Serif" font-size="10.00">Handlers.capabilitiesHandlers.CapsAction</text>
<text text-anchor="middle" x="369" y="-356" font-family="Helvetica,sans-Serif" font-size="10.00">DataHandler</text>
</a>
</g>
</g>
<!-- Node1&#45;&gt;Node13 -->
<g id="edge12" class="edge"><title>Node1&#45;&gt;Node13</title>
<path fill="none" stroke="midnightblue" d="M126.428,-494.087C151.876,-467.538 197.9,-423.85 246,-399.5 253.006,-395.953 260.453,-392.811 268.081,-390.029"/>
<polygon fill="midnightblue" stroke="midnightblue" points="123.832,-491.739 119.512,-501.413 128.921,-496.545 123.832,-491.739"/>
</g>
<!-- Node14 -->
<g id="node14" class="node"><title>Node14</title>
<g id="a_node14"><a xlink:href="a00045.html" target="_top" xlink:title="This class represents a handler for the case where a null pointer exception is thrown when attempting...">
<polygon fill="white" stroke="black" points="261,-289 261,-330 477,-330 477,-289 261,-289"/>
<text text-anchor="start" x="269" y="-318" font-family="Helvetica,sans-Serif" font-size="10.00">beseenium.view.outputHandlers.request</text>
<text text-anchor="start" x="269" y="-307" font-family="Helvetica,sans-Serif" font-size="10.00">Handlers.capabilitiesHandlers.EmptyCaps</text>
<text text-anchor="middle" x="369" y="-296" font-family="Helvetica,sans-Serif" font-size="10.00">ParamHandler</text>
</a>
</g>
</g>
<!-- Node1&#45;&gt;Node14 -->
<g id="edge13" class="edge"><title>Node1&#45;&gt;Node14</title>
<path fill="none" stroke="midnightblue" d="M118.164,-492.438C138.921,-453.918 184.932,-378.759 246,-339.5 251.504,-335.961 257.394,-332.84 263.503,-330.087"/>
<polygon fill="midnightblue" stroke="midnightblue" points="115.007,-490.92 113.437,-501.398 121.199,-494.186 115.007,-490.92"/>
</g>
<!-- Node15 -->
<g id="node15" class="node"><title>Node15</title>
<g id="a_node15"><a xlink:href="a00107.html" target="_top" xlink:title="This class represents a handler for the case in which the authorisation string of the remote capabili...">
<polygon fill="white" stroke="black" points="263,-229 263,-270 475,-270 475,-229 263,-229"/>
<text text-anchor="start" x="271" y="-258" font-family="Helvetica,sans-Serif" font-size="10.00">beseenium.view.outputHandlers.request</text>
<text text-anchor="start" x="271" y="-247" font-family="Helvetica,sans-Serif" font-size="10.00">Handlers.capabilitiesHandlers.Malformed</text>
<text text-anchor="middle" x="369" y="-236" font-family="Helvetica,sans-Serif" font-size="10.00">URLHandler</text>
</a>
</g>
</g>
<!-- Node1&#45;&gt;Node15 -->
<g id="edge14" class="edge"><title>Node1&#45;&gt;Node15</title>
<path fill="none" stroke="midnightblue" d="M113.389,-491.798C129.251,-443.184 171.319,-335.008 246,-279.5 251.252,-275.597 256.948,-272.196 262.912,-269.234"/>
<polygon fill="midnightblue" stroke="midnightblue" points="110.001,-490.903 110.318,-501.493 116.675,-493.016 110.001,-490.903"/>
</g>
<!-- Node16 -->
<g id="node16" class="node"><title>Node16</title>
<g id="a_node16"><a xlink:href="a00121.html" target="_top" xlink:title="This class is the root of the capabilities chain of responsibility, it takes care of defining the cha...">
<polygon fill="white" stroke="black" points="250,-169 250,-210 488,-210 488,-169 250,-169"/>
<text text-anchor="start" x="258" y="-198" font-family="Helvetica,sans-Serif" font-size="10.00">beseenium.view.outputHandlers.request</text>
<text text-anchor="start" x="258" y="-187" font-family="Helvetica,sans-Serif" font-size="10.00">Handlers.capabilitiesHandlers.RootCapabilities</text>
<text text-anchor="middle" x="369" y="-176" font-family="Helvetica,sans-Serif" font-size="10.00">Handler</text>
</a>
</g>
</g>
<!-- Node1&#45;&gt;Node16 -->
<g id="edge15" class="edge"><title>Node1&#45;&gt;Node16</title>
<path fill="none" stroke="midnightblue" d="M110.323,-491.348C121.574,-433.828 157.301,-292.069 246,-219.5 250.305,-215.978 254.962,-212.86 259.86,-210.101"/>
<polygon fill="midnightblue" stroke="midnightblue" points="106.845,-490.905 108.444,-501.378 113.725,-492.193 106.845,-490.905"/>
</g>
<!-- Node17 -->
<g id="node17" class="node"><title>Node17</title>
<g id="a_node17"><a xlink:href="a00016.html" target="_top" xlink:title="This represents a handler for the case where, an element scoped action has been performed before a fi...">
<polygon fill="white" stroke="black" points="246,-109 246,-150 492,-150 492,-109 246,-109"/>
<text text-anchor="start" x="254" y="-138" font-family="Helvetica,sans-Serif" font-size="10.00">beseenium.view.outputHandlers.request</text>
<text text-anchor="start" x="254" y="-127" font-family="Helvetica,sans-Serif" font-size="10.00">Handlers.executeHandlers.ActionDataException</text>
<text text-anchor="middle" x="369" y="-116" font-family="Helvetica,sans-Serif" font-size="10.00">Handler</text>
</a>
</g>
</g>
<!-- Node1&#45;&gt;Node17 -->
<g id="edge16" class="edge"><title>Node1&#45;&gt;Node17</title>
<path fill="none" stroke="midnightblue" d="M108.167,-490.926C115.146,-425.279 143.01,-249.664 246,-159.5 250.021,-155.98 254.389,-152.859 259.002,-150.093"/>
<polygon fill="midnightblue" stroke="midnightblue" points="104.654,-490.882 107.155,-501.177 111.62,-491.569 104.654,-490.882"/>
</g>
<!-- Node18 -->
<g id="node18" class="node"><title>Node18</title>
<g id="a_node18"><a xlink:href="a00020.html" target="_top" xlink:title="This represents a handler for the case where, actions have been requested in the incorrect order...">
<polygon fill="white" stroke="black" points="257.5,-49 257.5,-90 480.5,-90 480.5,-49 257.5,-49"/>
<text text-anchor="start" x="265.5" y="-78" font-family="Helvetica,sans-Serif" font-size="10.00">beseenium.view.outputHandlers.request</text>
<text text-anchor="start" x="265.5" y="-67" font-family="Helvetica,sans-Serif" font-size="10.00">Handlers.executeHandlers.ActionException</text>
<text text-anchor="middle" x="369" y="-56" font-family="Helvetica,sans-Serif" font-size="10.00">Handler</text>
</a>
</g>
</g>
<!-- Node1&#45;&gt;Node18 -->
<g id="edge17" class="edge"><title>Node1&#45;&gt;Node18</title>
<path fill="none" stroke="midnightblue" d="M106.518,-491.191C109.435,-418.6 128.155,-207.971 246,-99.5 249.852,-95.9548 254.053,-92.8107 258.505,-90.0236"/>
<polygon fill="midnightblue" stroke="midnightblue" points="103.018,-491.135 106.182,-501.246 110.014,-491.369 103.018,-491.135"/>
</g>
<!-- Node19 -->
<g id="node19" class="node"><title>Node19</title>
<g id="a_node19"><a xlink:href="a00123.html" target="_top" xlink:title="This class is the root of the addAction chain of responsibility, it takes care of defining the chain ...">
<polygon fill="white" stroke="black" points="247,-0.5 247,-30.5 491,-30.5 491,-0.5 247,-0.5"/>
<text text-anchor="start" x="255" y="-18.5" font-family="Helvetica,sans-Serif" font-size="10.00">beseenium.view.outputHandlers.request</text>
<text text-anchor="middle" x="369" y="-7.5" font-family="Helvetica,sans-Serif" font-size="10.00">Handlers.executeHandlers.RootExecuteHandler</text>
</a>
</g>
</g>
<!-- Node1&#45;&gt;Node19 -->
<g id="edge18" class="edge"><title>Node1&#45;&gt;Node19</title>
<path fill="none" stroke="midnightblue" d="M109.952,-490.996C124.357,-401.334 176.85,-102.612 246,-39.5 249.667,-36.153 253.66,-33.2138 257.891,-30.6359"/>
<polygon fill="midnightblue" stroke="midnightblue" points="106.46,-490.667 108.349,-501.092 113.374,-491.764 106.46,-490.667"/>
</g>
</g>
</svg>
