<?xml version="1.0" encoding="UTF-8" standalone="no"?>
<!DOCTYPE svg PUBLIC "-//W3C//DTD SVG 1.1//EN"
 "http://www.w3.org/Graphics/SVG/1.1/DTD/svg11.dtd">
<!-- Generated by graphviz version 2.38.0 (20140413.2041)
 -->
<!-- Title: Graphical Class Hierarchy Pages: 1 -->
<svg width="421pt" height="1557pt"
 viewBox="0.00 0.00 421.00 1557.00" xmlns="http://www.w3.org/2000/svg" xmlns:xlink="http://www.w3.org/1999/xlink">
<g id="graph0" class="graph" transform="scale(1 1) rotate(0) translate(4 1553)">
<title>Graphical Class Hierarchy</title>
<polygon fill="white" stroke="none" points="-4,4 -4,-1553 417,-1553 417,4 -4,4"/>
<!-- Node1 -->
<g id="node1" class="node"><title>Node1</title>
<g id="a_node1"><a xlink:href="a00073.html" target="_top" xlink:title="abstract base class for the creation of AbstractActions specific to the MakeAction derived type...">
<polygon fill="white" stroke="black" points="0,-786.5 0,-816.5 151,-816.5 151,-786.5 0,-786.5"/>
<text text-anchor="start" x="8" y="-804.5" font-family="Helvetica,sans-Serif" font-size="10.00">beseenium.controller.Action</text>
<text text-anchor="middle" x="75.5" y="-793.5" font-family="Helvetica,sans-Serif" font-size="10.00">Factory.MakeAction</text>
</a>
</g>
</g>
<!-- Node2 -->
<g id="node2" class="node"><title>Node2</title>
<g id="a_node2"><a xlink:href="a00075.html" target="_top" xlink:title="creates a new Clear action ">
<polygon fill="white" stroke="black" points="208.5,-1518.5 208.5,-1548.5 391.5,-1548.5 391.5,-1518.5 208.5,-1518.5"/>
<text text-anchor="start" x="216.5" y="-1536.5" font-family="Helvetica,sans-Serif" font-size="10.00">beseenium.controller.Action</text>
<text text-anchor="middle" x="300" y="-1525.5" font-family="Helvetica,sans-Serif" font-size="10.00">Factory.elementActions.MakeClear</text>
</a>
</g>
</g>
<!-- Node1&#45;&gt;Node2 -->
<g id="edge1" class="edge"><title>Node1&#45;&gt;Node2</title>
<path fill="none" stroke="midnightblue" d="M76.7806,-826.69C78.5752,-940.655 91.7201,-1406.86 187,-1508.5 193.063,-1514.97 200.403,-1519.94 208.392,-1523.75"/>
<polygon fill="midnightblue" stroke="midnightblue" points="80.2777,-826.452 76.6365,-816.503 73.2784,-826.551 80.2777,-826.452"/>
</g>
<!-- Node3 -->
<g id="node3" class="node"><title>Node3</title>
<g id="a_node3"><a xlink:href="a00076.html" target="_top" xlink:title="creates a new click action ">
<polygon fill="white" stroke="black" points="210,-1469.5 210,-1499.5 390,-1499.5 390,-1469.5 210,-1469.5"/>
<text text-anchor="start" x="218" y="-1487.5" font-family="Helvetica,sans-Serif" font-size="10.00">beseenium.controller.Action</text>
<text text-anchor="middle" x="300" y="-1476.5" font-family="Helvetica,sans-Serif" font-size="10.00">Factory.elementActions.MakeClick</text>
</a>
</g>
</g>
<!-- Node1&#45;&gt;Node3 -->
<g id="edge2" class="edge"><title>Node1&#45;&gt;Node3</title>
<path fill="none" stroke="midnightblue" d="M77.1014,-826.681C80.2275,-935.702 98.1,-1365.74 187,-1459.5 193.443,-1466.3 201.295,-1471.44 209.822,-1475.31"/>
<polygon fill="midnightblue" stroke="midnightblue" points="80.5982,-826.512 76.8292,-816.611 73.6008,-826.702 80.5982,-826.512"/>
</g>
<!-- Node4 -->
<g id="node4" class="node"><title>Node4</title>
<g id="a_node4"><a xlink:href="a00087.html" target="_top" xlink:title="creates a new GetAttribute action ">
<polygon fill="white" stroke="black" points="191,-1420.5 191,-1450.5 409,-1450.5 409,-1420.5 191,-1420.5"/>
<text text-anchor="start" x="199" y="-1438.5" font-family="Helvetica,sans-Serif" font-size="10.00">beseenium.controller.Action</text>
<text text-anchor="middle" x="300" y="-1427.5" font-family="Helvetica,sans-Serif" font-size="10.00">Factory.elementActions.MakeGetAttribute</text>
</a>
</g>
</g>
<!-- Node1&#45;&gt;Node4 -->
<g id="edge3" class="edge"><title>Node1&#45;&gt;Node4</title>
<path fill="none" stroke="midnightblue" d="M77.477,-826.78C82.0196,-930.838 104.49,-1324.61 187,-1410.5 190.589,-1414.24 194.604,-1417.47 198.921,-1420.27"/>
<polygon fill="midnightblue" stroke="midnightblue" points="80.9656,-826.433 77.0498,-816.589 73.9717,-826.726 80.9656,-826.433"/>
</g>
<!-- Node5 -->
<g id="node5" class="node"><title>Node5</title>
<g id="a_node5"><a xlink:href="a00088.html" target="_top" xlink:title="creates a new GetCssValue action ">
<polygon fill="white" stroke="black" points="190,-1371.5 190,-1401.5 410,-1401.5 410,-1371.5 190,-1371.5"/>
<text text-anchor="start" x="198" y="-1389.5" font-family="Helvetica,sans-Serif" font-size="10.00">beseenium.controller.Action</text>
<text text-anchor="middle" x="300" y="-1378.5" font-family="Helvetica,sans-Serif" font-size="10.00">Factory.elementActions.MakeGetCssValue</text>
</a>
</g>
</g>
<!-- Node1&#45;&gt;Node5 -->
<g id="edge4" class="edge"><title>Node1&#45;&gt;Node5</title>
<path fill="none" stroke="midnightblue" d="M77.9235,-826.951C83.9798,-925.913 110.875,-1283.46 187,-1361.5 190.687,-1365.28 194.81,-1368.54 199.241,-1371.36"/>
<polygon fill="midnightblue" stroke="midnightblue" points="81.401,-826.467 77.3145,-816.692 74.4133,-826.882 81.401,-826.467"/>
</g>
<!-- Node6 -->
<g id="node6" class="node"><title>Node6</title>
<g id="a_node6"><a xlink:href="a00089.html" target="_top" xlink:title="creates a new GetLocation action ">
<polygon fill="white" stroke="black" points="192,-1322.5 192,-1352.5 408,-1352.5 408,-1322.5 192,-1322.5"/>
<text text-anchor="start" x="200" y="-1340.5" font-family="Helvetica,sans-Serif" font-size="10.00">beseenium.controller.Action</text>
<text text-anchor="middle" x="300" y="-1329.5" font-family="Helvetica,sans-Serif" font-size="10.00">Factory.elementActions.MakeGetLocation</text>
</a>
</g>
</g>
<!-- Node1&#45;&gt;Node6 -->
<g id="edge5" class="edge"><title>Node1&#45;&gt;Node6</title>
<path fill="none" stroke="midnightblue" d="M78.4332,-826.816C86.0642,-920.006 117.156,-1242.19 187,-1312.5 190.791,-1316.32 195.028,-1319.61 199.575,-1322.44"/>
<polygon fill="midnightblue" stroke="midnightblue" points="81.9038,-826.308 77.6179,-816.619 74.9261,-826.866 81.9038,-826.308"/>
</g>
<!-- Node7 -->
<g id="node7" class="node"><title>Node7</title>
<g id="a_node7"><a xlink:href="a00091.html" target="_top" xlink:title="creates a new GetSize action ">
<polygon fill="white" stroke="black" points="202,-1273.5 202,-1303.5 398,-1303.5 398,-1273.5 202,-1273.5"/>
<text text-anchor="start" x="210" y="-1291.5" font-family="Helvetica,sans-Serif" font-size="10.00">beseenium.controller.Action</text>
<text text-anchor="middle" x="300" y="-1280.5" font-family="Helvetica,sans-Serif" font-size="10.00">Factory.elementActions.MakeGetSize</text>
</a>
</g>
</g>
<!-- Node1&#45;&gt;Node7 -->
<g id="edge6" class="edge"><title>Node1&#45;&gt;Node7</title>
<path fill="none" stroke="midnightblue" d="M79.0699,-826.93C88.4221,-914.399 123.47,-1200.93 187,-1263.5 191.471,-1267.9 196.538,-1271.6 201.985,-1274.7"/>
<polygon fill="midnightblue" stroke="midnightblue" points="82.5349,-826.413 78.0107,-816.832 75.5731,-827.143 82.5349,-826.413"/>
</g>
<!-- Node8 -->
<g id="node8" class="node"><title>Node8</title>
<g id="a_node8"><a xlink:href="a00092.html" target="_top" xlink:title="creates a new GetTagName action ">
<polygon fill="white" stroke="black" points="189,-1224.5 189,-1254.5 411,-1254.5 411,-1224.5 189,-1224.5"/>
<text text-anchor="start" x="197" y="-1242.5" font-family="Helvetica,sans-Serif" font-size="10.00">beseenium.controller.Action</text>
<text text-anchor="middle" x="300" y="-1231.5" font-family="Helvetica,sans-Serif" font-size="10.00">Factory.elementActions.MakeGetTagName</text>
</a>
</g>
</g>
<!-- Node1&#45;&gt;Node8 -->
<g id="edge7" class="edge"><title>Node1&#45;&gt;Node8</title>
<path fill="none" stroke="midnightblue" d="M79.8281,-826.834C90.9982,-908.009 129.697,-1159.54 187,-1214.5 190.954,-1218.29 195.351,-1221.56 200.051,-1224.37"/>
<polygon fill="midnightblue" stroke="midnightblue" points="83.2457,-825.989 78.4356,-816.549 76.309,-826.928 83.2457,-825.989"/>
</g>
<!-- Node9 -->
<g id="node9" class="node"><title>Node9</title>
<g id="a_node9"><a xlink:href="a00093.html" target="_top" xlink:title="creates a new GetText action ">
<polygon fill="white" stroke="black" points="202,-1175.5 202,-1205.5 398,-1205.5 398,-1175.5 202,-1175.5"/>
<text text-anchor="start" x="210" y="-1193.5" font-family="Helvetica,sans-Serif" font-size="10.00">beseenium.controller.Action</text>
<text text-anchor="middle" x="300" y="-1182.5" font-family="Helvetica,sans-Serif" font-size="10.00">Factory.elementActions.MakeGetText</text>
</a>
</g>
</g>
<!-- Node1&#45;&gt;Node9 -->
<g id="edge8" class="edge"><title>Node1&#45;&gt;Node9</title>
<path fill="none" stroke="midnightblue" d="M76.0839,-827.069C76.4782,-893.526 87.2182,-1072.95 187,-1165.5 191.455,-1169.63 196.438,-1173.13 201.761,-1176.1"/>
<polygon fill="midnightblue" stroke="midnightblue" points="79.5845,-826.715 76.1041,-816.708 72.5845,-826.701 79.5845,-826.715"/>
</g>
<!-- Node10 -->
<g id="node10" class="node"><title>Node10</title>
<g id="a_node10"><a xlink:href="a00097.html" target="_top" xlink:title="creates a new IsDisplayed action ">
<polygon fill="white" stroke="black" points="194,-1126.5 194,-1156.5 406,-1156.5 406,-1126.5 194,-1126.5"/>
<text text-anchor="start" x="202" y="-1144.5" font-family="Helvetica,sans-Serif" font-size="10.00">beseenium.controller.Action</text>
<text text-anchor="middle" x="300" y="-1133.5" font-family="Helvetica,sans-Serif" font-size="10.00">Factory.elementActions.MakeIsDisplayed</text>
</a>
</g>
</g>
<!-- Node1&#45;&gt;Node10 -->
<g id="edge9" class="edge"><title>Node1&#45;&gt;Node10</title>
<path fill="none" stroke="midnightblue" d="M77.4724,-826.895C81.2108,-886.965 99.3176,-1038.58 187,-1116.5 191.319,-1120.34 196.096,-1123.63 201.173,-1126.44"/>
<polygon fill="midnightblue" stroke="midnightblue" points="80.9606,-826.579 76.928,-816.782 73.9707,-826.956 80.9606,-826.579"/>
</g>
<!-- Node11 -->
<g id="node11" class="node"><title>Node11</title>
<g id="a_node11"><a xlink:href="a00098.html" target="_top" xlink:title="creates a new IsEnabled action ">
<polygon fill="white" stroke="black" points="198,-1077.5 198,-1107.5 402,-1107.5 402,-1077.5 198,-1077.5"/>
<text text-anchor="start" x="206" y="-1095.5" font-family="Helvetica,sans-Serif" font-size="10.00">beseenium.controller.Action</text>
<text text-anchor="middle" x="300" y="-1084.5" font-family="Helvetica,sans-Serif" font-size="10.00">Factory.elementActions.MakeIsEnabled</text>
</a>
</g>
</g>
<!-- Node1&#45;&gt;Node11 -->
<g id="edge10" class="edge"><title>Node1&#45;&gt;Node11</title>
<path fill="none" stroke="midnightblue" d="M79.2825,-826.578C86.5683,-879.697 111.215,-1003.88 187,-1067.5 191.578,-1071.34 196.621,-1074.63 201.957,-1077.43"/>
<polygon fill="midnightblue" stroke="midnightblue" points="82.7537,-826.129 78.0128,-816.654 75.8103,-827.017 82.7537,-826.129"/>
</g>
<!-- Node12 -->
<g id="node12" class="node"><title>Node12</title>
<g id="a_node12"><a xlink:href="a00099.html" target="_top" xlink:title="creates a new IsSelected action ">
<polygon fill="white" stroke="black" points="196,-1028.5 196,-1058.5 404,-1058.5 404,-1028.5 196,-1028.5"/>
<text text-anchor="start" x="204" y="-1046.5" font-family="Helvetica,sans-Serif" font-size="10.00">beseenium.controller.Action</text>
<text text-anchor="middle" x="300" y="-1035.5" font-family="Helvetica,sans-Serif" font-size="10.00">Factory.elementActions.MakeIsSelected</text>
</a>
</g>
</g>
<!-- Node1&#45;&gt;Node12 -->
<g id="edge11" class="edge"><title>Node1&#45;&gt;Node12</title>
<path fill="none" stroke="midnightblue" d="M81.883,-826.668C93.0336,-872.399 123.137,-968.965 187,-1018.5 191.959,-1022.35 197.393,-1025.62 203.111,-1028.42"/>
<polygon fill="midnightblue" stroke="midnightblue" points="85.2383,-825.645 79.559,-816.701 78.4211,-827.234 85.2383,-825.645"/>
</g>
<!-- Node13 -->
<g id="node13" class="node"><title>Node13</title>
<g id="a_node13"><a xlink:href="a00105.html" target="_top" xlink:title="creates a new SendKeys action ">
<polygon fill="white" stroke="black" points="197,-979.5 197,-1009.5 403,-1009.5 403,-979.5 197,-979.5"/>
<text text-anchor="start" x="205" y="-997.5" font-family="Helvetica,sans-Serif" font-size="10.00">beseenium.controller.Action</text>
<text text-anchor="middle" x="300" y="-986.5" font-family="Helvetica,sans-Serif" font-size="10.00">Factory.elementActions.MakeSendKeys</text>
</a>
</g>
</g>
<!-- Node1&#45;&gt;Node13 -->
<g id="edge12" class="edge"><title>Node1&#45;&gt;Node13</title>
<path fill="none" stroke="midnightblue" d="M85.6666,-826.23C100.791,-863.444 134.614,-933.329 187,-969.5 192.574,-973.349 198.643,-976.616 204.977,-979.389"/>
<polygon fill="midnightblue" stroke="midnightblue" points="88.8169,-824.677 81.8966,-816.655 82.3036,-827.242 88.8169,-824.677"/>
</g>
<!-- Node14 -->
<g id="node14" class="node"><title>Node14</title>
<g id="a_node14"><a xlink:href="a00106.html" target="_top" xlink:title="creates a new Submit action ">
<polygon fill="white" stroke="black" points="203.5,-930.5 203.5,-960.5 396.5,-960.5 396.5,-930.5 203.5,-930.5"/>
<text text-anchor="start" x="211.5" y="-948.5" font-family="Helvetica,sans-Serif" font-size="10.00">beseenium.controller.Action</text>
<text text-anchor="middle" x="300" y="-937.5" font-family="Helvetica,sans-Serif" font-size="10.00">Factory.elementActions.MakeSubmit</text>
</a>
</g>
</g>
<!-- Node1&#45;&gt;Node14 -->
<g id="edge13" class="edge"><title>Node1&#45;&gt;Node14</title>
<path fill="none" stroke="midnightblue" d="M91.7426,-825.481C110.632,-853.122 145.46,-897.78 187,-921.5 193.044,-924.951 199.529,-927.908 206.221,-930.439"/>
<polygon fill="midnightblue" stroke="midnightblue" points="94.4222,-823.19 85.9609,-816.814 88.599,-827.075 94.4222,-823.19"/>
</g>
<!-- Node15 -->
<g id="node15" class="node"><title>Node15</title>
<g id="a_node15"><a xlink:href="a00078.html" target="_top" xlink:title="Creates a new FindElementsByClass action. ">
<polygon fill="white" stroke="black" points="211.5,-871 211.5,-912 388.5,-912 388.5,-871 211.5,-871"/>
<text text-anchor="start" x="219.5" y="-900" font-family="Helvetica,sans-Serif" font-size="10.00">beseenium.controller.Action</text>
<text text-anchor="start" x="219.5" y="-889" font-family="Helvetica,sans-Serif" font-size="10.00">Factory.findElementsBy.MakeFind</text>
<text text-anchor="middle" x="300" y="-878" font-family="Helvetica,sans-Serif" font-size="10.00">ElementsByClass</text>
</a>
</g>
</g>
<!-- Node1&#45;&gt;Node15 -->
<g id="edge14" class="edge"><title>Node1&#45;&gt;Node15</title>
<path fill="none" stroke="midnightblue" d="M108.997,-821.794C130.504,-834.552 159.678,-850.601 187,-861.5 195.601,-864.931 204.727,-868.098 213.912,-870.984"/>
<polygon fill="midnightblue" stroke="midnightblue" points="110.65,-818.705 100.276,-816.553 107.044,-824.704 110.65,-818.705"/>
</g>
<!-- Node16 -->
<g id="node16" class="node"><title>Node16</title>
<g id="a_node16"><a xlink:href="a00079.html" target="_top" xlink:title="Creates a new FindElementsByCss action. ">
<polygon fill="white" stroke="black" points="211.5,-811 211.5,-852 388.5,-852 388.5,-811 211.5,-811"/>
<text text-anchor="start" x="219.5" y="-840" font-family="Helvetica,sans-Serif" font-size="10.00">beseenium.controller.Action</text>
<text text-anchor="start" x="219.5" y="-829" font-family="Helvetica,sans-Serif" font-size="10.00">Factory.findElementsBy.MakeFind</text>
<text text-anchor="middle" x="300" y="-818" font-family="Helvetica,sans-Serif" font-size="10.00">ElementsByCss</text>
</a>
</g>
</g>
<!-- Node1&#45;&gt;Node16 -->
<g id="edge15" class="edge"><title>Node1&#45;&gt;Node16</title>
<path fill="none" stroke="midnightblue" d="M161.301,-812.934C177.701,-815.145 194.915,-817.466 211.403,-819.689"/>
<polygon fill="midnightblue" stroke="midnightblue" points="161.586,-809.441 151.208,-811.573 160.651,-816.378 161.586,-809.441"/>
</g>
<!-- Node17 -->
<g id="node17" class="node"><title>Node17</title>
<g id="a_node17"><a xlink:href="a00080.html" target="_top" xlink:title="creates a new FindElementsById action ">
<polygon fill="white" stroke="black" points="211.5,-751 211.5,-792 388.5,-792 388.5,-751 211.5,-751"/>
<text text-anchor="start" x="219.5" y="-780" font-family="Helvetica,sans-Serif" font-size="10.00">beseenium.controller.Action</text>
<text text-anchor="start" x="219.5" y="-769" font-family="Helvetica,sans-Serif" font-size="10.00">Factory.findElementsBy.MakeFind</text>
<text text-anchor="middle" x="300" y="-758" font-family="Helvetica,sans-Serif" font-size="10.00">ElementsById</text>
</a>
</g>
</g>
<!-- Node1&#45;&gt;Node17 -->
<g id="edge16" class="edge"><title>Node1&#45;&gt;Node17</title>
<path fill="none" stroke="midnightblue" d="M161.301,-790.066C177.701,-787.855 194.915,-785.534 211.403,-783.311"/>
<polygon fill="midnightblue" stroke="midnightblue" points="160.651,-786.622 151.208,-791.427 161.586,-793.559 160.651,-786.622"/>
</g>
<!-- Node18 -->
<g id="node18" class="node"><title>Node18</title>
<g id="a_node18"><a xlink:href="a00081.html" target="_top" xlink:title="creates a new FindElementsByLinkTxt action ">
<polygon fill="white" stroke="black" points="211.5,-691 211.5,-732 388.5,-732 388.5,-691 211.5,-691"/>
<text text-anchor="start" x="219.5" y="-720" font-family="Helvetica,sans-Serif" font-size="10.00">beseenium.controller.Action</text>
<text text-anchor="start" x="219.5" y="-709" font-family="Helvetica,sans-Serif" font-size="10.00">Factory.findElementsBy.MakeFind</text>
<text text-anchor="middle" x="300" y="-698" font-family="Helvetica,sans-Serif" font-size="10.00">ElementsByLinkTxt</text>
</a>
</g>
</g>
<!-- Node1&#45;&gt;Node18 -->
<g id="edge17" class="edge"><title>Node1&#45;&gt;Node18</title>
<path fill="none" stroke="midnightblue" d="M108.997,-781.206C130.504,-768.448 159.678,-752.399 187,-741.5 195.601,-738.069 204.727,-734.902 213.912,-732.016"/>
<polygon fill="midnightblue" stroke="midnightblue" points="107.044,-778.296 100.276,-786.447 110.65,-784.295 107.044,-778.296"/>
</g>
<!-- Node19 -->
<g id="node19" class="node"><title>Node19</title>
<g id="a_node19"><a xlink:href="a00082.html" target="_top" xlink:title="creates a new FindElementsByName action ">
<polygon fill="white" stroke="black" points="211.5,-631 211.5,-672 388.5,-672 388.5,-631 211.5,-631"/>
<text text-anchor="start" x="219.5" y="-660" font-family="Helvetica,sans-Serif" font-size="10.00">beseenium.controller.Action</text>
<text text-anchor="start" x="219.5" y="-649" font-family="Helvetica,sans-Serif" font-size="10.00">Factory.findElementsBy.MakeFind</text>
<text text-anchor="middle" x="300" y="-638" font-family="Helvetica,sans-Serif" font-size="10.00">ElementsByName</text>
</a>
</g>
</g>
<!-- Node1&#45;&gt;Node19 -->
<g id="edge18" class="edge"><title>Node1&#45;&gt;Node19</title>
<path fill="none" stroke="midnightblue" d="M91.9557,-777.882C111.05,-750.589 146.074,-706.264 187,-681.5 194.578,-676.915 202.859,-673.019 211.379,-669.712"/>
<polygon fill="midnightblue" stroke="midnightblue" points="88.8639,-776.202 86.1055,-786.432 94.641,-780.155 88.8639,-776.202"/>
</g>
<!-- Node20 -->
<g id="node20" class="node"><title>Node20</title>
<g id="a_node20"><a xlink:href="a00083.html" target="_top" xlink:title="creates a new FindElementsByPartialLinkTxt action ">
<polygon fill="white" stroke="black" points="211.5,-571 211.5,-612 388.5,-612 388.5,-571 211.5,-571"/>
<text text-anchor="start" x="219.5" y="-600" font-family="Helvetica,sans-Serif" font-size="10.00">beseenium.controller.Action</text>
<text text-anchor="start" x="219.5" y="-589" font-family="Helvetica,sans-Serif" font-size="10.00">Factory.findElementsBy.MakeFind</text>
<text text-anchor="middle" x="300" y="-578" font-family="Helvetica,sans-Serif" font-size="10.00">ElementsByPartialLinkTxt</text>
</a>
</g>
</g>
<!-- Node1&#45;&gt;Node20 -->
<g id="edge19" class="edge"><title>Node1&#45;&gt;Node20</title>
<path fill="none" stroke="midnightblue" d="M84.8517,-776.694C99.3106,-737.602 132.771,-661.958 187,-621.5 194.341,-616.023 202.611,-611.545 211.247,-607.885"/>
<polygon fill="midnightblue" stroke="midnightblue" points="81.507,-775.653 81.4294,-786.248 88.0969,-778.014 81.507,-775.653"/>
</g>
<!-- Node21 -->
<g id="node21" class="node"><title>Node21</title>
<g id="a_node21"><a xlink:href="a00084.html" target="_top" xlink:title="creates a new FindElementsByTagName action ">
<polygon fill="white" stroke="black" points="211.5,-511 211.5,-552 388.5,-552 388.5,-511 211.5,-511"/>
<text text-anchor="start" x="219.5" y="-540" font-family="Helvetica,sans-Serif" font-size="10.00">beseenium.controller.Action</text>
<text text-anchor="start" x="219.5" y="-529" font-family="Helvetica,sans-Serif" font-size="10.00">Factory.findElementsBy.MakeFind</text>
<text text-anchor="middle" x="300" y="-518" font-family="Helvetica,sans-Serif" font-size="10.00">ElementsByTagName</text>
</a>
</g>
</g>
<!-- Node1&#45;&gt;Node21 -->
<g id="edge20" class="edge"><title>Node1&#45;&gt;Node21</title>
<path fill="none" stroke="midnightblue" d="M80.7874,-776.412C90.4993,-727.453 118.86,-618.954 187,-561.5 194.233,-555.401 202.585,-550.531 211.402,-546.643"/>
<polygon fill="midnightblue" stroke="midnightblue" points="77.3081,-775.975 78.8947,-786.451 84.1869,-777.272 77.3081,-775.975"/>
</g>
<!-- Node22 -->
<g id="node22" class="node"><title>Node22</title>
<g id="a_node22"><a xlink:href="a00085.html" target="_top" xlink:title="creates a new FindElementsByXpath action ">
<polygon fill="white" stroke="black" points="211.5,-451 211.5,-492 388.5,-492 388.5,-451 211.5,-451"/>
<text text-anchor="start" x="219.5" y="-480" font-family="Helvetica,sans-Serif" font-size="10.00">beseenium.controller.Action</text>
<text text-anchor="start" x="219.5" y="-469" font-family="Helvetica,sans-Serif" font-size="10.00">Factory.findElementsBy.MakeFind</text>
<text text-anchor="middle" x="300" y="-458" font-family="Helvetica,sans-Serif" font-size="10.00">ElementsByXpath</text>
</a>
</g>
</g>
<!-- Node1&#45;&gt;Node22 -->
<g id="edge21" class="edge"><title>Node1&#45;&gt;Node22</title>
<path fill="none" stroke="midnightblue" d="M78.196,-776.359C83.4643,-718.818 104.581,-576.725 187,-501.5 194.137,-494.986 202.535,-489.86 211.47,-485.831"/>
<polygon fill="midnightblue" stroke="midnightblue" points="74.7026,-776.135 77.3627,-786.391 81.6786,-776.715 74.7026,-776.135"/>
</g>
<!-- Node23 -->
<g id="node23" class="node"><title>Node23</title>
<g id="a_node23"><a xlink:href="a00100.html" target="_top" xlink:title="creates new NavigateBack action ">
<polygon fill="white" stroke="black" points="187,-402.5 187,-432.5 413,-432.5 413,-402.5 187,-402.5"/>
<text text-anchor="start" x="195" y="-420.5" font-family="Helvetica,sans-Serif" font-size="10.00">beseenium.controller.Action</text>
<text text-anchor="middle" x="300" y="-409.5" font-family="Helvetica,sans-Serif" font-size="10.00">Factory.navigateActions.MakeNavigateBack</text>
</a>
</g>
</g>
<!-- Node1&#45;&gt;Node23 -->
<g id="edge22" class="edge"><title>Node1&#45;&gt;Node23</title>
<path fill="none" stroke="midnightblue" d="M76.1379,-776.156C76.6628,-710.295 87.6916,-532.549 187,-441.5 190.664,-438.14 194.681,-435.208 198.947,-432.651"/>
<polygon fill="midnightblue" stroke="midnightblue" points="72.638,-776.425 76.1372,-786.425 79.638,-776.425 72.638,-776.425"/>
</g>
<!-- Node24 -->
<g id="node24" class="node"><title>Node24</title>
<g id="a_node24"><a xlink:href="a00101.html" target="_top" xlink:title="create new NavigateForwards action ">
<polygon fill="white" stroke="black" points="198.5,-343 198.5,-384 401.5,-384 401.5,-343 198.5,-343"/>
<text text-anchor="start" x="206.5" y="-372" font-family="Helvetica,sans-Serif" font-size="10.00">beseenium.controller.Action</text>
<text text-anchor="start" x="206.5" y="-361" font-family="Helvetica,sans-Serif" font-size="10.00">Factory.navigateActions.MakeNavigate</text>
<text text-anchor="middle" x="300" y="-350" font-family="Helvetica,sans-Serif" font-size="10.00">Forward</text>
</a>
</g>
</g>
<!-- Node1&#45;&gt;Node24 -->
<g id="edge23" class="edge"><title>Node1&#45;&gt;Node24</title>
<path fill="none" stroke="midnightblue" d="M80.0454,-776.027C91.7409,-695.551 131.54,-448.807 187,-393.5 190.563,-389.946 194.499,-386.801 198.7,-384.017"/>
<polygon fill="midnightblue" stroke="midnightblue" points="76.5356,-775.847 78.5829,-786.242 83.4649,-776.839 76.5356,-775.847"/>
</g>
<!-- Node25 -->
<g id="node25" class="node"><title>Node25</title>
<g id="a_node25"><a xlink:href="a00104.html" target="_top" xlink:title="creates a new RefreshPage action ">
<polygon fill="white" stroke="black" points="190,-294.5 190,-324.5 410,-324.5 410,-294.5 190,-294.5"/>
<text text-anchor="start" x="198" y="-312.5" font-family="Helvetica,sans-Serif" font-size="10.00">beseenium.controller.Action</text>
<text text-anchor="middle" x="300" y="-301.5" font-family="Helvetica,sans-Serif" font-size="10.00">Factory.navigateActions.MakeRefreshPage</text>
</a>
</g>
</g>
<!-- Node1&#45;&gt;Node25 -->
<g id="edge24" class="edge"><title>Node1&#45;&gt;Node25</title>
<path fill="none" stroke="midnightblue" d="M78.9402,-776.31C87.9721,-688.354 122.369,-396.803 187,-333.5 190.481,-330.091 194.321,-327.115 198.42,-324.519"/>
<polygon fill="midnightblue" stroke="midnightblue" points="75.4393,-776.145 77.9202,-786.445 82.4041,-776.846 75.4393,-776.145"/>
</g>
<!-- Node26 -->
<g id="node26" class="node"><title>Node26</title>
<g id="a_node26"><a xlink:href="a00074.html" target="_top" xlink:title="creates a new BrowserQuit action ">
<polygon fill="white" stroke="black" points="200,-245.5 200,-275.5 400,-275.5 400,-245.5 200,-245.5"/>
<text text-anchor="start" x="208" y="-263.5" font-family="Helvetica,sans-Serif" font-size="10.00">beseenium.controller.Action</text>
<text text-anchor="middle" x="300" y="-252.5" font-family="Helvetica,sans-Serif" font-size="10.00">Factory.pageActions.MakeBrowserQuit</text>
</a>
</g>
</g>
<!-- Node1&#45;&gt;Node26 -->
<g id="edge25" class="edge"><title>Node1&#45;&gt;Node26</title>
<path fill="none" stroke="midnightblue" d="M78.3708,-776.249C85.8257,-682.562 116.497,-356.616 187,-285.5 190.857,-281.609 195.178,-278.266 199.819,-275.397"/>
<polygon fill="midnightblue" stroke="midnightblue" points="74.8604,-776.249 77.5757,-786.49 81.8394,-776.791 74.8604,-776.249"/>
</g>
<!-- Node27 -->
<g id="node27" class="node"><title>Node27</title>
<g id="a_node27"><a xlink:href="a00090.html" target="_top" xlink:title="creates a new GetPageSrc action ">
<polygon fill="white" stroke="black" points="200,-196.5 200,-226.5 400,-226.5 400,-196.5 200,-196.5"/>
<text text-anchor="start" x="208" y="-214.5" font-family="Helvetica,sans-Serif" font-size="10.00">beseenium.controller.Action</text>
<text text-anchor="middle" x="300" y="-203.5" font-family="Helvetica,sans-Serif" font-size="10.00">Factory.pageActions.MakeGetPageSrc</text>
</a>
</g>
</g>
<!-- Node1&#45;&gt;Node27 -->
<g id="edge26" class="edge"><title>Node1&#45;&gt;Node27</title>
<path fill="none" stroke="midnightblue" d="M77.8514,-776.452C83.703,-677.51 110.125,-315.438 187,-236.5 190.892,-232.504 195.272,-229.082 199.988,-226.158"/>
<polygon fill="midnightblue" stroke="midnightblue" points="74.3569,-776.257 77.2785,-786.441 81.3454,-776.658 74.3569,-776.257"/>
</g>
<!-- Node28 -->
<g id="node28" class="node"><title>Node28</title>
<g id="a_node28"><a xlink:href="a00094.html" target="_top" xlink:title="creates a new GetTitle action ">
<polygon fill="white" stroke="black" points="210.5,-147.5 210.5,-177.5 389.5,-177.5 389.5,-147.5 210.5,-147.5"/>
<text text-anchor="start" x="218.5" y="-165.5" font-family="Helvetica,sans-Serif" font-size="10.00">beseenium.controller.Action</text>
<text text-anchor="middle" x="300" y="-154.5" font-family="Helvetica,sans-Serif" font-size="10.00">Factory.pageActions.MakeGetTitle</text>
</a>
</g>
</g>
<!-- Node1&#45;&gt;Node28 -->
<g id="edge27" class="edge"><title>Node1&#45;&gt;Node28</title>
<path fill="none" stroke="midnightblue" d="M77.4449,-776.014C81.8603,-671.11 103.896,-274.131 187,-187.5 193.62,-180.599 201.695,-175.407 210.447,-171.525"/>
<polygon fill="midnightblue" stroke="midnightblue" points="73.9365,-776.156 77.0304,-786.289 80.9308,-776.438 73.9365,-776.156"/>
</g>
<!-- Node29 -->
<g id="node29" class="node"><title>Node29</title>
<g id="a_node29"><a xlink:href="a00095.html" target="_top" xlink:title="creates a new GetURL action ">
<polygon fill="white" stroke="black" points="210.5,-98.5 210.5,-128.5 389.5,-128.5 389.5,-98.5 210.5,-98.5"/>
<text text-anchor="start" x="218.5" y="-116.5" font-family="Helvetica,sans-Serif" font-size="10.00">beseenium.controller.Action</text>
<text text-anchor="middle" x="300" y="-105.5" font-family="Helvetica,sans-Serif" font-size="10.00">Factory.pageActions.MakeGetURL</text>
</a>
</g>
</g>
<!-- Node1&#45;&gt;Node29 -->
<g id="edge28" class="edge"><title>Node1&#45;&gt;Node29</title>
<path fill="none" stroke="midnightblue" d="M77.0717,-776.13C80.0735,-666.287 97.5011,-233.011 187,-138.5 193.575,-131.556 201.623,-126.338 210.358,-122.441"/>
<polygon fill="midnightblue" stroke="midnightblue" points="73.5691,-776.189 76.8112,-786.276 80.5668,-776.369 73.5691,-776.189"/>
</g>
<!-- Node30 -->
<g id="node30" class="node"><title>Node30</title>
<g id="a_node30"><a xlink:href="a00102.html" target="_top" xlink:title="creates a new PageClose action ">
<polygon fill="white" stroke="black" points="203.5,-49.5 203.5,-79.5 396.5,-79.5 396.5,-49.5 203.5,-49.5"/>
<text text-anchor="start" x="211.5" y="-67.5" font-family="Helvetica,sans-Serif" font-size="10.00">beseenium.controller.Action</text>
<text text-anchor="middle" x="300" y="-56.5" font-family="Helvetica,sans-Serif" font-size="10.00">Factory.pageActions.MakePageClose</text>
</a>
</g>
</g>
<!-- Node1&#45;&gt;Node30 -->
<g id="edge29" class="edge"><title>Node1&#45;&gt;Node30</title>
<path fill="none" stroke="midnightblue" d="M76.7528,-776.134C78.4258,-661.369 91.1172,-191.893 187,-89.5 191.766,-84.4102 197.323,-80.2448 203.364,-76.8462"/>
<polygon fill="midnightblue" stroke="midnightblue" points="73.2499,-776.347 76.6197,-786.392 80.2493,-776.438 73.2499,-776.347"/>
</g>
<!-- Node31 -->
<g id="node31" class="node"><title>Node31</title>
<g id="a_node31"><a xlink:href="a00103.html" target="_top" xlink:title="creates a new PageGet object ">
<polygon fill="white" stroke="black" points="208,-0.5 208,-30.5 392,-30.5 392,-0.5 208,-0.5"/>
<text text-anchor="start" x="216" y="-18.5" font-family="Helvetica,sans-Serif" font-size="10.00">beseenium.controller.Action</text>
<text text-anchor="middle" x="300" y="-7.5" font-family="Helvetica,sans-Serif" font-size="10.00">Factory.pageActions.MakePageGet</text>
</a>
</g>
</g>
<!-- Node1&#45;&gt;Node31 -->
<g id="edge30" class="edge"><title>Node1&#45;&gt;Node31</title>
<path fill="none" stroke="midnightblue" d="M76.4736,-776.307C76.8764,-657.097 84.6684,-150.856 187,-40.5 192.893,-34.1452 200.017,-29.2282 207.783,-25.4438"/>
<polygon fill="midnightblue" stroke="midnightblue" points="72.9736,-776.31 76.4548,-786.316 79.9736,-776.323 72.9736,-776.31"/>
</g>
</g>
</svg>
